<svg xmlns="http://www.w3.org/2000/svg" width="84" height="84" viewBox="0 0 84 84"><g id="Group_94527" data-name="Group 94527" transform="translate(-1306 -14035.481)"><g id="Ellipse_10" data-name="Ellipse 10" transform="translate(1309 14038.481)" fill="#e0e0e0" stroke="#707070" stroke-width="1"><circle cx="39" cy="39" r="39" stroke="none"></circle><circle cx="39" cy="39" r="38.5" fill="none"></circle></g><g id="Ellipse_11" data-name="Ellipse 11" transform="translate(1306 14035.481)" fill="none" stroke="#2a2628" stroke-width="1" stroke-dasharray="3"><circle cx="42" cy="42" r="42" stroke="none"></circle><circle cx="42" cy="42" r="41.5" fill="none"></circle></g><g id="_360" data-name="360" transform="translate(1328 14058.01)"><path id="Path_91541" data-name="Path 91541" d="M21.17-.01c.76.1,1.52.18,2.28.31a19.66,19.66,0,0,1,9.52,4.47c.35.3.41.64.16.91-.23.27-.58.27-.94-.03A18.529,18.529,0,0,0,26.6,2.37c-.71-.27-1.45-.47-2.18-.7l-.09.12a12.1,12.1,0,0,1,.97.92,17.543,17.543,0,0,1,3.28,5.72c.23.62.43,1.25.62,1.89a.609.609,0,0,0,.49.47,22.668,22.668,0,0,1,5.07,2.09,13.3,13.3,0,0,1,3.26,2.52.538.538,0,0,0,.31.17c-.23-.71-.42-1.43-.68-2.13A18.653,18.653,0,0,0,34.43,7.9l-.12-.15c-.29-.38-.3-.69-.01-.93a.6.6,0,0,1,.9.18c.52.67,1.06,1.32,1.52,2.03A19.972,19.972,0,0,1,25.27,39.27,19.6,19.6,0,0,1,7.05,35.22a1.8,1.8,0,0,1-.2-.19.554.554,0,0,1-.02-.75.519.519,0,0,1,.73-.13c.24.15.46.35.68.52a18.63,18.63,0,0,0,7.18,3.56.319.319,0,0,0,.24-.06c-.34-.32-.71-.61-1.02-.95a18.818,18.818,0,0,1-3.77-7.29,1.062,1.062,0,0,0-.81-.83,19.5,19.5,0,0,1-6.35-3c-.7-.52-1.32-1.13-2.02-1.73.1.37.18.73.29,1.08a19,19,0,0,0,3.6,6.64c.41.49.43.82.1,1.08-.3.23-.63.12-1.01-.34A19.753,19.753,0,0,1,.07,21.5c-.01-.11-.05-.22-.07-.34V18.82c.02-.14.05-.27.07-.41.1-.72.15-1.45.29-2.16A19.525,19.525,0,0,1,5.78,5.95,19.478,19.478,0,0,1,16.55.31C17.3.18,18.07.1,18.83,0,19.61-.01,20.39-.01,21.17-.01ZM24.1,30.28A38.355,38.355,0,0,1,12,29.64a20.754,20.754,0,0,0,2.39,5.33,10.086,10.086,0,0,0,2.48,2.73,5.028,5.028,0,0,0,6.76-.4,13.289,13.289,0,0,0,2.93-4.01,28.367,28.367,0,0,0,2.7-11.22,34.892,34.892,0,0,0-.83-10.08.473.473,0,0,0-.44-.44c-1.53-.23-3.05-.55-4.58-.71a34.551,34.551,0,0,0-11.51.74.5.5,0,0,0-.31.31,31.715,31.715,0,0,0-.87,5.98,36,36,0,0,0,.86,10.19.532.532,0,0,0,.33.34c.51.14,1.04.24,1.56.34a37.464,37.464,0,0,0,8.59.53c.53-.02,1.07-.09,1.7-.14-.57-.41-1.05-.74-1.52-1.08-.37-.27-.45-.6-.23-.9a.6.6,0,0,1,.9-.06c.89.63,1.78,1.26,2.67,1.91a.611.611,0,0,1,.17,1c-.62.88-1.25,1.76-1.89,2.63-.1.13-.24.3-.37.31a.941.941,0,0,1-.62-.17c-.24-.2-.18-.5-.01-.75C23.25,31.47,23.64,30.93,24.1,30.28ZM1.73,15.67c.2-.21.34-.37.5-.52.16-.17.33-.33.51-.49a18.658,18.658,0,0,1,6.61-3.58,32.355,32.355,0,0,1,8.11-1.51,37.738,37.738,0,0,1,9.37.53c.38.07.76.14,1.13.22.04-.03.07-.06.11-.09-.5-1.19-.94-2.41-1.51-3.57a11.151,11.151,0,0,0-3.65-4.54,4.749,4.749,0,0,0-5.3-.3A9.831,9.831,0,0,0,14,5.67c-.21.33-.38.67-.6,1.09.7-.23,1.3-.45,1.91-.63a.905.905,0,0,1,.63.02.6.6,0,0,1,.27.5.934.934,0,0,1-.47.54c-1.02.38-2.06.71-3.1,1.06-.52.17-.77.04-.95-.48-.34-1.01-.68-2.02-1.01-3.03-.04-.11-.1-.26-.06-.34.1-.2.23-.47.41-.53.16-.06.42.09.6.21.1.06.13.25.18.38.19.54.37,1.08.55,1.63.5-.79.94-1.59,1.48-2.32s1.15-1.37,1.72-2.05A18.661,18.661,0,0,0,1.73,15.67Zm27.9-3.7a35.491,35.491,0,0,1,.87,8.02,36.9,36.9,0,0,1-.86,8,18.2,18.2,0,0,0,6.92-3.61,6.555,6.555,0,0,0,2.1-3.22,5.038,5.038,0,0,0-1.37-4.81C35.26,14.08,32.57,12.93,29.63,11.97Zm-19.28.02A20.271,20.271,0,0,0,5,14.4a9.728,9.728,0,0,0-2.94,2.81,4.84,4.84,0,0,0-.83,3.4,6.244,6.244,0,0,0,2.29,3.83,16.215,16.215,0,0,0,5.14,2.97c.54.2,1.09.38,1.71.6A37.786,37.786,0,0,1,10.35,11.99ZM38.19,24.35a1.442,1.442,0,0,1-.22.27c-.82.68-1.59,1.42-2.47,2.02a19.994,19.994,0,0,1-5.83,2.56.6.6,0,0,0-.47.48c-.18.64-.38,1.27-.62,1.89a16.441,16.441,0,0,1-4.11,6.55,1.417,1.417,0,0,0-.11.16A18.463,18.463,0,0,0,38.19,24.35Z" fill="#5e5e5e"></path><path id="Path_91542" data-name="Path 91542" d="M19.18,19.27a1.883,1.883,0,0,1,1.68-.29,1.2,1.2,0,0,1,1.02,1,9.278,9.278,0,0,1-.02,1.58.65.65,0,0,1-.13.28,2.014,2.014,0,0,1-2.2.79,1.551,1.551,0,0,1-1.41-1.44,23.711,23.711,0,0,1-.03-2.92,1.742,1.742,0,0,1,2.07-1.75,1.786,1.786,0,0,1,1.32.48,2.644,2.644,0,0,1,.47.95.387.387,0,0,1-.35.54.544.544,0,0,1-.69-.38.775.775,0,0,0-.93-.62c-.5.03-.74.22-.8.72C19.15,18.54,19.18,18.89,19.18,19.27Zm-.03,1.47c0,.69.29,1.03.88,1.04.56.01.89-.38.88-1.03-.01-.68-.28-.98-.87-.99S19.14,20.1,19.15,20.74Z" fill="#5e5e5e"></path><path id="Path_91543" data-name="Path 91543" d="M26.56,19.6c0,.47.02.94,0,1.41a1.545,1.545,0,0,1-1.38,1.59,3.605,3.605,0,0,1-1.35-.05,1.452,1.452,0,0,1-1.14-1.46,27.294,27.294,0,0,1,0-3,1.686,1.686,0,0,1,2-1.57,1.72,1.72,0,0,1,1.88,1.91c.01.39,0,.78,0,1.17Zm-1.09-.01h.02V18.42a1.225,1.225,0,0,0-.02-.19.76.76,0,0,0-.82-.75c-.52-.01-.83.2-.85.7-.04.94-.04,1.89,0,2.84.02.49.36.71.86.7a.76.76,0,0,0,.81-.76C25.49,20.5,25.47,20.04,25.47,19.59Z" fill="#5e5e5e"></path><path id="Path_91544" data-name="Path 91544" d="M16.6,19.4a1.491,1.491,0,0,1,.8,1.78,1.551,1.551,0,0,1-1.28,1.4,2.409,2.409,0,0,1-1.99-.28,1.333,1.333,0,0,1-.62-1.11c-.01-.26.09-.44.36-.45s.62-.09.69.31a.715.715,0,0,0,.71.65c.34.03.77.06.9-.29a2.272,2.272,0,0,0,.05-1.16c-.03-.15-.37-.29-.59-.35-.28-.07-.55-.1-.54-.47.01-.34.24-.41.52-.45.43-.06.58-.3.56-.83a.606.606,0,0,0-.6-.68c-.55-.06-.74.07-.88.62-.09.37-.38.34-.65.33-.3-.01-.41-.18-.41-.46a1.306,1.306,0,0,1,.99-1.3,4.682,4.682,0,0,1,1.54-.06,1.113,1.113,0,0,1,1,.92,1.757,1.757,0,0,1-.38,1.71C16.73,19.28,16.68,19.32,16.6,19.4Z" fill="#5e5e5e"></path></g></g></svg>