<svg xmlns="http://www.w3.org/2000/svg" width="84" height="84" viewBox="0 0 84 84"><g id="Group_94528" data-name="Group 94528" transform="translate(-734 -14035.481)"><g id="Ellipse_10" data-name="Ellipse 10" transform="translate(737 14038.481)" fill="#e0e0e0" stroke="#707070" stroke-width="1"><circle cx="39" cy="39" r="39" stroke="none"></circle><circle cx="39" cy="39" r="38.5" fill="none"></circle></g><g id="Ellipse_11" data-name="Ellipse 11" transform="translate(734 14035.481)" fill="none" stroke="#2a2628" stroke-width="1" stroke-dasharray="3"><circle cx="42" cy="42" r="42" stroke="none"></circle><circle cx="42" cy="42" r="41.5" fill="none"></circle></g><g id="Client_Centric" data-name="Client Centric" transform="translate(758.013 14057.989)"><path id="Path_91545" data-name="Path 91545" d="M22.4,32.13a5.593,5.593,0,0,1,3.28,4.21,33.358,33.358,0,0,1,.18,3.64H14.14a36.007,36.007,0,0,1,.22-3.77,5.422,5.422,0,0,1,2.98-3.93,2.116,2.116,0,0,1,.21-.11.467.467,0,0,0,.05-.06,3.9,3.9,0,0,1,1.72-6.88V22.6h-.44c-3.37,0-6.75.04-10.12-.02a2.106,2.106,0,0,0-2.28,2.64,3.911,3.911,0,0,1,1.79,6.85A19.131,19.131,0,0,1,10,33.46a5.461,5.461,0,0,1,1.6,3.84c.02.88,0,1.77,0,2.68H-.01c.08-1.47-.19-2.95.31-4.39a5.894,5.894,0,0,1,3.13-3.46,3.826,3.826,0,0,1-1.37-4.01,3.884,3.884,0,0,1,3.12-2.91,7.959,7.959,0,0,1,.01-1.09A3.214,3.214,0,0,1,8.44,21.3c3.45-.01,6.91,0,10.36,0h.52v-2a2.058,2.058,0,0,1-2.57-1.86,2.089,2.089,0,0,1-1.92-1.92A2.082,2.082,0,0,1,12.9,13.6a2.067,2.067,0,0,1-1.56-3.25,6.187,6.187,0,0,1,.04-8.45,6.2,6.2,0,0,1,8.64-.24A6.054,6.054,0,0,1,24.78.04a5.956,5.956,0,0,1,3.8,1.83,6.135,6.135,0,0,1,.4,8.1,2.073,2.073,0,0,1-1.22,3.62,2.117,2.117,0,0,1-1.94,1.92,2.073,2.073,0,0,1-1.92,1.92,2.065,2.065,0,0,1-3.25,1.54v2.31H31.29a3.252,3.252,0,0,1,3.55,3.52v.39a3.836,3.836,0,0,1,3.09,2.88,3.776,3.776,0,0,1-1.29,3.96,20.71,20.71,0,0,1,1.75,1.41,5.467,5.467,0,0,1,1.6,3.85c.02.88,0,1.77,0,2.68H28.37c.08-1.48-.18-2.96.32-4.4a5.811,5.811,0,0,1,2.81-3.29c.09-.05.19-.1.32-.17a3.9,3.9,0,0,1,1.68-6.89,2.079,2.079,0,0,0-2.17-2.65c-3.4.05-6.8.02-10.2.02h-.46v2.62A3.923,3.923,0,0,1,22.4,32.13Zm-.66-17.72c.11.11.21.19.3.29.41.41.81.83,1.23,1.22a.7.7,0,0,0,1.21-.36,1.111,1.111,0,0,0-.26-.71c-.45-.51-.95-.97-1.44-1.46.32-.32.6-.61.9-.91.1.1.2.19.3.28.41.41.81.83,1.23,1.22a.7.7,0,0,0,1.21-.35,1.011,1.011,0,0,0-.26-.71c-.45-.51-.96-.97-1.38-1.4.3-.34.58-.64.87-.97.49.49.96.97,1.44,1.44a.726.726,0,1,0,1.03-1.01C26.78,9.64,25.45,8.3,24.1,6.97a.6.6,0,0,0-.44-.1,7.963,7.963,0,0,1-1.34.22,1.492,1.492,0,0,0-1.31.59,2.077,2.077,0,0,1-1.76.73c-.68-.02-1.37,0-2.06-.01a1.565,1.565,0,0,1-1.57-.97,1.54,1.54,0,0,1,.41-1.76c.68-.67,1.35-1.35,2.02-2.02.34-.34.69-.67,1.03-1A4.785,4.785,0,0,0,12.3,9.4a2.061,2.061,0,0,1,3.22,1.57,2.074,2.074,0,0,1,1.92,1.93,2.081,2.081,0,0,1,1.93,1.91c.04.02.06.04.08.04a2.012,2.012,0,0,1,1.75,2.64.4.4,0,0,0,.01.22.755.755,0,0,0,.84.33.646.646,0,0,0,.52-.68,1.146,1.146,0,0,0-.31-.62c-.45-.49-.94-.95-1.38-1.38C21.19,15.02,21.46,14.72,21.74,14.41Zm6.31-5.39c.03-.04.07-.08.1-.12a4.8,4.8,0,0,0-.76-6.38,4.769,4.769,0,0,0-6.36-.01c-1.4,1.31-2.73,2.7-4.08,4.06a.437.437,0,0,0-.12.37.532.532,0,0,0,.37.16c.44.02.89-.04,1.33.02a2.008,2.008,0,0,0,2.05-.86,1.1,1.1,0,0,1,1.08-.45,3.86,3.86,0,0,0,2.75-.82c.1-.08.2-.16.29-.23l.91.88c-.18.16-.35.31-.5.45C26.09,7.07,27.06,8.03,28.05,9.02ZM3.89,36.16V38.7H7.75V36.17H9.06V38.7h1.26c0-.53.02-1.04,0-1.55a4.508,4.508,0,0,0-5.53-4.11c-2.38.59-3.86,2.68-3.44,5.65H2.6V36.16Zm14.17,2.53h3.89V36.16h1.29v2.53h1.27c0-.49.01-.95,0-1.42a4.5,4.5,0,0,0-6.79-3.73c-1.93,1.16-2.43,2.95-2.19,5.15h1.26V36.16h1.27C18.06,37.01,18.06,37.83,18.06,38.69Zm14.2,0h3.87V36.16h1.29v2.52h1.27c0-.53.02-1.04,0-1.55a4.518,4.518,0,0,0-4.3-4.22c-2.61-.1-5.24,2.02-4.66,5.77h1.25V36.16h1.28ZM5.8,31.62a2.575,2.575,0,1,0-2.55-2.6A2.565,2.565,0,0,0,5.8,31.62Zm14.19-5.16a2.58,2.58,0,1,0,2.59,2.58A2.582,2.582,0,0,0,19.99,26.46Zm16.78,2.58a2.575,2.575,0,1,0-2.58,2.59A2.58,2.58,0,0,0,36.77,29.04ZM12.84,12.27c.58,0,1.38-.77,1.34-1.19a.858.858,0,0,0-.36-.61.909.909,0,0,0-.74.02,1.8,1.8,0,0,0-.67.67.951.951,0,0,0-.03.74C12.47,12.08,12.74,12.19,12.84,12.27Zm1.93,1.96a1.726,1.726,0,0,0,1.2-.8.675.675,0,0,0-.06-.94.686.686,0,0,0-.95-.04,2.2,2.2,0,0,0-.58.6.992.992,0,0,0-.08.73C14.38,13.99,14.65,14.12,14.77,14.23Zm3.29.72a.707.707,0,0,0-1.04-.65,2.876,2.876,0,0,0-.81.82.7.7,0,0,0,.67,1.02A1.742,1.742,0,0,0,18.06,14.95Zm1.37,1.19c-.59.01-1.4.78-1.34,1.2a.89.89,0,0,0,.39.62.9.9,0,0,0,.73-.06,1.606,1.606,0,0,0,.62-.62.959.959,0,0,0,.06-.74C19.81,16.35,19.53,16.23,19.43,16.14Z" fill="#5e5e5e"></path></g></g></svg>