<svg xmlns="http://www.w3.org/2000/svg" width="80" height="80" viewBox="0 0 80 80"><g id="Group_106254" data-name="Group 106254" transform="translate(5 3)"><path id="Path_136385" data-name="Path 136385" d="M7.029,47.98H-3.887A1.1,1.1,0,0,0-5,49.074V75.906A1.1,1.1,0,0,0-3.887,77H7.029a1.105,1.105,0,0,0,1.113-1.094V71.729l.4.292a12.144,12.144,0,0,0,7.086,2.3H28.69a12.232,12.232,0,0,0,5.973-1.561L66.522,54.714a5.075,5.075,0,0,0,1.056-8.051A5.221,5.221,0,0,0,63.9,45.168h-.006a5.292,5.292,0,0,0-2.585.678L45.17,55l-.128-.2A5.144,5.144,0,0,0,42,52.579L23.863,47.8a12.062,12.062,0,0,0-8.954,1.085l-6.767,3.7V49.074A1.105,1.105,0,0,0,7.029,47.98ZM5.916,74.811h-8.69V50.169h8.69ZM15.989,50.794a9.827,9.827,0,0,1,7.3-.884l18.139,4.779a2.957,2.957,0,0,1,1.833,1.329,2.878,2.878,0,0,1,.342,2.217,2.924,2.924,0,0,1-1.355,1.807,3.005,3.005,0,0,1-2.255.336l-.111-.03L27.9,57.192a1.135,1.135,0,0,0-.844.109,1.087,1.087,0,0,0,.267,2.005c5.117,1.325,12.895,3.308,13.347,3.339h.059A5.127,5.127,0,0,0,44.3,61.212a4.962,4.962,0,0,0,1.539-3.541c0-.118,0-.236-.009-.355l-.007-.152.133-.076,16.461-9.344A3.019,3.019,0,0,1,66.475,48.8a2.937,2.937,0,0,1,.4,1.479A2.9,2.9,0,0,1,65.4,52.82h0L33.555,70.859a9.974,9.974,0,0,1-4.865,1.269H15.617A9.884,9.884,0,0,1,8.711,69.3l-.569-.559V55.079Z" fill="#5e5e5e"></path><path id="Path_136386" data-name="Path 136386" d="M43.869,18.465A15.854,15.854,0,1,0,59.991,34.317,16.006,16.006,0,0,0,43.869,18.465Zm0,29.515a13.665,13.665,0,1,1,13.9-13.663A13.8,13.8,0,0,1,43.869,47.98Z" fill="#5e5e5e"></path><path id="Path_136387" data-name="Path 136387" d="M15.215,19.312a1.106,1.106,0,0,0,1.114-1.1V16.454L16.5,16.4a3.756,3.756,0,0,0,2.341-4.806,3.836,3.836,0,0,0-3.616-2.516h-.007a1.589,1.589,0,1,1,1.617-1.589,1.113,1.113,0,0,0,2.226,0A3.8,3.8,0,0,0,16.5,3.939l-.168-.058V2.119a1.113,1.113,0,0,0-2.226,0V3.881l-.168.058a3.8,3.8,0,0,0-2.184,1.927,3.688,3.688,0,0,0-.158,2.88,3.836,3.836,0,0,0,3.615,2.517h.007A1.589,1.589,0,1,1,13.6,12.851a1.113,1.113,0,0,0-2.226,0A3.792,3.792,0,0,0,13.935,16.4l.168.058v1.763A1.1,1.1,0,0,0,15.215,19.312Z" fill="#5e5e5e"></path><path id="Path_136388" data-name="Path 136388" d="M15.215-3A13.3,13.3,0,0,0,1.823,10.168,13.317,13.317,0,0,0,15.215,23.337,13.3,13.3,0,0,0,28.608,10.168,13.3,13.3,0,0,0,15.215-3Zm0,24.148A11.087,11.087,0,0,1,4.049,10.168a11.169,11.169,0,0,1,22.334,0A11.088,11.088,0,0,1,15.215,21.148Z" fill="#5e5e5e"></path><path id="Path_136389" data-name="Path 136389" d="M43.869,46.143a1.1,1.1,0,0,0,1.113-1.093V43.326l.189-.048a5.107,5.107,0,0,0,3.736-6.22,5.179,5.179,0,0,0-5.031-3.836,2.93,2.93,0,1,1,2.973-2.931,1.113,1.113,0,0,0,2.226,0,5.135,5.135,0,0,0-3.9-4.935l-.189-.048V23.584a1.113,1.113,0,0,0-2.226,0v1.724l-.188.048A5.148,5.148,0,0,0,39.389,27.7a5,5,0,0,0-.557,3.871,5.175,5.175,0,0,0,5.028,3.835h.009a2.931,2.931,0,1,1-2.981,2.93,1.112,1.112,0,0,0-2.224,0,5.136,5.136,0,0,0,3.9,4.937l.188.048V45.05A1.1,1.1,0,0,0,43.869,46.143Z" fill="#5e5e5e"></path><path id="Path_136390" data-name="Path 136390" d="M64.337-3A10.588,10.588,0,0,0,53.672,7.485,10.666,10.666,0,0,0,75,7.485,10.605,10.605,0,0,0,64.337-3ZM62.72,10.168a1.113,1.113,0,0,0-2.226,0,3.793,3.793,0,0,0,2.561,3.545l.168.058v1.935l-.293-.049a8.385,8.385,0,0,1-5.468-3.365,8.127,8.127,0,0,1-1.446-6.181,8.361,8.361,0,0,1,6.914-6.8l.293-.049V1.2l-.168.058a3.758,3.758,0,0,0-2.342,4.806A3.837,3.837,0,0,0,64.33,8.579h.007a1.589,1.589,0,1,1-1.617,1.589ZM72.656,8.86a8.359,8.359,0,0,1-6.914,6.8l-.293.049V13.771l.168-.058A3.789,3.789,0,0,0,67.8,11.787a3.688,3.688,0,0,0,.158-2.88,3.836,3.836,0,0,0-3.615-2.516h-.007A1.589,1.589,0,1,1,65.952,4.8a1.113,1.113,0,0,0,2.226,0,3.792,3.792,0,0,0-2.561-3.544L65.449,1.2V-.736l.293.049a8.386,8.386,0,0,1,5.469,3.366A8.121,8.121,0,0,1,72.656,8.86Z" fill="#5e5e5e"></path></g></svg>