<svg xmlns="http://www.w3.org/2000/svg" width="80" height="80" viewBox="0 0 80 80"><g id="Group_104353" data-name="Group 104353" transform="translate(0)"><path id="Path_134911" data-name="Path 134911" d="M39.027,80h1.947a6.255,6.255,0,0,0,6.238-6.238V68.314a3.859,3.859,0,0,1,1.364-2.975,13.5,13.5,0,0,0,.311-20.387A13.229,13.229,0,0,0,38.48,41.638,13.479,13.479,0,0,0,31.5,65.4a3.739,3.739,0,0,1,1.291,2.921v5.442A6.255,6.255,0,0,0,39.027,80Zm5.02-3.473a4.131,4.131,0,0,1-3.073,1.384H39.026a4.131,4.131,0,0,1-3.073-1.384l-.376-.423h8.846Zm1.077-2.51H34.876V72.209H45.124ZM28.764,53.871a11.4,11.4,0,0,1,9.943-10.158A11.143,11.143,0,0,1,47.5,46.508a11.419,11.419,0,0,1-.262,17.232,5.939,5.939,0,0,0-2.11,4.573v1.808h-4.08V64.672a1.038,1.038,0,0,0-.392-.815l-5.629-4.5a1.248,1.248,0,0,1-.472-.981v-.489a1.26,1.26,0,0,1,1.256-1.257h.365a1.254,1.254,0,0,1,1.046.56,3.344,3.344,0,0,0,5.564,0,1.253,1.253,0,0,1,1.046-.561h.364a1.261,1.261,0,0,1,1.257,1.257v.642a1.259,1.259,0,0,1-.368.889l-3.042,3.041,1.476,1.477,3.043-3.043a3.343,3.343,0,0,0,.978-2.363v-.643a3.353,3.353,0,0,0-3.344-3.344h-.369a3.332,3.332,0,0,0-2.778,1.489,1.257,1.257,0,0,1-1.742.348,1.244,1.244,0,0,1-.348-.349,3.331,3.331,0,0,0-2.777-1.488h-.37a3.353,3.353,0,0,0-3.344,3.344v.489a3.3,3.3,0,0,0,1.254,2.611l5.238,4.191v4.947h-4.08V68.314a5.812,5.812,0,0,0-2.05-4.525A11.414,11.414,0,0,1,28.764,53.871Z" fill="#5e5e5e"></path><path id="Path_134912" data-name="Path 134912" d="M54.029,16.392V11.668a1.043,1.043,0,0,0-1.043-1.044H51.155l-.057-.176a11.766,11.766,0,0,0-.719-1.731l-.085-.165,1.3-1.3a1.042,1.042,0,0,0,0-1.474L48.251,2.441a1.046,1.046,0,0,0-1.462-.015l-1.31,1.31-.166-.084a11.4,11.4,0,0,0-1.731-.72L43.4,2.874V1.044A1.045,1.045,0,0,0,42.362,0H37.639A1.046,1.046,0,0,0,36.6,1.043V2.874l-.177.058a11.4,11.4,0,0,0-1.731.72l-.166.084-1.295-1.3a1.037,1.037,0,0,0-.737-.307h0a1.04,1.04,0,0,0-.737.3l-3.34,3.34a1.042,1.042,0,0,0,0,1.473l1.3,1.3-.084.165a11.663,11.663,0,0,0-.72,1.731l-.057.176h-1.83a1.045,1.045,0,0,0-1.044,1.043v4.724a1.045,1.045,0,0,0,1.043,1.044h1.831l.057.176a11.507,11.507,0,0,0,.72,1.732l.084.165-1.3,1.3a1.042,1.042,0,0,0,0,1.474l3.34,3.34a1.079,1.079,0,0,0,1.481-.006l1.29-1.289.166.084a11.484,11.484,0,0,0,1.731.719l.177.058v1.829a1.045,1.045,0,0,0,1.043,1.045h4.723A1.046,1.046,0,0,0,43.4,27.015v-1.83l.177-.058a11.484,11.484,0,0,0,1.731-.719l.166-.084,1.295,1.294a1.037,1.037,0,0,0,.737.307h0a1.038,1.038,0,0,0,.737-.3l3.34-3.34a1.043,1.043,0,0,0,.069-1.4h-.045l-.053-.1-1.266-1.268.084-.165a11.764,11.764,0,0,0,.72-1.732l.057-.176h1.83A1.045,1.045,0,0,0,54.029,16.392Zm-2.088-1.046h-.706a2.212,2.212,0,0,0-2.107,1.576,9.552,9.552,0,0,1-.628,1.506,2.213,2.213,0,0,0,.376,2.614l.5.5L47.512,23.4l-.5-.5a2.219,2.219,0,0,0-2.609-.374,9.528,9.528,0,0,1-1.505.625,2.219,2.219,0,0,0-1.58,2.113v.7H38.683v-.706a2.215,2.215,0,0,0-1.577-2.109,9.619,9.619,0,0,1-1.5-.624,2.218,2.218,0,0,0-2.615.376l-.5.5-1.863-1.863.5-.5A2.211,2.211,0,0,0,31.5,18.43a9.572,9.572,0,0,1-.625-1.5,2.214,2.214,0,0,0-2.112-1.583h-.7V12.712h.706a2.208,2.208,0,0,0,2.107-1.575A9.513,9.513,0,0,1,31.5,9.631a2.215,2.215,0,0,0-.376-2.614l-.5-.5,1.863-1.862.5.5A2.214,2.214,0,0,0,35.6,5.53,9.484,9.484,0,0,1,37.1,4.905a2.217,2.217,0,0,0,1.58-2.112v-.7h2.634V2.8A2.215,2.215,0,0,0,42.894,4.9a9.524,9.524,0,0,1,1.5.624,2.216,2.216,0,0,0,2.615-.375l.5-.5,1.863,1.862-.5.5A2.211,2.211,0,0,0,48.5,9.629a9.572,9.572,0,0,1,.625,1.5,2.213,2.213,0,0,0,2.112,1.582h.7Z" fill="#5e5e5e"></path><path id="Path_134913" data-name="Path 134913" d="M40,7.142a6.887,6.887,0,1,0,6.888,6.888A6.9,6.9,0,0,0,40,7.142Zm0,11.687h0a4.8,4.8,0,1,1,4.8-4.8A4.8,4.8,0,0,1,40,18.829Z" fill="#5e5e5e"></path><path id="Path_134914" data-name="Path 134914" d="M50.24,67.491l.526,2.022c11.116-2.967,19.881-10.35,23.528-19.819l-1.956-.733C68.93,57.795,60.7,64.7,50.24,67.491Z" fill="#5e5e5e"></path><path id="Path_134915" data-name="Path 134915" d="M23.333,14.871l-.887-1.89C13.522,17.236,7.12,24.51,4.826,33l2.02.526C8.985,25.637,14.974,18.861,23.333,14.871Z" fill="#5e5e5e"></path><path id="Path_134916" data-name="Path 134916" d="M74.165,45.732a1.044,1.044,0,0,0,1.79,0l3.9-6.494a1.045,1.045,0,0,0-.358-1.432,1.052,1.052,0,0,0-.537-.149H75.985l-.022-.23C75,27.312,68.289,18.273,58.009,13.2L57.1,15.08c9.52,4.7,15.781,13.02,16.766,22.3l.03.281H71.165a1.046,1.046,0,0,0-.9,1.582Zm2.946-5.987-2.051,3.42-2.051-3.42Z" fill="#5e5e5e"></path><path id="Path_134917" data-name="Path 134917" d="M5.835,36.866a1.1,1.1,0,0,0-1.8.013L.149,43.359A1.044,1.044,0,0,0,.507,44.79a1.047,1.047,0,0,0,.537.149H4.378l.04.206c2.224,11.343,11.9,20.87,24.682,24.331l.532-2.018C17.675,64.22,8.848,55.729,6.565,45.247L6.5,44.939H8.835a1.044,1.044,0,0,0,.9-1.58ZM2.889,42.852l2.051-3.42,2.051,3.42Z" fill="#5e5e5e"></path></g></svg>