<svg xmlns="http://www.w3.org/2000/svg" width="79.942" height="80" viewBox="0 0 79.942 80"><g id="Group_105228" data-name="Group 105228" transform="translate(-0.029)"><path id="Path_135691" data-name="Path 135691" d="M27.872,53.893H6.314a3.641,3.641,0,0,0-3.621,3.623V72.874l-.278.1A3.621,3.621,0,0,0,3.622,80H30.568a3.621,3.621,0,0,0,3.59-3.649,3.638,3.638,0,0,0-2.386-3.376l-.278-.1V57.515A3.641,3.641,0,0,0,27.872,53.893ZM4.546,57.515a1.77,1.77,0,0,1,1.768-1.769H27.873a1.77,1.77,0,0,1,1.768,1.769V72.757H19.788a.927.927,0,0,0-.926.927v.42H15.325v-.42a.928.928,0,0,0-.926-.927H4.546Zm27.79,18.863a1.771,1.771,0,0,1-1.768,1.769H3.619a1.768,1.768,0,0,1,0-3.536h9.853v.42a.927.927,0,0,0,.927.926h5.389a.927.927,0,0,0,.927-.926v-.42h9.853A1.77,1.77,0,0,1,32.336,76.378Z" fill="#5e5e5e"></path><path id="Path_135692" data-name="Path 135692" d="M73.685,53.893H52.127a3.641,3.641,0,0,0-3.622,3.623V72.874l-.277.1A3.621,3.621,0,0,0,49.435,80H76.381a3.621,3.621,0,0,0,1.2-7.025l-.277-.1V57.515A3.641,3.641,0,0,0,73.685,53.893ZM50.359,57.515a1.77,1.77,0,0,1,1.768-1.769H73.686a1.771,1.771,0,0,1,1.769,1.769V72.757H65.6a.928.928,0,0,0-.927.927v.42H61.138v-.42a.928.928,0,0,0-.926-.927H50.359Zm27.79,18.863a1.77,1.77,0,0,1-1.768,1.769H49.432a1.768,1.768,0,0,1,0-3.536h9.853v.42a.927.927,0,0,0,.927.926H65.6a.927.927,0,0,0,.926-.926v-.42h9.853A1.77,1.77,0,0,1,78.149,76.378Z" fill="#5e5e5e"></path><path id="Path_135693" data-name="Path 135693" d="M40,30.986a4.969,4.969,0,1,0,4.969,4.969A4.975,4.975,0,0,0,40,30.986Zm0,8.085a3.115,3.115,0,1,1,3.116-3.116A3.12,3.12,0,0,1,40,39.071Z" fill="#5e5e5e"></path><path id="Path_135694" data-name="Path 135694" d="M62.909,36.881a7.664,7.664,0,0,0,.764-15.289l-.62-.062.289-.552a4.321,4.321,0,0,0,.491-1.878,11.018,11.018,0,0,0-11-11.021h-.017A10.969,10.969,0,0,0,45.235,11.1l-.523.495-.175-.7a14.4,14.4,0,0,0-28.37,3.5,14.167,14.167,0,0,0,1.583,6.543l.318.615h-.975a7.663,7.663,0,0,0,0,15.327h11.2V38.65a.923.923,0,0,0,.7.9l1.457.371L29.674,41.2a.922.922,0,0,0,.14,1.126l3.814,3.814a.944.944,0,0,0,1.134.137l1.275-.778.369,1.456a.925.925,0,0,0,.9.706h5.39a.925.925,0,0,0,.9-.7l.37-1.458,1.281.782a.944.944,0,0,0,1.131-.144l3.81-3.811a.923.923,0,0,0,.138-1.129l-.78-1.278L51,39.55a.926.926,0,0,0,.706-.9V36.881h11.2ZM49.853,37.929l-1.965.483a.937.937,0,0,0-.627.547.914.914,0,0,0,.064.832l1.033,1.742-2.782,2.781-1.737-1.045A.953.953,0,0,0,43,43.216a.941.941,0,0,0-.548.631l-.482,1.961H38.027l-.484-1.964A.939.939,0,0,0,37,43.216a.958.958,0,0,0-.841.056l-1.73,1.042-2.782-2.781L32.672,39.8a.921.921,0,0,0,.068-.836.941.941,0,0,0-.633-.549l-1.96-.482V33.982l1.964-.484a.938.938,0,0,0,.628-.548.913.913,0,0,0-.063-.83l-1.033-1.743,2.78-2.779,1.736,1.029a.924.924,0,0,0,.836.068.941.941,0,0,0,.549-.633l.482-1.959h3.948l.483,1.963a.937.937,0,0,0,.547.628.92.92,0,0,0,.832-.063L45.577,27.6l2.781,2.779-1.029,1.737a.912.912,0,0,0-.069.834.939.939,0,0,0,.633.551l1.96.483ZM51,32.362l-1.458-.37.782-1.283a.922.922,0,0,0-.141-1.127l-3.813-3.813a.943.943,0,0,0-1.134-.135l-1.274.778-.37-1.457a.929.929,0,0,0-.9-.707H37.305a.927.927,0,0,0-.9.7l-.37,1.459-1.282-.783a.945.945,0,0,0-1.13.144l-3.811,3.81a.925.925,0,0,0-.138,1.13l.779,1.279L29,32.361a.925.925,0,0,0-.707.9v1.767h-11.2a5.811,5.811,0,0,1,0-11.621H19.8a.926.926,0,0,0,.741-1.482A12.54,12.54,0,1,1,43.1,14.131a.931.931,0,0,0,.695.882.954.954,0,0,0,1.041-.44,9.169,9.169,0,0,1,17.142,4.54,4.53,4.53,0,0,1-.7,1.81,8.92,8.92,0,0,0-.589,1.249.977.977,0,0,0,.117.855.939.939,0,0,0,.756.38h1.348a5.811,5.811,0,0,1,0,11.621h-11.2V33.261A.922.922,0,0,0,51,32.362Z" fill="#5e5e5e"></path><rect id="Rectangle_37716" data-name="Rectangle 37716" width="1.853" height="1.853" transform="translate(53.895 40.419)" fill="#5e5e5e"></rect><path id="Path_135695" data-name="Path 135695" d="M65.181,50.357V44.039a3.625,3.625,0,0,0-3.622-3.62H59.285v1.853h2.274a1.77,1.77,0,0,1,1.769,1.767v6.318Z" fill="#5e5e5e"></path><rect id="Rectangle_37717" data-name="Rectangle 37717" width="1.854" height="1.853" transform="translate(24.251 40.419)" fill="#5e5e5e"></rect><path id="Path_135696" data-name="Path 135696" d="M20.715,42.272V40.419H18.441a3.624,3.624,0,0,0-3.621,3.62v6.318h1.853V44.039a1.77,1.77,0,0,1,1.768-1.767Z" fill="#5e5e5e"></path></g></svg>