<svg xmlns="http://www.w3.org/2000/svg" width="79.5" height="79.5" viewBox="0 0 79.5 79.5"><path id="Path_136063" data-name="Path 136063" d="M69.333,50.417a10.417,10.417,0,0,0,0-20.834,10.309,10.309,0,0,0-6.377,2.2l-.174.136-.156-.156L48.083,17.218l.136-.174a10.311,10.311,0,0,0,2.2-6.377,10.417,10.417,0,1,0-20.568,2.3l.049.215-9.87,3.6-.1-.2a10.419,10.419,0,1,0-5.094,14.289l.2-.09,5.1,8.584-4.76,7.354-.2-.1a10.29,10.29,0,0,0-4.509-1.042,10.417,10.417,0,1,0,8.656,16.2l.123-.182,10.448,5.23-.044.191A10.414,10.414,0,1,0,48.626,63.5l-.113-.167.14-.147L62.964,48.227l.177.13A10.324,10.324,0,0,0,69.333,50.417ZM61.251,33.45l-.135.174a10.333,10.333,0,0,0-1.836,3.7l-.057.213-8.8-1.211-.01-.221,0-.072a10.411,10.411,0,0,0-19.071-5.813l-.123.182L29.184,29.38l6.109-9.435.2.1a10.322,10.322,0,0,0,10.885-1.157l.175-.135.156.156ZM38.7,46.326l.219.028V58.98l-.219.028a10.324,10.324,0,0,0-3.461,1.072l-.209.108L22.685,39.417,28,31.212l2.259,1.128-.073.208A10.375,10.375,0,0,0,38.7,46.326ZM31.75,36A8.25,8.25,0,1,1,40,44.25,8.259,8.259,0,0,1,31.75,36ZM40,2.417a8.25,8.25,0,1,1-8.25,8.25A8.259,8.259,0,0,1,40,2.417ZM20.483,24.785a10.194,10.194,0,0,0,.335-5.755l-.049-.215,9.87-3.6.1.2A10.446,10.446,0,0,0,33.3,18.632l.169.141L27.234,28.4,20.41,24.993Zm-9.816,4.8a8.25,8.25,0,1,1,8.25-8.25A8.259,8.259,0,0,1,10.667,29.583Zm6.226.088.173-.136a10.482,10.482,0,0,0,2.257-2.417l.123-.182,6.6,3.3-4.6,7.1ZM10.667,64.25A8.25,8.25,0,1,1,18.917,56,8.259,8.259,0,0,1,10.667,64.25Zm19.972.53L20.41,59.66l.073-.208a10.348,10.348,0,0,0-3.117-11.417l-.169-.142,4.174-6.446L33.243,61.426l-.154.137a10.384,10.384,0,0,0-2.336,3ZM40,77.583a8.25,8.25,0,1,1,8.25-8.25A8.259,8.259,0,0,1,40,77.583Zm7.074-15.878-.18-.159A10.348,10.348,0,0,0,41.3,59.007l-.219-.028V46.353l.219-.028a10.5,10.5,0,0,0,8.752-7.645l.057-.213,8.811,1.212,0,.289a10.443,10.443,0,0,0,2.336,6.594l.139.171ZM61.083,40a8.25,8.25,0,1,1,8.25,8.25A8.26,8.26,0,0,1,61.083,40Z" transform="translate(-0.25 -0.25)" fill="#5e5e5e"></path></svg>