<svg xmlns="http://www.w3.org/2000/svg" width="74.42" height="80" viewBox="0 0 74.42 80"><g id="Group_99327" data-name="Group 99327" transform="translate(-2.79)"><path id="Path_130058" data-name="Path 130058" d="M15.274,67.2A34.693,34.693,0,0,1,5.214,42.676a1.212,1.212,0,0,0-2.424,0A37.211,37.211,0,1,0,41.446,5.386l-.12-.005V2.459A2.476,2.476,0,0,0,40.1.314a2.317,2.317,0,0,0-2.348.011l-7.007,4.1a2.493,2.493,0,0,0,0,4.268l7.006,4.1a2.319,2.319,0,0,0,2.348.012,2.476,2.476,0,0,0,1.227-2.145V7.8l.13.005a34.9,34.9,0,0,1-1.331,69.774c-.155,0-.309,0-.464,0A34.691,34.691,0,0,1,15.274,67.2ZM31.868,6.582,38.9,2.468l.03,3.97,0,.016a1.076,1.076,0,0,0-.023.11,1.12,1.12,0,0,0,.027.128l0,.032.031,3.98Z" fill="#5e5e5e"></path><path id="Path_130059" data-name="Path 130059" d="M4.845,34.817a1.187,1.187,0,0,0-.22-.021,1.218,1.218,0,0,0-1.19.973c-.091.485-.167.937-.232,1.378a1.215,1.215,0,0,0,1.015,1.378h0a1.832,1.832,0,0,0,.183.013A1.221,1.221,0,0,0,5.6,37.5c.074-.5.143-.912.217-1.3A1.215,1.215,0,0,0,4.845,34.817Z" fill="#5e5e5e"></path><path id="Path_130060" data-name="Path 130060" d="M5.43,28.851q-.266.684-.518,1.384a1.212,1.212,0,0,0,2.285.809c.151-.426.315-.861.486-1.293a1.213,1.213,0,0,0-2.253-.9Z" fill="#5e5e5e"></path><path id="Path_130061" data-name="Path 130061" d="M9.076,21.939c-.306.457-.6.922-.882,1.382a1.214,1.214,0,0,0,.4,1.665,1.2,1.2,0,0,0,.918.143,1.217,1.217,0,0,0,.749-.547c.271-.442.548-.877.826-1.293a1.213,1.213,0,0,0-2.015-1.35Z" fill="#5e5e5e"></path><path id="Path_130062" data-name="Path 130062" d="M14.457,16.051h-.005a1.2,1.2,0,0,0-.855.358c-.384.386-.764.787-1.131,1.192a1.211,1.211,0,0,0,.9,2.026h0a1.218,1.218,0,0,0,.9-.4c.321-.357.667-.72,1.054-1.113a1.212,1.212,0,0,0-.86-2.066Z" fill="#5e5e5e"></path><path id="Path_130063" data-name="Path 130063" d="M19.833,11.574a1.207,1.207,0,0,0-.679.208c-.392.265-.782.542-1.161.823A1.212,1.212,0,0,0,18.7,14.8h.009a1.218,1.218,0,0,0,.719-.243q.539-.393,1.082-.766a1.212,1.212,0,0,0-.681-2.215Z" fill="#5e5e5e"></path><path id="Path_130064" data-name="Path 130064" d="M23.106,10.479a1.207,1.207,0,0,0,1.182.939h0a1.234,1.234,0,0,0,.53-.121q.537-.26,1.073-.5a1.211,1.211,0,0,0-.5-2.318,1.2,1.2,0,0,0-.494.1c-.387.173-.768.351-1.148.533A1.207,1.207,0,0,0,23.106,10.479Z" fill="#5e5e5e"></path><path id="Path_130065" data-name="Path 130065" d="M62.851,60.189H58.713V31.976a2.553,2.553,0,0,0-2.549-2.55H53.489a2.553,2.553,0,0,0-2.55,2.55V60.189H48.013V37.326a2.552,2.552,0,0,0-2.549-2.549H42.789a2.552,2.552,0,0,0-2.55,2.549V60.189H37.314V42.676a2.553,2.553,0,0,0-2.55-2.55H32.089a2.553,2.553,0,0,0-2.55,2.55V60.189H26.614V50.7a2.553,2.553,0,0,0-2.55-2.55H21.389a2.553,2.553,0,0,0-2.55,2.55v9.488H17.377a1.212,1.212,0,1,0,0,2.424H62.851a1.212,1.212,0,1,0,0-2.424Zm-38.661,0H21.264V50.576H24.19Zm10.7,0H31.963V42.55h2.926Zm10.7,0H42.663V37.2h2.926Zm10.7,0H53.363V31.851h2.926Z" fill="#5e5e5e"></path><path id="Path_130066" data-name="Path 130066" d="M54.533,26.465a1.175,1.175,0,0,0,.287.036h.005A1.213,1.213,0,0,0,56,25.583l1.337-5.35a1.2,1.2,0,0,0-.137-.918,1.222,1.222,0,0,0-.745-.552l-5.35-1.337a1.212,1.212,0,1,0-.59,2.35l2.439.61L19.432,40.3a1.212,1.212,0,0,0,.62,2.254h0a1.187,1.187,0,0,0,.615-.17L54.294,22.416l-.644,2.578a1.214,1.214,0,0,0,.883,1.471Z" fill="#5e5e5e"></path></g></svg>