<svg xmlns="http://www.w3.org/2000/svg" width="84" height="84" viewBox="0 0 84 84"><g id="Group_94525" data-name="Group 94525" transform="translate(-748 -13575.481)"><circle id="Ellipse_12" data-name="Ellipse 12" cx="39" cy="39" r="39" transform="translate(751 13578.481)" fill="#e0e0e0"></circle><g id="Ellipse_13" data-name="Ellipse 13" transform="translate(748 13575.481)" fill="none" stroke="#2a2628" stroke-width="1" stroke-dasharray="3"><circle cx="42" cy="42" r="42" stroke="none"></circle><circle cx="42" cy="42" r="41.5" fill="none"></circle></g><g id="Innovation_technology-01" data-name="Innovation technology-01" transform="translate(769.981 13597.023)"><path id="Path_91697" data-name="Path 91697" d="M19.46,39.89a4.23,4.23,0,0,1-2-.9c-.43-.41-.75-.92-1.13-1.36a1,1,0,0,0-.38-.33,2.51,2.51,0,0,1-1.76-2.48q0-1.65,0-3.3a3.2,3.2,0,0,0-1.41-2.79,12.43,12.43,0,0,1-1.51-19c.31-.3.64-.33.89-.08a.62.62,0,0,1-.08.92A10.62,10.62,0,0,0,8.96,16.3a11,11,0,0,0,4.2,11.23,4.93,4.93,0,0,1,2.15,3.22h5a.6.6,0,0,1,.64.59.56.56,0,0,1-.64.57h-5v3.2a1.25,1.25,0,0,0,1.3,1.12h6.68a1.28,1.28,0,0,0,1.31-1.28q0-1.5,0-3H22.86c-.46,0-.72-.23-.71-.59s.28-.57.74-.57h1.84A4.81,4.81,0,0,1,27,27.45a8,8,0,0,0,1.44-1.35,10.83,10.83,0,0,0,2.22-11.36A10.83,10.83,0,0,0,21.73,7.4,10.87,10.87,0,0,0,14.1,9s-.1,0-.1.06a.6.6,0,0,1-.85-.16.57.57,0,0,1,.23-.82,12.22,12.22,0,0,1,3.4-1.51A12.4,12.4,0,0,1,32.26,16.2,12.11,12.11,0,0,1,27.7,28.38c-.21.18-.46.34-.67.53a3.09,3.09,0,0,0-1.17,2.4v3.41a2.51,2.51,0,0,1-1.79,2.56.46.46,0,0,0-.28.21,4.08,4.08,0,0,1-3.1,2.33.24.24,0,0,0-.1,0A6.4,6.4,0,0,1,19.46,39.89Zm3-2.48H17.54A2.89,2.89,0,0,0,20,38.71,2.92,2.92,0,0,0,22.46,37.41Z" fill="#5e5e5e"></path><path id="Path_91698" data-name="Path 91698" d="M27.07,14.63c-.07.15-.1.28-.16.38a4.59,4.59,0,0,1-.33.44c-.66.87-.66.87-.18,1.82a.43.43,0,0,0,.26.18c.43.08.87.15,1.3.2a.59.59,0,0,1,.57.66q0,1.11,0,2.22a.58.58,0,0,1-.59.67c-.43.08-.85.11-1.26.2a.64.64,0,0,0-.3.23,1.23,1.23,0,0,0,.25,1.81,1.78,1.78,0,0,1,.28.38.56.56,0,0,1-.07.8l-1.62,1.62a.59.59,0,0,1-.87.05q-.45-.32-.87-.66c-.23-.2-.43-.28-.69-.08a.11.11,0,0,1-.07,0c-.72.1-.84.59-.89,1.21-.1,1.12-.15,1.13-1.28,1.13H18.88c-.44,0-.62-.16-.69-.61a1.28,1.28,0,0,1-.05-.38,1.23,1.23,0,0,0-1.05-1.43c-.2,0-.33-.08-.49.05-.33.26-.66.49-1,.75a.59.59,0,0,1-.87-.07c-.53-.53-1.05-1-1.56-1.56a.58.58,0,0,1-.07-.89c.25-.33.51-.66.74-1,.07-.11,0-.3.05-.44h0c-.13-.85-.72-1-1.46-1a3.15,3.15,0,0,1-.43-.05.58.58,0,0,1-.54-.64v-2.3a.58.58,0,0,1,.54-.64c.39-.05.79-.13,1.2-.16.25,0,.43-.1.44-.38a.14.14,0,0,1,0-.1c.43-.57.18-1-.21-1.48-.74-1-.72-1,.13-1.82l1.15-1.15a.59.59,0,0,1,.87-.07,12.28,12.28,0,0,0,1,.75.52.52,0,0,0,.41,0,1.19,1.19,0,0,0,1.08-1.43,1.23,1.23,0,0,1,.07-.46.58.58,0,0,1,.64-.54h2.3a.57.57,0,0,1,.62.56,1.83,1.83,0,0,1,.07.46A1.19,1.19,0,0,0,23,13.3a.57.57,0,0,0,.41-.05c.36-.23.69-.51,1-.75a.6.6,0,0,1,.84.05l1.62,1.62C26.94,14.32,27,14.48,27.07,14.63Zm.3,4.1c-.46-.07-.89-.15-1.33-.2a.72.72,0,0,1-.66-.56,11.44,11.44,0,0,0-.56-1.36.75.75,0,0,1,.08-.89c.26-.33.51-.67.72-1l-.95-1c-.33.25-.67.48-1,.74a.74.74,0,0,1-.92.08A8.62,8.62,0,0,0,21.46,14a.72.72,0,0,1-.57-.67c-.05-.43-.11-.84-.18-1.26H19.33c-.07.44-.11.87-.18,1.3a.77.77,0,0,1-.56.66,10,10,0,0,0-1.36.56.75.75,0,0,1-.89-.08c-.33-.26-.67-.51-1-.74-.36.31-.69.62-1,.94.25.33.48.66.74,1a.76.76,0,0,1,.08,1,3.5,3.5,0,0,0-.46,1.07.969.969,0,0,1-1,.85c-1.07.11-1.05.13-1,1.2,0,.26.1.33.33.36s.66.1,1,.13a.72.72,0,0,1,.66.56,11.44,11.44,0,0,0,.56,1.36.71.71,0,0,1-.07.85c-.28.34-.53.71-.74,1,.33.36.64.67.95,1,.34-.25.69-.51,1-.77a.72.72,0,0,1,.85-.07,11.46,11.46,0,0,0,1.31.56.78.78,0,0,1,.62.74c.05.41.11.82.16,1.21h1.38c.07-.43.11-.84.18-1.25a.75.75,0,0,1,.57-.69,10,10,0,0,0,1.36-.56.69.69,0,0,1,.85.07l1,.75c.36-.33.67-.64,1-.94-.28-.36-.53-.72-.8-1.07a.67.67,0,0,1-.08-.75c.23-.51.41-1,.66-1.53a.91.91,0,0,1,.53-.43,10.609,10.609,0,0,1,1.15-.18.321.321,0,0,0,.25-.25c.01-.41-.01-.79-.01-1.2Z" fill="#5e5e5e"></path><path id="Path_91699" data-name="Path 91699" d="M4.26,18.68H2.64A.6.6,0,0,1,2,18.12a.619.619,0,0,1,.66-.61H5.91a.59.59,0,1,1,0,1.17Z" fill="#5e5e5e"></path><path id="Path_91700" data-name="Path 91700" d="M35.74,18.68H34.12c-.39,0-.66-.21-.66-.56a.6.6,0,0,1,.66-.61h3.25a.59.59,0,1,1,0,1.17Z" fill="#5e5e5e"></path><path id="Path_91701" data-name="Path 91701" d="M20.57,2.39V4c0,.44-.23.72-.59.71s-.57-.26-.57-.72V.84c0-.46.23-.72.59-.71s.57.26.57.72Z" fill="#5e5e5e"></path><path id="Path_91702" data-name="Path 91702" d="M29.86,8.85c-.16-.14-.36-.24-.46-.42a.5.5,0,0,1,.13-.66l1.69-1.69c.23-.23.44-.46.69-.67a.57.57,0,0,1,.8,0,.59.59,0,0,1,0,.84c-.79.82-1.61,1.61-2.41,2.41C30.22,8.71,30.06,8.75,29.86,8.85Z" fill="#5e5e5e"></path><path id="Path_91703" data-name="Path 91703" d="M7.64,5.14a4.81,4.81,0,0,1,.51.31l2.26,2.26a.57.57,0,0,1,.07.89c-.23.26-.57.25-.87-.07C8.84,7.78,8.07,7,7.31,6.23a.49.49,0,0,1-.14-.68C7.26,5.39,7.46,5.29,7.64,5.14Z" fill="#5e5e5e"></path><path id="Path_91704" data-name="Path 91704" d="M26.25,3.81a15.621,15.621,0,0,1-.72,1.62.45.45,0,0,1-.69.11c-.16-.13-.33-.43-.28-.59a7.58,7.58,0,0,1,.54-1.41.48.48,0,0,1,.66-.23C26,3.4,26.09,3.63,26.25,3.81Z" fill="#5e5e5e"></path><path id="Path_91705" data-name="Path 91705" d="M15.55,5.13c-.16.16-.3.43-.49.46a.66.66,0,0,1-.62-.2,6.48,6.48,0,0,1-.57-1.48.69.69,0,0,1,.33-.56.71.71,0,0,1,.64.13C15.11,4,15.29,4.52,15.55,5.13Z" fill="#5e5e5e"></path><path id="Path_91706" data-name="Path 91706" d="M32.49,12.87c.08-.08.2-.3.36-.39A6.42,6.42,0,0,1,34,12a.58.58,0,1,1,.4,1.08c-.36.15-.71.3-1.08.43A.617.617,0,0,1,32.49,12.87Z" fill="#5e5e5e"></path><path id="Path_91707" data-name="Path 91707" d="M7,13.66c-.59-.26-1.13-.44-1.62-.72-.23-.11-.26-.39-.13-.66A.5.5,0,0,1,5.86,12a12,12,0,0,1,1.41.54.46.46,0,0,1,.23.62C7.4,13.35,7.18,13.48,7,13.66Z" fill="#5e5e5e"></path><path id="Path_91708" data-name="Path 91708" d="M20,23.18a3.77,3.77,0,1,1,3.8-3.76A3.77,3.77,0,0,1,20,23.18ZM20,22a2.61,2.61,0,1,0-2.61-2.59A2.61,2.61,0,0,0,20,22Z" fill="#5e5e5e"></path></g></g></svg>