<svg xmlns="http://www.w3.org/2000/svg" width="80" height="80" viewBox="0 0 80 80"><path id="Path_128096" data-name="Path 128096" d="M63.469,64.49a34.4,34.4,0,0,1-24.49,10.144H1.25a1.25,1.25,0,0,1,0-2.5H38.979A32.134,32.134,0,0,0,42.923,8.109L46.619,11a1.25,1.25,0,1,1-1.539,1.97L38.21,7.6a1.25,1.25,0,0,1,0-1.971L45.08.265a1.25,1.25,0,1,1,1.539,1.97L42.4,5.533A34.635,34.635,0,0,1,63.469,64.49Zm-46.558,2.2A1.25,1.25,0,0,0,18.5,64.768,32.143,32.143,0,0,1,30.744,8.93,1.25,1.25,0,0,0,30.1,6.513,34.642,34.642,0,0,0,16.911,66.694ZM79.519,72.4l-6.87-5.365A1.25,1.25,0,1,0,71.11,69l4.008,3.13H61.388a1.25,1.25,0,0,0,0,2.5h13.73L71.11,77.765a1.25,1.25,0,1,0,1.539,1.97l6.87-5.365a1.25,1.25,0,0,0,0-1.971ZM26.64,40a12.339,12.339,0,1,1,12.339,12.34A12.353,12.353,0,0,1,26.64,40Zm2.5,0a9.839,9.839,0,1,0,9.839-9.839A9.851,9.851,0,0,0,29.14,40Zm-.972-17.386a20.234,20.234,0,0,1,6.162-2.555L35.548,16.9a1.25,1.25,0,0,1,1.167-.8h4.528a1.25,1.25,0,0,1,1.167.8l1.218,3.164a20.259,20.259,0,0,1,6.162,2.555l3.1-1.378a1.251,1.251,0,0,1,1.391.259l3.2,3.2a1.249,1.249,0,0,1,.259,1.391l-1.377,3.1a20.24,20.24,0,0,1,2.555,6.164l3.163,1.218a1.248,1.248,0,0,1,.8,1.166v4.528a1.249,1.249,0,0,1-.8,1.167L58.92,44.652a20.249,20.249,0,0,1-2.555,6.162l1.378,3.1a1.252,1.252,0,0,1-.259,1.392l-3.2,3.2a1.25,1.25,0,0,1-1.391.258l-3.1-1.377a20.239,20.239,0,0,1-6.164,2.555L42.41,63.109a1.252,1.252,0,0,1-1.167.8H36.715a1.252,1.252,0,0,1-1.167-.8L34.33,59.945a20.259,20.259,0,0,1-6.162-2.555l-3.1,1.377a1.248,1.248,0,0,1-1.391-.258l-3.2-3.2a1.25,1.25,0,0,1-.259-1.392l1.377-3.1a20.224,20.224,0,0,1-2.555-6.163l-3.163-1.218a1.248,1.248,0,0,1-.8-1.166V37.739a1.25,1.25,0,0,1,.8-1.167l3.163-1.217a20.234,20.234,0,0,1,2.555-6.163l-1.377-3.1a1.249,1.249,0,0,1,.259-1.391l3.2-3.2a1.251,1.251,0,0,1,1.391-.259Zm-.4,2.559-2.935-1.3-1.989,1.989,1.3,2.934a1.251,1.251,0,0,1-.1,1.2,17.771,17.771,0,0,0-2.7,6.519,1.252,1.252,0,0,1-.778.926L17.572,38.6v2.812l2.994,1.152a1.252,1.252,0,0,1,.778.926,17.78,17.78,0,0,0,2.7,6.52,1.25,1.25,0,0,1,.1,1.2l-1.3,2.934,1.989,1.989,2.935-1.3a1.25,1.25,0,0,1,1.2.1,17.778,17.778,0,0,0,6.519,2.7,1.251,1.251,0,0,1,.925.778l1.153,2.994h2.812l1.152-2.993a1.252,1.252,0,0,1,.926-.778,17.787,17.787,0,0,0,6.52-2.7,1.25,1.25,0,0,1,1.2-.1l2.934,1.3,1.989-1.989-1.3-2.935a1.25,1.25,0,0,1,.1-1.2,17.778,17.778,0,0,0,2.7-6.519,1.251,1.251,0,0,1,.778-.925l2.994-1.153V38.6l-2.993-1.152a1.25,1.25,0,0,1-.778-.926,17.787,17.787,0,0,0-2.7-6.52,1.25,1.25,0,0,1-.1-1.2l1.3-2.934-1.989-1.988-2.935,1.3a1.252,1.252,0,0,1-1.2-.1,17.78,17.78,0,0,0-6.519-2.7,1.248,1.248,0,0,1-.925-.777L40.385,18.6H37.573L36.42,21.592a1.248,1.248,0,0,1-.925.777,17.78,17.78,0,0,0-6.519,2.7A1.252,1.252,0,0,1,27.772,25.176Z" fill="#5e5e5e"></path></svg>