<svg xmlns="http://www.w3.org/2000/svg" id="Group_90558" data-name="Group 90558" width="80" height="80" viewBox="0 0 80 80"><path id="Path_118828" data-name="Path 118828" d="M2.676,25.248V72.364H0v3.815A3.826,3.826,0,0,0,3.821,80H76.193A3.824,3.824,0,0,0,80,76.179V72.358H77.319l.012-47.107A3.827,3.827,0,0,0,73.51,21.43H61.249v-.2a21.407,21.407,0,0,0-.133-2.32c-.019-.182-.05-.361-.082-.54-.018-.1-.035-.2-.051-.305-.071-.481-.143-.936-.242-1.4-.065-.294-.143-.58-.225-.872l-.042-.146c-.089-.337-.2-.733-.333-1.123-.119-.354-.249-.7-.4-1.071s-.276-.665-.427-1c-.139-.308-.32-.693-.5-1.04s-.37-.666-.565-.992l-.117-.2c-.144-.247-.278-.481-.436-.71a18.313,18.313,0,0,0-1.122-1.509c-.037-.046-.069-.092-.1-.138s-.058-.08-.089-.119a22.58,22.58,0,0,0-1.593-1.724l-.217-.2c-.5-.481-1.042-.939-1.595-1.371a.756.756,0,0,1-.069-.058L52.85,4.35l-.8-.579a21.215,21.215,0,0,0-29.49,5.335,21.846,21.846,0,0,0-1.579,2.676l-.29.56a.655.655,0,0,1-.042.1c-.277.613-.529,1.242-.74,1.863l-.045.119c-.018.042-.032.083-.048.13-.191.575-.361,1.181-.517,1.857l-.04.149c-.017.064-.035.13-.049.2-.138.612-.225,1.23-.3,1.8-.008.071-.02.14-.032.208s-.025.145-.035.219c-.07.742-.107,1.5-.1,2.245v.2H6.473A3.825,3.825,0,0,0,2.676,25.248Zm75.064,49.4v1.541A1.544,1.544,0,0,1,76.2,77.733H3.827a1.546,1.546,0,0,1-1.541-1.541V74.651ZM51.4,7.218l.743-.531.118.1c.492.42.962.868,1.408,1.329.088.092.173.187.256.281l.084.093c.32.344.619.7.891,1.042l.481.641c.207.284.4.577.6.879.174.271.34.54.5.811.13.222.246.442.358.664l.078.149c.161.321.321.627.448.935a8.414,8.414,0,0,1,.32.83c.127.321.252.641.358.962.077.239.139.481.2.721l.121.448c.064.231.128.467.176.709.074.349.125.707.176,1.054l.016.112c.013.091.029.182.045.275.027.161.056.321.074.5a18.874,18.874,0,0,1-1.384,9.373l-.028.067-.068.039-1.848.924a4.337,4.337,0,0,1-4.1-.116l-.6-.341A4.345,4.345,0,0,1,49.2,23.246v-.011a4.368,4.368,0,0,1,.7-.921,6.652,6.652,0,0,0,1.068-7.972L50.147,12.9A4.321,4.321,0,0,1,51.4,7.219ZM24.047,11.056A18.843,18.843,0,0,1,39.535,2.275h.481a18.792,18.792,0,0,1,9.955,2.854l.248.16-.236.175a6.6,6.6,0,0,0-1.8,8.586l.822,1.443a4.369,4.369,0,0,1-.7,5.23,6.631,6.631,0,0,0,0,9.371,6.466,6.466,0,0,0,1.4,1.068l.6.341a6.537,6.537,0,0,0,4.712.715l.526-.117-.321.433A19.075,19.075,0,0,1,48.053,38.4l-.2.095-.074-.208A13,13,0,0,0,40.861,30.8,8.559,8.559,0,0,1,35.8,23.01a10.675,10.675,0,0,0-2.014-6.283l-.63-.884a10.794,10.794,0,0,0-8.741-4.466h-.567Zm-2.91,8.378.008-.1A18.74,18.74,0,0,1,22.537,13.9l.041-.1.1-.022a8.54,8.54,0,0,1,8.605,3.368l.631.885a8.425,8.425,0,0,1,1.594,4.957,10.824,10.824,0,0,0,6.413,9.878A10.713,10.713,0,0,1,45.652,39.1l.067.192-.2.065c-.441.142-.883.252-1.255.336l-.123.034c-.321.072-.642.122-.908.16l-.335.054c-.183.029-.361.059-.542.08l-.1.012c-.193.023-.385.046-.579.063-.641.058-1.18.085-1.678.085A19.017,19.017,0,0,1,21.046,21.211c0-.594.032-1.187.091-1.777Zm-.847,9.644.052.125A21.188,21.188,0,0,0,40.013,42.484c.641,0,1.3-.034,2-.1.32-.03.628-.081.942-.131l.433-.066c.178-.026.353-.048.529-.085.532-.1,1.045-.227,1.477-.34l.175-.043c.064-.018.129-.032.193-.052.531-.145,1.055-.316,1.568-.513.037-.014.071-.024.1-.035l.075-.024.622-.236.082-.032a.321.321,0,0,0,.067-.026l.207-.077.091-.062A21.379,21.379,0,0,0,59.147,30.414l.22-.441c.021-.054.029-.071.037-.089.1-.224.2-.454.3-.686l.052-.124h9.954V67.011H10.334V29.077Zm-1.361-5.363.023.173a21.227,21.227,0,0,0,.515,2.659l.065.25H8.044V69.29H71.975V26.8H60.488l.107-.406c.043-.16.085-.321.116-.48l.035-.137c.011-.039.022-.078.032-.12.106-.5.2-1.059.284-1.764l.02-.176H73.509a1.542,1.542,0,0,1,1.541,1.541V72.37H4.956l.009-47.122A1.542,1.542,0,0,1,6.5,23.708Z" fill="#5e5e5e"></path><path id="Path_118829" data-name="Path 118829" d="M40.654,44.079l-11.8,13.767h5.984V64.26H46.466V57.846h5.986Zm3.808,11.763v6.414H36.846V55.842H33.214l7.44-8.682L48.1,55.842Z" fill="#5e5e5e"></path></svg>