<svg xmlns="http://www.w3.org/2000/svg" width="84" height="84" viewBox="0 0 84 84"><g id="Group_94526" data-name="Group 94526" transform="translate(-1306 -13575.481)"><g id="Ellipse_10" data-name="Ellipse 10" transform="translate(1309 13578.481)" fill="#e0e0e0" stroke="#707070" stroke-width="1"><circle cx="39" cy="39" r="39" stroke="none"></circle><circle cx="39" cy="39" r="38.5" fill="none"></circle></g><g id="Ellipse_11" data-name="Ellipse 11" transform="translate(1306 13575.481)" fill="none" stroke="#2a2628" stroke-width="1" stroke-dasharray="3"><circle cx="42" cy="42" r="42" stroke="none"></circle><circle cx="42" cy="42" r="41.5" fill="none"></circle></g><g id="Experienced" transform="translate(1328.282 13597.477)"><path id="Path_90892" data-name="Path 90892" d="M20.55.11A13.484,13.484,0,0,1,21.87.5a5.168,5.168,0,0,1-2.14,9.95A5.229,5.229,0,0,1,14.8,6.11,5.2,5.2,0,0,1,19.07.18c.07-.02.15-.05.22-.07Zm3.37,5.11A4.008,4.008,0,0,0,19.8,1.27a4.067,4.067,0,0,0-3.89,4.05,4.005,4.005,0,1,0,8.01-.1Z" fill="#5e5e5e"></path><path id="Path_90893" data-name="Path 90893" d="M22.26,32.81a2.5,2.5,0,0,1-4.69-.01c-1.06.45-2.14.82-3.15,1.34a4.042,4.042,0,0,0-2.21,3.6c-.02.49,0,.95-.02,1.44,0,.45-.23.72-.59.72s-.59-.27-.57-.72a15.367,15.367,0,0,1,.18-2.63,5.106,5.106,0,0,1,3.07-3.65c.94-.42,1.89-.79,2.83-1.16a.451.451,0,0,0,.34-.47,1.282,1.282,0,0,0-.57-1.21,3.378,3.378,0,0,0-2.03-.8,4.74,4.74,0,0,1-3.97-6.63c.25-.6.5-1.19.77-1.78a14.126,14.126,0,0,0,.84-2.5,7.687,7.687,0,0,1,12.67-4.02,4.783,4.783,0,0,1,.39.39.574.574,0,0,1-.8.81c-.25-.18-.45-.42-.7-.62A6.546,6.546,0,0,0,13.55,19a6.7,6.7,0,0,1-.4,1.37c-.37.9-.79,1.81-1.16,2.71a3.634,3.634,0,0,0,3.03,5.08h.2c-.77-2.23-.39-4.51-.4-6.77a5.1,5.1,0,0,1,1.26-3.23.946.946,0,0,1,1.41-.17,5.837,5.837,0,0,0,3.99,1.32c.85-.02,1.71.03,2.56.07a1.144,1.144,0,0,1,1.19,1.21c0,1.86.03,3.7-.02,5.56a13.367,13.367,0,0,1-.35,1.99,3.586,3.586,0,0,0,3.4-2.8,3.656,3.656,0,0,0-.2-2.24c-.37-.84-.75-1.68-1.09-2.53a14.344,14.344,0,0,1-.5-1.66c-.13-.45-.27-.92-.4-1.37-.13-.4-.03-.74.3-.85a.611.611,0,0,1,.79.42,3.521,3.521,0,0,1,.27.77,19.979,19.979,0,0,0,1.68,4.66,5.249,5.249,0,0,1,.44,2.11,4.832,4.832,0,0,1-5.21,4.69.681.681,0,0,0-.45.17,8.52,8.52,0,0,1-1.02.82.8.8,0,0,0-.44.8.593.593,0,0,0,.47.7c.8.28,1.59.62,2.38.94.12.05.23.1.35.15a.584.584,0,0,1,.35.79.6.6,0,0,1-.82.28c-.79-.32-1.57-.64-2.38-.95C22.6,32.95,22.45,32.9,22.26,32.81ZM16.9,18.97a4.492,4.492,0,0,0-.94,2.55c-.03,1.54-.05,3.08,0,4.62a4.049,4.049,0,0,0,8.09-.12c.03-1.76.02-3.52.02-5.28a1.6,1.6,0,0,0-.05-.27c-.84,0-1.66-.02-2.48,0A6.853,6.853,0,0,1,16.9,18.97Zm1.74,12.1c0,.34-.03.72,0,1.11a1.28,1.28,0,0,0,2.54,0,8.224,8.224,0,0,0,0-1.11Z" fill="#5e5e5e"></path><path id="Path_90894" data-name="Path 90894" d="M5.76,18.3V15.44c-.87-.35-1.04-.59-1.04-1.57v-.54a1.142,1.142,0,0,1,1.22-1.17h.85A1.15,1.15,0,0,1,8,13.3c.02.22,0,.44,0,.65a1.271,1.271,0,0,1-1.02,1.47V18.3a1.249,1.249,0,0,0,.12.08c.02-.07.03-.12.05-.18a5.2,5.2,0,0,1,.39-.9c.59-.94,1.21-1.86,1.79-2.81a3.478,3.478,0,0,0-.9-4.62,3.553,3.553,0,0,0-4.7.48,3.416,3.416,0,0,0-.84,2.28,2.045,2.045,0,0,1,0,.35.575.575,0,0,1-.6.57c-.32,0-.52-.23-.55-.59A4.492,4.492,0,0,1,5.11,8.19a4.655,4.655,0,0,1,5.11,7.09c-.45.7-.87,1.44-1.37,2.11a3.711,3.711,0,0,0-.65,2.24,1.723,1.723,0,0,1-1.37,1.74,1.831,1.831,0,0,1-2.3-1.84,3.412,3.412,0,0,0-.58-2.03c-.42-.57-.77-1.19-1.16-1.79-.23-.37-.18-.72.12-.9a.586.586,0,0,1,.85.27c.55.85,1.12,1.71,1.66,2.58a3.842,3.842,0,0,1,.25.67A.239.239,0,0,1,5.76,18.3Zm.15-4.99v.9h.9v-.9Zm1.07,6.22H5.74c-.05.5.15.72.62.72C6.85,20.23,7.03,20.03,6.98,19.53Z" fill="#5e5e5e"></path><path id="Path_90895" data-name="Path 90895" d="M29.72,16.75c.12-.64.22-1.37.37-2.09a.522.522,0,0,0-.17-.55c-.49-.45-.95-.92-1.42-1.37a.935.935,0,0,1-.34-1.04.96.96,0,0,1,.89-.64c.67-.08,1.34-.18,1.99-.3a.709.709,0,0,0,.39-.28c.32-.59.6-1.21.9-1.81a.9.9,0,0,1,.9-.62.882.882,0,0,1,.85.62c.28.6.6,1.21.89,1.81a.478.478,0,0,0,.44.3c.65.08,1.34.2,2.01.3a.884.884,0,0,1,.8.62.911.911,0,0,1-.27.99c-.47.45-.94.94-1.42,1.37a.668.668,0,0,0-.22.69c.12.64.22,1.27.34,1.91a.9.9,0,0,1-.34.97.885.885,0,0,1-1.06.05c-.59-.32-1.19-.62-1.78-.94a.545.545,0,0,0-.6,0c-.6.34-1.22.67-1.86.97A.9.9,0,0,1,29.72,16.75Zm7.03-4.61c-.5-.07-1.02-.18-1.52-.22a1.34,1.34,0,0,1-1.31-.9c-.2-.49-.47-.95-.72-1.49-.27.54-.54.99-.72,1.47a1.339,1.339,0,0,1-1.32.94c-.5.03-1.02.15-1.51.22.39.42.75.84,1.16,1.21a1.333,1.333,0,0,1,.44,1.39c-.12.54-.18,1.07-.28,1.68.54-.28,1.04-.5,1.49-.79a1.276,1.276,0,0,1,1.49,0c.45.28.94.5,1.51.79-.12-.69-.2-1.29-.32-1.88a1.066,1.066,0,0,1,.32-1.02C35.87,13.08,36.29,12.63,36.75,12.14Z" fill="#5e5e5e"></path><path id="Path_90896" data-name="Path 90896" d="M28.68,8.79c-.84-.39-1.63-.77-2.41-1.14a1.343,1.343,0,0,1-.37-.22.561.561,0,0,1,.68-.88c.8.39,1.61.77,2.41,1.16.13.07.25.13.39.22.03-.08.07-.13.08-.18a.548.548,0,0,1,.64-.44.555.555,0,0,1,.5.59V9.06a.557.557,0,0,1-.44.57l-1.01.3a.6.6,0,0,1-.72-.22.543.543,0,0,1,.08-.74C28.56,8.91,28.6,8.87,28.68,8.79Z" fill="#5e5e5e"></path><path id="Path_90897" data-name="Path 90897" d="M12.68,8.02c-.57.32-1.09.6-1.61.89a.59.59,0,0,1-.89-.28.549.549,0,0,1,.3-.72c.52-.3,1.06-.59,1.56-.87a2.329,2.329,0,0,1-.03-.64.543.543,0,0,1,.72-.35c.34.1.69.22,1.02.35a.559.559,0,0,1,.4.75c-.08.37-.18.72-.28,1.09-.12.45-.34.65-.65.62C12.86,8.82,12.7,8.59,12.68,8.02Z" fill="#5e5e5e"></path><path id="Path_90898" data-name="Path 90898" d="M28.8,38.22c0,.42.02.74,0,1.06a.571.571,0,0,1-.57.6.587.587,0,0,1-.59-.6c-.02-.42-.02-.82,0-1.24a4.288,4.288,0,0,0-.74-2.56.621.621,0,0,1,.08-.89c.3-.2.64-.12.89.27A5.429,5.429,0,0,1,28.8,38.22Z" fill="#5e5e5e"></path><path id="Path_90899" data-name="Path 90899" d="M19.26,6.06c.77-.79,1.46-1.47,2.14-2.16a2.614,2.614,0,0,1,.25-.23.549.549,0,0,1,.77.02.557.557,0,0,1,.03.8c-.3.32-.62.62-.92.94-.57.57-1.14,1.16-1.73,1.73-.35.35-.64.35-1.01-.02-.23-.22-.47-.45-.69-.69a.573.573,0,0,1-.03-.84.561.561,0,0,1,.85.02A1.744,1.744,0,0,1,19.26,6.06Z" fill="#5e5e5e"></path></g></g></svg>