<svg xmlns="http://www.w3.org/2000/svg" width="84" height="84" viewBox="0 0 84 84"><g id="Group_94529" data-name="Group 94529" transform="translate(-165.5 -14035.481)"><g id="Ellipse_10" data-name="Ellipse 10" transform="translate(169 14038.033)" fill="#e0e0e0" stroke="#707070" stroke-width="1"><circle cx="39" cy="39" r="39" stroke="none"></circle><circle cx="39" cy="39" r="38.5" fill="none"></circle></g><g id="Ellipse_11" data-name="Ellipse 11" transform="translate(165.5 14035.481)" fill="none" stroke="#2a2628" stroke-width="1" stroke-dasharray="3"><circle cx="42" cy="42" r="42" stroke="none"></circle><circle cx="42" cy="42" r="41.5" fill="none"></circle></g><g id="Rapid_Delivery" data-name="Rapid Delivery" transform="translate(186.998 14057.396)"><path id="Path_90871" data-name="Path 90871" d="M30.4,21.67h6.04A3.341,3.341,0,0,1,40,25.22c.01,2.61,0,5.23,0,7.84,0,.51.01,1.03-.02,1.54a3.276,3.276,0,0,1-3.2,3.08c-4.09.02-8.18.03-12.27,0a3.245,3.245,0,0,1-3.17-3.01c-.06-.8-.03-1.61-.03-2.42v-.48a13.15,13.15,0,0,1-13.02-3,12.487,12.487,0,0,1-4.34-9.41A13.362,13.362,0,1,1,30.4,21.67ZM7.98,19.7a9.246,9.246,0,0,0,3.25,6.38,9.048,9.048,0,0,0,5.37,2.21c.06-.54-.1-1.22.63-1.26.87-.05.68.72.76,1.22a7.717,7.717,0,0,0,3.13-.76.535.535,0,0,0,.17-.41c.02-.75-.02-1.5.03-2.25a3.308,3.308,0,0,1,3.38-3.17h1.58c.12-.67.24-1.32.36-1.99-.59-.03-1.28.13-1.31-.64-.04-.88.74-.66,1.28-.73a9.282,9.282,0,0,0-3.29-6.43,8.933,8.933,0,0,0-5.35-2.18c-.04.56.11,1.25-.66,1.26-.83.02-.64-.73-.72-1.23a9.2,9.2,0,0,0-8.57,8.57c1.02.12,1.24.25,1.24.7C9.27,19.46,9.05,19.59,7.98,19.7ZM30.62,36.36h5.84a2,2,0,0,0,2.19-2.17c.01-3,.01-6.01,0-9.01A2,2,0,0,0,36.47,23H24.83a2,2,0,0,0-2.2,2.16c-.01,3-.01,6.01,0,9.01a2.015,2.015,0,0,0,2.19,2.18C26.76,36.36,28.69,36.36,30.62,36.36ZM29,21.65a11.262,11.262,0,0,0,.16-4.62A12.019,12.019,0,1,0,5.67,22.02c1.31,4.9,4.72,7.75,9.63,8.81a10.39,10.39,0,0,0,5.63-.4c.14-.05.33-.17.34-.28.04-.4.02-.8.02-1.25a10.111,10.111,0,0,1-6.39.49,10.912,10.912,0,0,1-5.46-3.2,10,10,0,0,1-2.75-5.73A10.692,10.692,0,0,1,15.88,8.4a10.159,10.159,0,0,1,9.36,3.5,10.457,10.457,0,0,1,2.43,9.74C28.14,21.65,28.55,21.65,29,21.65Z" fill="#5e5e5e"></path><path id="Path_90872" data-name="Path 90872" d="M15.5,34.78c-.21-.2-.44-.38-.64-.59a.633.633,0,0,1-.04-.96.624.624,0,0,1,.96.01q.99.96,1.95,1.95a.654.654,0,0,1,0,1q-.96.99-1.95,1.95a.632.632,0,0,1-.96.02.667.667,0,0,1,.04-.97c.28-.29.57-.56.85-.83-1.21-.28-2.39-.48-3.52-.84C5.66,33.45,1.62,29.05.35,22.32A17.135,17.135,0,0,1,4.06,7.7a16.341,16.341,0,0,1,9.47-5.6A16.355,16.355,0,0,1,25.37,3.66a17.022,17.022,0,0,1,9.28,15.21c.02.49-.25.8-.65.8s-.67-.29-.68-.79a15.006,15.006,0,0,0-.91-5.19C30.2,7.92,26.09,4.23,19.98,3.26A15.385,15.385,0,0,0,4.43,9.42a15.5,15.5,0,0,0-3.06,9.93A15.556,15.556,0,0,0,5.44,29.84a15.923,15.923,0,0,0,8.8,4.84c.4.08.81.15,1.22.22A.84.84,0,0,1,15.5,34.78Z" fill="#5e5e5e"></path><path id="Path_90873" data-name="Path 90873" d="M17.53,17.82c.42-.42.81-.82,1.2-1.21q.555-.54,1.02-.09a.66.66,0,0,1-.07,1.02c-.61.62-1.23,1.24-1.86,1.85a.663.663,0,0,1-1.17-.22q-.975-2.25-1.94-4.51a.649.649,0,0,1,.34-.96c.37-.15.69,0,.89.44.47,1.08.93,2.16,1.4,3.25C17.39,17.53,17.45,17.65,17.53,17.82Z" fill="#5e5e5e"></path><path id="Path_90874" data-name="Path 90874" d="M29.46,29.22c1.12-1.13,2.17-2.2,3.24-3.25a1.967,1.967,0,0,1,3.26.57,1.8,1.8,0,0,1-.35,2.16c-1.58,1.62-3.19,3.23-4.81,4.81a1.937,1.937,0,0,1-2.66,0c-.85-.8-1.68-1.63-2.48-2.48a2,2,0,0,1,2.83-2.81C28.83,28.52,29.12,28.86,29.46,29.22Zm.05,3.53a4.543,4.543,0,0,0,.58-.41c1.08-1.06,2.15-2.14,3.22-3.21.44-.44.91-.86,1.31-1.34a.786.786,0,0,0,.11-.71.848.848,0,0,0-.61-.38c-.17-.02-.4.16-.55.31-1.17,1.15-2.32,2.32-3.49,3.47a.71.71,0,0,1-1.18,0c-.41-.4-.8-.81-1.21-1.21a.655.655,0,0,0-.99-.07.671.671,0,0,0,.05,1c.73.74,1.47,1.48,2.21,2.21A2.49,2.49,0,0,0,29.51,32.75Z" fill="#5e5e5e"></path></g></g></svg>