<svg xmlns="http://www.w3.org/2000/svg" width="80" height="68.805" viewBox="0 0 80 68.805"><g id="Group_105229" data-name="Group 105229" transform="translate(0 -5.598)"><path id="Path_135697" data-name="Path 135697" d="M40.521,20.961a1.07,1.07,0,0,0,.685-.468,1.086,1.086,0,0,0-.305-1.471l0,0a1.063,1.063,0,0,0-.586-.175,1.1,1.1,0,0,0-.255.03,1.068,1.068,0,0,0-.686.5,1.091,1.091,0,0,0,.332,1.433A1.08,1.08,0,0,0,40.521,20.961Z" fill="#5e5e5e"></path><path id="Path_135698" data-name="Path 135698" d="M28.474,74.4h23.97a4.781,4.781,0,0,0,4.776-4.775V67.781H68.229a4,4,0,0,0,4-4V49.114l.421-.072a8.848,8.848,0,0,0,0-17.441l-.421-.073V16.216a4,4,0,0,0-4-4H57.22V10.373A4.781,4.781,0,0,0,52.444,5.6H28.474A4.78,4.78,0,0,0,23.7,10.373v1.846H12.6a4,4,0,0,0-4,4V31.267L.308,39.56a1.094,1.094,0,0,0,0,1.522L8.6,49.375V63.784a4,4,0,0,0,4,4H23.7v1.846A4.78,4.78,0,0,0,28.474,74.4Zm26.593-4.775a2.626,2.626,0,0,1-2.623,2.623H28.474a2.627,2.627,0,0,1-2.624-2.623V63.784a2.626,2.626,0,0,1,2.624-2.623h23.97a2.626,2.626,0,0,1,2.624,2.623Zm16.083-36a6.7,6.7,0,0,1,0,13.4,6.788,6.788,0,0,1-6.7-6.7A6.705,6.705,0,0,1,71.15,33.623ZM9.678,47.408,2.591,40.321l7.087-7.087,7.086,7.087ZM12.6,65.629a1.846,1.846,0,0,1-1.844-1.845V49.375l8.293-8.293a1.092,1.092,0,0,0,0-1.522l-8.293-8.293V16.216A1.846,1.846,0,0,1,12.6,14.371H23.7v1.845a4.78,4.78,0,0,0,4.775,4.775h4.875a1.076,1.076,0,1,0,0-2.152H28.474a2.626,2.626,0,0,1-2.624-2.623V10.373A2.627,2.627,0,0,1,28.474,7.75h23.97a2.627,2.627,0,0,1,2.624,2.623v5.843a2.626,2.626,0,0,1-2.624,2.623H47.265a1.076,1.076,0,1,0,0,2.152h5.179a4.781,4.781,0,0,0,4.776-4.775V14.371H68.229a1.847,1.847,0,0,1,1.845,1.845V31.528l-.421.073a8.825,8.825,0,0,0-7.353,8.72,8.924,8.924,0,0,0,7.352,8.722l.422.071v14.67a1.848,1.848,0,0,1-1.845,1.845H57.22V63.784a4.781,4.781,0,0,0-4.776-4.775H28.474A4.78,4.78,0,0,0,23.7,63.784v1.845Z" fill="#5e5e5e"></path></g></svg>