<svg xmlns="http://www.w3.org/2000/svg" width="84" height="84" viewBox="0 0 84 84"><g id="Group_94524" data-name="Group 94524" transform="translate(-162 -13575.481)"><g id="Ellipse_10" data-name="Ellipse 10" transform="translate(165 13578.033)" fill="#e0e0e0" stroke="#707070" stroke-width="1"><circle cx="39" cy="39" r="39" stroke="none"></circle><circle cx="39" cy="39" r="38.5" fill="none"></circle></g><g id="Ellipse_11" data-name="Ellipse 11" transform="translate(162 13575.481)" fill="none" stroke="#2a2628" stroke-width="1" stroke-dasharray="3"><circle cx="42" cy="42" r="42" stroke="none"></circle><circle cx="42" cy="42" r="41.5" fill="none"></circle></g><g id="Customer_Satisfaction" data-name="Customer Satisfaction" transform="translate(185.268 13595.917)"><path id="Path_90875" data-name="Path 90875" d="M17.06,39.85a3.418,3.418,0,0,1-1.5-.91,7.206,7.206,0,0,0-3.45-1.59c-.03.12-.05.21-.07.3a1.249,1.249,0,0,1-1.21,1.01q-3.33.03-6.63,0a1.249,1.249,0,0,1-1.22-1.34c-.02-1.16,0-2.33,0-3.49V24.59A1.338,1.338,0,0,1,4.5,23.07h5.9c1.11,0,1.42.23,1.74,1.31.35-.31.68-.64,1.02-.93.84-.66,1.74-1.29,2.58-1.97A5.885,5.885,0,0,0,18,17.6a11.79,11.79,0,0,0,.15-2.05A2.243,2.243,0,0,1,20,13.47a2.4,2.4,0,0,1,2.74,1.57,10.507,10.507,0,0,1,.03,7.47,3.37,3.37,0,0,0-.13.41h7.51a2.591,2.591,0,0,1,1.28,4.96.21.21,0,0,1-.07.05,2.735,2.735,0,0,1-.94,3.84,2.617,2.617,0,0,1,.46,2.08,2.922,2.922,0,0,1-1.24,1.74,6.588,6.588,0,0,1,.46,1.17,2.561,2.561,0,0,1-1.87,3.01c-.07.02-.13.05-.21.08Zm5.44-1.24h5.04a1.334,1.334,0,0,0,.17-2.66,2.3,2.3,0,0,0-.26-.03.62.62,0,0,1-.5-.64.58.58,0,0,1,.6-.56,2.8,2.8,0,0,1,.5.03,1.555,1.555,0,0,0,1.65-1.31,1.366,1.366,0,0,0-1.29-1.42c-.09-.02-.16-.02-.24-.04a.6.6,0,0,1-.43-.66.571.571,0,0,1,.56-.55,3.14,3.14,0,0,1,.61.05,1.424,1.424,0,0,0,.46.02,1.593,1.593,0,0,0,1.17-1.54,1.351,1.351,0,0,0-1.41-1.22c-.31-.02-.63.03-.93-.02a.732.732,0,0,1-.5-.35.669.669,0,0,1,.07-.6.941.941,0,0,1,.6-.26c.68-.03,1.37,0,2.05-.02a1.336,1.336,0,1,0-.1-2.67H21.79c-.71,0-.98-.41-.66-1.04a9.805,9.805,0,0,0,1.01-3.67,9.263,9.263,0,0,0-.63-4.07,1.119,1.119,0,0,0-1.29-.69.949.949,0,0,0-.86,1.01c-.03.4-.07.79-.08,1.21a7.321,7.321,0,0,1-2.74,5.5c-.35.28-.79.45-1.12.74q-1.635,1.41-3.19,2.88a.714.714,0,0,0-.17.45c-.02,3.09,0,6.18-.02,9.27,0,.25.08.35.33.4a8.76,8.76,0,0,1,4.33,2.13,1.368,1.368,0,0,0,.88.31C19.21,38.63,20.86,38.61,22.5,38.61ZM4.2,37.44h6.58V24.38H4.2Z" fill="#5e5e5e"></path><path id="Path_90876" data-name="Path 90876" d="M15.22,13.5c.15-.68.3-1.39.46-2.12.15-.64.28-1.31.45-1.97a.537.537,0,0,0-.21-.63c-.98-.83-1.93-1.69-2.91-2.55-.25-.21-.45-.43-.31-.79s.41-.41.74-.45c1.32-.12,2.64-.26,3.97-.36.23-.02.3-.13.38-.31C18.3,3.11,18.83,1.91,19.36.7c.13-.3.28-.56.66-.56.36,0,.53.26.66.56.51,1.21,1.06,2.41,1.55,3.62a.431.431,0,0,0,.45.31c1.36.12,2.69.25,4.05.38a.638.638,0,0,1,.34,1.17c-.99.88-2,1.77-3.01,2.63a.513.513,0,0,0-.18.6c.3,1.22.55,2.45.83,3.67.02.08.03.15.05.23a.659.659,0,0,1-.23.76.647.647,0,0,1-.76-.03c-1.12-.68-2.26-1.34-3.39-2.02a.556.556,0,0,0-.69,0c-1.16.68-2.3,1.36-3.45,2.02A.633.633,0,0,1,15.22,13.5Zm-.46-7.37c.18.17.3.26.4.36.64.58,1.29,1.16,1.95,1.72a.859.859,0,0,1,.33.99c-.13.43-.2.88-.3,1.32-.12.56-.25,1.12-.38,1.77.98-.58,1.87-1.09,2.74-1.64a.841.841,0,0,1,.98,0c.71.45,1.44.86,2.17,1.29.17.1.33.2.58.35-.25-1.11-.45-2.12-.69-3.12a.836.836,0,0,1,.3-.93c.66-.56,1.31-1.14,1.95-1.72.13-.12.25-.23.43-.4-1.14-.12-2.2-.21-3.24-.31a.748.748,0,0,1-.69-.53c-.33-.79-.68-1.59-1.02-2.38A6.3,6.3,0,0,1,20,2.33c-.1.21-.17.35-.23.5-.35.79-.69,1.59-1.02,2.38a.869.869,0,0,1-.79.61C16.93,5.92,15.9,6.03,14.76,6.13Z" fill="#5e5e5e"></path><path id="Path_90877" data-name="Path 90877" d="M29.09,15.07c.23-1.01.41-1.93.64-2.83a.585.585,0,0,0-.21-.69c-.66-.56-1.31-1.14-1.95-1.7a.628.628,0,0,1-.26-.74.645.645,0,0,1,.66-.43c.84-.07,1.7-.17,2.55-.23A.638.638,0,0,0,31.15,8c.3-.78.64-1.52.98-2.28.13-.31.28-.6.68-.6.36,0,.53.26.64.58.33.79.69,1.59,1.02,2.38a.465.465,0,0,0,.45.33c.91.08,1.8.18,2.69.25a.65.65,0,0,1,.63.41.619.619,0,0,1-.25.74c-.68.6-1.36,1.21-2.03,1.79a.48.48,0,0,0-.17.55c.2.83.38,1.65.56,2.5.07.33.13.64-.18.89a.725.725,0,0,1-.89-.08c-.71-.43-1.42-.83-2.13-1.27a.6.6,0,0,0-.73-.02c-.76.48-1.52.93-2.3,1.36a.833.833,0,0,1-.69.02C29.26,15.47,29.18,15.21,29.09,15.07ZM32.76,7.3c-.26.6-.51,1.11-.69,1.64a.942.942,0,0,1-.96.68c-.56.02-1.11.1-1.74.17.53.46.98.88,1.44,1.26a.79.79,0,0,1,.28.86c-.07.3-.15.6-.21.91-.07.28-.12.58-.2.96.55-.33,1.02-.58,1.47-.88a.967.967,0,0,1,1.24.02c.45.3.93.55,1.47.88-.15-.64-.25-1.22-.4-1.77a.859.859,0,0,1,.31-.99c.46-.36.89-.78,1.39-1.22-.63-.07-1.19-.15-1.74-.17a.961.961,0,0,1-.98-.71A12.412,12.412,0,0,0,32.76,7.3Z" fill="#5e5e5e"></path><path id="Path_90878" data-name="Path 90878" d="M3.57,15.09c.23-1.02.41-1.95.64-2.88A.556.556,0,0,0,4,11.55C3.34,11,2.71,10.43,2.07,9.86a.7.7,0,0,1-.31-.76.674.674,0,0,1,.69-.45c.85-.06,1.71-.16,2.57-.22a.563.563,0,0,0,.55-.4c.33-.81.68-1.59,1.02-2.4.12-.3.3-.53.64-.53s.51.23.64.53c.33.81.69,1.6,1.02,2.41a.5.5,0,0,0,.48.35c.89.07,1.77.17,2.66.25a.661.661,0,0,1,.66.45.689.689,0,0,1-.28.76c-.66.58-1.31,1.17-1.98,1.74a.531.531,0,0,0-.2.6c.2.83.38,1.65.56,2.5.08.33.12.64-.21.88a.711.711,0,0,1-.84-.1c-.76-.45-1.52-.89-2.26-1.34a.379.379,0,0,0-.49-.02c-.79.48-1.59.96-2.41,1.41a.849.849,0,0,1-.68.03C3.73,15.47,3.65,15.21,3.57,15.09Zm7.07-5.32C9.98,9.7,9.4,9.64,8.83,9.6a.865.865,0,0,1-.86-.59c-.22-.57-.47-1.09-.73-1.71-.26.61-.51,1.16-.73,1.7a.854.854,0,0,1-.86.6c-.58.03-1.14.1-1.8.17.5.45.93.84,1.39,1.22a.883.883,0,0,1,.31.99c-.17.56-.26,1.12-.41,1.79.56-.33,1.07-.6,1.54-.91a.931.931,0,0,1,1.14,0c.46.31.96.58,1.52.91-.15-.68-.28-1.26-.41-1.82a.856.856,0,0,1,.3-.94C9.68,10.64,10.11,10.23,10.64,9.77Z" fill="#5e5e5e"></path><path id="Path_90879" data-name="Path 90879" d="M8.69,26.43a.625.625,0,0,1-.61.66.612.612,0,0,1-.63-.64.631.631,0,0,1,.61-.66A.6.6,0,0,1,8.69,26.43Z" fill="#5e5e5e"></path></g></g></svg>