<svg xmlns="http://www.w3.org/2000/svg" id="Banking-01" width="80.002" height="80" viewBox="0 0 80.002 80"><g id="Group_87377" data-name="Group 87377"><path id="Path_91157" data-name="Path 91157" d="M0,21.56a13.688,13.688,0,0,1,1.52-1L17,11.92a4.59,4.59,0,0,1,.77-.38,1.15,1.15,0,0,1,1.13,2,3.18,3.18,0,0,1-.66.41L6.65,20.33c-.22.12-.43.26-.79.49H74.07a6.11,6.11,0,0,0-.51-.37Q57.79,11.74,42,3a3.92,3.92,0,0,0-4.13,0c-4.6,2.59-9.23,5.13-13.84,7.68a3.45,3.45,0,0,1-.69.35,1.09,1.09,0,0,1-1.4-.53A1.1,1.1,0,0,1,22.28,9a3.61,3.61,0,0,1,.53-.33L37,.84a5.78,5.78,0,0,1,6,0Q61,10.85,79.1,20.86a1.51,1.51,0,0,1,.89,1.5c0,.94,0,1.87,0,2.81a4.73,4.73,0,0,1-4.62,5.06,1.28,1.28,0,0,0-1.07.61c-1.09,1.56-2.22,3.09-3.3,4.66a2.28,2.28,0,0,0-.39,1.2V64.11A2.28,2.28,0,0,0,71,65.32c1.08,1.59,2.23,3.14,3.32,4.72a1.07,1.07,0,0,0,1.08.57,15.861,15.861,0,0,1,1.95,0A2.69,2.69,0,0,1,80,73.2v4.14A2.86,2.86,0,0,1,77.8,80H2.19A3.63,3.63,0,0,1,0,78V72.64a3.15,3.15,0,0,1,3.53-2,3.82,3.82,0,0,0,1.17,0,1.57,1.57,0,0,0,.87-.46c1.2-1.63,2.37-3.29,3.53-5a1.64,1.64,0,0,0,.27-.85V36.55a1.77,1.77,0,0,0-.35-1C7.91,34,6.79,32.36,5.63,30.8a1.42,1.42,0,0,0-.93-.49,4.49,4.49,0,0,1-3.21-1.39A15.62,15.62,0,0,1,0,26.41C0,24.79,0,23.18,0,21.56ZM61.21,36.88v12.8a3.44,3.44,0,0,1-.06.85,1.15,1.15,0,0,1-2.26-.19,6.771,6.771,0,0,1,0-.78V36.75a2.28,2.28,0,0,0-.38-1.21C57.4,34,56.25,32.4,55.16,30.81a1.16,1.16,0,0,0-1.08-.57H25.89a1.1,1.1,0,0,0-1,.53C23.76,32.38,22.6,34,21.5,35.56a2.13,2.13,0,0,0-.36,1.06q0,13.79,0,27.57a2,2,0,0,0,.35,1.07c1.12,1.63,2.26,3.25,3.44,4.83a1.33,1.33,0,0,0,.93.48H54.13a1.35,1.35,0,0,0,.94-.48c.87-1.14,1.61-2.38,2.52-3.47a5.6,5.6,0,0,0,1.32-4.14c-.12-2.23,0-4.48,0-6.71A1.16,1.16,0,0,1,60,54.55a1.2,1.2,0,0,1,1.17,1.14c0,.21,0,.42,0,.62v7.63h7V36.87ZM40,77.63H76.75c.68,0,.94-.2.9-.89-.05-.86,0-1.72,0-2.58,0-1.23,0-1.23-1.23-1.23H3.08c-.53,0-.76.17-.74.72v2.81c0,1.16,0,1.16,1.16,1.16ZM2.36,23.27c0,.9-.06,1.76,0,2.61a2.23,2.23,0,0,0,1.86,1.95,5.6,5.6,0,0,0,1.09.08H74.67a5.72,5.72,0,0,0,1.09-.08,2.24,2.24,0,0,0,1.85-2c.07-.85,0-1.7,0-2.6Zm9.42,13.62V64h7V36.89Zm10.5,33.69c-.14-.24-.24-.43-.36-.61-.72-1-1.46-2-2.15-3.06a1.16,1.16,0,0,0-1.08-.57c-2,0-4,.09-6,0a2.31,2.31,0,0,0-2.45,1.26c-.58,1-1.34,1.93-2.09,3Zm49.56,0c-1-1.4-1.88-2.67-2.8-3.92a1,1,0,0,0-.73-.29H63.79c-1,0-2.25-.31-3.07.12S59.4,68.09,58.78,69c-.37.51-.71,1-1.12,1.62ZM8.18,30.31c1,1.4,1.88,2.67,2.8,3.92a.94.94,0,0,0,.66.26h7.19a.91.91,0,0,0,.63-.18c.95-1.29,1.87-2.6,2.87-4Zm63.61,0H57.66c1,1.37,1.86,2.65,2.79,3.9a.89.89,0,0,0,.66.27h7.26a.79.79,0,0,0,.55-.17c.96-1.31,1.88-2.58,2.87-3.98Z" fill="#5e5e5e"></path><path id="Path_91158" data-name="Path 91158" d="M40,17.86a5.35,5.35,0,1,1,3.784-1.578A5.39,5.39,0,0,1,40,17.86Zm0-2.35a3,3,0,0,0,3.06-3,3.035,3.035,0,1,0-6.07,0,3,3,0,0,0,3.01,3Z" fill="#5e5e5e"></path><path id="Path_91159" data-name="Path 91159" d="M53.42,50.44A13.43,13.43,0,1,1,40,37,13.43,13.43,0,0,1,53.42,50.44ZM40,39.35a11.08,11.08,0,1,0,11.1,11A11.08,11.08,0,0,0,40,39.35Z" fill="#5e5e5e"></path><path id="Path_91160" data-name="Path 91160" d="M38.77,42.72c.14-1.24.45-1.67,1.21-1.67s1.09.43,1.22,1.71c.33.07.69.12,1,.21a3.47,3.47,0,0,1,2.46,3.33,1.16,1.16,0,1,1-2.31.21c-.1-.7-.28-1.26-1.18-1.33v4c1.65.15,3,.88,3.28,2.52a10,10,0,0,1,0,3.77c-.32,1.63-1.57,2.43-3.3,2.55-.06.87-.14,1.84-1.33,1.76-1-.06-1.08-.89-1.1-1.73a9.911,9.911,0,0,1-1-.17,3.51,3.51,0,0,1-2.51-3.23c0-.81.35-1.33,1-1.4s1.11.37,1.32,1.15a4,4,0,0,0,.66,1.14c.05.08.28,0,.47,0,0-.21.06-.39.06-.57V51.65a8.89,8.89,0,0,1-1.55-.44,3.69,3.69,0,0,1-2-3.65c0-1.82.11-3.53,2-4.46a11.57,11.57,0,0,1,1.6-.38Zm0,6.46v-4c-1.09.21-1.25.64-1.13,2.81.03.85.29,1.14,1.11,1.19Zm2.46,2.38v4h.41c1.22-.67.63-1.83.72-2.79.04-.63-.36-1.08-1.15-1.21Z" fill="#5e5e5e"></path></g></svg>