<svg xmlns="http://www.w3.org/2000/svg" width="78.87" height="79.82" viewBox="0 0 78.87 79.82"><g id="Contruction-01" transform="translate(-0.57 -0.105)"><path id="Path_95609" data-name="Path 95609" d="M16.79,24.42H25.1c2.12,0,2.09,0,2.61-2a7.56,7.56,0,0,0,.06-3.54A8.25,8.25,0,0,1,31.9,10a1.09,1.09,0,0,0,.67-1.19V6.75c-.08-.07-.12-.13-.16-.13-2.22-.18-2.78-.78-2.78-3V2.51A2.18,2.18,0,0,1,32,.12h8.17a2.17,2.17,0,0,1,2.41,2.4V4.14a2.22,2.22,0,0,1-2.31,2.45h-.62V9.27a.75.75,0,0,0,.38.52c3.9,2.4,5.29,5.85,4.11,10.22a1.28,1.28,0,0,0-.07.54c.29,1.26.6,2.52.92,3.83H75.5q3.94,0,3.94,3.92V76q0,3.92-4,3.92H9.14a8.26,8.26,0,0,1-8.38-6.5,13.15,13.15,0,0,1-.18-2.17c0-16,0-31.91,0-47.86A8.21,8.21,0,0,1,6.85,15,10.43,10.43,0,0,1,9,14.75h6.32c1.2,0,1.46.27,1.46,1.49v8.19Zm0,1.93V64c0,1.35-.2,1.54-1.56,1.54H8.52a6.17,6.17,0,0,0-5.91,7.23C3.13,76,5.68,78,9.21,78H75.27c1.84,0,2.31-.47,2.31-2.29V28.43c0-1.66-.46-2.13-2.11-2.13H46.41a5.619,5.619,0,0,0-.89.05c1.4,5.85,2.77,11.59,4.14,17.33a43.349,43.349,0,0,1,1.32,6,61.561,61.561,0,0,1,0,7.44,1.23,1.23,0,0,1-.65,1,1.35,1.35,0,0,1-1.13-.46c-2.12-3.33-4.51-6.53-5.38-10.51a8.389,8.389,0,0,0-.27-.85c-.57-1.7-1.13-3.41-1.66-5l-4.81,1.9v1.72c0,.62-.26,1.08-.98,1.08s-.91-.49-.92-1.1,0-1.29,0-1.72l-4.8-1.92c-.05.14-.16.41-.25.69-1,2.91-1.92,5.83-2.89,8.74a3.91,3.91,0,0,1-.38.89c-1.22,2-2.46,3.93-3.68,5.9-.3.48-.66.82-1.25.64s-.69-.68-.69-1.23V50.01a3.77,3.77,0,0,1,.1-.88q1.77-7.47,3.56-14.94c.61-2.59,1.23-5.18,1.86-7.83Zm-1.9-9.7H9a6.2,6.2,0,0,0-6.52,6.5V66.46C5,64.3,6.4,63.69,9,63.69h5.89ZM36.14,24a6.64,6.64,0,1,0-6.66-6.6A6.64,6.64,0,0,0,36.14,24Zm2.63,1.73,7.89,24L49,49q-3.16-13.1-6.23-26Zm-13.19,24,7.93-24.12c-.79-.42-1.52-.73-2.16-1.16s-1.19-1-1.86-1.54Q26.385,35.96,23.27,49ZM37.07,41a6.92,6.92,0,0,0,3.79-1.64.82.82,0,0,0,.16-.68c-1.33-4.1-2.7-8.19-4-12.29-.18-.59-.57-.43-.94-.46s-.69,0-.85.49c-1.31,4.08-2.66,8.14-4,12.21a.76.76,0,0,0,.07.64A6.79,6.79,0,0,0,35.16,41c0-.78,0-1.48,0-2.17s.36-1.27,1-1.23c.77.06.95.59.94,1.26Zm-1-36.28h2.75c2.15-.05,1.82.46,1.88-1.95,0-.61-.24-.78-.82-.78H33.33c-2.18,0-1.87-.4-1.92,2,0,.59.24.73.78.72,1.34-.04,2.64-.02,3.93-.02Zm1.62,1.95h-3.2V8.9h3.25Zm-14.58,47h.16l1.39-2.25L23.16,51Zm25.76,0h.15V51l-1.55.44Z" fill="#5e5e5e"></path><path id="Path_95610" data-name="Path 95610" d="M74.48,56.57V73.41c0,1.24-.27,1.51-1.53,1.51H44.06c-.55,0-1.12,0-1.4-.58s.14-1,.5-1.42L72.46,39c.36-.41.69-.88,1.35-.66s.67.83.67,1.41Zm-2-2.45H71c-.67,0-1.15-.25-1.14-.95s.47-.92,1.11-.9h1.56V48.9h-1.6c-.63,0-1.08-.28-1.09-.93s.45-.94,1.07-1a14.213,14.213,0,0,1,1.6,0V41.81L45.61,73h26.9V69.84H70.84a.93.93,0,0,1,0-1.86h1.68V64.61H71c-.63,0-1.09-.26-1.11-.91a.924.924,0,0,1,1-1h1.63V59.38H70.94c-.62,0-1.09-.27-1.1-.92s.47-1,1.13-1h1.56Z" fill="#5e5e5e"></path><path id="Path_95611" data-name="Path 95611" d="M29.65,67H21.08c-.27,0-.61.07-.79-.06s-.71-.61-.7-.91.45-.63.76-.87c.13-.11.41,0,.63,0H38.2c.22,0,.5-.08.63,0,.32.23.76.55.78.85s-.38.69-.68.92-.52.07-.79.07Z" fill="#5e5e5e"></path><path id="Path_95612" data-name="Path 95612" d="M26.41,70.3h5.66c.9,0,1.32.3,1.32.94s-.41,1-1.31,1H20.83c-.85,0-1.34-.37-1.28-1s.61-.92,1.27-.92Z" fill="#5e5e5e"></path><path id="Path_95613" data-name="Path 95613" d="M36.09,20.91a3.54,3.54,0,1,1,2.521-1,3.53,3.53,0,0,1-2.521,1Zm1.69-3.53a1.66,1.66,0,0,0-3.32,0,1.66,1.66,0,1,0,3.32,0Z" fill="#5e5e5e"></path><path id="Path_95614" data-name="Path 95614" d="M68,62v5c0,1.06-.3,1.37-1.33,1.37H58.1a1.8,1.8,0,0,1-1.22-.55c-.39-.49,0-.94.39-1.34q4.36-5,8.72-10.1c.35-.41.7-.87,1.34-.64s.67.83.67,1.41C68,58.8,68,60.42,68,62Zm-2,4.48V59.26l-6.26,7.25Z" fill="#5e5e5e"></path></g></svg>