<svg xmlns="http://www.w3.org/2000/svg" width="80.06" height="70.917" viewBox="0 0 80.06 70.917"><g id="Retail-01" transform="translate(0 -4.515)"><g id="Group_87375" data-name="Group 87375"><path id="Path_91130" data-name="Path 91130" d="M80,39.52c-.83,1.72-2.46,1.14-3.91,1.29V49.5c0,.93-.42,1.44-1.16,1.45s-1.18-.51-1.18-1.43v-8.7H6.4v8.43a3.13,3.13,0,0,1-.1.92,1,1,0,0,1-1.3.76A1,1,0,0,1,4,50a5,5,0,0,1,0-.78V40.77H2A1.76,1.76,0,0,1,.1,38.86c0-2.06,0-4.11,0-6.17A1.78,1.78,0,0,1,2,30.79H4V23.52a3.74,3.74,0,0,0-.3-1,5.54,5.54,0,0,1-.26-.88,2.31,2.31,0,0,0-2.08-2.09C.3,19.39,0,19.07,0,18V15.84c0-1.12.38-1.51,1.49-1.51H24.07V10.69c0-3.77,2.38-6.16,6.13-6.16H49.81a5.71,5.71,0,0,1,6.12,6.09v10H74.35a4.82,4.82,0,0,1,3.06-3.17c.15-.05.21-.39.37-.73H59.43a1.2,1.2,0,0,1-1.12-1.19,1.18,1.18,0,0,1,1.17-1.13H78.44a1.58,1.58,0,0,1,1.62.83v3.59a1.7,1.7,0,0,1-1.4.82,2,2,0,0,0-1.88,1.51,10.19,10.19,0,0,0-.64,3.6c.12,1.21,0,2.44,0,3.66v2.45H77.7A2.12,2.12,0,0,1,80,32.17ZM6.4,30.73H73.69V23H56a4.833,4.833,0,0,1-.15.95,5.62,5.62,0,0,1-5.57,4.76H29.74A5.67,5.67,0,0,1,24.07,23V16.69H2.13a5,5,0,0,0,.65.77A13.2,13.2,0,0,1,4.54,18.7a11.26,11.26,0,0,1,1.25,1.91H20.33c.85,0,1.37.46,1.38,1.16A1.222,1.222,0,0,1,20.36,23h-14C6.4,25.61,6.4,28.15,6.4,30.73ZM40,6.86H30a3.36,3.36,0,0,0-3.59,3.56q0,6.17,0,12.34A3.38,3.38,0,0,0,30,26.37H50a3.39,3.39,0,0,0,3.63-3.61V10.5a3.39,3.39,0,0,0-3.67-3.64ZM77.64,33.18H2.5v5.19H77.64Z" fill="#5e5e5e"></path><path id="Path_91131" data-name="Path 91131" d="M30.49,73.09V51.48c0-2.22,1-3.23,3.25-3.23H46.39c2.06,0,3.12,1.07,3.12,3.14V73.08H73.64v-18c0-1.24.4-1.84,1.2-1.83S76,53.87,76,55.08v18c0,1.79-.56,2.35-2.32,2.35H6.33C4.56,75.47,4,74.91,4,73.14V55a5.47,5.47,0,0,1,0-.7,1.06,1.06,0,0,1,1.1-1,1.07,1.07,0,0,1,1.16.94,4.79,4.79,0,0,1,0,.93V73.09Zm16.64,0V51.43c0-.64-.2-.86-.85-.86H33.86c-1.08,0-1.08,0-1.08,1.08V73.08Z" fill="#5e5e5e"></path><path id="Path_91132" data-name="Path 91132" d="M17.93,68.53H11.06a2.52,2.52,0,0,1-2.8-2.8V53.54a2.49,2.49,0,0,1,2.8-2.79H25a2.48,2.48,0,0,1,2.77,2.74q0,6.13,0,12.26A2.52,2.52,0,0,1,25,68.51C22.62,68.53,20.28,68.53,17.93,68.53ZM10.66,53.14v13H24.67c.63,0,.72-.25.72-.79V53.8a3.687,3.687,0,0,0-.05-.72Z" fill="#5e5e5e"></path><path id="Path_91133" data-name="Path 91133" d="M62.08,50.76h7a2.46,2.46,0,0,1,2.71,2.71q0,6.16,0,12.34A2.48,2.48,0,0,1,69,68.52H55a2.51,2.51,0,0,1-2.76-2.77q0-6.14,0-12.26a2.49,2.49,0,0,1,2.78-2.74Zm-7.41,2.38a3.42,3.42,0,0,0-.06.46V65.54c0,.61.29.66.77.66H69.34v-13Z" fill="#5e5e5e"></path><path id="Path_91134" data-name="Path 91134" d="M47,12.75H38.11c-.94,0-1.43-.44-1.43-1.18s.48-1.15,1.44-1.15h9.37a1.85,1.85,0,0,1,1.87,2.69c-.71,2-1.45,3.9-2.2,5.84a3,3,0,0,1-3,2H37.52a2.91,2.91,0,0,1-3.06-2.46c-.51-2.28-1-4.57-1.47-6.93H31.57a1.16,1.16,0,1,1,0-2.32h1.41a2.27,2.27,0,0,1,2.3,1.84q.73,3.31,1.39,6.64a1,1,0,0,0,1.1.91h6.25a1.106,1.106,0,0,0,.88-.43C45.65,16.41,46.29,14.65,47,12.75Z" fill="#5e5e5e"></path><path id="Path_91135" data-name="Path 91135" d="M37.48,24.25a1.2,1.2,0,0,1-1.34-1.19,1.22,1.22,0,0,1,1.31-1.15,1.18,1.18,0,0,1,1.32,1.2,1.15,1.15,0,0,1-1.29,1.14Z" fill="#5e5e5e"></path><path id="Path_91136" data-name="Path 91136" d="M42.52,24.25a1.15,1.15,0,0,1-1.28-1.15,1.4,1.4,0,1,1,1.33,1.15Z" fill="#5e5e5e"></path><path id="Path_91137" data-name="Path 91137" d="M35,60.68a4.871,4.871,0,0,1,.75.07A1.07,1.07,0,0,1,36.61,62c-.08.73-.61,1-1.74,1-.92,0-1.41-.36-1.47-1a1.07,1.07,0,0,1,.89-1.25C34.51,60.7,34.75,60.71,35,60.68Z" fill="#5e5e5e"></path></g></g></svg>