<svg xmlns="http://www.w3.org/2000/svg" width="80.003" height="80.043" viewBox="0 0 80.003 80.043"><g id="Finance-01" transform="translate(0.003 0.003)"><path id="Path_95623" data-name="Path 95623" d="M45.36,5.59c1.26-.1,2.42-.22,3.58-.26s1.75.43,1.75,1.73V27.99H72.56c1.84,0,2.12.27,2.14,2.1A25.36,25.36,0,0,1,58.14,54.44a24,24,0,0,1-12.29,1.3h-.49V78.15c0,1.48-.4,1.89-1.86,1.89H1.91c-1.51,0-1.9-.4-1.9-2Q0,45.33,0,12.56a2.48,2.48,0,0,1,.78-1.92q5-4.94,9.9-9.91A2.4,2.4,0,0,1,12.52,0h31c1.42,0,1.84.41,1.84,1.83ZM2.71,77.31H42.65V55.2C31.59,51.37,24.76,43.9,24.18,32.15,23.52,19,30.46,10.52,42.63,6.08V2.71H13.35v9c0,1.14-.49,1.61-1.63,1.62h-9Zm30.95-30.4a22.6,22.6,0,0,0,36.48-7.19,21.49,21.49,0,0,0,1.87-9,2,2,0,0,0-.27,0H50.42a1.5,1.5,0,0,0-.92.42c-1.12,1.08-2.21,2.19-3.31,3.29ZM31.74,45c.21-.17.34-.27.45-.38q7.73-7.73,15.42-15.45a1.56,1.56,0,0,0,.4-1V8.84a5.817,5.817,0,0,0-.05-.88C38.62,9.06,31.83,13.6,28.32,22.3,25.08,30.4,26.54,38,31.74,45ZM10.62,10.63V5L5,10.63Z" fill="#5e5e5e"></path><path id="Path_95624" data-name="Path 95624" d="M66.71,25.33H55.12c-1.31,0-1.75-.45-1.75-1.74V1.75C53.37.4,53.81,0,55.18,0A25.33,25.33,0,0,1,79.73,21.47c.1.68.17,1.37.24,2.07.12,1.18-.41,1.78-1.6,1.78Zm10.44-2.71C76.05,11.21,65.84,2.91,56.07,2.79V22.62Z" fill="#5e5e5e"></path><path id="Path_95625" data-name="Path 95625" d="M58.74,64V61.4H80V64Z" fill="#5e5e5e"></path><path id="Path_95626" data-name="Path 95626" d="M58.74,72V69.41H80V72Z" fill="#5e5e5e"></path><path id="Path_95627" data-name="Path 95627" d="M58.74,80V77.41H80V80Z" fill="#5e5e5e"></path><path id="Path_95628" data-name="Path 95628" d="M56,64H50.75V61.4H56Z" fill="#5e5e5e"></path><path id="Path_95629" data-name="Path 95629" d="M56,69.42V72H50.74V69.42Z" fill="#5e5e5e"></path><path id="Path_95630" data-name="Path 95630" d="M50.73,80V77.42H56V80Z" fill="#5e5e5e"></path><path id="Path_95631" data-name="Path 95631" d="M22.68,50.68a12,12,0,1,1-8.507,3.536A12,12,0,0,1,22.68,50.68ZM32,62.7A9.34,9.34,0,1,0,22.61,72,9.34,9.34,0,0,0,32,62.7Z" fill="#5e5e5e"></path><path id="Path_95632" data-name="Path 95632" d="M21.31,18.71v2.57H8.08V18.71Z" fill="#5e5e5e"></path><path id="Path_95633" data-name="Path 95633" d="M8.05,29.27V26.71H21.29v2.56Z" fill="#5e5e5e"></path><path id="Path_95634" data-name="Path 95634" d="M21.32,34.74v2.54H8.06V34.74Z" fill="#5e5e5e"></path><path id="Path_95635" data-name="Path 95635" d="M8.05,45.29V42.72H21.29v2.57Z" fill="#5e5e5e"></path><path id="Path_95636" data-name="Path 95636" d="M26.69,60h-2.6a5.09,5.09,0,0,0-.22-.54,1.32,1.32,0,0,0-2.5.66,1.28,1.28,0,0,0,1.15,1.23,4.754,4.754,0,0,1,1.07.14,3.8,3.8,0,0,1,3,3.19A3.55,3.55,0,0,1,25,68.52a1.74,1.74,0,0,0-1,2.11H21.44s-.09-.13-.08-.2a1.65,1.65,0,0,0-1-1.89,3.58,3.58,0,0,1-1.67-3.14h2.58c.07.16.14.36.24.54A1.31,1.31,0,0,0,24,65.25,1.27,1.27,0,0,0,22.83,64c-.36-.06-.72-.06-1.07-.15a3.83,3.83,0,0,1-2.93-3A3.64,3.64,0,0,1,20.19,57c.78-.6,1.55-1.06,1.08-2.24H23.9s.1.08.09.12a1.83,1.83,0,0,0,1.08,2A3.62,3.62,0,0,1,26.69,60Z" fill="#5e5e5e"></path></g></svg>