<svg xmlns="http://www.w3.org/2000/svg" width="72.789" height="79.539" viewBox="0 0 72.789 79.539"><path id="Oil_Gas-01" data-name="Oil &amp; Gas-01" d="M58.2.26a19.78,19.78,0,0,1,5.37,3.21A12.5,12.5,0,0,1,67.5,9.4c1.51,4.94,3,9.89,4.55,14.82,1.24,4,.41,7.65-1.5,11.19a4.71,4.71,0,0,1-2,2.33c-.17.08-.24.52-.24.8V64.7h1.54c.95,0,1.33.36,1.34,1.31V71.9h1.58c2.42,0,3.61,1.2,3.61,3.64v3a1.12,1.12,0,0,1-1.25,1.25H5.4c-1.57,0-1.8-.23-1.8-1.79V75a3.08,3.08,0,0,1,3.05-3.09H8.78V60.41c0-1.38.27-1.65,1.62-1.65h1.21v-16c-1.88,0-2.81-1-3.3-2.68-.82-2.9-1.75-5.78-2.64-8.67a2.865,2.865,0,0,1,2.07-4L9.31,27A2.76,2.76,0,0,1,13,28.94c.08.24.17.47.29.78L58.68,15.86c-.77-2.49-1.51-4.93-2.26-7.37C56,7.2,55.63,5.92,55.24,4.63,54.53,2.29,54.88,1.4,57,.26ZM49.32,71.77h14v-5.4c0-1.45.25-1.69,1.73-1.69h1a1.649,1.649,0,0,0,.06-.33q0-13.15,0-26.3a1.44,1.44,0,0,0-.3-.64,8.7,8.7,0,0,1-1.09-1.74c-.89-2.72-1.7-5.47-2.54-8.21-.35-1.15-.71-2.3-1.08-3.5L43.35,29.4v6.48h1.3c1.2,0,1.48.29,1.58,1.5q.41,4.63.83,9.27l1.5,16.76C48.81,66.19,49.06,69,49.32,71.77ZM34.4,32.13l-18.68,5.7c.09.35.16.6.23.85a2.65,2.65,0,0,1-1.53,3.19.88.88,0,0,0-.6,1q0,7.53,0,15a5.082,5.082,0,0,0,.05.85h1.25c1.25,0,1.54.29,1.54,1.55V71.75H28.28c.15-1.53.28-3,.43-4.51q.75-7.76,1.49-15.51L31.61,37a1.12,1.12,0,0,1,1.21-1.14H34.4ZM70.63,28c-.23-1.08-.37-2.19-.69-3.24-1.45-4.83-3-9.62-4.41-14.45-1.16-3.94-4-6.2-7.57-7.79-.62-.29-1,.08-.87.77a1.711,1.711,0,0,0,.13.44q1.83,6,3.64,11.93c.42,1.39.24,1.71-1.15,2.14L26.39,28,13.18,32c-1.06.32-1.48.09-1.81-.94-.15-.5-.3-1-.46-1.48a.65.65,0,0,0-.95-.49c-.49.16-1,.3-1.49.45-.91.29-1,.43-.7,1.34.87,2.87,1.75,5.73,2.63,8.6.4,1.32.41,1.31,1.72.92,2.06-.62,2-.42,1.35-2.49-.38-1.2-.17-1.57,1-1.94q9.8-3,19.59-6a1.88,1.88,0,0,0,.95-.76,4.5,4.5,0,0,1,5.88-1.79,1.66,1.66,0,0,0,1.31.1q9.41-2.91,18.8-5.76c1.35-.41,1.66-.25,2.08,1.13q1.85,6,3.71,12.07a1.72,1.72,0,0,0,.62.79c.1.06.53-.18.66-.38A15.63,15.63,0,0,0,70.63,28Zm3.61,49.55V75.62c0-1.47-.16-1.63-1.66-1.63H7.42a2.477,2.477,0,0,0-.77,0c-.2.08-.79.47-.83.75a25.68,25.68,0,0,0,0,2.78ZM31.55,71.77H46.07l-7.19-9.2C36.41,65.67,34,68.67,31.55,71.77ZM38.9,59.09c1.46-1.84,2.85-3.56,4.2-5.32A.91.91,0,0,0,43,53c-1-1.42-2-2.81-3-4.21l-1-1.4L34.6,53.5Zm-8.2,10,.13.09,6.69-8.39L32.15,54Zm14.87-15-5.31,6.68,6.47,8.27L46.9,69ZM11,61V71.79h3.47V61Zm21.27-8.3c.13-.05.19-.05.22-.09,1.62-2.24,3.25-4.48,4.84-6.74a.85.85,0,0,0-.08-.78c-1.11-1.59-2.26-3.15-3.4-4.72a2.46,2.46,0,0,0-.36-.33Zm12-12.77-4,5.61c1.7,2.33,3.37,4.63,5,6.94l.13-.07Zm-7.64-4.1H41.3c0-1.57.05-3.08,0-4.59a2.24,2.24,0,0,0-2.16-2.14A2.19,2.19,0,0,0,36.69,31c-.13,1.59-.03,3.19-.03,4.83ZM38.9,43.7l4-5.62H34.85ZM69,71.79V66.88H65.53v4.91Z" transform="translate(-3.6 -0.26)" fill="#5e5e5e"></path></svg>