<svg xmlns="http://www.w3.org/2000/svg" id="Healthcare" width="51.154" height="79.702" viewBox="0 0 51.154 79.702"><path id="Path_90796" data-name="Path 90796" d="M55.827,0a1.729,1.729,0,0,0,.259.149,4.255,4.255,0,0,1,3.168,4.364V29.821c.508,0,.976.01,1.435,0a3.213,3.213,0,0,1,2.65,5.45,3.234,3.234,0,0,1,.139,6.058c1.355,2.222.947,3.906-1.265,5.2.04.179.08.379.12.568a3.1,3.1,0,0,1-2.242,3.667.925.925,0,0,0-.837,1.126c.05.877.03,1.764.01,2.64a4.18,4.18,0,0,1-4.055,4.195c-1.554.06-3.119.06-4.673.01a1.944,1.944,0,0,0-1.863.976c-1.634,2.521-3.318,5.022-5,7.5a3.9,3.9,0,0,1-1.026,1.036c-2.86,1.933-5.729,3.836-8.6,5.749-.927.618-1.176.608-2.082-.07q-5.918-4.439-11.837-8.858A1.772,1.772,0,0,1,19.34,63.5c.02-4.952-.07-9.914.06-14.866a22.875,22.875,0,0,1,.976-4.693c.628-2.591,1.415-5.151,1.9-7.772a31.684,31.684,0,0,0,.209-4.872,2.9,2.9,0,0,1,2.162-2.889,5.02,5.02,0,0,1,2,0A5.236,5.236,0,0,1,30.938,33.3c.11,3.547.04,7.1.08,10.661a2.358,2.358,0,0,0,.409,1.265,32.4,32.4,0,0,1,5.241,10.263A1.256,1.256,0,0,0,38.1,56.544c5.45-.03,10.9-.02,16.35-.02,1.863,0,2.571-.707,2.571-2.6,0-.678-.03-1.355.01-2.023.04-.717-.189-1.056-.976-1.006a6.08,6.08,0,0,1-1.853-.12,3.072,3.072,0,0,1-1.953-4.543,1.031,1.031,0,0,0-.02-1.226c-.757-1.315-.478-2.561.867-4.105a3.28,3.28,0,0,1-1.255-2.62,3.189,3.189,0,0,1,1.415-2.591,3.216,3.216,0,0,1-1.216-3.776,2.73,2.73,0,0,1,2-1.893,22.4,22.4,0,0,1,2.939-.259c.01-.249.04-.528.04-.8V4.842c0-1.873-.707-2.581-2.6-2.581H30.449c-1.873,0-2.6.717-2.6,2.581V20.176a8.137,8.137,0,0,1-.02.857,1.015,1.015,0,0,1-1.046.957,1.048,1.048,0,0,1-1.136-.947,4.034,4.034,0,0,1-.02-.777c0-4.952.08-9.914-.03-14.866-.07-2.71.837-4.553,3.447-5.4ZM21.572,55.737c0,2.331-.02,4.663.02,7a1.429,1.429,0,0,0,.458.947c3.487,2.65,7,5.271,10.492,7.911a.728.728,0,0,0,1.006.04c2.531-1.714,5.081-3.4,7.622-5.1a2.842,2.842,0,0,0,.747-.757q1.958-2.944,3.886-5.908a3.833,3.833,0,0,0,.319-.9,5.448,5.448,0,0,0-.957-.2c-2.77-.02-5.55-.01-8.32-.01-1.445,0-1.614-.11-1.993-1.514a31.4,31.4,0,0,0-5.61-11.169,2.435,2.435,0,0,1-.478-1.4c-.04-3.607-.01-7.2-.03-10.811a3.235,3.235,0,0,0-2.491-3.248c-1.126-.289-1.6.04-1.534,1.2A23.255,23.255,0,0,1,23.664,40,41.652,41.652,0,0,0,21.572,55.737Zm37.035-16.5c1.166,0,2.331.01,3.507,0,.757-.01,1.216-.369,1.156-.947-.07-.668-.518-.9-1.146-.9H55.2c-.618,0-1.1.219-1.1.917s.458.927,1.086.927C56.325,39.227,57.471,39.237,58.607,39.237ZM58,32.073H55.119c-.608,0-1.016.259-1.026.907s.418.927,1.006.937c1.973.02,3.936.02,5.908,0a.885.885,0,0,0,1-.947c-.02-.618-.438-.9-1.056-.887C59.972,32.073,58.985,32.073,58,32.073Zm.02,10.512h-2.87c-.588,0-1.036.229-1.046.877-.01.7.438.937,1.066.937,1.913,0,3.826-.01,5.749,0,.638,0,1.106-.249,1.1-.917s-.488-.907-1.116-.907C59.932,42.595,58.975,42.585,58.019,42.585Zm-.966,6.068c.7,0,1.395.01,2.092,0,.608-.02,1.006-.339.976-.957a.873.873,0,0,0-1-.857H55.1c-.608,0-1.006.269-1.006.917s.438.9,1.026.907C55.767,48.662,56.415,48.652,57.052,48.652Z" transform="translate(-14.358)" fill="#5e5e5e"></path><path id="Path_90797" data-name="Path 90797" d="M42.487,17.34h2.252c1.116.01,1.465.369,1.475,1.5,0,.937.02,1.863-.01,2.8-.02.678.3.937.937.927q1.48-.015,2.959,0c.947.02,1.335.389,1.345,1.325.02,1.584.02,3.158,0,4.743-.01,1.016-.4,1.375-1.445,1.395-.957.01-1.923.02-2.879,0-.658-.01-.937.279-.917.937.03.986.02,1.973,0,2.959-.01.917-.418,1.315-1.345,1.325-1.584.01-3.158.01-4.743,0-1.006-.01-1.375-.4-1.385-1.435-.01-.907,0-1.813,0-2.72s-.13-1.046-1.026-1.056c-.957-.01-1.923.01-2.879-.01-.937-.02-1.325-.409-1.335-1.345-.02-1.6-.02-3.218,0-4.822.01-.9.409-1.275,1.3-1.3q1.48-.03,2.959,0c.737.02,1.026-.3,1-1.036-.04-.957-.02-1.923-.01-2.879.01-.927.409-1.315,1.335-1.325C40.883,17.33,41.69,17.34,42.487,17.34Zm-4.3,10.442c.488,0,.986-.01,1.475,0,.887.02,1.285.409,1.305,1.285.02.7.01,1.395.01,2.1,0,1.883.04,1.913,1.913,1.873.867-.02,1.086-.229,1.1-1.126.01-.957-.01-1.913.01-2.879a1.119,1.119,0,0,1,1.255-1.245c.678-.02,1.345,0,2.023,0,2,0,2-.01,1.933-2.053-.02-.658-.309-.937-.957-.927-1.006.01-2.023.02-3.029,0a1.113,1.113,0,0,1-1.226-1.2c-.03-.7-.01-1.395-.01-2.1,0-1.973-.05-2-1.983-1.953-.727.02-1.036.349-1.026,1.056.01.957.01,1.913,0,2.879-.02.927-.409,1.315-1.335,1.325-1.006.01-2.023,0-3.029.01-.528,0-.9.269-.817.8.11.727-.478,1.654.538,2.142a1.164,1.164,0,0,0,.458.03C37.256,27.782,37.715,27.782,38.183,27.782Z" transform="translate(-14.41 -0.063)" fill="#5e5e5e"></path><path id="Path_90798" data-name="Path 90798" d="M32.006,77.2c.3-.349.518-.628.777-.887a1.047,1.047,0,0,1,1.534-.12,1.012,1.012,0,0,1,.219,1.455A19.776,19.776,0,0,1,33.121,79.5c-.5.578-1.036.568-1.774.01L24.234,74.1Q19.72,70.663,15.2,67.225c-1.066-.817-1.116-1.265-.269-2.292.349-.418.687-.847,1.056-1.245A1.12,1.12,0,1,1,17.7,65.123c-.169.229-.359.438-.608.747C22.062,69.637,26.994,73.393,32.006,77.2Z" transform="translate(-14.34 -0.23)" fill="#5e5e5e"></path><path id="Path_90799" data-name="Path 90799" d="M45.677,52.459a3.128,3.128,0,0,1-3.109,3.119,3.187,3.187,0,0,1-3.158-3.168,3.139,3.139,0,0,1,3.208-3.1A3.092,3.092,0,0,1,45.677,52.459Zm-2.9.877c.169-.219.548-.518.618-.877.11-.518-.269-.877-.817-.9a.8.8,0,0,0-.907.837C41.662,52.947,41.971,53.246,42.778,53.335Z" transform="translate(-14.431 -0.179)" fill="#5e5e5e"></path><path id="Path_90800" data-name="Path 90800" d="M42.534,3.14c.937,0,1.863-.01,2.8,0,.907.01,1.385.4,1.4,1.106s-.458,1.136-1.355,1.146c-1.923.01-3.836.01-5.759,0-.9-.01-1.375-.418-1.365-1.136s.5-1.106,1.395-1.116C40.611,3.13,41.568,3.14,42.534,3.14Z" transform="translate(-14.427 -0.011)" fill="#5e5e5e"></path><path id="Path_90801" data-name="Path 90801" d="M25.64,25.533c0-.259-.01-.518,0-.777a1.11,1.11,0,0,1,1.126-1.126,1.05,1.05,0,0,1,1.076,1.086c.02.538.02,1.086,0,1.624a1.058,1.058,0,0,1-1.086,1.086A1.1,1.1,0,0,1,25.63,26.3C25.62,26.051,25.64,25.792,25.64,25.533Z" transform="translate(-14.381 -0.086)" fill="#5e5e5e"></path><path id="Path_90802" data-name="Path 90802" d="M54.925,3.14A1.189,1.189,0,0,1,56.23,4.276c0,.687-.558,1.136-1.385,1.126-.807-.01-1.285-.438-1.285-1.126C53.57,3.568,54.1,3.12,54.925,3.14Z" transform="translate(-14.483 -0.011)" fill="#5e5e5e"></path></svg>