<svg xmlns="http://www.w3.org/2000/svg" width="80.04" height="79.98" viewBox="0 0 80.04 79.98"><g id="Insurrance-01" transform="translate(0.01 -0.02)"><g id="Group_87378" data-name="Group 87378"><path id="Path_91162" data-name="Path 91162" d="M46.11,80A3,3,0,0,1,44,76.64c.07-3.18,0-6.35,0-9.53,0-1.86.53-2.54,2.29-3.13.18-.06.36-.45.37-.69a19.7,19.7,0,0,1,.52-5.73c1.15-3.77,3.23-6.7,7.07-8.17a20.09,20.09,0,0,0,6.48-4c2.49-2.29,5.15-2.89,8.25-1.23.93-2.17,1.84-4.32,2.77-6.46a4.15,4.15,0,0,1,4-2.78,4.21,4.21,0,0,1,3.88,6c-1.3,3-2.77,5.89-4,8.89a24.12,24.12,0,0,1-6.13,8.83c-2.11,1.93-4.07,4-6.15,6.12.88,1.06.7,2.32.7,3.56,0,2.68-.05,5.37,0,8,0,1.65-.42,2.89-2,3.58Q54.07,80,46.11,80ZM67.73,46.66a3.32,3.32,0,0,0-4.5.15A32.18,32.18,0,0,1,54.6,52.2,7.58,7.58,0,0,0,52,54.1c-2.47,2.81-2.91,6.22-2.56,9.83a3,3,0,0,0,.39,0H59.91a1.49,1.49,0,0,0,.92-.45c2.94-2.91,5.89-5.82,8.77-8.79a11.65,11.65,0,0,0,2.14-2.95c1.88-3.91,3.64-7.88,5.42-11.84a2,2,0,0,0,.13-1.13,1.41,1.41,0,0,0-1.37-1.18,1.54,1.54,0,0,0-1.65,1.05c-.94,2.17-1.88,4.34-2.79,6.52a16.63,16.63,0,0,1-3.73,5.52c-1.72,1.7-3.43,3.42-5.14,5.13-.28.28-.52.67-.85.78a2,2,0,0,1-1.43.08,1.8,1.8,0,0,1-.64-1.27,1.71,1.71,0,0,1,.6-1c1.86-1.9,3.76-3.75,5.62-5.65C66.54,48.09,67.12,47.36,67.73,46.66Zm-6.42,20H46.74v10.6H61.31Z" fill="#5e5e5e"></path><path id="Path_91163" data-name="Path 91163" d="M18,80c-1.58-.68-2-1.93-2-3.58.07-3,0-6,0-9.06a16.05,16.05,0,0,1,.43-2.54h.23c-.18-.19-.35-.38-.53-.56l-7.4-7.4a15.61,15.61,0,0,1-3.27-4.72c-1.62-3.6-3.27-7.2-4.89-10.8-.22-.48-.39-1-.58-1.5V38.56c.05-.14.12-.28.16-.42A4.29,4.29,0,0,1,3.92,35a4.18,4.18,0,0,1,4.22,2.49c.9,2,1.73,4,2.59,6,.09.21.19.43.22.51a29.929,29.929,0,0,1,3.42-.73,5.26,5.26,0,0,1,4,1.41,30.55,30.55,0,0,0,8.24,5.13c3.62,1.57,5.45,4.65,6.31,8.32a29,29,0,0,1,.39,5c0,.52.05.82.7.94A2.4,2.4,0,0,1,36,66.44c0,3.7,0,7.39,0,11.09A2.69,2.69,0,0,1,34,80ZM12.28,46.65c.6.69,1.14,1.35,1.72,2s1.32,1.33,2,2c1.32,1.33,2.66,2.64,4,4a1.3,1.3,0,0,1-.56,2.29,1.93,1.93,0,0,1-1.37-.5c-2.08-2-4.11-4.06-6.14-6.12a15.67,15.67,0,0,1-3.28-5c-.91-2.15-1.84-4.3-2.77-6.45-.47-1.1-1.31-1.51-2.21-1.11A1.63,1.63,0,0,0,3,40.09c1.62,3.69,3.24,7.42,5,11.06a14.9,14.9,0,0,0,2.51,3.63c2.82,3,5.74,5.82,8.66,8.68a1.92,1.92,0,0,0,1.21.49H30.75a40.57,40.57,0,0,0-.54-5.45c-.61-2.66-1.9-5-4.54-6.2a34.54,34.54,0,0,1-9.17-5.7,3.3,3.3,0,0,0-4.22.05Zm21,20H18.74v10.6H33.29Z" fill="#5e5e5e"></path><path id="Path_91164" data-name="Path 91164" d="M61.3,21.4c0,3.52.13,7,0,10.54a13.51,13.51,0,0,1-5.52,10.51c-4.7,3.55-9.5,6.89-14.25,10.31a2.37,2.37,0,0,1-3,0c-4.63-3.33-9.29-6.61-13.86-10a14.29,14.29,0,0,1-5.95-12V10.45A1.73,1.73,0,0,1,19.9,8.66Q29.43,4.49,39,.26a2.37,2.37,0,0,1,2.08,0q9.49,4.19,19,8.31a1.92,1.92,0,0,1,1.3,2V21.35Zm-2.62.43V11.67A1,1,0,0,0,58,10.61C52.2,8.08,46.36,5.51,40.52,3a1.32,1.32,0,0,0-.94,0L21.92,10.7a.81.81,0,0,0-.58.87V31.03a11.73,11.73,0,0,0,5.15,9.85C30.81,44,35.13,47,39.42,50.16a.84.84,0,0,0,1.2,0Q47,45.54,53.35,41a12,12,0,0,0,5.33-10.39C58.67,27.66,58.68,24.74,58.68,21.83Z" fill="#5e5e5e"></path><path id="Path_91165" data-name="Path 91165" d="M51.33,73.29h-.62a1.28,1.28,0,0,1-1.34-1.23,1.3,1.3,0,0,1,1.25-1.41,8.55,8.55,0,0,1,1.24,0A1.34,1.34,0,0,1,53.32,72c0,.79-.53,1.25-1.44,1.29Z" fill="#5e5e5e"></path><path id="Path_91166" data-name="Path 91166" d="M28.65,73.29H28.1A1.29,1.29,0,0,1,26.7,72,1.31,1.31,0,0,1,28,70.63a11.421,11.421,0,0,1,1.17,0A1.33,1.33,0,0,1,30.65,72c0,.78-.55,1.24-1.46,1.28Z" fill="#5e5e5e"></path><path id="Path_91167" data-name="Path 91167" d="M56,22.77v7.89a9.35,9.35,0,0,1-4.12,8.07L41.17,46.45c-1,.73-1.32.73-2.36,0Q33.42,42.55,28,38.67a9.19,9.19,0,0,1-4-7.79v-17a1.72,1.72,0,0,1,1.19-1.78q7-3,13.93-6.1a2,2,0,0,1,1.79,0q7,3.09,14,6.13A1.63,1.63,0,0,1,56,13.88C56,16.83,56,19.8,56,22.77Zm-29.31.52v7.34a6.84,6.84,0,0,0,3.07,6q4.86,3.47,9.69,7a.8.8,0,0,0,1.14,0c3.26-2.38,6.54-4.73,9.81-7.09a6.72,6.72,0,0,0,3-5.73q0-7.84,0-15.7a.9.9,0,0,0-.64-1c-4.06-1.75-8.1-3.54-12.16-5.29a1.46,1.46,0,0,0-1.07,0c-4.06,1.75-8.1,3.54-12.16,5.29a.9.9,0,0,0-.65,1Q26.69,19.175,26.69,23.29Z" fill="#5e5e5e"></path><path id="Path_91168" data-name="Path 91168" d="M37,31.37l.55-.82,9-13.56a3,3,0,0,1,.58-.73,1.31,1.31,0,0,1,2.05,1.48,3.8,3.8,0,0,1-.38.68Q43.81,26,38.74,33.61c-.83,1.24-1.42,1.34-2.62.44-1.58-1.19-3.17-2.37-4.74-3.56a1.34,1.34,0,0,1-.4-2,1.31,1.31,0,0,1,1.94-.14C34.27,29.3,35.59,30.31,37,31.37Z" fill="#5e5e5e"></path></g></g></svg>