<svg xmlns="http://www.w3.org/2000/svg" width="80.021" height="79.971" viewBox="0 0 80.021 79.971"><g id="Telecommunication-01" transform="translate(-0.015 0.004)"><path id="Path_91184" data-name="Path 91184" d="M32.05,67.22c-.36,2.27-.55,4.52-2.41,6.13s-4.09,1.55-6.4,1.46v1.76a3.22,3.22,0,0,1-1.76,3,3.15,3.15,0,0,1-3.43-.24C16,78,13.9,76.58,11.8,75.23a2.77,2.77,0,0,0-1.26-.38c-1.25-.09-2.54,0-3.77-.17A5.81,5.81,0,0,1,2,69.86C1.31,66.05.65,62.24.07,58.41A6,6,0,0,1,5.88,51.6h4.56a7.28,7.28,0,0,1,2.1-3.6c.15-.14.12-.59,0-.86a27,27,0,0,1,1.64-19c4.69-9.78,12.51-15.31,23.33-16.52a25.49,25.49,0,0,1,8.17.47c.23.05.47.06.71.09A20.29,20.29,0,0,1,46.61,10a6,6,0,0,1,5.81-4.89h4.45C57.88,1.86,60-.1,63.44,0c3.28.08,5.25,2,6.19,5.13h4.1a6,6,0,0,1,6.17,7.26q-.9,5.43-1.81,10.87a6,6,0,0,1-6,5.08,7.931,7.931,0,0,1-1.29,0,4.69,4.69,0,0,0-3.72,1.12.82.82,0,0,0-.34,1.11A27.2,27.2,0,0,1,65.1,53.12c-4.83,9-12.43,14-22.59,15.11a26.45,26.45,0,0,1-10-.92Zm35.79-56c5.19,3.07,7.74,7.43,6.94,12H51.65c-.21-5.59,2.18-9.57,7-12l-2-3.48H52.48a3.46,3.46,0,0,0-3.43,4.05q.86,5.37,1.78,10.73c.39,2.26,1.65,3.28,4,3.28h4.55v4.19c0,.92.53,1.2,1.31.69A41.16,41.16,0,0,0,64.64,28,9.45,9.45,0,0,1,72,25.72a3.23,3.23,0,0,0,3.57-2.91q1-5.55,1.87-11.12a3.38,3.38,0,0,0-2.93-3.94c-1.62-.15-3.26,0-4.68,0-.73,1.25-1.36,2.33-1.99,3.43Zm-57.61,43H6.02a3.44,3.44,0,0,0-3.38,4q.88,5.57,1.87,11.12A3.4,3.4,0,0,0,8,72.25h3.39a2.25,2.25,0,0,1,1.11.33c2.12,1.38,4.2,2.8,6.32,4.18a2.11,2.11,0,0,0,1.4.48c.7-.19.4-1,.42-1.48V72.23h4.81a3.4,3.4,0,0,0,3.61-3q1-5.55,1.87-11.12a3.4,3.4,0,0,0-3.06-3.92c-1.58-.1-3.16,0-4.54,0l-2,3.48a11.49,11.49,0,0,1,6.92,11.95H5.19c-.21-5.58,2.15-9.57,7-12-.63-1.09-1.26-2.2-1.96-3.44ZM47.85,38.65c-.3-3.48-.58-6.86-.87-10.26H33.07c-.3,3.4-.59,6.8-.89,10.26ZM32.19,41.29c.3,3.48.59,6.88.87,10.26H47c.29-3.42.58-6.82.88-10.26Zm18.26,0c-.29,3.47-.57,6.85-.85,10.28H62.66a.73.73,0,0,0,.54-.34,24.82,24.82,0,0,0,2.54-9.93ZM29.59,38.65c.29-3.45.57-6.84.85-10.24a1,1,0,0,0-.2-.05H17.43a.89.89,0,0,0-.63.44,31,31,0,0,0-1.25,3.05,22.83,22.83,0,0,0-1.24,6.79Zm4.09-12.92H49.23a22.76,22.76,0,0,1-.83-2.67c-.46-2.43-.86-4.86-1.24-7.3-.08-.5-.28-.71-.73-.78l-5.81-.82a2.92,2.92,0,0,0-2.69,1.15,10.1,10.1,0,0,0-1,1.35,30.12,30.12,0,0,0-3.25,9.07ZM32.5,64.61a29.7,29.7,0,0,0,6.57,1.19,3.62,3.62,0,0,0,3.45-1.64c2.15-3,3-6.42,3.85-9.94H32.49a6.8,6.8,0,0,1,.84,5.48C33,61.29,32.78,62.92,32.5,64.61ZM23.17,51.53h7.28c-.28-3.44-.56-6.83-.84-10.23H14.18c.28,1.79.55,3.52.83,5.29C19.21,46,21.86,47.66,23.17,51.53ZM56.8,28.4H49.59c.28,3.43.55,6.81.83,10.22H65.74a24.31,24.31,0,0,0-1.43-7.25c-.92.6-1.74,1.19-2.63,1.69a3.25,3.25,0,0,1-4.88-2.75C56.79,29.7,56.8,29.09,56.8,28.4Zm-2.41-7.82H72.1c0-3.84-4.24-7.62-8.59-7.7a8.86,8.86,0,0,0-9.12,7.7ZM25.65,67.05c-.13-4-4.4-7.7-8.85-7.71S8.07,63,7.94,67.05Zm19.26-1.72A26.18,26.18,0,0,0,61.56,54.18h-12a.84.84,0,0,0-.59.53A32,32,0,0,1,44.91,65.33ZM31,25.74a32.66,32.66,0,0,1,4.1-11.11A26.27,26.27,0,0,0,18.5,25.74ZM67.12,6.39a3.88,3.88,0,1,0-1.136,2.754A3.87,3.87,0,0,0,67.12,6.39ZM20.66,52.91a3.87,3.87,0,1,0-3.85,3.85,3.87,3.87,0,0,0,3.85-3.85Z" fill="#5e5e5e"></path><path id="Path_91185" data-name="Path 91185" d="M9.94,19.88l2.14,1.43A33.88,33.88,0,0,0,7.57,48.67l-2.49.68A36.51,36.51,0,0,1,9.94,19.88Z" fill="#5e5e5e"></path><path id="Path_91186" data-name="Path 91186" d="M70.05,60,68,58.64a33.86,33.86,0,0,0,4.51-27.35l2.4-.66A35.75,35.75,0,0,1,70.05,60Z" fill="#5e5e5e"></path><path id="Path_91187" data-name="Path 91187" d="M58.67,67.9,60.1,70a36.34,36.34,0,0,1-26.76,5.47c.15-.85.29-1.63.46-2.52A33.82,33.82,0,0,0,58.67,67.9Z" fill="#5e5e5e"></path><path id="Path_91188" data-name="Path 91188" d="M21.38,12.06,19.94,9.9A36.46,36.46,0,0,1,45.36,4.2c-.12.86-.24,1.67-.37,2.56a34.23,34.23,0,0,0-12.28.45,33.81,33.81,0,0,0-11.33,4.85Z" fill="#5e5e5e"></path><path id="Path_91189" data-name="Path 91189" d="M19.37,15.45a3.87,3.87,0,1,1-3.83-3.87,3.87,3.87,0,0,1,3.83,3.87Zm-2.59,0a1.251,1.251,0,1,0,0,.02Z" fill="#5e5e5e"></path><path id="Path_91190" data-name="Path 91190" d="M60.68,64.45a3.87,3.87,0,1,1,3.78,3.92,3.87,3.87,0,0,1-3.78-3.92Zm3.83-1.23a1.29,1.29,0,1,0,1.224.754,1.29,1.29,0,0,0-1.224-.754Z" fill="#5e5e5e"></path></g></svg>