<svg xmlns="http://www.w3.org/2000/svg" xmlns:xlink="http://www.w3.org/1999/xlink" id="Group_60959" data-name="Group 60959" width="95" height="95.045" viewBox="0 0 95 95.045"><defs><clipPath id="clip-path"><rect id="Rectangle_30161" data-name="Rectangle 30161" width="95" height="95.045" transform="translate(0 0)" fill="none"></rect></clipPath></defs><g id="Group_60958" data-name="Group 60958" clip-path="url(#clip-path)"><path id="Path_77185" data-name="Path 77185" d="M49.762,59.226V91.783a2.262,2.262,0,0,1-4.524,0V59.226a2.262,2.262,0,0,1,4.524,0M32.755,56.964a2.262,2.262,0,0,0-2.262,2.262V79.642a2.262,2.262,0,1,0,4.524,0V59.226a2.262,2.262,0,0,0-2.262-2.262m-16.8,0a2.262,2.262,0,0,0-2.262,2.262V70.508a2.262,2.262,0,0,0,4.524,0V59.226a2.262,2.262,0,0,0-2.262-2.262M94,39.493v8.266a2.262,2.262,0,0,1-2.262,2.262H3.262A2.262,2.262,0,0,1,1,47.759V39.493A17.034,17.034,0,0,1,15.82,22.625V18.008A17.028,17.028,0,0,1,32.828,1,16.846,16.846,0,0,1,47.437,9.522a17.006,17.006,0,0,1,31.744,8.486v4.617A17.033,17.033,0,0,1,94,39.493m-63.508,0A12.5,12.5,0,0,0,18.084,27.01h-.076A12.5,12.5,0,0,0,5.525,39.493v6H30.492Zm2.262-8.468a17.047,17.047,0,0,1,12.411-8.38V18.008a12.411,12.411,0,1,0-24.821,0v4.637a17.045,17.045,0,0,1,12.41,8.38m27.23,8.468A12.5,12.5,0,0,0,47.5,27.009h-.075A12.5,12.5,0,0,0,35.016,39.493v6H59.984Zm2.262-8.468a17.047,17.047,0,0,1,12.411-8.38V18.008a12.484,12.484,0,1,0-24.968,0v4.617a17.044,17.044,0,0,1,12.557,8.4m27.23,8.468A12.5,12.5,0,0,0,76.993,27.009h-.076A12.5,12.5,0,0,0,64.509,39.493v6H89.476ZM79.046,56.964a2.262,2.262,0,0,0-2.262,2.262V70.508a2.262,2.262,0,0,0,4.524,0V59.226a2.262,2.262,0,0,0-2.262-2.262m-16.8,0a2.262,2.262,0,0,0-2.262,2.262V79.642a2.262,2.262,0,1,0,4.524,0V59.226a2.262,2.262,0,0,0-2.262-2.262" fill="#5e5e5e"></path><path id="Path_77186" data-name="Path 77186" d="M49.762,59.226V91.783a2.262,2.262,0,0,1-4.524,0V59.226a2.262,2.262,0,0,1,4.524,0ZM32.755,56.964a2.262,2.262,0,0,0-2.262,2.262V79.642a2.262,2.262,0,1,0,4.524,0V59.226A2.262,2.262,0,0,0,32.755,56.964Zm-16.8,0a2.262,2.262,0,0,0-2.262,2.262V70.508a2.262,2.262,0,0,0,4.524,0V59.226A2.262,2.262,0,0,0,15.954,56.964ZM94,39.493v8.266a2.262,2.262,0,0,1-2.262,2.262H3.262A2.262,2.262,0,0,1,1,47.759V39.493A17.034,17.034,0,0,1,15.82,22.625V18.008A17.028,17.028,0,0,1,32.828,1,16.846,16.846,0,0,1,47.437,9.522a17.006,17.006,0,0,1,31.744,8.486v4.617A17.033,17.033,0,0,1,94,39.493Zm-63.508,0A12.5,12.5,0,0,0,18.084,27.01h-.076A12.5,12.5,0,0,0,5.525,39.493v6H30.492Zm2.262-8.468a17.047,17.047,0,0,1,12.411-8.38V18.008a12.411,12.411,0,1,0-24.821,0v4.637A17.045,17.045,0,0,1,32.754,31.025Zm27.23,8.468A12.5,12.5,0,0,0,47.5,27.009h-.075A12.5,12.5,0,0,0,35.016,39.493v6H59.984Zm2.262-8.468a17.047,17.047,0,0,1,12.411-8.38V18.008a12.484,12.484,0,1,0-24.968,0v4.617A17.044,17.044,0,0,1,62.246,31.025Zm27.23,8.468A12.5,12.5,0,0,0,76.993,27.009h-.076A12.5,12.5,0,0,0,64.509,39.493v6H89.476ZM79.046,56.964a2.262,2.262,0,0,0-2.262,2.262V70.508a2.262,2.262,0,0,0,4.524,0V59.226A2.262,2.262,0,0,0,79.046,56.964Zm-16.8,0a2.262,2.262,0,0,0-2.262,2.262V79.642a2.262,2.262,0,1,0,4.524,0V59.226A2.262,2.262,0,0,0,62.246,56.964Z" fill="none" stroke="#fff" stroke-width="2"></path></g></svg>