<svg xmlns="http://www.w3.org/2000/svg" xmlns:xlink="http://www.w3.org/1999/xlink" id="Group_60965" data-name="Group 60965" width="124.08" height="94.5" viewBox="0 0 124.08 94.5"><defs><clipPath id="clip-path"><rect id="Rectangle_30164" data-name="Rectangle 30164" width="124.08" height="94.5" fill="none"></rect></clipPath></defs><g id="Group_60964" data-name="Group 60964" clip-path="url(#clip-path)"><path id="Path_77191" data-name="Path 77191" d="M118.36,59.674h-9.7V47.132a2.236,2.236,0,0,0-2.366-2.367H64.406V34.59h9.7a4.853,4.853,0,0,0,4.97-4.97V5.72A4.853,4.853,0,0,0,74.108.75H49.971A4.852,4.852,0,0,0,45,5.72V29.857a4.851,4.851,0,0,0,4.969,4.969h9.7v9.939H17.788a2.236,2.236,0,0,0-2.367,2.367V59.674h-9.7A4.852,4.852,0,0,0,.75,64.643V88.781A4.852,4.852,0,0,0,5.719,93.75H29.857a4.853,4.853,0,0,0,4.969-4.969V64.643a4.853,4.853,0,0,0-4.969-4.969h-9.7V49.5H59.673V59.674h-9.7A4.852,4.852,0,0,0,45,64.643V88.781a4.852,4.852,0,0,0,4.969,4.969H74.108a4.853,4.853,0,0,0,4.97-4.969V64.643a4.853,4.853,0,0,0-4.97-4.969h-9.7V49.5h39.519V59.674h-9.7a4.853,4.853,0,0,0-4.97,4.969V88.781a4.853,4.853,0,0,0,4.97,4.969H118.36a4.853,4.853,0,0,0,4.97-4.969V64.643a5,5,0,0,0-4.97-4.969M30.093,64.643c-.236-.236,0-.236,0,0V88.781c0,.236,0,.236-.236.236H5.719c-.237,0-.237,0-.237-.236V64.643c0-.236,0-.236.237-.236Zm44.252,0c-.237-.236,0-.236,0,0V88.781c0,.236,0,.236-.237.236H49.971c-.237,0-.237,0-.237-.236V64.643c0-.236,0-.236.237-.236ZM49.734,29.62c.237.237,0,.237,0,0V5.72c0-.237,0-.237.237-.237H74.108c.237,0,.237,0,.237.237V29.857c0,.237,0,.237-.237.237ZM118.6,88.544c0,.237-.237.237,0,0l-24.374.237c-.237,0-.237,0-.237-.237v-23.9c0-.236,0-.236.237-.236H118.36c.237,0,.237,0,.237.236Z" fill="#5e5e5e"></path><path id="Path_77192" data-name="Path 77192" d="M118.36,59.674h-9.7V47.132a2.236,2.236,0,0,0-2.366-2.367H64.406V34.59h9.7a4.853,4.853,0,0,0,4.97-4.97V5.72A4.853,4.853,0,0,0,74.108.75H49.971A4.852,4.852,0,0,0,45,5.72V29.857a4.851,4.851,0,0,0,4.969,4.969h9.7v9.939H17.788a2.236,2.236,0,0,0-2.367,2.367V59.674h-9.7A4.852,4.852,0,0,0,.75,64.643V88.781A4.852,4.852,0,0,0,5.719,93.75H29.857a4.853,4.853,0,0,0,4.969-4.969V64.643a4.853,4.853,0,0,0-4.969-4.969h-9.7V49.5H59.673V59.674h-9.7A4.852,4.852,0,0,0,45,64.643V88.781a4.852,4.852,0,0,0,4.969,4.969H74.108a4.853,4.853,0,0,0,4.97-4.969V64.643a4.853,4.853,0,0,0-4.97-4.969h-9.7V49.5h39.519V59.674h-9.7a4.853,4.853,0,0,0-4.97,4.969V88.781a4.853,4.853,0,0,0,4.97,4.969H118.36a4.853,4.853,0,0,0,4.97-4.969V64.643A5,5,0,0,0,118.36,59.674ZM30.093,64.643c-.236-.236,0-.236,0,0V88.781c0,.236,0,.236-.236.236H5.719c-.237,0-.237,0-.237-.236V64.643c0-.236,0-.236.237-.236Zm44.252,0c-.237-.236,0-.236,0,0V88.781c0,.236,0,.236-.237.236H49.971c-.237,0-.237,0-.237-.236V64.643c0-.236,0-.236.237-.236ZM49.734,29.62c.237.237,0,.237,0,0V5.72c0-.237,0-.237.237-.237H74.108c.237,0,.237,0,.237.237V29.857c0,.237,0,.237-.237.237ZM118.6,88.544c0,.237-.237.237,0,0l-24.374.237c-.237,0-.237,0-.237-.237v-23.9c0-.236,0-.236.237-.236H118.36c.237,0,.237,0,.237.236Z" fill="none" stroke="#fff" stroke-width="1.5"></path></g></svg>