<svg xmlns="http://www.w3.org/2000/svg" xmlns:xlink="http://www.w3.org/1999/xlink" id="Group_60970" data-name="Group 60970" width="93.5" height="95.046" viewBox="0 0 93.5 95.046"><defs><clipPath id="clip-path"><rect id="Rectangle_30165" data-name="Rectangle 30165" width="93" height="94.546" transform="translate(0.25 0.25)" fill="none"></rect></clipPath><clipPath id="clip-path-2"><rect id="Rectangle_30167" data-name="Rectangle 30167" width="93.5" height="95.046" transform="translate(0 0)" fill="none"></rect></clipPath></defs><g id="Group_60967" data-name="Group 60967"><g id="Group_60966" data-name="Group 60966" clip-path="url(#clip-path)"><path id="Path_77193" data-name="Path 77193" d="M54.48,18.559V9.649H51.388V.374H42.113V9.649H39.021v8.91l-.955,1.911H.375V82.3H38.336L33.7,94.671H59.8L55.165,82.3H93.126V20.47H55.435ZM42.557,26.946,22.973,66.115a5.377,5.377,0,0,1-1.119-6.307L39.833,23.849a7.741,7.741,0,0,0,2.724,3.092m2.892,1.122a6.469,6.469,0,0,0,2.593,0l5.477,10.952H39.977Zm5.491-1.122a7.751,7.751,0,0,0,2.725-3.092L71.646,59.813a5.374,5.374,0,0,1-1.119,6.306ZM45.205,3.466H48.3V9.649H45.205Zm-3.092,9.275h9.275V20.47a4.638,4.638,0,0,1-9.275,0ZM55.34,91.579H38.16L41.638,82.3H51.863ZM90.034,79.212H3.467V76.12H90.034Zm0-55.65V73.029H3.467V23.562H36.52L19.088,58.425a8.463,8.463,0,0,0,3.781,11.356h0l1.382.691L38.431,42.112H55.07L69.247,70.461l1.382-.691a8.465,8.465,0,0,0,3.79-11.35L56.981,23.562Z" fill="#5e5e5e"></path><path id="Path_77194" data-name="Path 77194" d="M54.48,18.559V9.649H51.388V.374H42.113V9.649H39.021v8.91l-.955,1.911H.375V82.3H38.336L33.7,94.671H59.8L55.165,82.3H93.126V20.47H55.435ZM42.557,26.946,22.973,66.115a5.377,5.377,0,0,1-1.119-6.307L39.833,23.849a7.741,7.741,0,0,0,2.724,3.092m2.892,1.122a6.469,6.469,0,0,0,2.593,0l5.477,10.952H39.977Zm5.491-1.122a7.751,7.751,0,0,0,2.725-3.092L71.646,59.813a5.374,5.374,0,0,1-1.119,6.306ZM45.205,3.466H48.3V9.649H45.205Zm-3.092,9.275h9.275V20.47a4.638,4.638,0,0,1-9.275,0ZM55.34,91.579H38.16L41.638,82.3H51.863ZM90.034,79.212H3.467V76.12H90.034Zm0-55.65V73.029H3.467V23.562H36.52L19.088,58.425a8.463,8.463,0,0,0,3.781,11.356h0l1.382.691L38.431,42.112H55.07L69.247,70.461l1.382-.691a8.465,8.465,0,0,0,3.79-11.35L56.981,23.562Z" fill="none" stroke="#fff" stroke-width="0.5"></path><path id="Path_77195" data-name="Path 77195" d="M54.48,18.559V9.649H51.388V.374H42.113V9.649H39.021v8.91l-.955,1.911H.375V82.3H38.336L33.7,94.671H59.8L55.165,82.3H93.126V20.47H55.435ZM42.557,26.946,22.973,66.115a5.377,5.377,0,0,1-1.119-6.307L39.833,23.849A7.754,7.754,0,0,0,42.557,26.946Zm2.892,1.122a6.469,6.469,0,0,0,2.593,0L53.519,39.02H39.977Zm5.491-1.122a7.75,7.75,0,0,0,2.725-3.092L71.646,59.813a5.374,5.374,0,0,1-1.119,6.306ZM45.205,3.466H48.3V9.649H45.205Zm-3.092,9.275h9.275V20.47a4.638,4.638,0,0,1-9.275,0ZM55.34,91.579H38.16L41.638,82.3H51.863ZM90.034,79.212H3.467V76.12H90.034Zm0-55.65V73.029H3.467V23.562H36.52L19.088,58.425a8.463,8.463,0,0,0,3.781,11.356h0l1.382.691L38.431,42.112H55.07L69.247,70.461l1.382-.691a8.465,8.465,0,0,0,3.79-11.35L56.981,23.562Z" fill="none" stroke="#fff" stroke-width="0.5"></path><path id="Path_77196" data-name="Path 77196" d="M46.75,20.471a1.532,1.532,0,1,0-1.1-.448,1.625,1.625,0,0,0,1.1.448" fill="#5e5e5e"></path><path id="Path_77197" data-name="Path 77197" d="M46.75,20.471a1.532,1.532,0,1,0-1.1-.448,1.625,1.625,0,0,0,1.1.448" fill="none" stroke="#fff" stroke-width="0.5"></path><path id="Path_77198" data-name="Path 77198" d="M46.75,20.471a1.532,1.532,0,1,0-1.1-.448A1.625,1.625,0,0,0,46.75,20.471Z" fill="none" stroke="#fff" stroke-width="0.5"></path></g></g><g id="Group_60969" data-name="Group 60969"><g id="Group_60968" data-name="Group 60968" clip-path="url(#clip-path-2)"><rect id="Rectangle_30166" data-name="Rectangle 30166" width="93" height="94.546" transform="translate(0.25 0.25)" fill="none" stroke="#fff" stroke-width="0.5"></rect></g></g></svg>