<svg xmlns="http://www.w3.org/2000/svg" xmlns:xlink="http://www.w3.org/1999/xlink" width="94" height="93.97" viewBox="0 0 94 93.97"><defs><clipPath id="clip-path"><rect id="Rectangle_30168" data-name="Rectangle 30168" width="94" height="93.97" transform="translate(0 -0.001)" fill="none"></rect></clipPath></defs><g id="Group_60972" data-name="Group 60972" transform="translate(0 0.001)"><g id="Group_60971" data-name="Group 60971" clip-path="url(#clip-path)"><path id="Path_77199" data-name="Path 77199" d="M4.959,26.439c.312.312.63.6.933.855l.012.01.018.017a14.392,14.392,0,0,0,1.424,1.071,15.246,15.246,0,0,0,18.1-1.039l.051-.044.02-.016c.306-.251.615-.53.94-.855A15.2,15.2,0,1,0,3.01,24.059,15.719,15.719,0,0,0,4.959,26.439Zm4.3-.954c-.1-.063-.182-.142-.276-.207a6.986,6.986,0,0,1,11.659-3.029,6.914,6.914,0,0,1,1.776,3.039,11.766,11.766,0,0,1-13.159.2M19.439,14.159a3.977,3.977,0,1,1,.257-1.42,3.99,3.99,0,0,1-.257,1.42M7.422,7.4A11.711,11.711,0,0,1,25.133,22.629,10.439,10.439,0,0,0,20.886,18.1a7.471,7.471,0,1,0-10.564-.191c.066.068.133.135.2.2a10.532,10.532,0,0,0-4.24,4.534c-.126-.169-.26-.334-.376-.507A11.754,11.754,0,0,1,7.422,7.4" fill="#5e5e5e"></path><path id="Path_77200" data-name="Path 77200" d="M4.959,26.439c.312.312.63.6.933.855l.012.01.018.017a14.392,14.392,0,0,0,1.424,1.071,15.246,15.246,0,0,0,18.1-1.039l.051-.044.02-.016c.306-.251.615-.53.94-.855A15.2,15.2,0,1,0,3.01,24.059,15.719,15.719,0,0,0,4.959,26.439Zm4.3-.954c-.1-.063-.182-.142-.276-.207a6.986,6.986,0,0,1,11.659-3.029,6.914,6.914,0,0,1,1.776,3.039A11.766,11.766,0,0,1,9.262,25.485ZM19.439,14.159a3.977,3.977,0,1,1,.257-1.42A3.99,3.99,0,0,1,19.439,14.159ZM7.422,7.4A11.711,11.711,0,0,1,25.133,22.629,10.439,10.439,0,0,0,20.886,18.1a7.471,7.471,0,1,0-10.564-.191c.066.068.133.135.2.2a10.532,10.532,0,0,0-4.24,4.534c-.126-.169-.26-.334-.376-.507A11.754,11.754,0,0,1,7.422,7.4Z" fill="none" stroke="#fff" stroke-width="1"></path><path id="Path_77201" data-name="Path 77201" d="M4.959,57.734c.312.312.63.6.933.855l.012.01.018.016a14.248,14.248,0,0,0,1.424,1.072,15.25,15.25,0,0,0,18.1-1.039L25.5,58.6l.017-.015c.306-.251.615-.53.94-.855A15.2,15.2,0,1,0,3.007,55.355,15.681,15.681,0,0,0,4.959,57.734Zm4.3-.954c-.1-.064-.182-.142-.276-.208A6.986,6.986,0,0,1,20.645,53.55a6.883,6.883,0,0,1,1.776,3.037,11.762,11.762,0,0,1-13.159.193M19.439,45.454a3.977,3.977,0,1,1,.257-1.42,3.99,3.99,0,0,1-.257,1.42M7.422,38.7a11.711,11.711,0,0,1,17.7,15.234A10.355,10.355,0,0,0,20.883,49.4,7.472,7.472,0,1,0,10.318,49.2c.066.068.133.135.2.2a10.539,10.539,0,0,0-4.237,4.535c-.126-.169-.26-.334-.376-.508A11.753,11.753,0,0,1,7.422,38.7Z" fill="#5e5e5e"></path><path id="Path_77202" data-name="Path 77202" d="M4.959,57.734c.312.312.63.6.933.855l.012.01.018.016a14.248,14.248,0,0,0,1.424,1.072,15.25,15.25,0,0,0,18.1-1.039L25.5,58.6l.017-.015c.306-.251.615-.53.94-.855A15.2,15.2,0,1,0,3.007,55.355,15.681,15.681,0,0,0,4.959,57.734Zm4.3-.954c-.1-.064-.182-.142-.276-.208A6.986,6.986,0,0,1,20.645,53.55a6.883,6.883,0,0,1,1.776,3.037A11.762,11.762,0,0,1,9.262,56.78ZM19.439,45.454a3.977,3.977,0,1,1,.257-1.42A3.99,3.99,0,0,1,19.439,45.454ZM7.422,38.7a11.711,11.711,0,0,1,17.7,15.234A10.355,10.355,0,0,0,20.883,49.4,7.472,7.472,0,1,0,10.318,49.2c.066.068.133.135.2.2a10.539,10.539,0,0,0-4.237,4.535c-.126-.169-.26-.334-.376-.508A11.753,11.753,0,0,1,7.422,38.7Z" fill="none" stroke="#fff" stroke-width="1"></path><path id="Path_77203" data-name="Path 77203" d="M15.706,63.08A15.086,15.086,0,0,0,4.964,67.533,15.247,15.247,0,0,0,3.011,86.65a15.673,15.673,0,0,0,1.952,2.378c.312.312.63.605.933.857l.012.009.018.016A14.561,14.561,0,0,0,7.35,90.982a15.247,15.247,0,0,0,18.1-1.04c.017-.013.034-.03.051-.044l.017-.013c.306-.253.614-.531.94-.857A15.2,15.2,0,0,0,15.71,63.08Zm-6.441,25c-.1-.063-.184-.142-.279-.208a6.986,6.986,0,0,1,11.659-3.029,6.89,6.89,0,0,1,1.776,3.039,11.763,11.763,0,0,1-13.156.2M19.439,76.749a3.977,3.977,0,1,1,.257-1.42,3.989,3.989,0,0,1-.257,1.42m5.69,8.48a10.355,10.355,0,0,0-4.243-4.539,7.471,7.471,0,1,0-10.363.012,10.532,10.532,0,0,0-4.24,4.534c-.126-.169-.26-.333-.376-.507a11.718,11.718,0,1,1,19.218.5Z" fill="#5e5e5e"></path><path id="Path_77204" data-name="Path 77204" d="M15.706,63.08A15.086,15.086,0,0,0,4.964,67.533,15.247,15.247,0,0,0,3.011,86.65a15.673,15.673,0,0,0,1.952,2.378c.312.312.63.605.933.857l.012.009.018.016A14.561,14.561,0,0,0,7.35,90.982a15.247,15.247,0,0,0,18.1-1.04c.017-.013.034-.03.051-.044l.017-.013c.306-.253.614-.531.94-.857A15.2,15.2,0,0,0,15.71,63.08Zm-6.441,25c-.1-.063-.184-.142-.279-.208a6.986,6.986,0,0,1,11.659-3.029,6.89,6.89,0,0,1,1.776,3.039A11.763,11.763,0,0,1,9.265,88.076ZM19.439,76.749a3.977,3.977,0,1,1,.257-1.42A3.989,3.989,0,0,1,19.439,76.749Zm5.69,8.48a10.355,10.355,0,0,0-4.243-4.539,7.471,7.471,0,1,0-10.363.012,10.532,10.532,0,0,0-4.24,4.534c-.126-.169-.26-.333-.376-.507a11.718,11.718,0,1,1,19.218.5Z" fill="none" stroke="#fff" stroke-width="1"></path><path id="Path_77205" data-name="Path 77205" d="M91.756,29.5H36.195a1.741,1.741,0,0,0,0,3.482H91.756a1.741,1.741,0,0,0,0-3.482" fill="#5e5e5e"></path><path id="Path_77206" data-name="Path 77206" d="M91.756,29.5H36.195a1.741,1.741,0,0,0,0,3.482H91.756a1.741,1.741,0,0,0,0-3.482Z" fill="none" stroke="#fff" stroke-width="1"></path><path id="Path_77207" data-name="Path 77207" d="M91.756,60.994H36.195a1.741,1.741,0,0,0,0,3.481H91.756a1.741,1.741,0,0,0,0-3.481" fill="#5e5e5e"></path><path id="Path_77208" data-name="Path 77208" d="M91.756,60.994H36.195a1.741,1.741,0,0,0,0,3.481H91.756a1.741,1.741,0,0,0,0-3.481Z" fill="none" stroke="#fff" stroke-width="1"></path><path id="Path_77209" data-name="Path 77209" d="M45.9,23.345a7.658,7.658,0,1,0-7.658-7.658A7.657,7.657,0,0,0,45.9,23.345m0-11.827a4.177,4.177,0,1,1-4.178,4.177A4.176,4.176,0,0,1,45.9,11.518Z" fill="#5e5e5e"></path><path id="Path_77210" data-name="Path 77210" d="M45.9,23.345a7.658,7.658,0,1,0-7.658-7.658A7.657,7.657,0,0,0,45.9,23.345Zm0-11.827a4.177,4.177,0,1,1-4.178,4.177A4.176,4.176,0,0,1,45.9,11.518Z" fill="none" stroke="#fff" stroke-width="1"></path><path id="Path_77211" data-name="Path 77211" d="M65.871,23.345a7.658,7.658,0,1,0-7.658-7.658,7.658,7.658,0,0,0,7.658,7.658m0-11.827a4.177,4.177,0,1,1-4.177,4.177,4.177,4.177,0,0,1,4.177-4.177" fill="#5e5e5e"></path><path id="Path_77212" data-name="Path 77212" d="M65.871,23.345a7.658,7.658,0,1,0-7.658-7.658A7.658,7.658,0,0,0,65.871,23.345Zm0-11.827a4.177,4.177,0,1,1-4.177,4.177A4.177,4.177,0,0,1,65.871,11.518Z" fill="none" stroke="#fff" stroke-width="1"></path><path id="Path_77213" data-name="Path 77213" d="M85.842,23.345a7.658,7.658,0,1,0-7.658-7.658,7.658,7.658,0,0,0,7.658,7.658m0-11.827a4.177,4.177,0,1,1-4.177,4.177,4.177,4.177,0,0,1,4.177-4.177" fill="#5e5e5e"></path><path id="Path_77214" data-name="Path 77214" d="M85.842,23.345a7.658,7.658,0,1,0-7.658-7.658A7.658,7.658,0,0,0,85.842,23.345Zm0-11.827a4.177,4.177,0,1,1-4.177,4.177A4.177,4.177,0,0,1,85.842,11.518Z" fill="none" stroke="#fff" stroke-width="1"></path><path id="Path_77215" data-name="Path 77215" d="M53.556,46.986A7.658,7.658,0,1,0,45.9,54.644,7.658,7.658,0,0,0,53.556,46.986Zm-11.827,0a4.177,4.177,0,1,1,4.177,4.177A4.177,4.177,0,0,1,41.729,46.986Z" fill="#5e5e5e"></path><path id="Path_77216" data-name="Path 77216" d="M53.556,46.986A7.658,7.658,0,1,0,45.9,54.644,7.658,7.658,0,0,0,53.556,46.986Zm-11.827,0a4.177,4.177,0,1,1,4.177,4.177A4.177,4.177,0,0,1,41.729,46.986Z" fill="none" stroke="#fff" stroke-width="1"></path><path id="Path_77217" data-name="Path 77217" d="M73.526,46.986a7.658,7.658,0,1,0-7.658,7.658A7.658,7.658,0,0,0,73.526,46.986Zm-11.829,0a4.177,4.177,0,1,1,4.177,4.177A4.177,4.177,0,0,1,61.7,46.986Z" fill="#5e5e5e"></path><path id="Path_77218" data-name="Path 77218" d="M73.526,46.986a7.658,7.658,0,1,0-7.658,7.658A7.658,7.658,0,0,0,73.526,46.986Zm-11.829,0a4.177,4.177,0,1,1,4.177,4.177A4.177,4.177,0,0,1,61.7,46.986Z" fill="none" stroke="#fff" stroke-width="1"></path><path id="Path_77219" data-name="Path 77219" d="M45.9,70.627a7.658,7.658,0,1,0,7.657,7.658A7.658,7.658,0,0,0,45.9,70.627m0,11.827a4.177,4.177,0,1,1,4.176-4.177A4.177,4.177,0,0,1,45.9,82.454" fill="#5e5e5e"></path><path id="Path_77220" data-name="Path 77220" d="M45.9,70.627a7.658,7.658,0,1,0,7.657,7.658A7.658,7.658,0,0,0,45.9,70.627Zm0,11.827a4.177,4.177,0,1,1,4.176-4.177A4.177,4.177,0,0,1,45.9,82.454Z" fill="none" stroke="#fff" stroke-width="1"></path></g></g></svg>