<svg xmlns="http://www.w3.org/2000/svg" xmlns:xlink="http://www.w3.org/1999/xlink" id="Group_60949" data-name="Group 60949" width="93.75" height="111.635" viewBox="0 0 93.75 111.635"><defs><clipPath id="clip-path"><rect id="Rectangle_30157" data-name="Rectangle 30157" width="93.75" height="111.635" transform="translate(0 0)" fill="none"></rect></clipPath></defs><g id="Group_60948" data-name="Group 60948" clip-path="url(#clip-path)"><path id="Path_77146" data-name="Path 77146" d="M2.164,86.222H16.471v16.1a8.953,8.953,0,0,0,8.943,8.942H68.337a8.953,8.953,0,0,0,8.942-8.942v-16.1H91.587a1.789,1.789,0,0,0,1.788-1.789V30.78a1.789,1.789,0,0,0-1.788-1.789H77.279V9.318A8.953,8.953,0,0,0,68.337.376H25.414a8.953,8.953,0,0,0-8.943,8.942V28.991H2.164A1.789,1.789,0,0,0,.375,30.78V84.433a1.789,1.789,0,0,0,1.789,1.789M39.721,50.453H54.029V75.491H39.721ZM75.49,75.491H71.914V66.549a1.789,1.789,0,0,0-1.789-1.789H62.971a1.788,1.788,0,0,0-1.788,1.789v8.942H57.606V39.722H75.49Zm-7.153,0H64.76V68.337h3.577Zm-32.193,0H32.567V66.549a1.788,1.788,0,0,0-1.788-1.789H23.625a1.788,1.788,0,0,0-1.788,1.789v8.942H18.26V39.722H36.144Zm-7.154,0H25.413V68.337H28.99Zm50.077,7.154H14.682V79.068H79.067Zm-10.73,25.038H25.414a5.365,5.365,0,0,1-5.366-5.365V96.953H73.7v5.365a5.365,5.365,0,0,1-5.365,5.365M73.7,93.376H20.048V86.222H73.7ZM57.1,3.953,56.209,7.53H37.541l-.894-3.577ZM20.048,9.318a5.365,5.365,0,0,1,5.366-5.365h7.547l1.449,5.8a1.788,1.788,0,0,0,1.734,1.353H57.606a1.79,1.79,0,0,0,1.735-1.353l1.448-5.8h7.548A5.365,5.365,0,0,1,73.7,9.318V28.991H54.986l-6.618-9.935a1.858,1.858,0,0,0-2.6-.375,1.9,1.9,0,0,0-.375.375l-6.628,9.935H20.048Zm-16.1,23.25H39.721a1.79,1.79,0,0,0,1.488-.8l5.666-8.5,5.666,8.5a1.789,1.789,0,0,0,1.488.8H89.8V82.645H82.644V77.28a1.788,1.788,0,0,0-1.788-1.789H79.067V37.933a1.788,1.788,0,0,0-1.788-1.788H55.817a1.789,1.789,0,0,0-1.788,1.788v8.943H39.721V37.933a1.788,1.788,0,0,0-1.788-1.788H16.471a1.788,1.788,0,0,0-1.788,1.788V75.491H12.894a1.789,1.789,0,0,0-1.788,1.789v5.365H3.952Z" fill="#5e5e5e"></path><path id="Path_77147" data-name="Path 77147" d="M2.164,86.222H16.471v16.1a8.953,8.953,0,0,0,8.943,8.942H68.337a8.953,8.953,0,0,0,8.942-8.942v-16.1H91.587a1.789,1.789,0,0,0,1.788-1.789V30.78a1.789,1.789,0,0,0-1.788-1.789H77.279V9.318A8.953,8.953,0,0,0,68.337.376H25.414a8.953,8.953,0,0,0-8.943,8.942V28.991H2.164A1.789,1.789,0,0,0,.375,30.78V84.433A1.789,1.789,0,0,0,2.164,86.222ZM39.721,50.453H54.029V75.491H39.721ZM75.49,75.491H71.914V66.549a1.789,1.789,0,0,0-1.789-1.789H62.971a1.788,1.788,0,0,0-1.788,1.789v8.942H57.606V39.722H75.49Zm-7.153,0H64.76V68.337h3.577Zm-32.193,0H32.567V66.549a1.788,1.788,0,0,0-1.788-1.789H23.625a1.788,1.788,0,0,0-1.788,1.789v8.942H18.26V39.722H36.144Zm-7.154,0H25.413V68.337H28.99Zm50.077,7.154H14.682V79.068H79.067Zm-10.73,25.038H25.414a5.365,5.365,0,0,1-5.366-5.365V96.953H73.7v5.365A5.365,5.365,0,0,1,68.337,107.683ZM73.7,93.376H20.048V86.222H73.7ZM57.1,3.953,56.209,7.53H37.541l-.894-3.577ZM20.048,9.318a5.365,5.365,0,0,1,5.366-5.365h7.547l1.449,5.8a1.788,1.788,0,0,0,1.734,1.353H57.606a1.79,1.79,0,0,0,1.735-1.353l1.448-5.8h7.548A5.365,5.365,0,0,1,73.7,9.318V28.991H54.986l-6.618-9.935a1.858,1.858,0,0,0-2.6-.375,1.9,1.9,0,0,0-.375.375l-6.628,9.935H20.048Zm-16.1,23.25H39.721a1.79,1.79,0,0,0,1.488-.8l5.666-8.5,5.666,8.5a1.789,1.789,0,0,0,1.488.8H89.8V82.645H82.644V77.28a1.788,1.788,0,0,0-1.788-1.789H79.067V37.933a1.788,1.788,0,0,0-1.788-1.788H55.817a1.789,1.789,0,0,0-1.788,1.788v8.943H39.721V37.933a1.788,1.788,0,0,0-1.788-1.788H16.471a1.788,1.788,0,0,0-1.788,1.788V75.491H12.894a1.789,1.789,0,0,0-1.788,1.789v5.365H3.952Z" fill="none" stroke="#fff" stroke-width="0.75"></path></g></svg>