<svg xmlns="http://www.w3.org/2000/svg" xmlns:xlink="http://www.w3.org/1999/xlink" id="Group_60947" data-name="Group 60947" width="93.5" height="93.5" viewBox="0 0 93.5 93.5"><defs><clipPath id="clip-path"><rect id="Rectangle_30156" data-name="Rectangle 30156" width="93.5" height="93.5" fill="none"></rect></clipPath></defs><g id="Group_60946" data-name="Group 60946" clip-path="url(#clip-path)"><path id="Path_77144" data-name="Path 77144" d="M73.75,48.25h-12v-18h-27v12h-12v24H4.46l1.164,2.2a46.5,46.5,0,0,0,82.252,0l1.164-2.2H73.75Zm-3,18h-15v-15h15Zm-24,24c-2.811,0-5.649-3.355-7.988-9H54.738C52.4,86.895,49.561,90.25,46.75,90.25Zm11.235-9H73.237a43.331,43.331,0,0,1-20.015,8.5A28.613,28.613,0,0,0,57.985,81.25Zm-17.706,8.5a43.363,43.363,0,0,1-20.015-8.5H35.515a28.591,28.591,0,0,0,4.764,8.5m-2.638-11.5a71.325,71.325,0,0,1-2.345-9H58.2a71.162,71.162,0,0,1-2.344,9Zm.109-45h21v15h-6v18h-9v-24h-6Zm-12,12h15v21h-15Zm-16.227,24h22.72a77.907,77.907,0,0,0,2.222,9H16.755a43.546,43.546,0,0,1-7.232-9m74.454,0a43.551,43.551,0,0,1-7.233,9H59.034a77.916,77.916,0,0,0,2.221-9H83.977Zm-67.227-36A16.5,16.5,0,1,0,.25,16.75a16.519,16.519,0,0,0,16.5,16.5M8.3,27.264a8.941,8.941,0,0,1,16.9,0,13.444,13.444,0,0,1-16.9,0M12.25,13.75a4.5,4.5,0,1,1,4.5,4.5,4.505,4.505,0,0,1-4.5-4.5m4.5-10.5A13.476,13.476,0,0,1,27.48,24.91a11.947,11.947,0,0,0-5.762-5.584,7.5,7.5,0,1,0-9.936,0A11.947,11.947,0,0,0,6.02,24.91,13.476,13.476,0,0,1,16.75,3.25m60,30a16.5,16.5,0,1,0-16.5-16.5,16.519,16.519,0,0,0,16.5,16.5M68.3,27.264a8.941,8.941,0,0,1,16.9,0,13.444,13.444,0,0,1-16.9,0M72.25,13.75a4.5,4.5,0,1,1,4.5,4.5,4.505,4.505,0,0,1-4.5-4.5m4.5-10.5A13.476,13.476,0,0,1,87.48,24.91a11.947,11.947,0,0,0-5.762-5.584,7.5,7.5,0,1,0-9.936,0,11.949,11.949,0,0,0-5.761,5.584A13.475,13.475,0,0,1,76.75,3.25M45.25,8.371V21.25h3V8.371l4.939,4.94,2.122-2.122L46.75,2.629l-8.561,8.56,2.122,2.122Zm0,15.879h3v3h-3ZM80.189,37.311l4.94,4.939H70.75v3H85.129l-4.94,4.939,2.122,2.122,8.56-8.561-8.56-8.561ZM13.311,50.189,8.371,45.25H19.75v-3H8.371l4.94-4.939-2.122-2.122L2.629,43.75l8.56,8.561ZM46.75,42.25h3v3h-3Zm0,12h3v3h-3Zm0,6h3v3h-3Zm0-12h3v3h-3Zm0-12h3v3h-3Zm6,6h3v3h-3Zm0-6h3v3h-3Zm-12,0h3v3h-3Zm-6,12h3v3h-3Zm-6,0h3v3h-3Zm0,6h3v3h-3Zm6,0h3v3h-3Zm-6,6h3v3h-3Zm6,0h3v3h-3Zm30-6h3v3h-3Zm-6,0h3v3h-3Zm0,6h3v3h-3Zm6,0h3v3h-3Z" fill="#5e5e5e"></path><path id="Path_77145" data-name="Path 77145" d="M73.75,48.25h-12v-18h-27v12h-12v24H4.46l1.164,2.2a46.5,46.5,0,0,0,82.252,0l1.164-2.2H73.75Zm-3,18h-15v-15h15Zm-24,24c-2.811,0-5.649-3.355-7.988-9H54.738C52.4,86.895,49.561,90.25,46.75,90.25Zm11.235-9H73.237a43.331,43.331,0,0,1-20.015,8.5A28.613,28.613,0,0,0,57.985,81.25Zm-17.706,8.5a43.363,43.363,0,0,1-20.015-8.5H35.515A28.591,28.591,0,0,0,40.279,89.751Zm-2.638-11.5a71.325,71.325,0,0,1-2.345-9H58.2a71.162,71.162,0,0,1-2.344,9Zm.109-45h21v15h-6v18h-9v-24h-6Zm-12,12h15v21h-15Zm-16.227,24h22.72a77.907,77.907,0,0,0,2.222,9H16.755A43.546,43.546,0,0,1,9.523,69.25Zm74.454,0a43.551,43.551,0,0,1-7.233,9H59.034a77.916,77.916,0,0,0,2.221-9H83.977Zm-67.227-36A16.5,16.5,0,1,0,.25,16.75,16.519,16.519,0,0,0,16.75,33.25ZM8.3,27.264a8.941,8.941,0,0,1,16.9,0,13.444,13.444,0,0,1-16.9,0ZM12.25,13.75a4.5,4.5,0,1,1,4.5,4.5A4.505,4.505,0,0,1,12.25,13.75Zm4.5-10.5A13.476,13.476,0,0,1,27.48,24.91a11.947,11.947,0,0,0-5.762-5.584,7.5,7.5,0,1,0-9.936,0A11.947,11.947,0,0,0,6.02,24.91,13.476,13.476,0,0,1,16.75,3.25Zm60,30a16.5,16.5,0,1,0-16.5-16.5A16.519,16.519,0,0,0,76.75,33.25ZM68.3,27.264a8.941,8.941,0,0,1,16.9,0,13.444,13.444,0,0,1-16.9,0ZM72.25,13.75a4.5,4.5,0,1,1,4.5,4.5A4.505,4.505,0,0,1,72.25,13.75Zm4.5-10.5A13.476,13.476,0,0,1,87.48,24.91a11.947,11.947,0,0,0-5.762-5.584,7.5,7.5,0,1,0-9.936,0,11.949,11.949,0,0,0-5.761,5.584A13.475,13.475,0,0,1,76.75,3.25ZM45.25,8.371V21.25h3V8.371l4.939,4.94,2.122-2.122L46.75,2.629l-8.561,8.56,2.122,2.122Zm0,15.879h3v3h-3ZM80.189,37.311l4.94,4.939H70.75v3H85.129l-4.94,4.939,2.122,2.122,8.56-8.561-8.56-8.561ZM13.311,50.189,8.371,45.25H19.75v-3H8.371l4.94-4.939-2.122-2.122L2.629,43.75l8.56,8.561ZM46.75,42.25h3v3h-3Zm0,12h3v3h-3Zm0,6h3v3h-3Zm0-12h3v3h-3Zm0-12h3v3h-3Zm6,6h3v3h-3Zm0-6h3v3h-3Zm-12,0h3v3h-3Zm-6,12h3v3h-3Zm-6,0h3v3h-3Zm0,6h3v3h-3Zm6,0h3v3h-3Zm-6,6h3v3h-3Zm6,0h3v3h-3Zm30-6h3v3h-3Zm-6,0h3v3h-3Zm0,6h3v3h-3Zm6,0h3v3h-3Z" fill="none" stroke="#fff" stroke-width="0.5"></path></g></svg>