<svg xmlns="http://www.w3.org/2000/svg" xmlns:xlink="http://www.w3.org/1999/xlink" id="Group_60941" data-name="Group 60941" width="93" height="92.996" viewBox="0 0 93 92.996"><defs><clipPath id="clip-path"><rect id="Rectangle_30153" data-name="Rectangle 30153" width="93" height="92.996" transform="translate(0 0)" fill="none"></rect></clipPath></defs><g id="Group_60940" data-name="Group 60940" clip-path="url(#clip-path)"><path id="Path_77099" data-name="Path 77099" d="M91.626,0H1.373A1.373,1.373,0,0,0,0,1.372V77.743a1.374,1.374,0,0,0,1.373,1.374h24.4v6.671A7.219,7.219,0,0,0,32.978,93H60.021a7.22,7.22,0,0,0,7.208-7.208V79.117h24.4A1.374,1.374,0,0,0,93,77.743V1.374A1.373,1.373,0,0,0,91.628,0ZM2.747,2.747H90.253V11.1H2.747Zm25.77,75.019V43.253H64.482V80.2H28.517Zm.127-37.26a4.466,4.466,0,0,1,4.334-3.424H60.021a4.468,4.468,0,0,1,4.335,3.424ZM60.021,90.253H32.978a4.467,4.467,0,0,1-4.461-4.461V82.951H64.482v2.841A4.466,4.466,0,0,1,60.021,90.253ZM67.229,76.37V41.544a7.219,7.219,0,0,0-7.208-7.208H32.978a7.219,7.219,0,0,0-7.207,7.208V76.37H2.747V13.845H90.253V76.37Z" fill="#5e5e5e"></path><path id="Path_77100" data-name="Path 77100" d="M61.378,4.55a2.373,2.373,0,1,0,2.373,2.373A2.373,2.373,0,0,0,61.378,4.55" fill="#5e5e5e"></path><path id="Path_77101" data-name="Path 77101" d="M70.666,4.55a2.374,2.374,0,1,0,2.372,2.374h0A2.373,2.373,0,0,0,70.666,4.55" fill="#5e5e5e"></path><path id="Path_77102" data-name="Path 77102" d="M79.952,4.55a2.374,2.374,0,1,0,2.372,2.374h0A2.371,2.371,0,0,0,79.953,4.55Z" fill="#5e5e5e"></path><path id="Path_77103" data-name="Path 77103" d="M46.5,84.171A2.433,2.433,0,1,0,48.933,86.6,2.433,2.433,0,0,0,46.5,84.171" fill="#5e5e5e"></path><path id="Path_77104" data-name="Path 77104" d="M58.467,50.677a1.232,1.232,0,0,0-.04-.131,1.357,1.357,0,0,0-.079-.145c-.017-.03-.03-.062-.05-.091a1.349,1.349,0,0,0-.382-.382.805.805,0,0,0-.091-.05.842.842,0,0,0-.276-.117c-.042-.012-.079-.028-.125-.037a1.339,1.339,0,0,0-.268-.027h-6.5a1.374,1.374,0,1,0,0,2.747h3.191L37.216,69.071V65.88a1.373,1.373,0,1,0-2.747,0v6.506a1.359,1.359,0,0,0,.027.27c.008.042.024.078.037.122a1.2,1.2,0,0,0,.041.133,1.3,1.3,0,0,0,.075.143.957.957,0,0,0,.051.094,1.385,1.385,0,0,0,.381.382c.032.02.065.034.1.052a1.225,1.225,0,0,0,.139.073,1.28,1.28,0,0,0,.137.043,1.18,1.18,0,0,0,.119.035,1.356,1.356,0,0,0,.269.027h6.507a1.374,1.374,0,0,0,0-2.747H39.158L55.785,54.386v3.191a1.373,1.373,0,1,0,2.746,0V51.07a1.415,1.415,0,0,0-.026-.268C58.5,50.759,58.48,50.719,58.467,50.677Z" fill="#5e5e5e"></path></g></svg>