<svg xmlns="http://www.w3.org/2000/svg" xmlns:xlink="http://www.w3.org/1999/xlink" id="Group_60939" data-name="Group 60939" width="72.707" height="93.5" viewBox="0 0 72.707 93.5"><defs><clipPath id="clip-path"><rect id="Rectangle_30152" data-name="Rectangle 30152" width="72.707" height="93.5" fill="none"></rect></clipPath></defs><g id="Group_60938" data-name="Group 60938" clip-path="url(#clip-path)"><path id="Path_77083" data-name="Path 77083" d="M27.021,8.6h7.386a1.453,1.453,0,0,0,0-2.906H27.021a1.453,1.453,0,0,0,0,2.906" fill="#5e5e5e"></path><path id="Path_77084" data-name="Path 77084" d="M27.021,8.6h7.386a1.453,1.453,0,0,0,0-2.906H27.021a1.453,1.453,0,0,0,0,2.906Z" fill="none" stroke="#fff" stroke-width="0.5"></path><path id="Path_77085" data-name="Path 77085" d="M20.434,86.832H33.608a1.453,1.453,0,1,0,0-2.906H20.434a1.453,1.453,0,1,0,0,2.906Z" fill="#5e5e5e"></path><path id="Path_77086" data-name="Path 77086" d="M20.434,86.832H33.608a1.453,1.453,0,1,0,0-2.906H20.434a1.453,1.453,0,1,0,0,2.906Z" fill="none" stroke="#fff" stroke-width="0.25"></path><path id="Path_77087" data-name="Path 77087" d="M1.7,72.375a1.454,1.454,0,0,0,1.454-1.454V14.054H50.886v7.475a1.453,1.453,0,1,0,2.906,0c0-1.748,0,5.363.007-15.5A5.8,5.8,0,0,0,48.005.25H6.035A5.827,5.827,0,0,0,.25,6.037V70.921A1.454,1.454,0,0,0,1.7,72.375M48,3.156a2.9,2.9,0,0,1,2.885,2.881v5.111H3.157V6.033A2.887,2.887,0,0,1,6.038,3.156Z" fill="#5e5e5e"></path><path id="Path_77088" data-name="Path 77088" d="M1.7,72.375a1.454,1.454,0,0,0,1.454-1.454V14.054H50.886v7.475a1.453,1.453,0,1,0,2.906,0c0-1.748,0,5.363.007-15.5A5.8,5.8,0,0,0,48.005.25H6.035A5.827,5.827,0,0,0,.25,6.037V70.921A1.454,1.454,0,0,0,1.7,72.375ZM48,3.156a2.9,2.9,0,0,1,2.885,2.881v5.111H3.157V6.033A2.887,2.887,0,0,1,6.038,3.156Z" fill="none" stroke="#fff" stroke-width="0.5"></path><path id="Path_77089" data-name="Path 77089" d="M35.988,36.863a1.453,1.453,0,0,0,2.055-.01l6.073-6.13a1.452,1.452,0,0,0,0-2.044l-6.073-6.13a1.453,1.453,0,1,0-2.065,2.045l5.06,5.107-5.06,5.107A1.453,1.453,0,0,0,35.988,36.863Z" fill="#5e5e5e"></path><path id="Path_77090" data-name="Path 77090" d="M35.988,36.863a1.453,1.453,0,0,0,2.055-.01l6.073-6.13a1.452,1.452,0,0,0,0-2.044l-6.073-6.13a1.453,1.453,0,1,0-2.065,2.045l5.06,5.107-5.06,5.107A1.453,1.453,0,0,0,35.988,36.863Z" fill="none" stroke="#fff" stroke-width="0.25"></path><path id="Path_77091" data-name="Path 77091" d="M18.053,22.539a1.45,1.45,0,0,0-2.055.01l-6.072,6.13a1.452,1.452,0,0,0,0,2.044L16,36.853a1.453,1.453,0,0,0,2.065-2.045L13,29.7l5.059-5.107A1.453,1.453,0,0,0,18.053,22.539Z" fill="#5e5e5e"></path><path id="Path_77092" data-name="Path 77092" d="M18.053,22.539a1.45,1.45,0,0,0-2.055.01l-6.072,6.13a1.452,1.452,0,0,0,0,2.044L16,36.853a1.453,1.453,0,0,0,2.065-2.045L13,29.7l5.059-5.107A1.453,1.453,0,0,0,18.053,22.539Z" fill="none" stroke="#fff" stroke-width="0.25"></path><path id="Path_77093" data-name="Path 77093" d="M29.364,18.433,20.835,39.9a1.453,1.453,0,1,0,2.7,1.073l8.53-21.463a1.453,1.453,0,1,0-2.7-1.073Z" fill="#5e5e5e"></path><path id="Path_77094" data-name="Path 77094" d="M29.364,18.433,20.835,39.9a1.453,1.453,0,1,0,2.7,1.073l8.53-21.463a1.453,1.453,0,1,0-2.7-1.073Z" fill="none" stroke="#fff" stroke-width="0.25"></path><path id="Path_77095" data-name="Path 77095" d="M52.346,45.355a7.716,7.716,0,1,0,7.7,7.716,7.72,7.72,0,0,0-7.7-7.716M53.8,57.648V52.112a1.453,1.453,0,1,0-2.906,0v5.551a4.819,4.819,0,1,1,2.906-.015" fill="#5e5e5e"></path><path id="Path_77096" data-name="Path 77096" d="M52.346,45.355a7.716,7.716,0,1,0,7.7,7.716A7.72,7.72,0,0,0,52.346,45.355ZM53.8,57.648V52.112a1.453,1.453,0,1,0-2.906,0v5.551a4.819,4.819,0,1,1,2.906-.015Z" fill="none" stroke="#fff" stroke-width="0.75"></path><path id="Path_77097" data-name="Path 77097" d="M71.163,48.479l-3.575-.407a15.986,15.986,0,0,0-1.046-2.47l2.093-2.964a1.436,1.436,0,0,0-.146-1.86l-4.17-4.156a1.449,1.449,0,0,0-1.933-.116l-2.8,2.252a15.394,15.394,0,0,0-2.485-1l-.6-3.589a1.453,1.453,0,0,0-1.439-1.206H49.177a1.461,1.461,0,0,0-1.453,1.293l-.392,3.59a15.9,15.9,0,0,0-2.456,1.031L41.9,36.767a1.435,1.435,0,0,0-1.86.16l-4.155,4.156a1.446,1.446,0,0,0-.1,1.933l2.238,2.819a15.317,15.317,0,0,0-1,2.485l-3.575.6a1.479,1.479,0,0,0-1.221,1.439v5.885a1.46,1.46,0,0,0,1.294,1.439l3.574.407a16.256,16.256,0,0,0,1.046,2.47l-2.091,2.95a1.454,1.454,0,0,0,.159,1.874l4.156,4.156a1.446,1.446,0,0,0,1.932.1l2.82-2.238a16.462,16.462,0,0,0,2.47.988l.6,3.589A1.452,1.452,0,0,0,49.613,73.2h1.279v3.211H1.7A1.458,1.458,0,0,0,.25,77.862v9.605A5.8,5.8,0,0,0,6.035,93.25H48a5.8,5.8,0,0,0,5.8-5.783V73.2h1.7A1.461,1.461,0,0,0,56.951,71.9l.407-3.589a16.542,16.542,0,0,0,2.456-1.032l2.964,2.107a1.475,1.475,0,0,0,1.875-.16l4.141-4.17a1.429,1.429,0,0,0,.1-1.919l-2.238-2.819a16.488,16.488,0,0,0,1-2.484l3.575-.611a1.461,1.461,0,0,0,1.22-1.424V49.918A1.438,1.438,0,0,0,71.163,48.479ZM50.892,87.467A2.887,2.887,0,0,1,48,90.344H6.035a2.883,2.883,0,0,1-2.877-2.877V79.315H50.892Zm18.658-32.9-3.284.552a1.462,1.462,0,0,0-1.177,1.1,13.3,13.3,0,0,1-1.41,3.516,1.426,1.426,0,0,0,.117,1.628l2.02,2.557-2.355,2.383L60.73,64.362a1.452,1.452,0,0,0-1.6-.043,12.181,12.181,0,0,1-3.458,1.453,1.472,1.472,0,0,0-1.1,1.249l-.363,3.27H50.834l-.552-3.3a1.428,1.428,0,0,0-1.09-1.162A13.256,13.256,0,0,1,45.7,64.406a1.446,1.446,0,0,0-1.642.116L41.49,66.556l-2.368-2.368L41.04,61.5a1.543,1.543,0,0,0,.058-1.627,12.6,12.6,0,0,1-1.482-3.488,1.426,1.426,0,0,0-1.235-1.075l-3.256-.378V51.589l3.285-.552a1.464,1.464,0,0,0,1.177-1.1,11.967,11.967,0,0,1,1.424-3.488,1.469,1.469,0,0,0-.1-1.656L38.86,42.216l2.369-2.368,2.717,1.933a1.452,1.452,0,0,0,1.6.058,12.6,12.6,0,0,1,3.488-1.468,1.442,1.442,0,0,0,1.075-1.235l.363-3.27h3.372l.552,3.284a1.445,1.445,0,0,0,1.09,1.177,12.261,12.261,0,0,1,3.5,1.424,1.445,1.445,0,0,0,1.642-.116l2.557-2.049,2.369,2.383-1.918,2.7a1.517,1.517,0,0,0-.058,1.613,12.554,12.554,0,0,1,1.467,3.473,1.462,1.462,0,0,0,1.25,1.09l3.255.363Z" fill="#5e5e5e"></path><path id="Path_77098" data-name="Path 77098" d="M71.163,48.479l-3.575-.407a15.986,15.986,0,0,0-1.046-2.47l2.093-2.964a1.436,1.436,0,0,0-.146-1.86l-4.17-4.156a1.449,1.449,0,0,0-1.933-.116l-2.8,2.252a15.394,15.394,0,0,0-2.485-1l-.6-3.589a1.453,1.453,0,0,0-1.439-1.206H49.177a1.461,1.461,0,0,0-1.453,1.293l-.392,3.59a15.9,15.9,0,0,0-2.456,1.031L41.9,36.767a1.435,1.435,0,0,0-1.86.16l-4.155,4.156a1.446,1.446,0,0,0-.1,1.933l2.238,2.819a15.317,15.317,0,0,0-1,2.485l-3.575.6a1.479,1.479,0,0,0-1.221,1.439v5.885a1.46,1.46,0,0,0,1.294,1.439l3.574.407a16.256,16.256,0,0,0,1.046,2.47l-2.091,2.95a1.454,1.454,0,0,0,.159,1.874l4.156,4.156a1.446,1.446,0,0,0,1.932.1l2.82-2.238a16.462,16.462,0,0,0,2.47.988l.6,3.589A1.452,1.452,0,0,0,49.613,73.2h1.279v3.211H1.7A1.458,1.458,0,0,0,.25,77.862v9.605A5.8,5.8,0,0,0,6.035,93.25H48a5.8,5.8,0,0,0,5.8-5.783V73.2h1.7A1.461,1.461,0,0,0,56.951,71.9l.407-3.589a16.542,16.542,0,0,0,2.456-1.032l2.964,2.107a1.475,1.475,0,0,0,1.875-.16l4.141-4.17a1.429,1.429,0,0,0,.1-1.919l-2.238-2.819a16.488,16.488,0,0,0,1-2.484l3.575-.611a1.461,1.461,0,0,0,1.22-1.424V49.918A1.438,1.438,0,0,0,71.163,48.479ZM50.892,87.467A2.887,2.887,0,0,1,48,90.344H6.035a2.883,2.883,0,0,1-2.877-2.877V79.315H50.892Zm18.658-32.9-3.284.552a1.462,1.462,0,0,0-1.177,1.1,13.3,13.3,0,0,1-1.41,3.516,1.426,1.426,0,0,0,.117,1.628l2.02,2.557-2.355,2.383L60.73,64.362a1.452,1.452,0,0,0-1.6-.043,12.181,12.181,0,0,1-3.458,1.453,1.472,1.472,0,0,0-1.1,1.249l-.363,3.27H50.834l-.552-3.3a1.428,1.428,0,0,0-1.09-1.162A13.256,13.256,0,0,1,45.7,64.406a1.446,1.446,0,0,0-1.642.116L41.49,66.556l-2.368-2.368L41.04,61.5a1.543,1.543,0,0,0,.058-1.627,12.6,12.6,0,0,1-1.482-3.488,1.426,1.426,0,0,0-1.235-1.075l-3.256-.378V51.589l3.285-.552a1.464,1.464,0,0,0,1.177-1.1,11.967,11.967,0,0,1,1.424-3.488,1.469,1.469,0,0,0-.1-1.656L38.86,42.216l2.369-2.368,2.717,1.933a1.452,1.452,0,0,0,1.6.058,12.6,12.6,0,0,1,3.488-1.468,1.442,1.442,0,0,0,1.075-1.235l.363-3.27h3.372l.552,3.284a1.445,1.445,0,0,0,1.09,1.177,12.261,12.261,0,0,1,3.5,1.424,1.445,1.445,0,0,0,1.642-.116l2.557-2.049,2.369,2.383-1.918,2.7a1.517,1.517,0,0,0-.058,1.613,12.554,12.554,0,0,1,1.467,3.473,1.462,1.462,0,0,0,1.25,1.09l3.255.363Z" fill="none" stroke="#fff" stroke-width="0.5"></path></g></svg>