<svg xmlns="http://www.w3.org/2000/svg" width="93.25" height="93.108" viewBox="0 0 93.25 93.108"><g id="Page-1" transform="translate(-1429.329 -674.32)"><g id="_022---Coding-Software" data-name="022---Coding-Software"><path id="Shape" d="M1517.8,685.295h-1.55v-6.2a4.65,4.65,0,0,0-4.65-4.65h-71.3a4.65,4.65,0,0,0-4.65,4.65v6.2h-1.55a4.65,4.65,0,0,0-4.65,4.65v57.35a4.65,4.65,0,0,0,4.65,4.65h27.878a10,10,0,0,1-3.543,6.343h-1.085a4.507,4.507,0,1,0,0,9.015h37.2a4.507,4.507,0,0,0,0-9.015h-1.085a10,10,0,0,1-3.544-6.343H1517.8a4.65,4.65,0,0,0,4.65-4.65v-57.35A4.65,4.65,0,0,0,1517.8,685.295Zm-79.05,4.65h74.4v43.4a1.55,1.55,0,0,1-1.55,1.55h-71.3a1.55,1.55,0,0,1-1.55-1.55Zm0-10.85a1.55,1.55,0,0,1,1.55-1.55h71.3a1.55,1.55,0,0,1,1.55,1.55v7.75h-74.4Zm57.492,83.7a1.693,1.693,0,0,1-1.692,1.693h-37.2a1.692,1.692,0,1,1,0-3.385h37.2A1.693,1.693,0,0,1,1496.246,762.795Zm-6.69-4.507h-27.205a14.166,14.166,0,0,0,2.474-6.343h22.258A14.153,14.153,0,0,0,1489.556,758.288Zm28.248-9.443h-83.7a1.55,1.55,0,0,1-1.55-1.55v-3.1h6.2a1.55,1.55,0,0,0,0-3.1h-6.2v-51.15a1.55,1.55,0,0,1,1.55-1.55h1.55v44.95a4.649,4.649,0,0,0,4.65,4.65h71.3a4.65,4.65,0,0,0,4.65-4.65V688.4h1.55a1.55,1.55,0,0,1,1.55,1.55v51.15h-74.4a1.55,1.55,0,0,0,0,3.1h74.4v3.1A1.55,1.55,0,0,1,1517.8,748.845Z" fill="#5e5e5e" stroke="#fff" stroke-width="0.25"></path><circle id="Oval" cx="1.55" cy="1.55" r="1.55" transform="translate(1506.954 680.645)" fill="#5e5e5e" stroke="#fff" stroke-width="0.25"></circle><circle id="Oval-2" data-name="Oval" cx="1.55" cy="1.55" r="1.55" transform="translate(1500.754 680.645)" fill="#5e5e5e" stroke="#fff" stroke-width="0.25"></circle><circle id="Oval-3" data-name="Oval" cx="1.55" cy="1.55" r="1.55" transform="translate(1494.554 680.645)" fill="#5e5e5e" stroke="#fff" stroke-width="0.25"></circle><path id="Shape-2" data-name="Shape" d="M1446.5,680.645h-3.1a1.55,1.55,0,1,0,0,3.1h3.1a1.55,1.55,0,0,0,0-3.1Z" fill="#5e5e5e" stroke="#fff" stroke-width="0.25"></path><path id="Shape-3" data-name="Shape" d="M1451.154,731.795a1.55,1.55,0,0,0,1.55-1.55v-35.65a1.55,1.55,0,1,0-3.1,0v35.65A1.55,1.55,0,0,0,1451.154,731.795Z" fill="#5e5e5e" stroke="#fff" stroke-width="0.25"></path><path id="Shape-4" data-name="Shape" d="M1462.458,704.991a1.55,1.55,0,0,0,2.191-2.191l-3.554-3.555,3.554-3.554a1.549,1.549,0,0,0-2.191-2.191l-4.65,4.65a1.549,1.549,0,0,0,0,2.191Z" fill="#5e5e5e" stroke="#fff" stroke-width="0.25"></path><path id="Shape-5" data-name="Shape" d="M1476.408,704.991a1.549,1.549,0,0,0,2.191,0l4.65-4.65a1.548,1.548,0,0,0,0-2.191l-4.65-4.65a1.55,1.55,0,0,0-2.191,2.191l3.554,3.554-3.554,3.555a1.549,1.549,0,0,0,0,2.191Z" fill="#5e5e5e" stroke="#fff" stroke-width="0.25"></path><path id="Shape-6" data-name="Shape" d="M1467.511,705.29a1.55,1.55,0,0,0,2.08-.694l4.65-9.3a1.551,1.551,0,0,0-2.775-1.386l-4.65,9.3a1.551,1.551,0,0,0,.695,2.08Z" fill="#5e5e5e" stroke="#fff" stroke-width="0.25"></path><path id="Shape-7" data-name="Shape" d="M1458.9,711.645a1.55,1.55,0,0,0,1.55,1.55h29.45a1.55,1.55,0,0,0,0-3.1h-29.45A1.55,1.55,0,0,0,1458.9,711.645Z" fill="#5e5e5e" stroke="#fff" stroke-width="0.25"></path><path id="Shape-8" data-name="Shape" d="M1468.2,719.4h3.1a1.55,1.55,0,1,0,0-3.1h-3.1a1.55,1.55,0,0,0,0,3.1Z" fill="#5e5e5e" stroke="#fff" stroke-width="0.25"></path><path id="Shape-9" data-name="Shape" d="M1475.954,717.845a1.55,1.55,0,0,0,1.55,1.55h20.15a1.55,1.55,0,0,0,0-3.1H1477.5A1.55,1.55,0,0,0,1475.954,717.845Z" fill="#5e5e5e" stroke="#fff" stroke-width="0.25"></path><path id="Shape-10" data-name="Shape" d="M1497.654,722.495H1468.2a1.55,1.55,0,0,0,0,3.1h29.45a1.55,1.55,0,0,0,0-3.1Z" fill="#5e5e5e" stroke="#fff" stroke-width="0.25"></path><path id="Shape-11" data-name="Shape" d="M1466.654,728.7h-6.2a1.55,1.55,0,0,0,0,3.1h6.2a1.55,1.55,0,0,0,0-3.1Z" fill="#5e5e5e" stroke="#fff" stroke-width="0.25"></path><path id="Shape-12" data-name="Shape" d="M1489.9,728.7h-17.05a1.55,1.55,0,1,0,0,3.1h17.05a1.55,1.55,0,0,0,0-3.1Z" fill="#5e5e5e" stroke="#fff" stroke-width="0.25"></path></g></g></svg>