<svg xmlns="http://www.w3.org/2000/svg" xmlns:xlink="http://www.w3.org/1999/xlink" id="Group_60945" data-name="Group 60945" width="93" height="114.188" viewBox="0 0 93 114.188"><defs><clipPath id="clip-path"><rect id="Rectangle_30155" data-name="Rectangle 30155" width="93" height="114.188" fill="none"></rect></clipPath></defs><g id="Group_60944" data-name="Group 60944" clip-path="url(#clip-path)"><path id="Path_77131" data-name="Path 77131" d="M68.868,114.188H24.133A10.3,10.3,0,0,1,13.846,103.9V86.514a1.339,1.339,0,0,1,1.338-1.338H77.807a1.345,1.345,0,0,1,1.339,1.338V103.9a10.29,10.29,0,0,1-10.278,10.286M16.522,87.853V103.9a7.621,7.621,0,0,0,7.611,7.61H68.867a7.62,7.62,0,0,0,7.611-7.61V87.853H16.522ZM77.816,24.292H15.184a1.333,1.333,0,0,1-1.339-1.339V10.287A10.3,10.3,0,0,1,24.133,0H68.867A10.3,10.3,0,0,1,79.154,10.287V22.953a1.338,1.338,0,0,1-1.338,1.339M16.522,21.615H76.469V10.287a7.62,7.62,0,0,0-7.611-7.61H24.133a7.62,7.62,0,0,0-7.61,7.61V21.615Z" fill="#5e5e5e" fill-rule="evenodd"></path><path id="Path_77132" data-name="Path 77132" d="M55.115,12.843H37.887c-1.143,0-2.677-.548-3.531-3.178L31.8,1.756A1.339,1.339,0,0,1,33.073.009H59.92a1.341,1.341,0,0,1,1.273,1.747L58.638,9.665C57.792,12.285,56.258,12.843,55.115,12.843ZM34.913,2.677c.5,1.56,2.033,7.49,2.974,7.49H55.115c.938,0,2.475-5.946,2.973-7.49Z" fill="#5e5e5e" fill-rule="evenodd"></path><path id="Path_77133" data-name="Path 77133" d="M77.816,99.311H15.184a1.338,1.338,0,0,1,0-2.676H77.807a1.338,1.338,0,0,1,.008,2.676Z" fill="#5e5e5e" fill-rule="evenodd"></path><path id="Path_77134" data-name="Path 77134" d="M50.134,109.346H42.867c-5.172,0-5.172-7.861,0-7.861h7.267c5.163,0,5.187,7.861,0,7.861m-7.267-5.194a1.255,1.255,0,0,0,0,2.509h7.267a1.255,1.255,0,0,0,0-2.509Z" fill="#5e5e5e" fill-rule="evenodd"></path><path id="Path_77135" data-name="Path 77135" d="M83.857,87.853H9.144A9.156,9.156,0,0,1,0,78.709V30.759a9.149,9.149,0,0,1,9.144-9.144H83.857A9.148,9.148,0,0,1,93,30.759v47.95a9.148,9.148,0,0,1-9.143,9.144M9.144,24.291a6.473,6.473,0,0,0-6.468,6.468v47.95a6.473,6.473,0,0,0,6.468,6.468H83.857a6.473,6.473,0,0,0,6.468-6.468V30.759a6.473,6.473,0,0,0-6.468-6.468Z" fill="#5e5e5e" fill-rule="evenodd"></path><path id="Path_77136" data-name="Path 77136" d="M91.662,40.135H1.337a1.339,1.339,0,0,1,0-2.677H91.662a1.338,1.338,0,0,1,0,2.676" fill="#5e5e5e" fill-rule="evenodd"></path><path id="Path_77137" data-name="Path 77137" d="M33.648,77.529a1.338,1.338,0,0,1-.948-.39L19.161,63.6a1.347,1.347,0,0,1,0-1.9L32.7,48.174a1.34,1.34,0,0,1,1.9,1.9L22,62.661,34.6,75.253a1.334,1.334,0,0,1-.948,2.277Z" fill="#5e5e5e" fill-rule="evenodd"></path><path id="Path_77138" data-name="Path 77138" d="M59.352,77.529a1.341,1.341,0,0,1-.948-2.286L71,62.651,58.413,50.069a1.341,1.341,0,0,1,1.9-1.9L73.839,61.7a1.346,1.346,0,0,1,0,1.9l-13.53,13.54a1.373,1.373,0,0,1-.958.39Z" fill="#5e5e5e" fill-rule="evenodd"></path><path id="Path_77139" data-name="Path 77139" d="M37.161,80.168A1.341,1.341,0,0,1,36,78.161L54.668,45.822a1.341,1.341,0,0,1,2.323,1.338L38.323,79.5a1.347,1.347,0,0,1-1.162.669" fill="#5e5e5e" fill-rule="evenodd"></path><path id="Path_77140" data-name="Path 77140" d="M62.948,32.218c-1.483,0-3.568.362-3.568-1.338s2.085-1.338,3.568-1.338a1.338,1.338,0,0,1,0,2.676" fill="#5e5e5e" fill-rule="evenodd"></path><path id="Path_77141" data-name="Path 77141" d="M72.427,32.218c-1.483,0-3.568.362-3.568-1.338s2.085-1.338,3.568-1.338a1.338,1.338,0,0,1,0,2.676" fill="#5e5e5e" fill-rule="evenodd"></path><path id="Path_77142" data-name="Path 77142" d="M81.9,32.218c-1.483,0-3.568.362-3.568-1.338s2.085-1.338,3.568-1.338a1.338,1.338,0,0,1,0,2.676" fill="#5e5e5e" fill-rule="evenodd"></path><path id="Path_77143" data-name="Path 77143" d="M43.852,34.336H11.1c-1.89,0-1.338-2.853-1.338-5.584A1.332,1.332,0,0,1,11.1,27.414H43.852c1.891,0,1.338,2.857,1.338,5.594a1.33,1.33,0,0,1-1.338,1.328M12.434,31.66h30.08V30.08H12.434Z" fill="#5e5e5e" fill-rule="evenodd"></path></g></svg>