<svg xmlns="http://www.w3.org/2000/svg" xmlns:xlink="http://www.w3.org/1999/xlink" id="Group_28946" data-name="Group 28946" width="93" height="103.333" viewBox="0 0 93 103.333"><defs><clipPath id="clip-path"><rect id="Rectangle_18242" data-name="Rectangle 18242" width="93" height="103.333" transform="translate(0 0)" fill="none"></rect></clipPath></defs><g id="Group_28945" data-name="Group 28945" clip-path="url(#clip-path)"><path id="Path_57187" data-name="Path 57187" d="M88.438,55.6l-5.745-2.663c-.03-.142-.066-.284-.1-.425a15.491,15.491,0,0,0-5.1-30.122,15.339,15.339,0,0,0-3.451.391c0-.131.007-.261.007-.391A12.049,12.049,0,0,0,55.972,11.953,22.387,22.387,0,0,0,13.778,22.388v.095A15.49,15.49,0,0,0,10.4,52.51c-.031.143-.067.284-.1.425L4.564,55.6a1.718,1.718,0,0,0-.994,1.448c-.072,1.07-.126,2.141-.126,3.231s.054,2.162.124,3.231a1.724,1.724,0,0,0,.994,1.449l5.744,2.66a37.634,37.634,0,0,0,1.174,4.43L7.84,77.214a1.72,1.72,0,0,0-.147,1.734,41.655,41.655,0,0,0,3.252,5.607,1.71,1.71,0,0,0,1.576.741l6.3-.575a38.266,38.266,0,0,0,3.235,3.234l-.574,6.3a1.723,1.723,0,0,0,.741,1.576,41.65,41.65,0,0,0,5.6,3.251,1.726,1.726,0,0,0,1.733-.146L34.729,95.3a37.652,37.652,0,0,0,4.431,1.176l2.657,5.727a1.719,1.719,0,0,0,1.421.99c1.168.1,2.234.143,3.262.143s2.094-.047,3.26-.145a1.723,1.723,0,0,0,1.421-.99l2.657-5.726a37.425,37.425,0,0,0,4.432-1.177l5.166,3.641a1.726,1.726,0,0,0,1.733.146,41.056,41.056,0,0,0,5.606-3.251,1.723,1.723,0,0,0,.74-1.576l-.573-6.3a38.107,38.107,0,0,0,3.234-3.234l6.3.575a1.721,1.721,0,0,0,1.576-.74,41.612,41.612,0,0,0,3.251-5.608,1.718,1.718,0,0,0-.146-1.734l-3.641-5.167a37.774,37.774,0,0,0,1.175-4.429l5.743-2.661a1.718,1.718,0,0,0,.994-1.449c.072-1.067.126-2.139.126-3.229s-.054-2.161-.124-3.231A1.725,1.725,0,0,0,88.438,55.6ZM3.444,37.888a12.063,12.063,0,0,1,12.04-12.053h0a1.776,1.776,0,0,0,1.331-.519,1.717,1.717,0,0,0,.482-1.345c-.041-.523-.079-1.047-.079-1.583A18.942,18.942,0,0,1,53.69,15.2a1.721,1.721,0,0,0,2.714.653,8.6,8.6,0,0,1,13.852,8.964,1.723,1.723,0,0,0,2.353,2.059A12.053,12.053,0,1,1,77.5,49.944H56.833V43.768l2.94-2.94a1.713,1.713,0,0,0,.505-1.217V35.849a5.167,5.167,0,1,0-3.445,0V38.9l-2.94,2.939a1.718,1.718,0,0,0-.5,1.218v6.889H48.222V25.516a5.167,5.167,0,1,0-3.444,0V49.944H39.611V43.055a1.715,1.715,0,0,0-.505-1.218l-4.662-4.662V34.127a5.166,5.166,0,1,0-3.444,0v3.761a1.715,1.715,0,0,0,.5,1.218l4.662,4.662v6.176H15.5A12.071,12.071,0,0,1,3.444,37.888ZM70.611,60.1A24.111,24.111,0,1,1,23.36,53.388H69.64A24.149,24.149,0,0,1,70.611,60.1ZM44.778,20.666A1.722,1.722,0,1,1,46.5,22.388a1.723,1.723,0,0,1-1.722-1.722M56.833,31a1.722,1.722,0,1,1,1.723,1.722A1.725,1.725,0,0,1,56.833,31M31,29.277A1.722,1.722,0,1,1,32.722,31,1.724,1.724,0,0,1,31,29.277M86.056,62.263l-5.611,2.6a1.72,1.72,0,0,0-.971,1.257,34.276,34.276,0,0,1-1.49,5.606,1.719,1.719,0,0,0,.212,1.581l3.558,5.053a38.1,38.1,0,0,1-1.982,3.41l-6.163-.562a1.726,1.726,0,0,0-1.472.605,34.919,34.919,0,0,1-4.1,4.1,1.727,1.727,0,0,0-.6,1.471l.561,6.162a37.4,37.4,0,0,1-3.41,1.98L59.53,91.97a1.718,1.718,0,0,0-1.581-.21,34.215,34.215,0,0,1-5.606,1.489,1.727,1.727,0,0,0-1.257.97l-2.6,5.607a32.394,32.394,0,0,1-3.966,0l-2.6-5.607a1.716,1.716,0,0,0-1.257-.97,34.215,34.215,0,0,1-5.606-1.489,1.725,1.725,0,0,0-1.581.21l-5.054,3.561a38.353,38.353,0,0,1-3.41-1.98l.561-6.162a1.725,1.725,0,0,0-.6-1.471,34.7,34.7,0,0,1-4.1-4.1,1.731,1.731,0,0,0-1.472-.6l-6.163.561a37.956,37.956,0,0,1-1.982-3.41l3.56-5.053a1.729,1.729,0,0,0,.212-1.581,33.839,33.839,0,0,1-1.49-5.6,1.722,1.722,0,0,0-.971-1.258l-5.611-2.6c-.035-.66-.057-1.319-.057-1.988s.022-1.328.055-1.985l5.611-2.6a1.722,1.722,0,0,0,.97-1.255c.07-.388.165-.767.248-1.151a15.4,15.4,0,0,0,1.727.1h4.276a27.556,27.556,0,1,0,53.448,0H77.5a15.856,15.856,0,0,0,1.726-.1c.081.384.177.763.248,1.15a1.729,1.729,0,0,0,.969,1.256l5.611,2.6c.035.656.057,1.316.057,1.984S86.089,61.6,86.056,62.263Z" fill="#5e5e5e"></path><rect id="Rectangle_18239" data-name="Rectangle 18239" width="3.444" height="3.444" transform="translate(37.889 56.833)" fill="#5e5e5e"></rect><rect id="Rectangle_18240" data-name="Rectangle 18240" width="3.444" height="3.444" transform="translate(44.778 56.833)" fill="#5e5e5e"></rect><rect id="Rectangle_18241" data-name="Rectangle 18241" width="3.444" height="3.444" transform="translate(51.667 56.833)" fill="#5e5e5e"></rect></g></svg>