<svg xmlns="http://www.w3.org/2000/svg" xmlns:xlink="http://www.w3.org/1999/xlink" id="Group_60953" data-name="Group 60953" width="93.25" height="96.655" viewBox="0 0 93.25 96.655"><defs><clipPath id="clip-path"><rect id="Rectangle_30159" data-name="Rectangle 30159" width="93.25" height="96.655" transform="translate(0 0)" fill="none"></rect></clipPath></defs><g id="Group_60952" data-name="Group 60952" clip-path="url(#clip-path)"><path id="Path_77160" data-name="Path 77160" d="M7.241,29.483a1.132,1.132,0,0,1-.8-1.93L16.585,17.416a1.132,1.132,0,0,1,1.6,1.6L8.034,29.153a1.111,1.111,0,0,1-.793.329Z" fill="#5e5e5e" fill-rule="evenodd"></path><path id="Path_77161" data-name="Path 77161" d="M7.241,29.483a1.132,1.132,0,0,1-.8-1.93L16.585,17.416a1.132,1.132,0,0,1,1.6,1.6L8.034,29.153a1.111,1.111,0,0,1-.793.329Z" fill="none" stroke="#5e5e5e" stroke-width="0.25"></path><path id="Path_77162" data-name="Path 77162" d="M8.818,39.878a1.132,1.132,0,0,1-.8-1.93L27.639,18.326a1.132,1.132,0,0,1,1.6,1.6L9.618,39.548a1.127,1.127,0,0,1-.8.329Z" fill="#5e5e5e" fill-rule="evenodd"></path><path id="Path_77163" data-name="Path 77163" d="M8.818,39.878a1.132,1.132,0,0,1-.8-1.93L27.639,18.326a1.132,1.132,0,0,1,1.6,1.6L9.618,39.548a1.127,1.127,0,0,1-.8.329Z" fill="none" stroke="#5e5e5e" stroke-width="0.25"></path><path id="Path_77164" data-name="Path 77164" d="M8.81,96.53A8.694,8.694,0,0,1,.125,87.845V8.81A8.694,8.694,0,0,1,8.81.125H46.578A8.693,8.693,0,0,1,55.263,8.81V55.24a1.13,1.13,0,0,1-2.26,0V8.81a6.433,6.433,0,0,0-6.425-6.425H8.81A6.433,6.433,0,0,0,2.385,8.81V87.845A6.433,6.433,0,0,0,8.81,94.27H32.338a1.13,1.13,0,0,1,0,2.26H8.81Z" fill="#5e5e5e" fill-rule="evenodd"></path><path id="Path_77165" data-name="Path 77165" d="M8.81,96.53A8.694,8.694,0,0,1,.125,87.845V8.81A8.694,8.694,0,0,1,8.81.125H46.578A8.693,8.693,0,0,1,55.263,8.81V55.24a1.13,1.13,0,0,1-2.26,0V8.81a6.433,6.433,0,0,0-6.425-6.425H8.81A6.433,6.433,0,0,0,2.385,8.81V87.845A6.433,6.433,0,0,0,8.81,94.27H32.338a1.13,1.13,0,0,1,0,2.26H8.81Z" fill="none" stroke="#5e5e5e" stroke-width="0.25"></path><path id="Path_77166" data-name="Path 77166" d="M34.967,10.968H20.421c-.965,0-2.259-.463-2.981-2.684L15.282,1.608A1.13,1.13,0,0,1,16.357.133H39.023A1.132,1.132,0,0,1,40.1,1.608L37.94,8.284c-.714,2.213-2.016,2.684-2.973,2.684M17.911,2.385c.425,1.317,1.716,6.323,2.51,6.323H34.967c.792,0,2.09-5.019,2.51-6.323Z" fill="#5e5e5e" fill-rule="evenodd"></path><path id="Path_77167" data-name="Path 77167" d="M34.967,10.968H20.421c-.965,0-2.259-.463-2.981-2.684L15.282,1.608A1.13,1.13,0,0,1,16.357.133H39.023A1.132,1.132,0,0,1,40.1,1.608L37.94,8.284C37.226,10.5,35.924,10.968,34.967,10.968ZM17.911,2.385c.425,1.317,1.716,6.323,2.51,6.323H34.967c.792,0,2.09-5.019,2.51-6.323Z" fill="none" stroke="#5e5e5e" stroke-width="0.25"></path><path id="Path_77168" data-name="Path 77168" d="M18.319,83.969H1.255a1.13,1.13,0,0,1,0-2.26H18.319a1.13,1.13,0,0,1,0,2.26" fill="#5e5e5e" fill-rule="evenodd"></path><path id="Path_77169" data-name="Path 77169" d="M18.319,83.969H1.255a1.13,1.13,0,0,1,0-2.26H18.319A1.13,1.13,0,0,1,18.319,83.969Z" fill="none" stroke="#5e5e5e" stroke-width="0.25"></path><path id="Path_77170" data-name="Path 77170" d="M75.888,96.53H61.61c-3.3,0-6.073-2.3-7.524-5.178-1.122,2.5-3.3,5.178-7.453,5.178H32.362A12.379,12.379,0,0,1,20,84.166v-17.7A12.379,12.379,0,0,1,32.362,54.1H75.888A12.379,12.379,0,0,1,88.253,66.466v17.7A12.379,12.379,0,0,1,75.888,96.53M54.125,85.955a1.13,1.13,0,0,1,1.13,1.114c.047,3.334,2.832,7.2,6.355,7.2H75.888a10.118,10.118,0,0,0,10.1-10.105v-17.7a10.118,10.118,0,0,0-10.1-10.105H32.362a10.118,10.118,0,0,0-10.1,10.1v17.7a10.119,10.119,0,0,0,10.1,10.105H46.633c5.57,0,6.331-7,6.362-7.3A1.15,1.15,0,0,1,54.125,85.955Z" fill="#5e5e5e" fill-rule="evenodd"></path><path id="Path_77171" data-name="Path 77171" d="M75.888,96.53H61.61c-3.3,0-6.073-2.3-7.524-5.178-1.122,2.5-3.3,5.178-7.453,5.178H32.362A12.379,12.379,0,0,1,20,84.166v-17.7A12.379,12.379,0,0,1,32.362,54.1H75.888A12.379,12.379,0,0,1,88.253,66.466v17.7A12.379,12.379,0,0,1,75.888,96.53ZM54.125,85.955a1.13,1.13,0,0,1,1.13,1.114c.047,3.334,2.832,7.2,6.355,7.2H75.888a10.118,10.118,0,0,0,10.1-10.105v-17.7a10.118,10.118,0,0,0-10.1-10.105H32.362a10.118,10.118,0,0,0-10.1,10.1v17.7a10.119,10.119,0,0,0,10.1,10.105H46.633c5.57,0,6.331-7,6.362-7.3A1.15,1.15,0,0,1,54.125,85.955Z" fill="none" stroke="#5e5e5e" stroke-width="0.25"></path><path id="Path_77172" data-name="Path 77172" d="M21.136,84.864a6.007,6.007,0,0,1-6-6v-7.1c0-5.476,7.132-7.536,7.132-4.872V83.726a1.132,1.132,0,0,1-1.13,1.137ZM20.006,68.2a3.747,3.747,0,0,0-2.612,3.57v7.1a3.738,3.738,0,0,0,2.612,3.562Z" fill="#5e5e5e" fill-rule="evenodd"></path><path id="Path_77173" data-name="Path 77173" d="M21.136,84.864a6.007,6.007,0,0,1-6-6v-7.1c0-5.476,7.132-7.536,7.132-4.872V83.726a1.132,1.132,0,0,1-1.13,1.137ZM20.006,68.2a3.747,3.747,0,0,0-2.612,3.57v7.1a3.738,3.738,0,0,0,2.612,3.562Z" fill="none" stroke="#5e5e5e" stroke-width="0.25"></path><path id="Path_77174" data-name="Path 77174" d="M87.123,84.864a1.135,1.135,0,0,1-1.13-1.13V66.9c0-2.661,7.132-.607,7.132,4.872v7.1a6.005,6.005,0,0,1-6,5.994M88.253,68.2V82.432a3.745,3.745,0,0,0,2.612-3.562v-7.1A3.747,3.747,0,0,0,88.253,68.2Z" fill="#5e5e5e" fill-rule="evenodd"></path><path id="Path_77175" data-name="Path 77175" d="M87.123,84.864a1.135,1.135,0,0,1-1.13-1.13V66.9c0-2.661,7.132-.607,7.132,4.872v7.1A6.005,6.005,0,0,1,87.123,84.864ZM88.253,68.2V82.432a3.745,3.745,0,0,0,2.612-3.562v-7.1A3.747,3.747,0,0,0,88.253,68.2Z" fill="none" stroke="#5e5e5e" stroke-width="0.25"></path><path id="Path_77176" data-name="Path 77176" d="M37.689,82.824a1.114,1.114,0,0,1-1.035-.682L31.185,69.385a1.13,1.13,0,0,1,2.079-.886l4.425,10.332L42.114,68.5a1.13,1.13,0,0,1,2.079.886L38.724,82.142A1.114,1.114,0,0,1,37.689,82.824Z" fill="#5e5e5e" fill-rule="evenodd"></path><path id="Path_77177" data-name="Path 77177" d="M37.689,82.824a1.114,1.114,0,0,1-1.035-.682L31.185,69.385a1.13,1.13,0,0,1,2.079-.886l4.425,10.332L42.114,68.5a1.13,1.13,0,0,1,2.079.886L38.724,82.142A1.114,1.114,0,0,1,37.689,82.824Z" fill="none" stroke="#5e5e5e" stroke-width="0.25"></path><path id="Path_77178" data-name="Path 77178" d="M68.553,82.848a1.135,1.135,0,0,1-1.13-1.13v-12.8a1.13,1.13,0,0,1,2.26,0v12.8a1.13,1.13,0,0,1-1.13,1.13" fill="#5e5e5e" fill-rule="evenodd"></path><path id="Path_77179" data-name="Path 77179" d="M68.553,82.848a1.135,1.135,0,0,1-1.13-1.13v-12.8a1.13,1.13,0,0,1,2.26,0v12.8A1.13,1.13,0,0,1,68.553,82.848Z" fill="none" stroke="#5e5e5e" stroke-width="0.25"></path><path id="Path_77180" data-name="Path 77180" d="M72.923,76.273H68.554a1.135,1.135,0,0,1-1.13-1.13V68.921a1.135,1.135,0,0,1,1.13-1.129h4.369c5.582,0,5.593,8.481,0,8.481m-3.24-2.26c2.154,0,5.217.528,5.217-1.977s-3.065-1.985-5.217-1.985Z" fill="#5e5e5e" fill-rule="evenodd"></path><path id="Path_77181" data-name="Path 77181" d="M72.923,76.273H68.554a1.135,1.135,0,0,1-1.13-1.13V68.921a1.135,1.135,0,0,1,1.13-1.129h4.369C78.5,67.792,78.516,76.273,72.923,76.273Zm-3.24-2.26c2.154,0,5.217.528,5.217-1.977s-3.065-1.985-5.217-1.985Z" fill="none" stroke="#5e5e5e" stroke-width="0.25"></path><path id="Path_77182" data-name="Path 77182" d="M74.8,82.848a1.131,1.131,0,0,1-.926-.478l-4.621-6.575a1.132,1.132,0,0,1,1.851-1.3l4.621,6.574a1.133,1.133,0,0,1-.925,1.781" fill="#5e5e5e" fill-rule="evenodd"></path><path id="Path_77183" data-name="Path 77183" d="M74.8,82.848a1.131,1.131,0,0,1-.926-.478l-4.621-6.575a1.132,1.132,0,0,1,1.851-1.3l4.621,6.574A1.133,1.133,0,0,1,74.8,82.848Z" fill="none" stroke="#5e5e5e" stroke-width="0.25"></path></g></svg>