<svg xmlns="http://www.w3.org/2000/svg" xmlns:xlink="http://www.w3.org/1999/xlink" width="93" height="93" viewBox="0 0 93 93"><defs><clipPath id="clip-path"><rect id="Rectangle_18640" data-name="Rectangle 18640" width="93" height="93" transform="translate(0 0)" fill="none"></rect></clipPath></defs><g id="Group_29656" data-name="Group 29656" transform="translate(0 0)"><g id="Group_29655" data-name="Group 29655" clip-path="url(#clip-path)"><path id="Path_59120" data-name="Path 59120" d="M17.047,0A4.669,4.669,0,0,0,12.4,4.647v49.6a1.552,1.552,0,0,0,3.1,0V15.507H77.494v38.74a1.55,1.55,0,1,0,3.1,0V4.647A4.666,4.666,0,0,0,75.95,0Zm0,3.1h58.9a1.5,1.5,0,0,1,1.544,1.543V12.4H15.5V4.647A1.5,1.5,0,0,1,17.047,3.1m3.1,3.1A1.55,1.55,0,1,0,21.7,7.75,1.55,1.55,0,0,0,20.15,6.2m6.2,0A1.55,1.55,0,1,0,27.9,7.75,1.55,1.55,0,0,0,26.35,6.2m6.2,0A1.55,1.55,0,1,0,34.1,7.75,1.55,1.55,0,0,0,32.55,6.2m21.621,0a1.55,1.55,0,0,0,.073,3.1H72.85a1.55,1.55,0,0,0,0-3.1ZM4.656,9.3A4.675,4.675,0,0,0,0,13.948v55.8A4.677,4.677,0,0,0,4.656,74.4h83.7A4.67,4.67,0,0,0,93,69.75v-55.8A4.667,4.667,0,0,0,88.353,9.3h-3.1a1.55,1.55,0,1,0,0,3.1h3.1A1.5,1.5,0,0,1,89.9,13.948V58.9H3.1V13.948A1.515,1.515,0,0,1,4.656,12.4H7.744a1.55,1.55,0,1,0,0-3.1ZM51.168,21.676a1.55,1.55,0,0,0-1.489,1.086l-9.3,27.9a1.551,1.551,0,1,0,2.942.983l9.3-27.905a1.551,1.551,0,0,0-1.453-2.062m6.739,8.962L65.778,37.2,57.907,43.76A1.551,1.551,0,1,0,59.9,46.139l9.291-7.746a1.55,1.55,0,0,0,0-2.379L59.9,28.255a1.585,1.585,0,0,0-1.075-.37A1.555,1.555,0,0,0,57.907,30.638ZM34.061,27.889a1.547,1.547,0,0,0-.951.366l-9.3,7.759a1.548,1.548,0,0,0,0,2.378l9.3,7.747a1.55,1.55,0,1,0,1.98-2.379L27.219,37.2l7.871-6.567A1.549,1.549,0,0,0,34.061,27.889ZM3.1,62.006H89.9V69.75a1.5,1.5,0,0,1-1.544,1.544H4.656A1.514,1.514,0,0,1,3.1,69.75Zm46.585,3.1-6.361,0a1.547,1.547,0,0,0,.073,3.088h6.2A1.548,1.548,0,1,0,49.685,65.1ZM37.805,77.376a1.554,1.554,0,0,0-1.447.914A16.057,16.057,0,0,1,31.966,83.7H29.45a4.677,4.677,0,0,0-4.644,4.659v3.088A1.55,1.55,0,0,0,26.35,93h40.3A1.55,1.55,0,0,0,68.2,91.444V88.356A4.688,4.688,0,0,0,63.547,83.7H61.034a16.047,16.047,0,0,1-4.392-5.407,1.551,1.551,0,1,0-2.81,1.311,17.515,17.515,0,0,0,2.77,4.1H36.4a17.546,17.546,0,0,0,2.77-4.1,1.55,1.55,0,0,0-1.363-2.225M29.45,86.8h34.1A1.524,1.524,0,0,1,65.1,88.356V89.9h-37.2V88.356A1.514,1.514,0,0,1,29.45,86.8Z" fill="#5e5e5e"></path></g></g></svg>