<svg xmlns="http://www.w3.org/2000/svg" width="218.88" height="166.86" viewBox="0 0 218.88 166.86">
  <g id="Group_91768" data-name="Group 91768" transform="translate(-749 -10604)">
    <rect id="Rectangle_35595" data-name="Rectangle 35595" width="218.88" height="166.86" transform="translate(749 10604)" fill="none"/>
    <g id="Custom-Preset-4-Copy-5" transform="translate(731.343 10390.96)">
      <path id="Alpine.js" d="M264.057,303.019l.842-3.2h5.343l.842,3.2h3.889L270.046,284.8h-4.7l-5.216,18.214Zm5.343-6.42h-3.565l1.812-6.664Zm11.632,6.42v-18.73h-3.692v18.73Zm7.616,6.488v-7.051l.011.012a2.8,2.8,0,0,0,.372.339l.066.049a3.542,3.542,0,0,0,2.1.6,4.794,4.794,0,0,0,2.706-.841,6.013,6.013,0,0,0,2.042-2.43,8.655,8.655,0,0,0,.779-3.841,8.8,8.8,0,0,0-.767-3.855,6.063,6.063,0,0,0-1.991-2.43,4.486,4.486,0,0,0-2.585-.842,3.4,3.4,0,0,0-1.939.618,3.726,3.726,0,0,0-1.13,1.28l-.046.082-.3-1.545h-3.012v19.857Zm1.962-10.017a2.12,2.12,0,0,1-.981-.231,1.838,1.838,0,0,1-.715-.638,1.7,1.7,0,0,1-.265-.95h0v-2.292a2.721,2.721,0,0,1,.225-1.065l.033-.071a1.937,1.937,0,0,1,.721-.807,1.958,1.958,0,0,1,1.05-.285,2.028,2.028,0,0,1,1.252.394,2.524,2.524,0,0,1,.814,1.113,4.507,4.507,0,0,1,.288,1.683,3.751,3.751,0,0,1-.387,1.832,2.5,2.5,0,0,1-.946,1A2.234,2.234,0,0,1,290.609,299.49Zm11.251-11.564a2.087,2.087,0,0,0,1.6-.631,2.52,2.52,0,0,0,.588-1.785,2.632,2.632,0,0,0-.588-1.8,2.271,2.271,0,0,0-3.225,0,2.683,2.683,0,0,0-.571,1.8,2.568,2.568,0,0,0,.571,1.785A2.076,2.076,0,0,0,301.86,287.926Zm1.846,15.093v-13.45h-3.693v13.45Zm7.939,0v-5.771a7.826,7.826,0,0,1,.288-2.239l.028-.086a2.847,2.847,0,0,1,.848-1.35,1.835,1.835,0,0,1,1.166-.421,1.354,1.354,0,0,1,1.062.509,2.36,2.36,0,0,1,.438,1.568h0v7.791h3.716v-7.791a10.108,10.108,0,0,0-.438-3.108,4.486,4.486,0,0,0-1.367-2.131,3.616,3.616,0,0,0-2.394-.774,3.481,3.481,0,0,0-2.291.842,4.506,4.506,0,0,0-1.089,1.416l-.032.062-.374-1.886h-3.254v13.369Zm15.705.434a5.051,5.051,0,0,0,2.487-.6,4.947,4.947,0,0,0,1.754-1.615,5.384,5.384,0,0,0,.848-2.267h-3.67a1.292,1.292,0,0,1-.531.774,1.609,1.609,0,0,1-.888.244,1.544,1.544,0,0,1-1.033-.346,2.1,2.1,0,0,1-.617-.97,4.7,4.7,0,0,1-.208-1.479v.027h6.831a9.05,9.05,0,0,0,.106-2.8l-.02-.151a7.135,7.135,0,0,0-.854-2.572,5.1,5.1,0,0,0-1.714-1.812,4.561,4.561,0,0,0-2.492-.672,4.766,4.766,0,0,0-2.7.842,6,6,0,0,0-2.031,2.423,8.562,8.562,0,0,0-.773,3.794,8.729,8.729,0,0,0,.779,3.827,6.211,6.211,0,0,0,2.037,2.484A4.645,4.645,0,0,0,327.351,303.453Zm1.754-8.429h-3.6v0a4.013,4.013,0,0,1,.189-.99l.03-.086a2.115,2.115,0,0,1,.669-.964,1.629,1.629,0,0,1,1.021-.332,1.429,1.429,0,0,1,.871.251,1.632,1.632,0,0,1,.525.665,3.22,3.22,0,0,1,.248.9q.032.244.039.485Zm7.258,8.239a2.35,2.35,0,0,0,1.811-.781,2.828,2.828,0,0,0,.716-1.988,2.9,2.9,0,0,0-.716-2.009,2.324,2.324,0,0,0-1.811-.8,2.238,2.238,0,0,0-1.783.8,2.977,2.977,0,0,0-.687,2.009,2.905,2.905,0,0,0,.687,1.982A2.255,2.255,0,0,0,336.363,303.263Zm7.051-15.337a2.087,2.087,0,0,0,1.6-.631,2.519,2.519,0,0,0,.589-1.785,2.631,2.631,0,0,0-.589-1.8,2.023,2.023,0,0,0-1.6-.672,2.059,2.059,0,0,0-1.616.672,2.6,2.6,0,0,0-.6,1.8,2.489,2.489,0,0,0,.6,1.785A2.125,2.125,0,0,0,343.414,287.926Zm-2.2,22.055a3.686,3.686,0,0,0,3.058-1.3,7.105,7.105,0,0,0,1.039-4.377h0V289.6H341.59v14.631a2.451,2.451,0,0,1-.352,1.561,1.36,1.36,0,0,1-1.068.394,4.276,4.276,0,0,1-1.2-.19,8.212,8.212,0,0,1-1.142-.421h0V309.3q.8.258,1.581.468A6.982,6.982,0,0,0,341.21,309.982Zm12.728-6.528a5.211,5.211,0,0,0,2.562-.624,4.928,4.928,0,0,0,1.783-1.622,3.794,3.794,0,0,0,.652-2.111,3.1,3.1,0,0,0-.669-2.036,5.124,5.124,0,0,0-1.835-1.357h0l-3.139-1.479q-.727-.3-.727-.814a.7.7,0,0,1,.346-.611,1.688,1.688,0,0,1,.946-.231,1.41,1.41,0,0,1,1.038.319,1.042,1.042,0,0,1,.312.753h3.381a4.391,4.391,0,0,0-1.235-3.176,4.675,4.675,0,0,0-3.5-1.249,6.018,6.018,0,0,0-3.82,1.1,3.489,3.489,0,0,0-1.4,2.877,3.614,3.614,0,0,0,.664,2.178,4.945,4.945,0,0,0,1.887,1.513h0l2.758,1.262a2.343,2.343,0,0,1,.646.407.725.725,0,0,1,.208.543.851.851,0,0,1-.15.482,1.041,1.041,0,0,1-.45.36,1.852,1.852,0,0,1-.762.136,2.3,2.3,0,0,1-1.206-.271,1.1,1.1,0,0,1-.467-.977h-3.335a4.433,4.433,0,0,0,.687,2.585,4.21,4.21,0,0,0,1.944,1.534A7.554,7.554,0,0,0,353.937,303.453Z" transform="translate(-156.277 0)" fill="#2d3441"/>
      <g id="Group-4" transform="translate(52.657 283.598)">
        <path id="Path" d="M162.176,285.3l9.839,9.8-9.839,9.8-9.839-9.8Z" transform="translate(-127.738 -285.303)" fill="#77c1d2" fill-rule="evenodd"/>
        <path id="Path-2" data-name="Path" d="M62.5,285.3l20.4,20.309H63.215L52.657,295.1Z" transform="translate(-52.657 -285.303)" fill="#2d3441" fill-rule="evenodd"/>
      </g>
    </g>
  </g>
</svg>
