<svg xmlns="http://www.w3.org/2000/svg" width="218.878" height="166.858" viewBox="0 0 218.878 166.858">
  <g id="Group_110186" data-name="Group 110186" transform="translate(-9078.525 2085.477)">
    <rect id="Rectangle_30157" data-name="Rectangle 30157" width="218.878" height="166.858" transform="translate(9078.525 -2085.477)" fill="none"/>
    <g id="Page-1" transform="translate(9103.483 -2034.531)">
      <g id="Ember-Logos" transform="translate(0.042 0.054)">
        <g id="Ember-Logo" transform="translate(0 0)">
          <path id="Fill-7" d="M165.123,44.664s-4.086,3.17-7.683,2.816-2.467-8.391-2.467-8.391.776-7.371-1.343-7.99-4.721,1.921-4.721,1.921a26.54,26.54,0,0,0-4.794,8.183l-.427.141s.494-8.042-.068-9.874c-.422-.916-4.3-.843-4.935.776s-3.737,12.9-3.951,17.63c0,0-6.064,5.148-11.348,5.991s-6.559-2.467-6.559-2.467,14.382-4.019,13.888-15.512-11.6-7.241-12.852-6.3c-1.218.916-7.709,4.831-9.6,15.673-.062.364-.177,1.978-.177,1.978s-5.57,3.732-8.672,4.721c0,0,8.672-14.6-1.9-21.222-2.974-1.79-5.565-.143-7.107,1.369-.947.928,12.817-14.127,9.642-27.6C98.537.1,95.33-.591,92.389.45c-4.466,1.759-6.158,4.367-6.158,4.367a49.263,49.263,0,0,0-7.126,20.873c-1.338,12.477-3.311,27.567-3.311,27.567s-2.754,2.681-5.289,2.821S69.1,48.531,69.1,48.531s1.973-11.7,1.837-13.68-.286-3.029-2.613-3.732-4.867,2.254-4.867,2.254-6.694,10.15-7.256,11.7l-.359.64-.349-.427s4.721-13.82.213-14.028-7.475,4.935-7.475,4.935-5.148,8.6-5.361,9.588l-.349-.422s2.113-10.01,1.692-12.482a2.263,2.263,0,0,0-2.748-1.973s-2.962-.354-3.737,1.551A139.775,139.775,0,0,0,33.772,51s-7.4,5.289-12.269,5.356-4.367-3.082-4.367-3.082,17.839-6.106,12.972-18.161c-2.186-3.1-4.721-4.076-8.318-4.008s-8.058,2.264-10.947,8.75A28.77,28.77,0,0,0,8.672,48.1s-3.118.64-4.81-.77-2.566,0-2.566,0-2.9,3.706-.016,4.831a37.089,37.089,0,0,0,7.4,1.655,13.5,13.5,0,0,0,5.143,8c5.289,4.018,15.434-.37,15.434-.37l4.159-2.332s.141,3.816,3.175,4.372,4.3-.01,9.588-12.841c3.1-6.559,3.316-6.2,3.316-6.2.349-.073-2.046,12.477-1.13,15.861S53.3,63.341,53.3,63.341s2.186.422,3.951-5.783A90.346,90.346,0,0,1,62.4,44.513c.416,0-1.062,12.831,1.192,16.922S71.7,62.81,71.7,62.81a41.109,41.109,0,0,0,4.726-2.7,16.611,16.611,0,0,0,11.7,3.383c15.3-3.014,20.748-7.084,20.748-7.084a12.636,12.636,0,0,0,10.775,7.282,17.9,17.9,0,0,0,14.382-5.148s-.073,3.805,3.17,5.148,5.429-6.194,5.429-6.194l5.429-14.96c.495,0,.776,9.729,6.137,11.28s12.337-3.633,12.337-3.633,1.692-.932,1.411-3.753A1.931,1.931,0,0,0,165.123,44.664ZM23.9,37.606c1.9,1.832,1.2,5.778-2.4,8.245s-5.216,1.978-5.216,1.978C16.5,39.438,22,35.768,23.9,37.606ZM94.055,8.628c1.2,6.345-10.5,25.241-10.5,25.241.141-4.232,4.3-18.541,4.3-18.541S92.853,2.282,94.055,8.628ZM82.489,56.782s-.916-3.1,1.692-11.774,8.745-5.289,8.745-5.289,4.232,3.243.916,11.915S82.489,56.782,82.489,56.782Zm35.677-16.99c2.889-5.289,5.148-2.4,5.148-2.4s2.467,2.681-.354,6.7a8.305,8.305,0,0,1-6.907,3.737S115.277,45.075,118.166,39.792Z" transform="translate(-0.001 -0.054)" fill="#e04e39" fill-rule="evenodd"/>
          <path id="Fill-8" d="M224.386,92.345V91.332h.642c.089,0,.178.009.272.019a1.032,1.032,0,0,1,.258.07.442.442,0,0,1,.187.141.375.375,0,0,1,.075.248c0,.234-.07.384-.211.445a1.388,1.388,0,0,1-.544.089Zm-.764-1.608V94.59h.764V92.945h.478l.937,1.645h.8l-1.031-1.683a1.82,1.82,0,0,0,.4-.084.932.932,0,0,0,.319-.183.782.782,0,0,0,.215-.309,1.106,1.106,0,0,0,.08-.455.976.976,0,0,0-.389-.881,2.034,2.034,0,0,0-1.12-.258ZM222.4,92.668a2.8,2.8,0,0,1,.2-1.083,2.634,2.634,0,0,1,.553-.848,2.507,2.507,0,0,1,.82-.562,2.557,2.557,0,0,1,1.017-.2,2.544,2.544,0,0,1,1.833.764,2.724,2.724,0,0,1,.558.848,2.8,2.8,0,0,1,.206,1.083,2.843,2.843,0,0,1-.206,1.087,2.769,2.769,0,0,1-.558.858,2.468,2.468,0,0,1-.825.567,2.513,2.513,0,0,1-1.008.2,2.556,2.556,0,0,1-1.017-.2,2.45,2.45,0,0,1-.82-.567,2.678,2.678,0,0,1-.553-.858A2.841,2.841,0,0,1,222.4,92.668Zm-.942,0a3.35,3.35,0,0,0,1.069,2.512,3.433,3.433,0,0,0,1.13.689,3.866,3.866,0,0,0,2.677,0,3.332,3.332,0,0,0,1.908-1.777,3.674,3.674,0,0,0,0-2.841,3.341,3.341,0,0,0-.778-1.083,3.446,3.446,0,0,0-1.13-.689,3.8,3.8,0,0,0-2.677,0,3.432,3.432,0,0,0-1.13.689,3.341,3.341,0,0,0-.778,1.083A3.386,3.386,0,0,0,221.456,92.668Z" transform="translate(-77.363 -31.209)" fill="#e04e39" fill-rule="evenodd"/>
        </g>
      </g>
    </g>
  </g>
</svg>
