<svg xmlns="http://www.w3.org/2000/svg" width="218.878" height="166.858" viewBox="0 0 218.878 166.858">
  <g id="Group_61791" data-name="Group 61791" transform="translate(-385 -8206)">
    <rect id="Rectangle_30117" data-name="Rectangle 30117" width="218.878" height="166.858" transform="translate(385 8206)" fill="none"/>
    <g id="Layer_2" data-name="Layer 2" transform="translate(420 8224.063)">
      <g id="svg8" transform="translate(0 -0.063)">
        <g id="layer1">
          <g id="g80302" transform="translate(0 97.573)">
            <path id="path825" d="M10.451,721.842C5.3,721.842,0,725.972,0,733.2c0,6.607,4.659,11.274,10.451,11.274a8.4,8.4,0,0,0,6.913-3.21v1.4a1.476,1.476,0,0,0,1.4,1.4H22.22v-21.73H17.365v2.757a8.414,8.414,0,0,0-6.913-3.25Zm.865,4.442c4.243,0,6.467,3.73,6.467,6.913a6.7,6.7,0,0,1-6.458,6.91c-3.189,0-6.38-2.582-6.38-6.957,0-3.943,2.744-6.865,6.371-6.865Z" transform="translate(0 -711.227)"/>
            <path id="path829" d="M185.356,744.036a1.359,1.359,0,0,1-1.4-1.4V722.311h4.856V725a7.587,7.587,0,0,1,6.549-3.189,8.114,8.114,0,0,1,8.265,8.319v13.909h-3.373a1.487,1.487,0,0,1-1.481-1.481V731.2c0-2.228-1.365-4.935-4.523-4.935-3.406,0-5.436,3.219-5.436,6.251v11.521Z" transform="translate(-156.388 -711.201)"/>
            <path id="path833" d="M350.381,663.029c-5.152,0-10.451,4.129-10.451,11.357,0,6.608,4.659,11.274,10.451,11.274a8.4,8.4,0,0,0,6.913-3.21v1.4a1.476,1.476,0,0,0,1.4,1.4h3.456V652.66h-4.856v13.619A8.414,8.414,0,0,0,350.381,663.029Zm.865,4.442c4.243,0,6.467,3.73,6.467,6.913a6.7,6.7,0,0,1-6.458,6.91c-3.191,0-6.386-2.584-6.386-6.957,0-3.943,2.75-6.865,6.377-6.865Z" transform="translate(-288.987 -652.414)"/>
            <path id="path835" d="M525.276,745.473a1.359,1.359,0,0,1-1.4-1.4V723.747h4.856v3.621a5.984,5.984,0,0,1,5.845-3.868,10.135,10.135,0,0,1,1.728.165v5.02a6.987,6.987,0,0,0-2.3-.412c-3.406,0-5.268,3.219-5.268,6.251v10.949Z" transform="translate(-445.367 -712.638)"/>
            <path id="path837" d="M795.456,746.876a1.359,1.359,0,0,1-1.4-1.4V725.15h4.856v21.73Z" transform="translate(-675.057 -714.041)"/>
            <path id="path839" d="M862.181,663.029c-5.154,0-10.451,4.129-10.451,11.357,0,6.608,4.659,11.274,10.451,11.274a8.4,8.4,0,0,0,6.913-3.21v1.4a1.476,1.476,0,0,0,1.4,1.4h3.456V652.66h-4.855v13.619A8.414,8.414,0,0,0,862.181,663.029Zm.865,4.442c4.243,0,6.467,3.73,6.467,6.913a6.7,6.7,0,0,1-6.458,6.91c-3.191,0-6.386-2.584-6.386-6.957,0-3.943,2.744-6.865,6.377-6.865Z" transform="translate(-724.088 -652.414)"/>
            <circle id="path841" cx="3.212" cy="3.212" r="3.212" transform="translate(118.178)"/>
            <path id="path843" d="M628.015,721.81a11.184,11.184,0,0,0-11.325,11.325A11.058,11.058,0,0,0,628,744.45a11.321,11.321,0,1,0,.012-22.64Zm.018,4.535a6.558,6.558,0,0,1,6.516,6.805,6.508,6.508,0,1,1-13,.066,6.545,6.545,0,0,1,6.487-6.87Z" transform="translate(-524.271 -711.201)"/>
          </g>
          <path id="path80319" d="M112.016,25.249l12.43-21.52a2.524,2.524,0,0,0-.913-3.447,2.491,2.491,0,0,0-3.433.92L107.512,23a76.772,76.772,0,0,0-32.036-6.831A76.739,76.739,0,0,0,43.446,23L30.857,1.2a2.516,2.516,0,0,0-4.346,2.527l12.424,21.52A74.168,74.168,0,0,0,.6,83.925H150.362A74.155,74.155,0,0,0,112.016,25.249ZM41.1,62.889a6.276,6.276,0,1,1,6.276-6.276A6.276,6.276,0,0,1,41.1,62.889Zm68.751,0a6.276,6.276,0,1,1,6.276-6.276,6.276,6.276,0,0,1-6.276,6.276Z" transform="translate(-0.51 0.063)" fill="#32de84"/>
        </g>
      </g>
    </g>
  </g>
</svg>
