<svg xmlns="http://www.w3.org/2000/svg" width="218.878" height="166.858" viewBox="0 0 218.878 166.858">
  <g id="Group_110182" data-name="Group 110182" transform="translate(-9773.525 2286.477)">
    <rect id="Rectangle_30115" data-name="Rectangle 30115" width="218.878" height="166.858" transform="translate(9773.525 -2286.477)" fill="none"/>
    <g id="Layer_2" data-name="Layer 2" transform="translate(9779.525 -2231.477)">
      <g id="Layer_1" data-name="Layer 1">
        <path id="Path_78671" data-name="Path 78671" d="M735.35,182.6V157.2h3.266l15.522,20.44V157.2h3.1v25.4h-3.266l-15.522-20.641V182.6Zm47.169-1.008a18.85,18.85,0,0,1-6.612,1.169q-13.788,0-13.788-13.224,0-12.518,13.3-12.538a23.556,23.556,0,0,1,7.1,1.049v2.822a18.452,18.452,0,0,0-6.732-1.25c-6.936,0-10.4,3.3-10.4,9.837,0,7.055,3.427,10.563,10.238,10.563a18.043,18.043,0,0,0,3.629-.443v-8.5h3.266v10.517Zm5.241-8.789V157.2h3.266v15.6c0,4.878,2.419,7.338,7.3,7.338,4.838,0,7.3-2.46,7.3-7.338V157.2h3.267v15.6c0,6.652-3.507,10-10.563,10s-10.564-3.349-10.564-10ZM818,157.2V179.94h13.3V182.6H814.731V157.2Zm18.021,25.4H832.59l12.618-28.744L857.827,182.6H854.2l-3.266-7.982h-8.385l.887-2.669h6.41l-4.757-11.49Zm25.318,0V157.2H872.18c4.838,0,7.257,2.015,7.257,6.088,0,3.3-2.379,5.765-7.1,7.338l8.708,11.977h-4.314l-8.062-11.413v-2.137c4.838-.766,7.3-2.621,7.3-5.6,0-2.338-1.33-3.507-4.032-3.507h-7.257V182.6Z" transform="translate(-674.636 -141.156)" fill="#b52e31"/>
        <path id="Path_78672" data-name="Path 78672" d="M0,9.272,26,0,52.691,9.111,48.377,43.5,26,55.876,3.991,43.661Z" fill="#e23237"/>
        <path id="Path_78673" data-name="Path 78673" d="M341.628,9.111,314.94,0V55.877L337.315,43.5l4.314-34.388Z" transform="translate(-288.937)" fill="#b52e31"/>
        <path id="Path_78674" data-name="Path 78674" d="M135.347,79.1,119.14,115.141l6.047-.121,3.265-8.143h14.474l3.55,8.224,5.761.121Zm.04,11.571,5.483,11.449H130.589Z" transform="translate(-109.303 -72.569)" fill="#fff"/>
      </g>
    </g>
  </g>
</svg>
