<svg xmlns="http://www.w3.org/2000/svg" width="218.88" height="166.86" viewBox="0 0 218.88 166.86">
  <g id="Group_109126" data-name="Group 109126" transform="translate(-758 -12284)">
    <rect id="Rectangle_39527" data-name="Rectangle 39527" width="218.88" height="166.86" transform="translate(758 12284)" fill="none"/>
    <g id="Group_109097" data-name="Group 109097" transform="translate(4304.752 13427.246)">
      <g id="Group_109096" data-name="Group 109096" transform="translate(-3476.751 -1020.868)">
        <path id="Path_141493" data-name="Path 141493" d="M-3455.944-227.986a.553.553,0,0,1-.474-.212l-5.378-7.073v7.215h-1.227v-8.884a.638.638,0,0,1,.627-.636.56.56,0,0,1,.488.226l5.365,7.059v-7.186h1.226v8.87a.617.617,0,0,1-.627.622m10.145.085a10.645,10.645,0,0,1-3.707-.707l.293-1.019a11.482,11.482,0,0,0,3.414.609c1.546,0,2.355-.552,2.355-1.33,0-.707-.628-1.061-2.787-2.08s-3.01-1.669-3.01-2.942c0-1.6,1.226-2.249,3.54-2.249a13.76,13.76,0,0,1,3.288.453l-.194,1.047a14.013,14.013,0,0,0-3.066-.382c-1.63,0-2.3.311-2.3,1.089s.487,1.089,2.773,2.15c2.41,1.117,3.023,1.683,3.023,2.843,0,1.684-1.588,2.518-3.623,2.518m9.434-9.577h1.268v9.421h-1.268Zm12.054,5.149h-3.149v3.2h3.149a1.583,1.583,0,0,0,1.728-1.627,1.586,1.586,0,0,0-1.728-1.57m-.613-4.074h-2.536v3.014h2.536a1.608,1.608,0,0,0,1.756-1.556c0-.891-.641-1.457-1.756-1.457m.627,8.346h-3.79a.632.632,0,0,1-.642-.623v-8.162a.641.641,0,0,1,.642-.636h3.135c1.923,0,3.066.948,3.066,2.433a2.38,2.38,0,0,1-1.2,1.995,2.407,2.407,0,0,1,1.8,2.292,2.8,2.8,0,0,1-3.009,2.7m9.1,0a.638.638,0,0,1-.627-.636v-8.785h1.268v8.276h5.044v1.146Zm14.329.156c-2.592,0-4.152-.962-4.152-2.9a2.352,2.352,0,0,1,1.519-2.207,2.377,2.377,0,0,1-1.226-2.023c0-1.754,1.352-2.589,3.888-2.589a15.046,15.046,0,0,1,3.052.325l-.14,1.047a18.98,18.98,0,0,0-3.01-.269c-1.644,0-2.522.453-2.522,1.542a1.708,1.708,0,0,0,1.881,1.542h2.174a.536.536,0,0,1,.544.537.54.54,0,0,1-.544.552h-2.341c-1.226,0-2.006.608-2.006,1.542,0,1.372,1.267,1.782,2.856,1.782a13.944,13.944,0,0,0,2.981-.339l.182,1.032a12.339,12.339,0,0,1-3.135.425m-71.589-7.81,2.221,5.564-3.354-2.682Zm3.945,6.846-3.415-8.345a.552.552,0,0,0-.53-.368.569.569,0,0,0-.543.368l-3.749,9.154h1.282l1.485-3.774,4.428,3.632a.714.714,0,0,0,.474.212.616.616,0,0,0,.627-.622.821.821,0,0,0-.059-.257Z" transform="translate(3476.751 237.62)" fill="#1a1918"/>
      </g>
      <path id="Path_141494" data-name="Path 141494" d="M-3396.33-1068.779a39.466,39.466,0,0,1-39.468,39.467,39.467,39.467,0,0,1-39.467-39.467,39.468,39.468,0,0,1,39.467-39.467,39.467,39.467,0,0,1,39.468,39.467" transform="translate(-1.337)" fill="#1a1918"/>
      <path id="Path_141495" data-name="Path 141495" d="M-3252.378-943.862l10.213,25.207-15.427-12.152,5.214-13.055Zm18.144,31.014-15.71-37.808a2.536,2.536,0,0,0-2.433-1.667,2.621,2.621,0,0,0-2.5,1.667l-17.243,41.47h5.9l6.825-17.1,20.37,16.456a3.309,3.309,0,0,0,2.178.962,2.817,2.817,0,0,0,2.884-2.819,3.738,3.738,0,0,0-.269-1.164Z" transform="translate(-184.092 -140.274)" fill="#fff"/>
    </g>
  </g>
</svg>
