<svg xmlns="http://www.w3.org/2000/svg" width="218.878" height="166.858" viewBox="0 0 218.878 166.858">
  <g id="Group_61780" data-name="Group 61780" transform="translate(-1316 -7499)">
    <rect id="Rectangle_30113" data-name="Rectangle 30113" width="218.878" height="166.858" transform="translate(1316 7499)" fill="none"/>
    <g id="c-plus-plus" transform="translate(1365.3 7518.975)">
      <g id="Group_60838" data-name="Group 60838" transform="translate(2.7 0.025)">
        <path id="Path_77516" data-name="Path 77516" d="M36.5,17.6A18.862,18.862,0,0,0,17.6,36.5a18.36,18.36,0,0,0,2.555,9.2L52.6,27.052A18.378,18.378,0,0,0,36.5,17.6Z" transform="translate(20.465 27.299)" fill="#5e98cf" fill-rule="evenodd"/>
        <path id="Path_77517" data-name="Path 77517" d="M21.86,63.829a37.782,37.782,0,0,1,70.51-18.9L115.108,31.9a12.5,12.5,0,0,0-4.088-4.088c-15.073-8.686-30.4-17.372-45.474-26.058a11.313,11.313,0,0,0-12.007,0C47.408,5.326,17.262,22.7,8.32,27.808A10.67,10.67,0,0,0,2.7,37.516V90.143a13.006,13.006,0,0,0,1.277,5.62L26.714,82.734A39.237,39.237,0,0,1,21.86,63.829Z" transform="translate(-2.7 -0.025)" fill="#5e98cf" fill-rule="evenodd"/>
      </g>
      <g id="Group_60839" data-name="Group 60839" transform="translate(4.233 63.574)">
        <path id="Path_77518" data-name="Path 77518" d="M18.6,34.353A19.109,19.109,0,0,0,34.95,43.8,18.792,18.792,0,0,0,51.3,34.352L35.206,24.9Z" transform="translate(20.487 -24.9)" fill="#044e87"/>
        <path id="Path_77519" data-name="Path 77519" d="M58.738,51.46a37.584,37.584,0,0,1-32.7-18.9L3.3,45.585a12.5,12.5,0,0,0,4.088,4.088c8.942,5.109,39.087,22.482,45.219,26.058,4.088,2.3,7.92,2.555,12.007,0,15.073-8.686,30.146-17.372,45.474-26.058a10.458,10.458,0,0,0,4.088-4.088L91.438,32.3A37.292,37.292,0,0,1,58.738,51.46Z" transform="translate(-3.3 -13.395)" fill="#044e87"/>
      </g>
      <path id="Path_77520" data-name="Path 77520" d="M81.559,18.12a13.006,13.006,0,0,0-1.277-5.62L25.1,44.179,80.538,76.113a13.006,13.006,0,0,0,1.277-5.62C81.559,70.748,81.559,35.748,81.559,18.12ZM62.91,46.478H58.567v4.343H54.224V46.478H49.881V42.135h4.343V37.792h4.343v4.343H62.91Zm15.839,0H74.406v4.343H70.063V46.478H65.72V42.135h4.343V37.792h4.343v4.343h4.343v4.343Z" transform="translate(34.826 19.395)" fill="#0062a2"/>
      <g id="Group_60840" data-name="Group 60840" transform="translate(21.86 26.019)">
        <path id="Path_77521" data-name="Path 77521" d="M49.686,22.4H45.343v4.343H41v4.343h4.343v4.343h4.343V31.086h4.343V26.743H49.686Z" transform="translate(37.686 8.768)" fill="#fff"/>
        <path id="Path_77522" data-name="Path 77522" d="M43.486,22.4H39.143v4.343H34.8v4.343h4.343v4.343h4.343V31.086h4.343V26.743H43.486Z" transform="translate(28.046 8.768)" fill="#fff"/>
        <path id="Path_77523" data-name="Path 77523" d="M64.36,57.207A18.907,18.907,0,0,1,29.1,48.01a18.862,18.862,0,0,1,18.9-18.9,19.109,19.109,0,0,1,16.35,9.452L80.71,29.1A37.782,37.782,0,0,0,10.2,48.01a36.775,36.775,0,0,0,5.109,18.9,37.734,37.734,0,0,0,65.4,0Z" transform="translate(-10.2 -10.2)" fill="#fff"/>
      </g>
    </g>
  </g>
</svg>
