<svg xmlns="http://www.w3.org/2000/svg" width="218.878" height="166.858" viewBox="0 0 218.878 166.858">
  <g id="Group_61783" data-name="Group 61783" transform="translate(-384 -7750)">
    <rect id="Rectangle_30117" data-name="Rectangle 30117" width="218.878" height="166.858" transform="translate(384 7750)" fill="none"/>
    <g id="css" transform="translate(441.1 7760)">
      <path id="Path_77574" data-name="Path 77574" d="M52.133,128.9,9.423,117.064-.1,10H104.655L95.132,116.775l-43,12.12Z" transform="translate(0 18.858)" fill="#264de4"/>
      <path id="Path_77575" data-name="Path 77575" d="M52.441,104.48,60.522,13H18.1V114l34.341-9.523Z" transform="translate(34.322 24.516)" fill="#2965f1"/>
      <path id="Path_77576" data-name="Path 77576" d="M8.909,44.15l1.154,13.275H39.5V44.15ZM6.6,17.6,7.754,30.875H39.5V17.6ZM39.5,78.491h0l-14.718-4.04-.866-10.389H10.64l2.02,20.489,26.838,7.5h0Z" transform="translate(12.635 33.19)" fill="#ebebeb"/>
      <path id="Path_77577" data-name="Path 77577" d="M8.4,0H24.272V6.637H15.037v6.637h9.235v6.637H8.4ZM27.446,0H43.318V5.772H34.084V6.926h9.235V20.2H27.446v-6.06h9.235V12.986H27.446V0ZM46.493,0H62.365V5.772H53.13V6.926h9.235V20.2H46.493v-6.06h9.235V12.986H46.493V0Z" transform="translate(16.029)"/>
      <path id="Path_77578" data-name="Path 77578" d="M48.59,44.15,50.9,17.6H18V30.875H36.469L35.315,44.15H18V57.424H34.161L32.718,74.451,18,78.491V92.343l26.838-7.5.289-2.309L48.3,47.9l.289-3.752Z" transform="translate(34.133 33.19)" fill="#fff"/>
    </g>
  </g>
</svg>
