<svg xmlns="http://www.w3.org/2000/svg" width="218.878" height="166.858" viewBox="0 0 218.878 166.858">
  <g id="Group_110218" data-name="Group 110218" transform="translate(-9314 2585)">
    <rect id="Rectangle_39951" data-name="Rectangle 39951" width="218.878" height="166.858" transform="translate(9314 -2585)" fill="none"/>
    <g id="Group_95651" data-name="Group 95651" transform="translate(9304.996 -2592)">
      <path id="Path_127757" data-name="Path 127757" d="M68.327,67h7.11V99.909a46.954,46.954,0,0,1-9.233.969c-8.68,0-13.2-3.924-13.2-11.449,0-7.248,4.8-11.957,12.234-11.957a11.361,11.361,0,0,1,3.093.369Zm0,16.565a7.043,7.043,0,0,0-2.4-.369c-3.6,0-5.679,2.216-5.679,6.093,0,3.786,1.985,5.863,5.633,5.863a16.419,16.419,0,0,0,2.446-.184Z" fill="#092e20"/>
      <path id="Path_127758" data-name="Path 127758" d="M86.747,77.979V94.46c0,5.678-.416,8.4-1.662,10.756-1.154,2.263-2.678,3.694-5.817,5.264l-6.6-3.14c3.139-1.477,4.663-2.769,5.632-4.755,1.016-2.031,1.339-4.386,1.339-10.572V77.979Zm-7.11-10.941h7.11v7.294h-7.11ZM91.037,79.6a21.4,21.4,0,0,1,9.418-2.124c3.647,0,6.047.97,7.109,2.863.6,1.061.785,2.446.785,5.4v14.449a78.279,78.279,0,0,1-10.156.785c-5.956,0-8.634-2.078-8.634-6.694,0-4.986,3.555-7.294,12.28-8.033v-1.57c0-1.292-.646-1.754-2.446-1.754a18.627,18.627,0,0,0-8.357,2.17V79.594ZM102.163,90.9c-4.709.462-6.233,1.2-6.233,3.047,0,1.385.878,2.031,2.817,2.031a19.67,19.67,0,0,0,3.416-.323Zm9.649-11.818a42.609,42.609,0,0,1,11.172-1.616c3.647,0,6.278.831,7.848,2.447,1.477,1.523,1.939,3.185,1.939,6.74V100.6h-7.11V86.935c0-2.723-.923-3.739-3.462-3.739a10.727,10.727,0,0,0-3.278.507v16.9h-7.109Zm23.723,25.391a16.182,16.182,0,0,0,7.617,1.892c4.662,0,6.647-1.892,6.647-6.417v-.138a9.72,9.72,0,0,1-4.616.969c-6.232,0-10.2-4.108-10.2-10.617,0-8.08,5.863-12.65,16.25-12.65a44.88,44.88,0,0,1,9.279,1.015l-2.434,5.128c-1.893-.369-.152-.049-1.582-.187v.736l.092,3,.046,3.878c.046.969.046,1.939.093,2.908v1.94c0,6.093-.508,8.955-2.031,11.31-2.216,3.463-6.048,5.17-11.5,5.17a20.319,20.319,0,0,1-7.663-1.385v-6.555Zm14.126-21.236h-.738a7.776,7.776,0,0,0-4.109,1.015c-1.707.97-2.585,2.724-2.585,5.217,0,3.555,1.755,5.586,4.894,5.586A8.832,8.832,0,0,0,149.8,94.6V92.152c0-.831-.046-1.755-.046-2.724l-.046-3.277-.046-2.355v-.554Zm21.886-5.863c7.109,0,11.449,4.478,11.449,11.726,0,7.433-4.524,12.1-11.726,12.1-7.11,0-11.5-4.479-11.5-11.68,0-7.48,4.525-12.142,11.773-12.142Zm-.139,18.1c2.724,0,4.34-2.263,4.34-6.187,0-3.877-1.57-6.186-4.293-6.186-2.817,0-4.433,2.263-4.433,6.186S168.638,95.479,171.408,95.479Z" fill="#092e20"/>
    </g>
  </g>
</svg>
