<svg xmlns="http://www.w3.org/2000/svg" width="218.88" height="166.86" viewBox="0 0 218.88 166.86">
  <g id="Group_91778" data-name="Group 91778" transform="translate(-276 -11424)">
    <rect id="Rectangle_35610" data-name="Rectangle 35610" width="218.88" height="166.86" transform="translate(276 11424)" fill="none"/>
    <g id="Group_91757" data-name="Group 91757" transform="translate(-739.88 270)">
      <g id="Group_91756" data-name="Group 91756" transform="translate(1043.88 11225)">
        <g id="Group_91755" data-name="Group 91755" transform="translate(0)">
          <g id="Group_91753" data-name="Group 91753" transform="translate(33.653 5.951)">
            <path id="Path_121927" data-name="Path 121927" d="M165.726,804.8h8.94a.47.47,0,0,0,0-.939h-8.43v-5.5h7.452a.47.47,0,1,0,0-.939h-7.452v-5.379h8.331a.469.469,0,1,0,0-.938h-8.841a.517.517,0,0,0-.508.508v12.674a.518.518,0,0,0,.508.51Zm15.615-.51a.518.518,0,0,0,.508.51h8.157a.47.47,0,0,0,0-.939h-7.648V791.538a.508.508,0,0,0-1.017,0Zm15.634.51h8.938a.47.47,0,1,0,0-.939h-8.43v-5.5h7.452a.47.47,0,1,0,0-.939h-7.452v-5.379h8.333a.469.469,0,1,0,0-.938h-8.841a.517.517,0,0,0-.508.508v12.674a.518.518,0,0,0,.508.51Zm21.815.235a7.1,7.1,0,0,0,5.184-2.132.5.5,0,0,0,.156-.352.511.511,0,0,0-.49-.49.5.5,0,0,0-.352.156,6.025,6.025,0,0,1-4.459,1.9,5.9,5.9,0,0,1-5.79-6.162v-.039a5.853,5.853,0,0,1,5.77-6.122,6.115,6.115,0,0,1,4.362,1.78.517.517,0,0,0,.351.137.535.535,0,0,0,.528-.51.59.59,0,0,0-.195-.411,7.155,7.155,0,0,0-5.027-1.916,6.881,6.881,0,0,0-6.846,7.08v.039a6.806,6.806,0,0,0,6.807,7.043Zm15.048-.666a.508.508,0,0,0,1.017,0V792.047h4.381a.469.469,0,1,0,0-.938h-9.78a.469.469,0,1,0,0,.938h4.382Zm11.9,0a.509.509,0,0,0,1.018,0v-5.242h4.479l4.206,5.476a.562.562,0,0,0,.45.273.553.553,0,0,0,.528-.528.561.561,0,0,0-.157-.351l-3.892-5.047c2.308-.313,4.009-1.624,4.009-3.911V795a3.61,3.61,0,0,0-1.037-2.543,5.392,5.392,0,0,0-3.853-1.349h-5.242a.517.517,0,0,0-.51.508Zm1.018-6.161v-6.162h4.675c2.484,0,3.932,1.154,3.932,2.994v.039c0,1.976-1.7,3.13-3.99,3.13Zm22.4,6.826a6.891,6.891,0,0,0,6.9-7.081v-.039a6.887,6.887,0,1,0-13.769.039v.039a6.826,6.826,0,0,0,6.865,7.043Zm.039-.919a5.926,5.926,0,0,1-5.849-6.162v-.039a5.859,5.859,0,0,1,5.81-6.122A5.925,5.925,0,0,1,275,797.954v.039a5.86,5.86,0,0,1-5.81,6.123Zm13.346.273a.489.489,0,0,0,.978,0V792.6l9.408,11.931a.7.7,0,0,0,.508.333h.079a.418.418,0,0,0,.411-.431v-12.91a.489.489,0,0,0-.978,0V803.06l-9.232-11.717a.638.638,0,0,0-.51-.292h-.156a.517.517,0,0,0-.508.508Z" transform="translate(-165.218 -790.874)" fill="#47848f" fill-rule="evenodd"/>
          </g>
          <g id="Group_91754" data-name="Group 91754">
            <path id="Path_121928" data-name="Path 121928" d="M146.166,790.41c-3.232-.588-5.789.027-6.808,1.792-.761,1.316-.543,3.062.527,4.929a.332.332,0,0,0,.576-.331c-.964-1.681-1.152-3.187-.528-4.268.845-1.465,3.126-2.014,6.115-1.471a.331.331,0,1,0,.119-.652Zm-4.6,8.99a20.752,20.752,0,0,0,4.943,3.9c4.69,2.708,9.681,3.432,12.143,1.753a.331.331,0,0,0-.373-.547c-2.2,1.5-6.945.814-11.439-1.78a20.111,20.111,0,0,1-4.783-3.776.332.332,0,0,0-.491.447Z" transform="translate(-138.114 -785.092)" fill="#47848f" fill-rule="evenodd"/>
            <path id="Path_121929" data-name="Path 121929" d="M157.865,798.993c2.117-2.5,2.856-5.017,1.84-6.778-.748-1.3-2.329-1.979-4.431-2.007a.332.332,0,0,0-.009.663c1.89.025,3.252.614,3.865,1.676.844,1.463.186,3.706-1.771,6.017a.331.331,0,1,0,.506.428Zm-5.44-8.476a20.746,20.746,0,0,0-5.909,2.342c-4.841,2.795-8,6.918-7.561,9.906a.332.332,0,0,0,.657-.1c-.39-2.653,2.6-6.559,7.236-9.234a20.047,20.047,0,0,1,5.715-2.267.332.332,0,0,0-.139-.649Z" transform="translate(-138.112 -785.089)" fill="#47848f" fill-rule="evenodd"/>
            <path id="Path_121930" data-name="Path 121930" d="M143.456,805.551c1.107,3.091,2.917,4.994,4.953,4.994,1.485,0,2.86-1.013,3.93-2.795a.331.331,0,1,0-.568-.341c-.963,1.6-2.146,2.473-3.362,2.473-1.691,0-3.306-1.7-4.329-4.555a.332.332,0,0,0-.624.224Zm10.11-.6a20.8,20.8,0,0,0,.88-6.143c0-5.493-1.922-10.227-4.66-11.444a.332.332,0,1,0-.27.607c2.443,1.084,4.266,5.578,4.266,10.837a20.135,20.135,0,0,1-.851,5.946.332.332,0,0,0,.633.2Z" transform="translate(-136.987 -785.805)" fill="#47848f" fill-rule="evenodd"/>
            <path id="Path_121931" data-name="Path 121931" d="M157.179,801.492a1.587,1.587,0,1,0-1.587,1.587,1.587,1.587,0,0,0,1.587-1.587Zm-.663,0a.924.924,0,1,1-.924-.923.924.924,0,0,1,.924.923Z" transform="translate(-134.356 -782.675)" fill="#47848f" fill-rule="evenodd"/>
            <path id="Path_121932" data-name="Path 121932" d="M139.858,803.079a1.587,1.587,0,1,0-1.586-1.587,1.587,1.587,0,0,0,1.586,1.587Zm0-.663a.924.924,0,1,1,.924-.924.923.923,0,0,1-.924.924Z" transform="translate(-138.272 -782.675)" fill="#47848f" fill-rule="evenodd"/>
            <path id="Path_121933" data-name="Path 121933" d="M147.734,789.283a1.587,1.587,0,1,0-1.586-1.586,1.587,1.587,0,0,0,1.586,1.586Zm0-.663a.924.924,0,1,1,.924-.923.923.923,0,0,1-.924.923Z" transform="translate(-136.312 -786.109)" fill="#47848f" fill-rule="evenodd"/>
            <path id="Path_121934" data-name="Path 121934" d="M147.889,797.867a1.148,1.148,0,1,1,.88-1.365A1.147,1.147,0,0,1,147.889,797.867Z" transform="translate(-136.224 -783.747)" fill="#47848f" fill-rule="evenodd"/>
          </g>
        </g>
      </g>
    </g>
  </g>
</svg>
