<svg xmlns="http://www.w3.org/2000/svg" width="218.878" height="166.858" viewBox="0 0 218.878 166.858">
  <g id="Group_110514" data-name="Group 110514" transform="translate(-681 -738)">
    <rect id="Rectangle_40015" data-name="Rectangle 40015" width="218.878" height="166.858" transform="translate(681 738)" fill="none"/>
    <rect id="Rectangle_39952" data-name="Rectangle 39952" width="218.878" height="166.858" transform="translate(681 738)" fill="none"/>
    <g id="Group_110496" data-name="Group 110496" transform="translate(847.39 651.586)">
      <path id="Path_143522" data-name="Path 143522" d="M-102.168,153.609l.559.849a1.418,1.418,0,0,1-1.314.359c-.629-.122-1.246-.308-1.865-.481-.6-.167-1.183-.392-1.789-.517a1.174,1.174,0,0,0-1.569,1.013,6.012,6.012,0,0,0-.064,1.6q.223,3.444.5,6.884a43.959,43.959,0,0,0,1.912,10.363,21.574,21.574,0,0,0,3.935,7.04c.918,1.11,1.84,2.217,2.785,3.3a23.177,23.177,0,0,0,5,4.142,31.692,31.692,0,0,0,11.464,4.412.711.711,0,0,0,.743-.241c.238-.276.493-.538.741-.8l.1-.1.03-.03a.278.278,0,0,1,.387.012c.25.212.414.076.49-.152-.033-.307-.5.072-.417-.343a.05.05,0,0,0,.054-.052.076.076,0,0,0,.077-.079c.034,0,.051-.018.051-.051a.076.076,0,0,0,.079-.079.045.045,0,0,0,.051-.049l.083-.08c.03,0,.045-.009.046-.039l.1-.089.031-.028.107-.1a12.164,12.164,0,0,1,1.076-.7,1.591,1.591,0,0,1,1.782.107,1.054,1.054,0,0,1-.243.946c-.3.419-.639.809-.954,1.216-.192.25-.454.466-.448.857a1.736,1.736,0,0,0,1.524.237,4.167,4.167,0,0,1,2.093.14c.288.091.577.176.869.246a2.057,2.057,0,0,0,2.129-.56,2.7,2.7,0,0,1,.21-.177,2.881,2.881,0,0,0,2.107.639c.322-.006.644-.034.965-.051.408-.019.816-.057,1.225-.046,1.2.03,1.712.818,1.238,1.916a.794.794,0,0,1-.469.383c-.721.2-1.45.386-2.187.511a5.583,5.583,0,0,0-2.7,1.016,4.251,4.251,0,0,0-3.436.021c-.566.2-1.134.4-1.712.562a5.082,5.082,0,0,1-1.323.247,34.3,34.3,0,0,0-3.643.42,42.808,42.808,0,0,1-8.56.237c-2.032-.2-4.074-.323-6.1-.551a32.7,32.7,0,0,1-15.375-5.648,30.256,30.256,0,0,1-5.327-4.473,55.971,55.971,0,0,1-3.57-4.488,48.752,48.752,0,0,1-7.062-13.9c-.666-2.1-1.091-4.284-1.648-6.423a22.6,22.6,0,0,0-1.606-4.543,3.351,3.351,0,0,1,.133-3.275,5.041,5.041,0,0,1,2.183-2.037c.191-.1.389-.183.583-.274a5.575,5.575,0,0,0,2.4-1,5.083,5.083,0,0,0-1.38.434,2.152,2.152,0,0,1-1.278.317.967.967,0,0,1-.235-1.314,1.774,1.774,0,0,1,1.269-.9,5.865,5.865,0,0,0,1.059-.268,1.794,1.794,0,0,0,1.112-2.09,1.9,1.9,0,0,0-.307-.62c-.232-.344-.256-.484.034-.785a8.849,8.849,0,0,1,.787-.663,13.881,13.881,0,0,0,1.1-.9c.53-.529.468-.983-.1-1.474a4.661,4.661,0,0,1-.889-.907,1.305,1.305,0,0,1,.863-2.16,2.382,2.382,0,0,1,1.7.155,1.414,1.414,0,0,1,.8,1.6,6.554,6.554,0,0,1-.225.738.961.961,0,0,0,.842,1.405,13.482,13.482,0,0,0,1.609,0,6.933,6.933,0,0,1,1.027.03c.553.083.733.334.684.893a6.82,6.82,0,0,1-.146.727,1.818,1.818,0,0,0,1.083.711c.6.159,1.216.262,1.825.386.274.055.551.089.822.155a1.451,1.451,0,0,1,1.319,1.478A5.425,5.425,0,0,1-109.71,150a6.216,6.216,0,0,0,1.7.743A22.773,22.773,0,0,1-103.2,152.7a5.788,5.788,0,0,1,.508.387l-.161.167c-.316-.079-.615-.3-1.067-.06.276.2.51.361.73.538.24.2.466.405.776.678l.082-.642Zm11.5,41.044-.352.489c.532.177.679.074.945-.639l-.611.167c-.179-.2.043-.229.131-.31.225-.209.542-.34.6-.714a1.252,1.252,0,0,0-1.216.431.539.539,0,0,0-.058.447c.06.194.222.127.368.058C-90.812,194.56-90.73,194.627-90.666,194.653Zm-33.561-52.661a.813.813,0,0,0,.434.849l-.218-.72a5.887,5.887,0,0,1,.776-.148c.34-.019.684.028,1.025.022.237,0,.334-.155.3-.392a1.114,1.114,0,0,0-1.59-.778,1.228,1.228,0,0,0-.629.77l-.058.153Zm-2.379,24.793-.171-.174-.094.057.159.517.3,1-.149.137c-.259-.4-.438-.86-.933-1.089a6.386,6.386,0,0,0,.39,1.268c.44,1,.887,1.991,1.365,2.97.319.65.685,1.278,1.056,1.9a3.459,3.459,0,0,0,.481.536,11.794,11.794,0,0,0-.651-1.95c-.264-.65-.535-1.3-.8-1.944l.052.021.054-.018c.066-.055.188-.112.186-.167a2.785,2.785,0,0,0-.088-.489l-.088-.256-.086-.273-.043-.112Zm18.484,26.968c.873.407,1.737.834,2.619,1.217a22.268,22.268,0,0,0,5.367,1.757c2.652.413,5.31.8,7.973,1.119a25.214,25.214,0,0,0,5.92.028c.416-.048.828-.127,1.241-.191a.31.31,0,0,0-.2-.2,6.769,6.769,0,0,0-2.36-.2,11.485,11.485,0,0,1-2.63-.019,7.347,7.347,0,0,0-2.458-.161,5.4,5.4,0,0,1-1.351.01c-1.323-.139-2.64-.332-3.963-.466a8.954,8.954,0,0,1-2.584-.736c-1.046-.44-2.114-.83-3.172-1.243.176-.06.352-.119.527-.18-.1-.268-.145-.326-.273-.319-.162.01-.338.006-.367.25-.006.043-.179.069-.276.1-1.342-.66-2.682-1.326-4.03-1.976a1.916,1.916,0,0,0-1.128-.249,10.517,10.517,0,0,0,1.325.879c.465.264.943.507,1.421.743.456.225.919.431,1.38.645l-.077.165-2.63-1.117a6.545,6.545,0,0,0-2.019-.988A6.776,6.776,0,0,0-108.122,193.753Zm-4.184-42.444c-.045.039-.086.1-.136.113-1.161.207-2.336.352-3.482.621-2.861.673-5.61,1.777-8.531,2.224a2.828,2.828,0,0,0-.6.279l1.149.711-.547.426.992.732c-.69.648-1.335.28-1.946.046-.775-.295-.937-.62-.9-1.578a6.336,6.336,0,0,0-2.114.483c-1.815.711-2.187,1.961-1.061,3.548a3.036,3.036,0,0,0,.347.326,8.6,8.6,0,0,1-.042-.887,7.1,7.1,0,0,1,.162-1.462c.256-.894.934-1.165,1.912-.806a1.965,1.965,0,0,1-.226.121c-.741.267-.69.867-.285,1.322a2.86,2.86,0,0,0,1.28.836c.738.232,1.022.009,1.04-.779,0-.036.036-.072.073-.137a17.128,17.128,0,0,1,2.022-.185l-.094.645a4.606,4.606,0,0,0,1.8-.505c.781-.358,1.542-.755,2.314-1.131a5.185,5.185,0,0,1,2.8-.617,1.974,1.974,0,0,0,.384-.025,35.216,35.216,0,0,0,6.681-1.354,3.406,3.406,0,0,0,2.01-1.511,1.49,1.49,0,0,0,.218-1.049c-.072-.408-.216-.55-.645-.551q-1.515,0-3.032.031c-.45.01-.9.067-1.348.1Zm.824,27.585a14.88,14.88,0,0,0,1.231,1.073,3.626,3.626,0,0,0,1.193.587,2.774,2.774,0,0,1,1.955,2.067c.043.444-.185.733-.636.666a4.871,4.871,0,0,1-1.2-.4c-.667-.288-1.316-.617-1.979-.915a1.446,1.446,0,0,0-.392-.058,3.244,3.244,0,0,0,1.338.991c1.545.7,3.1,1.371,4.632,2.1a9.768,9.768,0,0,1,2.682,1.643c.8.769,1.561,1.579,2.357,2.388a2.561,2.561,0,0,1-2.917-.6l.529-.408c-.651-.088-1.2-.435-1.833-.2a1.56,1.56,0,0,0,1.01,1.308,5.436,5.436,0,0,0,1.231.358c.866.131,1.739.206,2.677.311l-.583.922.423.185-.335.486,1.106.642c.891-.326,1.091-.259,1.612.529a4.973,4.973,0,0,0,.291.425.573.573,0,0,0,.9.133c.259-.186.468-.44.714-.647a1.506,1.506,0,0,1,.344-.167l.04.075-.477.663a1.49,1.49,0,0,0,.77-.265,2.773,2.773,0,0,1,2.087-.457,9.833,9.833,0,0,1,1.8.472,17.972,17.972,0,0,0,3.938,1.356c.377.049.733.253,1.112.317a2.725,2.725,0,0,0,1.019,0,1.771,1.771,0,0,0,1.021-.5c-.3-.115-.514-.21-.733-.271-.454-.125-.919-.221-1.372-.35s-.9-.273-1.342-.443c-.3-.113-.536-.3-.308-.714-1.982.364-3.367-.55-4.558-1.918a.414.414,0,0,1-.04-.049,1.2,1.2,0,0,0-.785-.5,13.215,13.215,0,0,1-4.227-1.843,6.589,6.589,0,0,1-2.019-2.053c-.113-.192-.4-.392-.08-.662.031-.027-.028-.2-.082-.279a2.755,2.755,0,0,0-.407-.5,13.182,13.182,0,0,1-2.744-3.638c-.49-.915-1.365-1.463-1.925-2.417l-.215.714a12.837,12.837,0,0,0-.682-1.122,1.423,1.423,0,0,0-1.152-.606c-.039-.663.5-.849.849-1.174a9.261,9.261,0,0,1-.441-.925c-.115-.322-.149-.672-.253-1a36.386,36.386,0,0,1-1.272-5.052,1.677,1.677,0,0,0-.207-.41,3.135,3.135,0,0,0-1,1.265,3.01,3.01,0,0,1,.411-1.712l.468.253a3.711,3.711,0,0,0,.142-1c-.018-.134-.34-.228-.483-.316.057-.59.128-1.182.165-1.775a.629.629,0,0,0-.44-.726,9.8,9.8,0,0,0,.143-1.182c.006-.836-.022-1.672-.057-2.506a.669.669,0,0,0-.527-.712c.112-.589.238-1.111.305-1.642a6.566,6.566,0,0,0-.058-2.563c-.231-.848-.693-1.055-1.432-.614a2.2,2.2,0,0,1-.971.273,10.292,10.292,0,0,0-3.038.732l1.019.709-.07.156-2.3-.513c-.033.066-.066.119-.089.176-.253.615-.356.693-1,.681-.344-.006-.687-.042-1.021-.064.264.481.25.641-.237.955a2.856,2.856,0,0,1-2.368.548.485.485,0,0,0-.654.49,1.889,1.889,0,0,0,.174.738c.155.353.372.678.541,1.025a.8.8,0,0,1-.089.882c-.28.431-.639.432-1.047.462-1.05.074-1.313.364-1.39,1.229-.666.06-.812.283-.56.9a2.066,2.066,0,0,0,.34.541c.191.224.417.378.727.165a.438.438,0,0,1,.294-.045,2.052,2.052,0,0,1,1.748,1.666,16.459,16.459,0,0,1-.048,2.183c0,.048-.077.092-.145.168a1.375,1.375,0,0,1-.845-.968c-.268-.7-.121-1.01.609-1.293a9.909,9.909,0,0,0-.641-.811c-.365-.377-.627-.377-.983,0s-.662.772-1.007,1.179c.213.15.392.267.559.4a6.878,6.878,0,0,1,.743.615c.4.416.37.638-.079,1-.045.036-.089.069-.18.136a2.4,2.4,0,0,1,1.818,2.005,3.987,3.987,0,0,0,.216.673c.209.451.538.5.91.186a8.2,8.2,0,0,1,.739-.5c-.584-.74-1.563-1.205-2.113-2.241l1.041.057c.039-.045.066-.063.064-.077-.03-.341-.067-.682-.1-1.025-.064-.775-.063-.775.7-1.107-.021.258-.036.487-.057.717a10.751,10.751,0,0,0-.089,1.091,2.493,2.493,0,0,0,.189.641,3.025,3.025,0,0,0,1.183-.909c.316-.349.477-.353.778.01a13.671,13.671,0,0,1,.845,1.135.713.713,0,0,1,.116.839c-.207.307-.53.226-.827.2a1.187,1.187,0,0,1-.305-.094c-.253-.1-.505-.209-.851-.353a3.17,3.17,0,0,0,1.031,1.131,2.444,2.444,0,0,1,1.153,2.223c-.064.833.535,1.195,1.359.985a.552.552,0,0,1,.179.009l.372.7.153-.028.24-1.03a1.9,1.9,0,0,1,1.693,1.457,3.846,3.846,0,0,0,.28.717c.057.106.2.165.425.332-.012-.96-.586-1.593-.8-2.493.565.589,1.033,1.061,1.48,1.551a3.093,3.093,0,0,1,.44.632.921.921,0,0,1-.65,1.474C-110.844,178.822-111.122,178.84-111.482,178.894Zm-3.625,7.919a1.349,1.349,0,0,1-1.411-.732c-.2-.328-.384-.67-.584-1a.755.755,0,0,0-.65-.438,1.331,1.331,0,0,1-1.086-.815,7.635,7.635,0,0,1-.387-1.019,3.3,3.3,0,0,0-.831-1.649,7.1,7.1,0,0,1-1.453-1.9,15.671,15.671,0,0,0-1.244-1.563,9.02,9.02,0,0,1-1.377-2.387,19.255,19.255,0,0,0-1.116-2.1,1.647,1.647,0,0,0-.273-.3,1.3,1.3,0,0,0,.1.644,21.408,21.408,0,0,0,1.915,3.86c.462.726.931,1.447,1.415,2.156.894,1.313,1.782,2.624,2.563,4.011a14.017,14.017,0,0,0,3.565,4.288c.505.393.958.854,1.433,1.286a12.67,12.67,0,0,0,.952.864,3.656,3.656,0,0,0,2.1.642,3.459,3.459,0,0,0-.311-.67,3.515,3.515,0,0,0-1.782-1.216,1.086,1.086,0,0,1-.443-.209c-.331-.307-.632-.644-.951-.963A.573.573,0,0,1-115.107,186.813Zm-2.026-8.391-.054.128.971.991-.557.085,1.548,1.287-.057.109-1.216-.49a1.26,1.26,0,0,0,.721.711c.957.527,1.916,1.049,2.877,1.572a5.907,5.907,0,0,0,.577.283,1.983,1.983,0,0,0,.378.077l.037-.086-.77-.714c.264-.35.083-.611-.165-.849a3.478,3.478,0,0,1-.477-.429,3.567,3.567,0,0,1-.276-.7c-.237-.213-.73-.331-1.007-.811l.834-.054-.776-.633,1.18-.6a8.637,8.637,0,0,0-2.758-.761l.1.475-.547-.072.045.578Zm-7.229-27,.051.137c.159-.036.322-.063.478-.107.58-.161,1.149-.362,1.734-.487a4.556,4.556,0,0,1,3.7.32v-.9c.462-.066.6.258.8.5a6.114,6.114,0,0,0,.641.8c.45.4.9.268,1.088-.31a6.616,6.616,0,0,0,.165-.986l.843.6.109-.116-.66-.991.344-.773a4.084,4.084,0,0,0-.717-.03,9.3,9.3,0,0,0-1.067.228c-.954.255-1.9.529-2.855.784-1.368.365-2.74.717-4.106,1.083A3.648,3.648,0,0,0-124.362,151.422Zm6.772,21.007a9.762,9.762,0,0,1,.416,1c.133.463-.06.663-.533.559a5.5,5.5,0,0,1-.843-.305c-.338-.136-.666-.3-1.012-.408-.165-.049-.487-.04-.524.04a.916.916,0,0,0,.021.59c.055.177.259.319.286.493.066.429.374.544.7.687.629.273,1.247.568,1.865.864.483.231.952.49,1.438.714a5.243,5.243,0,0,0,.729.2,2.153,2.153,0,0,0-.816-1.46,2.084,2.084,0,0,1-.769-1.351c-.092-.417-.161-.842-.276-1.255A.485.485,0,0,0-117.59,172.429Zm7.874,13.255a3.524,3.524,0,0,0-.563-.356c-.763-.273-1.529-.539-2.3-.779a4.912,4.912,0,0,0-.946-.165.718.718,0,0,0-.746.228,1.72,1.72,0,0,0,.751.922,9.948,9.948,0,0,0,1.131.426,3.788,3.788,0,0,0,2.093.031A3.672,3.672,0,0,0-109.716,185.683Zm27.351,8.609c.413.018.772.042,1.131.048.322,0,.644-.033.964-.012.6.039,1.2.134,1.8.152a9.975,9.975,0,0,0,1.535-.079,1.73,1.73,0,0,0,.541-.3,36.7,36.7,0,0,0-3.878-.571,5.955,5.955,0,0,0-1.405.1A.772.772,0,0,0-82.365,194.292Zm-37.7-47.531a2.358,2.358,0,0,0,1.675,2.512c.022,0,.043.009.064.01.438.024.6-.145.533-.575-.031-.216-.083-.431-.137-.7l.724.14C-118,147.155-119.125,147.17-120.068,146.761Zm18.264,48.107c1.691,1.025,3.923,1.555,4.911,1.22-.5-.177-.884-.35-1.29-.453-.684-.171-1.378-.3-2.068-.444C-100.769,195.083-101.286,194.978-101.8,194.869Zm9.388-.07c.818-.387,1-.737.779-1.43-.1-.32-.288-.445-.572-.276a8.713,8.713,0,0,0-1.234.9.4.4,0,0,0-.034.642c.128-.067.256-.131.383-.2s.249-.142.4-.225Zm-30.854-34.077a1.107,1.107,0,0,0,1.657.237.732.732,0,0,0,.3-.511c-.019-.149-.256-.332-.434-.386a3.789,3.789,0,0,0-1.833-.016l1.353.587-.021.089Zm13.381,24c.706.988,2.4,1.883,3.086,1.3-.63-.31-1.246-.62-1.868-.916-.289-.137-.587-.256-.888-.367A1.209,1.209,0,0,0-109.889,184.727Zm-13.417-35.75.012.145c.556-.112,1.106-.261,1.666-.325s1.152.124,1.831.015c-.371-.335-.565-.724-1.036-.63A10.118,10.118,0,0,0-123.306,148.977Zm18.277,36.6a.771.771,0,0,0-.156-.1,8.277,8.277,0,0,1-1.745-.6,1.332,1.332,0,0,0-1.283-.036C-106.648,185.659-105.756,185.863-105.029,185.576Zm34.272,8.554a4.686,4.686,0,0,0,3.209-.14A9.2,9.2,0,0,0-70.757,194.13Zm-35.19-5a2.818,2.818,0,0,0-2.081-.979A2.951,2.951,0,0,0-105.946,189.128ZM-125.757,161l.7.587.583-.623A.928.928,0,0,0-125.757,161Zm14.578,22.537c.365.594.98.617,1.578.684A2.624,2.624,0,0,0-111.179,183.533Zm4.856,3.7a2.3,2.3,0,0,0-1.62-.584A1.707,1.707,0,0,0-106.323,187.23Zm-14.318-41.668a1.65,1.65,0,0,0,1.326-.241C-119.912,144.912-120.447,145.012-120.642,145.562Zm-5.033,19.182c.241.4.627.39,1.031.48a.667.667,0,0,0-.423-.736A.439.439,0,0,0-125.675,164.743Zm-.063-1.262c.606.626.906.7,1.357.37A1.508,1.508,0,0,0-125.737,163.482ZM-87.383,195.9a1.833,1.833,0,0,0,1.159-.867A1.185,1.185,0,0,0-87.383,195.9Zm-40.12-31.486c-.243.554-.133.748.56.93C-127.074,164.973-127.057,164.575-127.5,164.417Zm22.41,26.184a1.169,1.169,0,0,0,.928.417C-104.215,190.49-104.3,190.448-105.093,190.6Zm-6.848-12.827c-.106-.659-.265-.73-.852-.42Zm23.288,16.646c-.536-.046-.63.024-.775.583C-88.945,194.89-88.934,194.882-88.653,194.42Zm.368.545c-.277.067-.565.11-.63.477-.007.039.07.131.107.131.325-.007.465-.238.569-.5C-88.232,195.059-88.253,195.036-88.285,194.966Zm-13.2-3.933c.633.4.8.374,1.21-.158Zm-20.275-20.543-.979.076C-122.185,171.006-122.178,171.006-121.761,170.489Zm8.295,12.927-.991-.155-.024.148C-114.166,183.539-113.87,183.775-113.466,183.415Zm12.809,8.624a2.4,2.4,0,0,0-1.517-.2A2.2,2.2,0,0,0-100.657,192.039Zm-18.925-14.216.134-.14c-.183-.288-.362-.581-.867-.472Zm.679.425a2.1,2.1,0,0,0,1.189.694A1.487,1.487,0,0,0-118.9,178.248Zm12.188,14.214-.033.177a1.568,1.568,0,0,0,.456.194c.063.007.145-.191.314-.434Zm.967-2.092,0-.177-.773-.046-.01.142C-106.283,190.439-106.04,190.609-105.748,190.371Zm-3.969-.074c.559.285.559.285.988-.225Zm-18.451-31.641c.444.375.444.375.659-.158Zm16.151,25.4c-.361-.179-.609-.323-.927-.171C-112.684,183.974-112.481,184.315-112.018,184.056Zm-13.688-18.538a.859.859,0,0,0,.732.316A.528.528,0,0,0-125.706,165.518Zm6.061,14.463.127-.127a1.166,1.166,0,0,0-.668-.688l-.1.094Zm11.221,8.709a.477.477,0,0,0-.772-.024C-108.913,188.757-108.7,189.021-108.424,188.69Zm24.957,8.688-.782.164C-83.788,197.8-83.788,197.8-83.468,197.378ZM-88.1,195.36c.523.039.751-.153.864-.53Zm-36.136-33.671c.165.1.234.168.307.173a1.018,1.018,0,0,0,.343-.063c.015,0,.018-.152,0-.162a.946.946,0,0,0-.337-.1C-123.994,161.537-124.067,161.6-124.233,161.689Zm18.048,26.578c.226.185.405.279.687.128C-105.681,188.136-105.861,188.079-106.185,188.267Zm-12.4-17.1c-.131-.255-.2-.386-.273-.51,0-.006-.17.049-.191.1C-119.149,171.024-118.973,171.094-118.583,171.171Zm25.319,22.191-.128-.148-.669.44.1.156Zm-18.554-6.31.054-.14-.609-.235-.057.148Zm39.6,6.973c.375-.027.375-.027.3-.425Zm-52.626-31.845.082.235.386-.136-.1-.27ZM-97,194.921c.331.022.486-.039.454-.322,0-.027-.064-.046-.145-.1Zm-23.319-19.547v.185l.423.012,0-.222Zm22.407,11.111c.06-.148.139-.246.124-.326-.021-.1-.119-.185-.183-.276a1.021,1.021,0,0,0-.216.258C-98.2,186.182-98.082,186.276-97.911,186.485Zm1.4,1c-.091-.329-.243-.395-.562-.162Zm-26.524-18.32.009.155c.173.057.347.121.472-.207ZM-75.367,194.2c.322.17.446.106.437-.165,0-.048-.049-.094-.1-.191Zm-2.135-4.1-.051-.472C-77.834,189.836-77.853,189.98-77.5,190.092Zm-31.931-7.959c-.128-.109-.185-.194-.241-.194s-.119.08-.18.125c.043.045.08.115.131.125A.946.946,0,0,0-109.433,182.133Z" transform="translate(0)" fill="#070606"/>
      <path id="Path_143523" data-name="Path 143523" d="M-41.072,153.6v10.711a4.983,4.983,0,0,0,.009.517c.046.472.259.593.7.378a2.713,2.713,0,0,0,.536-.353c1.64-1.357,3.281-2.713,4.911-4.085a3.111,3.111,0,0,0,.624-.729.522.522,0,0,0-.25-.848,8.063,8.063,0,0,0-1.159-.366c-.186-.052-.383-.061-.569-.112a.774.774,0,0,1-.626-.909c.052-.513.288-.727.806-.694.772.049,1.542.15,2.315.168,2.28.054,4.559.077,6.839.113.173,0,.346-.006.517.009a.681.681,0,0,1,.691.557.789.789,0,0,1-.374,1,2.367,2.367,0,0,1-.866.216,9.162,9.162,0,0,0-5.085,1.816c-1.076.779-2.049,1.7-3.075,2.548a.6.6,0,0,0-.152.854c.1.188.186.387.3.569a36.945,36.945,0,0,0,5.294,6.808,13.814,13.814,0,0,0,1.524,1.287,4.155,4.155,0,0,0,2.7.884,3.1,3.1,0,0,1,.642.046c.532.085.633.2.678.688.052.575-.1.894-.545,1.034a2.963,2.963,0,0,1-.7.112c-1.566.1-3.132.188-4.7.3a2,2,0,0,1-1.764-.714,51.961,51.961,0,0,1-5.988-7.986c-.44-.726-.66-.784-1.4-.358-.353.2-.694.429-1.027.665a1.734,1.734,0,0,0-.8,1.471c.009.988.018,1.98.1,2.964a1.66,1.66,0,0,0,1.591,1.786c.46.1.933.146,1.4.234a2.967,2.967,0,0,1,.739.2.856.856,0,0,1,.341,1.164.5.5,0,0,1-.3.2,1.9,1.9,0,0,1-.513.019,55.652,55.652,0,0,0-7.542.183c-.535.043-1.074.049-1.612.051-.305,0-.609-.049-.742-.393a.887.887,0,0,1,.283-1.046,2.759,2.759,0,0,1,.913-.453,1.67,1.67,0,0,0,1.331-1.411,9.255,9.255,0,0,0,.212-1.785q.022-10.486,0-20.973c0-.536-.055-1.074-.1-1.609a2.515,2.515,0,0,0-1.487-2.18c-.367-.177-.748-.323-1.123-.481-.325-.137-.65-.289-.662-.7a.912.912,0,0,1,.544-.816,3.236,3.236,0,0,1,.586-.265,15.955,15.955,0,0,0,3.686-1.819,7.817,7.817,0,0,1,1.009-.569.844.844,0,0,1,1.277.626,3.886,3.886,0,0,1,.052.834q0,5.324,0,10.647Z" transform="translate(40.745 0.473)" fill="#030303"/>
      <path id="Path_143524" data-name="Path 143524" d="M-80.677,143.4c-.1.733-.228,1.408-.288,2.087-.1,1.135-.162,2.272-.225,3.41-.036.636-.134.842-.5.916a.936.936,0,0,1-1.091-.594c-.125-.25-.221-.514-.349-.761-.218-.419-.426-.845-.679-1.241a3,3,0,0,0-2.208-1.411,20.17,20.17,0,0,0-2.119-.176c-1.785-.043-3.57-.073-5.355-.067-1.229.006-1.4.212-1.4,1.442q0,4.937,0,9.872c0,.128,0,.258,0,.386.022.492.164.644.67.656.45.01.9,0,1.354-.027,1.483-.072,2.964-.15,4.446-.228.107-.006.215-.007.322-.019.9-.107,1.2-.353,1.415-1.234.116-.48.183-.97.289-1.453a.958.958,0,0,1,1.579-.581.612.612,0,0,1,.222.688,32.887,32.887,0,0,0-.471,7c.006.408.042.816.049,1.225.009.516-.155.715-.635.806a.747.747,0,0,1-.949-.553c-.112-.346-.162-.714-.289-1.053a8.258,8.258,0,0,0-.581-1.286,1.991,1.991,0,0,0-1.684-1.041c-1.74-.072-3.481-.122-5.222-.165-.465-.01-.514.054-.516.529,0,3.549-.007,7.1.006,10.646a1.578,1.578,0,0,0,1.29,1.7c.681.189,1.387.288,2.083.42.274.052.554.073.827.136.49.112.708.364.712.778a.722.722,0,0,1-.718.76,5.658,5.658,0,0,1-1.219.054,62.471,62.471,0,0,0-7.027-.165c-.772.033-1.542.13-2.314.189a2.854,2.854,0,0,1-.7.01.665.665,0,0,1-.536-.644.621.621,0,0,1,.384-.735,2.575,2.575,0,0,1,.618-.155,2.343,2.343,0,0,0,2.028-1.742,8.355,8.355,0,0,0,.3-1.512,10.916,10.916,0,0,0,.034-1.289q0-9.872,0-19.742a12.477,12.477,0,0,0-.118-1.667,2.79,2.79,0,0,0-1.348-2.026c-.434-.276-.9-.5-1.345-.757-.49-.28-.638-.536-.574-.974.07-.471.252-.645.729-.617.536.033,1.068.148,1.6.161,2.709.064,5.417.164,8.126.142,3.181-.025,6.362-.164,9.543-.249.472-.012.946-.006,1.418.01A1.614,1.614,0,0,1-80.677,143.4Z" transform="translate(14.141 1.359)" fill="#040303"/>
      <path id="Path_143525" data-name="Path 143525" d="M-60.5,161.014v4.772c0,.173-.007.344,0,.516.043,1.031.551,1.491,1.573,1.4.448-.04.891-.134,1.338-.2.468-.069.724.037.878.353a.828.828,0,0,1-.215,1.047,9.372,9.372,0,0,1-4.051,2.019,1.912,1.912,0,0,1-1.861-.65c-.262-.285-.513-.58-.773-.866a.606.606,0,0,0-.8-.158c-.635.311-1.289.584-1.932.881a9.65,9.65,0,0,1-4.428.957,4.391,4.391,0,0,1-4.425-4.231,3.623,3.623,0,0,1,1.062-2.871,8,8,0,0,1,2.494-1.687,23.649,23.649,0,0,1,4.966-1.551c.524-.113,1.055-.21,1.564-.371a1.282,1.282,0,0,0,1.079-1.463,16.313,16.313,0,0,0-.092-2.633A2.935,2.935,0,0,0-67.66,153.8a1.88,1.88,0,0,0-.957.592,11.331,11.331,0,0,0-.819,1.226,7.779,7.779,0,0,1-.925,1.226,2.756,2.756,0,0,1-2.5.721,1.47,1.47,0,0,1-1-2.195,2.814,2.814,0,0,1,.723-.812,12.9,12.9,0,0,1,8.806-2.855,5.875,5.875,0,0,1,1.2.231,3.516,3.516,0,0,1,2.619,2.959,8.553,8.553,0,0,1,.122,1.474c.015,1.548.006,3.1.006,4.646Zm-3.534,3.746H-64c0-.623.009-1.246,0-1.87-.012-.666-.255-.9-.918-.839a10.311,10.311,0,0,0-1.454.267,9.4,9.4,0,0,0-3.433,1.4,2.682,2.682,0,0,0-1.086,3.062,2.161,2.161,0,0,0,1.69,1.676,6.343,6.343,0,0,0,4.538-.721,1.132,1.132,0,0,0,.638-1.106C-64.044,166.007-64.032,165.385-64.032,164.76Z" transform="translate(27.526 5.515)" fill="#030303"/>
      <path id="Path_143526" data-name="Path 143526" d="M-77.92,157.1c0,4.646.016,9.293-.007,13.938-.01,2.21.951,2.73,2.646,3.078.337.07.685.091,1.015.183a.763.763,0,0,1,.6.869.707.707,0,0,1-.793.676c-.557,0-1.117-.04-1.675-.077a44.777,44.777,0,0,0-5.931.121c-.536.034-1.073.064-1.611.08-.258.009-.523,0-.642-.307a.926.926,0,0,1,.189-1.009,2.559,2.559,0,0,1,.791-.413,2.061,2.061,0,0,0,1.557-2.111c.013-.213.01-.429.01-.645q0-10.582-.009-21.165a13.342,13.342,0,0,0-.206-2.175,2.74,2.74,0,0,0-1.631-2.031c-.326-.161-.676-.276-1-.45a.71.71,0,0,1-.161-1.223,1.847,1.847,0,0,1,.654-.393,20.051,20.051,0,0,0,3.926-1.921,7.266,7.266,0,0,1,1.153-.568.727.727,0,0,1,1.053.523,2.832,2.832,0,0,1,.089.825q-.083,7.1-.177,14.193Z" transform="translate(22.703 0.524)" fill="#030202"/>
      <path id="Path_143527" data-name="Path 143527" d="M-60.245,167.749c0-.58-.015-1.159.006-1.739.012-.3.091-.618.44-.714a.815.815,0,0,1,.9.355,3.1,3.1,0,0,1,.218.32,6.141,6.141,0,0,0,5.35,3.051,6.417,6.417,0,0,0,2.232-.244,2.2,2.2,0,0,0,.912-3.683,6.538,6.538,0,0,0-1.295-.945c-.866-.469-1.779-.852-2.654-1.308-1.083-.565-2.16-1.144-3.218-1.757-2.969-1.715-2.864-6.475.036-8.269a7.829,7.829,0,0,1,3.638-1.176,17.353,17.353,0,0,1,5.128.365c.209.049.417.1.621.167a1,1,0,0,1,.767.906c.159,1.059.417,2.105.633,3.156.1.511.025.647-.459.791a1.053,1.053,0,0,1-1.369-.493,10.919,10.919,0,0,0-1.053-1.3,5.156,5.156,0,0,0-5.289-1.316,1.814,1.814,0,0,0-1.49,1.356,2.207,2.207,0,0,0,.693,2.287,4.674,4.674,0,0,0,.968.629c1.1.535,2.222,1.024,3.317,1.566.98.484,1.953.985,2.9,1.532,2.987,1.727,3.153,6.7-.128,8.663a8.22,8.22,0,0,1-3.722,1.137,19.862,19.862,0,0,1-6.888-.741c-.021-.006-.042-.007-.063-.015-1.043-.322-1.089-.378-1.125-1.487-.012-.365,0-.73,0-1.1Z" transform="translate(34.854 5.477)" fill="#030303"/>
      <path id="Path_143528" data-name="Path 143528" d="M-46.494,169.895l1.109-.62.3.572c.86-.405,1.715-.983,2.536-.057a10.639,10.639,0,0,1,1.183-.422,1.213,1.213,0,0,1,1.667,1.28c.015.45,0,.9.007,1.353.009.562.021.571.571.767a1,1,0,0,1,.164.083c.016.009.019.036.028.055a4.675,4.675,0,0,1-2.07.04c.1-.085.162-.171.24-.194a.459.459,0,0,0,.34-.489,12.67,12.67,0,0,0-.036-1.542.777.777,0,0,0-.976-.766,2.936,2.936,0,0,0-.563.128.544.544,0,0,0-.444.608c.025.621.007,1.243.007,1.889l.718.328a4.418,4.418,0,0,1-2.084.048c.761-.2.629-.755.632-1.244a7.625,7.625,0,0,0-.037-1.028.766.766,0,0,0-1-.721,2.514,2.514,0,0,0-.548.18.582.582,0,0,0-.383.6c.016.408,0,.816.006,1.225.006.615.012.615.606.787a1.6,1.6,0,0,1,.228.118,5.354,5.354,0,0,1-2.192.115c.733-.231.63-.766.635-1.257,0-.237,0-.472,0-.709.007-.454-.039-.878-.639-.971Z" transform="translate(41.594 14.141)" fill="#0f0d0d"/>
      <path id="Path_143529" data-name="Path 143529" d="M-36.918,178.639c-.147.089-.2.147-.252.149-.62.006-1.238,0-1.859,0,0-.016-.018-.089-.006-.094a.8.8,0,0,0,.492-.924c-.028-.3,0-.6-.006-.9,0-.76,0-.76-.594-1.114.331-.374.368-.4,1.088-.676l.259.487a12.3,12.3,0,0,1,1.292-.462,1.2,1.2,0,0,1,1.28.466,4.13,4.13,0,0,1,.521-.237,4.328,4.328,0,0,1,.989-.244,1.143,1.143,0,0,1,1.342,1.207c.019.234.007.472.009.708,0,.258,0,.516,0,.773.009.539.01.538.514.733a1.651,1.651,0,0,1,.222.115c.013.007.016.037.024.058a4.985,4.985,0,0,1-2.013.045c0-.04-.012-.11,0-.115a.765.765,0,0,0,.5-.9c-.034-.362,0-.73-.015-1.1-.037-.672-.32-.931-.985-.881a2.315,2.315,0,0,0-.739.192.469.469,0,0,0-.238.335c-.022.7-.01,1.408-.01,2.083l.718.32a3.838,3.838,0,0,1-2.032.066,1.212,1.212,0,0,1,.246-.189.468.468,0,0,0,.317-.5c0-.493.015-.989-.012-1.481-.027-.462-.255-.773-.59-.821a1.347,1.347,0,0,0-1.244.368.711.711,0,0,0-.092.423c-.01.429-.009.858,0,1.289.009.526.015.524.554.681C-37.162,178.524-37.091,178.564-36.918,178.639Z" transform="translate(45.195 16.978)" fill="#141313"/>
      <path id="Path_143530" data-name="Path 143530" d="M-65.956,173.737l1.487-.675a27.952,27.952,0,0,1,.03,3.051c.027,1,.006,2.008.006,3.038l.73.119c-.288.475-.743.513-1.144.706l-.346-.553c-.262.109-.529.231-.8.331a1.414,1.414,0,0,1-1.688-.414,1.93,1.93,0,0,1-.28-2.117,1.806,1.806,0,0,1,1.783-1.141c.317.009.633.057,1.027.094,0-.608.018-1.18-.012-1.749-.007-.139-.155-.286-.271-.4A3.061,3.061,0,0,0-65.956,173.737Zm.788,4.279a2.362,2.362,0,0,1,0-.384c.1-.606-.232-.924-.925-1.058a.953.953,0,0,0-1.043.3,1.656,1.656,0,0,0,.757,2.365.867.867,0,0,0,1.208-.839Z" transform="translate(30.98 15.996)" fill="#0d0b0b"/>
      <path id="Path_143531" data-name="Path 143531" d="M-64.175,170.4c0-.6,0-1.158,0-1.71a.46.46,0,0,0-.285-.459c-.131-.061-.253-.137-.489-.267a7.111,7.111,0,0,1,1.524-.642v6.055l.714.124a1.838,1.838,0,0,1-1.173.665l-.322-.523c-.283.118-.548.241-.822.341a1.409,1.409,0,0,1-1.752-.541,1.9,1.9,0,0,1-.134-2.123,1.841,1.841,0,0,1,1.922-1.012C-64.738,170.339-64.487,170.364-64.175,170.4Zm-.013,2.716c0-.414,0-.863,0-1.311,0-.6-.143-.788-.712-.976a1.074,1.074,0,0,0-1.237.262,1.737,1.737,0,0,0,.234,2.026C-65.437,173.6-64.934,173.613-64.189,173.116Z" transform="translate(31.461 13.184)" fill="#110f0f"/>
      <path id="Path_143532" data-name="Path 143532" d="M-49.951,169.716l1.128-.5.377.612c.125-.064.237-.122.349-.177a1.7,1.7,0,0,1,1.983.143,1.783,1.783,0,0,1,.387,1.97,1.942,1.942,0,0,1-2.268,1.345c-.148-.024-.3-.042-.5-.072,0,.535,0,1.044,0,1.554,0,.231.153.338.35.4l.629.209a5.136,5.136,0,0,1-2.25.2c.694-.416.511-1.037.517-1.6.009-.924-.006-1.848.006-2.771C-49.24,170.511-49.194,169.988-49.951,169.716Zm3.613,1.731a6.706,6.706,0,0,0-.368-1.065.863.863,0,0,0-1.037-.437.954.954,0,0,0-.748.922,11.028,11.028,0,0,0,0,1.153c.007.133.064.326.159.377a1.527,1.527,0,0,0,1.407.168C-46.462,172.354-46.424,171.915-46.338,171.447Z" transform="translate(39.901 14.111)" fill="#111010"/>
      <path id="Path_143533" data-name="Path 143533" d="M-57.93,178.812c0,.475.015.924-.006,1.369a.563.563,0,0,0,.5.632,5.094,5.094,0,0,1,.5.185,4.928,4.928,0,0,1-2.25.136c.584-.294.541-.784.536-1.274-.012-1.052-.007-2.105,0-3.159,0-.486,0-.964-.726-1.18l1.131-.547.367.606c.113-.049.231-.1.344-.15a1.711,1.711,0,0,1,2.081.207,1.953,1.953,0,0,1,.229,2.116,1.929,1.929,0,0,1-1.913,1.153C-57.384,178.894-57.635,178.848-57.93,178.812Zm.013-1.6h-.01v.258c0,.706.08.806.766.915a2.858,2.858,0,0,0,.575.027.667.667,0,0,0,.633-.468,2.012,2.012,0,0,0-.156-1.791.914.914,0,0,0-.982-.463,1.028,1.028,0,0,0-.819.882A4.833,4.833,0,0,0-57.916,177.21Z" transform="translate(35.285 16.933)" fill="#0f0d0d"/>
      <path id="Path_143534" data-name="Path 143534" d="M-77.845,169.523l-.523.426.979,2.058c.253-.481.45-.833.623-1.2a.751.751,0,0,0-.27-1.058c-.1-.074-.2-.149-.3-.228-.01-.007,0-.039,0-.124h1.885l-.55.445a10.527,10.527,0,0,0,.815,1.973,3.965,3.965,0,0,0,.955-1.886l-.532-.41a3.836,3.836,0,0,1,1.8.033c-.615.2-.776.694-1,1.158-.383.811-.8,1.6-1.243,2.494a24.454,24.454,0,0,1-1.173-2.154c-.2.365-.383.694-.562,1.024s-.346.639-.55,1.018a2.488,2.488,0,0,1-.3-.358c-.41-.754-.8-1.521-1.219-2.268a10.8,10.8,0,0,0-.7-.968c.219-.246.566,0,.861-.045s.629-.052.945-.076Z" transform="translate(25.328 14.192)" fill="#111010"/>
      <path id="Path_143535" data-name="Path 143535" d="M-70.762,167.331v3.361c.3-.1.519-.174.738-.235a1.673,1.673,0,0,1,1.739.349,1.622,1.622,0,0,1,.34,1.736,2.067,2.067,0,0,1-1.766,1.477,2.74,2.74,0,0,1-1.748-.365V169.6c0-.171,0-.343,0-.514-.007-.709-.007-.709-.687-1.1A5.305,5.305,0,0,1-70.762,167.331Zm2.208,4.975a4.737,4.737,0,0,0-.235-.785,1.109,1.109,0,0,0-1.627-.466.683.683,0,0,0-.317.432,9.4,9.4,0,0,0,.024,1.4.686.686,0,0,0,.566.615A1.2,1.2,0,0,0-68.554,172.306Z" transform="translate(29.025 13.188)" fill="#0a0808"/>
      <path id="Path_143536" data-name="Path 143536" d="M-33.283,173.015h-2.058a1.276,1.276,0,0,0,.475-1.311,9.039,9.039,0,0,0-.057-1.027.84.84,0,0,0-1.04-.712c-.65.077-.93.346-.937.9-.006.387-.007.775,0,1.161.009.521.022.532.55.717.073.025.145.06.277.116-.346.289-.694.127-1,.167-.331.045-.666.055-.994.08-.015-.091-.037-.158-.025-.165a.919.919,0,0,0,.453-.973c-.022-.3,0-.6,0-.9,0-.7,0-.7-.641-1.111l1.141-.669.277.524a1.566,1.566,0,0,0,.174-.042,6.482,6.482,0,0,1,1.141-.405,1.085,1.085,0,0,1,1.372,1.134c.03.472.013.946.022,1.42.012.638.015.636.615.875C-33.49,172.816-33.45,172.872-33.283,173.015Z" transform="translate(45.615 14.147)" fill="#110e0e"/>
      <path id="Path_143537" data-name="Path 143537" d="M-74.714,175.605c.34-.147.624-.3.928-.4,1.041-.332,1.694.1,1.779,1.171a12.387,12.387,0,0,1,.021,1.351c-.015.435.075.767.575.842.067.009.124.082.207.142a4.1,4.1,0,0,1-2.067-.018c.65-.21.551-.711.548-1.17a8.163,8.163,0,0,0-.027-1.03c-.074-.566-.438-.8-1.068-.746s-.924.331-.934.9q-.009.548,0,1.1c.009.557.013.556.569.766a1.3,1.3,0,0,1,.218.139,4.5,4.5,0,0,1-2.084.124c.678-.31.575-.866.578-1.383,0-.15,0-.3,0-.451,0-.779,0-.779-.645-1.223l1.138-.662Z" transform="translate(27.081 16.972)" fill="#111010"/>
      <path id="Path_143538" data-name="Path 143538" d="M-51.047,173.054a1.717,1.717,0,0,1-1.932-1.547,1.941,1.941,0,0,1,1.624-2.125,3,3,0,0,1,.448-.031,1.683,1.683,0,0,1,1.9,1.572A1.933,1.933,0,0,1-50.6,173C-50.771,173.033-50.942,173.043-51.047,173.054Zm1.278-1.684a6.241,6.241,0,0,0-.3-.964,1.082,1.082,0,0,0-1.222-.612,1.119,1.119,0,0,0-.864,1.065,2.789,2.789,0,0,0,.113.881,1.124,1.124,0,0,0,1.311.866C-50.169,172.522-49.837,172.072-49.768,171.37Z" transform="translate(38.413 14.178)" fill="#0f0d0d"/>
      <path id="Path_143539" data-name="Path 143539" d="M-77.435,178.83a1.7,1.7,0,0,1-1.874-1.743,2.013,2.013,0,0,1,2.089-1.982,1.742,1.742,0,0,1,1.918,1.789A2.006,2.006,0,0,1-77.435,178.83Zm1.341-1.716a6.116,6.116,0,0,0-.305-.961,1.046,1.046,0,0,0-1.177-.571,1.028,1.028,0,0,0-.87.9,2.625,2.625,0,0,0,.064.945,1.157,1.157,0,0,0,1.305.965C-76.483,178.3-76.147,177.842-76.094,177.113Z" transform="translate(25.517 16.997)" fill="#110f0f"/>
      <path id="Path_143540" data-name="Path 143540" d="M-60.559,178.83a1.7,1.7,0,0,1-1.849-1.772,2.022,2.022,0,0,1,2.12-1.953,1.734,1.734,0,0,1,1.886,1.818A2.007,2.007,0,0,1-60.559,178.83Zm1.365-1.7a5.974,5.974,0,0,0-.262-.91,1.087,1.087,0,0,0-1.268-.632,1.087,1.087,0,0,0-.84,1.009,2.692,2.692,0,0,0,.094.884,1.164,1.164,0,0,0,1.286.913A1.2,1.2,0,0,0-59.194,177.13Z" transform="translate(33.797 16.997)" fill="#110f0f"/>
      <path id="Path_143541" data-name="Path 143541" d="M-54,170.52a22.418,22.418,0,0,1-2.692.958c.2.951.736,1.272,1.637.986.3-.094.575-.235.9-.371a1.764,1.764,0,0,1-1.845.982,1.644,1.644,0,0,1-1.591-1.336,2.015,2.015,0,0,1,1.061-2.268,1.426,1.426,0,0,1,1.418,0A9.3,9.3,0,0,1-54,170.52Zm-2.826.565c.5-.149.87-.241,1.226-.377.142-.054.344-.2.346-.311a.715.715,0,0,0-.234-.489.762.762,0,0,0-1.176.311A5.45,5.45,0,0,0-56.831,171.085Z" transform="translate(36.133 14.143)" fill="#151111"/>
      <path id="Path_143542" data-name="Path 143542" d="M-52.107,178.508a4.306,4.306,0,0,1-.581.225,3.03,3.03,0,0,1-.755.107.78.78,0,0,1-.757-.591.707.707,0,0,1,.32-.892,6.212,6.212,0,0,1,1.056-.453c.218-.08.45-.121.742-.2a6.929,6.929,0,0,0,0-.706.563.563,0,0,0-.451-.489c-.252-.073-.39.077-.532.259a1.41,1.41,0,0,1-.451.426.513.513,0,0,1-.434-.125c-.051-.043,0-.308.082-.38a2.28,2.28,0,0,1,1.9-.583.684.684,0,0,1,.593.736c.025.535,0,1.073,0,1.611,0,.228.03.456.048.7l.69.046C-51.023,178.848-51.517,179.036-52.107,178.508Zm.042-1.356a1.912,1.912,0,0,0-1.109.273.478.478,0,0,0-.183.621.677.677,0,0,0,.435.3c.609.1.854-.139.857-.764Z" transform="translate(37.795 16.985)" fill="#111010"/>
      <path id="Path_143543" data-name="Path 143543" d="M-71.171,170.521a21.866,21.866,0,0,1-2.692.961c.241.967.761,1.268,1.663.976.294-.094.574-.229.912-.365a1.854,1.854,0,0,1-1.944.974,1.643,1.643,0,0,1-1.529-1.408,2,2,0,0,1,1.089-2.195,1.424,1.424,0,0,1,1.42.01A9.356,9.356,0,0,1-71.171,170.521Zm-2.815.565c.511-.153.887-.247,1.249-.378.42-.152.468-.475.134-.778a.77.77,0,0,0-1.193.249A5,5,0,0,0-73.985,171.086Z" transform="translate(27.729 14.143)" fill="#151111"/>
      <path id="Path_143544" data-name="Path 143544" d="M-60.3,170.618c-.489.167-.9.316-1.325.45s-.857.256-1.278.381c.177.964.72,1.3,1.621,1.015.3-.092.578-.235.9-.37a1.735,1.735,0,0,1-1.842.974,1.6,1.6,0,0,1-1.587-1.411,1.98,1.98,0,0,1,1.135-2.226C-61.764,169.072-61.175,169.346-60.3,170.618Zm-2.756.466,1.064-.311c.061-.019.122-.037.182-.061.437-.173.487-.517.121-.809a.769.769,0,0,0-1.147.237A5.147,5.147,0,0,0-63.057,171.084Z" transform="translate(33.095 14.146)" fill="#151111"/>
      <path id="Path_143545" data-name="Path 143545" d="M-37.558,170.562a21.089,21.089,0,0,1-2.564.891c.058.76.419,1.128,1.117,1.074a4.571,4.571,0,0,0,.918-.252,1.041,1.041,0,0,1,.519-.072c-.076.112-.127.271-.232.325a4.658,4.658,0,0,1-1.167.493,1.67,1.67,0,0,1-2.09-1.308,1.972,1.972,0,0,1,1.45-2.375,1.525,1.525,0,0,1,1.636.621C-37.85,170.13-37.734,170.306-37.558,170.562Zm-2.743.52c.524-.156.915-.253,1.29-.392.355-.13.408-.407.168-.7a.774.774,0,0,0-1.271.191A5.362,5.362,0,0,0-40.3,171.082Z" transform="translate(44.236 14.15)" fill="#151111"/>
      <path id="Path_143546" data-name="Path 143546" d="M-32.831,177.231c.152.913.684,1.265,1.544,1.012.223-.066.432-.185.654-.264a3.186,3.186,0,0,1,.469-.073,2.9,2.9,0,0,1-.355.417,2.542,2.542,0,0,1-1.623.517,1.621,1.621,0,0,1-1.6-1.474,2.027,2.027,0,0,1,.592-1.824,1.646,1.646,0,0,1,2.557.294c.082.145.191.274.331.477A17.814,17.814,0,0,1-32.831,177.231Zm-.142-.463a1.524,1.524,0,0,0,.276,0,7.634,7.634,0,0,0,.915-.279c.155-.066.378-.234.375-.35a.779.779,0,0,0-.292-.514.713.713,0,0,0-1.077.291A4.562,4.562,0,0,0-32.972,176.768Z" transform="translate(47.834 16.979)" fill="#110e0e"/>
      <path id="Path_143547" data-name="Path 143547" d="M-44.732,178.149l.746.07c-.443.67-.848.741-1.429.323a9.332,9.332,0,0,1-1.208.3.83.83,0,0,1-.948-.6.794.794,0,0,1,.495-1,6.68,6.68,0,0,1,1.213-.411c.291-.076.445-.206.443-.523,0-.411-.142-.684-.434-.784a.45.45,0,0,0-.553.2,1.532,1.532,0,0,1-.435.45c-.112.061-.305-.03-.462-.052.025-.153-.007-.374.083-.45a2.283,2.283,0,0,1,1.845-.575.711.711,0,0,1,.642.766c.022.514,0,1.03,0,1.545Zm-.724-1.024a1.479,1.479,0,0,0-1.126.355.69.69,0,0,0-.148.56.594.594,0,0,0,.42.3c.623.115.894-.14.891-.79C-45.419,177.431-45.44,177.307-45.456,177.126Z" transform="translate(41.049 16.985)" fill="#110f0f"/>
      <path id="Path_143548" data-name="Path 143548" d="M-69.035,176.313a20.256,20.256,0,0,1-2.585.922c.158.894.679,1.253,1.5,1.024.341-.1.666-.247,1.132-.425-.119.226-.145.368-.226.416a5.072,5.072,0,0,1-.968.484,1.735,1.735,0,0,1-2.137-.717,2.14,2.14,0,0,1,.308-2.4,1.657,1.657,0,0,1,2.649.235A4.46,4.46,0,0,0-69.035,176.313Zm-2.743.527c.51-.148.916-.244,1.307-.384.346-.124.4-.423.158-.706a.758.758,0,0,0-1.269.2A5.3,5.3,0,0,0-71.778,176.84Z" transform="translate(28.825 16.98)" fill="#110e0e"/>
      <path id="Path_143549" data-name="Path 143549" d="M-54.847,167.968l1.36-.667c.024.241.049.383.051.526,0,1.609,0,3.218,0,4.827,0,.806,0,.8.736,1.106.03.012.042.069.061.1a4.041,4.041,0,0,1-2.092.034c.554-.244.545-.7.538-1.18-.016-1.073,0-2.146,0-3.218C-54.2,168.576-54.2,168.576-54.847,167.968Z" transform="translate(37.502 13.173)" fill="#110f0f"/>
      <path id="Path_143550" data-name="Path 143550" d="M-58.2,169.379l1.588.1a2.373,2.373,0,0,0-.809,1.143c-.411.818-.854,1.62-1.339,2.533-.226-.325-.395-.538-.533-.769-.32-.533-.629-1.074-.934-1.617a3.682,3.682,0,0,0-.857-1.317h1.867c.016.3-.365.222-.51.5A9.563,9.563,0,0,0-58.7,172.01a8.823,8.823,0,0,0,.94-1.9C-57.626,169.769-58.025,169.728-58.2,169.379Z" transform="translate(34.446 14.191)" fill="#141313"/>
      <path id="Path_143551" data-name="Path 143551" d="M-40.572,178.61a1.489,1.489,0,0,1-1.782.4.867.867,0,0,1-.381-.772c-.007-.535-.019-1.071-.007-1.608.009-.384-.013-.732-.563-.84l1.277-1.305.116.922,1.214.08c-.228.754-.9.244-1.295.581,0,.673-.007,1.393,0,2.114a.45.45,0,0,0,.5.469C-41.216,178.652-40.941,178.627-40.572,178.61Z" transform="translate(43.156 16.692)" fill="#0d0b0b"/>
      <path id="Path_143552" data-name="Path 143552" d="M-51.528,175.676l1.283-1.049.118.715,1.147.061c.016.377-.186.462-.477.456-.231,0-.463,0-.781,0a14.961,14.961,0,0,0,.039,2.35.413.413,0,0,0,.453.365c.288.013.577,0,.93,0a.941.941,0,0,1-.806.48c-1.018.146-1.384-.291-1.353-1.122.015-.407,0-.815,0-1.222C-50.968,176.287-50.913,175.844-51.528,175.676Z" transform="translate(39.128 16.763)" fill="#0d0b0b"/>
      <path id="Path_143553" data-name="Path 143553" d="M-62.637,178.821h-2.025c0-.083-.021-.189,0-.2a.865.865,0,0,0,.471-1.013c-.019-.192,0-.387,0-.581,0-.818,0-.818-.638-1.326.194-.11.367-.207.538-.307s.364-.219.6-.359l.261.59a8.343,8.343,0,0,1,1.038-.463c.407-.121.606.109.542.532-.037.258-.167.387-.435.349-.17-.024-.34-.061-.51-.076-.4-.034-.589.086-.617.471-.037.514-.016,1.031-.025,1.548,0,.261.152.38.371.459.164.06.323.133.486.2Z" transform="translate(32.611 16.963)" fill="#151414"/>
      <path id="Path_143554" data-name="Path 143554" d="M-34.713,169.945l1.164-1.094.124.742h1.144c-.106.481-.106.481-1.231.559a15.52,15.52,0,0,0,.031,2.338c.03.265.27.328.486.334.274.007.55-.034.921-.063-.128.153-.192.3-.3.343a2.992,2.992,0,0,1-.861.226.89.89,0,0,1-1.037-.957c-.025-.687,0-1.374,0-2.1Z" transform="translate(47.366 13.933)" fill="#151414"/>
      <path id="Path_143555" data-name="Path 143555" d="M-41.089,175.791l1.46-.735a2.763,2.763,0,0,1,.089.457c0,.709.013,1.42-.012,2.129-.016.438.073.761.562.858.063.012.107.113.165.18a3.971,3.971,0,0,1-1.932.109c-.006-.04-.025-.11-.013-.116.471-.226.5-.638.472-1.083a3.307,3.307,0,0,1,0-.516A1.042,1.042,0,0,0-41.089,175.791Z" transform="translate(44.243 16.973)" fill="#141313"/>
      <path id="Path_143556" data-name="Path 143556" d="M-32.393,173.731c.022-.1.015-.232.073-.305.106-.13.267-.215.38-.341.3-.338.285-.556-.048-.872-.061-.06-.139-.1-.194-.168a.552.552,0,0,1,.064-.842.574.574,0,0,1,.836.182,1.063,1.063,0,0,1,.139.483A1.774,1.774,0,0,1-32.393,173.731Z" transform="translate(48.503 15.032)" fill="#151414"/>
      <path id="Path_143557" data-name="Path 143557" d="M-40.589,174.2a.585.585,0,0,1,.589-.553.431.431,0,0,1,.407.475.549.549,0,0,1-.581.544A.424.424,0,0,1-40.589,174.2Z" transform="translate(44.487 16.28)" fill="#151111"/>
      <path id="Path_143558" data-name="Path 143558" d="M-129.373,148.827a2.152,2.152,0,0,0,1.278-.317,5.084,5.084,0,0,1,1.38-.434,5.575,5.575,0,0,1-2.4,1Z" transform="translate(0.988 3.754)" fill="#c7d1d1"/>
      <path id="Path_143559" data-name="Path 143559" d="M-97.117,174.306c-.082.414.384.036.417.343-.076.228-.24.364-.49.152a.278.278,0,0,0-.387-.012Z" transform="translate(16.566 16.605)" fill="#d1dada"/>
      <path id="Path_143560" data-name="Path 143560" d="M-112.236,149.09l.161-.167.523.517-.162.164Z" transform="translate(9.384 4.169)" fill="#352c2c"/>
      <path id="Path_143561" data-name="Path 143561" d="M-96.875,173.958l-.1.089Z" transform="translate(16.863 16.435)" fill="#d1dada"/>
      <path id="Path_143562" data-name="Path 143562" d="M-96.779,173.874l-.107.1Z" transform="translate(16.905 16.394)" fill="#d1dada"/>
      <path id="Path_143563" data-name="Path 143563" d="M-97.565,174.65l-.1.1Z" transform="translate(16.524 16.774)" fill="#d1dada"/>
      <path id="Path_143564" data-name="Path 143564" d="M-97.155,174.218a.076.076,0,0,1-.077.079Z" transform="translate(16.735 16.562)" fill="#d1dada"/>
      <path id="Path_143565" data-name="Path 143565" d="M-97.067,174.131a.076.076,0,0,1-.079.079Z" transform="translate(16.778 16.52)" fill="#d1dada"/>
      <path id="Path_143566" data-name="Path 143566" d="M-96.976,174.044l-.083.08Z" transform="translate(16.82 16.477)" fill="#d1dada"/>
      <path id="Path_143567" data-name="Path 143567" d="M-116.959,170.155a1.208,1.208,0,0,1,.329.021c.3.11.6.229.888.367.623.3,1.238.606,1.868.916C-114.554,172.038-116.253,171.143-116.959,170.155Z" transform="translate(7.07 14.572)" fill="#e5ebeb"/>
      <path id="Path_143568" data-name="Path 143568" d="M-125.964,146.427a10.116,10.116,0,0,1,2.473-.8c.471-.094.665.295,1.036.63-.679.109-1.262-.082-1.831-.015s-1.11.213-1.666.325Z" transform="translate(2.658 2.55)" fill="#dde1e1"/>
      <path id="Path_143569" data-name="Path 143569" d="M-118.23,147.719l-.121.1a5.634,5.634,0,0,1,.632.754.656.656,0,0,1,.037.581c-.088.128-.364.173-.557.174a2.6,2.6,0,0,1-.614-.143,1.353,1.353,0,0,1,.432-1.453Z" transform="translate(6.116 3.579)" fill="#111010"/>
      <path id="Path_143570" data-name="Path 143570" d="M-112.65,171.014c-.727.288-1.62.083-3.184-.732a1.332,1.332,0,0,1,1.283.036,8.277,8.277,0,0,0,1.745.6A.771.771,0,0,1-112.65,171.014Z" transform="translate(7.621 14.562)" fill="#dde1e1"/>
      <path id="Path_143571" data-name="Path 143571" d="M-113.629,173.432a2.951,2.951,0,0,1-2.081-.979A2.818,2.818,0,0,1-113.629,173.432Z" transform="translate(7.682 15.696)" fill="#dde1e1"/>
      <path id="Path_143572" data-name="Path 143572" d="M-111.885,149.09l.521.514-.082.642c-.31-.273-.536-.483-.776-.678-.221-.177-.454-.337-.73-.538C-112.5,148.793-112.2,149.011-111.885,149.09Z" transform="translate(9.033 4.169)" fill="#dde1e1"/>
      <path id="Path_143573" data-name="Path 143573" d="M-103.865,177.159c-.066-.027-.147-.094-.191-.073-.146.069-.308.136-.368-.058a.539.539,0,0,1,.058-.447,1.252,1.252,0,0,1,1.216-.431c-.061.374-.378.505-.6.714-.088.08-.31.113-.131.31Z" transform="translate(13.201 17.495)" fill="#e5ebeb"/>
      <path id="Path_143574" data-name="Path 143574" d="M-117.825,169.354a2.625,2.625,0,0,1,1.578.684C-116.845,169.971-117.46,169.948-117.825,169.354Z" transform="translate(6.646 14.179)" fill="#c7d1d1"/>
      <path id="Path_143575" data-name="Path 143575" d="M-114.926,176.447l-.273.136a6.777,6.777,0,0,1-1.746-1.123A6.545,6.545,0,0,1-114.926,176.447Z" transform="translate(7.077 17.17)" fill="#c7d1d1"/>
      <path id="Path_143576" data-name="Path 143576" d="M-114.033,172.027a1.707,1.707,0,0,1-1.62-.584A2.3,2.3,0,0,1-114.033,172.027Z" transform="translate(7.71 15.202)" fill="#dde1e1"/>
      <path id="Path_143577" data-name="Path 143577" d="M-124.176,144.031c.2-.55.73-.65,1.326-.241A1.65,1.65,0,0,1-124.176,144.031Z" transform="translate(3.534 1.531)" fill="#e5ebeb"/>
      <path id="Path_143578" data-name="Path 143578" d="M-127.554,156.841a.439.439,0,0,1,.608-.256.667.667,0,0,1,.423.736C-126.927,157.232-127.313,157.245-127.554,156.841Z" transform="translate(1.879 7.902)" fill="#dde1e1"/>
      <path id="Path_143579" data-name="Path 143579" d="M-127.6,155.9a1.508,1.508,0,0,1,1.357.369C-126.69,156.609-126.99,156.53-127.6,155.9Z" transform="translate(1.859 7.577)" fill="#dde1e1"/>
      <path id="Path_143580" data-name="Path 143580" d="M-101.854,177.941a1.185,1.185,0,0,1,1.159-.867A1.833,1.833,0,0,1-101.854,177.941Z" transform="translate(14.471 17.962)" fill="#dde1e1"/>
      <path id="Path_143581" data-name="Path 143581" d="M-128.742,156.524c.446.158.429.556.56.93C-128.875,157.272-128.985,157.078-128.742,156.524Z" transform="translate(1.239 7.893)" fill="#e5ebeb"/>
      <path id="Path_143582" data-name="Path 143582" d="M-103.959,176.883l.611-.167c-.265.714-.413.816-.945.639l.352-.487Z" transform="translate(13.276 17.786)" fill="#dde1e1"/>
      <path id="Path_143583" data-name="Path 143583" d="M-113.74,174.124c.791-.153.878-.112.928.417A1.169,1.169,0,0,1-113.74,174.124Z" transform="translate(8.647 16.478)" fill="#d1dada"/>
      <path id="Path_143584" data-name="Path 143584" d="M-118.056,165.685l-.852-.42C-118.321,164.955-118.162,165.027-118.056,165.685Z" transform="translate(6.115 12.089)" fill="#c7d1d1"/>
      <path id="Path_143585" data-name="Path 143585" d="M-102.451,176.665c-.282.462-.292.469-.775.583C-103.081,176.689-102.988,176.619-102.451,176.665Z" transform="translate(13.799 17.755)" fill="#dde1e1"/>
      <path id="Path_143586" data-name="Path 143586" d="M-112.693,177l-.387-.148c.1-.033.27-.058.276-.1.028-.244.2-.24.367-.25.128-.007.168.051.273.319Z" transform="translate(8.971 17.678)" fill="#c7d1d1"/>
      <path id="Path_143587" data-name="Path 143587" d="M-102.252,177.027c.031.07.052.094.046.107-.1.262-.244.493-.569.5-.037,0-.115-.092-.107-.131C-102.816,177.137-102.529,177.094-102.252,177.027Z" transform="translate(13.967 17.939)" fill="#c7d1d1"/>
      <path id="Path_143588" data-name="Path 143588" d="M-111.319,174.439l1.21-.158C-110.514,174.813-110.686,174.84-111.319,174.439Z" transform="translate(9.833 16.593)" fill="#dde1e1"/>
      <path id="Path_143589" data-name="Path 143589" d="M-124.605,160.6c-.417.517-.425.517-.979.076Z" transform="translate(2.844 9.89)" fill="#d1dada"/>
      <path id="Path_143590" data-name="Path 143590" d="M-119.026,169.326c-.4.359-.7.124-1.015-.007l.024-.148Z" transform="translate(5.56 14.09)" fill="#a9b5b5"/>
      <path id="Path_143591" data-name="Path 143591" d="M-110.264,175.14a2.2,2.2,0,0,1-1.517-.2A2.4,2.4,0,0,1-110.264,175.14Z" transform="translate(9.607 16.9)" fill="#787676"/>
      <path id="Path_143592" data-name="Path 143592" d="M-123.224,165.731l-.733-.612c.505-.109.684.185.867.472Z" transform="translate(3.642 12.093)" fill="#c7d1d1"/>
      <path id="Path_143593" data-name="Path 143593" d="M-123.009,165.807a1.487,1.487,0,0,1,1.189.694A2.1,2.1,0,0,1-123.009,165.807Z" transform="translate(4.106 12.441)" fill="#d1dada"/>
      <path id="Path_143594" data-name="Path 143594" d="M-114.818,175.368l.738-.063c-.17.243-.252.441-.314.434a1.567,1.567,0,0,1-.456-.194Z" transform="translate(8.103 17.095)" fill="#c7d1d1"/>
      <path id="Path_143595" data-name="Path 143595" d="M-113.923,174.016c-.292.238-.535.069-.781-.082l.01-.142.773.046Z" transform="translate(8.175 16.354)" fill="#a9b5b5"/>
      <path id="Path_143596" data-name="Path 143596" d="M-116.844,173.967l.988-.225C-116.285,174.252-116.285,174.252-116.844,173.967Z" transform="translate(7.127 16.329)" fill="#c7d1d1"/>
      <path id="Path_143597" data-name="Path 143597" d="M-129.228,152.709l.659-.158C-128.784,153.084-128.784,153.084-129.228,152.709Z" transform="translate(1.059 5.947)" fill="#c7d1d1"/>
      <path id="Path_143598" data-name="Path 143598" d="M-118.083,169.782c-.463.259-.666-.082-.927-.171C-118.693,169.459-118.444,169.6-118.083,169.782Z" transform="translate(6.065 14.274)" fill="#c7d1d1"/>
      <path id="Path_143599" data-name="Path 143599" d="M-127.575,157.279a.528.528,0,0,1,.732.316A.859.859,0,0,1-127.575,157.279Z" transform="translate(1.869 8.239)" fill="#c7d1d1"/>
      <path id="Path_143600" data-name="Path 143600" d="M-123.3,167.238l-.636-.721.1-.094a1.166,1.166,0,0,1,.668.688Z" transform="translate(3.653 12.743)" fill="#a9b5b5"/>
      <path id="Path_143601" data-name="Path 143601" d="M-115.722,172.884c-.279.331-.489.067-.772-.024A.477.477,0,0,1-115.722,172.884Z" transform="translate(7.298 15.806)" fill="#c7d1d1"/>
      <path id="Path_143602" data-name="Path 143602" d="M-98.969,178.646c-.32.419-.32.419-.782.164Z" transform="translate(15.501 18.732)" fill="#c7d1d1"/>
      <path id="Path_143603" data-name="Path 143603" d="M-102.333,177.466l.864-.53C-101.582,177.313-101.81,177.505-102.333,177.466Z" transform="translate(14.236 17.894)" fill="#c7d1d1"/>
      <path id="Path_143604" data-name="Path 143604" d="M-126.586,154.742c.165-.085.238-.152.308-.149a.947.947,0,0,1,.337.1c.022.01.019.158,0,.162a1.016,1.016,0,0,1-.343.063C-126.352,154.91-126.421,154.839-126.586,154.742Z" transform="translate(2.353 6.947)" fill="#c7d1d1"/>
      <path id="Path_143605" data-name="Path 143605" d="M-114.473,172.567c.323-.188.5-.131.687.128C-114.068,172.846-114.247,172.752-114.473,172.567Z" transform="translate(8.288 15.699)" fill="#c7d1d1"/>
      <path id="Path_143606" data-name="Path 143606" d="M-126.578,141.473l.216.13.218.72A.813.813,0,0,1-126.578,141.473Z" transform="translate(2.351 0.519)" fill="#a9b5b5"/>
      <path id="Path_143607" data-name="Path 143607" d="M-122.632,161.225c-.39-.077-.566-.148-.463-.408.021-.052.186-.107.191-.1C-122.827,160.839-122.763,160.97-122.632,161.225Z" transform="translate(4.049 9.946)" fill="#a9b5b5"/>
      <path id="Path_143608" data-name="Path 143608" d="M-105.539,176l-.7.448-.1-.156.669-.44Z" transform="translate(12.275 17.363)" fill="#a9b5b5"/>
      <path id="Path_143609" data-name="Path 143609" d="M-118.053,171.839l-.612-.228.057-.148.609.235Z" transform="translate(6.234 15.213)" fill="#a9b5b5"/>
      <path id="Path_143610" data-name="Path 143610" d="M-91.679,176.536l.3-.425C-91.3,176.509-91.3,176.509-91.679,176.536Z" transform="translate(19.456 17.49)" fill="#c7d1d1"/>
      <path id="Path_143611" data-name="Path 143611" d="M-127,155.079l.37-.17.1.27-.386.136Z" transform="translate(2.151 7.102)" fill="#dde1e1"/>
      <path id="Path_143612" data-name="Path 143612" d="M-108.308,177.135l.31-.42c.08.052.143.072.145.1C-107.822,177.1-107.977,177.158-108.308,177.135Z" transform="translate(11.309 17.786)" fill="#d1dada"/>
      <path id="Path_143613" data-name="Path 143613" d="M-123.959,163.886l.426-.025,0,.222-.423-.012Z" transform="translate(3.64 11.488)" fill="#a9b5b5"/>
      <path id="Path_143614" data-name="Path 143614" d="M-108.829,171.533c-.171-.209-.292-.3-.276-.344a1.021,1.021,0,0,1,.216-.258c.064.091.162.176.183.276C-108.69,171.287-108.769,171.385-108.829,171.533Z" transform="translate(10.918 14.952)" fill="#dde1e1"/>
      <path id="Path_143615" data-name="Path 143615" d="M-128,159.05l.279.8-.118.043-.31-.7Z" transform="translate(1.587 9.131)" fill="#787676"/>
      <path id="Path_143616" data-name="Path 143616" d="M-107.8,172.1l-.562-.162C-108.038,171.709-107.886,171.775-107.8,172.1Z" transform="translate(11.285 15.379)" fill="#c7d1d1"/>
      <path id="Path_143617" data-name="Path 143617" d="M-125.782,159.726l.481-.052c-.125.328-.3.264-.472.207Z" transform="translate(2.747 9.437)" fill="#a9b5b5"/>
      <path id="Path_143618" data-name="Path 143618" d="M-93.789,176.628l.335-.356c.052.1.1.143.1.191C-93.344,176.734-93.467,176.8-93.789,176.628Z" transform="translate(18.422 17.569)" fill="#d1dada"/>
      <path id="Path_143619" data-name="Path 143619" d="M-95.136,173.911c-.352-.112-.332-.256-.051-.472Z" transform="translate(17.634 16.181)" fill="#c7d1d1"/>
      <path id="Path_143620" data-name="Path 143620" d="M-128.092,158.17l-.106.4-.159-.517.094-.057Z" transform="translate(1.486 8.614)" fill="#e5ebeb"/>
      <path id="Path_143621" data-name="Path 143621" d="M-116.514,168.478a.946.946,0,0,1-.291.057c-.051-.01-.088-.08-.131-.125.061-.045.121-.125.18-.125S-116.642,168.369-116.514,168.478Z" transform="translate(7.081 13.655)" fill="#a9b5b5"/>
      <path id="Path_143622" data-name="Path 143622" d="M-127.376,159.923l-.088-.256Z" transform="translate(1.923 9.433)" fill="#e5ebeb"/>
      <path id="Path_143623" data-name="Path 143623" d="M-127.508,159.521a.149.149,0,0,1-.043-.112Z" transform="translate(1.881 9.307)" fill="#e5ebeb"/>
      <path id="Path_143624" data-name="Path 143624" d="M-126.5,141.208l-.058.153Z" transform="translate(2.367 0.389)" fill="#a9b5b5"/>
      <path id="Path_143625" data-name="Path 143625" d="M-121.272,158.492l.934,1.818.148-.058c-.058-.653-.523-1.19-.656-1.848a6.039,6.039,0,0,1,2.275,2.479.594.594,0,0,0-.323.848l-.533-.31-.49.437c-.411-.091-.565-.441-.727-.754a7.914,7.914,0,0,1-.821-2.493Z" transform="translate(4.862 8.814)" fill="#0f0d0d"/>
      <path id="Path_143626" data-name="Path 143626" d="M-117.781,157.809l.365,1.034c.124.051.368.073.438.2a1.306,1.306,0,0,1,.073.617,1.675,1.675,0,0,0,.216,1.007.984.984,0,0,1-.384,1.177A3.237,3.237,0,0,1-117.781,157.809Z" transform="translate(6.462 8.523)" fill="#0f0d0d"/>
      <path id="Path_143627" data-name="Path 143627" d="M-116.717,152.108a.964.964,0,0,1,.2,1.067,2.9,2.9,0,0,0-.177,1.359c.541-.448.274-1.2.827-1.672a4.859,4.859,0,0,1-.667,2.329.6.6,0,0,1-.447.28.606.606,0,0,1-.378-.375,1.907,1.907,0,0,1-.082-.822,11.9,11.9,0,0,1,.353-1.558A2.756,2.756,0,0,1-116.717,152.108Z" transform="translate(6.826 5.73)" fill="#141313"/>
      <path id="Path_143628" data-name="Path 143628" d="M-123.79,156.713c.35.18.667.335.976.505a.986.986,0,0,1,.533,1.128.746.746,0,0,1-.335.489.647.647,0,0,1-.56-.139c-.468-.463-.894-.968-1.418-1.548.575.028.816.448,1.232.568C-123.254,157.285-123.7,157.078-123.79,156.713Z" transform="translate(3.329 7.986)" fill="#151111"/>
      <path id="Path_143629" data-name="Path 143629" d="M-120.459,157.569a3.505,3.505,0,0,1-.471-.092c-.486-.161-.968-.332-1.448-.51a1.286,1.286,0,0,1-.821-1.284A5.477,5.477,0,0,1-120.459,157.569Z" transform="translate(4.013 7.481)" fill="#151111"/>
      <path id="Path_143630" data-name="Path 143630" d="M-122.117,154.374l1.28.9-.329.308.584.653a3.67,3.67,0,0,1-1.64-.839l-.058-.866Z" transform="translate(4.463 6.84)" fill="#141313"/>
      <path id="Path_143631" data-name="Path 143631" d="M-123.834,156.179a5.332,5.332,0,0,1,2.108,1.408.95.95,0,0,1-.989-.066c-.443-.356-.825-.784-1.232-1.182Z" transform="translate(3.646 7.724)" fill="#151414"/>
      <path id="Path_143632" data-name="Path 143632" d="M-111.908,168.893a3.364,3.364,0,0,1,1.26,2.064A2.287,2.287,0,0,1-111.908,168.893Z" transform="translate(9.544 13.953)" fill="#151414"/>
      <path id="Path_143633" data-name="Path 143633" d="M-120.246,156.5a7.655,7.655,0,0,1-2.525-.918A3.653,3.653,0,0,1-120.246,156.5Z" transform="translate(4.223 7.421)" fill="#352c2c"/>
      <path id="Path_143634" data-name="Path 143634" d="M-114.6,165.012a2.48,2.48,0,0,1-.547-1.564C-114.569,163.725-114.461,164.034-114.6,165.012Z" transform="translate(7.957 11.286)" fill="#352c2c"/>
      <path id="Path_143635" data-name="Path 143635" d="M-121.169,154.048c.282.234.389.447.206.773-.253-.083-.46-.2-.474-.459C-121.443,154.267-121.273,154.163-121.169,154.048Z" transform="translate(4.876 6.68)" fill="#352c2c"/>
      <path id="Path_143636" data-name="Path 143636" d="M-115.976,157.955l-.243,1.3-.136-.025a3.079,3.079,0,0,1,.194-1.311Z" transform="translate(7.362 8.578)" fill="#352c2c"/>
      <path id="Path_143637" data-name="Path 143637" d="M-113.057,167.229l.666.8C-112.91,168.116-113.009,168-113.057,167.229Z" transform="translate(8.982 13.138)" fill="#151414"/>
      <path id="Path_143638" data-name="Path 143638" d="M-121.323,160.011c-.614-.434-.63-.507-.234-.866C-121.278,159.354-121.275,159.632-121.323,160.011Z" transform="translate(4.686 9.177)" fill="#151414"/>
      <path id="Path_143639" data-name="Path 143639" d="M-116.665,158.747l.043-.909.1,0v.928Z" transform="translate(7.214 8.536)" fill="#352c2c"/>
      <path id="Path_143640" data-name="Path 143640" d="M-122.312,157.593a.953.953,0,0,1,.578.715C-122.19,158.182-122.19,158.182-122.312,157.593Z" transform="translate(4.447 8.417)" fill="#787676"/>
      <path id="Path_143641" data-name="Path 143641" d="M-122.472,159.54c-.3-.283-.249-.518-.06-.855C-122.413,159.019-122.3,159.254-122.472,159.54Z" transform="translate(4.264 8.952)" fill="#352c2c"/>
      <path id="Path_143642" data-name="Path 143642" d="M-114.132,165.725v.669C-114.478,166.148-114.372,165.932-114.132,165.725Z" transform="translate(8.347 12.401)" fill="#352c2c"/>
      <path id="Path_143643" data-name="Path 143643" d="M-119,158.609l-.058-.781.165-.021.121.785Z" transform="translate(6.039 8.522)" fill="#787676"/>
      <path id="Path_143644" data-name="Path 143644" d="M-122.015,154.578l-.164.159-.31-.726.091-.055Z" transform="translate(4.361 6.636)" fill="#787676"/>
      <path id="Path_143645" data-name="Path 143645" d="M-117.4,156.464l-.361-.775.127-.061.383.764Z" transform="translate(6.677 7.454)" fill="#787676"/>
      <path id="Path_143646" data-name="Path 143646" d="M-115.508,161.1l.036.521c-.112-.06-.194-.08-.2-.11-.013-.139-.006-.28-.006-.422Z" transform="translate(7.698 10.132)" fill="#787676"/>
      <path id="Path_143647" data-name="Path 143647" d="M-112.274,168.9l-.133-.563C-112.146,168.567-112.146,168.567-112.274,168.9Z" transform="translate(9.3 13.683)" fill="#a9b5b5"/>
      <path id="Path_143648" data-name="Path 143648" d="M-121.254,158.594l-.194.119-.055-.484.092-.033Z" transform="translate(4.844 8.712)" fill="#352c2c"/>
      <path id="Path_143649" data-name="Path 143649" d="M-123.271,151.623c-.46.11-.715-.2-1.03-.35s-.626-.255-.945-.384c.17-.688.568-.857,1.171-.456A1.948,1.948,0,0,1-123.271,151.623Z" transform="translate(3.01 4.804)" fill="#141313"/>
      <path id="Path_143650" data-name="Path 143650" d="M-123.014,149.671a3.533,3.533,0,0,1,3.486-.666,1.492,1.492,0,0,1-1.369.334,1.659,1.659,0,0,0-1.241.069C-122.379,149.5-122.633,149.557-123.014,149.671Z" transform="translate(4.104 4.111)" fill="#151414"/>
      <path id="Path_143651" data-name="Path 143651" d="M-123.025,150.27c-.611.368-.892.314-1.368-.243.033-.273.218-.35.454-.328A.977.977,0,0,1-123.025,150.27Z" transform="translate(3.428 4.548)" fill="#151414"/>
      <path id="Path_143652" data-name="Path 143652" d="M-117.635,149.112c-.033-.754.392-1.1,1.109-1.013.027.3-.223.347-.413.386A.787.787,0,0,0-117.635,149.112Z" transform="translate(6.738 3.759)" fill="#151414"/>
      <path id="Path_143653" data-name="Path 143653" d="M-125.178,149.937l.511-.182C-124.773,150.105-124.931,150.141-125.178,149.937Z" transform="translate(3.043 4.577)" fill="#352c2c"/>
      <path id="Path_143654" data-name="Path 143654" d="M-122.939,149.494c-.089.08-.177.161-.271.235,0,0-.085-.067-.08-.076.058-.106.125-.206.189-.307Z" transform="translate(3.968 4.376)" fill="#787676"/>
    </g>
  </g>
</svg>
