<svg xmlns="http://www.w3.org/2000/svg" width="218.878" height="166.858" viewBox="0 0 218.878 166.858">
  <g id="Group_61781" data-name="Group 61781" transform="translate(-1548 -7499)">
    <rect id="Rectangle_30119" data-name="Rectangle 30119" width="218.878" height="166.858" transform="translate(1548 7499)" fill="none"/>
    <g id="Layer_2" data-name="Layer 2" transform="translate(1568 7525)">
      <g id="Layer_1" data-name="Layer 1">
        <path id="Path_77810" data-name="Path 77810" d="M9.688,30.595c-.348,0-.438-.181-.257-.438L11.26,27.8a1.255,1.255,0,0,1,.967-.438h31.2c.348,0,.438.257.257.529l-1.512,2.267a1.33,1.33,0,0,1-.877.529Z" transform="translate(4.779 13.999)" fill="#00acd7"/>
        <path id="Path_77811" data-name="Path 77811" d="M.948,35.9c-.348,0-.438-.181-.257-.438L2.52,33.149a1.255,1.255,0,0,1,.967-.438H43.35a.408.408,0,0,1,.438.529l-.7,2.1a.771.771,0,0,1-.786.529Z" transform="translate(0.307 16.735)" fill="#00acd7"/>
        <path id="Path_77812" data-name="Path 77812" d="M14.948,41.235c-.348,0-.438-.257-.257-.529l1.224-2.192a1.164,1.164,0,0,1,.8-.514h17.55c.348,0,.529.257.529.6l-.181,2.1a.65.65,0,0,1-.6.6Z" transform="translate(7.47 19.443)" fill="#00acd7"/>
        <path id="Path_77813" data-name="Path 77813" d="M96.73,34.806c-5.5,1.406-9.266,2.449-14.693,3.855-1.315.348-1.406.438-2.54-.877a11.7,11.7,0,0,0-4.112-3.326c-5.5-2.706-10.839-1.92-15.827,1.315A18.593,18.593,0,0,0,50.64,52.4,13.711,13.711,0,0,0,62.446,66.127a16.144,16.144,0,0,0,14.829-5.79c.786-.967,1.512-2.01,2.358-3.235H62.809c-1.829,0-2.267-1.134-1.663-2.63,1.134-2.706,3.235-7.256,4.459-9.523A2.358,2.358,0,0,1,67.8,43.543h31.82c-.181,2.358-.181,4.716-.529,7.09a37.292,37.292,0,0,1-7.165,17.142A36.431,36.431,0,0,1,67,82.634,30.974,30.974,0,0,1,43.475,76.86a27.466,27.466,0,0,1-11.1-19.41,34.314,34.314,0,0,1,7.437-25.622A38.8,38.8,0,0,1,64.305,16.711c8.223-1.512,16.084-.529,23.174,4.278A27.406,27.406,0,0,1,97.622,33.324C98.121,34.11,97.773,34.534,96.73,34.806Z" transform="translate(15.807 8.216)" fill="#00acd7"/>
        <path id="Path_77814" data-name="Path 77814" d="M104.556,82.878a32.8,32.8,0,0,1-21.314-7.694,27.421,27.421,0,0,1-9.448-16.87,33.377,33.377,0,0,1,7.09-26.408c6.379-8.39,14.073-12.758,24.489-14.6,8.9-1.6,17.323-.7,24.882,4.444a27.21,27.21,0,0,1,12.335,19.5,33.755,33.755,0,0,1-10.052,29.643,40.058,40.058,0,0,1-20.982,11.186C109.212,82.531,106.854,82.622,104.556,82.878Zm20.815-35.327a25.172,25.172,0,0,0-.257-2.887A14.406,14.406,0,0,0,107.277,33.04,19.107,19.107,0,0,0,91.994,48.262a14.406,14.406,0,0,0,8.027,16.522,16.023,16.023,0,0,0,14.255-.529,19.137,19.137,0,0,0,11.111-16.628Z" transform="translate(36.039 8.485)" fill="#00acd7"/>
        <rect id="Rectangle_30076" data-name="Rectangle 30076" width="179.897" height="115.641" fill="rgba(0,0,0,0)"/>
      </g>
    </g>
  </g>
</svg>
