<svg xmlns="http://www.w3.org/2000/svg" width="218.878" height="166.858" viewBox="0 0 218.878 166.858">
  <g id="Group_61782" data-name="Group 61782" transform="translate(-154 -7750)">
    <rect id="Rectangle_30118" data-name="Rectangle 30118" width="218.878" height="166.858" transform="translate(154 7750)" fill="none"/>
    <g id="html" transform="translate(212 7761)">
      <path id="Path_78067" data-name="Path 78067" d="M9.28,114.331,0,10H102.081L92.8,114.331,50.9,125.86Z" transform="translate(0 18.121)" fill="#e44d26"/>
      <path id="Path_78068" data-name="Path 78068" d="M18.2,111.525l33.465-9.561L59.82,13.1H18.2Z" transform="translate(32.981 23.739)" fill="#f16529"/>
      <path id="Path_78069" data-name="Path 78069" d="M39.04,43.472H22.167L20.761,30.536H39.04V17.6H6.7l.562,3.375,3.093,35.433H39.04Z" transform="translate(12.141 31.894)" fill="#ebebeb"/>
      <path id="Path_78070" data-name="Path 78070" d="M36.321,47.942H36.04L21.98,44l-.844-10.4H8.2L9.887,53.847,36.04,61.159h.281Z" transform="translate(14.86 60.888)" fill="#ebebeb"/>
      <path id="Path_78071" data-name="Path 78071" d="M3.4,0H9.868V6.468h5.906V0h6.468V19.4H15.773V12.936H9.868V19.4H3.4V0Z" transform="translate(6.161)"/>
      <path id="Path_78072" data-name="Path 78072" d="M16.824,6.468H11.2V0H28.917V6.468H23.292V19.4H16.824V6.468Z" transform="translate(20.296)"/>
      <path id="Path_78073" data-name="Path 78073" d="M18.5,0h6.749l4.218,6.749L33.686,0h6.749V19.4H33.967V9.843l-4.218,6.749h-.281l-4.5-6.749V19.4H18.781L18.5,0Z" transform="translate(33.525)"/>
      <path id="Path_78074" data-name="Path 78074" d="M27.4,0h6.468V12.936h9.28V19.4H27.4Z" transform="translate(49.653)"/>
      <path id="Path_78075" data-name="Path 78075" d="M18.1,26.8V39.736H33.848L32.442,56.328,18.1,60.265V73.482L44.253,66.17l.281-1.969,3.093-33.746.281-3.656H18.1Z" transform="translate(32.8 48.565)" fill="#fff"/>
      <path id="Path_78076" data-name="Path 78076" d="M18.1,17.6V30.536H49.034l.281-2.812.562-6.749.281-3.375Z" transform="translate(32.8 31.894)" fill="#fff"/>
    </g>
  </g>
</svg>
