<svg xmlns="http://www.w3.org/2000/svg" width="218.878" height="166.858" viewBox="0 0 218.878 166.858">
  <g id="Group_61790" data-name="Group 61790" transform="translate(-155 -8206)">
    <rect id="Rectangle_30118" data-name="Rectangle 30118" width="218.878" height="166.858" transform="translate(155 8206)" fill="none"/>
    <path id="ios-logo" d="M1.438,81.018H15.064v-58H1.438v58ZM8.224,15.408a7.417,7.417,0,1,0,0-14.829,7.416,7.416,0,1,0,0,14.829ZM60.43.742c-23.037,0-37.484,15.705-37.484,40.823S37.391,82.332,60.43,82.332c22.983,0,37.43-15.65,37.43-40.768S83.414.742,60.43.742Zm0,12.039c14.063,0,23.037,11.163,23.037,28.784,0,17.565-8.974,28.729-23.037,28.729-14.118,0-23.037-11.163-23.037-28.729,0-17.62,8.92-28.784,23.037-28.784ZM103.607,58.8c.6,14.556,12.531,23.53,30.7,23.53,19.1,0,31.137-9.412,31.137-24.406,0-11.765-6.786-18.386-22.819-22.052l-9.084-2.079c-9.686-2.3-13.68-5.363-13.68-10.616,0-6.567,6.019-10.944,14.939-10.944,9.029,0,15.212,4.432,15.869,11.82h13.461C163.8,10.155,152.309.742,134.909.742c-17.183,0-29.386,9.467-29.386,23.476,0,11.273,6.895,18.277,21.45,21.615l10.233,2.408c9.959,2.353,14.009,5.636,14.009,11.327,0,6.567-6.621,11.273-16.142,11.273-9.631,0-16.908-4.761-17.784-12.039h-13.68Z" transform="translate(181.328 8248.422)"/>
  </g>
</svg>
