<svg xmlns="http://www.w3.org/2000/svg" width="218.878" height="166.858" viewBox="0 0 218.878 166.858">
  <g id="Group_61776" data-name="Group 61776" transform="translate(-385 -7499)">
    <rect id="Rectangle_30117" data-name="Rectangle 30117" width="218.878" height="166.858" transform="translate(385 7499)" fill="none"/>
    <g id="layer1" transform="translate(457 7509)">
      <g id="Ebene_x0020_1" transform="translate(0)">
        <g id="_198302696" transform="translate(0 0)">
          <path id="_227268128" d="M32.441,194.429s-3.847,2.341,2.676,3.01c7.86,1,12.041.836,20.738-.836a31.361,31.361,0,0,0,5.519,2.676c-19.567,8.362-44.318-.5-28.932-4.85Zm-2.509-10.87s-4.181,3.177,2.341,3.846a79.091,79.091,0,0,0,26.758-1.338,10.2,10.2,0,0,0,4.014,2.509c-23.581,7.024-50,.669-33.113-5.017ZM76.09,202.623s2.843,2.342-3.178,4.181c-11.2,3.345-46.994,4.348-57.029,0-3.512-1.5,3.178-3.679,5.352-4.014a16.67,16.67,0,0,1,3.345-.5c-3.846-2.676-25.588,5.519-11.038,7.86,39.97,6.522,72.917-2.843,62.548-7.526ZM34.28,172.186s-18.229,4.348-6.522,5.853c5.017.669,14.884.5,24.083-.167,7.526-.669,15.052-2.007,15.052-2.007a40.219,40.219,0,0,0-4.516,2.341c-18.564,4.85-54.186,2.676-43.984-2.341a34.7,34.7,0,0,1,15.888-3.679Zm32.612,18.229c18.731-9.7,10.034-19.065,4.014-17.895a10.446,10.446,0,0,0-2.174.669,2.868,2.868,0,0,1,1.672-1.338c11.874-4.181,21.24,12.543-3.846,19.065a2.081,2.081,0,0,0,.334-.5ZM36.12,216.839c18.062,1.171,45.656-.669,46.325-9.2,0,0-1.338,3.345-14.884,5.853C52.175,216.337,33.11,216,21.9,214.163c0,0,2.341,2.007,14.215,2.676Z" transform="translate(-6.519 -116.997)" fill="#4e7896"/>
          <path id="_230367536" d="M51.169,2.985S61.538,13.521,41.3,29.409c-16.222,12.877-3.679,20.236,0,28.6C31.77,49.478,24.913,41.952,29.6,34.928,36.452,24.559,55.35,19.542,51.169,2.985Zm-5.351,48C50.667,56.5,44.48,61.519,44.48,61.519S56.856,55.164,51.169,47.3c-5.185-7.526-9.2-11.205,12.543-23.748,0,0-34.284,8.529-17.895,27.427ZM33.442,140.791V124.4c0-4.181-2.341-7.024-8.195-7.024a22.969,22.969,0,0,0-8.7,1.839l.836,3.01a19.793,19.793,0,0,1,6.69-1.338c3.178,0,4.683,1.338,4.683,4.014v2.174H27.087c-8.028,0-11.707,3.01-11.707,7.86,0,4.014,2.509,6.355,7.024,6.355,2.843,0,5.017-1.338,7.024-3.01l.334,2.508h3.679Zm-4.683-5.352a8.072,8.072,0,0,1-5.184,2.342c-2.174,0-3.512-1.338-3.512-3.679s1.338-4.014,6.69-4.014h2.007v5.351Zm20.4,5.352H43.309l-7.024-22.912H41.3l4.348,14.048,1,4.181a80.7,80.7,0,0,0,4.516-18.229h5.017a95.29,95.29,0,0,1-7.024,22.912Zm27.093,0V124.4c0-4.181-2.341-7.024-8.195-7.024a22.967,22.967,0,0,0-8.7,1.839l.669,3.01a21.726,21.726,0,0,1,6.857-1.338c3.177,0,4.683,1.338,4.683,4.014v2.174H69.9c-8.028,0-11.707,3.01-11.707,7.86,0,4.014,2.342,6.355,6.857,6.355a10.851,10.851,0,0,0,7.191-3.01l.334,2.508Zm-4.683-5.352a8.072,8.072,0,0,1-5.185,2.342c-2.174,0-3.512-1.338-3.512-3.679s1.338-4.014,6.689-4.014h2.007v5.351Zm-61.377,9.2a11.121,11.121,0,0,1-5.853,4.348L2.168,146.31a11.138,11.138,0,0,0,4.014-3.847c.669-1.171.836-2.843.836-6.689V109.684h5.017v25.755c0,5.184-.5,7.191-1.84,9.2Z" transform="translate(-2.168 -2.985)" fill="#f58219"/>
        </g>
      </g>
    </g>
  </g>
</svg>
