<svg xmlns="http://www.w3.org/2000/svg" width="218.878" height="166.858" viewBox="0 0 218.878 166.858">
  <g id="Group_61784" data-name="Group 61784" transform="translate(-616 -7750)">
    <rect id="Rectangle_30116" data-name="Rectangle 30116" width="218.878" height="166.858" transform="translate(616 7750)" fill="none"/>
    <g id="js" transform="translate(674.8 7761)">
      <path id="Path_78737" data-name="Path 78737" d="M.2,9.8H103.016L93.977,114.593,51.608,126.739,8.956,114.593Z" transform="translate(0 17.881)" fill="#dab92d"/>
      <path id="Path_78738" data-name="Path 78738" d="M18.4,12.8v99.709L52.578,102.34,60.2,12.8Z" transform="translate(33.208 23.355)" fill="#ffd839"/>
      <path id="Path_78739" data-name="Path 78739" d="M33.621,17.2V90.64L9.895,83.3,8.2,62.959H18.369l1.13,9.886,3.672,1.13L21.193,17.2Z" transform="translate(14.597 31.383)" fill="#fff"/>
      <path id="Path_78740" data-name="Path 78740" d="M19.2,17.2V56.18H31.911l-.847,16.948L19.2,76.517V90.64l23.444-7.062,3.672-40.109H32.476V30.476h14.97L49.141,17.2Z" transform="translate(34.668 31.383)" fill="#fff"/>
      <path id="Path_78741" data-name="Path 78741" d="M20.874,0V12.428H18.332V11.3H12.4v6.5H26.805V0Z" transform="translate(22.26)"/>
      <path id="Path_78742" data-name="Path 78742" d="M18.782,0H35.165V4.519H27.256l8.191,7.909V17.8H18.782v-4.8h7.909L18.5,5.084Z" transform="translate(33.39)"/>
    </g>
  </g>
</svg>
