<svg xmlns="http://www.w3.org/2000/svg" width="218.878" height="166.858" viewBox="0 0 218.878 166.858">
  <g id="Group_110219" data-name="Group 110219" transform="translate(-9873.035 2585)">
    <rect id="Rectangle_39953" data-name="Rectangle 39953" width="218.878" height="166.858" transform="translate(9873.035 -2585)" fill="none"/>
    <g id="Group_95667" data-name="Group 95667" transform="translate(9866.49 -2465.4)">
      <path id="Path_127774" data-name="Path 127774" d="M94.363-47.013a.549.549,0,0,1,.021.156v8.148a.591.591,0,0,1-.3.515l-6.838,3.938v7.805a.6.6,0,0,1-.3.515L72.67-17.718a.548.548,0,0,1-.1.043c-.013,0-.026.013-.041.017a.605.605,0,0,1-.3,0c-.016,0-.031-.014-.047-.02a.58.58,0,0,1-.1-.04L57.809-25.936a.6.6,0,0,1-.3-.515V-50.9a.587.587,0,0,1,.021-.156c.005-.017.015-.032.021-.049a.61.61,0,0,1,.037-.092.534.534,0,0,1,.041-.053.7.7,0,0,1,.053-.069.656.656,0,0,1,.059-.045.414.414,0,0,1,.066-.051h0l7.137-4.109a.6.6,0,0,1,.594,0l7.136,4.109h0a.665.665,0,0,1,.065.051.646.646,0,0,1,.059.044.613.613,0,0,1,.053.07c.014.017.028.035.041.053a.61.61,0,0,1,.037.092.44.44,0,0,1,.021.05.585.585,0,0,1,.021.155v15.269l5.947-3.425v-7.805a.629.629,0,0,1,.021-.155c0-.017.015-.033.02-.05A.818.818,0,0,1,79-47.155c.011-.019.028-.035.04-.053s.035-.047.054-.069a.491.491,0,0,1,.058-.044.643.643,0,0,1,.065-.052h0l7.137-4.109a.6.6,0,0,1,.594,0l7.137,4.109a.474.474,0,0,1,.067.051c.019.015.04.028.057.044a.6.6,0,0,1,.054.07.491.491,0,0,1,.04.053.529.529,0,0,1,.039.092.307.307,0,0,1,.02.05Zm-1.169,7.96v-6.776l-2.5,1.438L87.244-42.4v6.776l5.948-3.425ZM86.058-26.8v-6.781l-3.394,1.939-9.692,5.531v6.844ZM58.7-49.868V-26.8l13.083,7.532V-26.1l-6.835-3.869h0a.505.505,0,0,1-.063-.049.671.671,0,0,1-.058-.043h0c-.017-.02-.033-.04-.049-.062s-.033-.038-.045-.058h0a.612.612,0,0,1-.032-.074c-.01-.022-.02-.044-.028-.067h0a.65.65,0,0,1-.012-.087c0-.022-.007-.044-.009-.067V-46.445L61.2-48.432l-2.5-1.436Zm6.543-4.451L59.295-50.9l5.944,3.423L71.186-50.9l-5.947-3.422Zm3.092,21.361,3.45-1.986V-49.868l-2.5,1.438-3.45,1.986v14.925ZM86.653-50.28l-5.945,3.423,5.945,3.423L92.6-46.858ZM86.059-42.4l-3.451-1.987-2.5-1.438v6.776l3.449,1.986,2.5,1.439ZM72.376-27.135,81.1-32.113l4.36-2.488-5.941-3.421-6.841,3.938-6.235,3.59Z" fill="#ff2d20"/>
      <path id="Path_127775" data-name="Path 127775" d="M109.831-46.445v16.49H115.8v2.84h-9.143v-19.33Zm17.17,8.2v-1.744h3.019v12.877h-3.005v-1.746a4.132,4.132,0,0,1-1.731,1.5,4.926,4.926,0,0,1-2.254.558,6.548,6.548,0,0,1-2.683-.537,6.271,6.271,0,0,1-2.089-1.473,6.888,6.888,0,0,1-1.359-2.147,6.965,6.965,0,0,1-.479-2.6,6.944,6.944,0,0,1,.486-2.575,6.852,6.852,0,0,1,1.36-2.175,6.287,6.287,0,0,1,2.074-1.488,6.636,6.636,0,0,1,2.683-.536,5.083,5.083,0,0,1,2.246.55,4.131,4.131,0,0,1,1.717,1.517Zm-.272,6.274a4.5,4.5,0,0,0,.286-1.574,4.428,4.428,0,0,0-.286-1.573,3.992,3.992,0,0,0-.773-1.31,3.712,3.712,0,0,0-1.2-.872,3.672,3.672,0,0,0-1.561-.345,3.508,3.508,0,0,0-1.546.344,3.8,3.8,0,0,0-1.187.865,3.808,3.808,0,0,0-.758,1.31,4.7,4.7,0,0,0-.265,1.573,4.659,4.659,0,0,0,.265,1.574,3.618,3.618,0,0,0,.758,1.288,3.77,3.77,0,0,0,1.187.894,3.6,3.6,0,0,0,1.546.329,3.567,3.567,0,0,0,1.559-.329,3.694,3.694,0,0,0,1.2-.887,3.945,3.945,0,0,0,.773-1.288Zm5.666,4.865V-39.989h8.169v2.962H135.4v9.908h-3Zm19.079-11.139v-1.744h3.005v12.877h-3.005v-1.746a4.039,4.039,0,0,1-1.717,1.5,4.953,4.953,0,0,1-2.26.558,6.548,6.548,0,0,1-2.683-.537,6.271,6.271,0,0,1-2.089-1.473,6.888,6.888,0,0,1-1.359-2.147,6.98,6.98,0,0,1-.473-2.6,6.937,6.937,0,0,1,.48-2.575,6.867,6.867,0,0,1,1.359-2.175,6.277,6.277,0,0,1,2.075-1.488,6.628,6.628,0,0,1,2.682-.536,5.07,5.07,0,0,1,2.247.55,4.107,4.107,0,0,1,1.718,1.517Zm-.272,6.274a4.469,4.469,0,0,0,.272-1.574,4.587,4.587,0,0,0-.272-1.573,3.991,3.991,0,0,0-.765-1.31,3.747,3.747,0,0,0-1.216-.872,3.685,3.685,0,0,0-1.553-.345,3.562,3.562,0,0,0-1.552.344,3.8,3.8,0,0,0-1.188.865,3.808,3.808,0,0,0-.758,1.31,4.73,4.73,0,0,0-.258,1.573,4.818,4.818,0,0,0,.258,1.574,3.745,3.745,0,0,0,.758,1.288,3.774,3.774,0,0,0,1.188.894,3.644,3.644,0,0,0,1.552.329,3.6,3.6,0,0,0,1.56-.329,3.729,3.729,0,0,0,1.216-.887,3.962,3.962,0,0,0,.765-1.288Zm15.353-8.012h3.054l-4.936,12.877h-3.791l-4.937-12.877h3.041l3.791,9.858,3.778-9.851Zm9.615-.329c4.1,0,6.9,3.634,6.367,7.883h-10a3.627,3.627,0,0,0,3.792,3.248,5.386,5.386,0,0,0,3.827-2l2.032,1.574c-1.824,1.932-3.312,2.826-5.651,2.826-4.164,0-6.983-2.647-6.983-6.775a6.66,6.66,0,0,1,6.552-6.766h.048Zm-3.613,5.651h7.225a3.579,3.579,0,0,0-3.634-3.262,3.518,3.518,0,0,0-3.591,3.256ZM184.5-27.127V-46.445h3v19.33h-3Z" fill="#ff2d20"/>
    </g>
  </g>
</svg>
