<svg xmlns="http://www.w3.org/2000/svg" width="218.88" height="166.86" viewBox="0 0 218.88 166.86">
  <g id="Group_110591" data-name="Group 110591" transform="translate(-1243 -4954)">
    <rect id="Rectangle_39959" data-name="Rectangle 39959" width="218.88" height="166.86" transform="translate(1243 4954)" fill="none"/>
    <g id="Group_110359" data-name="Group 110359" transform="translate(-8757.413 3342)">
      <g id="Group_110358" data-name="Group 110358" transform="translate(10077.264 1682.146)">
        <path id="Path_142941" data-name="Path 142941" d="M120.184,100.8h-8.31c-.306,0-.405-.075-.431-.34s.083-.386.373-.419a7.476,7.476,0,0,0,1.776-.415,1.621,1.621,0,0,0,1.1-1.348,10.454,10.454,0,0,0,.124-1.446c.026-1.871.048-3.74.037-5.61-.021-3.255-.067-6.508-.1-9.763q-.014-1.213-.035-2.427a1.027,1.027,0,0,0-.041-.313.186.186,0,0,0-.169-.038.665.665,0,0,0-.147.22q-1.4,3.059-2.807,6.124-1.71,3.722-3.425,7.441-1.694,3.672-3.394,7.339a1.773,1.773,0,0,1-.177.33.353.353,0,0,1-.592-.006,1.623,1.623,0,0,1-.144-.289q-1.2-2.65-2.4-5.3-1.395-3.067-2.8-6.13-1.306-2.868-2.606-5.741c-.453-1-.9-2-1.349-3a.71.71,0,0,0-.139-.226c-.024-.024-.124,0-.167.037s-.033.1-.035.15q-.079,2.289-.153,4.58c-.061,1.761-.131,3.521-.185,5.282-.069,2.175-.11,4.352.03,6.524a17.712,17.712,0,0,0,.277,2.025,1.983,1.983,0,0,0,1.411,1.5,15.434,15.434,0,0,0,1.872.486c.378.088.483.238.372.609-.035.116-.092.193-.22.2-.089,0-.18,0-.27,0q-4.21,0-8.418,0H88.99c-.37,0-.426-.043-.448-.308-.027-.33.07-.431.405-.517.45-.115.9-.241,1.336-.392A2.444,2.444,0,0,0,91.892,97.8a22.516,22.516,0,0,0,.451-2.652c.147-1.231.254-2.467.349-3.7.064-.805.073-1.615.115-2.424.086-1.651.207-3.3.262-4.952.056-1.743.226-3.483.148-5.229-.018-.359-.045-.718-.085-1.075a2.229,2.229,0,0,0-1.8-2.153c-.394-.116-.805-.177-1.209-.263a4.116,4.116,0,0,1-.421-.092.325.325,0,0,1-.265-.4c.035-.207.131-.287.376-.289,1.816-.008,3.633-.01,5.451-.027a.509.509,0,0,1,.52.365q1.4,2.976,2.818,5.943,2.222,4.672,4.443,9.347c.718,1.509,1.421,3.025,2.138,4.534.073.153.089.4.3.415.26.013.242-.273.321-.435q1.328-2.8,2.642-5.605,1.756-3.732,3.516-7.46c1.048-2.226,2.1-4.452,3.134-6.687a.6.6,0,0,1,.646-.418c1.71.019,3.417.01,5.127.01.072,0,.144-.006.215,0,.147,0,.293.006.332.2.041.212,0,.4-.172.466a2.249,2.249,0,0,1-.571.14,5.908,5.908,0,0,0-1.657.448,1.764,1.764,0,0,0-1.043,1.289,7.035,7.035,0,0,0-.155,1.713q.029,2.507.08,5.015.055,2.83.124,5.661c.053,2.1.107,4.205.179,6.309.022.681.078,1.363.163,2.041a2.045,2.045,0,0,0,1.576,1.9,9.4,9.4,0,0,0,1.529.3,2.875,2.875,0,0,0,2.752-1.263,8.32,8.32,0,0,0,.855-1.615c.7-1.713,1.357-3.441,2.033-5.162.459-1.169.928-2.336,1.384-3.507.553-1.422,1.094-2.848,1.646-4.272q1.136-2.937,2.282-5.872a1.147,1.147,0,0,1,.231-.357.285.285,0,0,1,.513.085c.153.344.293.7.429,1.048,1.04,2.716,2.086,5.43,3.114,8.152,1.022,2.7,2.019,5.417,3.041,8.122.332.874.706,1.73,1.062,2.593a3.33,3.33,0,0,0,2.36,2.03,3.863,3.863,0,0,1,.462.14c.241.1.292.225.22.469a.255.255,0,0,1-.262.222c-.054,0-.108,0-.163,0q-3.507-.014-7.015-.029a2.567,2.567,0,0,1-.531-.059.342.342,0,0,1-.277-.3c-.021-.175.11-.257.25-.3.324-.107.651-.2.976-.3.069-.021.142-.026.21-.046.753-.225.917-.5.781-1.268a12.5,12.5,0,0,0-.641-2.052c-.44-1.214-.887-2.427-1.351-3.633-.357-.928-.2-.775-1.084-.778-1.979-.006-3.958,0-5.937,0-.576,0-.6-.006-.767.513-.381,1.159-.756,2.322-1.1,3.491-.193.654-.329,1.324-.486,1.987a1.976,1.976,0,0,0-.048.375,1.117,1.117,0,0,0,.711,1.207c.367.145.746.252,1.123.375.169.056.348.089.512.161a.31.31,0,0,1,.206.432c-.048.191-.113.233-.356.233h-8.418Zm11.707-9.82v.013c.539,0,1.078,0,1.619,0,.413,0,.826,0,1.239-.008.276-.008.351-.12.274-.383-.014-.051-.04-.1-.059-.15q-1.289-3.425-2.577-6.854-.2-.529-.416-1.051a.122.122,0,0,0-.215-.006,1.665,1.665,0,0,0-.112.242q-1.4,3.76-2.8,7.517a2.781,2.781,0,0,0-.108.3c-.059.244.008.344.246.37a2.533,2.533,0,0,0,.269,0Z" transform="translate(-88.537 -74.534)" fill="#0c0c0c"/>
        <path id="Path_142942" data-name="Path 142942" d="M161.3,88.172c-.021-2.41-.037-4.818-.061-7.227a11.255,11.255,0,0,0-.065-1.292,4.127,4.127,0,0,0-.247-.987,1.337,1.337,0,0,0-.874-.824c-.411-.123-.831-.223-1.247-.33a1.025,1.025,0,0,1-.309-.075.4.4,0,0,1-.145-.257.238.238,0,0,1,.209-.271,1.687,1.687,0,0,1,.27,0c1.78,0,3.559-.018,5.341-.011,1.4,0,2.8.014,4.205.059a8.348,8.348,0,0,1,3.142.676,4.223,4.223,0,0,1,2.544,3.07,4.535,4.535,0,0,1-1.824,4.888,6.205,6.205,0,0,1-1.834,1.009.5.5,0,0,0-.231.118.217.217,0,0,0,.021.217.54.54,0,0,0,.25.078,7.675,7.675,0,0,1,3.156,1.45,5.022,5.022,0,0,1,2,3.779,5.8,5.8,0,0,1-2.641,5.438A9.087,9.087,0,0,1,169.573,99a18.3,18.3,0,0,1-3.537.329q-3.72.043-7.441.081c-.317,0-.408-.072-.462-.321a.22.22,0,0,1,.163-.293c.225-.057.456-.1.683-.155.348-.086.7-.166,1.038-.273a1.412,1.412,0,0,0,.942-.9,3.46,3.46,0,0,0,.226-.99c.053-1.076.08-2.154.088-3.232.014-1.69,0-3.381,0-5.071Zm2.757,3.934h.019c0,1.276-.014,2.552.006,3.826a6.51,6.51,0,0,0,.171,1.276,1.45,1.45,0,0,0,.923,1.048,3.189,3.189,0,0,0,1.317.231c.448-.008.9-.04,1.344-.061a4.18,4.18,0,0,0,1.108-.2,4.391,4.391,0,0,0,3.025-2.968,6.728,6.728,0,0,0,.247-3.295,5,5,0,0,0-2.038-3.3,6.144,6.144,0,0,0-2.636-1.032,18.029,18.029,0,0,0-3.173-.116c-.214,0-.292.081-.314.284a1.357,1.357,0,0,0,0,.161Zm.013-9.689h0c0,1.311,0,2.622,0,3.934,0,.389.051.439.437.434.754-.01,1.509-.022,2.263-.053a5.738,5.738,0,0,0,1.789-.354,3.561,3.561,0,0,0,1.794-1.317,3.8,3.8,0,0,0,.681-2.013c.016-.483.022-.97,0-1.453a4.013,4.013,0,0,0-1.1-2.623,4.154,4.154,0,0,0-2.891-1.261c-.66-.048-1.328-.019-1.992-.013a2.3,2.3,0,0,0-.531.078.528.528,0,0,0-.429.493c-.013.124-.021.25-.022.376Z" transform="translate(-47.155 -73.131)" fill="#0c0c0c"/>
        <path id="Path_142943" data-name="Path 142943" d="M161.775,99.6c-1.241,0-2.481,0-3.722,0-.172,0-.327-.008-.365-.223a.356.356,0,0,1,.2-.448,1.566,1.566,0,0,1,.3-.123c.311-.089.625-.164.933-.257a1.885,1.885,0,0,0,.394-.174.7.7,0,0,0,.408-.938c-.164-.624-.337-1.247-.555-1.853-.5-1.4-1.035-2.794-1.555-4.189a3.1,3.1,0,0,0-.121-.3.418.418,0,0,0-.384-.25c-.108,0-.217,0-.324,0l-6.151-.008h-.108c-.392.01-.448.043-.587.418-.15.4-.3.807-.427,1.218-.332,1.081-.668,2.162-.96,3.253a12.946,12.946,0,0,0-.266,1.591.937.937,0,0,0,.515.986,4.976,4.976,0,0,0,1.311.48,4.357,4.357,0,0,1,.517.148c.214.085.252.195.215.431-.034.209-.171.252-.349.25-.144,0-.289,0-.432,0h-6.042c-.072,0-.144,0-.215,0a.273.273,0,0,1-.314-.228.34.34,0,0,1,.177-.453,2.667,2.667,0,0,1,.354-.128c.22-.075.44-.156.663-.223a2.669,2.669,0,0,0,1.662-1.443c.437-.883.845-1.786,1.214-2.7.584-1.448,1.121-2.915,1.686-4.371q1.483-3.813,2.976-7.623,1.038-2.658,2.072-5.318a.892.892,0,0,1,.333-.474c.161-.1.263-.089.36.069a1.808,1.808,0,0,1,.145.289q1.076,2.787,2.146,5.575.847,2.213,1.679,4.43c.5,1.346.99,2.7,1.489,4.043.437,1.178.874,2.355,1.33,3.526.292.753.6,1.5.934,2.233a5.135,5.135,0,0,0,.6.955,3.122,3.122,0,0,0,1.692.992c.188.057.38.11.565.175a.253.253,0,0,1,.182.293.352.352,0,0,1-.289.34,2.171,2.171,0,0,1-.269,0q-1.808,0-3.615,0Zm-7.758-9.842v.026h2.805c.332,0,.392-.081.281-.38q-1.191-3.148-2.381-6.294c-.209-.553-.4-1.113-.619-1.663-.033-.088-.142-.145-.217-.215a.854.854,0,0,0-.156.2q-1.191,3.2-2.374,6.409c-.188.506-.38,1.008-.558,1.515-.092.265-.019.367.255.394a3.122,3.122,0,0,0,.324.011Q152.7,89.763,154.017,89.762Z" transform="translate(-55.752 -73.311)" fill="#0d0d0d"/>
        <path id="Path_142944" data-name="Path 142944" d="M131.861,87.463c0,2.41-.016,4.819.008,7.227a25.2,25.2,0,0,0,.179,2.523,1.51,1.51,0,0,0,.979,1.316,12.028,12.028,0,0,0,1.335.4c.276.072.566.091.848.145.263.049.325.147.292.416-.026.207-.075.25-.327.257-.2,0-.4,0-.593,0q-4.208,0-8.417,0c-.089,0-.18,0-.27,0-.242-.014-.327-.092-.351-.316-.022-.2.057-.306.311-.357.3-.059.6-.1.9-.155a3.978,3.978,0,0,0,1.271-.421,1.6,1.6,0,0,0,.746-.887,3.161,3.161,0,0,0,.207-1.107c.006-1.043.033-2.084.035-3.127q0-7.31,0-14.619c0-.823-.038-.759-.732-.738-.9.029-1.8.059-2.692.128a5.889,5.889,0,0,0-1.261.249,2.867,2.867,0,0,0-1.628,1.341,13.315,13.315,0,0,0-1.067,2.293,1.358,1.358,0,0,1-.1.249.328.328,0,0,1-.364.172c-.177-.037-.22-.167-.212-.325.027-.483.053-.968.086-1.453q.132-1.88.273-3.763a2.066,2.066,0,0,1,.064-.421.171.171,0,0,1,.263-.1,1.588,1.588,0,0,1,.364.314,1.17,1.17,0,0,0,.946.429c.45,0,.9.029,1.349.029q6.636-.01,13.271-.026c.18,0,.359-.01.539-.021a1.229,1.229,0,0,0,.907-.411,1.1,1.1,0,0,1,.115-.113c.137-.113.273-.279.467-.214.231.078.128.306.139.472q.148,2.421.284,4.843a1.677,1.677,0,0,1,0,.482.482.482,0,0,1-.233.266c-.134.065-.242-.048-.306-.158a3.387,3.387,0,0,1-.14-.349c-.317-.742-.611-1.5-.965-2.22a2.6,2.6,0,0,0-1.7-1.4,6.943,6.943,0,0,0-1.7-.274c-.88-.027-1.762-.022-2.642-.024-.456,0-.485.03-.485.488v8.954Z" transform="translate(-69.254 -73.447)" fill="#0d0d0d"/>
        <path id="Path_142945" data-name="Path 142945" d="M141.1,99.451c-2.41,0-4.819,0-7.229,0-.354,0-.359-.164-.364-.394a.253.253,0,0,1,.22-.266c.262-.061.528-.108.788-.177a7.476,7.476,0,0,0,.875-.262,1.744,1.744,0,0,0,1.043-1.225,6.23,6.23,0,0,0,.15-1.767c.024-3.577.027-7.154.032-10.732,0-1.293-.011-2.588-.026-3.883a6.887,6.887,0,0,0-.169-1.6,1.632,1.632,0,0,0-1.147-1.306c-.429-.126-.868-.222-1.3-.328-.088-.022-.179-.027-.266-.046a.25.25,0,0,1-.2-.276.28.28,0,0,1,.23-.317,1.5,1.5,0,0,1,.268,0c2.032,0,4.063,0,6.1,0,.735,0,1.472.03,2.209.048.053,0,.123-.01.156.019.088.077.207.163.226.262.024.126-.078.231-.223.258-.336.061-.675.11-1.006.19a5.421,5.421,0,0,0-.818.26,1.625,1.625,0,0,0-1,1.253,8.438,8.438,0,0,0-.163,1.55c-.019,3.559-.019,7.12-.022,10.68,0,1.51,0,3.02.024,4.531a5.07,5.07,0,0,0,.2,1.271,1.722,1.722,0,0,0,1.571,1.2,12.368,12.368,0,0,0,2.368.085,11.724,11.724,0,0,0,1.183-.073,4.172,4.172,0,0,0,2.8-1.348,9.591,9.591,0,0,0,.874-1.355c.27-.466.5-.954.757-1.429a2.275,2.275,0,0,1,.2-.321.312.312,0,0,1,.389-.088.276.276,0,0,1,.18.346c-.078.407-.159.81-.247,1.215q-.275,1.287-.558,2.575c-.067.3-.136.6-.223.887a.625.625,0,0,1-.7.526c-2.14-.011-4.28.008-6.42.016-.25,0-.5,0-.754,0Z" transform="translate(-61.797 -73.148)" fill="#0d0d0d"/>
        <path id="Path_142969" data-name="Path 142969" d="M174.752,80.033a2.182,2.182,0,0,1-.919,1.917,2.568,2.568,0,0,1-3.974-.632,2.67,2.67,0,0,1,1.569-4.011,2.453,2.453,0,0,1,2.837,1.035C174.826,79.092,174.725,78.858,174.752,80.033Zm-4.243,1.2v.008a1.874,1.874,0,0,0,2.788.5,4.078,4.078,0,0,0,.469-.558.337.337,0,0,0,.169-.344.773.773,0,0,0,.151-.209,2.394,2.394,0,0,0,0-1.469.806.806,0,0,0-.152-.211,1.31,1.31,0,0,0-.706-.887.289.289,0,0,0-.3-.179.471.471,0,0,0-.437-.131.357.357,0,0,0-.419,0,.909.909,0,0,0-.761.136.292.292,0,0,0-.311.175l-.128.1-.313.329-.147.246A2.055,2.055,0,0,0,170.509,81.237Z" transform="translate(-40.417 -72.956)" fill="#463637"/>
        <path id="Path_143067" data-name="Path 143067" d="M170.409,78.28l.037-.212a.062.062,0,0,0,.075-.049l.647-.094.212.067,0,.265a1.125,1.125,0,0,0-.059,1.155l-.115.434c.026.3-.057.612.191.868a.141.141,0,0,1-.092.242,5.135,5.135,0,0,1-.751.027.136.136,0,0,1-.1-.234.877.877,0,0,0,.164-.659c-.008-.467-.014-.933-.019-1.4C170.6,78.52,170.591,78.361,170.409,78.28Z" transform="translate(-39.848 -72.518)" fill="#463637"/>
        <path id="Path_143068" data-name="Path 143068" d="M172.491,80.685a.259.259,0,0,1-.322.2.8.8,0,0,1-.569-.357c-.159-.257-.314-.515-.472-.772l.035-.378c.515-.41.547-.729.115-1.172.024-.075.016-.18.15-.15.177.04.357.075.536.113.257.161.212.44.265.681l-.174.33-.121.123c-.373.144-.391.185-.175.431.081.091.167.179.252.268l.021.037a.278.278,0,0,0,.2.281Z" transform="translate(-39.421 -72.443)" fill="#0d0d0d"/>
        <path id="Path_143069" data-name="Path 143069" d="M172.03,78.249c-.179-.038-.359-.073-.536-.113-.134-.03-.126.075-.15.15l-.329-.024,0-.265.113-.085c.171.021.341.037.51.065S171.99,78.031,172.03,78.249Z" transform="translate(-39.487 -72.524)" fill="#676c63"/>
        <path id="Path_143070" data-name="Path 143070" d="M170.517,78a.062.062,0,0,1-.075.049.166.166,0,0,1-.027-.1Z" transform="translate(-39.845 -72.501)" fill="#676c63"/>
        <path id="Path_143071" data-name="Path 143071" d="M171.295,78.9l-.035.378-.352.014.115-.434Z" transform="translate(-39.552 -71.964)" fill="#676c63"/>
      </g>
      <g id="Group_110357" data-name="Group 110357" transform="translate(10007.413 1670)">
        <path id="Path_142946" data-name="Path 142946" d="M77.86,104.225,76.1,105.984a.941.941,0,0,0-.228.121q-.682.667-1.351,1.349a.941.941,0,0,0-.121.228l-.437.427c-.024-.048-.051-.1-.072-.144-.064-.142.056-.351-.132-.437a1.579,1.579,0,0,0-.464-.12,1.616,1.616,0,0,0-.37.029,2.1,2.1,0,0,1-.528.057c-.643-.105-1.273.242-1.915.041-.04-.013-.1.046-.148.051-.78.081-1.558.185-2.339.23a7.711,7.711,0,0,0-1.631.255c-.12.033-.242.054-.364.077a5.082,5.082,0,0,0-.628.12q-.66.213-1.306.469c-.195.078-.41.065-.593.223-.309.265-.668.474-1,.711a1.618,1.618,0,0,0-.416.332,2.307,2.307,0,0,0-.183,2.575,6.033,6.033,0,0,0,1.387,1.754,5.133,5.133,0,0,1,.469.513c-.112.04-.222.092-.336.121a.548.548,0,0,1-.742-.3c-.075-.12-.174-.225-.258-.338a3.9,3.9,0,0,1-.37-.52c-.518-1.021-1.024-2.048-1.534-3.073.193-.121.045-.346.145-.493a5.175,5.175,0,0,1,.942-1.3,3.75,3.75,0,0,0,.426-.325,3.589,3.589,0,0,1,1.148-.781c.325-.147.668-.254.993-.4a4.082,4.082,0,0,1,1.338-.51,2.072,2.072,0,0,0,.5-.182c.2-.075.4-.147.606-.215.254-.086.509-.164.761-.25.153-.053.3-.128.454-.164a10.089,10.089,0,0,0,1.754-.44.393.393,0,0,1,.107-.011,6.981,6.981,0,0,0,2.268-.936.24.24,0,0,0,.08-.07,1.828,1.828,0,0,1,.663-.45,1.215,1.215,0,0,0,.273-.167q.675-.605,1.335-1.223a1.73,1.73,0,0,0,.257-.34,5.445,5.445,0,0,0,.7-1.376,1.714,1.714,0,0,1,.258-.469,3.793,3.793,0,0,0,.52-1.507c.112-.593.164-1.2.244-1.8.1-.74.234-1.477.293-2.22.045-.56.08-1.123.113-1.684.054-.928.077-1.859.113-2.789a7.528,7.528,0,0,1,.1-1.713,1.745,1.745,0,0,0-.022-.587,5.137,5.137,0,0,1-.069-.58,14.084,14.084,0,0,1,.091-2.36c.073-.381-.04-.8.038-1.18.083-.4-.12-.813.081-1.2-.04-1.245.065-2.489.1-3.733a3.091,3.091,0,0,1,.128-.845.935.935,0,0,0,.077-.464,5.29,5.29,0,0,1,.043-1.429c0-.456.167-.912.177-1.37a16.687,16.687,0,0,1,.282-1.74c.105-.828.316-1.641.5-2.457.022-.105.136-.191.206-.285.029.041.091.1.08.123a8.291,8.291,0,0,0-.367,1.663,13.033,13.033,0,0,0-.362,2.532,1.362,1.362,0,0,1-.014.214c-.065.51-.164,1.019-.193,1.532a25.618,25.618,0,0,1-.105,2.84,7.032,7.032,0,0,0-.01,1.131c0,.376,0,.754,0,1.131a5.1,5.1,0,0,0,.026,1.18c.092.372-.016.726.059,1.1a8.64,8.64,0,0,1,.027,1.4c.019.482.075.96.1,1.44a3.61,3.61,0,0,0,.191,1.4.58.58,0,0,1,.026.212,19.383,19.383,0,0,0,.124,1.976c.1.667.183,1.336.276,2a2.014,2.014,0,0,1,.051,1.1.9.9,0,0,0,.1.561.705.705,0,0,1,.041.568.817.817,0,0,0-.046.368,13.256,13.256,0,0,0,.147,1.379,1.329,1.329,0,0,1-.014.785.436.436,0,0,0,.014.311,3.013,3.013,0,0,1,.174,1.373c0,.431-.016.863,0,1.293a3.4,3.4,0,0,1-.091,1.3,4.962,4.962,0,0,1-.2.765,1.757,1.757,0,0,0-.131.407.16.16,0,0,0,.046.14.234.234,0,0,0,.193.021,1.213,1.213,0,0,0,.285-.241.5.5,0,0,1,.439-.155c-.407.421-.815.839-1.215,1.266A4.2,4.2,0,0,0,77.86,104.225Z" transform="translate(-35.37 -64.667)" fill="#ff8401"/>
        <path id="Path_142947" data-name="Path 142947" d="M89.359,104.3c-.419-.306-.842-.611-1.26-.92-.978-.727-1.946-1.466-2.931-2.18a10.821,10.821,0,0,0-2.146-1.214c-.043-.019-.072-.072-.105-.108.013-.051.008-.124.04-.151.164-.137.179-.247-.024-.362a.381.381,0,0,1-.123-.171,3.043,3.043,0,0,0-.565-.844.616.616,0,0,1-.158-.435,5.235,5.235,0,0,1,.21-.987c.089-.287.249-.552,0-.84-.048-.056-.022-.174-.024-.263,0-.2,0-.4,0-.593a.961.961,0,0,0-.142-.555,6.722,6.722,0,0,1-.389-.882,2.659,2.659,0,0,0-.423-1.568.5.5,0,0,1-.013-.053c-.121-.445-.223-.9-.37-1.332-.169-.5-.378-.992-.573-1.485a4.5,4.5,0,0,1-.242-.593,2.782,2.782,0,0,0-.3-1.065.5.5,0,0,1-.032-.262,1.492,1.492,0,0,0-.333-.933,2.067,2.067,0,0,1-.534-1.63A13.259,13.259,0,0,0,78.7,82.81a16.155,16.155,0,0,0-.711-2.121.9.9,0,0,1-.128-.407,7.123,7.123,0,0,0-.6-2.094,9.207,9.207,0,0,1-.45-.965,11.516,11.516,0,0,0-.466-1.252,8.227,8.227,0,0,0-.388-1.105,4.644,4.644,0,0,1-.257-.751c-.072-.218-.081-.459-.166-.671a20.893,20.893,0,0,0-1.451-2.987,4.849,4.849,0,0,0-.67-.887,1.675,1.675,0,0,1-.2-.359,1.09,1.09,0,0,1,.389.132c.523.462,1.033.941,1.537,1.424a.658.658,0,0,1,.22.351A3.429,3.429,0,0,0,75.9,72.39c.257.472.55.925.775,1.411a5.426,5.426,0,0,1,.692,1.443.985.985,0,0,0,.252.47,2.634,2.634,0,0,1,.558,1.2,1.8,1.8,0,0,0,.4.868.766.766,0,0,1,.2.431,5.143,5.143,0,0,0,.365,1.171,15.7,15.7,0,0,1,.647,1.584,5.878,5.878,0,0,1,.823,2.024,20.822,20.822,0,0,0,.778,2.04c.057.131.1.27.148.4.155.381.3.767.47,1.14.309.684.638,1.359.947,2.043a.966.966,0,0,1,.069.416.826.826,0,0,0,.167.557,3.721,3.721,0,0,1,.62,1.458,4.91,4.91,0,0,0,.241.6c.089.212.191.419.268.635.113.319.209.644.314.966.038.118.086.234.121.354.112.384.081.831.478,1.092a.19.19,0,0,1,.049.094c.113.336.209.683.343,1.011.215.526.458,1.043.69,1.563a.2.2,0,0,0,.032.043,4.218,4.218,0,0,1,.743,1.293,3.465,3.465,0,0,0,.246.593,5.97,5.97,0,0,1,.676,2.013,2.82,2.82,0,0,0,.419.974,3.153,3.153,0,0,1,.352.654.721.721,0,0,0,.282.372,1.353,1.353,0,0,1,.517.734C89.667,104.225,89.52,104.284,89.359,104.3Z" transform="translate(-27.802 -65.553)" fill="#fa1800"/>
        <path id="Path_142948" data-name="Path 142948" d="M81.044,67.3l.14.078c-.013.112-.038.239-.175.226-.378-.032-.539.236-.687.494a4.542,4.542,0,0,0-.572,1.47,4.4,4.4,0,0,1-.308.966,4,4,0,0,0-.431,1.427.355.355,0,0,1-.072.2,2.281,2.281,0,0,0-.4,1.037c-.15.785-.469,1.528-.563,2.328a1.955,1.955,0,0,1-.085.472,5.044,5.044,0,0,0-.4,1.491.34.34,0,0,1-.083.193.293.293,0,0,0-.061.343.29.29,0,0,1-.041.195,4.652,4.652,0,0,0-.335,1.171,8.236,8.236,0,0,1-.571,2.044,2.041,2.041,0,0,0-.222.646,1.054,1.054,0,0,1-.242.523,1.088,1.088,0,0,0-.273.842.852.852,0,0,1-.132.619,1.614,1.614,0,0,0-.3,1.113,5.02,5.02,0,0,1-.359,1.317c-.148.223-.3.442-.453.665a.68.68,0,0,0-.147.274.54.54,0,0,1-.222.411.807.807,0,0,0-.276.509,2.037,2.037,0,0,1-.356.828.835.835,0,0,0-.121.456.615.615,0,0,1-.211.472,1.016,1.016,0,0,0-.332.82,1.3,1.3,0,0,1-.246.746,6.781,6.781,0,0,0-.536,1.037,1.873,1.873,0,0,1-.418.786c-.118.105-.142.319-.2.486-.029.085-.013.193-.061.257a2.9,2.9,0,0,0-.373,1.324.636.636,0,0,1-.212.4,1.6,1.6,0,0,0-.67,1.053.276.276,0,0,1-.108.167c-.112.089-.249.148-.351.246-.268.255-.624.4-.8.769a4.8,4.8,0,0,1-1.174,1.716c-.067.054-.1.15-.156.215-.12.132-.244.262-.373.383s-.3.249-.439.389c-.22.231-.41.491-.638.714a7.493,7.493,0,0,1-1.383,1.332c-.041.024-.057.092-.1.124a3.355,3.355,0,0,1-1.033.729,1.549,1.549,0,0,0-.772.547,2.159,2.159,0,0,1-.7.665,3.836,3.836,0,0,0-.955.671.425.425,0,0,1-.277.132c-.419-.021-.617.254-.772.563-.223.447-.432.9-.622,1.36-.061.15-.112.258-.287.258l-.812-1.32c.024-.083.094-.207.064-.242a1.188,1.188,0,0,1-.172-.925,2.122,2.122,0,0,1,.885-1.469.158.158,0,0,1,.1-.038,1.486,1.486,0,0,0,.855-.416c.179-.123.324-.274.568-.249a.277.277,0,0,0,.284-.207,2,2,0,0,1,.6-.753,15.448,15.448,0,0,1,1.719-1.622,1.151,1.151,0,0,0,.142-.161c.1-.1.2-.2.293-.3a5.257,5.257,0,0,0,.893-.927,5.568,5.568,0,0,1,1.413-1.434,3.484,3.484,0,0,0,1.057-1.188,1.178,1.178,0,0,1,.675-.651.569.569,0,0,0,.439-.549,1.019,1.019,0,0,1,.329-.764,2.634,2.634,0,0,0,.485-.872,10.057,10.057,0,0,1,.844-1.54,1.416,1.416,0,0,0,.3-.614.407.407,0,0,1,.11-.234,2.03,2.03,0,0,0,.357-.651,4.6,4.6,0,0,0,.472-1.068.255.255,0,0,1,.073-.142c.311-.263.276-.73.585-.992a3.108,3.108,0,0,1,.662-1.206c.223-.276.383-.608.622-.866a2.959,2.959,0,0,0,.7-1.3,3.775,3.775,0,0,1,.757-1.694.334.334,0,0,0,.069-.144c.091-.338.156-.684.27-1.014.187-.547.407-1.084.609-1.628a10.246,10.246,0,0,1,.466-1.249,5.7,5.7,0,0,0,.45-1.36A8.561,8.561,0,0,1,76.6,77.2a9.645,9.645,0,0,0,.378-1.048c.085-.327.2-.646.306-.966.113-.338.239-.671.344-1.011.131-.426.242-.856.37-1.284.136-.459.277-.919.419-1.378a20.308,20.308,0,0,0,.719-2.279.537.537,0,0,1,.048-.1c.187-.418.389-.831.555-1.258a.932.932,0,0,1,.467-.609c.062-.029.069-.182.1-.277l.271.088-.013,0,.415.2A.247.247,0,0,0,81.044,67.3Z" transform="translate(-36.744 -66.874)" fill="#b00200"/>
        <path id="Path_142949" data-name="Path 142949" d="M78.072,68.227a4.14,4.14,0,0,1,1.716-1.166,5.042,5.042,0,0,1,.679-.121.837.837,0,0,1,0,.268c-.1.265-.2.529-.319.785-.188.4-.405.789-.584,1.2a6.255,6.255,0,0,0-.435,1.14,6.54,6.54,0,0,0-.386,1.163.414.414,0,0,1-.126.228,1.5,1.5,0,0,0-.321.611c-.116.352-.258.7-.405,1.038-.407.934-.861,1.851-1.22,2.805a5.565,5.565,0,0,0-.654,1.568c0,.045-.067.083-.091.129-.2.394-.4.788-.6,1.185a.391.391,0,0,0-.024.21.843.843,0,0,1-.195.541,8.609,8.609,0,0,0-.729,1.375c-.266.742-.735,1.391-.944,2.154-.018.064-.086.112-.126.172a7.194,7.194,0,0,1-.694,1.194c-.021.021,0,.073-.016.105a2.066,2.066,0,0,1-.2.491,6.953,6.953,0,0,0-.59,1.009c-.3.608-.665,1.174-.979,1.772a6.045,6.045,0,0,1-.7,1.258,7.718,7.718,0,0,0-.55.853,7.163,7.163,0,0,1-.439.608c-.1.126-.222.231-.218.415a.3.3,0,0,1-.077.195,11.9,11.9,0,0,0-1.068,1.4c-.273.4-.557.785-.84,1.174-.2.273-.4.541-.6.812-.085.115-.163.234-.25.346-.153.2-.306.394-.47.582a4.174,4.174,0,0,0-.4.421A3.407,3.407,0,0,1,64.1,97.36a.288.288,0,0,0-.073.078,7.484,7.484,0,0,1-1.579,1.587,3.333,3.333,0,0,0-.432.474,6.044,6.044,0,0,1-.84.826,5.627,5.627,0,0,0-.716.557c-.115.11-.262.185-.388.284a4.643,4.643,0,0,0-1.193.968.851.851,0,0,1-.576.372,3.6,3.6,0,0,0-1.481.976l-.454-.231a.079.079,0,0,1-.059-.043l-.234-.252c.327-.274.66-.541.978-.826.129-.118.2-.316.336-.411a7.047,7.047,0,0,0,1.475-1.536,15.265,15.265,0,0,0,1.789-2.234c.014-.029.053-.046.083-.064.429-.244.646-.692.963-1.04.525-.577.957-1.239,1.434-1.861a1.049,1.049,0,0,1,.27-.262,1.59,1.59,0,0,0,.454-.518c.225-.343.445-.691.678-1.029s.549-.588.8-.907c.309-.391.647-.761.927-1.177.108-.163.246-.3.357-.467.218-.317.427-.641.639-.962.07-.1.132-.212.207-.311a21.443,21.443,0,0,0,1.6-2.322c.273-.48.609-.923.895-1.4a2.065,2.065,0,0,0,.151-.5c.137-.218.4-.352.424-.644a.293.293,0,0,0,.218-.333,3.224,3.224,0,0,1,.193-.435c.182-.3.394-.574.574-.872.34-.561.67-1.127,1-1.7.447-.77.89-1.542,1.322-2.32.045-.08.011-.2.014-.308.179-.346.332-.71.541-1.037a6.966,6.966,0,0,0,1.038-2.036l.054-.163a.148.148,0,0,0,.032-.065c.185-.013.217-.177.276-.3.332-.675.649-1.355.979-2.03.37-.757.726-1.525,1.131-2.263a8.1,8.1,0,0,0,.49-1.413c.115-.346.139-.7-.282-.9C78.093,68.31,78.087,68.259,78.072,68.227Z" transform="translate(-37.991 -66.904)" fill="#5e0303"/>
        <path id="Path_142950" data-name="Path 142950" d="M60.174,110.253l-.026-.167-.014-.03a2.409,2.409,0,0,1-.563-.986,1.034,1.034,0,0,0,.238-.105c.085-.064.136-.183.225-.223.56-.249,1.037-.635,1.564-.933a2.676,2.676,0,0,0,.493-.3c.4-.349.828-.678,1.245-1.009a.558.558,0,0,1,.191-.1,4.015,4.015,0,0,0,1.049-.632c.134-.086.27-.239.407-.242a3.064,3.064,0,0,0,1.218-.507c.177-.083.405-.115.526-.247A11.455,11.455,0,0,1,68,103.806a14.238,14.238,0,0,0,2.1-2.049c.179-.223.372-.434.55-.657a2.149,2.149,0,0,0,.531-.917.55.55,0,0,1,.218-.344.543.543,0,0,0,.324-.56.255.255,0,0,1,.086-.188,1.841,1.841,0,0,0,.466-.769,4.369,4.369,0,0,1,.263-.4c.207-.311.421-.619.619-.936.175-.285.217-.651.518-.863a.235.235,0,0,0,.077-.139,7.642,7.642,0,0,1,.44-1.687.1.1,0,0,0,0-.053,1.179,1.179,0,0,1,.153-.617,2.975,2.975,0,0,0,.169-.563c.1-.5.19-1.013.282-1.52a1.533,1.533,0,0,0,.043-.316,10.918,10.918,0,0,1,.309-2.217,9.441,9.441,0,0,1,.236-.981,4.07,4.07,0,0,0,.222-1.475.326.326,0,0,1,.041-.155,2.552,2.552,0,0,0,.171-1.1,3.714,3.714,0,0,1,.088-.632c.037-.21.086-.419.123-.63a10.266,10.266,0,0,1,.233-1.257c.134-.423-.016-.9.29-1.287.046-.056.013-.174.016-.265a1.443,1.443,0,0,1,.014-.322c.25-.947.349-1.923.507-2.886.15-.915.325-1.82.536-2.721a15.777,15.777,0,0,0,.333-1.62,19.74,19.74,0,0,1,.509-2.067c.107-.466.325-.9.472-1.362a2.677,2.677,0,0,1,.585-.954c.317-.359.568-.368.986-.091.118.078.228.169.34.258a3.122,3.122,0,0,1,.7,1.006c.346.62.671,1.253.96,1.9.209.47.317.986.526,1.458a14.621,14.621,0,0,1,.513,1.448c.223.694.383,1.408.639,2.1.067.179.027.4.094.576a18.3,18.3,0,0,1,.783,2.6,25.845,25.845,0,0,1,.577,2.55.253.253,0,0,0,.054.147.676.676,0,0,1,.158.5.531.531,0,0,0,.092.3.749.749,0,0,1,.121.458,1.959,1.959,0,0,0,.072.418,12.5,12.5,0,0,1,.439,1.6,12.551,12.551,0,0,0,.513,2.017c.25.816.423,1.651.612,2.481a7.78,7.78,0,0,0,.427,1.651,1.745,1.745,0,0,1,.185.443,9.313,9.313,0,0,0,.44,1.6,2.063,2.063,0,0,1,.115.791,1.71,1.71,0,0,0,.155.834,4.115,4.115,0,0,1,.27.922,2.8,2.8,0,0,0,.837,1.684.688.688,0,0,1,.23.344c.038.2-.226.129-.293.254-.008.016-.019.03-.029.046l-.85-.14c0-.032,0-.064,0-.1a1.967,1.967,0,0,0-.236-.923c-.112-.281-.217-.566-.3-.855-.222-.753-.429-1.507-.646-2.261-.118-.41-.252-.815-.362-1.226-.056-.2-.045-.429-.112-.628a16.374,16.374,0,0,1-.547-2.17c-.113-.593-.292-1.174-.437-1.761a7.8,7.8,0,0,0-.187-.778,2.332,2.332,0,0,1-.195-.99.685.685,0,0,0-.026-.212,15.344,15.344,0,0,1-.415-1.874.721.721,0,0,0-.062-.147,2.707,2.707,0,0,1-.228-.644c-.053-.555-.263-1.076-.317-1.622-.032-.316-.231-.566-.241-.871-.013-.486-.3-.922-.242-1.418-.3-.748-.4-1.552-.643-2.314-.021-.062-.131-.094-.2-.139l-.217-1.08c.169-.263.155-.327-.107-.431-.134-.083-.1-.217-.108-.34a.838.838,0,0,0-.046-.365,5.546,5.546,0,0,1-.49-1.513,27.446,27.446,0,0,0-1.437-3.851,3.826,3.826,0,0,0-.689-.952.838.838,0,0,0-1.375.115.861.861,0,0,0-.1.188c-.169.432-.364.856-.494,1.3-.19.649-.357,1.306-.488,1.968a21.327,21.327,0,0,0-.389,2.151,7.6,7.6,0,0,1-.15.947,5.1,5.1,0,0,0-.169,1.43l-.107.217,0,.539c-.156.008-.239.1-.21.246.083.426-.2.837-.038,1.268.019.051-.037.132-.061.2a10.4,10.4,0,0,0-.327,2.054c-.085.563-.083,1.139-.12,1.708a1.037,1.037,0,0,1-.021.159,7.619,7.619,0,0,0-.2,1.8,5.278,5.278,0,0,1-.083.74c-.04.3-.064.606-.132.9-.1.407-.062.821-.121,1.225a13.737,13.737,0,0,0-.211,1.641,5.464,5.464,0,0,1-.19,1.1,5.586,5.586,0,0,0-.225,1.528,2.416,2.416,0,0,1-.246,1.25,1.044,1.044,0,0,0-.08.254,4.322,4.322,0,0,1-.5,1.778.235.235,0,0,0-.038.153,1.244,1.244,0,0,1-.19.608,2.136,2.136,0,0,0-.23.654,2.032,2.032,0,0,1-.262.754c-.077.159-.159.316-.238.474-.242.5-.459,1.011-.732,1.491a12.427,12.427,0,0,1-2.341,2.625c-.4.389-.922.6-1.328.974-.169.155-.381.263-.566.4-.628.472-1.432.638-2.028,1.164-.529.105-.912.566-1.472.6-.077.006-.147.092-.222.142a4.346,4.346,0,0,1-.405.258c-.539.274-1.1.512-1.619.818s-.971.662-1.454,1c-.029.021-.049.053-.077.075-.179.148-.364.289-.536.445a1.271,1.271,0,0,0-.561,1.043Z" transform="translate(-35.912 -65.674)" fill="#ff4f00"/>
        <path id="Path_142951" data-name="Path 142951" d="M58.76,107.85c.175,0,.226-.108.287-.258.19-.461.4-.914.622-1.36.155-.309.352-.584.772-.563a.425.425,0,0,0,.277-.132,3.836,3.836,0,0,1,.955-.671,2.158,2.158,0,0,0,.7-.665,1.549,1.549,0,0,1,.772-.547,3.355,3.355,0,0,0,1.033-.729c.041-.032.057-.1.1-.124a7.493,7.493,0,0,0,1.383-1.332c.228-.223.418-.483.638-.714.134-.14.3-.255.439-.389s.254-.25.373-.383c.059-.065.089-.161.156-.215a4.8,4.8,0,0,0,1.174-1.716c.18-.373.536-.513.8-.769.1-.1.239-.156.351-.246a.276.276,0,0,0,.108-.167,1.6,1.6,0,0,1,.67-1.053.636.636,0,0,0,.212-.4,2.9,2.9,0,0,1,.373-1.324c.048-.064.032-.172.061-.257.057-.167.081-.381.2-.486a1.873,1.873,0,0,0,.418-.786,6.782,6.782,0,0,1,.536-1.037,1.3,1.3,0,0,0,.246-.746,1.016,1.016,0,0,1,.332-.82.615.615,0,0,0,.211-.472.835.835,0,0,1,.121-.456,2.037,2.037,0,0,0,.356-.828.807.807,0,0,1,.276-.509.54.54,0,0,0,.222-.411.68.68,0,0,1,.147-.274c.148-.223.3-.442.453-.665a5.02,5.02,0,0,0,.359-1.317,1.614,1.614,0,0,1,.3-1.113.852.852,0,0,0,.132-.619,1.089,1.089,0,0,1,.273-.842,1.054,1.054,0,0,0,.242-.523,2.041,2.041,0,0,1,.222-.646,8.237,8.237,0,0,0,.571-2.044,4.651,4.651,0,0,1,.335-1.171A.29.29,0,0,0,77,77.88a.293.293,0,0,1,.061-.343.34.34,0,0,0,.083-.193,5.044,5.044,0,0,1,.4-1.491,1.955,1.955,0,0,0,.085-.472c.094-.8.413-1.544.563-2.328a2.282,2.282,0,0,1,.4-1.037.356.356,0,0,0,.072-.2,4,4,0,0,1,.431-1.427,4.4,4.4,0,0,0,.308-.966,4.542,4.542,0,0,1,.572-1.47c.148-.258.309-.526.687-.494.137.013.163-.115.175-.226a9.245,9.245,0,0,1,.986.7,11.218,11.218,0,0,1,.871.989c-.04.08-.08.175-.193.126a1.974,1.974,0,0,1-.47-.238.691.691,0,0,0-.887.024,4.017,4.017,0,0,1-.832.442.568.568,0,0,0-.454.675c-.091.11-.19.214-.27.332a2.383,2.383,0,0,0-.362.587c-.2.624-.432,1.233-.6,1.866-.25.93-.526,1.85-.719,2.794a4.87,4.87,0,0,0-.214,1.155c0,.083-.059.166-.083.252-.045.153-.092.3-.124.461a4.529,4.529,0,0,0-.223,1.261,2.506,2.506,0,0,0-.3.9,6.333,6.333,0,0,0-.124.681c-.035.191-.07.384-.113.574a4.842,4.842,0,0,1-.209.821,1.489,1.489,0,0,0-.116.458,2.791,2.791,0,0,1-.089.469,8.108,8.108,0,0,0-.231,1.529,1.65,1.65,0,0,0-.225.34,5.76,5.76,0,0,0-.367,1.228,3.855,3.855,0,0,1-.161.805c-.011.226.035.462-.2.633-.073.054-.1.188-.124.29-.185.7-.332,1.419-.558,2.11a3.447,3.447,0,0,0-.338,1.427,5.916,5.916,0,0,0-.534,1.5.267.267,0,0,1-.086.134,1.249,1.249,0,0,0-.316.882,1.121,1.121,0,0,1-.2.6,1.015,1.015,0,0,0-.25.636.506.506,0,0,1-.089.244,1.536,1.536,0,0,0-.22.815,3.409,3.409,0,0,1-.3,1.131.629.629,0,0,1-.187.252c-.4.335-.8.659-1.2.987a.99.99,0,0,0-.381.67,1.467,1.467,0,0,1-.675,1.1.8.8,0,0,0-.359.381,1.872,1.872,0,0,1-.568.831,1.459,1.459,0,0,0-.228.3A4.266,4.266,0,0,1,66.848,103a2.692,2.692,0,0,0-.823.753,2.92,2.92,0,0,1-.483.5c-.48.4-.97.785-1.461,1.167a.947.947,0,0,1-.413.236,1.627,1.627,0,0,0-.724.325,1.08,1.08,0,0,1-.434.207,1.518,1.518,0,0,0-.868.49.669.669,0,0,1-.423.2.959.959,0,0,0-.8.691,4.093,4.093,0,0,1-.287.507c-.08.139-.161.276-.238.416-.116.214-.23.429-.344.644A7.057,7.057,0,0,1,58.76,107.85Z" transform="translate(-36.395 -66.729)" fill="#d50400"/>
        <path id="Path_142952" data-name="Path 142952" d="M75.634,83.2a8.108,8.108,0,0,1,.231-1.529,2.792,2.792,0,0,0,.089-.469,1.489,1.489,0,0,1,.116-.458,4.841,4.841,0,0,0,.209-.821c.043-.19.078-.383.113-.574a6.33,6.33,0,0,1,.124-.681,2.506,2.506,0,0,1,.3-.9,4.529,4.529,0,0,1,.223-1.261c.032-.156.08-.308.124-.461.024-.086.086-.169.083-.252a4.87,4.87,0,0,1,.214-1.155c.193-.944.469-1.864.719-2.794.171-.633.407-1.242.6-1.866a2.383,2.383,0,0,1,.362-.587c.08-.118.179-.222.27-.332a1.215,1.215,0,0,1,.927-.308,1.249,1.249,0,0,1,1.019.742,1.676,1.676,0,0,0,.2.359,4.849,4.849,0,0,1,.67.887,20.9,20.9,0,0,1,1.451,2.987c.085.212.094.453.166.671a4.644,4.644,0,0,0,.257.751,8.23,8.23,0,0,1,.388,1.105,11.516,11.516,0,0,1,.466,1.252,9.209,9.209,0,0,0,.45.965,7.124,7.124,0,0,1,.6,2.094.9.9,0,0,0,.128.407,16.154,16.154,0,0,1,.711,2.121,13.259,13.259,0,0,1,.226,2.067,2.067,2.067,0,0,0,.534,1.63,1.492,1.492,0,0,1,.333.933.5.5,0,0,0,.032.262,2.782,2.782,0,0,1,.3,1.065,4.5,4.5,0,0,0,.242.593c.195.493.4.982.572,1.485.147.435.249.887.37,1.332a.5.5,0,0,0,.013.053,2.659,2.659,0,0,1,.423,1.568,6.722,6.722,0,0,0,.389.882.961.961,0,0,1,.142.555c0,.2,0,.4,0,.593,0,.089-.024.207.024.263.247.289.088.553,0,.84a5.233,5.233,0,0,0-.21.987.616.616,0,0,0,.158.435,3.043,3.043,0,0,1,.565.844.381.381,0,0,0,.123.171c.2.115.188.225.024.362-.032.027-.027.1-.04.151l-.244-.105-.014-.01a.26.26,0,0,1-.309-.1l-.013-.01a.254.254,0,0,1-.313-.1l-.091-.1c.01-.016.021-.03.029-.046.067-.124.332-.054.293-.254a.688.688,0,0,0-.23-.344,2.8,2.8,0,0,1-.837-1.684,4.115,4.115,0,0,0-.269-.922,1.71,1.71,0,0,1-.155-.834,2.063,2.063,0,0,0-.115-.791,9.313,9.313,0,0,1-.44-1.6,1.745,1.745,0,0,0-.185-.443,7.78,7.78,0,0,1-.427-1.651c-.19-.831-.362-1.665-.612-2.481a12.552,12.552,0,0,1-.513-2.017,12.5,12.5,0,0,0-.439-1.6,1.959,1.959,0,0,1-.072-.418.749.749,0,0,0-.121-.458.531.531,0,0,1-.092-.3.676.676,0,0,0-.158-.5.253.253,0,0,1-.054-.147,25.845,25.845,0,0,0-.577-2.55,18.3,18.3,0,0,0-.783-2.6c-.067-.179-.027-.4-.094-.576-.257-.687-.416-1.4-.639-2.1a14.62,14.62,0,0,0-.513-1.448c-.209-.472-.317-.987-.526-1.458-.289-.647-.614-1.281-.96-1.9a3.122,3.122,0,0,0-.7-1.006c-.112-.089-.222-.18-.34-.258-.418-.277-.668-.268-.986.091a2.677,2.677,0,0,0-.585.954c-.147.458-.365.9-.472,1.362A19.738,19.738,0,0,0,78,73.837a15.777,15.777,0,0,1-.333,1.62c-.21.9-.386,1.805-.536,2.721-.158.963-.257,1.939-.507,2.886a1.443,1.443,0,0,0-.014.322c0,.091.03.209-.016.265-.306.383-.156.864-.29,1.287a10.265,10.265,0,0,0-.233,1.257c-.037.21-.086.419-.123.63a3.714,3.714,0,0,0-.088.632,2.552,2.552,0,0,1-.171,1.1.326.326,0,0,0-.041.155,4.07,4.07,0,0,1-.222,1.475,9.441,9.441,0,0,0-.236.981,10.918,10.918,0,0,0-.309,2.217,1.533,1.533,0,0,1-.043.316c-.092.507-.18,1.016-.282,1.52a2.975,2.975,0,0,1-.169.563,1.18,1.18,0,0,0-.153.617.1.1,0,0,1,0,.053,7.642,7.642,0,0,0-.44,1.687.235.235,0,0,1-.077.139c-.3.212-.343.577-.518.863-.2.317-.411.625-.619.936a4.37,4.37,0,0,0-.263.4,1.841,1.841,0,0,1-.466.769.255.255,0,0,0-.086.188.543.543,0,0,1-.324.56.55.55,0,0,0-.218.344,2.149,2.149,0,0,1-.531.917c-.179.223-.372.434-.55.657a14.238,14.238,0,0,1-2.1,2.049,11.456,11.456,0,0,0-1.273.965c-.121.132-.349.164-.526.247a3.064,3.064,0,0,1-1.218.507c-.137,0-.273.156-.407.242a4.015,4.015,0,0,1-1.049.632.558.558,0,0,0-.191.1c-.418.332-.842.66-1.245,1.009a2.676,2.676,0,0,1-.493.3c-.528.3-1,.684-1.564.933-.089.04-.14.159-.225.223a1.034,1.034,0,0,1-.238.105l-.1-.212c.029-.019.078-.035.085-.061a.757.757,0,0,1,.738-.619.493.493,0,0,0,.277-.14c.2-.2.47-.325.675-.5a4.942,4.942,0,0,1,.737-.515,3.5,3.5,0,0,0,.716-.558,4.97,4.97,0,0,1,.622-.595,2.853,2.853,0,0,1,.88-.488,2.264,2.264,0,0,0,.845-.6,1.251,1.251,0,0,1,.289-.144c.164-.07.338-.12.494-.2.18-.1.332-.255.517-.338a3.628,3.628,0,0,0,1.505-1.231,2.609,2.609,0,0,1,.681-.681,1.786,1.786,0,0,0,.655-.824c.043-.1.051-.262.118-.287.343-.137.357-.518.584-.74a3.723,3.723,0,0,0,.523-.675,1.839,1.839,0,0,1,.588-.609c.279-.174.155-.537.383-.737a2.071,2.071,0,0,0,.525-.927,1.744,1.744,0,0,1,.426-.671,1.529,1.529,0,0,0,.485-.922,7.463,7.463,0,0,0,.206-.99.659.659,0,0,1,.107-.246l.513-1.054a.857.857,0,0,1,.145-.279.743.743,0,0,0,.195-.588,7.655,7.655,0,0,1,.121-.952c.03-.15.161-.282.19-.432.089-.49.139-.986.228-1.474.085-.472.193-.939.3-1.4a6.757,6.757,0,0,1,.255-.923c.126-.327-.083-.663.067-.979a.617.617,0,0,1,.183-.726.673.673,0,0,0,.156-.545l-.105-.539c.26-.108.274-.169.108-.432.059-.373.12-.745.175-1.116C75.706,83.254,75.658,83.225,75.634,83.2Z" transform="translate(-35.95 -65.836)" fill="#fe3100"/>
        <path id="Path_142953" data-name="Path 142953" d="M56.544,103.484a3.6,3.6,0,0,1,1.481-.976.851.851,0,0,0,.576-.372,4.643,4.643,0,0,1,1.193-.968c.126-.1.273-.174.388-.284a5.626,5.626,0,0,1,.716-.557,6.043,6.043,0,0,0,.84-.826,3.332,3.332,0,0,1,.432-.474,7.484,7.484,0,0,0,1.579-1.587.288.288,0,0,1,.073-.078,3.407,3.407,0,0,0,1.11-1.214,4.174,4.174,0,0,1,.4-.421c.164-.188.317-.386.47-.582.088-.112.166-.231.25-.346.2-.271.407-.539.6-.812.284-.389.568-.778.84-1.174a11.9,11.9,0,0,1,1.068-1.4.3.3,0,0,0,.077-.195c0-.183.115-.289.218-.415a7.163,7.163,0,0,0,.439-.608,7.718,7.718,0,0,1,.55-.853,6.045,6.045,0,0,0,.7-1.258c.314-.6.684-1.164.979-1.772a6.953,6.953,0,0,1,.59-1.009,2.066,2.066,0,0,0,.2-.491c.013-.032,0-.085.016-.105a7.194,7.194,0,0,0,.694-1.194c.04-.061.108-.108.126-.172.209-.764.678-1.413.944-2.154a8.609,8.609,0,0,1,.729-1.375.843.843,0,0,0,.195-.541.391.391,0,0,1,.024-.21c.195-.4.4-.791.6-1.185.024-.046.088-.085.091-.129a5.565,5.565,0,0,1,.654-1.568c.359-.954.813-1.871,1.22-2.805.147-.341.289-.686.405-1.038a1.5,1.5,0,0,1,.321-.611.414.414,0,0,0,.126-.228,6.54,6.54,0,0,1,.386-1.163,6.254,6.254,0,0,1,.435-1.14c.179-.407.4-.794.584-1.2.12-.255.223-.52.319-.785a.837.837,0,0,0,0-.268l.443-.01a2.574,2.574,0,0,1-.094.464,9.909,9.909,0,0,1-.456,1.03c-.4.738-.566,1.566-.917,2.325a15.693,15.693,0,0,1-.643,1.686,2.077,2.077,0,0,0-.155.565.772.772,0,0,1-.04.207,5.949,5.949,0,0,0-.4,1.092,3.781,3.781,0,0,1-.341.829,3.844,3.844,0,0,0-.3.681c-.073.2-.177.388-.252.585a4.681,4.681,0,0,0-.274.794,3.331,3.331,0,0,1-.431,1.088,3.111,3.111,0,0,0-.228.534c-.167.451-.324.906-.493,1.357-.118.314-.25.622-.375.934-.107.265-.2.534-.321.794-.132.29-.284.572-.427.86-.128.254-.246.513-.383.761-.183.329-.2.706-.367,1.048-.316.657-.635,1.312-.965,1.963a11.6,11.6,0,0,0-.909,1.566c-.053.166-.238.3-.258.462a1.719,1.719,0,0,1-.344.713,5.169,5.169,0,0,0-.5.756,12.5,12.5,0,0,1-.88,1.651c-.218.364-.435.727-.686,1.072a4.945,4.945,0,0,0-.311.494,4.406,4.406,0,0,1-.365.7,2.085,2.085,0,0,0-.547.844c-.019.092-.137.161-.2.247a8.617,8.617,0,0,0-1.284,1.834.275.275,0,0,1-.091.124c-.553.376-.9.965-1.411,1.384a2.785,2.785,0,0,0-.617.569c-.293.454-.7.816-.987,1.266-.04.059-.065.147-.121.172a11.487,11.487,0,0,0-1.2.868,6.207,6.207,0,0,0-.917.734,1.859,1.859,0,0,1-.807.6c-.1.026-.174.164-.265.246-.12.108-.226.27-.365.3a8.822,8.822,0,0,0-1.612.949.335.335,0,0,0-.167.5c.056.1,0,.166-.091.212l-.214-.166-.249-.281a.075.075,0,0,1-.048-.048,1.148,1.148,0,0,0-.62-.582l-.128-.108Z" transform="translate(-37.712 -66.908)" fill="#7b0000"/>
        <path id="Path_142954" data-name="Path 142954" d="M57.349,104.805c.088-.046.147-.11.091-.212a.335.335,0,0,1,.167-.5,8.822,8.822,0,0,1,1.612-.949c.139-.035.246-.2.365-.3.091-.081.163-.22.265-.246a1.859,1.859,0,0,0,.807-.6,6.207,6.207,0,0,1,.917-.734,11.486,11.486,0,0,1,1.2-.868c.056-.026.081-.113.121-.172.292-.45.694-.812.987-1.266a2.785,2.785,0,0,1,.617-.569c.515-.419.858-1.008,1.411-1.384a.275.275,0,0,0,.091-.124,8.617,8.617,0,0,1,1.284-1.834c.062-.086.18-.155.2-.247a2.085,2.085,0,0,1,.547-.844,4.406,4.406,0,0,0,.365-.7,4.947,4.947,0,0,1,.311-.494c.25-.344.467-.708.686-1.072a12.5,12.5,0,0,0,.88-1.65,5.169,5.169,0,0,1,.5-.756,1.718,1.718,0,0,0,.344-.713c.021-.163.206-.3.258-.462a11.6,11.6,0,0,1,.909-1.566c.33-.651.649-1.306.965-1.963.164-.341.183-.719.367-1.048.137-.247.255-.507.383-.761.144-.287.3-.569.427-.86.118-.26.214-.529.321-.794.124-.313.257-.62.375-.934.169-.451.325-.906.493-1.357a3.111,3.111,0,0,1,.228-.534,3.331,3.331,0,0,0,.431-1.088,4.681,4.681,0,0,1,.274-.794c.075-.2.179-.386.252-.585a3.844,3.844,0,0,1,.3-.681,3.781,3.781,0,0,0,.341-.829,5.95,5.95,0,0,1,.4-1.092.771.771,0,0,0,.04-.207,2.077,2.077,0,0,1,.155-.565,15.692,15.692,0,0,0,.643-1.686c.351-.759.518-1.587.917-2.325a9.907,9.907,0,0,0,.456-1.03,2.574,2.574,0,0,0,.094-.464.942.942,0,0,1,.651.089c-.033.1-.04.249-.1.277a.932.932,0,0,0-.467.609c-.166.427-.368.84-.555,1.258a.537.537,0,0,0-.048.1,20.308,20.308,0,0,1-.719,2.279c-.142.459-.284.919-.419,1.378-.128.427-.239.858-.37,1.284-.105.34-.231.673-.344,1.011-.107.321-.222.639-.306.966a9.643,9.643,0,0,1-.378,1.048,8.56,8.56,0,0,0-.336,1.013,5.7,5.7,0,0,1-.45,1.36,10.247,10.247,0,0,0-.466,1.249c-.2.544-.423,1.081-.609,1.628-.113.33-.179.676-.27,1.014a.333.333,0,0,1-.069.144,3.775,3.775,0,0,0-.757,1.694,2.958,2.958,0,0,1-.7,1.3c-.239.258-.4.59-.622.866a3.108,3.108,0,0,0-.662,1.206c-.309.262-.274.729-.585.992a.255.255,0,0,0-.073.142,4.6,4.6,0,0,1-.472,1.068,2.03,2.03,0,0,1-.357.651.407.407,0,0,0-.11.234,1.416,1.416,0,0,1-.3.614,10.056,10.056,0,0,0-.844,1.54,2.634,2.634,0,0,1-.485.872,1.019,1.019,0,0,0-.329.764.569.569,0,0,1-.439.549,1.178,1.178,0,0,0-.675.651,3.484,3.484,0,0,1-1.057,1.188,5.568,5.568,0,0,0-1.413,1.434,5.257,5.257,0,0,1-.893.927c-.1.1-.2.2-.293.3a1.151,1.151,0,0,1-.142.161,15.448,15.448,0,0,0-1.719,1.622,2,2,0,0,0-.6.753.277.277,0,0,1-.284.207c-.244-.026-.389.126-.568.249a1.486,1.486,0,0,1-.855.416.158.158,0,0,0-.1.038,2.122,2.122,0,0,0-.885,1.469,1.188,1.188,0,0,0,.172.925c.03.035-.04.159-.064.242Z" transform="translate(-37.234 -66.917)" fill="#970101"/>
        <path id="Path_142955" data-name="Path 142955" d="M50.181,88.885l-4.593-3.142c-.252-.172-.507-.34-.754-.517-.144-.1-.129-.207.035-.266q.885-.323,1.772-.638,3.119-1.1,6.24-2.2c.539-.188,1.088-.351,1.631-.525.067.126.147.246.075.4a3.891,3.891,0,0,0-.163,1.348,5.885,5.885,0,0,1-.418,1.641.721.721,0,0,0-.089.351,3.5,3.5,0,0,1-.027,1.269A2.511,2.511,0,0,1,52.552,88.5a4.81,4.81,0,0,1-1.512.686c-.038.008-.064.08-.1.123l-.19-.021-.148-.094c0-.132-.1-.128-.191-.139l-.144-.115Z" transform="translate(-44.735 -58.186)" fill="#04c6c5"/>
        <path id="Path_142956" data-name="Path 142956" d="M48.633,89.634c.032-.043.057-.115.1-.123a4.81,4.81,0,0,0,1.512-.686,2.511,2.511,0,0,0,1.338-1.887,3.5,3.5,0,0,0,.027-1.269.721.721,0,0,1,.089-.351,5.885,5.885,0,0,0,.418-1.641,3.891,3.891,0,0,1,.163-1.348c.072-.158-.008-.277-.075-.4l2.456-.88a1.616,1.616,0,0,1,.319.033c.048.013.115.107.105.147a8.456,8.456,0,0,0-.067,1.555c-.021.249-.046.5-.088.742-.061.351.105.7-.011,1.053a.552.552,0,0,0,.026.21,5.173,5.173,0,0,1,.07.582c.01.628.008,1.258,0,1.887a1.768,1.768,0,0,1-.049.478.859.859,0,0,0,0,.576.708.708,0,0,1-.07.611.9.9,0,0,0-.069.96.441.441,0,0,1,.053.354.7.7,0,0,0,.013.464.292.292,0,0,1-.2.386.256.256,0,0,0-.214.314,6.016,6.016,0,0,0,.086,1.55.3.3,0,0,1-.045.249.532.532,0,0,1-.671.032.822.822,0,0,0-.563-.266l-.03-.024a.219.219,0,0,0-.282-.193l-.142-.089c-.051-.282-.281-.308-.5-.346a.035.035,0,0,1-.043-.035c-.081-.166-.177-.311-.4-.279a.035.035,0,0,1-.041-.032.208.208,0,0,0-.277-.183.046.046,0,0,1-.049-.038l-.073-.062-.249-.159-.085-.053-.231-.171-.077-.054-.365-.26-.131-.075-.195-.148-.067-.049-.572-.4-.019-.038-.043,0-.26-.137.018,0-.336-.218.014.016-.225-.214A.216.216,0,0,0,48.633,89.634Z" transform="translate(-42.423 -58.515)" fill="#02a29d"/>
        <path id="Path_142957" data-name="Path 142957" d="M73.935,69.856a1.249,1.249,0,0,0-1.019-.742,1.215,1.215,0,0,0-.927.308.568.568,0,0,1,.454-.675,4.017,4.017,0,0,0,.832-.442.691.691,0,0,1,.887-.024,1.974,1.974,0,0,0,.47.238c.113.049.153-.046.193-.126a.753.753,0,0,1,.367.461c-.078.035-.175.075-.116.175.016.026.142-.013.218-.022l.016.046a.969.969,0,0,0-.029.333c.037.136.142.126.3-.011l.18.266c-.085.016-.207.016-.172.142.024.091.113.164.172.247l.128-.206c.191.277.4.547.574.837a39.642,39.642,0,0,1,2.274,4.462c.772,1.773,1.525,3.558,2.242,5.357.759,1.9,1.461,3.821,2.2,5.728.984,2.542,1.955,5.087,2.977,7.613.525,1.3,1.126,2.564,1.73,3.826.86,1.8,1.745,3.582,2.636,5.365.426.85.885,1.684,1.338,2.52.1.188.244.356.359.537a.153.153,0,0,1-.006.142.145.145,0,0,1-.14.013c-.284-.155-.571-.306-.84-.483-.389-.255-.764-.529-1.147-.8.161-.018.308-.077.226-.268a1.353,1.353,0,0,0-.517-.734.721.721,0,0,1-.282-.372,3.153,3.153,0,0,0-.352-.654,2.82,2.82,0,0,1-.419-.974,5.97,5.97,0,0,0-.676-2.013,3.465,3.465,0,0,1-.246-.593,4.218,4.218,0,0,0-.743-1.293A.2.2,0,0,1,87.045,98c-.233-.52-.475-1.037-.69-1.563-.134-.329-.23-.675-.343-1.011a.19.19,0,0,0-.049-.094c-.4-.262-.367-.708-.478-1.092-.035-.12-.083-.236-.121-.354-.105-.322-.2-.647-.314-.966-.077-.215-.179-.423-.268-.635a4.908,4.908,0,0,1-.241-.6,3.721,3.721,0,0,0-.62-1.458.826.826,0,0,1-.167-.557.966.966,0,0,0-.069-.416c-.309-.684-.638-1.359-.947-2.043-.169-.373-.316-.759-.47-1.14-.053-.132-.091-.271-.148-.4a20.818,20.818,0,0,1-.778-2.04,5.878,5.878,0,0,0-.823-2.024,15.7,15.7,0,0,0-.647-1.584,5.143,5.143,0,0,1-.365-1.171.766.766,0,0,0-.2-.431,1.8,1.8,0,0,1-.4-.868,2.634,2.634,0,0,0-.558-1.2.985.985,0,0,1-.252-.47,5.426,5.426,0,0,0-.692-1.443c-.225-.486-.518-.939-.775-1.411a3.428,3.428,0,0,1-.549-1.271.658.658,0,0,0-.22-.351c-.5-.483-1.014-.962-1.537-1.424A1.09,1.09,0,0,0,73.935,69.856Z" transform="translate(-28.53 -66.197)" fill="#f21b08"/>
        <path id="Path_142958" data-name="Path 142958" d="M75.673,79.161a.673.673,0,0,1-.156.545.617.617,0,0,0-.183.726c-.15.316.059.652-.067.979a6.759,6.759,0,0,0-.255.923c-.11.466-.218.933-.3,1.4-.089.488-.139.984-.228,1.473-.029.15-.159.282-.19.432a7.655,7.655,0,0,0-.121.952.743.743,0,0,1-.195.588.857.857,0,0,0-.145.279l-.513,1.054a.659.659,0,0,0-.107.246,7.463,7.463,0,0,1-.206.99,1.529,1.529,0,0,1-.485.922,1.744,1.744,0,0,0-.426.671,2.071,2.071,0,0,1-.525.927c-.228.2-.1.563-.383.737a1.839,1.839,0,0,0-.588.609,3.722,3.722,0,0,1-.523.675c-.226.222-.241.6-.584.74-.067.026-.075.19-.118.287a1.786,1.786,0,0,1-.655.824,2.609,2.609,0,0,0-.681.681,3.628,3.628,0,0,1-1.505,1.231c-.185.083-.336.239-.517.338-.156.085-.33.134-.494.2a1.251,1.251,0,0,0-.289.144,2.264,2.264,0,0,1-.845.6,2.853,2.853,0,0,0-.88.488,4.97,4.97,0,0,0-.622.595,3.5,3.5,0,0,1-.716.558,4.943,4.943,0,0,0-.737.515c-.2.177-.47.3-.675.5a.493.493,0,0,1-.277.14.757.757,0,0,0-.738.619c-.006.026-.056.041-.085.061a1.606,1.606,0,0,1-.4-.777c.115-.215.228-.431.344-.644.077-.14.158-.277.238-.416a4.093,4.093,0,0,0,.287-.507.959.959,0,0,1,.8-.691.669.669,0,0,0,.423-.2,1.518,1.518,0,0,1,.868-.49,1.08,1.08,0,0,0,.434-.207,1.627,1.627,0,0,1,.724-.325.947.947,0,0,0,.413-.236c.491-.383.981-.77,1.461-1.167a2.92,2.92,0,0,0,.483-.5,2.692,2.692,0,0,1,.823-.753,4.266,4.266,0,0,0,1.666-1.614,1.46,1.46,0,0,1,.228-.3,1.872,1.872,0,0,0,.568-.831.8.8,0,0,1,.359-.381,1.467,1.467,0,0,0,.675-1.1.99.99,0,0,1,.381-.67c.4-.329.8-.652,1.2-.987a.629.629,0,0,0,.187-.252,3.409,3.409,0,0,0,.3-1.131,1.536,1.536,0,0,1,.22-.815.506.506,0,0,0,.089-.244,1.015,1.015,0,0,1,.25-.636,1.121,1.121,0,0,0,.2-.6,1.249,1.249,0,0,1,.316-.882.267.267,0,0,0,.086-.134,5.917,5.917,0,0,1,.534-1.5,3.447,3.447,0,0,1,.338-1.427c.226-.691.373-1.407.558-2.11.026-.1.051-.236.124-.29.231-.171.185-.407.2-.633l.322-.108C75.459,79.231,75.566,79.2,75.673,79.161Z" transform="translate(-36.099 -59.636)" fill="#fa1800"/>
        <path id="Path_142959" data-name="Path 142959" d="M55.4,80.117l.15-.037.174-.07.673-.274a1.449,1.449,0,0,1,.536.188c.408.292.844.549,1.268.82a.97.97,0,0,0,.12.335,1.619,1.619,0,0,1,.344,1.48.549.549,0,0,0,.158.579,1.7,1.7,0,0,1,.346.579c.156.352.271.722.434,1.072s.37.687.542,1.037a1.2,1.2,0,0,1,.11.407,1.811,1.811,0,0,0,.4,1.03.648.648,0,0,1,.14.383.589.589,0,0,0,.329.566,1.146,1.146,0,0,1,.223.217c-.391.44-.765.895-1.175,1.314-.247.252-.566.434-.824.678a11.736,11.736,0,0,1-1.459,1.237c.072-.252-.193-.311-.27-.475s.163-.376-.049-.544a.105.105,0,0,1-.032-.043,1.61,1.61,0,0,1-.169-.93,2.107,2.107,0,0,0-.142-1.183,6.877,6.877,0,0,1-.325-1.343,2.623,2.623,0,0,0-.244-1.129,3.521,3.521,0,0,1-.273-.97c-.126-.571-.234-1.147-.348-1.719-.032-.156-.069-.311-.088-.469-.043-.389-.075-.778-.116-1.167a.294.294,0,0,0-.049-.148A2.343,2.343,0,0,1,55.4,80.117Z" transform="translate(-38.39 -59.294)" fill="#863d35"/>
        <path id="Path_142960" data-name="Path 142960" d="M53.305,80.944a7.817,7.817,0,0,1,1.706-.6.4.4,0,0,0,.226.336.494.494,0,0,1,.23.509c-.018.159-.03.319-.04.478,0,.085-.037.2,0,.247a.777.777,0,0,1,.14.609.772.772,0,0,0,.128.451,1.334,1.334,0,0,1,.2.764c-.011.341,0,.681,0,1.022a1.231,1.231,0,0,0,.236.909.373.373,0,0,1,.081.193c.043.5.075.992.118,1.488q.048.557.118,1.113a.3.3,0,0,0,.094.185.752.752,0,0,1,.22.684c-.008.3-.011.609,0,.914a4.4,4.4,0,0,0,.3,1.762c.064.137.085.252.246.3.043.013.061.115.089.177-.528.333-1.048.678-1.585,1a2.351,2.351,0,0,1-1,.448c-.035-.1-.1-.144-.2-.092-.177.086-.354.174-.536.25a.173.173,0,0,1-.147-.024.133.133,0,0,1-.006-.129c.246-.266.128-.569.1-.864a1.712,1.712,0,0,1-.032-.309c.014-.231.067-.459.065-.689,0-.265-.128-.557-.054-.789.183-.59-.086-1.166.03-1.743a6.465,6.465,0,0,1,.061-2.124c0-.163.045-.287-.083-.431-.207-.236-.352-.493-.1-.805.057-.07.041-.207.04-.314a4.521,4.521,0,0,0-.187-1.773c-.035-.078.045-.2.056-.306.021-.207.094-.421-.105-.6-.049-.045-.046-.159-.051-.242,0-.067.048-.175.019-.2-.255-.214-.15-.5-.155-.756A2.715,2.715,0,0,0,53.305,80.944Z" transform="translate(-39.639 -58.935)" fill="#676c63"/>
        <path id="Path_142961" data-name="Path 142961" d="M54.351,80.719a2.715,2.715,0,0,1,.226,1.037c0,.255-.1.542.155.756.029.024-.022.132-.019.2,0,.083,0,.2.051.242.2.18.126.394.105.6-.011.105-.091.228-.056.306A4.522,4.522,0,0,1,55,85.634c0,.107.018.244-.04.314-.254.313-.108.569.1.805.128.144.081.268.083.431a6.465,6.465,0,0,0-.061,2.124c-.116.577.153,1.153-.03,1.743-.073.233.053.525.054.789,0,.23-.051.458-.065.689a1.711,1.711,0,0,0,.032.309c.029.3.147.6-.1.864a.133.133,0,0,0,.006.129.173.173,0,0,0,.147.024c.182-.077.359-.164.536-.25.105-.051.167-.01.2.092-.191.144-.384.289-.571.439l.065.113a1.067,1.067,0,0,1-.23.115c-.381.1-.769.169-1.147.274a.581.581,0,0,1-.552-.094c-.242-.18-.493-.351-.742-.525-.293-.2-.593-.4-.883-.608a2.308,2.308,0,0,1-.26-.255.822.822,0,0,1,.563.266.532.532,0,0,0,.671-.032.3.3,0,0,0,.045-.249,6.016,6.016,0,0,1-.086-1.55.256.256,0,0,1,.214-.314.292.292,0,0,0,.2-.386.7.7,0,0,1-.013-.464.441.441,0,0,0-.053-.354.9.9,0,0,1,.069-.96.708.708,0,0,0,.07-.611.859.859,0,0,1,0-.576,1.769,1.769,0,0,0,.049-.478c0-.628.006-1.258,0-1.887a5.174,5.174,0,0,0-.07-.582.552.552,0,0,1-.026-.21c.116-.351-.049-.7.011-1.052.041-.246.067-.493.088-.742a8.456,8.456,0,0,1,.067-1.555c.01-.04-.057-.134-.105-.147a1.615,1.615,0,0,0-.319-.033Zm.266,13.164-.081.059c.027.014.056.038.083.038a.211.211,0,0,0,.086-.032Z" transform="translate(-40.685 -58.71)" fill="#43837c"/>
        <path id="Path_142962" data-name="Path 142962" d="M77.359,67.747c.014.032.021.083.046.094.421.2.4.55.282.9a8.1,8.1,0,0,1-.49,1.413c-.405.738-.761,1.505-1.131,2.263-.33.675-.647,1.355-.979,2.03-.059.121-.091.285-.276.3a3.582,3.582,0,0,1,.153-.557c.257-.568.55-1.119.794-1.692a6.323,6.323,0,0,0,.569-1.316c.059-.037.15-.057.172-.108a7.389,7.389,0,0,0,.541-1.727.326.326,0,0,0-.105-.271.318.318,0,0,0-.289,0,1.856,1.856,0,0,0-.671.6,1.85,1.85,0,0,1-.5.675c-.276.172-.263.321-.166.565a1.4,1.4,0,0,1,.04.37l-.019.2c-.287.088-.333.3-.3.561-.372.9-.742,1.8-1.118,2.7-.022.056-.107.085-.163.124.04-.185.078-.372.123-.557.051-.222.108-.442.163-.663a.144.144,0,0,0,.043-.018c.006,0,0-.021.008-.032l-.048.054c-.08.032-.19.04-.236.1a11.55,11.55,0,0,1-1.595,1.489,14.6,14.6,0,0,0-1.362,1.376,5.671,5.671,0,0,1-.832.828,9.152,9.152,0,0,0-.9.764,21.434,21.434,0,0,1-2.473,2.137,9.582,9.582,0,0,0-.815.609,10.583,10.583,0,0,1-1.821,1.311,11.606,11.606,0,0,1-2.143,1.207,1.136,1.136,0,0,0-.263.183c-.057.04-.113.108-.175.116a6.129,6.129,0,0,0-1.348.517c-.686.249-1.384.47-2.089.66-.226.061-.464.225-.724.088L58.1,84.2c.1.013.163-.011.151-.128l.016.04-.018-.038a.123.123,0,0,0,.051.011,13.058,13.058,0,0,0,3.472-1.172,5.959,5.959,0,0,0,1.834-1.147c.051-.053.1-.112.169-.2a2.7,2.7,0,0,0-1.159.112,5.336,5.336,0,0,1-1.43.158l0-.112h0l.126-.07.029-.011.182-.12h0a2.832,2.832,0,0,0,.482-.026,11.085,11.085,0,0,0,3.645-1.34c.177-.113.413-.145.512-.367l0,0a.333.333,0,0,0,.33-.214v0l.112-.072a.079.079,0,0,1,.077-.046l.136-.1v0a.326.326,0,0,0,.321-.225l-.006,0,.118-.1,0,0,.108-.08c.419-.362.856-.706,1.252-1.091.77-.75,1.539-1.5,2.269-2.287,1.646-1.775,3.062-3.736,4.523-5.661.565-.743,1.178-1.442,1.812-2.124C77.251,67.773,77.311,67.766,77.359,67.747Z" transform="translate(-37.278 -66.424)" fill="#127574"/>
        <path id="Path_142963" data-name="Path 142963" d="M59.949,94.918l.2.11a.693.693,0,0,0,.325.534c-.018.333.21.571.33.85.51,1.025,1.016,2.052,1.534,3.073a3.9,3.9,0,0,0,.37.52c.085.113.183.218.258.338a.548.548,0,0,0,.742.3c.115-.029.225-.081.336-.121a2.232,2.232,0,0,0,.427-.035c.04-.01.092-.18.065-.209-.364-.391-.667-.834-1.019-1.225a5,5,0,0,1-.558-1.009,1.03,1.03,0,0,1-.1-.517,1.625,1.625,0,0,1,.593-1.45c.07-.048.1-.15.164-.207a1.678,1.678,0,0,1,.29-.206c.107-.057.223-.1.335-.145a3.158,3.158,0,0,1,.643-.26,1.821,1.821,0,0,0,.911-.236,6.49,6.49,0,0,0,1.421-.218,2.5,2.5,0,0,1,.584.04c.07.006.148.061.2.041a2.874,2.874,0,0,1,1.261.048c.58.064,1.167.1,1.748.18.6.086.767.2.923.831-.086.281-.354.391-.553.553-.421.343-.871.651-1.309.973-.136-.113-.265-.233-.408-.338a.921.921,0,0,0-.317-.172,7.5,7.5,0,0,0-2.472-.327c-.282.027-.561.085-.844.1a1.574,1.574,0,0,0-1.426,1.3,1.462,1.462,0,0,0,.341,1.287,3.446,3.446,0,0,1,.426.547.908.908,0,0,1,.07.3,7.094,7.094,0,0,1-.719.348c-.421.151-.852.276-1.281.4-.454.129-.5.105-.713-.314C62.15,99.452,61.579,98.3,61,97.143c-.287-.577-.582-1.15-.866-1.73C60.061,95.255,60.011,95.084,59.949,94.918Z" transform="translate(-35.688 -50.339)" fill="#ffb801"/>
        <path id="Path_142964" data-name="Path 142964" d="M56.767,92.7c-.029-.062-.046-.164-.089-.177-.161-.046-.182-.161-.246-.3a4.4,4.4,0,0,1-.3-1.762c-.011-.3-.008-.609,0-.914a.752.752,0,0,0-.22-.684.3.3,0,0,1-.094-.185q-.069-.555-.118-1.113c-.043-.5-.075-.992-.118-1.488a.373.373,0,0,0-.081-.193,1.23,1.23,0,0,1-.236-.909c.01-.341-.006-.681,0-1.022a1.334,1.334,0,0,0-.2-.764.772.772,0,0,1-.128-.451.777.777,0,0,0-.14-.609c-.041-.046-.01-.163,0-.247.01-.159.022-.319.04-.478a.494.494,0,0,0-.23-.509.4.4,0,0,1-.226-.336l1.641-.582a2.343,2.343,0,0,0,.378,1.419.294.294,0,0,1,.049.148c.041.389.073.778.116,1.167.019.158.056.313.088.469.113.573.222,1.148.348,1.719a3.521,3.521,0,0,0,.273.97A2.623,2.623,0,0,1,57.512,87a6.877,6.877,0,0,0,.325,1.343,2.107,2.107,0,0,1,.142,1.183,1.61,1.61,0,0,0,.169.93.105.105,0,0,0,.032.043c.212.167-.029.378.049.544s.341.223.27.475c-.137.108-.274.215-.413.322-.333.252-.668.5-1,.757Z" transform="translate(-39.002 -59.152)" fill="#755b51"/>
        <path id="Path_142965" data-name="Path 142965" d="M71.213,96.582c-.156-.627-.322-.745-.923-.831-.58-.085-1.167-.116-1.748-.18a2.874,2.874,0,0,0-1.261-.048c-.056.019-.134-.035-.2-.041a2.5,2.5,0,0,0-.584-.04,6.491,6.491,0,0,1-1.421.218,1.821,1.821,0,0,1-.911.236,3.157,3.157,0,0,0-.643.26c-.112.048-.228.088-.335.145a1.678,1.678,0,0,0-.29.206c-.064.057-.094.159-.164.207a1.625,1.625,0,0,0-.593,1.45,1.03,1.03,0,0,0,.1.517A5,5,0,0,0,62.8,99.69c.352.391.655.834,1.019,1.225.027.029-.026.2-.065.209a2.231,2.231,0,0,1-.427.035,5.133,5.133,0,0,0-.469-.513,6.033,6.033,0,0,1-1.387-1.754,2.307,2.307,0,0,1,.183-2.575,1.618,1.618,0,0,1,.416-.332c.333-.238.692-.447,1-.711.183-.158.4-.145.593-.223q.646-.256,1.306-.469a5.082,5.082,0,0,1,.628-.12c.121-.022.244-.043.364-.077a7.712,7.712,0,0,1,1.631-.255c.781-.045,1.56-.148,2.339-.23.051,0,.108-.064.148-.051.643.2,1.273-.147,1.915-.041a2.1,2.1,0,0,0,.528-.057,1.616,1.616,0,0,1,.37-.029,1.579,1.579,0,0,1,.464.12c.188.086.069.3.132.437.021.048.048.1.072.144l-.478.472-.034.037-.775.721-.105.091-.014.01a.5.5,0,0,0-.424.394Z" transform="translate(-34.969 -50.98)" fill="#ff9601"/>
        <path id="Path_142966" data-name="Path 142966" d="M56.39,83.474l.4-.372a1.279,1.279,0,0,0,.791-.032c.228-.1.472-.155.706-.236.372-.131.769-.167,1.135-.284s.735-.262,1.1-.391c.23-.081.413-.279.636-.383s.482-.131.7-.234c.4-.188.778-.432,1.185-.611a15.112,15.112,0,0,0,1.547-.923,12.684,12.684,0,0,1,1.6-1.046c.077-.032.129-.12.2-.167a12.316,12.316,0,0,1,1.555-1.2c.059-.027.088-.11.139-.159.124-.121.25-.246.384-.357.152-.126.322-.226.469-.356.44-.389.864-.8,1.309-1.177a7.362,7.362,0,0,0,.8-.616c.222-.252.571-.357.721-.675.013-.026.061-.035.092-.051.274-.123.553-.239.821-.375a.854.854,0,0,0,.282-.23c.19-.236.359-.49.544-.729.08-.1.15-.048.2.041l-.016.193c-.1.153-.211.306-.311.461-.112.172-.22.346-.33.52-.073.041-.174.064-.214.128a7.565,7.565,0,0,0-.624,1.06.9.9,0,0,1-.461.486,8.217,8.217,0,0,1-1.513.765c-.129.034-.233.158-.352.234-.743.474-1.175,1.3-1.942,1.743-.014.008-.021.029-.033.041-.285.314-.593.611-.848.947a1.433,1.433,0,0,1-.662.52,1.679,1.679,0,0,0-.75.549,1.14,1.14,0,0,1-.129.1,9.874,9.874,0,0,1-1.458.759,3.222,3.222,0,0,0-.545.321c-.185.174-.426.051-.6.179a.5.5,0,0,0-.083.069,1.351,1.351,0,0,1-.769.329,3.822,3.822,0,0,0-.742.4c-.206.1-.431.164-.641.258-.258.116-.5.265-.767.37-.281.112-.574.187-.861.282-.2.067-.458.086-.593.222a.727.727,0,0,1-1.067.123c-.167-.118-.2.056-.223.18-.22-.132-.448-.255-.655-.407C56.452,83.689,56.433,83.565,56.39,83.474Z" transform="translate(-37.804 -63.41)" fill="#571616"/>
        <path id="Path_142967" data-name="Path 142967" d="M73.57,73.728c-.053-.089-.123-.145-.2-.041-.185.239-.354.493-.544.729a.854.854,0,0,1-.282.23c-.268.136-.547.252-.821.375-.032.016-.08.026-.092.051-.15.317-.5.423-.721.675a7.363,7.363,0,0,1-.8.616c-.445.381-.869.788-1.309,1.177-.147.129-.317.23-.469.356-.134.112-.26.236-.384.357-.051.049-.08.132-.139.159a12.318,12.318,0,0,0-1.555,1.2c-.073.048-.126.136-.2.167a12.684,12.684,0,0,0-1.6,1.046,15.109,15.109,0,0,1-1.547.923c-.407.179-.783.423-1.185.611-.222.1-.48.131-.7.234s-.407.3-.636.383c-.368.129-.735.273-1.1.391s-.764.153-1.135.284c-.234.081-.478.14-.706.236a1.279,1.279,0,0,1-.791.032l.895-.965c.091.018.137-.011.116-.11l0-.01c.26.137.5-.027.724-.088.7-.19,1.4-.411,2.089-.66a6.129,6.129,0,0,1,1.348-.517c.062-.008.118-.077.175-.116a1.136,1.136,0,0,1,.263-.183,11.606,11.606,0,0,0,2.143-1.207,10.583,10.583,0,0,0,1.821-1.311,9.579,9.579,0,0,1,.815-.609A21.434,21.434,0,0,0,69.5,76a9.15,9.15,0,0,1,.9-.764,5.671,5.671,0,0,0,.832-.828A14.594,14.594,0,0,1,72.6,73.037a11.55,11.55,0,0,0,1.595-1.489c.046-.059.156-.067.236-.1l0,0c-.054.222-.112.442-.163.663-.045.185-.083.372-.123.557a.366.366,0,0,0-.029.08c-.051.008-.134,0-.147.03-.1.2-.188.4-.268.609-.01.024.049.077.077.116Z" transform="translate(-37.656 -64.226)" fill="#463637"/>
        <path id="Path_142968" data-name="Path 142968" d="M63.712,99.495a.908.908,0,0,0-.07-.3,3.447,3.447,0,0,0-.426-.547,1.462,1.462,0,0,1-.341-1.287,1.574,1.574,0,0,1,1.426-1.3c.282-.018.561-.075.844-.1a7.5,7.5,0,0,1,2.472.327.921.921,0,0,1,.317.172c.144.105.273.225.408.338a3.942,3.942,0,0,1-.354.319,13.474,13.474,0,0,1-2.076,1.332l0,0-.167.085-.188.1-.037.032-.049,0-.139.08-.2.116c-.032.014-.064.029-.1.046l-.349.172c-.026.013-.051.026-.08.037l-.388.183a.068.068,0,0,1-.053.024l-.169.1-.008,0Z" transform="translate(-33.96 -49.661)" fill="#ffda00"/>
        <path id="Path_142970" data-name="Path 142970" d="M57.052,88.5l.317-.1c.075.124.169.105.27.037.207-.139.415-.274.619-.416.247-.172.49-.354.738-.523s.477-.311.722-.454c.016-.01.131.08.126.113a.526.526,0,0,1-.107.233c-.094.129-.21.242-.3.372-.233.313-.445.643-.689.946-.266.33-.571.63-.839.958a4.529,4.529,0,0,1-.915.965c-.033.022-.03.1-.045.15-.276-.091-.552-.187-.831-.27a.816.816,0,0,0-.233,0l-.316-.054c-.073-.14-.206-.121-.327-.115-.328.018-.673-.086-.981.115l-.3.04L53.9,90.38c.187-.15.38-.3.571-.439a2.351,2.351,0,0,0,1-.448C56,89.176,56.524,88.831,57.052,88.5Z" transform="translate(-39.287 -54.953)" fill="#463637"/>
        <path id="Path_142971" data-name="Path 142971" d="M60.825,76.7a5.336,5.336,0,0,0,1.43-.158,2.7,2.7,0,0,1,1.159-.112c-.073.085-.118.144-.169.2a5.959,5.959,0,0,1-1.834,1.147,13.058,13.058,0,0,1-3.472,1.172.123.123,0,0,1-.051-.011A6.612,6.612,0,0,1,59.208,77.7c.4-.33.844-.6,1.268-.893l.037-.032a.079.079,0,0,1,.065-.043Z" transform="translate(-36.913 -61.282)" fill="#04c6c5"/>
        <path id="Path_142972" data-name="Path 142972" d="M64.584,75.305c-.1.222-.335.254-.512.367a11.085,11.085,0,0,1-3.645,1.34,2.832,2.832,0,0,1-.482.026,4.4,4.4,0,0,1,1.926-.765,7.267,7.267,0,0,0,2.078-.694C64.153,75.472,64.372,75.394,64.584,75.305Z" transform="translate(-35.69 -61.929)" fill="#755b51"/>
        <path id="Path_142973" data-name="Path 142973" d="M80.124,88.147a4.515,4.515,0,0,1-.526.037,6.944,6.944,0,0,0-3.234.663c-.619.281-1.2.641-1.8.965-.093.049-.19.093-.285.137h0a1.143,1.143,0,0,1,.214-.284c.217-.148.453-.268.681-.4l1.178-.689a4.3,4.3,0,0,0,.558-.128,3.367,3.367,0,0,1,1.427-.319.827.827,0,0,0,.285-.1l1.073-.011.418.024C80.118,88.08,80.121,88.114,80.124,88.147Z" transform="translate(-27.166 -54.366)" fill="#ffb801"/>
        <path id="Path_142974" data-name="Path 142974" d="M71.38,93a4.2,4.2,0,0,1,.3-.419c.4-.427.809-.845,1.215-1.266.569-.3.931-.858,1.467-1.2.29-.188.5-.507.88-.544l0,0c-.321.281-.646.555-.962.842-.82.743-1.635,1.493-2.454,2.236C71.691,92.778,71.531,92.885,71.38,93Z" transform="translate(-28.89 -53.445)" fill="#ffb801"/>
        <path id="Path_142975" data-name="Path 142975" d="M56.6,79.5c.043.091.062.215.134.268.207.151.435.274.655.407l1.647,1.15-.013.166-.327-.07-.093-.072-.344-.238-.212-.175-.22-.049c-.424-.271-.86-.528-1.268-.82a1.448,1.448,0,0,0-.536-.188Z" transform="translate(-38.019 -59.435)" fill="#43837c"/>
        <path id="Path_142976" data-name="Path 142976" d="M69.208,94.524a.941.941,0,0,1,.121-.228q.667-.682,1.351-1.349a.941.941,0,0,1,.228-.121c0,.018,0,.043,0,.053q-.82.82-1.643,1.639C69.251,94.528,69.226,94.523,69.208,94.524Z" transform="translate(-30.181 -51.51)" fill="#ffb801"/>
        <path id="Path_142977" data-name="Path 142977" d="M54.123,89.226c.308-.2.652-.1.981-.115.121-.006.254-.026.327.115A3.253,3.253,0,0,1,54.123,89.226Z" transform="translate(-39.152 -53.726)" fill="#43837c"/>
        <path id="Path_142978" data-name="Path 142978" d="M55.141,89.217a.816.816,0,0,1,.233,0c.279.083.555.179.831.27l.239.193-.032.038Z" transform="translate(-38.547 -53.663)" fill="#43837c"/>
        <path id="Path_142979" data-name="Path 142979" d="M79.041,88.23l.091.1a2.251,2.251,0,0,1-1.062-.2l.121-.038Z" transform="translate(-24.911 -54.326)" fill="#ffb801"/>
        <path id="Path_142980" data-name="Path 142980" d="M56.64,90a1.148,1.148,0,0,1,.62.582A1.106,1.106,0,0,1,56.64,90Z" transform="translate(-37.655 -53.19)" fill="#43837c"/>
        <path id="Path_142981" data-name="Path 142981" d="M74.561,89.231l-.754.544,0,0a.941.941,0,0,1,.754-.542Z" transform="translate(-27.447 -53.648)" fill="#ffb801"/>
        <path id="Path_142982" data-name="Path 142982" d="M50.946,88.11c.222.038.451.064.5.346Z" transform="translate(-41.042 -54.314)" fill="#43837c"/>
        <path id="Path_142983" data-name="Path 142983" d="M56.713,89.94l.026.126a.581.581,0,0,1-.48-.357Z" transform="translate(-37.882 -53.363)" fill="#43837c"/>
        <path id="Path_142984" data-name="Path 142984" d="M67.786,95.387a.5.5,0,0,1,.424-.394A.577.577,0,0,1,67.786,95.387Z" transform="translate(-31.027 -50.221)" fill="#ffb801"/>
        <path id="Path_142985" data-name="Path 142985" d="M74.356,69.031c-.158.137-.263.147-.3.011a.969.969,0,0,1,.029-.333Z" transform="translate(-27.303 -65.852)" fill="#d50400"/>
        <path id="Path_142986" data-name="Path 142986" d="M74.548,69.261l-.128.206c-.059-.083-.148-.156-.172-.247-.035-.126.088-.126.172-.142Z" transform="translate(-27.187 -65.633)" fill="#d50400"/>
        <path id="Path_142987" data-name="Path 142987" d="M56.156,89.538l.234.252a.483.483,0,0,1-.453-.25l.032-.038Z" transform="translate(-38.073 -53.487)" fill="#43837c"/>
        <path id="Path_142988" data-name="Path 142988" d="M50.67,87.915c.22-.032.316.113.4.279A.461.461,0,0,1,50.67,87.915Z" transform="translate(-41.206 -54.433)" fill="#43837c"/>
        <path id="Path_142989" data-name="Path 142989" d="M57.059,90.4l.249.281A.269.269,0,0,1,57.059,90.4Z" transform="translate(-37.406 -52.955)" fill="#43837c"/>
        <path id="Path_142990" data-name="Path 142990" d="M63.582,74.895a.326.326,0,0,1-.321.225A.351.351,0,0,1,63.582,74.895Z" transform="translate(-33.718 -62.173)" fill="#755b51"/>
        <path id="Path_142991" data-name="Path 142991" d="M63.181,75.172a.333.333,0,0,1-.33.214A.354.354,0,0,1,63.181,75.172Z" transform="translate(-33.962 -62.008)" fill="#755b51"/>
        <path id="Path_142992" data-name="Path 142992" d="M50.47,87.781a.208.208,0,0,1,.277.183Z" transform="translate(-41.325 -54.515)" fill="#43837c"/>
        <path id="Path_142993" data-name="Path 142993" d="M48.3,86.273c.091.011.191.006.191.139C48.385,86.423,48.3,86.4,48.3,86.273Z" transform="translate(-42.617 -55.407)" fill="#43837c"/>
        <path id="Path_142994" data-name="Path 142994" d="M51.35,88.385a.219.219,0,0,1,.282.193C51.506,88.56,51.387,88.533,51.35,88.385Z" transform="translate(-40.801 -54.154)" fill="#43837c"/>
        <path id="Path_142995" data-name="Path 142995" d="M74.149,68.737c-.077.01-.2.048-.218.022-.059-.1.038-.14.116-.175Z" transform="translate(-27.383 -65.926)" fill="#d50400"/>
        <path id="Path_142996" data-name="Path 142996" d="M48.7,86.44a.216.216,0,0,1-.01.091c-.112.046-.155-.019-.18-.112Z" transform="translate(-42.49 -55.32)" fill="#43837c"/>
        <path id="Path_142997" data-name="Path 142997" d="M78.27,88.126l-.121.038-.2-.021c0-.033-.006-.067-.011-.1l.335-.014C78.273,88.063,78.272,88.094,78.27,88.126Z" transform="translate(-24.99 -54.362)" fill="#ff8401"/>
        <path id="Path_142998" data-name="Path 142998" d="M59.822,76.629l-.247.027.252-.139Z" transform="translate(-35.91 -61.209)" fill="#755b51"/>
        <path id="Path_142999" data-name="Path 142999" d="M64.546,97.658l.188-.1Z" transform="translate(-32.954 -48.694)" fill="#ffb801"/>
        <path id="Path_143000" data-name="Path 143000" d="M49.68,87.231l.131.075Z" transform="translate(-41.794 -54.837)" fill="#43837c"/>
        <path id="Path_143001" data-name="Path 143001" d="M63.564,98.112l.008,0,.035,0Z" transform="translate(-33.538 -48.366)" fill="#ffb801"/>
        <path id="Path_143002" data-name="Path 143002" d="M57.946,77.987c.011.116-.056.14-.151.128Z" transform="translate(-36.969 -60.334)" fill="#04c6c5"/>
        <path id="Path_143003" data-name="Path 143003" d="M60.012,76.391l-.182.12Z" transform="translate(-35.758 -61.284)" fill="#755b51"/>
        <path id="Path_143004" data-name="Path 143004" d="M64.22,97.81c.032-.018.064-.032.1-.046Z" transform="translate(-33.148 -48.573)" fill="#ffb801"/>
        <path id="Path_143005" data-name="Path 143005" d="M63.951,97.938c.029-.011.054-.024.08-.037Z" transform="translate(-33.308 -48.492)" fill="#ffb801"/>
        <path id="Path_143006" data-name="Path 143006" d="M78.932,88.3l.013.009-.012.016Z" transform="translate(-24.398 -54.201)" fill="#ffb801"/>
        <path id="Path_143007" data-name="Path 143007" d="M63.576,74.835l-.118.1Z" transform="translate(-33.601 -62.209)" fill="#755b51"/>
        <path id="Path_143008" data-name="Path 143008" d="M79.134,88.371l.015.01-.017.014Z" transform="translate(-24.279 -54.159)" fill="#ffb801"/>
        <path id="Path_143009" data-name="Path 143009" d="M48.15,86.168l.091.053Z" transform="translate(-42.704 -55.469)" fill="#43837c"/>
        <path id="Path_143010" data-name="Path 143010" d="M63.312,75.037l-.136.1Z" transform="translate(-33.768 -62.089)" fill="#755b51"/>
        <path id="Path_143011" data-name="Path 143011" d="M63.17,75.128l-.112.072Z" transform="translate(-33.839 -62.035)" fill="#755b51"/>
        <path id="Path_143012" data-name="Path 143012" d="M55.672,79.908l-.174.07Z" transform="translate(-38.335 -59.192)" fill="#755b51"/>
        <path id="Path_143013" data-name="Path 143013" d="M63.642,74.784l-.108.08Z" transform="translate(-33.556 -62.239)" fill="#755b51"/>
        <path id="Path_143014" data-name="Path 143014" d="M72.219,67.053l.013,0-.015-.013Z" transform="translate(-28.391 -66.846)" fill="#d50400"/>
        <path id="Path_143015" data-name="Path 143015" d="M48.769,86.629l-.014-.016Z" transform="translate(-42.345 -55.205)" fill="#43837c"/>
        <path id="Path_143016" data-name="Path 143016" d="M59.548,76.631l-.037.031,0-.03Z" transform="translate(-35.948 -61.141)" fill="#755b51"/>
        <path id="Path_143017" data-name="Path 143017" d="M48.973,86.752l-.018,0Z" transform="translate(-42.226 -55.125)" fill="#43837c"/>
        <path id="Path_143018" data-name="Path 143018" d="M49.118,86.833l.043,0,.019.039-.046,0Z" transform="translate(-42.129 -55.074)" fill="#43837c"/>
        <path id="Path_143019" data-name="Path 143019" d="M68.613,94.492l.033-.037.006.042Z" transform="translate(-30.535 -50.541)" fill="#ffb801"/>
        <path id="Path_143020" data-name="Path 143020" d="M59.928,94.748l.015.031-.026-.007Z" transform="translate(-35.707 -50.367)" fill="#ffb801"/>
        <path id="Path_143021" data-name="Path 143021" d="M59.859,76.473l-.126.07Z" transform="translate(-35.816 -61.235)" fill="#755b51"/>
        <path id="Path_143022" data-name="Path 143022" d="M68.061,95.021l.105-.091Z" transform="translate(-30.863 -50.258)" fill="#ffb801"/>
        <path id="Path_143023" data-name="Path 143023" d="M49.516,87.107l.067.049C49.542,87.166,49.519,87.148,49.516,87.107Z" transform="translate(-41.892 -54.911)" fill="#43837c"/>
        <path id="Path_143024" data-name="Path 143024" d="M57.316,78.592c.021.1-.026.128-.116.11Z" transform="translate(-37.322 -59.975)" fill="#127574"/>
        <path id="Path_143025" data-name="Path 143025" d="M64.769,97.51l0,0,0,.021Z" transform="translate(-32.821 -48.727)" fill="#ffb801"/>
        <path id="Path_143026" data-name="Path 143026" d="M50.184,87.582l.085.053Z" transform="translate(-41.495 -54.628)" fill="#43837c"/>
        <path id="Path_143027" data-name="Path 143027" d="M64.4,97.721l.139-.08Z" transform="translate(-33.038 -48.646)" fill="#ffb801"/>
        <path id="Path_143028" data-name="Path 143028" d="M50.393,87.715l.073.062Z" transform="translate(-41.37 -54.549)" fill="#43837c"/>
        <path id="Path_143029" data-name="Path 143029" d="M72.536,67.2a.247.247,0,0,1-.057-.021l.037-.019Z" transform="translate(-28.236 -66.773)" fill="#d50400"/>
        <path id="Path_143030" data-name="Path 143030" d="M63.675,98.063a.068.068,0,0,0,.053-.024l-.016.041Z" transform="translate(-33.472 -48.41)" fill="#ffb801"/>
        <path id="Path_143031" data-name="Path 143031" d="M49.991,87.441l.077.054Z" transform="translate(-41.61 -54.712)" fill="#43837c"/>
        <path id="Path_143032" data-name="Path 143032" d="M76.131,100.7a.941.941,0,0,0-.754.542c-.383.037-.59.356-.88.544-.536.344-.9.9-1.467,1.2a.5.5,0,0,0-.439.155,1.212,1.212,0,0,1-.285.241.234.234,0,0,1-.193-.021.16.16,0,0,1-.046-.14,1.757,1.757,0,0,1,.131-.407,4.962,4.962,0,0,0,.2-.765,3.4,3.4,0,0,0,.091-1.3c-.021-.431,0-.863,0-1.293a3.013,3.013,0,0,0-.174-1.373.436.436,0,0,1-.014-.311,1.329,1.329,0,0,0,.014-.785,13.256,13.256,0,0,1-.147-1.379.817.817,0,0,1,.046-.368.705.705,0,0,0-.041-.568.9.9,0,0,1-.1-.561,2.014,2.014,0,0,0-.051-1.1c-.092-.667-.172-1.336-.276-2a19.383,19.383,0,0,1-.124-1.976.58.58,0,0,0-.026-.212,3.61,3.61,0,0,1-.191-1.4c-.027-.48-.083-.958-.1-1.44a8.64,8.64,0,0,0-.027-1.4c-.075-.37.033-.724-.059-1.1a5.1,5.1,0,0,1-.026-1.18c0-.376,0-.754,0-1.131a7.032,7.032,0,0,1,.01-1.131,25.616,25.616,0,0,0,.105-2.84c.029-.513.128-1.022.193-1.532a1.362,1.362,0,0,0,.014-.214,13.033,13.033,0,0,1,.362-2.532,8.291,8.291,0,0,1,.367-1.663c.011-.026-.051-.081-.08-.123l0-.214a.329.329,0,0,0,.319-.238,2.7,2.7,0,0,1,.273-.515.514.514,0,0,1,.866.008,9.078,9.078,0,0,1,.791,1.33,14.311,14.311,0,0,1,.577,1.725,19.58,19.58,0,0,1,.636,2.583c.112.756.284,1.5.421,2.253.048.263.069.529.11.793.024.156.064.311.1.466.033.137.086.271.11.41a10.684,10.684,0,0,1,.222,1.8,2.189,2.189,0,0,0,.062.314c.088.561.177,1.124.255,1.687.075.545.142,1.094.2,1.641.046.407.083.815.121,1.223.01.089,0,.18.016.27a14.031,14.031,0,0,1,.2,2.019c.006.413-.022.829.011,1.239.041.5.134.986.2,1.48a8.417,8.417,0,0,1,.107.847c.03.7.046,1.392.083,2.089a17.31,17.31,0,0,1,.26,2.014c0,.081.062.166.094.249a2.807,2.807,0,0,1,.22,1.041,3.544,3.544,0,0,0,.075.526.855.855,0,0,1-.206.891c-.057.048-.061.161-.088.244l-1.178.689c-.228.132-.464.252-.681.4A1.143,1.143,0,0,0,76.131,100.7Zm-.4-21.213.064-.019c-.018-.1-.04-.2-.053-.3-.046-.352-.1-.7-.128-1.06a1.961,1.961,0,0,0-.166-.941c-.065-.112-.03-.279-.056-.419-.091-.507-.163-1.019-.293-1.517a2.377,2.377,0,0,1-.14-.675,1.3,1.3,0,0,0-.069-.419,15.161,15.161,0,0,0-.469-1.571c-.134-.289-.19-.614-.324-.9a1.742,1.742,0,0,0-.718-.965.307.307,0,0,0-.3-.014.922.922,0,0,0-.494.6,12.04,12.04,0,0,0-.542,2.663c-.045.37-.065.745-.116,1.115-.032.228-.032.517-.169.66-.233.244.091.493-.085.7a.181.181,0,0,0-.04.1,1.856,1.856,0,0,0,0,.266c.026.247.072.494.081.742a8.924,8.924,0,0,1,0,1.186c-.038.41.171.805.04,1.214a6.849,6.849,0,0,1,.075,1.606,5.192,5.192,0,0,0,.018.592,14.561,14.561,0,0,1,.316,2.166,3.847,3.847,0,0,0,.126,1,11.332,11.332,0,0,0,.909,3.054.21.21,0,0,1,.029.1,1.015,1.015,0,0,0,.388.678.4.4,0,0,1,.161.316.486.486,0,0,0,.218.462,5.9,5.9,0,0,0,.742.306c.037.014.1-.026.142-.056a1.763,1.763,0,0,0,.743-.944c.075-.268.107-.545.175-.8a6.708,6.708,0,0,0,.249-1.682c0-.212.051-.424.072-.636a1.76,1.76,0,0,0,0-.317c-.021-.23-.073-.458-.077-.687-.008-.9.01-1.8-.008-2.7a13.8,13.8,0,0,0-.123-1.6,1.472,1.472,0,0,1-.024-.839c.026-.057-.046-.158-.073-.239Z" transform="translate(-29.019 -65.115)" fill="#ff9601"/>
        <path id="Path_143033" data-name="Path 143033" d="M78.635,71.248l0,.214c-.07.094-.183.18-.206.285-.18.816-.391,1.63-.5,2.457a16.684,16.684,0,0,0-.282,1.74c-.01.458-.177.914-.177,1.37a5.29,5.29,0,0,0-.043,1.429.935.935,0,0,1-.077.464,3.091,3.091,0,0,0-.128.845c-.038,1.244-.144,2.488-.1,3.733-.2.384,0,.794-.081,1.2-.078.38.035.8-.038,1.18a14.085,14.085,0,0,0-.091,2.36,5.139,5.139,0,0,0,.069.58A1.745,1.745,0,0,1,77,89.69a7.527,7.527,0,0,0-.1,1.713c-.037.93-.059,1.861-.113,2.789-.033.561-.069,1.124-.113,1.684-.059.743-.193,1.48-.293,2.22-.08.6-.132,1.2-.244,1.8a3.792,3.792,0,0,1-.52,1.507,1.713,1.713,0,0,0-.258.469,5.445,5.445,0,0,1-.7,1.376,1.729,1.729,0,0,1-.257.34q-.66.62-1.335,1.223a1.216,1.216,0,0,1-.273.167,1.828,1.828,0,0,0-.663.45.24.24,0,0,1-.08.07,6.981,6.981,0,0,1-2.268.936.393.393,0,0,0-.107.011,10.088,10.088,0,0,1-1.754.44c-.156.037-.3.112-.454.164-.252.086-.507.164-.761.25-.2.069-.405.14-.606.215a2.073,2.073,0,0,1-.5.182,4.082,4.082,0,0,0-1.338.51c-.325.147-.668.254-.993.4a3.589,3.589,0,0,0-1.148.781,3.749,3.749,0,0,1-.426.325,5.175,5.175,0,0,0-.942,1.3c-.1.147.048.372-.145.493-.12-.279-.348-.517-.33-.85.01-.088-.011-.2.033-.263a3.672,3.672,0,0,1,.686-.954c.254-.2.48-.429.737-.62a8.77,8.77,0,0,1,1.186-.824c.834-.429,1.7-.812,2.559-1.175.737-.309,1.488-.59,2.2-.95a.386.386,0,0,1,.147-.065,1.948,1.948,0,0,0,.641-.247,5.511,5.511,0,0,0,1.317-.687.361.361,0,0,1,.1-.041,6.933,6.933,0,0,0,1.383-.807,2.829,2.829,0,0,0,.577-.474c.335-.344.662-.7.968-1.068a4.691,4.691,0,0,0,.716-1,10.2,10.2,0,0,1,.839-1.553,2.843,2.843,0,0,0,.242-.646c-.19-.324.022-.58.142-.855a1.321,1.321,0,0,0,.1-.357,6.309,6.309,0,0,1,.483-1.741,2.242,2.242,0,0,0,.172-.883,2.828,2.828,0,0,1,.086-.631,7.439,7.439,0,0,0,.239-1.58,11.84,11.84,0,0,1,.124-1.384,16.1,16.1,0,0,0,.2-1.856c.016-.552.073-1.1.115-1.654,0-.035.022-.069.026-.1.061-.531.134-1.059.174-1.592a6.473,6.473,0,0,1,.026-1.073c.172-.687.037-1.386.175-2.078a13.982,13.982,0,0,0,.131-1.974.808.808,0,0,1,.01-.108,7.813,7.813,0,0,0,.209-1.963,2.858,2.858,0,0,1,.085-.523c.022-.124.046-.252-.091-.335l0-.539c.23-.056.23-.056.107-.217a5.1,5.1,0,0,1,.169-1.43,7.6,7.6,0,0,0,.15-.947,21.328,21.328,0,0,1,.389-2.151c.131-.662.3-1.319.488-1.968.131-.443.325-.868.494-1.3a.861.861,0,0,1,.1-.188.838.838,0,0,1,1.375-.115,3.826,3.826,0,0,1,.689.952,27.445,27.445,0,0,1,1.437,3.851,5.546,5.546,0,0,0,.49,1.513.838.838,0,0,1,.046.365c.01.123-.026.257.108.34.022.147-.064.321.107.431l.217,1.08a11.47,11.47,0,0,0,.258,1.177,2.107,2.107,0,0,1,.065.365c.029.156.051.314.086.469a31.6,31.6,0,0,1,.7,3.336,3.4,3.4,0,0,0,.25,1.086,2.9,2.9,0,0,1,.268,1.507,2.523,2.523,0,0,0,.282,1.241,1.7,1.7,0,0,1,.144.78,1.657,1.657,0,0,0,.124.676,5.778,5.778,0,0,1,.2.88,2.946,2.946,0,0,0,.043.316,3.047,3.047,0,0,1,.271,1.244c-.061.472.3.8.341,1.223.01.105.1.233.062.3-.1.195.021.351.046.518a5.248,5.248,0,0,0,.172.671c.107.37.23.737.33,1.11a2.549,2.549,0,0,0,.121.619,4.843,4.843,0,0,1,.454,1.466,2.182,2.182,0,0,0,.249.7,1.028,1.028,0,0,1,.179.652c-.01.161,0,.322,0,.483l-1.073.011c-.277-.049-.27-.048-.249-.3a1.174,1.174,0,0,0-.033-.365c-.08-.346-.177-.689-.26-1.035-.255-1.054-.518-2.108-.754-3.165-.132-.59-.218-1.188-.33-1.783-.067-.367-.151-.732-.212-1.1-.085-.507-.151-1.019-.231-1.529-.1-.649-.242-1.295-.3-1.947a7.6,7.6,0,0,0-.277-1.628.891.891,0,0,1-.053-.314,3.3,3.3,0,0,0-.172-1.107c-.024-.085-.032-.174-.048-.262-.107-.612-.212-1.226-.322-1.839a3.547,3.547,0,0,1-.1-.521,7.235,7.235,0,0,0-.247-1.582,5.264,5.264,0,0,1-.195-1.426,1.4,1.4,0,0,0-.043-.372c-.108-.448-.2-.906-.349-1.343a11.675,11.675,0,0,0-.454-1.74c-.03-.057,0-.144-.014-.214-.053-.279-.1-.561-.171-.834-.089-.327-.233-.638-.306-.968a5.132,5.132,0,0,0-.313-.962,4.349,4.349,0,0,1-.266-.686,5.088,5.088,0,0,0-.794-1.625,1.078,1.078,0,0,0-.574-.466c-.206-.061-.466-.126-.609.057A2.27,2.27,0,0,0,78.635,71.248Z" transform="translate(-35.493 -65.428)" fill="#ff6e00"/>
        <path id="Path_143034" data-name="Path 143034" d="M56.234,96.171l-.187-.037-.239-.193c.014-.051.011-.128.045-.15a4.529,4.529,0,0,0,.915-.965c.268-.329.572-.628.839-.958.244-.3.456-.633.689-.946.094-.129.211-.242.3-.372a.526.526,0,0,0,.107-.233c0-.033-.11-.123-.126-.113q-.368.215-.722.454c-.249.169-.491.351-.738.523-.2.142-.411.277-.619.416-.1.069-.195.088-.269-.037.333-.254.668-.506,1-.757.139-.107.276-.214.413-.322a11.736,11.736,0,0,0,1.459-1.237c.258-.244.577-.426.824-.678.41-.419.785-.874,1.175-1.314a1.529,1.529,0,0,0,.354-.211c.3-.306.555-.647.856-.946.71-.7,1.274-1.525,1.926-2.274.07-.081.065-.228.1-.344.193-.108.024-.217,0-.325a.732.732,0,0,0,.748-.41c.689-.992,1.384-1.979,2.073-2.971a.345.345,0,0,1,.3-.185c.069-.018.159-.014.2-.057a5.077,5.077,0,0,0,.912-1.166,2.36,2.36,0,0,1,.572-.8,3.974,3.974,0,0,0,.944-1.134c.027-.048.121-.056.185-.081a2.065,2.065,0,0,1-.151.5c-.285.472-.622.915-.895,1.4a21.443,21.443,0,0,1-1.6,2.322c-.075.1-.137.207-.207.311-.212.321-.421.644-.639.962-.112.163-.249.3-.357.467-.279.416-.617.786-.927,1.177-.254.319-.571.576-.8.907s-.453.686-.678,1.029a1.59,1.59,0,0,1-.454.518,1.049,1.049,0,0,0-.27.262c-.477.622-.909,1.284-1.434,1.861-.317.348-.534.8-.963,1.04-.03.018-.069.035-.083.064A15.265,15.265,0,0,1,59.023,93.4a7.047,7.047,0,0,1-1.475,1.536c-.14.1-.207.293-.336.411C56.894,95.63,56.561,95.9,56.234,96.171Z" transform="translate(-38.15 -60.12)" fill="#571616"/>
        <path id="Path_143035" data-name="Path 143035" d="M65.929,80.811c-.064.026-.158.033-.185.081a3.974,3.974,0,0,1-.944,1.134,2.36,2.36,0,0,0-.573.8,5.076,5.076,0,0,1-.912,1.166c-.04.043-.131.04-.2.057a10.172,10.172,0,0,1,.869-1.534c.239-.454.568-.861.828-1.3.588-1,1.156-2.016,1.74-3.02.048-.081.153-.129.23-.195l-.054.394a.99.99,0,0,0,.359-.33c.112-.161.2-.34.322-.494a25.115,25.115,0,0,0,2.019-3.1,1.673,1.673,0,0,1,.246-.266c0,.1.03.228-.014.308-.432.778-.875,1.55-1.322,2.32-.329.568-.659,1.134-1,1.7-.18.3-.392.577-.574.872a3.223,3.223,0,0,0-.193.435c-.29.085-.324.134-.218.333C66.328,80.459,66.066,80.593,65.929,80.811Z" transform="translate(-33.804 -62.585)" fill="#463637"/>
        <path id="Path_143036" data-name="Path 143036" d="M67.878,74.222a.367.367,0,0,1,.029-.08c.056-.04.14-.069.163-.124.376-.9.746-1.8,1.118-2.7.265-.1.247-.348.3-.561l.019-.2c.065-.048.158-.083.193-.148.116-.218.191-.461.321-.67a6.172,6.172,0,0,1,.536-.718.273.273,0,0,1,.238-.059c.113.035.059.136.035.22-.12.423-.233.848-.348,1.273a6.324,6.324,0,0,1-.569,1.316c-.244.573-.537,1.124-.794,1.692a3.582,3.582,0,0,0-.153.557.148.148,0,0,1-.032.065.238.238,0,0,0-.094-.021c-.166-.059-.18-.048-.2.163l-.128.308a.186.186,0,0,0-.2.23l-.14.408a.616.616,0,0,0-.421.37c-.092.171-.211.325-.3.494-.078.14-.2.118-.325.121.049-.134.108-.265.147-.4a3.327,3.327,0,0,0,.059-.36l.016-.193.2-.228A.762.762,0,0,0,67.878,74.222Z" transform="translate(-31.425 -65.704)" fill="#04c6c5"/>
        <path id="Path_143037" data-name="Path 143037" d="M68.355,73.444a3.331,3.331,0,0,1-.059.36c-.038.136-.1.266-.147.4-.3.6-.6,1.2-.895,1.807a.5.5,0,0,0-.011.191c.061-.018.148-.014.177-.054a10.343,10.343,0,0,0,.789-1.137,12.4,12.4,0,0,1,.962-1.59c.037-.046.021-.134.029-.2l.14-.408c.147-.008.215-.081.2-.23l.128-.308.188-.027.049.048a6.965,6.965,0,0,1-1.038,2.036c-.209.327-.362.691-.541,1.037a1.672,1.672,0,0,0-.246.266,25.111,25.111,0,0,1-2.019,3.1c-.121.155-.21.333-.322.494a.99.99,0,0,1-.359.33l.054-.394.043-.18a.2.2,0,0,0,.175-.25L66,78l.085-.128c.083-.175.164-.352.25-.528.418-.84.839-1.679,1.25-2.521a2.809,2.809,0,0,0,.128-.4c.11-.174.218-.348.33-.52C68.145,73.75,68.251,73.6,68.355,73.444Z" transform="translate(-32.457 -63.749)" fill="#127574"/>
        <path id="Path_143038" data-name="Path 143038" d="M65.166,78.067c-.105-.2-.072-.249.218-.333A.293.293,0,0,1,65.166,78.067Z" transform="translate(-32.617 -60.485)" fill="#571616"/>
        <path id="Path_143039" data-name="Path 143039" d="M68.2,72.161a.238.238,0,0,1,.094.021l-.054.163-.049-.048Z" transform="translate(-30.788 -63.799)" fill="#127574"/>
        <path id="Path_143040" data-name="Path 143040" d="M77.133,75.168c.137.083.113.211.091.335a2.86,2.86,0,0,0-.085.523,7.813,7.813,0,0,1-.209,1.963.808.808,0,0,0-.01.108,13.981,13.981,0,0,1-.131,1.974c-.139.692,0,1.391-.175,2.078a6.474,6.474,0,0,0-.026,1.073c-.04.533-.113,1.06-.174,1.592,0,.035-.024.069-.026.1-.041.55-.1,1.1-.115,1.654a16.1,16.1,0,0,1-.2,1.856,11.838,11.838,0,0,0-.124,1.384,7.438,7.438,0,0,1-.239,1.58,2.828,2.828,0,0,0-.086.631,2.242,2.242,0,0,1-.172.883,6.309,6.309,0,0,0-.483,1.741,1.322,1.322,0,0,1-.1.357c-.12.274-.332.531-.142.855a2.843,2.843,0,0,1-.242.646,10.2,10.2,0,0,0-.839,1.553,4.691,4.691,0,0,1-.716,1c-.306.37-.633.724-.968,1.068a2.829,2.829,0,0,1-.577.474,6.932,6.932,0,0,1-1.383.807.361.361,0,0,0-.1.041,5.511,5.511,0,0,1-1.317.687,1.948,1.948,0,0,1-.641.247.386.386,0,0,0-.147.065c-.714.36-1.466.641-2.2.95-.864.364-1.725.746-2.559,1.175a8.77,8.77,0,0,0-1.186.824c-.257.191-.483.423-.737.62a3.672,3.672,0,0,0-.686.954c-.045.065-.024.175-.033.263a.693.693,0,0,1-.325-.534,1.271,1.271,0,0,1,.561-1.043c.172-.156.357-.3.536-.445.027-.022.048-.054.077-.075.483-.336.949-.7,1.454-1s1.08-.544,1.619-.818a4.346,4.346,0,0,0,.405-.258c.075-.049.145-.136.222-.142.56-.037.942-.5,1.472-.6.6-.526,1.4-.692,2.028-1.164.185-.139.4-.247.566-.4.407-.375.928-.585,1.328-.974a12.428,12.428,0,0,0,2.341-2.625c.273-.48.49-.993.732-1.491.078-.158.161-.314.238-.474a2.032,2.032,0,0,0,.262-.754,2.136,2.136,0,0,1,.23-.654,1.243,1.243,0,0,0,.19-.608.235.235,0,0,1,.038-.153,4.321,4.321,0,0,0,.5-1.778,1.044,1.044,0,0,1,.08-.254,2.416,2.416,0,0,0,.246-1.25,5.586,5.586,0,0,1,.225-1.528,5.466,5.466,0,0,0,.19-1.1,13.735,13.735,0,0,1,.21-1.641c.059-.4.024-.818.121-1.225.069-.292.092-.6.132-.9a5.277,5.277,0,0,0,.083-.74,7.619,7.619,0,0,1,.2-1.8,1.037,1.037,0,0,0,.021-.159c.037-.569.035-1.145.12-1.708a10.4,10.4,0,0,1,.327-2.054c.024-.067.08-.148.061-.2-.166-.431.121-.842.038-1.268C76.894,75.265,76.977,75.176,77.133,75.168Z" transform="translate(-35.615 -62.011)" fill="#ff5f00"/>
        <path id="Path_143041" data-name="Path 143041" d="M79.406,95.789c0-.161-.008-.322,0-.483a1.028,1.028,0,0,0-.179-.652,2.182,2.182,0,0,1-.249-.7,4.843,4.843,0,0,0-.454-1.466,2.55,2.55,0,0,1-.121-.619c-.1-.373-.223-.74-.33-1.11a5.248,5.248,0,0,1-.172-.671c-.026-.167-.145-.324-.046-.518.037-.072-.053-.2-.062-.3-.04-.427-.4-.751-.341-1.223a3.047,3.047,0,0,0-.271-1.244,2.948,2.948,0,0,1-.043-.316,5.779,5.779,0,0,0-.2-.88,1.657,1.657,0,0,1-.124-.676,1.7,1.7,0,0,0-.144-.78,2.523,2.523,0,0,1-.282-1.241,2.9,2.9,0,0,0-.268-1.507,3.4,3.4,0,0,1-.25-1.086,31.6,31.6,0,0,0-.7-3.336c-.035-.155-.057-.313-.086-.469a2.107,2.107,0,0,0-.065-.365,11.473,11.473,0,0,1-.258-1.177c.069.045.179.077.2.139.246.762.344,1.566.643,2.314-.061.5.23.931.242,1.418.01.3.209.555.241.871.054.545.265,1.067.317,1.622a2.707,2.707,0,0,0,.228.644.722.722,0,0,1,.062.147,15.344,15.344,0,0,0,.415,1.874.684.684,0,0,1,.026.212,2.332,2.332,0,0,0,.195.99,7.8,7.8,0,0,1,.187.778c.145.587.324,1.167.437,1.761A16.374,16.374,0,0,0,78.5,89.9c.067.2.056.424.112.628.11.411.244.816.362,1.226.217.754.424,1.509.646,2.261.085.289.19.574.3.855a1.967,1.967,0,0,1,.236.923l-.335.014Z" transform="translate(-26.877 -62.132)" fill="#ff5f00"/>
        <path id="Path_143042" data-name="Path 143042" d="M74.669,74.449c-.171-.11-.085-.284-.107-.431C74.823,74.122,74.838,74.185,74.669,74.449Z" transform="translate(-26.999 -62.695)" fill="#ff5f00"/>
        <path id="Path_143043" data-name="Path 143043" d="M70.878,74.694c.123.161.123.161-.107.217Z" transform="translate(-29.252 -62.293)" fill="#ff5f00"/>
        <path id="Path_143044" data-name="Path 143044" d="M69.791,79.966c-.107.035-.214.07-.321.107l-.322.108a3.855,3.855,0,0,0,.161-.805,5.76,5.76,0,0,1,.367-1.228,1.65,1.65,0,0,1,.225-.34c.024.022.072.051.069.07-.056.372-.116.743-.175,1.116-.174.11-.088.284-.108.432Z" transform="translate(-30.217 -60.441)" fill="#f21b08"/>
        <path id="Path_143045" data-name="Path 143045" d="M69.486,78.984c.021-.148-.065-.322.108-.432C69.761,78.815,69.746,78.876,69.486,78.984Z" transform="translate(-30.018 -59.998)" fill="#fa1800"/>
        <path id="Path_143046" data-name="Path 143046" d="M63.534,84.277c-.03.116-.026.263-.1.344-.652.749-1.217,1.571-1.926,2.274-.3.3-.561.639-.856.946a1.528,1.528,0,0,1-.354.211,1.146,1.146,0,0,0-.223-.217.589.589,0,0,1-.329-.566.648.648,0,0,0-.14-.383,1.811,1.811,0,0,1-.4-1.03,1.2,1.2,0,0,0-.11-.407c-.172-.349-.38-.683-.542-1.037s-.277-.719-.434-1.072a1.7,1.7,0,0,0-.346-.579.549.549,0,0,1-.158-.579,1.619,1.619,0,0,0-.344-1.48.97.97,0,0,1-.12-.335l.22.049c.006.136.086.183.212.175l.344.238.092.072.327.07a1.151,1.151,0,0,0,.225.271c.632.4,1.276.781,1.907,1.18.9.569,1.8,1.15,2.7,1.719A1.77,1.77,0,0,0,63.534,84.277Z" transform="translate(-37.346 -58.918)" fill="#8c2522"/>
        <path id="Path_143047" data-name="Path 143047" d="M53.5,88.974l.088.065a.211.211,0,0,1-.086.032c-.027,0-.056-.024-.083-.038Z" transform="translate(-39.57 -53.8)" fill="#676c63"/>
        <path id="Path_143048" data-name="Path 143048" d="M69.625,70.7c.115-.424.228-.85.348-1.273.024-.085.078-.185-.035-.22a.273.273,0,0,0-.238.059,6.173,6.173,0,0,0-.536.718c-.129.209-.2.451-.321.67-.035.065-.128.1-.193.148a1.4,1.4,0,0,0-.04-.37c-.1-.244-.11-.392.166-.565a1.85,1.85,0,0,0,.5-.675,1.856,1.856,0,0,1,.671-.6.318.318,0,0,1,.289,0,.326.326,0,0,1,.105.271,7.39,7.39,0,0,1-.541,1.727C69.775,70.639,69.684,70.66,69.625,70.7Z" transform="translate(-30.574 -65.943)" fill="#02a29d"/>
        <path id="Path_143049" data-name="Path 143049" d="M68.714,70.087c-.048.214-.03.462-.3.561C68.381,70.39,68.427,70.175,68.714,70.087Z" transform="translate(-30.657 -65.033)" fill="#02a29d"/>
        <path id="Path_143050" data-name="Path 143050" d="M67.794,71.467l.048-.054c0,.011,0,.027-.008.032a.144.144,0,0,1-.043.018Z" transform="translate(-31.024 -64.244)" fill="#463637"/>
        <path id="Path_143051" data-name="Path 143051" d="M71.054,77.186l-.348.734c-.152.019-.22.1-.175.25l-.043.18c-.077.065-.182.113-.23.195-.584,1-1.151,2.017-1.74,3.02-.26.443-.588.85-.828,1.3a10.172,10.172,0,0,0-.869,1.534.345.345,0,0,0-.3.185c-.689.992-1.384,1.979-2.073,2.971a.732.732,0,0,1-.748.41l0,0c-.057-.306-.292-.324-.536-.325h0c0-.236-.167-.218-.325-.215h0c0-.238-.167-.218-.324-.215l-.539-.325c0-.234-.167-.217-.324-.217-.311-.207-.619-.423-.933-.624-.558-.354-1.116-.71-1.684-1.048a2.564,2.564,0,0,0-.5-.174l-1.647-1.15c.026-.124.056-.3.223-.18a.727.727,0,0,0,1.067-.123c.136-.136.391-.155.593-.222.287-.1.58-.171.861-.282.263-.105.509-.254.767-.37.21-.094.435-.156.641-.258a3.821,3.821,0,0,1,.742-.4,1.351,1.351,0,0,0,.769-.329.5.5,0,0,1,.083-.069c.179-.128.419,0,.6-.179a3.224,3.224,0,0,1,.545-.321,9.875,9.875,0,0,0,1.458-.759,1.139,1.139,0,0,0,.129-.1,1.679,1.679,0,0,1,.75-.549,1.433,1.433,0,0,0,.662-.52c.255-.336.563-.633.848-.947.013-.013.019-.033.033-.041.767-.447,1.2-1.269,1.942-1.743.12-.077.223-.2.352-.234a8.217,8.217,0,0,0,1.513-.765.9.9,0,0,0,.461-.486,7.563,7.563,0,0,1,.624-1.06c.04-.064.14-.086.214-.128a2.811,2.811,0,0,1-.128.4c-.411.842-.832,1.681-1.25,2.521-.086.175-.167.352-.25.528Z" transform="translate(-37.51 -62.936)" fill="#5e0303"/>
        <path id="Path_143052" data-name="Path 143052" d="M67.749,72.259a.762.762,0,0,1-.338.756c-.027-.04-.086-.092-.077-.116.08-.207.169-.411.268-.609C67.615,72.261,67.7,72.267,67.749,72.259Z" transform="translate(-31.296 -63.741)" fill="#127574"/>
        <path id="Path_143053" data-name="Path 143053" d="M71.788,71.06a2.27,2.27,0,0,1,.633-1.2c.144-.183.4-.118.609-.057a1.078,1.078,0,0,1,.574.466,5.088,5.088,0,0,1,.794,1.625,4.348,4.348,0,0,0,.266.686,5.132,5.132,0,0,1,.313.962c.073.33.217.641.306.968.075.273.118.555.171.834.013.07-.016.156.014.214a11.675,11.675,0,0,1,.454,1.74c.15.437.241.895.349,1.343a1.4,1.4,0,0,1,.043.372,5.264,5.264,0,0,0,.195,1.426,7.235,7.235,0,0,1,.247,1.582,3.546,3.546,0,0,0,.1.521c.11.612.215,1.226.322,1.839.016.088.024.177.048.262a3.3,3.3,0,0,1,.172,1.107.891.891,0,0,0,.053.314,7.594,7.594,0,0,1,.277,1.628c.057.652.2,1.3.3,1.947.08.51.147,1.022.231,1.529.061.368.145.734.212,1.1.112.595.2,1.193.33,1.783.236,1.057.5,2.111.754,3.165.083.346.18.689.26,1.035a1.174,1.174,0,0,1,.033.365c-.021.247-.029.246.249.3a.827.827,0,0,1-.285.1,3.367,3.367,0,0,0-1.427.319,4.3,4.3,0,0,1-.558.128c.027-.083.03-.2.088-.244a.855.855,0,0,0,.206-.891,3.545,3.545,0,0,1-.075-.526,2.807,2.807,0,0,0-.22-1.041c-.032-.083-.1-.167-.094-.249a17.312,17.312,0,0,0-.26-2.014c-.037-.7-.053-1.394-.083-2.089a8.415,8.415,0,0,0-.107-.847c-.069-.494-.161-.984-.2-1.48-.034-.41,0-.826-.011-1.239a14.029,14.029,0,0,0-.2-2.019c-.013-.089-.006-.18-.016-.269-.038-.408-.075-.816-.121-1.223-.062-.547-.129-1.1-.2-1.641-.078-.563-.167-1.126-.255-1.687a2.189,2.189,0,0,1-.062-.314,10.685,10.685,0,0,0-.222-1.8c-.024-.139-.077-.273-.11-.41-.038-.155-.078-.309-.1-.466-.041-.263-.062-.529-.11-.793-.137-.751-.309-1.5-.421-2.253a19.579,19.579,0,0,0-.636-2.583,14.314,14.314,0,0,0-.577-1.725,9.078,9.078,0,0,0-.791-1.33.514.514,0,0,0-.866-.008,2.7,2.7,0,0,0-.273.515A.329.329,0,0,1,71.788,71.06Z" transform="translate(-28.647 -65.24)" fill="#ff8401"/>
        <path id="Path_143054" data-name="Path 143054" d="M61.363,82.7l.539.325a.318.318,0,0,0,.324.215h0a.316.316,0,0,0,.325.215h0a.66.66,0,0,0,.536.325l0,0c.024.108.193.217,0,.325a1.771,1.771,0,0,1-.346-.134c-.9-.569-1.8-1.15-2.7-1.719-.632-.4-1.276-.78-1.907-1.18a1.152,1.152,0,0,1-.225-.271l.013-.166a2.564,2.564,0,0,1,.5.174c.568.338,1.126.694,1.684,1.048.314.2.622.416.933.624A.314.314,0,0,0,61.363,82.7Z" transform="translate(-36.9 -58.755)" fill="#463637"/>
        <path id="Path_143055" data-name="Path 143055" d="M57.51,80.574c-.126.008-.206-.04-.212-.175Z" transform="translate(-37.264 -58.9)" fill="#463637"/>
        <path id="Path_143056" data-name="Path 143056" d="M57.74,80.73l-.092-.072Z" transform="translate(-37.057 -58.746)" fill="#463637"/>
        <path id="Path_143057" data-name="Path 143057" d="M75.556,79.224l.086.231c.027.081.1.182.073.239a1.472,1.472,0,0,0,.024.839,13.791,13.791,0,0,1,.123,1.6c.018.9,0,1.8.008,2.7,0,.23.056.458.077.687a1.759,1.759,0,0,1,0,.317c-.021.212-.069.424-.072.636a6.708,6.708,0,0,1-.249,1.682c-.069.257-.1.534-.175.8a1.763,1.763,0,0,1-.743.944c-.041.03-.105.07-.142.056a5.9,5.9,0,0,1-.742-.306.486.486,0,0,1-.218-.462.4.4,0,0,0-.161-.316,1.015,1.015,0,0,1-.388-.678.211.211,0,0,0-.029-.1,11.331,11.331,0,0,1-.909-3.054,3.847,3.847,0,0,1-.126-1,14.556,14.556,0,0,0-.316-2.166,5.19,5.19,0,0,1-.018-.592,6.85,6.85,0,0,0-.075-1.606c.131-.408-.078-.8-.04-1.214a8.925,8.925,0,0,0,0-1.186c-.01-.247-.056-.494-.081-.742a1.858,1.858,0,0,1,0-.266.182.182,0,0,1,.04-.1c.175-.209-.148-.458.085-.7.137-.144.137-.432.169-.66.051-.37.072-.745.116-1.115a12.038,12.038,0,0,1,.542-2.663.922.922,0,0,1,.494-.6.307.307,0,0,1,.3.014,1.741,1.741,0,0,1,.718.965c.134.29.19.616.324.9a15.166,15.166,0,0,1,.469,1.571,1.3,1.3,0,0,1,.069.419,2.377,2.377,0,0,0,.14.675c.131.5.2,1.009.293,1.517.026.14-.01.308.056.419a1.961,1.961,0,0,1,.166.941c.024.356.081.708.128,1.06.013.1.035.2.053.3ZM72.2,75.406h.013c0,.5-.027,1.008.006,1.509.037.531.123,1.059.2,1.587a7.936,7.936,0,0,0,.2,1.1c.166.565.37,1.116.572,1.668a.51.51,0,0,0,.858.156,1.087,1.087,0,0,0,.367-.887,7.338,7.338,0,0,1,.212-1.145,8.253,8.253,0,0,0,0-1.55,4.2,4.2,0,0,1-.027-.958c.01-.069.053-.14.043-.206-.1-.794-.212-1.585-.314-2.379a2.946,2.946,0,0,0-.043-.509c-.177-.544-.38-1.08-.569-1.619a1.747,1.747,0,0,0-.5-.746c-.175-.155-.359-.144-.443.057-.15.354-.429.668-.364,1.1a.8.8,0,0,1-.018.268,8.353,8.353,0,0,0-.2,1.8C72.2,74.9,72.2,75.154,72.2,75.406Z" transform="translate(-28.843 -64.853)" fill="#ffb801"/>
        <path id="Path_143058" data-name="Path 143058" d="M68.507,72.856c-.008.069.008.156-.029.2a12.394,12.394,0,0,0-.962,1.59,10.343,10.343,0,0,1-.789,1.137c-.029.04-.116.037-.177.054a.5.5,0,0,1,.011-.191c.3-.6.595-1.206.895-1.807.121,0,.247.019.325-.121.094-.169.212-.324.3-.494A.616.616,0,0,1,68.507,72.856Z" transform="translate(-31.764 -63.386)" fill="#02a29d"/>
        <path id="Path_143059" data-name="Path 143059" d="M68.267,72.173l-.01.136-.188.027C68.087,72.125,68.1,72.114,68.267,72.173Z" transform="translate(-30.859 -63.811)" fill="#02a29d"/>
        <path id="Path_143060" data-name="Path 143060" d="M68.064,72.456c.016.148-.053.222-.2.23A.186.186,0,0,1,68.064,72.456Z" transform="translate(-30.981 -63.624)" fill="#02a29d"/>
        <path id="Path_143061" data-name="Path 143061" d="M65.447,76.563c-.045-.155.024-.231.175-.25A.2.2,0,0,1,65.447,76.563Z" transform="translate(-32.426 -61.33)" fill="#463637"/>
        <path id="Path_143062" data-name="Path 143062" d="M65.77,75.9l.085-.128Z" transform="translate(-32.226 -61.651)" fill="#463637"/>
        <path id="Path_143063" data-name="Path 143063" d="M61.356,82.735a.66.66,0,0,1-.536-.325C61.064,82.412,61.3,82.429,61.356,82.735Z" transform="translate(-35.17 -57.704)" fill="#571616"/>
        <path id="Path_143064" data-name="Path 143064" d="M60.737,82.356a.318.318,0,0,1-.324-.215C60.569,82.137,60.738,82.118,60.737,82.356Z" transform="translate(-35.412 -57.865)" fill="#571616"/>
        <path id="Path_143065" data-name="Path 143065" d="M60.941,82.491a.316.316,0,0,1-.325-.215C60.774,82.272,60.941,82.255,60.941,82.491Z" transform="translate(-35.291 -57.785)" fill="#571616"/>
        <path id="Path_143066" data-name="Path 143066" d="M60.2,82.017a.314.314,0,0,1-.324-.217C60.028,81.8,60.2,81.783,60.2,82.017Z" transform="translate(-35.733 -58.067)" fill="#571616"/>
        <path id="Path_143072" data-name="Path 143072" d="M71.922,75.059c0-.252,0-.5,0-.756a8.353,8.353,0,0,1,.2-1.8.8.8,0,0,0,.018-.268c-.065-.429.214-.743.364-1.1.085-.2.268-.212.443-.057a1.747,1.747,0,0,1,.5.746c.19.539.392,1.075.569,1.619a2.947,2.947,0,0,1,.043.509c.1.794.214,1.585.314,2.379.01.065-.033.137-.043.206a4.2,4.2,0,0,0,.027.958,8.252,8.252,0,0,1,0,1.55,7.337,7.337,0,0,0-.212,1.145,1.087,1.087,0,0,1-.367.887.51.51,0,0,1-.858-.156c-.2-.552-.407-1.1-.572-1.668a7.936,7.936,0,0,1-.2-1.1c-.077-.528-.163-1.056-.2-1.587-.033-.5-.006-1.006-.006-1.509Z" transform="translate(-28.569 -64.506)" fill="#ffda00"/>
      </g>
    </g>
  </g>
</svg>
