<svg xmlns="http://www.w3.org/2000/svg" width="218.878" height="166.858" viewBox="0 0 218.878 166.858">
  <g id="Group_61804" data-name="Group 61804" transform="translate(-384 -8705)">
    <rect id="Rectangle_30117" data-name="Rectangle 30117" width="218.878" height="166.858" transform="translate(384 8705)" fill="none"/>
    <g id="mysql" transform="translate(406 8742.886)">
      <path id="Path_78153" data-name="Path 78153" d="M0,58.6H5.824V35.835l9,19.766c1.059,2.471,2.471,3.353,5.294,3.353s4.236-.882,5.294-3.353l9-19.766V58.6h5.824V35.835c0-2.294-.882-3.353-2.824-3.883-4.412-1.412-7.236-.176-8.648,2.824l-8.824,19.59-8.648-19.59c-1.235-3-4.236-4.059-8.648-2.824C.882,32.482,0,33.541,0,35.835V58.6Z" transform="translate(0 23.905)" fill="#00678f" fill-rule="evenodd"/>
      <path id="Path_78154" data-name="Path 78154" d="M25.4,36.376h5.824v12.53c0,.706.176,2.294,3.353,2.294h12.53v-15h5.824V56.672c0,5.118-6.177,6.177-9.177,6.177H25.4V58.966H43.578c3.706-.353,3.353-2.294,3.353-2.824V54.554H34.754c-5.647,0-9.354-2.647-9.354-5.471V36.376Z" transform="translate(19.427 27.599)" fill="#00678f" fill-rule="evenodd"/>
      <path id="Path_78155" data-name="Path 78155" d="M121.6,49.5a20.855,20.855,0,0,0-8.648,1.235c-.706.353-1.765.353-1.765,1.059.353.353.353.882.706,1.412a8.308,8.308,0,0,0,2.294,2.647c.882.706,1.941,1.412,2.824,2.118,1.765,1.059,3.706,1.765,5.294,2.824,1.059.706,1.941,1.412,3,2.118.529.353.882.882,1.412,1.235v-.176c-.353-.353-.353-1.059-.706-1.412a8.839,8.839,0,0,0-1.412-1.235,18.183,18.183,0,0,0-4.589-4.412c-1.412-1.059-4.589-2.294-5.118-3.883h-.176c1.059-.176,2.118-.529,3-.706,1.588-.353,2.824-.353,4.412-.706a9.949,9.949,0,0,0,2.118-.706v-.353c-.882-.882-1.412-1.941-2.294-2.647a70.766,70.766,0,0,0-7.236-5.471c-1.412-.882-3.177-1.412-4.589-2.294-.529-.353-1.412-.353-1.765-.882a15.367,15.367,0,0,1-1.765-3.353c-1.235-2.471-2.471-5.118-3.706-7.765-.882-1.765-1.235-3.53-2.294-5.118-4.589-7.589-9.53-12-17.119-16.589a17.685,17.685,0,0,0-5.647-1.765c-1.059,0-2.294-.176-3.353-.176-.706-.353-1.412-1.235-2.118-1.588-1.941-1.588-8.471-5.118-10.236-.529-1.235,2.824,1.765,5.647,2.824,7.236a22.475,22.475,0,0,1,2.294,3.353,13.932,13.932,0,0,0,.529,2.294,57.1,57.1,0,0,0,2.294,5.824c.529.882,1.059,1.941,1.588,2.824.353.529,1.059.706,1.059,1.588-.706.882-.706,2.294-1.059,3.353C70.069,33.8,70.6,39.974,72.893,43.68c.706,1.059,2.471,3.53,4.589,2.647,1.941-.882,1.588-3.353,2.118-5.471.176-.529,0-.882.353-1.235V39.8A35.276,35.276,0,0,1,81.717,43.5a26.789,26.789,0,0,0,5.824,6c1.059.882,1.941,2.118,3.177,2.647v-.176h-.176c-.353-.353-.706-.529-1.059-.882a15.348,15.348,0,0,1-2.294-2.647,47.476,47.476,0,0,1-4.942-8.118A45.126,45.126,0,0,1,80.3,36.092c-.353-.529-.353-1.412-.706-1.588a18.322,18.322,0,0,0-2.118,3c-.882,1.941-.882,4.236-1.235,6.706-.176,0-.176,0-.176.176-1.412-.353-1.941-1.765-2.471-3a18.01,18.01,0,0,1-.353-11.824c.353-.882,1.588-3.883,1.059-4.765-.353-.882-1.235-1.412-1.588-1.941a22.766,22.766,0,0,1-1.588-2.824c-1.059-2.471-1.588-5.294-2.824-7.765A14.146,14.146,0,0,0,66.01,8.913a25.22,25.22,0,0,1-2.471-3.53c-.176-.529-.529-1.235-.176-1.765.176-.353.353-.529.706-.529.529-.529,2.294.176,2.824.353A20.966,20.966,0,0,1,71.3,5.736a9.5,9.5,0,0,0,2.118,1.588H74.3c1.412.353,3,.176,4.412.529a35.1,35.1,0,0,1,6.353,3A38.126,38.126,0,0,1,98.836,26.032c.529,1.059.706,1.941,1.235,3,.882,2.118,2.118,4.412,3,6.53a24.389,24.389,0,0,0,3.177,6c.706.882,3.353,1.412,4.589,1.941a15.267,15.267,0,0,1,3,1.235,38.75,38.75,0,0,1,4.412,3c1.059-.353,3.177.882,3.353,1.765Z" transform="translate(47.292 0)" fill="#00678f" fill-rule="evenodd"/>
      <path id="Path_78156" data-name="Path 78156" d="M70.965,6.3c-.706,0-1.235.176-1.765.176v.176h.176a15.432,15.432,0,0,0,1.412,1.765l1.059,2.118v-.176c.529-.353.706-1.059.706-2.118a2.351,2.351,0,0,0-.529-.882c-.176-.529-.706-.706-1.059-1.059Z" transform="translate(52.926 4.731)" fill="#00678f" fill-rule="evenodd"/>
      <path id="Path_78157" data-name="Path 78157" d="M43.476,58.425H60.066a12.323,12.323,0,0,0,5.294-1.059c2.471-1.235,3.706-2.647,3.706-4.765V48.366c0-1.588-1.412-3.177-4.059-4.236a14.489,14.489,0,0,0-4.942-.882H53.007c-2.294,0-3.53-.706-3.706-2.294V37.247c.353-1.235.882-1.588,3-1.765H69.243V31.6H53.007a16.061,16.061,0,0,0-4.765.529c-3.353,1.059-4.942,2.824-4.942,5.647V41.13c0,2.647,3,4.765,7.942,5.294h8.471c1.765.176,2.647.529,3.177,1.235a1.525,1.525,0,0,1,.529,1.059v3.353a2.574,2.574,0,0,1-.882,1.412,4.54,4.54,0,0,1-2.471.882H43.653v4.059Z" transform="translate(33.117 24.081)" fill="#e38d1a" fill-rule="evenodd"/>
      <path id="Path_78158" data-name="Path 78158" d="M78.3,51.643c0,3.883,3,6.177,8.824,6.53.529,0,1.059.176,1.765.176h15V54.466H88.712c-3.353,0-4.589-.882-4.589-2.824V31.7H78.3V51.643Z" transform="translate(59.886 24.158)" fill="#e38d1a" fill-rule="evenodd"/>
      <path id="Path_78159" data-name="Path 78159" d="M60,51.819V38.053c0-3.53,2.471-5.647,7.236-6.353H81.354c4.765.706,7.236,2.824,7.236,6.353V51.819c0,2.824-1.059,4.412-3.353,5.294l5.647,5.118H84.178L79.59,58,75,58.349H68.824a11.992,11.992,0,0,1-3.353-.529C61.941,56.937,60,55,60,51.819Zm6.353-.353c0,.176.176.353.176.529.353,1.588,1.765,2.471,4.059,2.471h5.294l-4.765-4.412h6.53l4.236,3.883A2.61,2.61,0,0,0,83.3,52V37.877c-.353-1.588-1.765-2.294-4.059-2.294H70.589c-2.647,0-4.236,1.059-4.236,2.824v13.06Z" transform="translate(45.89 24.158)" fill="#e38d1a" fill-rule="evenodd"/>
      <path id="Path_78160" data-name="Path 78160" d="M94.835,48.483h.882V45.306h1.059V44.6H93.6v.706h1.235v3.177Zm6.353,0h.882V44.6h-1.235l-1.059,2.647L98.718,44.6H97.483v3.883h.706v-3h0l1.059,3h.529l1.059-3h0v3Z" transform="translate(71.588 34.024)" fill="#e38d1a" fill-rule="evenodd"/>
    </g>
  </g>
</svg>
