<svg xmlns="http://www.w3.org/2000/svg" width="218.878" height="166.858" viewBox="0 0 218.878 166.858">
  <g id="Group_61795" data-name="Group 61795" transform="translate(-1316 -8206)">
    <rect id="Rectangle_30113" data-name="Rectangle 30113" width="218.878" height="166.858" transform="translate(1316 8206)" fill="none"/>
    <g id="Layer_2" data-name="Layer 2" transform="translate(1365.997 8226.003)">
      <g id="Layer_1" data-name="Layer 1" transform="translate(0.003 -0.003)">
        <path id="Path_78300" data-name="Path 78300" d="M100.047,193.73v9.645c0,.458-.131.595-.595.595-1.023,0-1.023,0-1.023-1.011V192.083c0-.464.113-.595.595-.595,1.641,0,1.641,0,2.456,1.522l4.424,8.266c.071.131.1.309.345.4V192.13c0-.541.131-.791.7-.7a.545.545,0,0,0,.178,0c.559-.1.749.1.743.7-.03,3.146,0,6.285,0,9.431v1.921c0,.3-.089.41-.4.428-1.784.1-1.784.1-2.628-1.487q-2.242-4.246-4.5-8.486c-.048-.089-.1-.166-.149-.256Z" transform="translate(-39.902 -77.589)" fill="#4dc8ed"/>
        <path id="Path_78301" data-name="Path 78301" d="M159.407,204.509c.922-2.474,1.784-4.846,2.694-7.219.083-.214.083-.535.375-.559a4.847,4.847,0,0,1,1.308,0c.2.036,0,.315-.042.464q-.892,2.417-1.784,4.823c-.452,1.189-.916,2.379-1.344,3.568a.553.553,0,0,1-.595.44c-1.647.036-1.641.042-2.224-1.528q-1.338-3.568-2.7-7.177c-.25-.66-.25-.66.434-.66.963,0,.957,0,1.29.91q1.189,3.175,2.379,6.345A1.659,1.659,0,0,0,159.407,204.509Z" transform="translate(-62.81 -79.717)" fill="#4dc8ed"/>
        <path id="Path_78302" data-name="Path 78302" d="M78.669,199.191v2.521c0,.934.363,1.243,1.3,1.267h1.023c.767,0,1.029.375.8,1.106-.054.178-.172.2-.315.2a16.989,16.989,0,0,1-2.1-.042c-1.641-.226-2.242-.975-2.266-2.747q-.03-2.379,0-4.8c0-.446-.119-.642-.595-.565s-.559-.178-.547-.595,0-.7.529-.595.595-.155.595-.595v-1.558c0-.351.083-.5.47-.488,1.356.036,1.058-.143,1.094,1.058a7.1,7.1,0,0,1,0,1.017c-.059.5.161.595.595.595.7-.03,1.4,0,2.1,0,.547,0,.41.351.428.642s0,.595-.446.595c-.737-.03-1.481,0-2.218,0-.369,0-.488.119-.476.482v2.581Z" transform="translate(-30.796 -77.949)" fill="#4dc8ed"/>
        <path id="Path_78303" data-name="Path 78303" d="M138.09,199.225a19.625,19.625,0,0,0,.089,2.813c.143.7.387.9,1.1.934h1.564c.523,0,.416.309.375.595s.232.72-.321.731a10.7,10.7,0,0,1-2.569-.125,2.034,2.034,0,0,1-1.695-1.974c-.172-1.576-.059-3.158-.1-4.757a5.983,5.983,0,0,1,0-.779c.048-.428-.137-.595-.547-.529-.535.1-.559-.214-.595-.63s.1-.648.595-.595.595-.161.553-.595,0-1,0-1.5c0-.4.1-.595.535-.595,1.249.036.987-.119,1.029,1.011,0,.517-.214,1.189.1,1.51s1.023.089,1.552.125a4.037,4.037,0,0,0,.838,0c.547-.071.684.155.666.672,0,.422-.137.559-.559.541h-2.164c-.345,0-.452.119-.44.452C138.132,197.376,138.09,198.2,138.09,199.225Z" transform="translate(-54.884 -77.917)" fill="#4dc8ed"/>
        <path id="Path_78304" data-name="Path 78304" d="M68.4,198.327a12.97,12.97,0,0,0-1.992-.595,3.079,3.079,0,0,0-3.758,3,5.619,5.619,0,0,0,.149,1.9,3.067,3.067,0,0,0,3.847,2.17,6.921,6.921,0,0,0,1.421-.47c.214-.1.309-.089.345.19.113.91,0,1.189-.922,1.391-1.784.434-3.491.452-4.971-.85a3.99,3.99,0,0,1-1.225-1.95,6.541,6.541,0,0,1-.036-3.568,4.251,4.251,0,0,1,4.567-3.175,8.409,8.409,0,0,1,1.944.3c.511.143.737.4.648.934A4.5,4.5,0,0,0,68.4,198.327Z" transform="translate(-24.742 -79.599)" fill="#4dc8ed"/>
        <path id="Path_78305" data-name="Path 78305" d="M150.165,201.445v4.085c0,.4-.089.595-.523.553-1.225-.042-1.023.137-1.029-1V197.4c0-.232-.137-.595.232-.648a2.248,2.248,0,0,1,1.237.053c.149.065.077.291.077.446C150.165,198.656,150.165,200.048,150.165,201.445Z" transform="translate(-60.234 -79.727)" fill="#4ec8ee"/>
        <path id="Path_78306" data-name="Path 78306" d="M148.624,191.585a3.487,3.487,0,0,0,0-.422c-.048-.381.083-.535.494-.523,1.3.042,1.029-.143,1.058,1.035v.422c.036.351-.077.541-.458.488h-.059C148.427,192.56,148.653,192.721,148.624,191.585Z" transform="translate(-60.244 -77.276)" fill="#50c8ee"/>
        <path id="Path_78307" data-name="Path 78307" d="M118.085,50.9a13.049,13.049,0,0,0-4.264-7.136A39.082,39.082,0,0,0,101.8,36.314a69.211,69.211,0,0,0-8.61-2.973c-.392-.107-.505-.262-.381-.648s.214-.85.315-1.278a62.259,62.259,0,0,0,1.736-13.641,36.309,36.309,0,0,0-.363-5.352A20.259,20.259,0,0,0,92.17,4.994,9.128,9.128,0,0,0,86.456.356a12.987,12.987,0,0,0-6.059,0A31.942,31.942,0,0,0,69.919,4.982,62.009,62.009,0,0,0,59.6,13.366c-.327.327-.517.357-.85,0-.981-1.029-2.052-1.968-3.128-2.9A51.038,51.038,0,0,0,42.875,2.122,19.837,19.837,0,0,0,33.456.159a8.807,8.807,0,0,0-6.018,2.753,13.54,13.54,0,0,0-2.973,5.542,35.49,35.49,0,0,0-.922,13.26,62.658,62.658,0,0,0,1.962,10.894c.125.476-.077.595-.458.678a60.058,60.058,0,0,0-14.664,5.958,26.759,26.759,0,0,0-8,6.731c-3.039,3.972-3.163,8.218-.375,12.351a24.077,24.077,0,0,0,6.541,6.291A55.069,55.069,0,0,0,24.786,71.9c.755.22.761.2.595.94A63.626,63.626,0,0,0,23.3,86.608a34.6,34.6,0,0,0,.327,5.982,20.057,20.057,0,0,0,2.218,7.171,9.389,9.389,0,0,0,5.352,4.632,12.838,12.838,0,0,0,6.339.256,30.844,30.844,0,0,0,10.293-4.162A59.326,59.326,0,0,0,58.99,91.722c.279-.274.434-.345.743,0,1.284,1.32,2.664,2.539,4.067,3.728a49.772,49.772,0,0,0,10.174,6.862A21.224,21.224,0,0,0,84.2,104.947a8.973,8.973,0,0,0,6.392-2.741A14.759,14.759,0,0,0,94.038,95.7a36.587,36.587,0,0,0,.94-12.374c-.083-1.189-.244-2.343-.4-3.508a61.155,61.155,0,0,0-1.51-7.57c-.089-.339,0-.452.315-.535q1.1-.3,2.182-.648A53.95,53.95,0,0,0,110.5,63.929a21.734,21.734,0,0,0,6.113-6.25A9.467,9.467,0,0,0,118.085,50.9ZM61.5,15.507A53.15,53.15,0,0,1,76.448,4.7,17.28,17.28,0,0,1,83.9,2.913a6.285,6.285,0,0,1,5.59,3.229,16.769,16.769,0,0,1,2.087,6.25,29.406,29.406,0,0,1,.392,4.484,63.353,63.353,0,0,1-1.95,15.1c-.089.363-.244.476-.595.387-2.926-.725-5.887-1.273-8.866-1.73-2.069-.321-4.162-.595-6.232-.791L72.833,29.7a1,1,0,0,1-.785-.464,116.916,116.916,0,0,0-7.136-9.264c-1.106-1.29-2.254-2.545-3.4-3.806C61.291,15.917,61.249,15.787,61.5,15.507ZM34.366,55.943c1.445,2.848,2.92,5.613,4.49,8.325s3.235,5.352,5,8.051c-1.784-.1-3.443-.321-5.12-.547-3.086-.422-6.155-.922-9.187-1.635-.3-.071-.464-.089-.345-.482A120.322,120.322,0,0,1,34.2,56.24a2.8,2.8,0,0,1,.167-.3ZM32.148,43.818q-1.564-3.978-2.825-8.093c-.143-.464,0-.595.4-.69,3.728-.815,7.475-1.51,11.262-1.962.892-.107,1.784-.226,2.825-.357A154.738,154.738,0,0,0,34.354,49.08C33.533,47.308,32.831,45.566,32.148,43.818ZM38.73,58.089c-.856-1.629-1.659-3.288-2.521-4.918a1.278,1.278,0,0,1,0-1.29,151.439,151.439,0,0,1,8.6-15.407c.8-1.249,1.635-2.468,2.438-3.711a.838.838,0,0,1,.737-.4c2.973-.232,5.994-.291,8.991-.4,2.688-.089,5.352.059,8.04.089,1.784,0,3.568.22,5.352.315a.791.791,0,0,1,.654.434c2.188,3.181,4.21,6.47,6.143,9.817q2.652,4.6,5.007,9.366a.886.886,0,0,1,0,.886,166.5,166.5,0,0,1-11.084,19.3,1,1,0,0,1-.868.482c-3.776.274-7.552.392-11.578.357-2.438.048-5.12-.042-7.8-.149-.975-.042-1.95-.143-2.932-.2a.678.678,0,0,1-.595-.363,143.158,143.158,0,0,1-8.587-14.23Zm45.193-2.307c.916,1.968,1.724,3.859,2.492,5.762q1.534,3.812,2.783,7.73c.131.41.083.595-.381.684-3.158.714-6.327,1.332-9.514,1.742l-4.275.553a5.3,5.3,0,0,1-.541,0,176.734,176.734,0,0,0,9.461-16.5Zm0-6.7a175.577,175.577,0,0,0-9.485-16.323c3.211.357,6.285.8,9.348,1.362,1.588.3,3.169.642,4.757.993.476.107.595.232.434.7-1.047,3.318-2.212,6.595-3.568,9.8-.464,1.094-.969,2.2-1.487,3.443Zm-25.272-30.7c.428-.47.648-.422,1.047,0A117.579,117.579,0,0,1,68.266,28.9c.077.113.143.232.279.446a149.575,149.575,0,0,0-18.886,0c.725-.963,1.374-1.837,2.04-2.706C53.888,23.785,56.23,21.055,58.651,18.391Zm-32.438-1.07c0-3.6.3-7.136,1.95-10.442a6.476,6.476,0,0,1,6.3-3.871,19.237,19.237,0,0,1,7.885,2.04,47.2,47.2,0,0,1,10.424,6.8c1.4,1.189,2.747,2.379,4.055,3.657.279.268.256.392,0,.648A119.7,119.7,0,0,0,46.24,29.172a1.154,1.154,0,0,1-.934.535c-2.23.155-4.448.44-6.66.761-2.747.4-5.483.862-8.188,1.469-.547.119-1.1.22-1.635.369-.321.089-.464.042-.553-.309a75.013,75.013,0,0,1-1.683-8.634,43.3,43.3,0,0,1-.375-6.042ZM25.767,69.2a67.73,67.73,0,0,1-8.521-3.045,38.313,38.313,0,0,1-9.413-5.691,14.788,14.788,0,0,1-4.525-5.8,7.4,7.4,0,0,1-.452-2.218,8.361,8.361,0,0,1,2.105-5.108,24.933,24.933,0,0,1,7.2-5.81,58.668,58.668,0,0,1,13.677-5.477c.428-.119.595-.042.725.392a118.451,118.451,0,0,0,5.97,15.6,1.094,1.094,0,0,1-.048,1.011,123.3,123.3,0,0,0-5.572,14.271c-.161.494-.327.987-.452,1.493-.1.428-.291.505-.69.387ZM56.956,89.688A52.345,52.345,0,0,1,42.916,99.845a20.557,20.557,0,0,1-8.224,2.2c-3.282-.089-5.5-1.225-7.136-5.286a21.942,21.942,0,0,1-1.35-6.731c-.369-5.548.595-10.947,1.837-16.311.036-.155.1-.3.131-.464.065-.339.232-.458.595-.369,2.325.595,4.686,1,7.052,1.368,2.034.315,4.067.595,6.119.773,1.231.107,2.462.244,3.7.345a.8.8,0,0,1,.595.422q2.783,3.913,5.827,7.623c1.552,1.885,3.169,3.711,4.834,5.5.3.279.381.464.059.773Zm2.729-2.836c-.274.3-.44.351-.743,0a124.277,124.277,0,0,1-8.991-10.84c-.059-.077-.1-.161-.208-.327a184.454,184.454,0,0,0,18.844-.048,14.582,14.582,0,0,1-1.344,1.939,105.155,105.155,0,0,1-7.558,9.276ZM90.529,96.961a7.753,7.753,0,0,1-3.99,4.579,8.8,8.8,0,0,1-5.132.339A28.536,28.536,0,0,1,71,97.294,61,61,0,0,1,61.7,89.659c-.25-.244-.339-.392-.042-.708a105.319,105.319,0,0,0,8.771-10.793c.535-.749,1.094-1.481,1.582-2.26a1.231,1.231,0,0,1,1.076-.595c2.272-.149,4.531-.434,6.785-.755,3.282-.464,6.541-1.058,9.764-1.837.458-.113.595,0,.69.434a59.233,59.233,0,0,1,1.689,9.782c.107,1.356.226,2.706.214,4.067a26.583,26.583,0,0,1-1.695,9.966ZM113.363,57.3a26.635,26.635,0,0,1-8.141,6.541,59.8,59.8,0,0,1-12.523,5.1c-.446.131-.595,0-.714-.387a112.771,112.771,0,0,0-6.214-15.645,1.011,1.011,0,0,1,0-.957,119.376,119.376,0,0,0,5.637-14.331c.131-.416.268-.838.381-1.261.077-.285.172-.375.5-.279,5.869,1.683,11.548,3.812,16.584,7.362a17.265,17.265,0,0,1,5.661,5.946,6.749,6.749,0,0,1,.827,2.932,8.325,8.325,0,0,1-2,4.977Z" transform="translate(-0.003 0.003)" fill="#4dc8ed"/>
        <path id="Path_78308" data-name="Path 78308" d="M17.841,203.517c-.541-1.053-1.058-2.111-1.594-3.163a5.221,5.221,0,0,0-1.861-2.218,3.859,3.859,0,0,0,1.338-.928,3.455,3.455,0,0,0-1.962-5.512A26.055,26.055,0,0,0,9,191.47c-.47,0-.595.113-.595.595v10.7c0,1.255,0,1.243,1.243,1.189.339,0,.446-.113.44-.452v-3.3c0-1.528,0-1.493,1.522-1.54a2.878,2.878,0,0,1,2.92,1.784,24.037,24.037,0,0,1,1.189,2.42,1.559,1.559,0,0,0,1.909,1.106C18,203.928,18,203.821,17.841,203.517Zm-4.918-6.273a16.869,16.869,0,0,1-2.509.089c-.327,0-.339-.19-.339-.428v-3.568c0-.172-.042-.4.232-.392a12.137,12.137,0,0,1,2.807.107,2.166,2.166,0,0,1-.19,4.192Z" transform="translate(-3.411 -77.613)" fill="#4dc8ed"/>
        <path id="Path_78309" data-name="Path 78309" d="M51.3,199.365a3.045,3.045,0,0,0-2.289-2.717,7.385,7.385,0,0,0-4.525.333.339.339,0,0,0-.256.357v1.13a7.908,7.908,0,0,1,2.456-.731,2.732,2.732,0,0,1,3.027,1.3c.392.969.25,1.058-.7,1.064a10.359,10.359,0,0,0-3.568.339,2.854,2.854,0,0,0-1.933,2.932,2.712,2.712,0,0,0,2.218,2.747,3.776,3.776,0,0,0,4.115-1.451c.071,1.409.071,1.409,1.189,1.32H51.1c.226,0,.327-.089.321-.321A50.511,50.511,0,0,0,51.3,199.365Zm-1.451,3a2.748,2.748,0,0,1-3.181,2.527,1.719,1.719,0,0,1-1.582-1.463,1.606,1.606,0,0,1,1.189-1.927,7.368,7.368,0,0,1,2.254-.226h.416c1.017,0,1.082.077.9,1.088Z" transform="translate(-17.637 -79.627)" fill="#4dc8ed"/>
        <path id="Path_78310" data-name="Path 78310" d="M126.656,199.947a3.354,3.354,0,0,0-3.021-3.461,8.67,8.67,0,0,0-3.437.321c-.547.161-.8.387-.737.987s0,.654.595.41a5.667,5.667,0,0,1,3.336-.41,2.04,2.04,0,0,1,1.713,1.784c.03.387-.065.529-.482.529a18.823,18.823,0,0,0-3.116.107c-1.909.3-2.813,1.481-2.676,3.526a2.829,2.829,0,0,0,3.08,2.486,3.669,3.669,0,0,0,3.158-1.516c.089,1.32.089,1.308,1.142,1.284.333,0,.452-.1.452-.446C126.656,203.675,126.716,201.808,126.656,199.947Zm-4.311,4.953c-1.487,0-2.277-.957-1.927-2.313a1.368,1.368,0,0,1,.928-1.017,10.959,10.959,0,0,1,3.5-.291c.2,0,.268.113.279.3a2.849,2.849,0,0,1-2.771,3.324Z" transform="translate(-48.166 -79.626)" fill="#4dc8ed"/>
        <path id="Path_78311" data-name="Path 78311" d="M27.916,201.61h5.405c1.1,0,1.13,0,1.064-1.124a3.949,3.949,0,0,0-2.04-3.627,4.5,4.5,0,0,0-4.472.167,4.448,4.448,0,0,0-2.093,3.716c-.184,2.063.517,4.162,2.658,5.025a7.188,7.188,0,0,0,5.352-.22.315.315,0,0,0,.22-.321v-1.189l-.505.208a7.005,7.005,0,0,1-3.271.595,2.973,2.973,0,0,1-2.842-2.682C27.374,201.771,27.47,201.6,27.916,201.61Zm-.47-1.552a2.777,2.777,0,0,1,2.789-2.379,2.492,2.492,0,0,1,2.545,1.933c.184.72.107.827-.648.827H27.82C27.559,200.427,27.41,200.379,27.446,200.058Z" transform="translate(-10.441 -79.589)" fill="#4dc8ed"/>
        <path id="Path_78312" data-name="Path 78312" d="M174.739,201.6c1.784.042,3.52,0,5.286,0,1.118,0,1.148,0,1.088-1.106a3.974,3.974,0,0,0-2.028-3.639,4.5,4.5,0,0,0-4.525.178,4.425,4.425,0,0,0-2.051,3.675c-.2,2.242.595,4.311,2.86,5.126a6.482,6.482,0,0,0,4.162,0c1.445-.446,1.189-.107,1.189-1.7a.177.177,0,0,0-.048-.1,7.7,7.7,0,0,1-3.514.8,2.973,2.973,0,0,1-3.021-2.551C174.073,201.835,174.133,201.579,174.739,201.6Zm-.595-1.516a2.787,2.787,0,0,1,2.706-2.42,2.462,2.462,0,0,1,2.6,1.849c.238.8.166.9-.648.91h-4.234c-.232-.006-.434.012-.41-.339Z" transform="translate(-69.918 -79.581)" fill="#4dc8ed"/>
        <path id="Path_78313" data-name="Path 78313" d="M92.1,70a10.739,10.739,0,1,1-7.616,3.114A10.757,10.757,0,0,1,92.1,70Z" transform="translate(-32.962 -28.374)" fill="#4dc8ed"/>
      </g>
    </g>
  </g>
</svg>
