<svg xmlns="http://www.w3.org/2000/svg" xmlns:xlink="http://www.w3.org/1999/xlink" width="218.878" height="166.858" viewBox="0 0 218.878 166.858">
  <defs>
    <clipPath id="clip-path">
      <path id="Path_78208" data-name="Path 78208" d="M69.328,38.839,53.47,48.02a1.92,1.92,0,0,0-.96,1.669V68.052a1.92,1.92,0,0,0,.96,1.669L69.328,78.9a1.928,1.928,0,0,0,1.92,0l15.859-9.181a1.92,1.92,0,0,0,.96-1.669V49.69a1.92,1.92,0,0,0-.96-1.669L71.248,38.839a1.936,1.936,0,0,0-1.928,0" transform="translate(-52.51 -38.582)" fill="none"/>
    </clipPath>
    <linearGradient id="linear-gradient" x1="-4.307" y1="4.265" x2="-4.3" y2="4.265" gradientUnits="objectBoundingBox">
      <stop offset="0.3" stop-color="#3e863d"/>
      <stop offset="0.5" stop-color="#55934f"/>
      <stop offset="0.8" stop-color="#5aad45"/>
    </linearGradient>
    <clipPath id="clip-path-2">
      <path id="Path_78210" data-name="Path 78210" d="M52.94,69.225a1.92,1.92,0,0,0,.568.492L67.179,77.6l2.27,1.3a1.928,1.928,0,0,0,1.11.25,1.96,1.96,0,0,0,.376-.067l16.735-30.7a1.9,1.9,0,0,0-.451-.351l-10.408-6.01-5.5-3.163a2,2,0,0,0-.5-.2Z" transform="translate(-52.94 -38.66)" fill="none"/>
    </clipPath>
    <linearGradient id="linear-gradient-2" x1="-3.937" y1="3.98" x2="-3.933" y2="3.98" gradientUnits="objectBoundingBox">
      <stop offset="0.57" stop-color="#3e863d"/>
      <stop offset="0.72" stop-color="#619857"/>
      <stop offset="1" stop-color="#76ac64"/>
    </linearGradient>
    <clipPath id="clip-path-3">
      <path id="Path_78212" data-name="Path 78212" d="M70.3,38.6a1.937,1.937,0,0,0-.768.242L53.67,48.023,70.764,79.156a1.9,1.9,0,0,0,.684-.234l15.859-9.181a1.928,1.928,0,0,0,.926-1.31L70.847,38.625a2,2,0,0,0-.392,0H70.3" transform="translate(-53.67 -38.6)" fill="none"/>
    </clipPath>
    <linearGradient id="linear-gradient-3" x1="-8.902" y1="6.833" x2="-8.895" y2="6.833" gradientUnits="objectBoundingBox">
      <stop offset="0.16" stop-color="#6bbf47"/>
      <stop offset="0.38" stop-color="#79b461"/>
      <stop offset="0.47" stop-color="#75ac64"/>
      <stop offset="0.7" stop-color="#659e5a"/>
      <stop offset="0.9" stop-color="#3e863d"/>
    </linearGradient>
  </defs>
  <g id="Group_110176" data-name="Group 110176" transform="translate(-9757 2340.477)">
    <rect id="Rectangle_30115" data-name="Rectangle 30115" width="218.878" height="166.858" transform="translate(9757 -2340.477)" fill="none"/>
    <g id="Layer_2" data-name="Layer 2" transform="translate(9783.01 -2317.477)">
      <g id="Layer_1" data-name="Layer 1" transform="translate(-0.01)">
        <path id="Path_78203" data-name="Path 78203" d="M95.236,124.94a3.171,3.171,0,0,1-1.578-.426l-5.008-2.98c-.751-.417-.384-.568-.134-.651a10.157,10.157,0,0,0,2.245-1.027.384.384,0,0,1,.376,0l3.864,2.3a.509.509,0,0,0,.467,0l15.074-8.706a.476.476,0,0,0,.234-.409V95.652a.484.484,0,0,0-.234-.417L95.478,86.546a.467.467,0,0,0-.467,0l-15.066,8.7a.484.484,0,0,0-.242.409v17.394a.467.467,0,0,0,.234.4l4.132,2.387c2.245,1.118,3.614-.2,3.614-1.527V97.138a.434.434,0,0,1,.434-.434h1.911a.434.434,0,0,1,.434.434v17.177c0,2.988-1.669,4.707-4.465,4.707a6.46,6.46,0,0,1-3.472-.943L78.568,115.8a3.189,3.189,0,0,1-1.578-2.754V95.652a3.172,3.172,0,0,1,1.578-2.746L93.692,84.2a3.339,3.339,0,0,1,3.172,0l15.074,8.706a3.18,3.18,0,0,1,1.544,2.746v17.394a3.188,3.188,0,0,1-1.578,2.746L96.83,124.5a3.171,3.171,0,0,1-1.586.426" transform="translate(-12.721 -13.855)" fill="#689f63"/>
        <path id="Path_78204" data-name="Path 78204" d="M102.849,114.534c-6.594,0-7.979-3.03-7.979-5.567a.434.434,0,0,1,.434-.434h1.945a.434.434,0,0,1,.434.367c.292,1.986,1.169,2.988,5.158,2.988,3.18,0,4.532-.718,4.532-2.4,0-.968-.384-1.669-5.317-2.17-4.132-.409-6.677-1.319-6.677-4.616,0-3.038,2.562-4.849,6.861-4.849,4.824,0,7.22,1.669,7.512,5.275a.442.442,0,0,1-.117.334.451.451,0,0,1-.317.142h-1.961a.434.434,0,0,1-.426-.342c-.476-2.087-1.611-2.754-4.707-2.754-3.464,0-3.873,1.21-3.873,2.112,0,1.1.476,1.419,5.158,2.037s6.836,1.486,6.836,4.741-2.738,5.167-7.512,5.167M121.2,96.113h.492a.442.442,0,0,0,.492-.459c0-.442-.309-.442-.476-.442h-.517Zm-.618-1.427h1.11c.384,0,1.144,0,1.144.835a.751.751,0,0,1-.618.835c.451,0,.476.325.543.743a3.181,3.181,0,0,0,.167.835h-.693c0-.15-.125-.985-.125-1.027a.293.293,0,0,0-.342-.275H121.2v1.3h-.634ZM119.234,96.3a1.718,1.718,0,1,1,.025.025m5.342,0a4.606,4.606,0,1,1-.008-.025" transform="translate(-15.677 -15.443)" fill="#689f63"/>
        <path id="Path_78205" data-name="Path 78205" d="M35.822,44.765a1.928,1.928,0,0,0-.968-1.669L18.87,33.915a1.87,1.87,0,0,0-.876-.25h-.167a1.9,1.9,0,0,0-.885.25L.958,43.1A1.945,1.945,0,0,0-.01,44.765L0,69.538a.952.952,0,0,0,.476.835.91.91,0,0,0,.96,0l9.5-5.442a1.945,1.945,0,0,0,.968-1.669V51.685a1.928,1.928,0,0,1,.968-1.669l4.082-2.354a1.92,1.92,0,0,1,.968-.259,1.886,1.886,0,0,1,.96.259l4.04,2.329a1.928,1.928,0,0,1,.968,1.669V63.253a1.953,1.953,0,0,0,.968,1.669l9.49,5.442a.943.943,0,0,0,.968,0,.968.968,0,0,0,.476-.835Zm75.42,12.912a.476.476,0,0,1-.242.417l-5.492,3.163a.484.484,0,0,1-.484,0l-5.492-3.163a.476.476,0,0,1-.209-.417V51.326a.484.484,0,0,1,.234-.417l5.484-3.172a.484.484,0,0,1,.484,0l5.492,3.172a.484.484,0,0,1,.242.417Zm1.486-46.941a.968.968,0,0,0-1.436.835V36.093a.676.676,0,0,1-1.01.584l-4.006-2.3a1.928,1.928,0,0,0-1.928,0L88.356,43.6a1.928,1.928,0,0,0-.968,1.669V63.729a1.936,1.936,0,0,0,.968,1.669l15.975,9.231a1.936,1.936,0,0,0,1.928,0l15.992-9.24a1.936,1.936,0,0,0,.968-1.669V17.714a1.936,1.936,0,0,0-.993-1.669Zm53.243,40.439a1.928,1.928,0,0,0,.96-1.669v-4.49a1.928,1.928,0,0,0-.96-1.669l-15.859-9.181a1.928,1.928,0,0,0-1.936,0l-16.017,9.19a1.928,1.928,0,0,0-.968,1.669V63.478a1.936,1.936,0,0,0,.977,1.669L148.026,74.2a1.928,1.928,0,0,0,1.895,0l9.607-5.342a.96.96,0,0,0,0-1.669L143.477,57.97a.96.96,0,0,1-.484-.835V51.351a.96.96,0,0,1,.484-.835l5.008-2.888a.952.952,0,0,1,.918.033l5.008,2.888a.96.96,0,0,1,.484.835v4.549a.96.96,0,0,0,1.452.835Z" transform="translate(0.01 -1.755)" fill="#333"/>
        <path id="Path_78206" data-name="Path 78206" d="M177.725,58.15a.367.367,0,0,1,.367,0l3.072,1.769a.367.367,0,0,1,.184.317v3.547a.367.367,0,0,1-.184.317l-3.072,1.769a.367.367,0,0,1-.367,0L174.662,64.1a.367.367,0,0,1-.192-.317V60.237a.367.367,0,0,1,.184-.317Z" transform="translate(-28.838 -9.606)" fill="#689f63"/>
        <g id="Group_60965" data-name="Group 60965" transform="translate(43.836 32.203)" clip-path="url(#clip-path)">
          <path id="Path_78207" data-name="Path 78207" d="M100.986,43.653,56.19,21.71,33.22,68.568l44.8,21.96Z" transform="translate(-49.321 -35.792)" fill="url(#linear-gradient)"/>
        </g>
        <g id="Group_60966" data-name="Group 60966" transform="translate(44.195 32.268)" clip-path="url(#clip-path-2)">
          <path id="Path_78209" data-name="Path 78209" d="M29.73,49.678l31.634,42.81L103.2,61.6,71.563,18.77Z" transform="translate(-49.103 -35.371)" fill="url(#linear-gradient-2)"/>
        </g>
        <g id="Group_60967" data-name="Group 60967" transform="translate(44.805 32.218)" clip-path="url(#clip-path-3)">
          <path id="Path_78211" data-name="Path 78211" d="M53.67,38.59V79.13h34.6V38.59Z" transform="translate(-53.67 -38.598)" fill="url(#linear-gradient-3)"/>
        </g>
        <rect id="Rectangle_30101" data-name="Rectangle 30101" width="166.933" height="119.924" transform="translate(0.008)" fill="none"/>
      </g>
    </g>
  </g>
</svg>
