<svg xmlns="http://www.w3.org/2000/svg" xmlns:xlink="http://www.w3.org/1999/xlink" width="218.88" height="166.86" viewBox="0 0 218.88 166.86">
  <defs>
    <radialGradient id="radial-gradient" cx="0.253" cy="0.862" r="1.384" gradientUnits="objectBoundingBox">
      <stop offset="0" stop-color="#008cbe"/>
      <stop offset="1" stop-color="#b2ffff"/>
    </radialGradient>
  </defs>
  <g id="Group_110562" data-name="Group 110562" transform="translate(-693 -4943)">
    <rect id="Rectangle_30164" data-name="Rectangle 30164" width="218.88" height="166.86" transform="translate(693 4943)" fill="none"/>
    <g id="Group_95477" data-name="Group 95477" transform="translate(652.688 5203.657)">
      <g id="layer1" transform="translate(53.312 -214.657)">
        <g id="g3025">
          <path id="path5874" d="M63.943-206.889c-11.59,12.6-8.783,36.071,6.272,52.429s36.65,19.407,48.24,6.811,8.79-36.071-6.263-52.429S75.535-219.49,63.943-206.889Zm10.51,5.23c9.108-9.9,25.853-7.745,37.406,4.808S125.392-166.1,116.28-156.2s-25.853,7.753-37.4-4.8-13.528-30.756-4.421-40.654Z" transform="translate(-51.661 214.657)" fill="url(#radial-gradient)"/>
          <rect id="rect5876" width="9.704" height="9.704" rx="1.72" transform="translate(54.554 12.242)" fill="#ff7f2a" stroke="#d45500" stroke-width="0.744"/>
          <rect id="rect5878" width="22.856" height="22.856" rx="4.051" transform="translate(0 25.025)" fill="#ff7f2a" stroke="#d45500" stroke-width="0.744"/>
          <rect id="rect5880" width="13.808" height="13.808" rx="2.447" transform="translate(59.068 54.947)" fill="#ff7f2a" stroke="#d45500" stroke-width="0.744"/>
        </g>
      </g>
      <g id="Group_95457" data-name="Group 95457" transform="translate(138.982 -190.284)">
        <g id="Group_95456" data-name="Group 95456">
          <path id="Path_127047" data-name="Path 127047" d="M132.6-186.677a12.027,12.027,0,0,1-2.732,8.467,11.842,11.842,0,0,1-15.658,0,12.09,12.09,0,0,1-2.732-8.5,11.929,11.929,0,0,1,2.742-8.466,10.247,10.247,0,0,1,7.853-2.921,10.1,10.1,0,0,1,7.822,2.947A12.061,12.061,0,0,1,132.6-186.677Zm-16.19,0a9.281,9.281,0,0,0,1.41,5.6,4.944,4.944,0,0,0,4.219,1.882q5.63,0,5.629-7.482t-5.6-7.495a4.976,4.976,0,0,0-4.234,1.889,9.24,9.24,0,0,0-1.423,5.606Z" transform="translate(-111.449 198.117)" fill="#0c94c2"/>
          <path id="Path_127048" data-name="Path 127048" d="M135.9-176.943q-7.92,0-7.919-8.694a9.277,9.277,0,0,1,2.154-6.608,8.083,8.083,0,0,1,6.176-2.284,11.784,11.784,0,0,1,5.28,1.154l-1.366,3.581q-1.092-.442-2.034-.721a6.544,6.544,0,0,0-1.88-.28q-3.612,0-3.612,5.128,0,4.978,3.612,4.976a8.258,8.258,0,0,0,2.473-.357,8.856,8.856,0,0,0,2.277-1.116v3.961a7.46,7.46,0,0,1-2.268.986A12.793,12.793,0,0,1,135.9-176.943Z" transform="translate(-103.628 199.808)" fill="#0c94c2"/>
          <path id="Path_127049" data-name="Path 127049" d="M147.214-179.576a10,10,0,0,0,2.913-.53v3.444a10.379,10.379,0,0,1-4.248.774,5.206,5.206,0,0,1-4.044-1.4,6.122,6.122,0,0,1-1.267-4.212v-8.178h-2.21v-1.957l2.549-1.549,1.335-3.581H145.2v3.612h4.749v3.475H145.2v8.178a1.81,1.81,0,0,0,.554,1.456A2.182,2.182,0,0,0,147.214-179.576Z" transform="translate(-98.704 198.755)" fill="#0c94c2"/>
          <path id="Path_127050" data-name="Path 127050" d="M159.807-177.238l-.9-2.306h-.121a6.829,6.829,0,0,1-2.4,2.041,7.783,7.783,0,0,1-3.224.567,5.211,5.211,0,0,1-3.846-1.4,5.369,5.369,0,0,1-1.4-3.979,4.48,4.48,0,0,1,1.889-3.979,10.957,10.957,0,0,1,5.7-1.419l2.947-.091v-.737a2.306,2.306,0,0,0-1.988-2.588,2.352,2.352,0,0,0-.651.007,12.042,12.042,0,0,0-4.78,1.229l-1.533-3.126a13.8,13.8,0,0,1,6.494-1.533,8.085,8.085,0,0,1,5.236,1.487,5.5,5.5,0,0,1,1.821,4.521v11.3Zm-1.366-7.86-1.79.06a5.742,5.742,0,0,0-3,.729,2.29,2.29,0,0,0-.986,2.032q0,1.956,2.246,1.958a3.558,3.558,0,0,0,2.571-.925,3.237,3.237,0,0,0,.964-2.458Z" transform="translate(-94.186 199.8)" fill="#0c94c2"/>
          <path id="Path_127051" data-name="Path 127051" d="M166.225-177.353l-6.463-16.966H164.6l3.277,9.665a17.122,17.122,0,0,1,.682,3.475h.091a15.18,15.18,0,0,1,.682-3.475l3.264-9.665h4.841l-6.465,16.964Z" transform="translate(-88.567 199.916)" fill="#0c94c2"/>
          <path id="Path_127052" data-name="Path 127052" d="M181.42-176.945a8.757,8.757,0,0,1-6.4-2.26,8.567,8.567,0,0,1-2.306-6.4,9.418,9.418,0,0,1,2.132-6.593,7.589,7.589,0,0,1,5.894-2.33,7.475,7.475,0,0,1,5.6,2.048,7.745,7.745,0,0,1,2,5.66v2.246H177.4a4.451,4.451,0,0,0,1.169,3.081,4.113,4.113,0,0,0,3.065,1.107,12.7,12.7,0,0,0,2.9-.318,14.486,14.486,0,0,0,2.853-1.017v3.578a10.9,10.9,0,0,1-2.6.9A16.259,16.259,0,0,1,181.42-176.945Zm-.651-14.294a2.932,2.932,0,0,0-2.306.933,4.326,4.326,0,0,0-.956,2.652H184a3.856,3.856,0,0,0-.894-2.652,3.031,3.031,0,0,0-2.334-.931Z" transform="translate(-82.444 199.809)" fill="#0c94c2"/>
        </g>
      </g>
    </g>
  </g>
</svg>
