<svg xmlns="http://www.w3.org/2000/svg" width="218.878" height="166.858" viewBox="0 0 218.878 166.858">
  <g id="Group_61805" data-name="Group 61805" transform="translate(-616 -8705)">
    <rect id="Rectangle_30116" data-name="Rectangle 30116" width="218.878" height="166.858" transform="translate(616 8705)" fill="none"/>
    <g id="Layer_2" data-name="Layer 2" transform="translate(636.005 8748)">
      <g id="design" transform="translate(-0.005)">
        <path id="Path_78222" data-name="Path 78222" d="M77.241,47.063H89.084L82.818,36.975,71.351,55.2H66.132L80.1,33.376a3.339,3.339,0,0,1,5.434,0l14.009,21.9H94.294L91.85,51.2H79.873l-2.632-4.118Zm54.246,4.073V32.15h-4.476V52.989a2.13,2.13,0,0,0,.636,1.54,2.2,2.2,0,0,0,1.629.671h20.212l2.685-4.073H131.487Zm-73.3-3.384a7.779,7.779,0,1,0,0-15.558h-19.4V55.271h4.476v-19H57.852a3.7,3.7,0,0,1,3.706,3.786,3.742,3.742,0,0,1-3.706,3.76H45.383L58.622,55.271H65.04l-8.862-7.546ZM11.52,55.2a11.525,11.525,0,1,1,0-23.05H24.9a11.525,11.525,0,0,1,0,23.05Zm13.114-4.064a7.457,7.457,0,1,0,0-14.913H11.842a7.457,7.457,0,1,0,0,14.913ZM108.777,55.2a11.525,11.525,0,1,1,0-23.05h15.916l-2.623,4.073h-13a7.465,7.465,0,1,0,0,14.931h15.96l-2.623,4.118H108.8Zm54.192-4.064a7.528,7.528,0,0,1-7.161-5.416h18.923l2.623-4.073h-21.6a7.519,7.519,0,0,1,7.161-5.416h13.024l2.623-4.073H162.718a11.525,11.525,0,1,0,0,23.05h13.7l2.614-4.082H162.987Z" transform="translate(0.005 -3.353)" fill="#ed1c24"/>
        <rect id="Rectangle_30102" data-name="Rectangle 30102" width="179.016" height="80.573" fill="rgba(0,0,0,0)"/>
      </g>
    </g>
  </g>
</svg>
