<svg xmlns="http://www.w3.org/2000/svg" width="218.878" height="166.858" viewBox="0 0 218.878 166.858">
  <g id="Group_61779" data-name="Group 61779" transform="translate(-1083 -7499)">
    <rect id="Rectangle_30114" data-name="Rectangle 30114" width="218.878" height="166.858" transform="translate(1083 7499)" fill="none"/>
    <g id="Layer_2" data-name="Layer 2" transform="translate(1106 7522)">
      <g id="Layer_1" data-name="Layer 1">
        <rect id="Rectangle_30103" data-name="Rectangle 30103" width="173.13" height="119.924" fill="rgba(0,0,0,0)"/>
        <path id="Path_78223" data-name="Path 78223" d="M34.853,33.26c5.424,0,8.92.956,10.676,3.026s2.226,5.424,1.27,10.19-2.869,8.606-5.581,10.676-7.007,3.135-12.745,3.135H19.882L25.134,33.2ZM.6,87.751H14.615l3.339-17.244H30.072A42.436,42.436,0,0,0,43.13,68.751a25.834,25.834,0,0,0,9.406-5.581,29.879,29.879,0,0,0,5.738-7.164A30.9,30.9,0,0,0,61.409,47.4c1.427-7.65.314-13.7-3.339-17.84s-9.719-6.38-17.84-6.38H13.188Z" transform="translate(0.341 13.158)" fill="#6082bb"/>
        <path id="Path_78224" data-name="Path 78224" d="M50.484,12.13H64.593L61.254,29.374H73.685c7.838,0,13.231,1.427,16.256,4.139s3.825,7.164,2.712,13.231L86.7,76.811H72.588L78.09,48.3c.643-3.135.47-5.424-.643-6.694S74,39.846,70.44,39.846H59.294L52.052,76.811H38.1Z" transform="translate(21.627 6.885)" fill="#6082bb"/>
        <path id="Path_78225" data-name="Path 78225" d="M104.983,33.26c5.424,0,8.92.956,10.676,3.026s2.226,5.424,1.27,10.19-2.869,8.606-5.581,10.676S104.34,60.286,98.6,60.286H89.965L95.217,33.2ZM70.73,87.751H84.745l3.339-17.244h12.1a42.436,42.436,0,0,0,13.058-1.756,25.834,25.834,0,0,0,9.406-5.581,29.879,29.879,0,0,0,5.738-7.164,30.9,30.9,0,0,0,3.135-8.606c1.427-7.65.314-13.7-3.339-17.84s-9.719-6.38-17.84-6.38H83.318L70.777,87.7Z" transform="translate(40.149 13.158)" fill="#6082bb"/>
      </g>
    </g>
  </g>
</svg>
