<svg xmlns="http://www.w3.org/2000/svg" xmlns:xlink="http://www.w3.org/1999/xlink" width="218.878" height="166.858" viewBox="0 0 218.878 166.858">
  <defs>
    <linearGradient id="linear-gradient" x1="-0.034" y1="1.286" x2="0.712" y2="0.644" gradientUnits="objectBoundingBox">
      <stop offset="0" stop-color="#5a9fd4"/>
      <stop offset="1" stop-color="#306998"/>
    </linearGradient>
    <linearGradient id="linear-gradient-2" x1="0.651" y1="-0.09" x2="0.385" y2="0.284" gradientUnits="objectBoundingBox">
      <stop offset="0" stop-color="#ffd43b"/>
      <stop offset="1" stop-color="#ffe873"/>
    </linearGradient>
  </defs>
  <g id="Group_61777" data-name="Group 61777" transform="translate(-618 -7499)">
    <rect id="Rectangle_30116" data-name="Rectangle 30116" width="218.878" height="166.858" transform="translate(618 7499)" fill="none"/>
    <g id="python_1" transform="translate(633 7559)">
      <path id="Path_78288" data-name="Path 78288" d="M224.9,23.727q0-8.825-5.031-9.073a9.482,9.482,0,0,0-3.9.632,5.765,5.765,0,0,0-2.062,1.072V30.408a9.907,9.907,0,0,0,5.719,1.87c3.519-.192,5.279-3.052,5.279-8.55Zm4.151.247a12.559,12.559,0,0,1-2.117,7.451,7.792,7.792,0,0,1-6.543,3.437,11.545,11.545,0,0,1-6.488-1.98V45.666l-3.6-1.292V16.029a8.163,8.163,0,0,1,2.282-1.87,15.7,15.7,0,0,1,7.808-1.925l.055.055a7.231,7.231,0,0,1,6.488,3.437,14.808,14.808,0,0,1,2.117,8.248Zm22.022,8.385c0,4.014-.412,6.791-1.21,8.33a8.538,8.538,0,0,1-4.619,3.712,17.589,17.589,0,0,1-5.966,1.182l-.6-2.282a32.336,32.336,0,0,0,4.591-.88,6.1,6.1,0,0,0,3.6-2.722c.522-.99.8-2.887.8-5.664V33.1a18.819,18.819,0,0,1-7.753,1.677,7.2,7.2,0,0,1-4.7-1.677,5.728,5.728,0,0,1-2.282-4.646V13.472l3.6-1.237V27.328a4.605,4.605,0,0,0,1.567,3.739,5.892,5.892,0,0,0,4.041,1.265,10.132,10.132,0,0,0,5.306-1.925v-17.6h3.6l.027,19.548ZM265.149,34.7l-1.182.055a7.128,7.128,0,0,1-4.756-1.457,5.074,5.074,0,0,1-1.7-4.042V15.066h-2.474V12.812h2.474V6.763l3.6-1.292v7.313h4.041v2.254h-4.041v14.1a3.34,3.34,0,0,0,1.1,2.859,5.647,5.647,0,0,0,2.969.8v1.9Zm21.83-.3h-3.6V20.483a6.551,6.551,0,0,0-.99-3.657,3.6,3.6,0,0,0-3.162-1.732c-1.65,0-3.712.88-6.186,2.612V34.367h-3.6V1.127L273.012,0V15.149a12.57,12.57,0,0,1,7.561-2.529,6.018,6.018,0,0,1,4.646,1.925,6.834,6.834,0,0,1,1.787,4.784l-.027,15.066Zm19.163-11.217a11.138,11.138,0,0,0-1.292-5.609,5.4,5.4,0,0,0-4.729-2.859c-3.959.22-5.911,3.052-5.911,8.468a14.021,14.021,0,0,0,1.237,6.241,4.984,4.984,0,0,0,4.756,3.134c3.932-.027,5.939-3.162,5.939-9.375Zm3.932.027A12.841,12.841,0,0,1,307.6,31.26a8.911,8.911,0,0,1-7.506,3.6,8.675,8.675,0,0,1-7.4-3.6,12.929,12.929,0,0,1-2.419-8.056,11.505,11.505,0,0,1,2.612-7.643,9.007,9.007,0,0,1,7.258-3.3,9.154,9.154,0,0,1,7.313,3.3,11.455,11.455,0,0,1,2.612,7.643Zm20.675,11.19h-3.6V19.685a4.907,4.907,0,0,0-1.457-3.767,5.157,5.157,0,0,0-3.876-1.292,8.669,8.669,0,0,0-4.866,1.677V34.422h-3.629V15.836a17.857,17.857,0,0,1,5.719-2.969,17.048,17.048,0,0,1,4.344-.632,11.458,11.458,0,0,1,2.42.247,7.115,7.115,0,0,1,3.464,1.815,4.841,4.841,0,0,1,1.485,3.547V34.394Z" transform="translate(-155.488)" fill="#646464"/>
      <path id="Path_78289" data-name="Path 78289" d="M22.232,4.6a30.523,30.523,0,0,0-5.2.44c-4.591.8-5.416,2.5-5.416,5.636V14.8H22.48v1.375H7.551a6.746,6.746,0,0,0-6.763,5.5,20.292,20.292,0,0,0,0,11.025c.77,3.217,2.612,5.5,5.774,5.5H10.3V33.248a6.9,6.9,0,0,1,6.763-6.736H27.9a5.445,5.445,0,0,0,5.416-5.5V10.676c0-2.942-2.474-5.141-5.416-5.636a35.482,35.482,0,0,0-5.664-.44ZM16.376,7.927a2.062,2.062,0,1,1-2.035,2.062A2.053,2.053,0,0,1,16.376,7.927Z" transform="translate(-0.024 -3.335)" fill="url(#linear-gradient)"/>
      <path id="Path_78290" data-name="Path 78290" d="M65.312,46.8v4.811a6.945,6.945,0,0,1-6.763,6.873H47.716a5.516,5.516,0,0,0-5.416,5.5V74.321c0,2.942,2.557,4.674,5.416,5.5a18.16,18.16,0,0,0,10.832,0c2.722-.8,5.416-2.392,5.416-5.5V70.2H53.132V68.822H69.381c3.162,0,4.316-2.2,5.416-5.5,1.127-3.409,1.072-6.653,0-11.025-.77-3.134-2.254-5.5-5.416-5.5ZM59.236,72.946A2.062,2.062,0,1,1,57.2,75.008,2.053,2.053,0,0,1,59.236,72.946Z" transform="translate(-30.677 -33.933)" fill="url(#linear-gradient-2)"/>
      <path id="Path_78291" data-name="Path 78291" d="M669.912,23.126h.632V19.167h1.485V18.7H668.4v.467h1.485l.027,3.959m2.694,0h.55V19.5l1.182,3.629h.6l1.21-3.6v3.6h.577V18.7h-.77l-1.347,3.794L673.486,18.7h-.88v4.426" transform="translate(-487.642 -13.559)" fill="#646464"/>
    </g>
  </g>
</svg>
