<svg xmlns="http://www.w3.org/2000/svg" width="218.88" height="166.86" viewBox="0 0 218.88 166.86">
  <g id="Group_110403" data-name="Group 110403" transform="translate(-9701 -1600)">
    <rect id="Rectangle_39958" data-name="Rectangle 39958" width="218.88" height="166.86" transform="translate(9701 1600)" fill="none"/>
    <g id="Group_95478" data-name="Group 95478" transform="translate(9692 1595)">
      <path id="Path_127053" data-name="Path 127053" d="M118,39C82.117,39,53,58.53,53,82.706s29.117,43.706,65,43.706,65-19.53,65-43.706S153.941,39,118,39Zm8.823,76.706c-26.529,0-48.063-13.294-48.063-29.706s21.53-29.706,48.059-29.706,48.059,8,48.059,29.706S153.412,115.706,126.823,115.706Z" fill="#b0b1b5"/>
      <path id="Path_127054" data-name="Path 127054" d="M162.647,113c-1.353-2.47-6.411-5.53-10.353-6.117,12.294-3.3,18.883-8.883,18.883-22.177s-13.823-18.059-21-18.059H106.588V139h21.824V110.647h6.235c3.412,0,4.589,2.412,18.294,28.353h24.706S164,115.47,162.647,113ZM142.883,94.117H128.53V82.177h14.353c3.058,0,5.47,2.47,5.47,5.941S145.941,94.117,142.883,94.117Z" fill="#1f65b8"/>
    </g>
  </g>
</svg>
