<svg xmlns="http://www.w3.org/2000/svg" width="218.878" height="166.858" viewBox="0 0 218.878 166.858">
  <g id="Group_110217" data-name="Group 110217" transform="translate(-9066 2600)">
    <rect id="Rectangle_30119" data-name="Rectangle 30119" width="218.878" height="166.858" transform="translate(9066 -2600)" fill="none"/>
    <g id="Ruby_On_Rails_Logo" data-name="Ruby On Rails Logo" transform="translate(8876.7 -2367.811)">
      <path id="Path_122030" data-name="Path 122030" d="M346.455-132.424v5.943h10.738a6.141,6.141,0,0,0,6.108-6.108v-2.3A6.065,6.065,0,0,0,357.279-141h-5.438v-2.756h10.606v-5.976h-10.18a6.249,6.249,0,0,0-6.14,6.206v2.069a6.138,6.138,0,0,0,6.14,6.108c7.388.033-1.773,0,5.057,0v2.89m-68.4-1.412s5.743-.493,5.743-7.914a7.844,7.844,0,0,0-6.961-8.111H275.167v23.412h6.3v-5.647l5.451,5.648h9.326Zm-2.43-4.794h-5.027v-5.353h5.057a2.639,2.639,0,0,1,1.412,2.66,2.71,2.71,0,0,1-1.44,2.692Zm23.741-11.066h-6.4c-4.564,0-6.108,4.137-6.108,6.108v17.139h6.4v-4.1h6.009v4.1h6.206v-17.14c0-4.991-4.529-6.108-6.106-6.108Zm-.1,12.511h-6.042V-142.9s0-1.281,2-1.281h2.2c1.773,0,1.806,1.281,1.806,1.281v5.681Z" fill="#c00" fill-rule="evenodd"/>
      <rect id="Rectangle_35492" data-name="Rectangle 35492" width="6.666" height="23.248" transform="translate(319.266 -149.729)" fill="#c00"/>
      <path id="Path_122031" data-name="Path 122031" d="M335.29-132.49v-17.239h-6.633v23.248h15.6v-6.009Z" fill="#c00" fill-rule="evenodd"/>
      <path id="Path_122032" data-name="Path 122032" d="M235.6-126.48H261.54S256.582-149.1,273-158.266c3.579-1.74,14.973-8.242,33.625,5.549.591-.493,1.149-.887,1.149-.887s-17.074-17.041-36.087-15.133c-9.555.854-21.311,9.555-28.207,21.048S235.6-126.48,235.6-126.48Z" fill="#c00" fill-rule="evenodd"/>
      <path id="Path_122033" data-name="Path 122033" d="M235.6-126.48H261.54S256.582-149.1,273-158.266c3.579-1.74,14.973-8.242,33.625,5.549.591-.493,1.149-.887,1.149-.887s-17.074-17.041-36.087-15.133c-9.555.854-21.311,9.555-28.207,21.048S235.6-126.48,235.6-126.48Z" fill="#c00" fill-rule="evenodd"/>
      <path id="Path_122034" data-name="Path 122034" d="M235.6-126.481H261.54S256.582-149.1,273-158.267c3.579-1.74,14.973-8.242,33.625,5.549.591-.493,1.149-.887,1.149-.887s-17.074-17.041-36.087-15.137c-9.588.854-21.344,9.555-28.239,21.048S235.6-126.481,235.6-126.481ZM289.648-166.9l.131-2.2a16.066,16.066,0,0,0-3.18-1.149l-.131,2.167C287.546-167.724,288.6-167.33,289.648-166.9Z" fill="#c00" fill-rule="evenodd"/>
      <path id="Path_122035" data-name="Path 122035" d="M286.528-159.941l-.128,2.069a18.335,18.335,0,0,1,3.251.394l.131-2.036A23.3,23.3,0,0,0,286.528-159.941Zm-12.149-10.248h.328l-.657-2a26.118,26.118,0,0,0-3.15.2l.624,1.937A27.783,27.783,0,0,1,274.379-170.189Zm1.576,12.084.755,2.266a20.869,20.869,0,0,1,2.857-1.15l-.722-2.167a23.938,23.938,0,0,0-2.89,1.054Zm-14.908-8.633L259.569-169c-.821.427-1.675.887-2.561,1.412l1.51,2.3C259.372-165.819,260.193-166.311,261.047-166.738Zm6.731,14.776,1.576,2.364a18.3,18.3,0,0,1,1.937-2.331l-1.478-2.233A18.189,18.189,0,0,0,267.778-151.962Zm-4.761,10.573,2.66,2.1a26.215,26.215,0,0,1,.69-3.842L264-145A31.123,31.123,0,0,0,263.017-141.389Zm-14.382-15.6-2.335-2.033c-.854.821-1.675,1.642-2.43,2.463l2.53,2.17A33.321,33.321,0,0,1,248.635-156.989Zm-9.917,14.681-3.776-1.381c-.624,1.414-1.314,3.056-1.642,3.943l3.776,1.379C237.5-139.484,238.193-141.089,238.718-142.308Zm23.807,9.26a33.34,33.34,0,0,0,.394,4.137l3.94,1.412a43.236,43.236,0,0,1-.788-4.269Z" fill="#c00" fill-rule="evenodd"/>
    </g>
  </g>
</svg>
