<svg xmlns="http://www.w3.org/2000/svg" width="218.878" height="166.858" viewBox="0 0 218.878 166.858">
  <g id="Group_61786" data-name="Group 61786" transform="translate(-1082 -7750)">
    <rect id="Rectangle_30114" data-name="Rectangle 30114" width="218.878" height="166.858" transform="translate(1082 7750)" fill="none"/>
    <g id="Layer_2" data-name="Layer 2" transform="translate(1133 7760.001)">
      <g id="design" transform="translate(0 -0.001)">
        <circle id="Ellipse_5029" data-name="Ellipse 5029" cx="10.332" cy="10.332" r="10.332" transform="translate(47.983 41.513)" fill="#00d8ff"/>
        <path id="Path_78296" data-name="Path 78296" d="M58.315,93.77c-14.536,0-27.276-1.723-36.832-4.974C8.23,84.256,0,76.906,0,69.6,0,62.565,7.619,55.7,20.39,51.237c10.387-3.611,23.83-5.6,37.926-5.6,13.809,0,27.1,1.949,37.412,5.5,13.088,4.522,20.9,11.426,20.9,18.477,0,7.332-8.518,14.664-22.235,19.223C84.79,92.01,71.971,93.77,58.315,93.77Zm0-42.191c-13.241,0-26.353,1.919-35.97,5.267C11.078,60.787,5.939,66.225,5.939,69.6c0,3.776,6,9.648,17.463,13.571,8.945,3.055,21.019,4.656,34.913,4.656,13.039,0,25.192-1.65,34.217-4.644,12.477-4.124,18.153-9.929,18.153-13.583,0-3.385-5.285-8.847-16.895-12.831C84.088,53.412,71.489,51.579,58.315,51.579Z" transform="translate(0 -17.753)" fill="#00d8ff"/>
        <path id="Path_78297" data-name="Path 78297" d="M49.1,103.872a11.438,11.438,0,0,1-5.792-1.43C37.2,98.929,35.057,88.89,37.586,75.6c2.053-10.766,7.057-23.426,14.09-35.653h0c6.935-12.006,15.275-22.54,23.469-29.671,10.448-9.11,20.335-12.416,26.445-8.9,6.33,3.666,8.456,14.719,5.56,28.858-2.047,9.941-6.935,21.923-13.76,33.74-7.283,12.6-15.141,22.791-22.73,29.42C62.9,100.206,55.153,103.872,49.1,103.872ZM56.827,42.9C50.21,54.38,45.328,66.71,43.422,76.688c-2.23,11.725-.086,18.893,2.847,20.579,3.275,1.894,11.365-.379,20.481-8.353C73.85,82.694,81.28,73.028,88.24,61,94.753,49.718,99.4,38.39,101.321,29.029c2.633-12.831.44-20.689-2.713-22.516-2.927-1.686-10.3.165-19.552,8.218-7.711,6.721-15.605,16.711-22.223,28.162Z" transform="translate(-14.215 0.001)" fill="#00d8ff"/>
        <path id="Path_78298" data-name="Path 78298" d="M95.989,103.951c-5.737,0-12.96-3.422-20.438-9.862C67.272,86.965,58.809,76.315,51.721,64.1h0c-6.935-11.994-11.9-24.471-13.986-35.152C35.083,15.36,37.124,5.12,43.234,1.6c6.348-3.666,16.986,0,27.771,9.593,7.589,6.721,15.526,16.95,22.357,28.767,7.332,12.636,12.22,24.526,14.133,34.382,2.719,13.742.477,24.551-5.86,28.192A11.194,11.194,0,0,1,95.989,103.951Zm-39.1-42.832c6.66,11.487,14.884,21.862,22.565,28.467,9.031,7.784,16.326,9.507,19.259,7.8,3.269-1.882,5.346-10.008,2.994-21.893-1.833-9.22-6.458-20.481-13.442-32.555C81.747,31.656,74.207,21.965,67.1,15.641,57.709,7.3,49.5,4.863,46.234,6.745c-2.933,1.7-5.016,9.019-2.67,21.068,1.967,10.045,6.721,21.874,13.3,33.306Z" transform="translate(-14.236 -0.078)" fill="#00d8ff"/>
        <path id="Path_78299" data-name="Path 78299" d="M43.292,222.221l-6.953-10.314a7.054,7.054,0,0,0,6.605-7.412c0-4.674-3.385-7.735-7.894-7.735H24.9v25.455h3.22V212.066h4.992l6.452,10.155Zm-8.554-12.734H28.12v-9.666h6.617a4.611,4.611,0,0,1,4.992,4.833,4.694,4.694,0,0,1-4.992,4.833Zm20.3,13.21a9.347,9.347,0,0,0,7.253-2.9l-1.448-1.931a8.053,8.053,0,0,1-5.658,2.261,6.4,6.4,0,0,1-6.605-6.446H63.571v-.807c0-5.5-3.22-9.831-8.86-9.831-5.316,0-9.025,4.35-9.025,9.666,0,6.11,3.868,9.99,9.342,9.99Zm5.8-10.8H48.748c.159-2.9,2.1-6.11,5.964-6.11a5.994,5.994,0,0,1,6.116,6.116Zm21.752,10.314V209.652c0-4.509-3.22-6.281-7.088-6.281a9.733,9.733,0,0,0-7.412,3.055l1.289,1.931a7.167,7.167,0,0,1,5.64-2.578c2.737,0,4.674,1.448,4.674,3.868v3.385a7.47,7.47,0,0,0-6.11-2.578c-3.055,0-6.446,1.931-6.446,6.11,0,4.027,3.385,6.11,6.446,6.11a7.943,7.943,0,0,0,6.11-2.578v2.1ZM74.7,220.767c-2.737,0-4.509-1.613-4.509-4.027s1.931-4.027,4.509-4.027a5.92,5.92,0,0,1,4.992,2.255v3.544A6.13,6.13,0,0,1,74.7,220.767ZM96.45,222.7a8.09,8.09,0,0,0,6.77-3.22l-1.931-1.772a5.664,5.664,0,0,1-4.674,2.444c-3.868,0-6.281-3.055-6.281-7.088s2.444-7.088,6.281-7.088a5.456,5.456,0,0,1,4.674,2.444l1.931-1.772a8.09,8.09,0,0,0-6.77-3.281c-5.5,0-9.165,4.192-9.165,9.666S90.987,222.7,96.45,222.7Zm15.465,0a4.7,4.7,0,0,0,3.385-1.13l-.807-2.1a2.444,2.444,0,0,1-1.931.807c-1.289,0-1.931-.965-1.931-2.444V206.426h3.709v-2.578h-3.709v-4.992h-2.9v4.992h-3.055v2.578h3.055v12.086c0,2.737,1.448,4.192,4.192,4.192Z" transform="translate(-9.686 -76.536)" fill="#00d8ff"/>
      </g>
    </g>
  </g>
</svg>
