<svg xmlns="http://www.w3.org/2000/svg" width="218.878" height="166.858" viewBox="0 0 218.878 166.858">
  <g id="Group_110221" data-name="Group 110221" transform="translate(-9764 1889)">
    <rect id="Rectangle_39954" data-name="Rectangle 39954" width="218.878" height="166.858" transform="translate(9764 -1889)" fill="none"/>
    <g id="Group_95675" data-name="Group 95675" transform="translate(9767.81 -1627.604)">
      <g id="Group_95673" data-name="Group 95673">
        <g id="Group_95670" data-name="Group 95670">
          <path id="Path_127779" data-name="Path 127779" d="M73.677-170.274a3.238,3.238,0,0,0,2.891-3.354,3.247,3.247,0,0,0-3.238-3.122h-.116a3.234,3.234,0,0,0-3.122,3.342v.011a3.321,3.321,0,0,0,.925,2.14c-1.966,3.874-4.972,6.707-9.483,9.078a15.637,15.637,0,0,1-9.425,1.792,8.034,8.034,0,0,1-5.9-3.411,8.493,8.493,0,0,1-.463-8.963,13.6,13.6,0,0,1,3.932-4.625c-.231-.752-.578-2.024-.752-2.949-8.384,6.071-7.517,14.282-4.972,18.156,1.908,2.891,5.782,4.683,10.061,4.683a14.227,14.227,0,0,0,3.469-.4A22.188,22.188,0,0,0,73.677-170.274Z" fill="#764abc"/>
        </g>
        <g id="Group_95671" data-name="Group 95671">
          <path id="Path_127780" data-name="Path 127780" d="M83.851-177.44c-4.4-5.146-10.871-7.98-18.272-7.98h-.925a3.177,3.177,0,0,0-2.833-1.734h-.116a3.234,3.234,0,0,0-3.123,3.343v.01a3.25,3.25,0,0,0,3.239,3.123h.115a3.259,3.259,0,0,0,2.833-1.966H65.81a22.04,22.04,0,0,1,12.316,3.758,15.49,15.49,0,0,1,6.129,7.4,8.015,8.015,0,0,1-.115,6.823,8.489,8.489,0,0,1-7.922,4.742,14.794,14.794,0,0,1-5.666-1.214c-.636.578-1.793,1.5-2.6,2.081a17.837,17.837,0,0,0,7.459,1.793c5.551,0,9.656-3.065,11.217-6.13C88.306-166.743,88.19-172.525,83.851-177.44Z" fill="#764abc"/>
        </g>
        <g id="Group_95672" data-name="Group 95672">
          <path id="Path_127781" data-name="Path 127781" d="M54.48-169.287a3.249,3.249,0,0,0,3.238,3.122h.116a3.234,3.234,0,0,0,3.122-3.344v-.01a3.248,3.248,0,0,0-3.238-3.122H57.6a.973.973,0,0,0-.4.058A21.183,21.183,0,0,1,54.2-185.42a15.505,15.505,0,0,1,3.412-8.962c1.676-2.139,4.914-3.18,7.112-3.238,6.129-.116,8.731,7.517,8.9,10.581.752.174,2.024.579,2.891.868-.694-9.368-6.476-14.225-12.027-14.225-5.2,0-10,3.759-11.911,9.31-2.66,7.4-.925,14.513,2.313,20.122A2.6,2.6,0,0,0,54.48-169.287Z" fill="#764abc"/>
        </g>
      </g>
      <g id="Group_95674" data-name="Group 95674">
        <path id="Path_127782" data-name="Path 127782" d="M111.951-169.941h-4.419l-2.593-4.724a4.744,4.744,0,0,0-1-1.363,1.769,1.769,0,0,0-1.175-.4h-1.059v6.489H97.773V-187.4h6.233a7.174,7.174,0,0,1,4.8,1.352,4.538,4.538,0,0,1,1.552,3.6,4.986,4.986,0,0,1-.973,2.988,4.968,4.968,0,0,1-2.727,1.856v.049a3.511,3.511,0,0,1,1.253.9,9.669,9.669,0,0,1,1.23,1.747ZM101.7-184.4v4.954h1.705a2.863,2.863,0,0,0,2.081-.712,2.523,2.523,0,0,0,.731-1.893,2.214,2.214,0,0,0-.682-1.741,3.017,3.017,0,0,0-2.063-.608Z" fill="#764abc"/>
        <path id="Path_127783" data-name="Path 127783" d="M124.112-175.079H115.98a2.812,2.812,0,0,0,.834,1.918,2.738,2.738,0,0,0,1.966.712,2.6,2.6,0,0,0,1.357-.366,3.48,3.48,0,0,0,1.1-1.1l2.824,1.607a6.772,6.772,0,0,1-2.4,2.027,6.708,6.708,0,0,1-2.946.639,6.639,6.639,0,0,1-4.82-1.674,6.194,6.194,0,0,1-1.729-4.669,6.675,6.675,0,0,1,1.8-4.918,6,6,0,0,1,4.431-1.813,5.448,5.448,0,0,1,4.218,1.618,6.978,6.978,0,0,1,1.491,4.87Zm-3.567-2.435a2.909,2.909,0,0,0-.541-1.917,1.812,1.812,0,0,0-1.455-.638,2.3,2.3,0,0,0-1.771.73,3.233,3.233,0,0,0-.822,1.825Z" fill="#764abc"/>
        <path id="Path_127784" data-name="Path 127784" d="M134.959-171.561a4.3,4.3,0,0,1-1.656,1.443,5.2,5.2,0,0,1-2.3.481,4.862,4.862,0,0,1-3.829-1.649,6.732,6.732,0,0,1-1.455-4.609,7.338,7.338,0,0,1,1.6-4.954,5.5,5.5,0,0,1,4.4-1.862,4.2,4.2,0,0,1,1.954.468,3.217,3.217,0,0,1,1.284,1.065h.049V-188.4h3.847v18.456h-3.847v-1.62ZM129.627-176a3.84,3.84,0,0,0,.718,2.5,2.441,2.441,0,0,0,2,.876,2.443,2.443,0,0,0,1.978-.925,3.735,3.735,0,0,0,.761-2.447v-.937a2.82,2.82,0,0,0-.731-1.985,2.483,2.483,0,0,0-1.911-.791,2.437,2.437,0,0,0-2.069.992A4.446,4.446,0,0,0,129.627-176Z" fill="#764abc"/>
        <path id="Path_127785" data-name="Path 127785" d="M153.694-169.953h-3.847v-1.583H149.8a4.161,4.161,0,0,1-1.638,1.369,4.728,4.728,0,0,1-2.112.517,4.06,4.06,0,0,1-3.281-1.314,5.582,5.582,0,0,1-1.113-3.713v-7.742h3.834v7.158a3.2,3.2,0,0,0,.511,1.9,1.749,1.749,0,0,0,1.522.713,2.113,2.113,0,0,0,1.668-.755,2.8,2.8,0,0,0,.657-1.911v-7.105h3.847Z" fill="#764abc"/>
        <path id="Path_127786" data-name="Path 127786" d="M168.144-182.4l-3.871,6.245,3.92,6.221h-4.066l-1.863-3.25c-.073-.13-.15-.275-.232-.433s-.178-.359-.292-.6h-.048c-.081.171-.161.335-.238.494s-.164.327-.261.5l-1.814,3.288h-3.993l3.932-6.209-3.845-6.256h4.018l1.825,3.3c.106.2.2.381.286.56a4.967,4.967,0,0,1,.214.511h.048c.073-.187.15-.366.232-.535s.179-.356.291-.561l1.863-3.274Z" fill="#764abc"/>
      </g>
    </g>
  </g>
</svg>
