<svg xmlns="http://www.w3.org/2000/svg" width="218.88" height="166.86" viewBox="0 0 218.88 166.86">
  <g id="Group_109122" data-name="Group 109122" transform="translate(-999 -12284)">
    <rect id="Rectangle_39528" data-name="Rectangle 39528" width="218.88" height="166.86" transform="translate(999 12284)" fill="none"/>
    <g id="Group_109121" data-name="Group 109121" transform="translate(1179.51 13263.322)">
      <path id="Path_141543" data-name="Path 141543" d="M-87.955-903.81c0-3.618.005-7.237-.008-10.854a.817.817,0,0,1,.464-.825q9.44-5.421,18.859-10.879a.968.968,0,0,1,1.113.015c1.851,1.09,3.721,2.147,5.574,3.235a.717.717,0,0,0,.839,0c2.306-1.348,4.629-2.666,6.93-4.02a.993.993,0,0,1,1.158,0q5.063,2.959,10.156,5.865a.949.949,0,0,1,.564.946q-.034,5.891,0,11.783a.91.91,0,0,1-.525.917c-1.752.99-3.49,2.006-5.233,3.013-.243.14-.558.233-.211.6.081.086.03.3.03.453,0,3.56-.006,7.121.011,10.681a.866.866,0,0,1-.508.862q-9.44,5.422-18.861,10.876a.864.864,0,0,1-1-.011q-9.346-5.41-18.712-10.785a1.128,1.128,0,0,1-.654-1.139C-87.943-896.651-87.955-900.231-87.955-903.81Zm19.14,20.839v-.676q0-9.519.012-19.039a.982.982,0,0,0-.568-1q-8.262-4.733-16.5-9.5c-.177-.1-.361-.193-.619-.331v.615q0,9.607-.011,19.214a.86.86,0,0,0,.522.85q8.282,4.755,16.552,9.534C-69.267-883.209-69.1-883.122-68.816-882.971Zm9.612-25.044c-.287.142-.444.21-.59.294-2.363,1.362-4.72,2.735-7.093,4.081a.861.861,0,0,0-.5.864q.02,9.574.011,19.148c0,.184.022.368.038.622.224-.113.377-.182.522-.266q8.346-4.812,16.695-9.62a.77.77,0,0,0,.445-.776c-.015-2.708-.007-5.416-.01-8.123,0-.182-.021-.365-.038-.648l-9.321,5.8-.16-.066Zm-3.81-14.022c-.216-.139-.354-.235-.5-.32-1.373-.793-2.754-1.573-4.117-2.386a.807.807,0,0,0-.942.006q-8.333,4.831-16.68,9.638c-.142.082-.275.182-.455.3.16.109.265.19.378.256q8.419,4.859,16.833,9.721a.732.732,0,0,0,.844-.033q3.563-2.069,7.137-4.117c.146-.084.282-.183.5-.328l-9.5-5.485c.234-.148.388-.253.549-.346,1.171-.679,2.332-1.378,3.523-2.021a.933.933,0,0,0,.563-1c-.042-.713.023-1.432-.022-2.145a.9.9,0,0,1,.59-.992C-63.882-921.492-63.485-921.762-63.014-922.037Zm10.16,18.474c.152-.068.259-.106.354-.16,2.8-1.611,5.588-3.232,8.393-4.829.344-.2.355-.45.355-.768q-.007-4.639,0-9.276c0-.184-.021-.369-.037-.606a3.563,3.563,0,0,0-.365.155c-2.8,1.61-5.59,3.228-8.4,4.824-.324.184-.335.42-.335.718q.005,4.695,0,9.392C-52.884-903.948-52.866-903.782-52.854-903.563Zm-9.824-16.963c.148.1.225.153.309.2,2.8,1.613,5.6,3.219,8.385,4.846a.729.729,0,0,0,.844-.055q4.064-2.356,8.138-4.7c.143-.082.278-.181.453-.3-.116-.083-.189-.145-.269-.191-2.813-1.624-5.63-3.238-8.435-4.877a.675.675,0,0,0-.787.053q-4.09,2.368-8.186,4.728C-62.357-920.739-62.482-920.651-62.678-920.526Zm8.306,17c.026-.225.049-.335.049-.445,0-3.21-.005-6.419.011-9.628a.688.688,0,0,0-.43-.669q-4.126-2.367-8.246-4.746c-.127-.073-.268-.122-.44-.2-.01.208-.023.36-.023.511,0,1.741.014,3.481-.012,5.221a.8.8,0,0,0,.488.809c1.583.893,3.148,1.819,4.731,2.712a.775.775,0,0,1,.455.779c-.017,1.082-.005,2.166.019,3.248a.735.735,0,0,0,.2.543C-56.547-904.763-55.5-904.177-54.372-903.525Zm.506,1.962-3.836-2.208v4.6ZM-66.644-914.8l1.719.988v-1.985Z" transform="translate(-3.959)"/>
      <path id="Path_141544" data-name="Path 141544" d="M-5.012-872.506c-.216.244-.334.386-.461.518-1.518,1.573-3.03,3.151-4.563,4.71a.473.473,0,0,0-.042.76c1.633,2.111,3.245,4.238,4.864,6.361.126.166.249.334.462.62-.962,0-1.8.017-2.634-.017-.144-.006-.3-.215-.415-.361q-1.887-2.466-3.76-4.941c-.115-.151-.238-.3-.334-.415-.65.621-1.291,1.208-1.9,1.83a.921.921,0,0,0-.159.582c-.016.947-.023,1.9,0,2.843.01.383-.116.517-.5.495a12.261,12.261,0,0,0-1.335,0c-.347.018-.49-.1-.478-.458.021-.58,0-1.16,0-1.741q0-5.076,0-10.153c0-.629,0-.63.642-.632.368,0,.738.025,1.1-.007.43-.038.566.111.56.551-.024,1.74-.01,3.481-.01,5.221v.724c.238-.242.382-.383.52-.529,1.743-1.839,3.495-3.671,5.221-5.526a1.246,1.246,0,0,1,1.059-.443C-6.488-872.484-5.819-872.506-5.012-872.506Z" transform="translate(-11.522 -5.779)"/>
      <path id="Path_141545" data-name="Path 141545" d="M-34.711-859.542c-.776,0-1.469.023-2.157-.019-.147-.009-.336-.229-.409-.394-.569-1.293-1.113-2.6-1.666-3.894-.09-.212-.184-.422-.343-.784-.218.556-.423.978-.547,1.422a.665.665,0,0,1-.785.554c-1.1-.03-2.208.02-3.31-.023a.78.78,0,0,0-.883.606c-.269.725-.608,1.422-.894,2.141a.546.546,0,0,1-.607.4c-.6-.024-1.2-.007-1.881-.007.088-.24.142-.415.216-.582q2.611-5.982,5.219-11.965a.717.717,0,0,1,.823-.526c.5.047,1.11-.128,1.471.107s.479.845.681,1.3q2.4,5.473,4.788,10.95C-34.905-860.048-34.829-859.836-34.711-859.542Zm-8.975-5.2h4.363l-2.111-4.964-.129.015Z" transform="translate(-8.154 -5.767)"/>
      <path id="Path_141546" data-name="Path 141546" d="M-67.1-859.373a8,8,0,0,1-4.945-1.736c-.318-.245-.371-.42-.079-.72.35-.359.61-.981,1-1.07.344-.077.819.428,1.234.679a5.246,5.246,0,0,0,3.154.8,3.829,3.829,0,0,0,1.223-.314,1.344,1.344,0,0,0,.826-1.291,1.261,1.261,0,0,0-.8-1.294c-.64-.266-1.309-.461-1.969-.675-.79-.257-1.6-.453-2.371-.761a3.071,3.071,0,0,1-2.089-2.869A3.517,3.517,0,0,1-70.18-872a5.554,5.554,0,0,1,3.588-.656,7.134,7.134,0,0,1,3.438,1.292c.307.212.363.386.115.689-.318.387-.527,1.03-.911,1.149-.338.1-.851-.364-1.289-.573a4.515,4.515,0,0,0-3.091-.465,1.622,1.622,0,0,0-1.166.875,1.3,1.3,0,0,0,.534,1.761,13.349,13.349,0,0,0,1.889.716c.86.291,1.754.493,2.588.842a3.116,3.116,0,0,1,2.1,3.1,3.54,3.54,0,0,1-2.118,3.384A5.71,5.71,0,0,1-67.1-859.373Z" transform="translate(-5.609 -5.76)"/>
      <path id="Path_141547" data-name="Path 141547" d="M-21.82-869.078a14.541,14.541,0,0,0-1.477-1,4.157,4.157,0,0,0-4.608.219,4.5,4.5,0,0,0-1.754,4.736,4.113,4.113,0,0,0,3,3.5,4.53,4.53,0,0,0,4.376-1.05c.533-.446.537-.442,1.031.059.216.221.424.453.654.659s.271.369.019.608a6.7,6.7,0,0,1-7.295,1.583,6.114,6.114,0,0,1-4.252-5.692,6.369,6.369,0,0,1,3.508-6.539,7.194,7.194,0,0,1,7.838.9c.327.279.374.459.055.772C-21.115-869.927-21.463-869.486-21.82-869.078Z" transform="translate(-9.846 -5.754)"/>
      <path id="Path_141548" data-name="Path 141548" d="M-55.468-864.979c0-1.624-.012-3.248.008-4.871.005-.408-.13-.535-.53-.526-1.005.021-2.012-.008-3.016.013-.408.009-.618-.082-.568-.542.055-.51.065-1.025.095-1.538.5-.021,1-.058,1.495-.06q4.148-.008,8.3,0c.637,0,.638,0,.64.632,0,.348-.02.7.005,1.043.026.361-.122.471-.47.465-.986-.016-1.972-.006-2.959,0-.68,0-.682,0-.682.708q0,4.754,0,9.509c0,.623,0,.623-.642.626-.386,0-.775-.024-1.159.006-.415.033-.526-.133-.522-.531C-55.457-861.694-55.467-863.337-55.468-864.979Z" transform="translate(-6.953 -5.781)"/>
      <path id="Path_141549" data-name="Path 141549" d="M-99.8-859.539c-.487,0-.889-.012-1.292,0-.316.013-.371-.225-.463-.433q-.813-1.829-1.625-3.66c-.076-.171-.165-.336-.267-.545a2.412,2.412,0,0,0-.148.241c-.407.963-.406.963-1.417.963-1.472,0-2.943.011-4.415-.007a.64.64,0,0,0-.7.445c-.359.855-.771,1.689-1.13,2.546a.606.606,0,0,1-.692.453c-.3-.029-.611-.006-1-.006.1-.246.157-.422.234-.592,1.8-3.983,3.615-7.961,5.392-11.955.215-.481.509-.533.945-.53s.727.031.946.525c1.775,4,3.591,7.972,5.393,11.955C-99.963-859.963-99.9-859.786-99.8-859.539Zm-6.521-11.167-.137-.027-2.877,6.413h5.844Z" transform="translate(-1.324 -5.769)"/>
      <path id="Path_141550" data-name="Path 141550" d="M-120.69-859.379a7.382,7.382,0,0,1-4.6-1.773c-.278-.225-.292-.369-.057-.642.6-.706.592-.722,1.346-.152a5.672,5.672,0,0,0,4.016,1.22,4.283,4.283,0,0,0,1.641-.5,1.931,1.931,0,0,0-.142-3.43,21.933,21.933,0,0,0-2.088-.691c-.847-.267-1.722-.464-2.54-.8a2.943,2.943,0,0,1-1.983-2.807A3.255,3.255,0,0,1-123.3-872.1a5.82,5.82,0,0,1,4.735-.261,12.533,12.533,0,0,1,2,1.026c.238.126.248.276.088.51-.573.836-.561.837-1.411.317a5.118,5.118,0,0,0-4-.737,2.053,2.053,0,0,0-1.72,2.321,1.65,1.65,0,0,0,1.044,1.366c.787.314,1.61.536,2.416.8a21.662,21.662,0,0,1,2.464.839,3.3,3.3,0,0,1,.393,5.665A5.544,5.544,0,0,1-120.69-859.379Z" transform="translate(0 -5.757)"/>
      <path id="Path_141551" data-name="Path 141551" d="M-81.33-865.363c0-1.741-.014-3.482.009-5.221.006-.435-.121-.565-.556-.554-1.1.029-2.206,0-3.308.017-.385.007-.5-.122-.492-.5.028-1.029-.069-.88.858-.882q4.325-.009,8.648.005c.225,0,.623.069.644.168a3.4,3.4,0,0,1-.007,1.085c-.006.054-.263.108-.4.11-1.064.009-2.128,0-3.192.005-.7,0-.7,0-.7.679q0,5.134-.006,10.268c0,.21-.074.594-.148.6a5.416,5.416,0,0,1-1.256-.029c-.048-.006-.086-.31-.087-.477C-81.333-861.844-81.33-863.6-81.33-865.363Z" transform="translate(-4.201 -5.78)"/>
      <path id="Path_141552" data-name="Path 141552" d="M-95.389-866.085q0-2.9,0-5.8c0-.615,0-.623.59-.62,1.022.005.895-.106.9.9q.007,5.016,0,10.031c0,.67,0,.672.65.673,2.031,0,4.061.013,6.092-.011.444-.005.606.132.549.558a1.078,1.078,0,0,0,0,.289c.061.437-.124.555-.556.551-2.3-.021-4.6-.01-6.9-.01a7.9,7.9,0,0,0-.811.005c-.42.043-.519-.143-.516-.534C-95.38-862.065-95.388-864.075-95.389-866.085Z" transform="translate(-3.176 -5.781)"/>
    </g>
  </g>
</svg>
