<svg xmlns="http://www.w3.org/2000/svg" width="218.88" height="166.86" viewBox="0 0 218.88 166.86">
  <g id="Group_110432" data-name="Group 110432" transform="translate(-9275.645 -1594.524)">
    <rect id="Rectangle_35573" data-name="Rectangle 35573" width="218.88" height="166.86" transform="translate(9275.645 1594.523)" fill="none"/>
    <g id="Group_110363" data-name="Group 110363" transform="translate(9077.923 1541.285)">
      <g id="Group_110361" data-name="Group 110361">
        <path id="Path_143073" data-name="Path 143073" d="M314.982,127.7l-3.318,2.286c-.07-.079-.134-.14-.185-.21a5.323,5.323,0,0,0-5.659-1.859,2.7,2.7,0,0,0-2.086,1.848,2.613,2.613,0,0,0,1.316,3.075c1.323.643,2.692,1.195,4.053,1.757a18.077,18.077,0,0,1,4.882,2.719,6.115,6.115,0,0,1,2.194,4.527,8.168,8.168,0,0,1-.473,3.506,6.374,6.374,0,0,1-3.882,3.825,12.329,12.329,0,0,1-10.445-.668,8.688,8.688,0,0,1-3.844-4.35l3.365-2.121c.267.41.495.795.756,1.156a6.316,6.316,0,0,0,4.751,2.647,7.3,7.3,0,0,0,2.84-.211,3.163,3.163,0,0,0,2.277-3.947,2.842,2.842,0,0,0-1.159-1.575,12.856,12.856,0,0,0-3.163-1.611,25.972,25.972,0,0,1-4.663-2.1,6.323,6.323,0,0,1-3.043-3.507c-1.061-3.6.139-6.949,3.727-8.448a9.3,9.3,0,0,1,9.7,1.14A18.914,18.914,0,0,1,314.982,127.7Z" fill="#390e0a"/>
        <path id="Path_143074" data-name="Path 143074" d="M353.609,146.078c0,1.078.008,2.12-.012,3.161a.466.466,0,0,1-.265.334,4.414,4.414,0,0,1-3.465-.111c-.594-.3-.837-.619-1.314-1.575-.033,0-.079,0-.1.015a6.937,6.937,0,0,1-4.263,2.006,10.188,10.188,0,0,1-4.961-.382c-3.269-1.193-4.33-4.1-3.418-7.1a5.171,5.171,0,0,1,3.553-3.279,19.527,19.527,0,0,1,4.493-.874,20.085,20.085,0,0,0,2.495-.445,1.54,1.54,0,0,0,1.309-1.453,1.7,1.7,0,0,0-1.13-1.787,5.552,5.552,0,0,0-5.168.528,16.744,16.744,0,0,0-1.772,1.431l-2.624-2.23A8.144,8.144,0,0,1,341.457,131a10.419,10.419,0,0,1,7.242.375,5,5,0,0,1,3.2,4.561c.091,1.888.042,3.783.052,5.675.006,1.046-.014,2.091.016,3.136s.292,1.274,1.348,1.319Zm-5.944-5.258c-.663.212-1.292.469-1.946.61-.737.158-1.495.212-2.244.311a6.929,6.929,0,0,0-2.725.793,1.828,1.828,0,0,0-.739,2.556,2.219,2.219,0,0,0,1.555,1.07,6.642,6.642,0,0,0,3.925-.285,3.235,3.235,0,0,0,2.172-3.167C347.678,142.06,347.665,141.412,347.665,140.82Z" fill="#390f0b"/>
        <path id="Path_143075" data-name="Path 143075" d="M376.7,147.814c-2,2.01-4.458,2.322-7.043,2.179a7.223,7.223,0,0,1-4.187-1.537c-2.6-2.048-2.65-7.307,1.283-9a15.4,15.4,0,0,1,4.274-1.073c1.019-.125,2.034-.275,3.048-.43a3.415,3.415,0,0,0,.667-.21,1.494,1.494,0,0,0,1.063-1.3,1.7,1.7,0,0,0-.739-1.639,3.736,3.736,0,0,0-2.208-.6,5.979,5.979,0,0,0-4.29,1.609l-.809.747-2.643-2.238a7.977,7.977,0,0,1,3.51-2.956,10.247,10.247,0,0,1,8.247.028,4.939,4.939,0,0,1,3.175,4.632c.079,2.719.033,5.441.043,8.163a8.581,8.581,0,0,0,.038.863c.071.67.315.913.987,1,.194.023.391.025.636.04,0,1.075.009,2.134-.013,3.192,0,.11-.173.276-.3.314a4.622,4.622,0,0,1-3.224-.025A2.74,2.74,0,0,1,376.7,147.814Zm-.917-7.14a4.32,4.32,0,0,1-2.17.824c-.655.117-1.323.158-1.983.244a6.516,6.516,0,0,0-2.814.851,1.847,1.847,0,0,0,.013,3.182,2.726,2.726,0,0,0,.885.382,6.659,6.659,0,0,0,3.975-.3,3.1,3.1,0,0,0,2.079-2.662C375.845,142.384,375.778,141.558,375.778,140.674Z" fill="#390e0a"/>
        <path id="Path_143076" data-name="Path 143076" d="M334.722,133.736l-2.672,2.789a6.309,6.309,0,0,0-5.7-1.918,5.1,5.1,0,0,0-3.236,1.791,6.092,6.092,0,0,0,.25,8.085,6.2,6.2,0,0,0,8.689-.4l2.684,2.781a9.657,9.657,0,0,1-4.546,2.812,10.243,10.243,0,0,1-11.084-3.7,9.958,9.958,0,0,1,15.469-12.413C334.616,133.6,334.648,133.649,334.722,133.736Z" fill="#390f0b"/>
        <path id="Path_143077" data-name="Path 143077" d="M362.556,149.828a8.541,8.541,0,0,1-4.537-.147,4.556,4.556,0,0,1-3.191-3.976,10.139,10.139,0,0,1-.123-1.614q-.016-9.788-.015-19.575v-.394h4.368v.555q0,9.221,0,18.44a9.875,9.875,0,0,0,.075,1.239,1.731,1.731,0,0,0,1.818,1.7c.518.029,1.039.005,1.6.005Z" fill="#380e0a"/>
      </g>
      <g id="Group_110362" data-name="Group 110362">
        <path id="Path_143078" data-name="Path 143078" d="M262.173,130.659a1.752,1.752,0,0,1-.092-.395q-.008-5.378,0-10.755c0-.071.013-.142.024-.252.139-.013.277-.035.415-.036a104.839,104.839,0,0,0,13.241-1.093,69.075,69.075,0,0,0,11.755-2.514,19.644,19.644,0,0,0,2.268-.857,18.379,18.379,0,0,0,1.742-1.042v.414c0,3.315-.028,6.63.02,9.944a1.592,1.592,0,0,1-.94,1.6c-.189.1-.374.209-.561.314-1.09.367-2.166.781-3.272,1.091a72.715,72.715,0,0,1-9.488,1.978c-2.881.406-5.762.826-8.654,1.143C266.485,130.429,264.325,130.51,262.173,130.659Z" fill="#dd3423"/>
        <path id="Path_143079" data-name="Path 143079" d="M291.436,142.88a3.281,3.281,0,0,1,.077.5c0,3.389-.007,6.778.013,10.167a1.2,1.2,0,0,1-.684,1.237,29.155,29.155,0,0,1-3.085,1.269,64.611,64.611,0,0,1-10.38,2.275c-3.334.481-6.679.892-10.026,1.268-1.646.185-3.309.222-4.965.324-.085,0-.171,0-.286,0V148.52c.213,0,.423.011.632,0q3.832-.222,7.665-.451a.83.83,0,0,0,.232-.09,3.347,3.347,0,0,0,.413,0c1.564-.18,3.133-.329,4.691-.556,2.075-.3,4.159-.585,6.207-1.025a45.713,45.713,0,0,0,7.006-2A5.12,5.12,0,0,0,291.436,142.88Z" fill="#dd3423"/>
        <path id="Path_143080" data-name="Path 143080" d="M291.484,128.139c.013.2.037.392.037.588,0,3.345-.021,6.69.019,10.034a1.527,1.527,0,0,1-.924,1.541c-.192.1-.374.212-.561.319-.418.143-.838.283-1.255.43a67.772,67.772,0,0,1-12.232,2.774c-2.7.417-5.414.719-8.128,1.005-1.927.2-3.865.29-5.8.433-.157.012-.312.051-.467.078a1.771,1.771,0,0,1-.094-.4q-.006-5.407,0-10.815a.823.823,0,0,1,.013-.122l8.773-.652c1.5-.174,3-.336,4.493-.525a72.765,72.765,0,0,0,10.148-1.967,23.96,23.96,0,0,0,4.82-1.711A2.376,2.376,0,0,0,291.484,128.139Z" fill="#dd3423"/>
        <path id="Path_143081" data-name="Path 143081" d="M262.175,145.341c.155-.027.31-.066.467-.078,1.933-.143,3.871-.23,5.8-.433,2.714-.286,5.431-.588,8.128-1.005a67.772,67.772,0,0,0,12.232-2.774c.417-.147.837-.287,1.255-.43.257.205.5.433.774.612a1.59,1.59,0,0,1,.607,1.647,5.12,5.12,0,0,1-2.49,1.518,45.713,45.713,0,0,1-7.006,2c-2.048.44-4.132.723-6.207,1.025-1.558.227-3.127.376-4.691.556a3.347,3.347,0,0,1-.413,0c-.726-.186-1.456-.357-2.178-.56-1.777-.5-3.554-1-5.321-1.538A4.936,4.936,0,0,1,262.175,145.341Z" fill="#390d09"/>
        <path id="Path_143082" data-name="Path 143082" d="M291.484,128.139a2.376,2.376,0,0,1-1.158,1.01,23.96,23.96,0,0,1-4.82,1.711,72.765,72.765,0,0,1-10.148,1.967c-1.5.189-2.995.351-4.493.525-1.166-.287-2.341-.545-3.5-.869-1.435-.4-2.859-.844-4.277-1.3a5.047,5.047,0,0,1-.919-.522c2.152-.149,4.312-.23,6.455-.465,2.892-.317,5.773-.737,8.654-1.143a72.715,72.715,0,0,0,9.488-1.978c1.106-.31,2.182-.724,3.272-1.091.291.207.6.391.868.624A1.586,1.586,0,0,1,291.484,128.139Z" fill="#390e0a"/>
      </g>
    </g>
  </g>
</svg>
