<svg xmlns="http://www.w3.org/2000/svg" width="218.878" height="166.858" viewBox="0 0 218.878 166.858">
  <g id="Group_110600" data-name="Group 110600" transform="translate(-1080 -1233)">
    <g id="Group_110252" data-name="Group 110252" transform="translate(-8896 3122)">
      <rect id="Rectangle_39955" data-name="Rectangle 39955" width="218.878" height="166.858" transform="translate(9976 -1889)" fill="none"/>
    </g>
    <g id="Group_110503" data-name="Group 110503" transform="translate(1067.646 1215.79)">
      <g id="Group_110502" data-name="Group 110502" transform="translate(36.354 83.21)">
        <path id="Path_143655" data-name="Path 143655" d="M67.678,96.245,64.14,97.414c-.309.1-.621.2-.931.293a1.341,1.341,0,0,1-.19-.09,7.144,7.144,0,0,0-1.754-.939.443.443,0,0,0-.592.17c-.454.67-.928,1.326-1.384,2-1.034,1.518-2.057,3.044-3.094,4.559-.2.286-.438.539-.659.808l-.318-.05-1.871-.32a.484.484,0,0,1,.076-.528c.737-1.076,1.466-2.158,2.2-3.239q1.293-1.9,2.583-3.808c.154-.229.134-.345-.11-.447a3.333,3.333,0,0,0-.494-.089,6.726,6.726,0,0,0-2.055.044,7.936,7.936,0,0,1-1.2.081,6.06,6.06,0,0,1-1.191-.289q-2.689-.8-5.373-1.618c-1.606-.485-3.21-.974-4.818-1.454-.415-.123-.837-.224-1.256-.335.166-.266.329-.533.5-.8.1-.151.213-.293.319-.44.163-.119.329-.235.486-.361a7.685,7.685,0,0,1,2.8-1.325c.749-.119,1.495-.3,2.248-.345a15.655,15.655,0,0,1,3.559.144c1.045.174,2.076.426,3.114.644.028.022.053.057.084.064a32.62,32.62,0,0,1,5.162,1.931q.778.356,1.554.712a1.342,1.342,0,0,0,.192.155c.875.49,1.769.949,2.627,1.469,1.042.632,2.056,1.31,3.078,1.975A1.5,1.5,0,0,1,67.678,96.245Z" transform="translate(-35.116 -81.906)" fill="#538bc9"/>
        <path id="Path_143656" data-name="Path 143656" d="M174.71,95.657a2.9,2.9,0,0,0-3.9-1.586,1.334,1.334,0,0,0-.815,1.667,1.107,1.107,0,0,0,.576.721,12,12,0,0,0,1.571.662,15.739,15.739,0,0,1,3.249,1.279,4.181,4.181,0,0,1,1.678,1.581,4.321,4.321,0,0,1-1.223,5.313,5.3,5.3,0,0,1-2.551,1,7.7,7.7,0,0,1-3.328-.206,5.586,5.586,0,0,1-3.455-2.731,1.5,1.5,0,0,1-.151-.33.231.231,0,0,1,.06-.2c.826-.437,1.657-.863,2.506-1.3a3.471,3.471,0,0,0,1.162,1.418,3.375,3.375,0,0,0,3.559.281,1.285,1.285,0,0,0,.76-1.161,1.114,1.114,0,0,0-.569-1.067,8.646,8.646,0,0,0-2.116-.874,11.473,11.473,0,0,1-2.982-1.25,4,4,0,0,1-.422-6.481,5.792,5.792,0,0,1,4.57-1.274,5.191,5.191,0,0,1,3.442,1.722,10.258,10.258,0,0,1,.816,1.244c.076.121.057.213-.087.291C176.286,94.79,175.52,95.213,174.71,95.657Z" transform="translate(-6.296 -81.395)" fill="#595a5c"/>
        <path id="Path_143657" data-name="Path 143657" d="M41.813,91.537c.419.111.841.212,1.256.335,1.608.48,3.212.969,4.818,1.454q2.687.811,5.373,1.618a6.06,6.06,0,0,0,1.191.289,7.936,7.936,0,0,0,1.2-.081,6.726,6.726,0,0,1,2.055-.044,3.333,3.333,0,0,1,.494.089c.244.1.263.218.11.447q-1.289,1.906-2.583,3.808c-.731,1.081-1.46,2.163-2.2,3.239a.484.484,0,0,0-.076.528c-.276-.022-.553-.065-.829-.064-.348,0-.7.038-1.047.069a6.027,6.027,0,0,0-.9.111c-.666.164-1.324.36-1.985.543a2.4,2.4,0,0,1,.151-.469c.124-.219.291-.415.433-.624q1.577-2.323,3.153-4.645c.475-.7.955-1.395,1.423-2.1a.907.907,0,0,0,.063-.331,1.052,1.052,0,0,0-.327-.009c-.693.212-1.383.433-2.072.659-.431.14-.859.292-1.289.438a2.06,2.06,0,0,0-.245.05c-.55.172-1.1.344-1.65.526-.42.14-.834.3-1.25.446a1.462,1.462,0,0,0-.212.034c-.7.224-1.393.457-2.093.671a4.044,4.044,0,0,1-.6.094,6.555,6.555,0,0,1-2.828-4.005A4.174,4.174,0,0,1,41.813,91.537Z" transform="translate(-35.222 -81.285)" fill="#4c81c1"/>
        <path id="Path_143658" data-name="Path 143658" d="M108.557,98.618a7.97,7.97,0,0,1-6.088,7.721,7.848,7.848,0,1,1,5.813-9.589C108.427,97.36,108.469,98,108.557,98.618Zm-7.577,6.546a6.1,6.1,0,0,0,4.649-2.506,6.371,6.371,0,0,0,1.095-5.67A6.149,6.149,0,0,0,95.78,94.723a6.387,6.387,0,0,0-.75,6.439A6.2,6.2,0,0,0,100.98,105.165Z" transform="translate(-23.267 -81.451)" fill="#5a5b5d"/>
        <path id="Path_143659" data-name="Path 143659" d="M135.471,98.722q0-3.594,0-7.187c0-.459-.047-.421.4-.421,1.718,0,3.435-.017,5.153.022a7.481,7.481,0,0,1,3.584,1,6.384,6.384,0,0,1,2.994,3.759,9.3,9.3,0,0,1,.049,5.531,6.5,6.5,0,0,1-5.036,4.664,9.188,9.188,0,0,1-2.209.24c-1.535,0-3.071,0-4.6,0-.33,0-.332,0-.332-.344Q135.47,102.352,135.471,98.722Zm1.487.039h-.05q0,2.955,0,5.911c0,.329,0,.331.335.331.975,0,1.95.017,2.924-.006a9.645,9.645,0,0,0,1.633-.151,5.291,5.291,0,0,0,4.3-3.756,7.957,7.957,0,0,0,.145-4.322,5.166,5.166,0,0,0-3.22-3.788,7.129,7.129,0,0,0-2.749-.491c-.987,0-1.974,0-2.961,0-.351,0-.353,0-.353.361Q136.958,95.805,136.958,98.762Z" transform="translate(-13.437 -81.383)" fill="#5a5b5d"/>
        <path id="Path_143660" data-name="Path 143660" d="M53.963,90.985c-1.038-.218-2.068-.47-3.114-.644A15.655,15.655,0,0,0,47.29,90.2c-.754.048-1.5.225-2.248.345a1.754,1.754,0,0,1,.084-.382q.838-1.767,1.693-3.529c.291-.6.608-1.184.888-1.788a6.4,6.4,0,0,0,.255-.815c.621-.188,1.235-.408,1.864-.559a13.478,13.478,0,0,1,3.983-.207,17.448,17.448,0,0,1,3.74.653,4.77,4.77,0,0,0-.762,1.293c-.153.3-.278.618-.428.921Q55.165,88.56,53.963,90.985Z" transform="translate(-34.345 -83.21)" fill="#90c3e7"/>
        <path id="Path_143661" data-name="Path 143661" d="M52.288,90.853q1.2-2.427,2.395-4.856c.15-.3.276-.619.428-.921a4.77,4.77,0,0,1,.762-1.293,28.9,28.9,0,0,1,4.365,1.479c.915.392,1.811.825,2.714,1.244a3.281,3.281,0,0,1,.307.186,1.788,1.788,0,0,0-.526.76c-.209.451-.421.9-.64,1.347-.755,1.535-1.516,3.069-2.267,4.607-.1.211-.212.273-.424.159-.095-.05-.208-.167-.314,0q-.778-.355-1.554-.712a32.62,32.62,0,0,0-5.162-1.931C52.341,90.909,52.316,90.875,52.288,90.853Z" transform="translate(-32.67 -83.078)" fill="#86bce5"/>
        <path id="Path_143662" data-name="Path 143662" d="M154.8,101.685c.167.292.294.557.459.794a1.988,1.988,0,0,0,1.965.868,1.753,1.753,0,0,0,1.546-1.718c.006-.108,0-.218,0-.327q0-4.837,0-9.672c0-.419-.038-.377.366-.377q1.152,0,2.3,0c.437,0,.4-.047.4.385q0,4.946,0,9.89a5.1,5.1,0,0,1-.181,1.55,4.389,4.389,0,0,1-3.535,3.113,5.69,5.69,0,0,1-3.062-.192,4.589,4.589,0,0,1-2.757-2.7c-.062-.142-.044-.217.091-.292C153.194,102.576,153.988,102.132,154.8,101.685Z" transform="translate(-9.552 -81.351)" fill="#595a5c"/>
        <path id="Path_143663" data-name="Path 143663" d="M62.148,108.969a.05.05,0,0,1-.022.047l-.054.094a4.564,4.564,0,0,1-1.123,1.69c-.355-.117-.705-.249-1.064-.348-1.347-.374-2.7-.74-4.047-1.108q-1.762-.48-3.525-.957-2.2-.6-4.4-1.2l-3.631-.985c-1.477-.4-2.955-.8-4.43-1.212-.357-.1-.7-.238-1.053-.357l.587-.289c.6-.179,1.2-.348,1.8-.537.478-.151.95-.323,1.425-.486l.875-.222c.03.047.052.124.091.135,1.07.291,2.142.569,3.212.858q3.212.868,6.421,1.745,2.024.552,4.047,1.106,1.865.512,3.732,1.022c.406.111.815.213,1.224.319Z" transform="translate(-35.788 -78.611)" fill="#2e5391"/>
        <path id="Path_143664" data-name="Path 143664" d="M57.811,93.013c.106-.163.219-.046.314,0,.212.115.323.052.424-.159.751-1.538,1.512-3.072,2.267-4.607.219-.447.431-.9.64-1.347a1.788,1.788,0,0,1,.526-.76c.219.119.433.247.656.358a40.429,40.429,0,0,1,5.488,3.367.737.737,0,0,1,.073.075c-.33.553-.664,1.114-1,1.674Q65.706,94.1,64.21,96.583a2.147,2.147,0,0,1-.255.288,1.5,1.5,0,0,0-.246-.26c-1.022-.665-2.036-1.343-3.078-1.975-.858-.52-1.752-.979-2.627-1.469A1.342,1.342,0,0,1,57.811,93.013Z" transform="translate(-31.393 -82.532)" fill="#7bb6e2"/>
        <path id="Path_143665" data-name="Path 143665" d="M79.03,104.5,79.9,103.4c.172.142.326.275.488.4a5.5,5.5,0,0,0,3.951,1.213,2.644,2.644,0,0,0,2.38-1.612,2.417,2.417,0,0,0-.805-2.966,10.524,10.524,0,0,0-1.629-.962c-.922-.464-1.875-.868-2.795-1.337a4.964,4.964,0,0,1-1.035-.74,3.575,3.575,0,0,1-.082-5.159A4.722,4.722,0,0,1,83.336,90.8,5.983,5.983,0,0,1,87.7,91.866c.089.064.175.132.26.2.057.044.11.094.183.159l-.728,1.256-.293-.22a4.683,4.683,0,0,0-4.331-.874,2.773,2.773,0,0,0-1.6,1.252,2.143,2.143,0,0,0,.425,2.808,6.592,6.592,0,0,0,1.748,1.044c.611.271,1.226.531,1.837.8a8.782,8.782,0,0,1,1.818,1.072,3.924,3.924,0,0,1-.243,6.232,4.825,4.825,0,0,1-2.454.85,6.585,6.585,0,0,1-5.1-1.75C79.159,104.645,79.105,104.581,79.03,104.5Z" transform="translate(-26.487 -81.468)" fill="#5a5b5d"/>
        <path id="Path_143666" data-name="Path 143666" d="M39.369,104.348c.351.119.7.259,1.053.357,1.475.411,2.952.809,4.43,1.212l3.631.985q2.2.6,4.4,1.2,1.764.478,3.525.957c1.349.368,2.7.734,4.047,1.108.358.1.709.231,1.064.348a5.256,5.256,0,0,1-.5.451,5.354,5.354,0,0,1-1.676.973c0-.155-.107-.192-.236-.227-.548-.145-1.093-.3-1.639-.449-2.418-.669-4.834-1.344-7.253-2.006-1.768-.483-3.542-.941-5.311-1.421-2.061-.558-4.116-1.131-6.177-1.688a4.789,4.789,0,0,0-1.7-.334l-.653-.448-.016-.153h0a2.213,2.213,0,0,0,.388-.054c.565-.179,1.124-.376,1.689-.553C38.74,104.5,39.057,104.432,39.369,104.348Z" transform="translate(-36.354 -78.323)" fill="#294c89"/>
        <path id="Path_143667" data-name="Path 143667" d="M52.939,102.749c.22-.268.463-.522.659-.808,1.037-1.516,2.06-3.041,3.094-4.559.456-.67.93-1.326,1.384-2a.443.443,0,0,1,.592-.17,7.144,7.144,0,0,1,1.754.939,1.341,1.341,0,0,0,.19.09c.188.174.378.346.565.521.094.089.182.183.272.276a1.874,1.874,0,0,0-.347.227,2.835,2.835,0,0,0-.329.432c-.843,1.239-1.679,2.482-2.526,3.719-.689,1.006-1.39,2-2.086,3.008a.414.414,0,0,1-.137-.042,9.652,9.652,0,0,0-2.365-1.321C53.418,102.965,53.179,102.855,52.939,102.749Z" transform="translate(-32.519 -80.445)" fill="#4b81c2"/>
        <path id="Path_143668" data-name="Path 143668" d="M112.773,98.643q0-3.631,0-7.263c0-.31,0-.312.32-.313.279,0,.56,0,.841,0,.305,0,.305,0,.308.324v.11q-.018,5.256-.038,10.512c0,.852-.015,1.7-.02,2.555,0,.358,0,.361.355.361h6.29c.085,0,.17,0,.255,0,.123,0,.174.05.172.174q-.007.493,0,.986c0,.132-.069.166-.183.161-.06,0-.122,0-.182,0h-7.861c-.392,0-.366.044-.366-.379V98.643Z" transform="translate(-18.71 -81.394)" fill="#5a5b5d"/>
        <path id="Path_143669" data-name="Path 143669" d="M39.369,105.941c-.313.084-.629.156-.938.254-.565.177-1.124.374-1.689.553a2.213,2.213,0,0,1-.388.054c.432-.787.858-1.576,1.3-2.359.99-1.77,1.99-3.535,2.976-5.307a.853.853,0,0,1,.533-.441c1.236-.385,2.467-.792,3.7-1.189a2.047,2.047,0,0,1,.213-.047c.113.156.05.276-.049.421-.837,1.214-1.663,2.434-2.493,3.653s-1.65,2.413-2.465,3.627c-.091.137-.249.291-.107.491Z" transform="translate(-36.354 -79.916)" fill="#3b68b2"/>
        <path id="Path_143670" data-name="Path 143670" d="M36.9,105.538a4.789,4.789,0,0,1,1.7.334c2.061.557,4.116,1.13,6.177,1.688,1.769.48,3.543.938,5.311,1.421,2.419.661,4.835,1.337,7.253,2.006.545.151,1.091.3,1.639.449.129.034.235.071.236.227a7.927,7.927,0,0,1-2.339.593c-.086-.066-.164-.167-.261-.2q-.918-.275-1.844-.523c-2.038-.548-4.078-1.087-6.115-1.638-2.06-.559-4.116-1.129-6.176-1.692-.558-.151-1.12-.287-1.677-.441-.121-.033-.158,0-.164.106-.4-.223-.809-.428-1.194-.673C38.586,106.655,37.745,106.093,36.9,105.538Z" transform="translate(-36.228 -78.05)" fill="#274883"/>
        <path id="Path_143671" data-name="Path 143671" d="M55.556,104.077c.7-1,1.4-2,2.086-3.008.847-1.237,1.683-2.481,2.526-3.719a2.835,2.835,0,0,1,.329-.432,1.874,1.874,0,0,1,.347-.227,6.305,6.305,0,0,1,1.678,2.264,1.527,1.527,0,0,0-.233.22q-1.045,1.524-2.082,3.055c-.788,1.159-1.577,2.317-2.358,3.481-.1.15-.187.286-.393.262-.392-.4-.779-.81-1.176-1.208C56.046,104.529,55.8,104.306,55.556,104.077Z" transform="translate(-31.914 -80.094)" fill="#4578bc"/>
        <path id="Path_143672" data-name="Path 143672" d="M126.272,91.114c.433,0,.846,0,1.257,0,.135,0,.208.037.195.183a2.169,2.169,0,0,0,0,.219q-.018,7.171-.038,14.34a2.169,2.169,0,0,0,0,.219c.017.181-.041.265-.244.256-.34-.016-.682-.012-1.023,0-.182,0-.238-.071-.222-.239.007-.084,0-.17,0-.255q.028-7.169.058-14.34C126.256,91.378,126.265,91.26,126.272,91.114Z" transform="translate(-15.582 -81.383)" fill="#5a5b5d"/>
        <path id="Path_143673" data-name="Path 143673" d="M57.1,105.548c.206.023.292-.112.393-.262.781-1.163,1.57-2.322,2.358-3.481q1.04-1.529,2.082-3.055a1.527,1.527,0,0,1,.233-.22,4.411,4.411,0,0,1-.064,4.089c-.7,1.328-1.464,2.627-2.2,3.937q-.883,1.57-1.769,3.137c-.065.115-.143.222-.214.332l.064-.682a.881.881,0,0,0,.066-.229c.009-.292.02-.584,0-.874a4.153,4.153,0,0,0-.654-2.036Z" transform="translate(-31.557 -79.668)" fill="#4171b8"/>
        <path id="Path_143674" data-name="Path 143674" d="M39.291,105.841c-.142-.2.016-.355.107-.491.815-1.214,1.641-2.419,2.465-3.627s1.656-2.439,2.493-3.653c.1-.145.163-.265.049-.421l.244-.211a4.044,4.044,0,0,0,.6-.094c.7-.214,1.395-.447,2.093-.671a1.462,1.462,0,0,1,.212-.034c.217.1.148.254.059.39-.159.241-.336.47-.5.71q-1.5,2.2-2.987,4.4c-.515.758-1.034,1.514-1.543,2.277-.075.114-.252.233-.075.4-.474.164-.947.335-1.425.486C40.49,105.493,39.889,105.663,39.291,105.841Z" transform="translate(-35.688 -80.106)" fill="#3f6eb6"/>
        <path id="Path_143675" data-name="Path 143675" d="M39.933,107.454c.006-.108.043-.139.164-.106.557.154,1.119.289,1.677.441,2.06.563,4.116,1.133,6.176,1.692,2.038.55,4.078,1.09,6.115,1.638q.925.247,1.844.523c.1.028.175.129.261.2-.287.043-.573.108-.861.126a18.535,18.535,0,0,1-4.288-.233,30.3,30.3,0,0,1-7.625-2.483c-1.125-.523-2.214-1.122-3.318-1.688A.985.985,0,0,1,39.933,107.454Z" transform="translate(-35.526 -77.632)" fill="#264680"/>
        <path id="Path_143676" data-name="Path 143676" d="M48.579,83.875a6.4,6.4,0,0,1-.255.815c-.279.6-.6,1.189-.888,1.788q-.855,1.76-1.693,3.529a1.754,1.754,0,0,0-.084.382,7.685,7.685,0,0,0-2.8,1.325c-.158.126-.324.241-.486.361.259-.463.508-.932.777-1.39.875-1.5,1.737-3,2.643-4.479A5.275,5.275,0,0,1,48.579,83.875Z" transform="translate(-34.963 -83.057)" fill="#88bee5"/>
        <path id="Path_143677" data-name="Path 143677" d="M36.355,105.048l.016.153Z" transform="translate(-36.354 -78.161)" fill="#3b68b2"/>
        <path id="Path_143678" data-name="Path 143678" d="M57.7,108l.054-.094Z" transform="translate(-31.418 -77.501)" fill="#4171b8"/>
        <path id="Path_143679" data-name="Path 143679" d="M59.517,104.983l.294.656c-.315-.084-.629-.165-.943-.251-1.28-.352-2.558-.709-3.84-1.056q-1.851-.5-3.706-.994-2.273-.6-4.547-1.209c-.052-.014-.087-.091-.131-.139l.805-.294c.661-.183,1.319-.379,1.985-.543a6.027,6.027,0,0,1,.9-.111c.348-.031.7-.065,1.047-.069.276,0,.553.042.829.064l1.871.32.318.05c.24.106.479.215.72.316a9.652,9.652,0,0,1,2.365,1.321.414.414,0,0,0,.137.042c.243.229.49.452.725.688C58.738,104.173,59.126,104.58,59.517,104.983Z" transform="translate(-33.975 -79.104)" fill="#3865a5"/>
        <path id="Path_143680" data-name="Path 143680" d="M47.972,103.1l-.805.294c-.437.133-.874.268-1.314.4-.463.138-.926.27-1.39.405-.176-.171,0-.289.076-.4q1.3-1.934,2.619-3.859,1.191-1.747,2.389-3.492c.1-.15.166-.3-.039-.426.43-.147.858-.3,1.289-.438.689-.225,1.379-.447,2.072-.659a1.051,1.051,0,0,1,.327.009.907.907,0,0,1-.063.331c-.468.7-.948,1.4-1.423,2.1Q50.133,99.681,48.557,102c-.143.209-.309.405-.433.624A2.4,2.4,0,0,0,47.972,103.1Z" transform="translate(-34.497 -80.506)" fill="#4679bd"/>
        <path id="Path_143681" data-name="Path 143681" d="M50.1,95.809c.206.124.142.276.039.426q-1.193,1.747-2.389,3.492-1.313,1.926-2.619,3.859c-.076.113-.252.231-.076.4-.257.1-.512.2-.772.289-.5.174-1,.341-1.5.511l-.875.222c-.177-.17,0-.288.075-.4.508-.762,1.028-1.518,1.543-2.277q1.492-2.2,2.987-4.4c.163-.24.34-.469.5-.71.089-.137.158-.291-.059-.39.416-.149.83-.305,1.25-.446.548-.182,1.1-.353,1.65-.526A2.06,2.06,0,0,1,50.1,95.809Z" transform="translate(-35.087 -80.297)" fill="#4374b9"/>
        <path id="Path_143682" data-name="Path 143682" d="M42.606,103.4c.5-.17,1-.337,1.5-.511.26-.09.515-.192.772-.289.464-.135.927-.267,1.39-.405.44-.131.877-.266,1.314-.4.043.048.079.126.131.139q2.272.609,4.547,1.209,1.854.493,3.706.994c1.282.347,2.56.7,3.84,1.056.314.086.628.167.943.251a4.153,4.153,0,0,1,.654,2.036c.02.291.009.582,0,.874a.881.881,0,0,1-.066.229c-.409-.106-.818-.208-1.224-.319q-1.867-.508-3.732-1.022-2.022-.554-4.047-1.106-3.21-.874-6.421-1.745c-1.07-.289-2.142-.568-3.212-.858C42.658,103.528,42.636,103.45,42.606,103.4Z" transform="translate(-34.908 -78.913)" fill="#335c9c"/>
      </g>
    </g>
  </g>
</svg>
