<svg xmlns="http://www.w3.org/2000/svg" width="218.88" height="166.86" viewBox="0 0 218.88 166.86">
  <g id="Group_110413" data-name="Group 110413" transform="translate(-9321 -2789)">
    <rect id="Rectangle_39964" data-name="Rectangle 39964" width="218.88" height="166.86" transform="translate(9321 2789)" fill="none"/>
    <path id="Path_127176" data-name="Path 127176" d="M70.8,87.525c-3.413-.413-3.661-4.955-8.009-4.569-2.119,0-4.074.881-4.074,2.838,0,2.918,4.514,3.193,7.238,3.937,4.654,1.4,9.139,2.367,9.139,7.4,0,6.413-5.009,8.615-11.643,8.615-5.588,0-11.2-1.955-11.2-7.047a2.7,2.7,0,0,1,2.67-2.532,2.757,2.757,0,0,1,2.838,1.872c1.294,2.258,2.724,3.469,6.3,3.469,2.258,0,4.6-.854,4.6-2.838,0-2.807-2.863-3.413-5.808-4.074-5.232-1.46-9.718-2.2-10.242-8.006C52.053,76.714,72.643,76.328,73.83,85A2.8,2.8,0,0,1,70.8,87.525Zm24.5-8.671c7.24,0,11.341,6.056,11.341,13.516,0,7.492-3.991,13.514-11.341,13.514a9.565,9.565,0,0,1-8.477-4.4v9.882c0,2.973-.964,4.4-3.139,4.4-2.643,0-3.137-1.679-3.137-4.4V82.6c0-2.339.991-3.771,3.137-3.771,2.009,0,3.139,1.6,3.139,3.771v.795C88.883,80.836,91.223,78.854,95.3,78.854Zm-1.7,21.883c4.238,0,6.139-3.909,6.139-8.478,0-4.46-1.93-8.478-6.139-8.478-4.4,0-6.441,3.632-6.441,8.478,0,4.707,2.06,8.478,6.437,8.478ZM111.564,85.9c0-5.2,5.973-7.047,11.781-7.047,8.148,0,11.505,2.368,11.505,10.24v7.57c0,1.789,1.1,5.367,1.1,6.441a2.881,2.881,0,0,1-3.069,2.679l-.07-.006c-1.79,0-3.139-2.119-4.074-3.632a14.507,14.507,0,0,1-9.745,3.632c-4.734,0-8.477-2.807-8.477-7.4,0-4.074,2.917-6.441,6.441-7.238,0,.027,11.341-2.671,11.341-2.7,0-3.468-1.24-5.009-4.9-5.009-3.22,0-4.872.881-6.137,2.838-1.022,1.46-.881,2.341-2.838,2.341A2.811,2.811,0,0,1,111.564,85.9Zm9.689,15.608c4.955,0,7.047-2.611,7.047-7.845v-1.1c-1.35.44-6.744,1.789-8.2,2.009a3.557,3.557,0,0,0-3.137,3.3A4.191,4.191,0,0,0,121.253,101.508ZM157.725,69c7.018,0,14.588,4.184,14.588,10.845a3.05,3.05,0,0,1-2.961,3.137h-.011c-2.285,0-2.611-1.238-3.632-2.973-1.679-3.11-3.689-5.175-8.01-5.175-6.716-.056-9.716,5.7-9.716,12.854,0,7.212,2.505,12.415,9.442,12.415,4.624,0,7.157-2.67,8.478-6.139.522-1.6,1.486-3.137,3.468-3.137a3.423,3.423,0,0,1,3.139,3.3c0,7.047-7.212,11.946-14.617,11.946-8.12,0-12.713-3.44-15.222-9.139A21.563,21.563,0,0,1,140.66,87.5c-.083-10.928,6.3-18.5,17.066-18.5Zm40.1,9.854a2.684,2.684,0,0,1,2.848,2.512,2.606,2.606,0,0,1-.01.461,15.407,15.407,0,0,1-.795,2.973l-8.617,22.654c-1.93,4.926-3.358,8.312-9.881,8.312-3.11,0-5.808-.275-5.808-2.973,0-1.569,1.184-2.339,2.838-2.339.3,0,.795.137,1.1.137.468,0,.795.137,1.1.137,3.276,0,3.746-3.358,4.9-5.675l-8.312-20.589a7.352,7.352,0,0,1-.795-2.532,3.127,3.127,0,0,1,3.11-3.143c.064,0,.128,0,.193.006,2.119,0,2.944,1.652,3.468,3.468l5.505,16.345L194.179,83.5C194.939,81.222,195.022,78.854,197.829,78.854Z" transform="translate(9303.921 2780.221)" fill="#09a3d5"/>
  </g>
</svg>
