<svg xmlns="http://www.w3.org/2000/svg" xmlns:xlink="http://www.w3.org/1999/xlink" width="218.878" height="166.858" viewBox="0 0 218.878 166.858">
  <defs>
    <linearGradient id="linear-gradient" x1="-725.507" y1="-544.255" x2="-724.913" y2="-544.641" gradientUnits="objectBoundingBox">
      <stop offset="0" stop-color="#909ca9"/>
      <stop offset="1" stop-color="#ededee"/>
    </linearGradient>
    <linearGradient id="linear-gradient-2" x1="-1334.153" y1="-1562.967" x2="-1333.271" y2="-1562.967" gradientUnits="objectBoundingBox">
      <stop offset="0" stop-color="#939fab"/>
      <stop offset="1" stop-color="#dcdee1"/>
    </linearGradient>
    <radialGradient id="radial-gradient" cx="0.446" cy="0.424" r="0.073" gradientUnits="objectBoundingBox">
      <stop offset="0" stop-color="#ee352c"/>
      <stop offset="1" stop-color="#a91d22"/>
    </radialGradient>
  </defs>
  <g id="Group_61803" data-name="Group 61803" transform="translate(-154 -8705)">
    <rect id="Rectangle_30118" data-name="Rectangle 30118" width="218.878" height="166.858" transform="translate(154 8705)" fill="none"/>
    <g id="ms-sql" transform="translate(184.075 8724.002)">
      <g id="Group_60908" data-name="Group 60908" transform="translate(57.552 -0.002)">
        <path id="Path_78142" data-name="Path 78142" d="M-125.887,99.006l-17.677,5.749-15.378,6.755-4.312,1.15c-1.15,1.006-2.3,2.156-3.449,3.162-1.293,1.15-2.587,2.3-3.593,3.018a19.572,19.572,0,0,0-3.449,3.449,21.187,21.187,0,0,0-2.587,4.312,7.325,7.325,0,0,0,1.006,6.611c1.868,2.731,5.461,5.318,9.629,7.186a58.5,58.5,0,0,0,8.479,2.874,105.72,105.72,0,0,0,18.108,2.587h2.3a17.194,17.194,0,0,0,1.725-3.306,86.774,86.774,0,0,0,6.324-16.528,67.168,67.168,0,0,0,1.581-11.5,57.524,57.524,0,0,0,0-7.042,40.357,40.357,0,0,0-.719-6.324v-.575a11.461,11.461,0,0,1,2.443-.719l-.431-.862Zm-4.024,2.443a48.355,48.355,0,0,1,.719,6.611v.862c-.144,0-2.3-1.293-3.737-2.156l-4.311-2.874c-.144-.144-.144-.144,1.006-.431C-134.367,102.743-130.055,101.449-129.911,101.449Zm-8.91,2.874a3.591,3.591,0,0,1,1.15.575,86.008,86.008,0,0,0,8.048,4.455c.431.144.575.144-.575.862a49.126,49.126,0,0,1-9.2,4.886,6.851,6.851,0,0,0-1.15.575,2.516,2.516,0,0,1,.144-.719,38.955,38.955,0,0,0,1.437-9.342c0-1.293,0-1.293.144-1.293Zm-1.868.719a18.948,18.948,0,0,1-.144,3.88,27.587,27.587,0,0,1-1.293,5.749l-.287.862s-1.868-1.725-2.443-2.443A17.688,17.688,0,0,1-147.3,109.5a11.368,11.368,0,0,1-.719-1.868c.288.144,7.33-2.587,7.33-2.587Zm-8.767,3.449h0a2.067,2.067,0,0,0,.288.431,27.443,27.443,0,0,0,2.156,4.024A34.442,34.442,0,0,0-144,116.252c.287.287.575.575.719.575.144.144.144,0-2.012.862-2.587,1.006-5.318,1.868-8.479,2.874-.719.287-1.437.431-2.3.719-.144,0-.144,0,.287-.575a81.356,81.356,0,0,0,5.318-10.635,4.229,4.229,0,0,0,.431-1.293.309.309,0,0,1,.287-.287Zm-2.587,1.15a27.559,27.559,0,0,1-1.293,2.731c-1.293,2.587-2.731,5.03-4.6,8.048-.287.575-.575,1.006-.719,1.006,0,.144-.144,0-.287-.287a10.215,10.215,0,0,1-1.006-3.162,18.827,18.827,0,0,1,0-4.024c.144-.862.144-.862.575-1.006a78.3,78.3,0,0,1,7.33-3.305Zm22.995.862v.575a78.935,78.935,0,0,1-.719,10.06,4.593,4.593,0,0,0-.144,1.006l-.862-.287a37.678,37.678,0,0,1-6.18-2.587c-1.293-.719-3.162-1.868-3.162-1.868s.575-.287,1.293-.719a70.39,70.39,0,0,0,7.33-4.312,23.325,23.325,0,0,0,2.3-1.725l.144-.144Zm-33.055,4.024v.575c0,.287-.144,1.006-.144,1.437a8.763,8.763,0,0,0,1.15,5.318,8.533,8.533,0,0,1,.431,1.006c-.144.144-8.911,2.731-11.641,3.449a14.7,14.7,0,0,1-1.581.431c-.144,0-.144,0,0-.144.287-2.012,1.868-4.455,3.88-6.611a15.011,15.011,0,0,1,4.455-3.306,13.25,13.25,0,0,1,3.449-2.156Zm20.7,3.737a7.46,7.46,0,0,1,.719.431,41.938,41.938,0,0,0,10.2,4.024h.287l-.431.287a126.9,126.9,0,0,1-13.509,5.6,10.019,10.019,0,0,0-1.868.719.5.5,0,0,0-.287.144,10.4,10.4,0,0,0,.575-1.006,59.132,59.132,0,0,0,4.168-9.629,2.266,2.266,0,0,0,.144-.575Zm-2.012.575-.287.575a92.207,92.207,0,0,1-4.6,9.342c-.431.862-.862,1.581-.862,1.581l-.862-.575a29.413,29.413,0,0,1-7.042-5.892l-.287-.287,1.15-.287a78.776,78.776,0,0,0,11.641-4.024A6.525,6.525,0,0,0-143.421,118.839Zm13.078,4.6h0c0,.287-.719,3.018-1.293,5.03-.431,1.725-.862,3.018-1.581,5.318-.287,1.006-.575,1.868-.575,1.868h-.144a55.951,55.951,0,0,1-10.779-3.018c-.862-.431-2.3-1.006-2.3-1.006a15.819,15.819,0,0,1,1.725-.862c6.036-2.587,12.36-5.6,14.515-6.9l.431-.431Zm-30.324,1.15s-1.725,2.443-4.024,5.749c-.862,1.15-1.725,2.587-2.156,3.018-.431.575-.862,1.293-1.15,1.725l-.575.862-.575-.575a20.818,20.818,0,0,1-2.443-2.587,10.152,10.152,0,0,1-2.156-4.312c-.144-.575-.144-1.006,0-1.006s3.737-.862,7.042-1.725c1.868-.431,4.024-.862,4.743-1.15a3.483,3.483,0,0,0,1.293,0Zm1.581.575.431.431a24.354,24.354,0,0,0,6.324,5.174,7.47,7.47,0,0,0,.719.431c-.144,0-8.192,3.018-12.072,4.312l-3.88,1.293a.5.5,0,0,0-.287-.144l-.287-.144.431-.575c1.293-1.868,2.874-3.737,6.324-7.9l2.3-2.874Zm10.779,7.617a11.185,11.185,0,0,1,1.293.431c1.725.719,3.162,1.006,4.886,1.581a54.515,54.515,0,0,0,7.473,1.293c.287,0,.431,0,.431.144-.144,0-2.012.719-3.449,1.15-2.3.719-9.342,2.731-14.947,4.455l-2.012.575a3.259,3.259,0,0,1-.575-.144,6.372,6.372,0,0,1,.719-.862,88.081,88.081,0,0,0,5.461-7.33,6.359,6.359,0,0,1,.719-1.293Zm-2.443.144s-.862,1.581-2.587,4.168c-.719,1.15-1.437,2.3-1.725,2.731s-.719,1.15-.862,1.437l-.431.719h-.144c-.431-.144-3.88-1.293-4.743-1.725a33.725,33.725,0,0,1-3.162-1.437,17.617,17.617,0,0,1-2.3-1.437s1.868-.575,4.024-1.15c5.892-1.581,9.054-2.443,11.21-3.162a2.516,2.516,0,0,1,.719-.144Zm16.671,3.88h0c0,.144-2.156,6.18-2.874,8.048a1.573,1.573,0,0,1-.287.575c-.287,0-3.305-.431-5.318-.719-3.305-.575-8.911-1.437-10.348-1.868h-.287l2.012-.431a79.789,79.789,0,0,0,8.336-2.156c2.587-.862,5.174-1.868,7.9-3.018a2.222,2.222,0,0,1,.862-.431Z" transform="translate(176.711 -57.903)" fill="url(#linear-gradient)"/>
        <path id="Path_78143" data-name="Path 78143" d="M-152.038,82.733c-.287,0-5.03,1.725-8.048,2.874a62.532,62.532,0,0,0-9.342,4.6,7.533,7.533,0,0,0-1.868,1.868c0,.144-.144.287-.144.431l1.725,1.725,4.312,1.293,10.06,1.868L-143.7,99.4l.144-1.006h-.144l-1.581-.287-.287-.575a94.965,94.965,0,0,1-4.312-8.479c-.719-1.868-1.581-3.88-2.012-5.318,0-.862,0-1.006-.144-1.006Zm-.287.719h0a3.132,3.132,0,0,1,.144.862,26.327,26.327,0,0,0,1.293,5.6c.431,1.437.431,1.437-.144,1.15-1.293-.431-7.473-1.437-11.929-2.012a7.335,7.335,0,0,0-1.293-.144s3.162-1.725,4.6-2.443c2.012-.862,7.042-3.018,7.33-3.018Zm-12.791,5.892.575.144a73.674,73.674,0,0,0,13.8,2.587,3.133,3.133,0,0,1,.862.144,4.066,4.066,0,0,0-.862.431c-1.868,1.006-4.024,2.156-5.461,3.018a4.064,4.064,0,0,1-.862.431,1.432,1.432,0,0,1-.575-.144l-.575-.144-1.293-1.293c-2.3-2.3-4.168-4.024-4.886-4.743Zm-.575.431,1.868,2.3c1.006,1.293,2.012,2.587,2.3,2.874a2.481,2.481,0,0,1,.431.575s-2.731-.431-4.168-.862c-1.437-.287-2.012-.431-3.018-.719l-.719-.287v-.144c0-.862,1.15-2.156,3.018-3.593l.287-.144Zm15.953,3.162a1.78,1.78,0,0,1,.287.431c.431,1.006,1.868,3.737,2.156,4.168.144.144.287.144-1.581-.144-4.455-.719-6.036-1.006-6.036-1.006a.5.5,0,0,1,.287-.144,15.836,15.836,0,0,0,4.024-2.874c.575,0,.862-.287.862-.431Z" transform="translate(184.753 -82.733)" fill="url(#linear-gradient-2)"/>
        <path id="Path_78144" data-name="Path 78144" d="M-167.072,86.374a1.279,1.279,0,0,0,0,1.15,3.9,3.9,0,0,0,1.293,1.437s5.892,5.749,6.611,6.611a18.321,18.321,0,0,1,4.886,12.647,19.932,19.932,0,0,1-2.156,9.629c-2.731,6.036-8.623,12.791-17.677,20.12l1.293-.431c.862-.575,2.012-1.293,4.743-2.874a179.672,179.672,0,0,1,21.989-9.917c12.5-4.743,33.055-10.2,44.7-11.929l1.15-.144-.144-.287a22.976,22.976,0,0,0-2.731-3.737,32.029,32.029,0,0,0-9.485-7.9c-5.174-2.874-11.929-5.174-20.552-6.9-1.581-.287-5.174-.862-8.048-1.437-6.036-1.006-10.06-1.581-14.372-2.3-1.581-.287-3.88-.719-5.461-1.006a28.654,28.654,0,0,1-3.593-1.006c-.719-.287-2.156-.575-2.443-1.725Zm3.449,3.306a1.432,1.432,0,0,1,.575.144c.575.144,1.15.431,1.868.575l1.725.431a5.564,5.564,0,0,1,1.437.431c.144.144,1.437,4.455,1.868,6.036l.287,1.15a1.574,1.574,0,0,1-.287-.575,26.876,26.876,0,0,0-6.9-7.761,2.682,2.682,0,0,1-.575-.431Zm6.611,1.868a1.923,1.923,0,0,1,.719.144c2.3.575,6.324,1.293,8.911,1.725a1.744,1.744,0,0,1,.719.144,1.78,1.78,0,0,1-.431.287c-.431.287-2.156,1.293-2.731,1.725a21.254,21.254,0,0,0-3.737,3.018l-.719.719a1.487,1.487,0,0,1-.144-.575,29.71,29.71,0,0,0-2.443-6.467,2.515,2.515,0,0,1-.144-.719Zm11.5,2.156c.144,0,.144.431.431,1.437a21.025,21.025,0,0,1,.575,6.036c0,.575,0,1.15-.144,1.15v.144l-.719-.287c-1.437-.431-3.737-1.15-5.749-1.725-1.15-.287-2.012-.575-2.012-.575,0-.144,1.725-1.725,2.3-2.3,1.581-1.15,5.174-3.88,5.318-3.88Zm.862.144s5.461.862,8.048,1.437c1.868.431,4.6.862,4.743,1.006.144,0-.144.144-1.15.575a61.644,61.644,0,0,0-8.767,4.743c-.719.431-1.293.862-1.293.862v-.862a19.408,19.408,0,0,0-1.437-7.186A1.486,1.486,0,0,0-144.652,93.848Zm14.228,2.874s-.144,1.15-.287,1.725a32.684,32.684,0,0,1-3.306,7.761l-.575.862a4.067,4.067,0,0,1-.862-.431q-2.371-1.293-5.174-2.587a8.546,8.546,0,0,0-1.006-.431c-.144-.144,4.168-2.874,6.467-4.312a28.729,28.729,0,0,1,4.743-2.587Zm1.006.144c.144,0,2.587.719,3.88,1.006a71.735,71.735,0,0,1,9.054,3.306l1.006.431-.719.144a102.075,102.075,0,0,0-15.378,4.743,6.045,6.045,0,0,0-.719.287,6.048,6.048,0,0,0,.287-.719,28.151,28.151,0,0,0,2.587-8.91.2.2,0,0,1,0-.287Zm-24.145,5.461s1.868.431,2.874.719a34.624,34.624,0,0,1,4.743,1.581,2.937,2.937,0,0,0-.719.719c-1.725,1.437-3.449,3.018-5.461,4.886a12.127,12.127,0,0,1-1.15,1.006v-.144a30.539,30.539,0,0,0-.144-8.048A1.923,1.923,0,0,1-153.562,102.327Zm38.947.144s-.862,1.437-1.437,2.156c-.862,1.15-2.012,2.731-4.6,6.036-1.437,1.725-3.018,3.737-3.449,4.455-.575.719-1.006,1.293-1.006,1.293a2.483,2.483,0,0,0-.431-.575A23.613,23.613,0,0,0-131,109.944a7.289,7.289,0,0,1-1.006-.862c-.144-.144-.287-.144-.287-.287,0,0,2.3-1.006,4.024-1.725a95.984,95.984,0,0,1,10.2-3.593,17.721,17.721,0,0,1,3.449-1.006Zm1.006.144a2.1,2.1,0,0,1,.719.431,42.731,42.731,0,0,1,8.911,6.755,31.863,31.863,0,0,1,2.443,2.587,7.335,7.335,0,0,0-1.293.144,124.981,124.981,0,0,0-19.689,3.306,3.079,3.079,0,0,1-.862.144,7.154,7.154,0,0,1,1.15-1.15,33.066,33.066,0,0,0,8.048-10.779,13.532,13.532,0,0,0,.575-1.437Zm-29.75,3.162c.144,0,1.868.862,3.162,1.437,1.15.575,3.018,1.581,3.162,1.581l-1.437.719c-2.443,1.293-4.6,2.443-6.9,3.737a8.493,8.493,0,0,1-1.15.719l.287-.719a29.708,29.708,0,0,0,2.731-7.33l.144-.144Zm-1.725.287s-.431,1.725-.719,2.587a36.558,36.558,0,0,1-2.3,5.461c-.144.431-.575.862-.719,1.293l-.287.575-.719-.719a13.83,13.83,0,0,0-2.443-1.868c-.431-.144-.575-.287-.575-.431s2.3-2.156,4.024-3.737a30.438,30.438,0,0,1,3.737-3.162Zm10.635,4.312.719.431a54.793,54.793,0,0,1,4.6,3.449c.719.575,2.156,2.012,2.587,2.3l.144.144-1.15.287c-6.036,1.725-10.779,3.162-16.384,5.174a6.348,6.348,0,0,1-1.15.431c-.144,0-.144,0,1.293-1.15a58.856,58.856,0,0,0,8.91-10.348l.431-.719Zm-2.731.719s-1.868,2.587-2.874,4.024c-1.293,1.725-3.593,4.6-5.174,6.467-.719.719-1.293,1.437-1.293,1.437v-.431a10.979,10.979,0,0,0-1.15-4.743c-.287-.575-.431-.719-.287-.862.287-.287,4.168-2.443,6.611-3.737a40.179,40.179,0,0,1,4.168-2.156Zm-16.959,4.168a6.045,6.045,0,0,0,.719.287,13.02,13.02,0,0,1,2.3,1.581,5.191,5.191,0,0,1-.719.575,48.867,48.867,0,0,0-4.312,3.306c-1.15.862-1.15,1.006-1.15.719a24.727,24.727,0,0,0,1.725-3.018,22.109,22.109,0,0,0,1.15-2.731,6.041,6.041,0,0,1,.287-.719Zm4.6,3.449.575.575a9.8,9.8,0,0,1,1.437,3.88v.287l-1.868.719c-3.306,1.293-6.324,2.587-8.336,3.449-.575.287-1.581.719-2.156,1.006a6.853,6.853,0,0,0-1.15.575,6.366,6.366,0,0,0,.862-.719,52.505,52.505,0,0,0,10.06-9.2c.287-.287.431-.575.575-.575Zm-2.156.575s-1.437,1.725-2.443,2.874a41.174,41.174,0,0,1-8.336,6.611,8.516,8.516,0,0,0-.862.575c-.144,0,0-.144,1.437-1.581.862-1.006,1.581-1.725,2.3-2.731a5.524,5.524,0,0,1,1.293-1.293C-156.149,122.3-151.694,119.142-151.694,119.286Z" transform="translate(180.672 -77.176)" fill="url(#radial-gradient)"/>
      </g>
      <path id="Path_78145" data-name="Path 78145" d="M28.909,45.671h-.758c-5.052.253-8.335,2.526-10.356,6.82-1.768,3.789-1.515,8.84,0,12.882,1.768,3.789,4.546,5.809,9.345,6.567,1.01.253,1.768.758,3.536,3.031l2.273,2.778h4.294l-2.526-3.031C33.2,73.2,31.94,71.687,31.94,71.687a1.932,1.932,0,0,1,1.263-.505,9.006,9.006,0,0,0,5.809-5.557c1.263-2.273,1.263-3.031,1.515-5.809.253-8.84-4.294-14.144-11.619-14.144ZM32.7,68.151a9.831,9.831,0,0,1-7.072.505,10.383,10.383,0,0,1-5.052-5.3,16.284,16.284,0,0,1,.253-9.851c1.768-3.536,4.294-5.052,7.83-5.052,5.3,0,8.335,3.284,8.588,9.345.253,5.052-1.263,8.84-4.546,10.356ZM107.461,53a4.285,4.285,0,0,0-4.041,2.273l-.758,1.263V53.5H99.631V71.434h3.031V65.625c0-5.3,0-5.809.758-7.325,1.01-2.021,2.778-3.031,4.294-2.526l1.01.253V53Zm-18.438-.253A6.277,6.277,0,0,0,87,53c-4.294,1.01-6.567,5.052-6.314,9.345,0,3.536.758,5.3,2.273,7.072,3.536,2.778,6.567,3.031,10.608,1.515a7.461,7.461,0,0,0,1.515-.758V67.393l-1.515.758c-3.284,1.515-6.062,1.515-8.083-.253a8.229,8.229,0,0,1-2.021-4.8H96.1V60.573c.253-4.8-2.778-7.83-7.072-7.83Zm-5.052,8.083s.505-3.031,2.273-4.294a5.092,5.092,0,0,1,2.778-.758,4.208,4.208,0,0,1,2.778,1.01c1.515,1.263,1.768,4.294,1.768,4.294l-9.6-.253ZM7.945,57.542c-3.536-2.021-5.052-3.536-4.8-5.3.505-4.8,6.567-4.294,9.851-2.273V46.682a12.548,12.548,0,0,0-4.546-.758c-4.041,0-6.567,1.263-7.83,4.041-1.768,4.041-.253,7.072,5.557,10.356,3.284,1.768,4.546,3.536,4.546,5.3,0,3.789-4.546,5.052-9.093,2.778A2.035,2.035,0,0,0,.115,67.14a15.8,15.8,0,0,0,0,3.536s1.515.505,3.536,1.01c5.3,1.01,10.1-1.515,10.356-5.3.505-3.789-.758-5.809-6.062-8.84Zm127.553-4.8a6.277,6.277,0,0,0-2.021.253c-4.294,1.01-6.567,5.052-6.314,9.345,0,3.536.758,5.3,2.273,7.072,3.536,2.778,6.567,3.031,10.861,1.515a7.461,7.461,0,0,0,1.515-.758V67.393l-1.515.758c-3.284,1.515-6.062,1.515-8.083-.253a9.48,9.48,0,0,1-2.273-4.8H142.57V60.573c0-4.8-2.778-7.83-7.072-7.83Zm-5.3,7.83s.505-3.031,2.273-4.294a5.092,5.092,0,0,1,2.778-.758,4.208,4.208,0,0,1,2.778,1.01c1.515,1.263,1.768,4.294,1.768,4.294l-9.6-.253ZM72.605,57.542c-3.536-2.021-4.8-3.536-4.8-5.3.505-4.8,6.567-4.294,9.851-2.273V46.682a12.548,12.548,0,0,0-4.546-.758c-4.041,0-6.567,1.263-7.83,4.041-1.768,4.041-.253,7.072,5.557,10.356,3.284,1.768,4.546,3.536,4.546,5.3,0,3.789-4.546,5.052-9.093,2.778a15.019,15.019,0,0,0-1.768-.758,15.8,15.8,0,0,0,0,3.536s1.515.505,3.536,1.01c5.3,1.01,10.1-1.515,10.356-5.3.505-4.294-.758-6.314-5.809-9.345ZM153.936,53a4.285,4.285,0,0,0-4.041,2.273l-.758,1.263V53.5h-3.031V71.434h3.031V65.625c0-5.3,0-5.809.758-7.325,1.01-2.021,2.778-3.031,4.294-2.526l1.01.253V53ZM47.6,57.542V46.176H44.316V71.434H57.7V68.4H47.6V57.542Zm73.248,3.536-2.526,6.82-2.526-6.82L113.27,53.5h-3.284c2.021,6.062,4.294,12.124,6.82,17.933h3.031l3.536-8.84L126.91,53.5h-3.031c-.253-.253-1.515,3.536-3.031,7.577ZM54.925,39.1a1.768,1.768,0,1,0-1.263-3.031c-.505.253-.505.758-.505,1.263A1.727,1.727,0,0,0,54.925,39.1Zm-1.263-2.778a1.929,1.929,0,0,1,1.263-.505,1.312,1.312,0,0,1,1.01.505,1.915,1.915,0,0,1,.505,1.01c0,.505-.253.758-.505,1.263a1.915,1.915,0,0,1-1.01.505,1.312,1.312,0,0,1-1.01-.505,1.929,1.929,0,0,1-.505-1.263C53.157,36.831,53.409,36.578,53.662,36.326Zm.758,1.263h0a.543.543,0,0,1,.505.505l.253.505h.505l-.253-.505a.543.543,0,0,0-.505-.505c.253,0,.253,0,.505-.253a.882.882,0,0,0,.253-.505c0-.253,0-.253-.253-.505-.253,0-.253-.253-.758-.253h-.758v2.273h.253l.253-.758Zm0-1.263h.758v.253a.543.543,0,0,1-.505.505h-.253v-.758ZM2.136,37.336V35.568h0c0,.505.253.758.253,1.01L5.419,43.4h.505l3.031-6.82c0-.253.253-.505.253-.758h0v7.83h1.01V34.305H8.955L6.177,40.62c0,.253-.253.505-.505,1.01h0c0-.253-.253-.505-.505-1.01L2.388,34.305H1.125v8.84h1.01V37.336Zm10.356,0H13.5v5.557h-1.01ZM13,35.315c.253,0,.253,0,.505-.253a.882.882,0,0,0,.253-.505c0-.253,0-.253-.253-.505-.253,0-.253-.253-.505-.253s-.253,0-.505.253a.882.882,0,0,0-.253.505c0,.253,0,.253.253.505,0,.253.253.253.505.253Zm6.82,7.577v-1.01a3.59,3.59,0,0,1-1.515.505,1.527,1.527,0,0,1-1.515-.758,2.131,2.131,0,0,1-.505-1.768,2.293,2.293,0,0,1,.758-1.768,2.183,2.183,0,0,1,1.515-.758,3.59,3.59,0,0,1,1.515.505v-1.01H18.3a3.243,3.243,0,0,0-2.526,1.01,4.488,4.488,0,0,0-1.01,2.526,3.087,3.087,0,0,0,.758,2.273,3.2,3.2,0,0,0,2.273,1.01c1.01-.253,1.515-.253,2.021-.758Zm2.526-2.778a3.651,3.651,0,0,1,.505-1.768,1.915,1.915,0,0,1,1.01-.505.928.928,0,0,1,.758.253V36.831H24.11a1.519,1.519,0,0,0-1.01.253,3.487,3.487,0,0,0-.758,1.01h0V36.831h-1.01v6.314h1.01V40.114ZM28.151,43.4a2.462,2.462,0,0,0,2.273-1.01,3.771,3.771,0,0,0,.758-2.526,4.267,4.267,0,0,0-.758-2.526,3.087,3.087,0,0,0-2.273-.758,3.087,3.087,0,0,0-2.273.758,3.859,3.859,0,0,0-1.01,2.526,3.087,3.087,0,0,0,.758,2.273A2.8,2.8,0,0,0,28.151,43.4Zm-1.515-5.052a1.856,1.856,0,0,1,1.515-.505,2.135,2.135,0,0,1,1.515.505,3.651,3.651,0,0,1,.505,1.768,2.944,2.944,0,0,1-.505,1.768,1.527,1.527,0,0,1-1.515.758,1.527,1.527,0,0,1-1.515-.758,2.131,2.131,0,0,1-.505-1.768,2.944,2.944,0,0,1,.505-1.768Zm9.093,4.546c.505-.253.505-.758.505-1.263s-.253-.758-.505-1.263a5.521,5.521,0,0,0-1.263-.758c-.505-.253-.758-.505-1.01-.505-.253-.253-.253-.253-.253-.758a.893.893,0,0,1,1.01-1.01,3.59,3.59,0,0,1,1.515.505v-1.01h-1.01a2.135,2.135,0,0,0-1.515.505,1.389,1.389,0,0,0-.758,1.263c0,.505.253.758.505,1.263a2.7,2.7,0,0,0,1.263.758c.505.253.758.505,1.01.505.253.253.253.253.253.505a1.156,1.156,0,0,1-1.263,1.01,4.683,4.683,0,0,1-1.768-.505v1.01a3.59,3.59,0,0,0,1.515.505,6.036,6.036,0,0,0,1.768-.758Zm5.052-6.062a3.087,3.087,0,0,0-2.273.758,3.859,3.859,0,0,0-1.01,2.526,3.087,3.087,0,0,0,.758,2.273,3.2,3.2,0,0,0,2.273,1.01,2.462,2.462,0,0,0,2.273-1.01,3.771,3.771,0,0,0,.758-2.526,4.267,4.267,0,0,0-.758-2.526,4.758,4.758,0,0,0-2.021-.505ZM42.8,40.114a2.944,2.944,0,0,1-.505,1.768,1.894,1.894,0,0,1-3.031,0,2.131,2.131,0,0,1-.505-1.768,2.944,2.944,0,0,1,.505-1.768,1.856,1.856,0,0,1,1.515-.505,2.135,2.135,0,0,1,1.515.505,2.944,2.944,0,0,1,.505,1.768ZM45.327,43.4h1.01V37.841h1.515v-1.01H46.337v-1.01c0-1.01.253-1.263,1.01-1.263a.928.928,0,0,1,.758.253V33.8h-.758a1.929,1.929,0,0,0-1.263.505,2.293,2.293,0,0,0-.758,1.768v.758h-1.01v.758h1.01V43.4ZM49.62,41.63c0,1.263.505,1.768,1.768,1.768.505,0,.758,0,1.01-.253v-.758a1.263,1.263,0,0,1-1.515,0c-.253-.253-.253-.505-.253-1.01V37.841h1.515v-1.01H50.631V35.063c-.253,0-.758.253-1.01.253v1.515H48.61v.758h1.01V41.63ZM159.24,53.249a1.831,1.831,0,1,0,.505,1.263,1.39,1.39,0,0,0-.505-1.263Zm0,2.526a1.915,1.915,0,0,1-1.01.505,1.312,1.312,0,0,1-1.01-.505,1.929,1.929,0,0,1-.505-1.263,1.312,1.312,0,0,1,.505-1.01A1.929,1.929,0,0,1,158.482,53a1.312,1.312,0,0,1,1.01.505,1.915,1.915,0,0,1,.505,1.01A5.52,5.52,0,0,1,159.24,55.774Zm-1.01-1.01c.253,0,.253,0,.505-.253a.882.882,0,0,0,.253-.505c0-.253,0-.253-.253-.505-.253,0-.253-.253-.758-.253h-.758v2.273h.253v-1.01h.253c.253,0,.253.253.505.505l.253.505h.505l-.253-.505c-.253-.253-.253-.253-.505-.253Zm-.253-.253h-.253v-.758h.758v.253a.543.543,0,0,1-.505.505ZM100.894,36.578h.253V34.305h.758v-.253h-1.768v.253h.758v2.273Zm1.768-1.768v0l1.01,1.768h.253l.758-2.021v2.021h.253V34.053h-.253l-.758,1.768v.253h0v-.253l-.758-1.768h-.505v2.526h.253l-.253-1.768Z" transform="translate(0 51.575)" fill="#231f1f"/>
    </g>
  </g>
</svg>
