<svg xmlns="http://www.w3.org/2000/svg" width="218.878" height="166.858" viewBox="0 0 218.878 166.858">
  <g id="Group_110601" data-name="Group 110601" transform="translate(-1336 -1233)">
    <g id="Group_110253" data-name="Group 110253" transform="translate(-8886 3122)">
      <rect id="Rectangle_39956" data-name="Rectangle 39956" width="218.878" height="166.858" transform="translate(10222 -1889)" fill="none"/>
    </g>
    <g id="Group_110505" data-name="Group 110505" transform="translate(1321.542 1223.054)">
      <path id="Path_143683" data-name="Path 143683" d="M82.078,58.946a10.988,10.988,0,0,0,1.437.409,20.819,20.819,0,0,1,17.312,16.8A18.042,18.042,0,0,1,98.562,88.6a1.576,1.576,0,0,0-.076,1.651c4.06,9.013,1.1,18.6-7.3,23.876-5,3.135-9.967,6.311-14.94,9.483-12.562,8.011-29.584.211-31.605-14.535A17.575,17.575,0,0,1,46.957,97.4a1.753,1.753,0,0,0,.08-1.854,18.378,18.378,0,0,1,7.072-23.581q7.719-4.877,15.419-9.783a19.294,19.294,0,0,1,7.587-2.852,6,6,0,0,0,1.1-.388ZM60.8,106.537c-1.375-.578-2.7-1.048-3.939-1.679s-2.373-1.413-3.588-2.151c-.091.224-.17.395-.229.571a11.8,11.8,0,0,0,3.837,12.972A12.279,12.279,0,0,0,71,117.5q8.375-5.121,16.578-10.517a10.122,10.122,0,0,0,4.69-8.508,11.561,11.561,0,0,0-6.191-10.963,11.909,11.909,0,0,0-12.826.174c-2.006,1.214-3.941,2.545-5.946,3.762a3.718,3.718,0,0,1-5.084-1.206,3.271,3.271,0,0,1,1-4.669c5.287-3.388,10.578-6.771,15.92-10.07a3.7,3.7,0,0,1,5.6,3.212c0,.255,0,.511,0,.51l7.811,3.986a26.049,26.049,0,0,0,.548-4.728A12.437,12.437,0,0,0,74,68.747q-7.842,4.9-15.62,9.91a10.939,10.939,0,0,0-4.79,12.119,12.529,12.529,0,0,0,18.56,7.58c2.1-1.283,4.127-2.679,6.243-3.93a3.7,3.7,0,0,1,4.966,1.333,3.341,3.341,0,0,1-1.246,4.789q-7.612,4.844-15.25,9.647a4.779,4.779,0,0,1-1.982.741C62.432,111.172,60.867,109.439,60.8,106.537Z" transform="translate(0 0)" fill="#fe3f02"/>
      <path id="Path_143684" data-name="Path 143684" d="M129.5,96.73h8.163v2.252H127V82.573h10.163v2.309h-7.69v4.467h4.918v2.31H129.5Z" transform="translate(18.611 5.327)" fill="#51515c"/>
      <path id="Path_143685" data-name="Path 143685" d="M165.137,82.572h10.222v2.251h-7.686v4.55h4.9v2.341h-4.928v4.95h8.187V98.97h-10.7Z" transform="translate(27.21 5.327)" fill="#50505b"/>
      <path id="Path_143686" data-name="Path 143686" d="M109.771,85.582l-2.12.738a3.606,3.606,0,0,0-3.687-1.631,1.961,1.961,0,0,0-1.9,1.516,1.81,1.81,0,0,0,1.089,2.038,15.734,15.734,0,0,0,1.86.814c.77.312,1.566.566,2.32.913,2.477,1.137,3.5,2.9,3.17,5.4-.278,2.11-1.915,3.572-4.468,3.99A6.231,6.231,0,0,1,98.889,95.4l2.224-.825a4.335,4.335,0,0,0,4.3,2.46,2.651,2.651,0,0,0,2.524-1.914,2.442,2.442,0,0,0-1.428-2.8c-1.152-.556-2.4-.909-3.565-1.449a9.341,9.341,0,0,1-2.406-1.444,4,4,0,0,1-.33-5.186c2.254-3,7.853-2.5,9.428.839A3.19,3.19,0,0,1,109.771,85.582Z" transform="translate(12.273 5.257)" fill="#4e4e59"/>
      <path id="Path_143687" data-name="Path 143687" d="M111.636,82.536a15.47,15.47,0,0,0,1.646-.011c.694-.076.994.216,1.2.86,1.221,3.844,2.482,7.678,3.728,11.513.066.2.134.4.266.8.719-2.21,1.384-4.234,2.038-6.262.591-1.831,1.25-3.645,1.727-5.5.286-1.114.771-1.623,1.934-1.408a7.48,7.48,0,0,0,1.18.009c-.543,1.586-1.048,3.061-1.553,4.538-1.27,3.711-2.562,7.413-3.789,11.138-.237.719-.581.972-1.292.877-.685-.091-1.452.284-1.814-.805-1.687-5.082-3.458-10.137-5.2-15.2A4.075,4.075,0,0,1,111.636,82.536Z" transform="translate(15.147 5.306)" fill="#4f4f59"/>
      <path id="Path_143688" data-name="Path 143688" d="M155.981,84.9h-4.636v-2.35h11.723V84.9H158.46V98.99h-2.479Z" transform="translate(24.1 5.321)" fill="#53535d"/>
      <path id="Path_143689" data-name="Path 143689" d="M140.972,82.566h2.37V96.7h8.046v2.279H140.972Z" transform="translate(21.762 5.326)" fill="#4b4b56"/>
    </g>
  </g>
</svg>
