<svg xmlns="http://www.w3.org/2000/svg" xmlns:xlink="http://www.w3.org/1999/xlink" width="218.88" height="166.86" viewBox="0 0 218.88 166.86">
  <defs>
    <clipPath id="clip-path">
      <path id="Path_142938" data-name="Path 142938" d="M102.094-219.829,85.968-229v37.682l6.449-3.723v-10.6l4.873,2.8-.07-7.24-4.8-2.791v-4.231l9.677,5.658Z" fill="none"/>
    </clipPath>
    <linearGradient id="linear-gradient" x1="-3.71" y1="13.885" x2="-3.684" y2="13.885" gradientUnits="objectBoundingBox">
      <stop offset="0" stop-color="#ff6f00"/>
      <stop offset="1" stop-color="#ffa800"/>
    </linearGradient>
    <clipPath id="clip-path-2">
      <path id="Path_142939" data-name="Path 142939" d="M68.418-219.829,84.538-229v37.683l-6.45-3.723v-22.067l-9.671,5.658Z" fill="none"/>
    </clipPath>
    <linearGradient id="linear-gradient-2" x1="-3.704" y1="13.885" x2="-3.678" y2="13.885" xlink:href="#linear-gradient"/>
  </defs>
  <g id="Group_110406" data-name="Group 110406" transform="translate(-9331 -2128)">
    <rect id="Rectangle_39966" data-name="Rectangle 39966" width="218.88" height="166.86" transform="translate(9331 2128)" fill="none"/>
    <g id="Layer_2" data-name="Layer 2" transform="translate(9354.756 2406)">
      <g id="Layer_1-2" data-name="Layer 1-2">
        <g id="Group_95489" data-name="Group 95489">
          <g id="Group_110322" data-name="Group 110322">
            <g id="Group_110321" data-name="Group 110321" clip-path="url(#clip-path)">
              <g id="Group_95488" data-name="Group 95488">
                <g id="Group_95487" data-name="Group 95487">
                  <path id="Path_127160" data-name="Path 127160" d="M66.911-229.145h39.544v37.9H66.911Z" fill="url(#linear-gradient)"/>
                </g>
              </g>
            </g>
          </g>
        </g>
        <g id="Group_95492" data-name="Group 95492">
          <g id="Group_110324" data-name="Group 110324">
            <g id="Group_110323" data-name="Group 110323" clip-path="url(#clip-path-2)">
              <g id="Group_95491" data-name="Group 95491">
                <g id="Group_95490" data-name="Group 95490">
                  <path id="Path_127162" data-name="Path 127162" d="M66.7-229.145h39.548v37.9H66.7Z" fill="url(#linear-gradient-2)"/>
                </g>
              </g>
            </g>
          </g>
        </g>
        <path id="Path_127164" data-name="Path 127164" d="M35.2-176.174H29.386v16.184H26.059v-16.184H20.244V-178.8H35.2Z" fill="#425066"/>
        <path id="Path_127165" data-name="Path 127165" d="M39.12-159.751a6.607,6.607,0,0,1-4.85-1.873,6.841,6.841,0,0,1-1.872-5.024v-.407a8.315,8.315,0,0,1,.82-3.74,6.455,6.455,0,0,1,2.279-2.57,5.925,5.925,0,0,1,3.274-.936,5.474,5.474,0,0,1,4.443,1.814,7.6,7.6,0,0,1,1.576,5.141v1.285H35.614a4.341,4.341,0,0,0,1.163,2.745,3.26,3.26,0,0,0,2.57.994,4.161,4.161,0,0,0,3.489-1.744l1.692,1.634a5.839,5.839,0,0,1-2.184,1.907A5.809,5.809,0,0,1,39.12-159.751Zm-.349-11.98a2.59,2.59,0,0,0-2.1.878,4.341,4.341,0,0,0-1,2.513h6.019v-.232a3.9,3.9,0,0,0-.82-2.419,3.113,3.113,0,0,0-2.1-.739ZM50.1-174.01l.117,1.634a5.043,5.043,0,0,1,4.07-1.873c2.908,0,4.385,1.692,4.443,5.025v9.234H55.6v-9.05a2.9,2.9,0,0,0-.582-1.989,2.486,2.486,0,0,0-1.872-.645,3.057,3.057,0,0,0-2.861,1.692v9.932H47.122v-14.019Zm18.818,10.229a1.463,1.463,0,0,0-.7-1.286,6.548,6.548,0,0,0-2.28-.761,11.205,11.205,0,0,1-2.662-.878,3.542,3.542,0,0,1-2.326-3.274,3.878,3.878,0,0,1,1.518-3.042,5.977,5.977,0,0,1,3.855-1.227,6.158,6.158,0,0,1,4.03,1.227,3.881,3.881,0,0,1,1.486,3.193H68.686a1.966,1.966,0,0,0-.7-1.518,2.515,2.515,0,0,0-1.813-.582,2.98,2.98,0,0,0-1.693.466,1.555,1.555,0,0,0-.617,1.308,1.334,1.334,0,0,0,.582,1.115,8.257,8.257,0,0,0,2.454.82,10.805,10.805,0,0,1,2.908.994,3.908,3.908,0,0,1,1.576,1.343,3.745,3.745,0,0,1-1.053,4.967,7.64,7.64,0,0,1-7.13.523,4.949,4.949,0,0,1-2.1-1.692,4.287,4.287,0,0,1-.761-2.326h3.041a2.158,2.158,0,0,0,.82,1.692,3.938,3.938,0,0,0,3.919.116,1.213,1.213,0,0,0,.82-1.163Zm4.735-3.333a7.9,7.9,0,0,1,.819-3.681,5.933,5.933,0,0,1,2.274-2.523,6.391,6.391,0,0,1,3.39-.867,6.119,6.119,0,0,1,4.617,1.814,7.31,7.31,0,0,1,1.931,4.85v.762a8.049,8.049,0,0,1-.82,3.681,5.565,5.565,0,0,1-2.279,2.512,6.456,6.456,0,0,1-3.449.879,5.937,5.937,0,0,1-4.734-2,7.909,7.909,0,0,1-1.814-5.234Zm3.1.291a5.7,5.7,0,0,0,.873,3.391,3.146,3.146,0,0,0,4.385.581,2.831,2.831,0,0,0,.581-.581,6.273,6.273,0,0,0,.878-3.623,5.546,5.546,0,0,0-.936-3.391,3.13,3.13,0,0,0-4.327-.645,6.347,6.347,0,0,0-.645.581,7.454,7.454,0,0,0-.814,3.687ZM96.1-171.091a9.4,9.4,0,0,0-1.286-.116,2.846,2.846,0,0,0-2.907,1.634v9.583H88.744v-14.02h2.977l.058,1.576a3.492,3.492,0,0,1,3.165-1.815,3.67,3.67,0,0,1,1.111.175l.058,2.977Zm13.119,3.1h-7.56v8.008H98.384V-178.8h12v2.628h-8.726v5.612h7.559Zm6.252,8.008h-3.159V-178.86h3.158Zm2.279-7.13a7.905,7.905,0,0,1,.82-3.681,5.934,5.934,0,0,1,2.28-2.523,6.393,6.393,0,0,1,3.39-.879,6.115,6.115,0,0,1,4.616,1.815,7.3,7.3,0,0,1,1.931,4.85v.762a8.834,8.834,0,0,1-.762,3.681,5.581,5.581,0,0,1-2.279,2.512,6.454,6.454,0,0,1-3.448.878,5.931,5.931,0,0,1-4.734-1.989,7.562,7.562,0,0,1-1.819-5.235v-.192Zm3.158.291a5.711,5.711,0,0,0,.877,3.391A2.913,2.913,0,0,0,124.3-162.2a2.72,2.72,0,0,0,2.454-1.227,6.258,6.258,0,0,0,.878-3.623,5.546,5.546,0,0,0-.936-3.391,3.128,3.128,0,0,0-4.326-.645,6.36,6.36,0,0,0-.646.581,6.876,6.876,0,0,0-.791,3.687Zm24.074,2.512,2.222-9.641h3.041l-3.78,14.011h-2.57l-2.977-9.642-2.983,9.642h-2.547l-3.855-14.03h3.1l2.28,9.584,2.861-9.584h2.4l2.861,9.642Z" fill="#425066"/>
      </g>
    </g>
  </g>
</svg>
