<svg xmlns="http://www.w3.org/2000/svg" width="218.878" height="166.858" viewBox="0 0 218.878 166.858">
  <g id="Group_61788" data-name="Group 61788" transform="translate(-1547 -7750)">
    <rect id="Rectangle_30119" data-name="Rectangle 30119" width="218.878" height="166.858" transform="translate(1547 7750)" fill="none"/>
    <g id="vuejs-logo" transform="translate(1601.894 7781)">
      <path id="Path_78743" data-name="Path 78743" d="M31.889,97.953a1.565,1.565,0,0,0-.864.259,1.045,1.045,0,0,0-.5.853.592.592,0,0,0,.069.36l-.026-.062,5.253,17.044a1.2,1.2,0,0,0,.573.7,1.644,1.644,0,0,0,.8.194,1.4,1.4,0,0,0,1.4-.892v0L43.841,99.3v-.062c0,.086.026.036.026-.15a1.051,1.051,0,0,0-.514-.855,1.611,1.611,0,0,0-.9-.283,1.077,1.077,0,0,0-1.016.707l0,0-4.237,14.14L32.941,98.691a.96.96,0,0,0-.431-.581,1.2,1.2,0,0,0-.621-.157Zm41.841.879a1.454,1.454,0,1,0,1.492,1.442A1.475,1.475,0,0,0,73.731,98.832Zm-12.317,5.457a5.162,5.162,0,0,0-5.213,5.037v2.817a4.91,4.91,0,0,0,1.655,3.771,6.238,6.238,0,0,0,4.162,1.415,6.419,6.419,0,0,0,2.952-.65,3.158,3.158,0,0,0,.86-.626,1.159,1.159,0,0,0,.37-.792,1.2,1.2,0,0,0-.29-.76,1.066,1.066,0,0,0-.824-.429,1.19,1.19,0,0,0-.639.218c-.175.107-.339.226-.536.339a3.418,3.418,0,0,1-1.842.448,3.834,3.834,0,0,1-2.478-.786,2.573,2.573,0,0,1-.935-2.073V111.7h5.274a3.086,3.086,0,0,0,1.729-.344,2.3,2.3,0,0,0,.869-2.076,5.041,5.041,0,0,0-5.112-4.988Zm19.821,0a4.526,4.526,0,0,0-3.355,1.231,3.719,3.719,0,0,0-1.028,2.6,3.047,3.047,0,0,0,1.125,2.492,6.654,6.654,0,0,0,2.271,1.028,9.419,9.419,0,0,1,2.039.757,1.4,1.4,0,0,1,.775,1.356,1.1,1.1,0,0,1-.424.932,2.8,2.8,0,0,1-1.756.443A3.679,3.679,0,0,1,78.8,114.6c-.216-.133-.389-.272-.568-.4a1.134,1.134,0,0,0-.666-.258.925.925,0,0,0-.747.429,1.267,1.267,0,0,0-.242.735,1.319,1.319,0,0,0,.391.877,3.229,3.229,0,0,0,.919.675,6.691,6.691,0,0,0,3.049.667,5.056,5.056,0,0,0,3.245-.968,3.369,3.369,0,0,0,1.213-2.684,3.475,3.475,0,0,0-1.112-2.715,6.017,6.017,0,0,0-2.3-1.135,14.066,14.066,0,0,1-2.074-.7c-.513-.267-.754-.514-.754-1.082a1.422,1.422,0,0,1,.435-1,2.274,2.274,0,0,1,1.669-.552,4.023,4.023,0,0,1,1.583.32c.2.082.376.168.543.24a1.261,1.261,0,0,0,.539.142,1.017,1.017,0,0,0,.832-.506,1.335,1.335,0,0,0,.256-.759.984.984,0,0,0-.451-.771,3.277,3.277,0,0,0-.879-.455,7.356,7.356,0,0,0-2.449-.416Zm-35.942.152a1.132,1.132,0,0,0-1.239,1.037v6.715a5.188,5.188,0,0,0,10.375,0v-6.739a.959.959,0,0,0-.4-.751,1.343,1.343,0,0,0-.82-.263,1.393,1.393,0,0,0-.826.258.95.95,0,0,0-.413.756v6.739a2.735,2.735,0,1,1-5.468,0v-6.715a.958.958,0,0,0-.394-.746,1.3,1.3,0,0,0-.821-.291Zm28.439,0a1.353,1.353,0,0,0-.828.253.971.971,0,0,0-.386.76v12.372A6.135,6.135,0,0,1,72.249,120c-.2.471-.444.68-1.132.68A1.152,1.152,0,0,0,70,121.849a1.122,1.122,0,0,0,.3.78,1.281,1.281,0,0,0,.938.359,3.288,3.288,0,0,0,2.9-1.521,6.817,6.817,0,0,0,.828-3.641V105.454a.962.962,0,0,0-.418-.768,1.412,1.412,0,0,0-.823-.245Zm-12.343,2.026a2.75,2.75,0,0,1,2.734,2.758,1.024,1.024,0,0,1-.032.3c-.016.045-.014.039-.037.054a2.092,2.092,0,0,1-.78.094H58.655v-.546a2.7,2.7,0,0,1,2.734-2.657Zm7.8,7.68a1.579,1.579,0,1,0,1.541,1.591A1.578,1.578,0,0,0,69.184,114.147Z" transform="translate(-3.865 -17.677)" fill="#35495e"/>
      <g id="Group_61015" data-name="Group 61015" transform="translate(9.106 0)">
        <path id="Path_78744" data-name="Path 78744" d="M0,7.663l35.043.111L45,24.974l10.145-17.2,34.828-.111L45.1,85.083Zm89.257.448-17.123.015L45.088,54.554,18.059,8.125.662,8.111,45.094,83.949ZM71.579,8.1l-15.988.118L45.01,25.548,34.595,8.223,18.573,8.1,45.094,53.426Zm-53.305-.12,16.169.006L45.011,25.535,55.543,7.993l16.155,0L45.092,54.139" transform="translate(0 -7.663)" fill="rgba(0,0,0,0)"/>
        <path id="Path_78745" data-name="Path 78745" d="M22.3,8.056l16.169.006L49.036,25.606,59.567,8.064l16.155,0L49.116,54.21Z" transform="translate(-4.024 -7.734)" fill="#35495e"/>
        <path id="Path_78746" data-name="Path 78746" d="M.781,8.181,18.4,8.06,45.218,54.213,71.825,8.063l17.65.018L45.215,84.039Z" transform="translate(-0.141 -7.734)" fill="#41b883"/>
      </g>
    </g>
  </g>
</svg>
