<svg xmlns="http://www.w3.org/2000/svg" xmlns:xlink="http://www.w3.org/1999/xlink" id="Group_60740" data-name="Group 60740" width="460.962" height="517.475" viewBox="0 0 460.962 517.475"><defs><clipPath id="clip-path"><rect id="Rectangle_30044" data-name="Rectangle 30044" width="460.962" height="517.475" fill="none"></rect></clipPath><clipPath id="clip-path-3"><rect id="Rectangle_30042" data-name="Rectangle 30042" width="102.777" height="70.747" fill="none"></rect></clipPath></defs><g id="Group_60739" data-name="Group 60739" clip-path="url(#clip-path)"><g id="Group_60738" data-name="Group 60738"><g id="Group_60737" data-name="Group 60737" clip-path="url(#clip-path)"><path id="Path_76700" data-name="Path 76700" d="M366.6,350.98c0,9.332-70.923,16.9-158.411,16.9s-158.41-7.565-158.41-16.9,70.923-16.9,158.41-16.9S366.6,341.648,366.6,350.98" transform="translate(22.291 149.598)" fill="#f5f5f5"></path><path id="Path_76701" data-name="Path 76701" d="M6.4,377.962c2.06-.319,3.686-2.408,3.88-5.286l10.68-158.21c.237-3.517-1.752-6.88-4.445-7.511s-5.07,1.71-5.306,5.225L.527,370.39c-.237,3.517,1.752,6.88,4.445,7.511a3.729,3.729,0,0,0,1.426.061" transform="translate(0.227 92.625)" fill="#161616"></path><path id="Path_76702" data-name="Path 76702" d="M318.832,377.962c-2.06-.319-3.686-2.408-3.88-5.286l-10.68-158.21c-.237-3.517,1.752-6.88,4.445-7.511s5.07,1.71,5.306,5.225L324.7,370.39c.237,3.517-1.752,6.88-4.445,7.511a3.729,3.729,0,0,1-1.426.061" transform="translate(136.24 92.625)" fill="#161616"></path><path id="Path_76703" data-name="Path 76703" d="M32.259,300.579c1.713-.265,3.065-2,3.227-4.4l8.882-131.568c.2-2.926-1.458-5.722-3.7-6.247s-4.216,1.422-4.411,4.346L27.377,294.281c-.2,2.926,1.456,5.722,3.7,6.247a3.112,3.112,0,0,0,1.186.051" transform="translate(12.252 70.876)" fill="#161616"></path><path id="Path_76704" data-name="Path 76704" d="M292.086,300.579c-1.714-.265-3.066-2-3.229-4.4l-8.882-131.568c-.2-2.926,1.458-5.722,3.7-6.247s4.215,1.422,4.413,4.346l8.881,131.568c.2,2.926-1.455,5.722-3.7,6.247a3.105,3.105,0,0,1-1.184.051" transform="translate(125.362 70.876)" fill="#161616"></path><path id="Path_76705" data-name="Path 76705" d="M7.087,248.411H453.151c3.895,0,7.233-7.171,7.233-9.49l-41.456-92.813c0-2.319-3.187-4.219-7.081-4.219H42.491c-3.895,0-7.081,1.9-7.081,4.219L0,238.175c0,2.321,3.192,10.236,7.087,10.236" transform="translate(0 63.536)" fill="#c4c5c6"></path><path id="Path_76706" data-name="Path 76706" d="M7.085,244.3H453.149c3.895,0,7.081-1.9,7.081-4.219l-41.3-98.085c0-2.319-3.187-4.219-7.081-4.219H42.489c-3.895,0-7.081,1.9-7.081,4.219L0,240.078C0,242.4,3.191,244.3,7.085,244.3" transform="translate(0.002 61.694)" fill="#f0f0f0"></path><path id="Path_76707" data-name="Path 76707" d="M84.277,202.933H313.124c2,0,3.634-.961,3.634-2.135l-21.191-49.636c0-1.174-1.635-2.135-3.633-2.135H102.44c-2,0-3.632.961-3.632,2.135L80.644,200.8c0,1.174,1.635,2.135,3.633,2.135" transform="translate(36.111 66.732)" fill="#b1b1b1"></path><path id="Path_76708" data-name="Path 76708" d="M96.879,191.227H286.038a3.665,3.665,0,0,0,3.654-3.654V68.776a3.665,3.665,0,0,0-3.654-3.654H96.879a3.664,3.664,0,0,0-3.654,3.654v118.8a3.664,3.664,0,0,0,3.654,3.654" transform="translate(41.745 29.161)" fill="#f5f5f5"></path><path id="Path_76709" data-name="Path 76709" d="M102.212,182.292H275.617a3.317,3.317,0,0,0,3.307-3.307V72.916a3.317,3.317,0,0,0-3.307-3.307H102.212a3.317,3.317,0,0,0-3.307,3.307V178.985a3.317,3.317,0,0,0,3.307,3.307" transform="translate(44.288 31.17)" fill="#707070"></path><path id="Path_76710" data-name="Path 76710" d="M123.5,89.276a9.883,9.883,0,1,1-9.883-9.755,9.82,9.82,0,0,1,9.883,9.755" transform="translate(46.45 35.608)" fill="#fafafa"></path><path id="Path_76711" data-name="Path 76711" d="M207.656,83.345h-87.29a1.772,1.772,0,0,1-1.772-1.772v-.279a1.772,1.772,0,0,1,1.772-1.772h87.29a1.772,1.772,0,0,1,1.772,1.772v.279a1.772,1.772,0,0,1-1.772,1.772" transform="translate(53.105 35.608)" fill="#fafafa"></path><path id="Path_76712" data-name="Path 76712" d="M226.573,87.679H120.365a1.772,1.772,0,0,1-1.772-1.772v-.279a1.772,1.772,0,0,1,1.772-1.772H226.573a1.772,1.772,0,0,1,1.772,1.772v.279a1.772,1.772,0,0,1-1.772,1.772" transform="translate(53.104 37.549)" fill="#fafafa"></path><path id="Path_76713" data-name="Path 76713" d="M242.489,92.013H120.365a1.772,1.772,0,0,1-1.772-1.772v-.279a1.772,1.772,0,0,1,1.772-1.772H242.489a1.772,1.772,0,0,1,1.772,1.772v.279a1.772,1.772,0,0,1-1.772,1.772" transform="translate(53.104 39.49)" fill="#fafafa"></path><path id="Path_76714" data-name="Path 76714" d="M251.947,96.347H120.365a1.772,1.772,0,0,1-1.772-1.772V94.3a1.772,1.772,0,0,1,1.772-1.772H251.947a1.772,1.772,0,0,1,1.772,1.772v.279a1.772,1.772,0,0,1-1.772,1.772" transform="translate(53.104 41.43)" fill="#fafafa"></path><path id="Path_76715" data-name="Path 76715" d="M123.867,134.175a9.883,9.883,0,1,1-9.883-9.755,9.82,9.82,0,0,1,9.883,9.755" transform="translate(46.615 55.714)" fill="#fafafa"></path><path id="Path_76716" data-name="Path 76716" d="M208.025,128.244h-87.29a1.771,1.771,0,0,1-1.772-1.772v-.279a1.771,1.771,0,0,1,1.772-1.772h87.29a1.772,1.772,0,0,1,1.772,1.772v.279a1.772,1.772,0,0,1-1.772,1.772" transform="translate(53.27 55.714)" fill="#fafafa"></path><path id="Path_76717" data-name="Path 76717" d="M226.943,132.578H120.735a1.772,1.772,0,0,1-1.772-1.772v-.279a1.772,1.772,0,0,1,1.772-1.772H226.943a1.772,1.772,0,0,1,1.772,1.772v.279a1.772,1.772,0,0,1-1.772,1.772" transform="translate(53.27 57.654)" fill="#fafafa"></path><path id="Path_76718" data-name="Path 76718" d="M242.857,136.912H120.735a1.771,1.771,0,0,1-1.772-1.772v-.279a1.771,1.771,0,0,1,1.772-1.772H242.857a1.772,1.772,0,0,1,1.772,1.772v.279a1.772,1.772,0,0,1-1.772,1.772" transform="translate(53.27 59.595)" fill="#fafafa"></path><path id="Path_76719" data-name="Path 76719" d="M252.317,141.245H120.735a1.771,1.771,0,0,1-1.772-1.772v-.279a1.772,1.772,0,0,1,1.772-1.771H252.317a1.772,1.772,0,0,1,1.772,1.771v.279a1.771,1.771,0,0,1-1.772,1.772" transform="translate(53.27 61.536)" fill="#fafafa"></path><path id="Path_76720" data-name="Path 76720" d="M123.537,112.156a9.883,9.883,0,1,1-9.883-9.755,9.82,9.82,0,0,1,9.883,9.755" transform="translate(46.468 45.854)" fill="#fafafa"></path><path id="Path_76721" data-name="Path 76721" d="M203.381,106.225H120.405a1.772,1.772,0,0,1-1.772-1.772v-.279a1.772,1.772,0,0,1,1.772-1.772h82.976a1.772,1.772,0,0,1,1.772,1.772v.279a1.772,1.772,0,0,1-1.772,1.772" transform="translate(53.122 45.854)" fill="#fafafa"></path><path id="Path_76722" data-name="Path 76722" d="M221.4,110.559h-101a1.773,1.773,0,0,1-1.772-1.772v-.279a1.773,1.773,0,0,1,1.772-1.772h101a1.773,1.773,0,0,1,1.772,1.772v.279a1.773,1.773,0,0,1-1.772,1.772" transform="translate(53.122 47.794)" fill="#fafafa"></path><path id="Path_76723" data-name="Path 76723" d="M236.558,114.893H120.405a1.772,1.772,0,0,1-1.772-1.772v-.279a1.772,1.772,0,0,1,1.772-1.772H236.558a1.772,1.772,0,0,1,1.772,1.772v.279a1.772,1.772,0,0,1-1.772,1.772" transform="translate(53.122 49.735)" fill="#fafafa"></path><path id="Path_76724" data-name="Path 76724" d="M245.568,119.227H120.405a1.772,1.772,0,0,1-1.772-1.772v-.279a1.772,1.772,0,0,1,1.772-1.772H245.568a1.772,1.772,0,0,1,1.772,1.772v.279a1.772,1.772,0,0,1-1.772,1.772" transform="translate(53.122 51.676)" fill="#fafafa"></path><path id="Path_76725" data-name="Path 76725" d="M243.176,160.83c-1.135-1.193-3.285-1.785-5.182-2.309-2.024-.557-3.771-1.041-4.1-2.146-.182-.611.1-1.329.861-2.191,1.694-1.917,10.892-2.972,19.784-3.993,8.1-.929,17.291-1.983,17.442-3.53.032-.327-.434-1.042-3.918-2.156-17.689-5.658-38.993,10.282-39.206,10.444l-.268-.353c.214-.164,21.7-16.238,39.609-10.514,3,.961,4.307,1.769,4.225,2.622-.174,1.775-6.852,2.667-17.832,3.926-8.4.964-17.921,2.056-19.5,3.845-.644.73-.9,1.325-.77,1.772.258.87,1.975,1.344,3.792,1.844,1.952.539,4.164,1.15,5.386,2.431Z" transform="translate(102.36 63.967)" fill="#161616"></path><path id="Path_76726" data-name="Path 76726" d="M256.392,173.671l-2.4,1.86a7.954,7.954,0,0,1-11.128-1.416l-5.477-7.077a7.954,7.954,0,0,1,1.417-11.128l2.4-1.862a7.954,7.954,0,0,1,11.128,1.416l5.478,7.08a7.954,7.954,0,0,1-1.419,11.126" transform="translate(105.557 68.241)" fill="#161616"></path><path id="Path_76727" data-name="Path 76727" d="M242.381,177.537s-2.893-10.287-2.429-15.594,4.752,4.937,5.678,5.852,2.159.982,3.087-.482,4.678-14.5,6.763-13.771-3.53,12.617-2.376,13.037c1.275.463,5.044-12,7.417-11.241,1.623.521-4.636,12.225-3.476,12.978s6.616-9.25,7.647-8.691c1.391.754-5.04,11.125-4,11.878,1.2.869,4.639-6.231,4.925-4.924.769,3.515-7.764,15.238-7.764,15.238Z" transform="translate(107.424 68.74)" fill="#f2a790"></path><path id="Path_76728" data-name="Path 76728" d="M87.356,176.108a33.966,33.966,0,0,0,.927-10.433c-.463-5.308-3.013-.549-3.939.366s-2.395,1.306-3.323-.158-1.158-10.389-3.244-9.657-4.094,2.415-5.021,2.781-1.931-1.38-4.249-.465a6.7,6.7,0,0,0-3.631,7.681C65.8,169.7,71.6,179.4,71.6,179.4Z" transform="translate(28.954 69.937)" fill="#f2a790"></path><rect id="Rectangle_30038" data-name="Rectangle 30038" width="37.592" height="41.398" transform="translate(212.583 193.475)" fill="#f2a790"></rect><path id="Path_76729" data-name="Path 76729" d="M210.279,113.506s4.694-13.871-7.44-21.01-21.824,5.784-21.824,5.784-6.424-11.9-20.223-9.041-11.42,15.7-11.42,15.7-15.942-2.379-20.224,7.138,5.948,17.13,5.948,17.13-8.089,4.045-7.136,12.61,11.181,8.8,11.181,8.8-.951,5,1.19,6.424,6.424,1.427,6.424,1.427-2.855,5.473,1.19,8.8,11.181-.951,11.181-.951,4.283,9.993,12.61,9.993S183.87,165.61,183.87,165.61s6.424,5,15.94,0S206,150.858,206,150.858s9.516-.714,10.23-9.516-4.283-10.23-4.283-10.23a9.665,9.665,0,0,0,7.614-9.755c0-8.328-9.279-7.851-9.279-7.851" transform="translate(57.263 39.761)" fill="#161616"></path><path id="Path_76730" data-name="Path 76730" d="M92.165,214.014s-7.614-2.854-16.224-23.794c-6.431-15.643-6.489-16.686-6.489-16.686a17.624,17.624,0,0,1,7.417-3.554,30.047,30.047,0,0,1,8.344-.618s16.686,17.614,25.956,25.494Z" transform="translate(31.1 75.807)" fill="#cb2027"></path><path id="Path_76731" data-name="Path 76731" d="M242.666,214.547s7.614-2.854,16.224-23.794c6.431-15.643,6.489-16.687,6.489-16.687a17.631,17.631,0,0,0-7.417-3.553,30.047,30.047,0,0,0-8.344-.618s-16.686,17.614-25.956,25.494Z" transform="translate(100.153 76.045)" fill="#cb2027"></path><path id="Path_76732" data-name="Path 76732" d="M165.379,303.538H185.2a42.168,42.168,0,0,0,42.045-42.045V198.256A42.168,42.168,0,0,0,185.2,156.211H165.379a42.168,42.168,0,0,0-42.045,42.045v63.236a42.168,42.168,0,0,0,42.045,42.045" transform="translate(55.227 69.949)" fill="#cb2027"></path><path id="Path_76733" data-name="Path 76733" d="M163.785,160.2s-83.863,35.686-83.149,48.89,37.114,24.266,60.31,10.349S163.785,160.2,163.785,160.2" transform="translate(36.105 71.734)" fill="#cb2027"></path><path id="Path_76734" data-name="Path 76734" d="M182.924,161.676s83.863,35.686,83.149,48.89-37.114,24.266-60.31,10.349-22.839-59.239-22.839-59.239" transform="translate(81.911 72.396)" fill="#cb2027"></path><path id="Path_76735" data-name="Path 76735" d="M128.82,255.018c-16.832,5.558-7.746,68.123,23.15,127.208l17.468-.111s13.554-144.984-40.618-127.1" transform="translate(53.947 113.509)" fill="#161616"></path><path id="Path_76736" data-name="Path 76736" d="M142.631,342.363s-1.768,12.109-1.187,13.616,16.917,2.781,18.656,1.853,0-15.528,0-15.528Z" transform="translate(63.284 153.279)" fill="#161616"></path><path id="Path_76737" data-name="Path 76737" d="M199.2,254.911c16.832,5.558,7.746,68.123-23.15,127.208l-17.468-.111s-13.554-144.984,40.618-127.1" transform="translate(70.338 113.461)" fill="#161616"></path><path id="Path_76738" data-name="Path 76738" d="M175.829,342.257s1.768,12.109,1.187,13.616-16.917,2.781-18.656,1.853,0-15.528,0-15.528Z" transform="translate(70.565 153.232)" fill="#161616"></path><path id="Path_76739" data-name="Path 76739" d="M114.038,389.677a4.406,4.406,0,0,0,4.214-3.136l31.52-104.756a4.4,4.4,0,0,0-8.433-2.538L109.819,384a4.408,4.408,0,0,0,4.219,5.674" transform="translate(49.091 123.639)" fill="#161616"></path><path id="Path_76740" data-name="Path 76740" d="M214.7,389.2a4.408,4.408,0,0,0,4.217-5.674L187.4,278.767a4.4,4.4,0,0,0-8.433,2.538l31.52,104.756A4.406,4.406,0,0,0,214.7,389.2" transform="translate(80.056 123.424)" fill="#161616"></path><path id="Path_76741" data-name="Path 76741" d="M143.473,326.559l64.641,1.471A27.894,27.894,0,0,0,236.55,300.86s-9.723-113.389-25.147-117.4c-15.643-4.071-48.782-4.594-64.642-1.469C131.139,185.063,116.3,298.125,116.3,298.125a27.891,27.891,0,0,0,27.171,28.435" transform="translate(52.075 80.588)" fill="#f0f0f0"></path><path id="Path_76742" data-name="Path 76742" d="M276.093,173.256l-27.237-61.587Z" transform="translate(111.434 50.004)" fill="#f0f0f0"></path><rect id="Rectangle_30039" data-name="Rectangle 30039" width="2.476" height="67.342" transform="translate(359.17 162.167) rotate(-23.836)" fill="#f0f0f0"></rect><rect id="Rectangle_30040" data-name="Rectangle 30040" width="1.865" height="50.725" transform="matrix(0.952, -0.307, 0.307, 0.952, 373.035, 171.684)" fill="#f0f0f0"></rect><rect id="Rectangle_30041" data-name="Rectangle 30041" width="57.112" height="2.1" transform="translate(386.515 222.799) rotate(-74.711)" fill="#f0f0f0"></rect><path id="Path_76743" data-name="Path 76743" d="M259.531,169.132h22.284l3.1-36.92H256.435Z" transform="translate(114.828 59.203)" fill="#161616"></path><path id="Path_76753" data-name="Path 76753" d="M251.369,59.484H184.689a1.341,1.341,0,0,1-1.336-1.336V13.081a1.341,1.341,0,0,1,1.336-1.336h66.679a1.341,1.341,0,0,1,1.336,1.336V58.148a1.341,1.341,0,0,1-1.336,1.336" transform="translate(82.103 5.259)" fill="#f0f0f0"></path><path id="Path_76754" data-name="Path 76754" d="M206.677,49.051q-5.553-1.557-5.554-7.174V38.824q0-3.116-2.5-3.117v-3.5q2.5,0,2.5-3.132v-3.24a7.087,7.087,0,0,1,1.442-4.488,7.906,7.906,0,0,1,4.112-2.484l.971,2.715q-1.944.741-2.021,4.151v3.347a5,5,0,0,1-2.854,4.875,5.014,5.014,0,0,1,2.854,4.889v3.333q.078,3.41,2.021,4.149Z" transform="translate(88.941 8.446)" fill="#161616"></path><path id="Path_76755" data-name="Path 76755" d="M211.155,46.321q1.944-.741,2.021-4.149V38.824a4.977,4.977,0,0,1,2.87-4.875,4.98,4.98,0,0,1-2.87-4.875V25.727q-.078-3.41-2.021-4.151l.971-2.715a7.761,7.761,0,0,1,4.149,2.522,7.228,7.228,0,0,1,1.4,4.589v3.1q0,3.132,2.5,3.132v3.5q-2.5,0-2.5,3.1v3.286q-.109,5.429-5.554,6.957Z" transform="translate(94.552 8.446)" fill="#161616"></path><g id="Group_60736" data-name="Group 60736" transform="translate(352.349 67.668)" opacity="0.7"><g id="Group_60735" data-name="Group 60735"><g id="Group_60734" data-name="Group 60734" clip-path="url(#clip-path-3)"><path id="Path_76756" data-name="Path 76756" d="M342.617,117.487H246.9a3.531,3.531,0,0,1-3.531-3.531V50.27a3.531,3.531,0,0,1,3.531-3.531h95.715a3.531,3.531,0,0,1,3.531,3.531v63.685a3.531,3.531,0,0,1-3.531,3.531" transform="translate(-243.371 -46.739)" fill="#c4c5c6"></path></g></g></g><path id="Path_76757" data-name="Path 76757" d="M261.982,60.756a5.16,5.16,0,1,1-5.16-5.093,5.127,5.127,0,0,1,5.16,5.093" transform="translate(112.691 24.925)" fill="#f0f0f0"></path><path id="Path_76758" data-name="Path 76758" d="M305.921,57.659H260.346a.925.925,0,0,1-.925-.925v-.146a.925.925,0,0,1,.925-.925h45.575a.925.925,0,0,1,.925.925v.146a.925.925,0,0,1-.925.925" transform="translate(116.165 24.925)" fill="#f0f0f0"></path><path id="Path_76759" data-name="Path 76759" d="M315.8,59.923H260.346a.925.925,0,0,1-.924-.925v-.146a.925.925,0,0,1,.924-.925H315.8a.925.925,0,0,1,.925.925V59a.925.925,0,0,1-.925.925" transform="translate(116.166 25.938)" fill="#f0f0f0"></path><path id="Path_76760" data-name="Path 76760" d="M324.108,62.185H260.346a.925.925,0,0,1-.925-.925v-.146a.925.925,0,0,1,.925-.925h63.762a.925.925,0,0,1,.925.925v.146a.925.925,0,0,1-.925.925" transform="translate(116.165 26.952)" fill="#f0f0f0"></path><path id="Path_76761" data-name="Path 76761" d="M329.047,64.449h-68.7a.925.925,0,0,1-.925-.925v-.146a.925.925,0,0,1,.925-.925h68.7a.925.925,0,0,1,.925.925v.146a.925.925,0,0,1-.925.925" transform="translate(116.165 27.965)" fill="#f0f0f0"></path><path id="Path_76762" data-name="Path 76762" d="M262.175,84.2a5.16,5.16,0,1,1-5.16-5.093,5.127,5.127,0,0,1,5.16,5.093" transform="translate(112.777 35.423)" fill="#f0f0f0"></path><path id="Path_76763" data-name="Path 76763" d="M306.114,81.1H260.539a.925.925,0,0,1-.925-.925v-.146a.925.925,0,0,1,.925-.925h45.575a.925.925,0,0,1,.925.925v.146a.925.925,0,0,1-.925.925" transform="translate(116.251 35.423)" fill="#f0f0f0"></path><path id="Path_76764" data-name="Path 76764" d="M315.992,83.364H260.539a.923.923,0,0,1-.924-.924v-.146a.926.926,0,0,1,.924-.927h55.453a.926.926,0,0,1,.925.927v.146a.924.924,0,0,1-.925.924" transform="translate(116.252 36.435)" fill="#f0f0f0"></path><path id="Path_76765" data-name="Path 76765" d="M324.3,85.628H260.539a.925.925,0,0,1-.925-.925v-.146a.925.925,0,0,1,.925-.925H324.3a.925.925,0,0,1,.925.925V84.7a.925.925,0,0,1-.925.925" transform="translate(116.251 37.449)" fill="#f0f0f0"></path><path id="Path_76766" data-name="Path 76766" d="M329.239,87.891h-68.7a.925.925,0,0,1-.925-.925v-.146a.925.925,0,0,1,.925-.925h68.7a.925.925,0,0,1,.925.925v.146a.925.925,0,0,1-.925.925" transform="translate(116.251 38.462)" fill="#f0f0f0"></path><path id="Path_76767" data-name="Path 76767" d="M262,72.7a5.16,5.16,0,1,1-5.16-5.093A5.127,5.127,0,0,1,262,72.7" transform="translate(112.7 30.274)" fill="#f0f0f0"></path><path id="Path_76768" data-name="Path 76768" d="M303.689,69.605H260.367a.925.925,0,0,1-.925-.925v-.146a.925.925,0,0,1,.925-.925h43.322a.925.925,0,0,1,.925.925v.146a.925.925,0,0,1-.925.925" transform="translate(116.174 30.274)" fill="#f0f0f0"></path><path id="Path_76769" data-name="Path 76769" d="M313.1,71.868h-52.73a.925.925,0,0,1-.925-.925V70.8a.925.925,0,0,1,.925-.925H313.1a.925.925,0,0,1,.925.925v.146a.925.925,0,0,1-.925.925" transform="translate(116.174 31.288)" fill="#f0f0f0"></path><path id="Path_76770" data-name="Path 76770" d="M321.012,74.132H260.367a.925.925,0,0,1-.925-.925V73.06a.925.925,0,0,1,.925-.925h60.645a.925.925,0,0,1,.925.925v.146a.925.925,0,0,1-.925.925" transform="translate(116.174 32.301)" fill="#f0f0f0"></path><path id="Path_76771" data-name="Path 76771" d="M325.716,76.394H260.367a.925.925,0,0,1-.925-.925v-.146a.925.925,0,0,1,.925-.925h65.349a.925.925,0,0,1,.925.925v.146a.925.925,0,0,1-.925.925" transform="translate(116.174 33.314)" fill="#f0f0f0"></path><path id="Path_76772" data-name="Path 76772" d="M109.6,112.015H42.919a1.341,1.341,0,0,1-1.336-1.336V65.612a1.341,1.341,0,0,1,1.336-1.336H109.6a1.341,1.341,0,0,1,1.336,1.336v45.067a1.34,1.34,0,0,1-1.336,1.336" transform="translate(18.62 28.782)" fill="#f0f0f0"></path><path id="Path_76773" data-name="Path 76773" d="M56.135,83.752l7.837,2.764v3.85L52.135,85.347V82.1l11.837-5.019v3.85Z" transform="translate(23.345 34.517)" fill="#161616"></path><path id="Path_76774" data-name="Path 76774" d="M64.349,95.467H61.393l7.369-21.736h2.956Z" transform="translate(27.491 33.016)" fill="#161616"></path><path id="Path_76775" data-name="Path 76775" d="M77.908,83.706l-7.987-2.791V77.093L81.9,82.111v3.231L69.921,90.375V86.538Z" transform="translate(31.31 34.521)" fill="#161616"></path></g></g></g></svg>