<svg xmlns="http://www.w3.org/2000/svg" xmlns:xlink="http://www.w3.org/1999/xlink" id="Group_61620" data-name="Group 61620" width="504.99" height="364.801" viewBox="0 0 504.99 364.801"><defs><clipPath id="clip-path"><rect id="Rectangle_30488" data-name="Rectangle 30488" width="504.99" height="364.8" fill="none"></rect></clipPath><clipPath id="clip-path-3"><path id="Path_79076" data-name="Path 79076" d="M63.427,116.381,25.044,126.7H415.485L382.43,116.381Z" transform="translate(-25.044 -116.381)" fill="none"></path></clipPath><linearGradient id="linear-gradient" x1="-0.147" y1="9.514" x2="-0.141" y2="9.514" gradientUnits="objectBoundingBox"><stop offset="0" stop-color="#d8cfe4"></stop><stop offset="0.017" stop-color="#d8cfe4"></stop><stop offset="1" stop-color="#f5f4f9"></stop></linearGradient><clipPath id="clip-path-5"><rect id="Rectangle_30434" data-name="Rectangle 30434" width="19.178" height="19.404" fill="none"></rect></clipPath><clipPath id="clip-path-6"><path id="Path_79113" data-name="Path 79113" d="M71.152,77.133,82.325,72.2S79.748,82.438,78.4,84.029,67.141,82.843,63.146,91.6a105.68,105.68,0,0,1,8.006-14.472" transform="translate(-63.146 -72.201)" fill="none"></path></clipPath><linearGradient id="linear-gradient-2" x1="-7.542" y1="10.278" x2="-7.422" y2="10.278" gradientUnits="objectBoundingBox"><stop offset="0" stop-color="#d1a1d6"></stop><stop offset="0.016" stop-color="#d1a1d6"></stop><stop offset="0.994" stop-color="#bd89c4"></stop><stop offset="1" stop-color="#bd89c4"></stop></linearGradient><clipPath id="clip-path-7"><rect id="Rectangle_30436" data-name="Rectangle 30436" width="0.009" height="0.009" fill="none"></rect></clipPath><clipPath id="clip-path-8"><path id="Path_79115" data-name="Path 79115" d="M38.382,131.6l-.009-.009h.009Z" transform="translate(-38.373 -131.588)" fill="none"></path></clipPath><linearGradient id="linear-gradient-3" x1="0" y1="0.5" x2="1" y2="0.5" xlink:href="#linear-gradient-2"></linearGradient><clipPath id="clip-path-9"><rect id="Rectangle_30438" data-name="Rectangle 30438" width="10.685" height="2.584" fill="none"></rect></clipPath><clipPath id="clip-path-10"><path id="Path_79116" data-name="Path 79116" d="M68.457,104.781A13.659,13.659,0,0,0,74.527,107a4.993,4.993,0,0,0,4.615-2.572s-3.491,1.954-10.686.35" transform="translate(-68.457 -104.431)" fill="none"></path></clipPath><linearGradient id="linear-gradient-4" x1="-14.675" y1="45.158" x2="-14.46" y2="45.158" gradientUnits="objectBoundingBox"><stop offset="0"></stop><stop offset="0.085" stop-color="#081a1b"></stop><stop offset="0.344" stop-color="#1f666b"></stop><stop offset="0.574" stop-color="#31a3aa"></stop><stop offset="0.766" stop-color="#3ecfd8"></stop><stop offset="0.914" stop-color="#46e9f4"></stop><stop offset="1" stop-color="#4af4ff"></stop></linearGradient><clipPath id="clip-path-11"><rect id="Rectangle_30440" data-name="Rectangle 30440" width="6.159" height="4.579" fill="none"></rect></clipPath><clipPath id="clip-path-12"><path id="Path_79117" data-name="Path 79117" d="M46.008,132.694a9.743,9.743,0,0,1-6.1,4.412s6.874,1.489,6.1-4.412" transform="translate(-39.911 -132.694)" fill="none"></path></clipPath><linearGradient id="linear-gradient-5" x1="-13.299" y1="10.272" x2="-12.966" y2="10.272" xlink:href="#linear-gradient-4"></linearGradient><clipPath id="clip-path-13"><rect id="Rectangle_30442" data-name="Rectangle 30442" width="98.692" height="137.348" fill="none"></rect></clipPath><clipPath id="clip-path-14"><path id="Path_79118" data-name="Path 79118" d="M120.563,127.986s-4.819,3.239-5.733,4.153a42.9,42.9,0,0,0-3.317,5.468c.279-1.2,9.559-41.008,8.9-43.3-.676-2.334-10.708-1.054-15.255,5.037.774-3.317,8.006-14.472,8.006-14.472-4.485.465-25.192,4.941-25.192,4.941-4.494,1.168-17.291,7-17.291,7-1.745,11.9-11.62,41.482-15.7,53.409a24.431,24.431,0,0,0-4.256,3.889c-1.835,2.387-8.154,36.207-6.821,46.072a11.916,11.916,0,0,0-3.326,1.166,9.8,9.8,0,0,0-2.045,2.194c1.649-9.671,6.022-36.319,5.88-46.045A12.061,12.061,0,0,0,30.594,156c.667-1.326,4.652-5.154,7.321-10.472s9.435-48.32,9.435-48.32l-1.212-2.827L48.561,80.3l35.751-13.21a28.938,28.938,0,0,1,3.862-.886l-4.993,6.052s-1.741,2.751,12.355,2.593S129.285,73.1,129.285,73.1s-14.538,43.972-8.722,54.884" transform="translate(-30.594 -66.203)" fill="none"></path></clipPath><linearGradient id="linear-gradient-6" x1="-0.71" y1="1.552" x2="-0.687" y2="1.552" xlink:href="#linear-gradient-2"></linearGradient><clipPath id="clip-path-15"><rect id="Rectangle_30444" data-name="Rectangle 30444" width="5.907" height="8.663" fill="none"></rect></clipPath><clipPath id="clip-path-16"><path id="Path_79122" data-name="Path 79122" d="M62.7,60.975a5.655,5.655,0,0,0-1.457-.616,8.725,8.725,0,0,0-1.81.474c-.886.291-1.9.669-2.641.939L58.451,54.1l.211-.992,2.02.211h.007c1.326,2.151,2.011,7.655,2.011,7.655" transform="translate(-56.793 -53.109)" fill="none"></path></clipPath><linearGradient id="linear-gradient-7" x1="-13.421" y1="33.141" x2="-13.181" y2="33.141" xlink:href="#linear-gradient-2"></linearGradient><clipPath id="clip-path-17"><path id="Path_79124" data-name="Path 79124" d="M58.541,53.254c.47,2.245-2.146,10.653-2.146,10.653l2.792-1c2.687-3.915,1.4-9.84,1.4-9.84Z" transform="translate(-56.395 -53.068)" fill="none"></path></clipPath><linearGradient id="linear-gradient-8" x1="-20.797" y1="21.757" x2="-20.428" y2="21.757" gradientUnits="objectBoundingBox"><stop offset="0" stop-color="#e1dbeb"></stop><stop offset="0.017" stop-color="#e1dbeb"></stop><stop offset="0.175" stop-color="#e6e1f1"></stop><stop offset="0.562" stop-color="#efecfa"></stop><stop offset="1" stop-color="#f3f0fe"></stop></linearGradient><clipPath id="clip-path-19"><rect id="Rectangle_30447" data-name="Rectangle 30447" width="51.646" height="80.638" fill="none"></rect></clipPath><clipPath id="clip-path-20"><path id="Path_79138" data-name="Path 79138" d="M56.84,23.432s-3.1,1.885-3.715,4.714c0,0,1.83-2.969,4.325-3.314s5.4-.092,6.194-.8l1.086-4.112s-2.291,2.794-7.889,3.514" transform="translate(-53.125 -19.918)" fill="none"></path></clipPath><linearGradient id="linear-gradient-9" x1="-12.101" y1="25.006" x2="-11.874" y2="25.006" gradientUnits="objectBoundingBox"><stop offset="0" stop-color="#ae3438"></stop><stop offset="0.011" stop-color="#ae3438"></stop><stop offset="0.994" stop-color="#e06e31"></stop><stop offset="1" stop-color="#e06e31"></stop></linearGradient><clipPath id="clip-path-21"><path id="Path_79139" data-name="Path 79139" d="M55.659,23.393a21.3,21.3,0,0,0,5.8-2.327L62,19.029s-3.2,3.342-6.345,4.364" transform="translate(-55.659 -19.029)" fill="none"></path></clipPath><linearGradient id="linear-gradient-10" x1="-23.701" y1="46.036" x2="-23.277" y2="46.036" xlink:href="#linear-gradient-9"></linearGradient><clipPath id="clip-path-23"><path id="Path_79150" data-name="Path 79150" d="M46.487,31.7,45.3,33.689c8.454-3.649,17.434-.843,17.434-.843-2.139-1.876-5.145-2.439-7.992-2.439A29.9,29.9,0,0,0,46.487,31.7" transform="translate(-45.296 -30.407)" fill="none"></path></clipPath><linearGradient id="linear-gradient-11" x1="-5.951" y1="80.988" x2="-5.82" y2="80.988" xlink:href="#linear-gradient-8"></linearGradient><clipPath id="clip-path-25"><rect id="Rectangle_30453" data-name="Rectangle 30453" width="54.458" height="12.495" fill="none"></rect></clipPath><clipPath id="clip-path-26"><rect id="Rectangle_30454" data-name="Rectangle 30454" width="4.59" height="11.015" fill="none"></rect></clipPath><clipPath id="clip-path-27"><rect id="Rectangle_30455" data-name="Rectangle 30455" width="10.257" height="13.145" fill="none"></rect></clipPath><clipPath id="clip-path-28"><rect id="Rectangle_30456" data-name="Rectangle 30456" width="6.011" height="7.552" fill="none"></rect></clipPath><clipPath id="clip-path-29"><rect id="Rectangle_30457" data-name="Rectangle 30457" width="1.38" height="6.713" fill="none"></rect></clipPath><clipPath id="clip-path-30"><rect id="Rectangle_30458" data-name="Rectangle 30458" width="8.011" height="6.371" fill="none"></rect></clipPath><clipPath id="clip-path-31"><rect id="Rectangle_30459" data-name="Rectangle 30459" width="5.785" height="5.144" fill="none"></rect></clipPath><clipPath id="clip-path-32"><rect id="Rectangle_30461" data-name="Rectangle 30461" width="11.443" height="22.763" fill="none"></rect></clipPath><clipPath id="clip-path-33"><path id="Path_79163" data-name="Path 79163" d="M52.08,81.265l9.767,3.415a29.821,29.821,0,0,1-4.464,19.348c1.777-.085,4.093-.268,4.093-.268s2.563-5.981,1.952-18.934Z" transform="translate(-52.08 -81.265)" fill="none" clip-rule="evenodd"></path></clipPath><linearGradient id="linear-gradient-12" x1="-9.975" y1="7.848" x2="-9.784" y2="7.848" xlink:href="#linear-gradient-4"></linearGradient><clipPath id="clip-path-34"><rect id="Rectangle_30463" data-name="Rectangle 30463" width="9.708" height="21.967" fill="none"></rect></clipPath><clipPath id="clip-path-35"><path id="Path_79164" data-name="Path 79164" d="M50.331,113.17l-.174-2.513s6.407-10.305,9.707-19.454c0,0-3.129,13.427-9.533,21.967" transform="translate(-50.157 -91.203)" fill="none" clip-rule="evenodd"></path></clipPath><linearGradient id="linear-gradient-13" x1="-11.835" y1="7.097" x2="-11.599" y2="7.097" xlink:href="#linear-gradient-4"></linearGradient><clipPath id="clip-path-36"><rect id="Rectangle_30465" data-name="Rectangle 30465" width="1.685" height="0.964" fill="none"></rect></clipPath><clipPath id="clip-path-37"><path id="Path_79165" data-name="Path 79165" d="M56.513,45.637c-.518.332-1.079.648-1.686.964.93-.527,1.546-.877,1.686-.964" transform="translate(-54.827 -45.637)" fill="none"></path></clipPath><linearGradient id="linear-gradient-14" x1="-101.26" y1="142.638" x2="-99.418" y2="142.638" xlink:href="#linear-gradient-2"></linearGradient><clipPath id="clip-path-38"><rect id="Rectangle_30467" data-name="Rectangle 30467" width="62.504" height="84.238" fill="none"></rect></clipPath><clipPath id="clip-path-39"><path id="Path_79166" data-name="Path 79166" d="M88,67.45c-3.221,5.539-6.354,23.611-5.855,25.024C80.755,96.5,73.84,103.2,73.84,103.2c8.812-2.071,11.242-7.032,11.242-7.032l.1.124a1.714,1.714,0,0,1,.3.589c.167.921-2.08,3.747-1.993,4.249a14,14,0,0,0,1.115,2.052l-5.61,3.177,6.812-1.2.016.027c.431.685.738,1.175.738,1.175l-4.984.229c-11.753,13.631-37.7,13.244-37.7,13.244l.669-7.811c-3.66,3.88-11.824,7.811-11.824,7.811s13-26.639,12.841-43.72c.078,2.256.623,14.282,3.747,14.282,2.774,0,10.972-15.711,15.063-24.253C68.537,57.426,70.759,35.6,70.759,35.6l-.511,15.388a35.437,35.437,0,0,1,8.006-12.394L95.22,51.782A106.308,106.308,0,0,1,88,67.45" transform="translate(-32.717 -35.597)" fill="none"></path></clipPath><linearGradient id="linear-gradient-15" x1="-0.627" y1="3.661" x2="-0.603" y2="3.661" xlink:href="#linear-gradient-2"></linearGradient><clipPath id="clip-path-40"><rect id="Rectangle_30469" data-name="Rectangle 30469" width="27.587" height="11.524" fill="none"></rect></clipPath><clipPath id="clip-path-41"><path id="Path_79167" data-name="Path 79167" d="M49.438,33.833v2.994A98.892,98.892,0,0,1,40.864,42.5l12.594-7.2a35.133,35.133,0,0,1,14.992-3.186s-10.7-3.484-19.012,1.72" transform="translate(-40.864 -30.972)" fill="none"></path></clipPath><linearGradient id="linear-gradient-16" x1="-5.322" y1="10.283" x2="-5.198" y2="10.283" xlink:href="#linear-gradient-2"></linearGradient><clipPath id="clip-path-42"><rect id="Rectangle_30470" data-name="Rectangle 30470" width="14.209" height="43.702" fill="none"></rect></clipPath><clipPath id="clip-path-43"><path id="Path_79173" data-name="Path 79173" d="M44.646,71.434v.85a39.486,39.486,0,0,0,12.8-.227L57.292,70.2a68.893,68.893,0,0,1-12.646,1.232" transform="translate(-44.646 -70.202)" fill="none"></path></clipPath><linearGradient id="linear-gradient-17" x1="-7.99" y1="64.072" x2="-7.811" y2="64.072" xlink:href="#linear-gradient-8"></linearGradient><clipPath id="clip-path-45"><rect id="Rectangle_30474" data-name="Rectangle 30474" width="10.046" height="40.542" fill="none"></rect></clipPath><clipPath id="clip-path-46"><path id="Path_79175" data-name="Path 79175" d="M58.374,53.515C54.915,62.959,53.495,76,54.214,90.379v.053a19.6,19.6,0,0,0,.14,2.387s-5.381-13.972-5.818-22.285,10.03-18.256,10.03-18.256-.069.438-.192,1.237" transform="translate(-48.522 -52.278)" fill="none"></path></clipPath><linearGradient id="linear-gradient-18" x1="-2.278" y1="13.447" x2="-2.223" y2="13.447" gradientUnits="objectBoundingBox"><stop offset="0" stop-color="#b060f4"></stop><stop offset="0.006" stop-color="#b060f4"></stop><stop offset="1" stop-color="#ffeadb"></stop></linearGradient><clipPath id="clip-path-47"><rect id="Rectangle_30476" data-name="Rectangle 30476" width="5.819" height="22.286" fill="none"></rect></clipPath><clipPath id="clip-path-48"><path id="Path_79176" data-name="Path 79176" d="M54.346,82.533s-5.568-13.718-5.818-22.285c0,0,2.847,10.23,5.5,12.307Z" transform="translate(-48.528 -60.248)" fill="none"></path></clipPath><linearGradient id="linear-gradient-19" x1="-4.469" y1="22.966" x2="-4.369" y2="22.966" xlink:href="#linear-gradient-18"></linearGradient><clipPath id="clip-path-49"><rect id="Rectangle_30477" data-name="Rectangle 30477" width="11.387" height="8.924" fill="none"></rect></clipPath><clipPath id="clip-path-50"><rect id="Rectangle_30479" data-name="Rectangle 30479" width="5.313" height="22.653" fill="none"></rect></clipPath><clipPath id="clip-path-51"><path id="Path_79179" data-name="Path 79179" d="M45.429,83.143s-2.636-11.574-.644-22.015c0,0,2.155,17.688,4.57,22.638a9.139,9.139,0,0,1-3.926-.623" transform="translate(-44.041 -61.128)" fill="none"></path></clipPath><linearGradient id="linear-gradient-20" x1="-3.861" y1="20.982" x2="-3.764" y2="20.982" xlink:href="#linear-gradient-18"></linearGradient><clipPath id="clip-path-52"><rect id="Rectangle_30480" data-name="Rectangle 30480" width="15.62" height="16.884" fill="none"></rect></clipPath><clipPath id="clip-path-53"><path id="Path_79183" data-name="Path 79183" d="M69.408,52.209c-5.1,4.778-16.061,6.347-16.061,6.347L47.2,68.334l4.144,5.206c11.418-1.878,16.966-12.747,16.966-12.747.495-3.01,3.564-8.67,4.863-11.883.133-.3.186-.458.186-.458a3.7,3.7,0,0,0-.325-2.114c-1.386,2.52-3.626,5.871-3.626,5.871" transform="translate(-47.201 -46.338)" fill="#cb2027"></path></clipPath><clipPath id="clip-path-55"><rect id="Rectangle_30483" data-name="Rectangle 30483" width="4.961" height="40.903" fill="none"></rect></clipPath><clipPath id="clip-path-56"><rect id="Rectangle_30484" data-name="Rectangle 30484" width="50.235" height="38.75" fill="none"></rect></clipPath><clipPath id="clip-path-57"><rect id="Rectangle_30485" data-name="Rectangle 30485" width="23.174" height="36.992" fill="none"></rect></clipPath><clipPath id="clip-path-58"><rect id="Rectangle_30486" data-name="Rectangle 30486" width="88.645" height="37.609" fill="none"></rect></clipPath></defs><g id="Group_61619" data-name="Group 61619" clip-path="url(#clip-path)"><g id="Group_61477" data-name="Group 61477"><g id="Group_61476" data-name="Group 61476" clip-path="url(#clip-path)"><path id="Path_78996" data-name="Path 78996" d="M73.012,4.042H342.866a.057.057,0,0,1,.057.057V169.3a.057.057,0,0,1-.057.057H73.012a.057.057,0,0,1-.057-.057V4.1a.057.057,0,0,1,.057-.057" transform="translate(94.153 5.216)" fill="#fafafa" fill-rule="evenodd"></path><path id="Path_78997" data-name="Path 78997" d="M122.654,66.724h28.962a1.609,1.609,0,0,0,0-3.218H122.654a1.609,1.609,0,0,0,0,3.218" transform="translate(156.218 81.959)" fill="#e1e1e1" fill-rule="evenodd"></path><path id="Path_78998" data-name="Path 78998" d="M122.695,63.666H146.45a1.609,1.609,0,1,0,0-3.218H122.695a1.609,1.609,0,0,0,0,3.218" transform="translate(156.271 78.012)" fill="#e1e1e1" fill-rule="evenodd"></path><path id="Path_78999" data-name="Path 78999" d="M122.695,60.609h72.121a1.609,1.609,0,0,0,0-3.218H122.695a1.609,1.609,0,0,0,0,3.218" transform="translate(156.271 74.067)" fill="#e1e1e1" fill-rule="evenodd"></path><path id="Path_79000" data-name="Path 79000" d="M139.223,66.724h18.929a1.609,1.609,0,0,0,0-3.218H139.223a1.609,1.609,0,0,0,0,3.218" transform="translate(177.601 81.959)" fill="#e1e1e1" fill-rule="evenodd"></path><path id="Path_79001" data-name="Path 79001" d="M136.1,63.666h56.268a1.609,1.609,0,0,0,0-3.218H136.1a1.609,1.609,0,0,0,0,3.218" transform="translate(173.575 78.012)" fill="#161616" fill-rule="evenodd"></path><path id="Path_79002" data-name="Path 79002" d="M164.366,63.666h15.095a1.609,1.609,0,1,0,0-3.218H164.366a1.609,1.609,0,0,0,0,3.218" transform="translate(210.05 78.012)" fill="#161616" fill-rule="evenodd"></path><path id="Path_79003" data-name="Path 79003" d="M174.407,63.666H189.5a1.609,1.609,0,1,0,0-3.218H174.407a1.609,1.609,0,0,0,0,3.218" transform="translate(223.009 78.012)" fill="#cb2027" fill-rule="evenodd"></path><path id="Path_79004" data-name="Path 79004" d="M118.935,57.53h19.307a1.609,1.609,0,1,0,0-3.218H118.935a1.609,1.609,0,0,0,0,3.218" transform="translate(151.418 70.093)" fill="#e1e1e1" fill-rule="evenodd"></path><path id="Path_79005" data-name="Path 79005" d="M122.654,30.655h28.962a1.609,1.609,0,0,0,0-3.218H122.654a1.609,1.609,0,0,0,0,3.218" transform="translate(156.218 35.409)" fill="#e1e1e1" fill-rule="evenodd"></path><path id="Path_79006" data-name="Path 79006" d="M122.695,27.6H146.45a1.609,1.609,0,1,0,0-3.218H122.695a1.609,1.609,0,0,0,0,3.218" transform="translate(156.271 31.464)" fill="#e1e1e1" fill-rule="evenodd"></path><path id="Path_79007" data-name="Path 79007" d="M122.695,24.54h72.121a1.609,1.609,0,0,0,0-3.218H122.695a1.609,1.609,0,0,0,0,3.218" transform="translate(156.271 27.517)" fill="#161616" fill-rule="evenodd"></path><path id="Path_79008" data-name="Path 79008" d="M139.223,30.655h18.929a1.609,1.609,0,0,0,0-3.218H139.223a1.609,1.609,0,0,0,0,3.218" transform="translate(177.601 35.409)" fill="#e1e1e1" fill-rule="evenodd"></path><path id="Path_79009" data-name="Path 79009" d="M136.1,27.6h56.268a1.609,1.609,0,0,0,0-3.218H136.1a1.609,1.609,0,0,0,0,3.218" transform="translate(173.575 31.464)" fill="#cb2027" fill-rule="evenodd"></path><path id="Path_79010" data-name="Path 79010" d="M164.366,27.6h15.095a1.609,1.609,0,1,0,0-3.218H164.366a1.609,1.609,0,0,0,0,3.218" transform="translate(210.05 31.464)" fill="#cb2027" fill-rule="evenodd"></path><path id="Path_79011" data-name="Path 79011" d="M174.407,27.6H189.5a1.609,1.609,0,1,0,0-3.218H174.407a1.609,1.609,0,0,0,0,3.218" transform="translate(223.009 31.464)" fill="#e1e1e1" fill-rule="evenodd"></path><path id="Path_79012" data-name="Path 79012" d="M122.86,53.445h19.307a1.609,1.609,0,1,0,0-3.218H122.86a1.609,1.609,0,0,0,0,3.218" transform="translate(156.484 64.821)" fill="#e1e1e1" fill-rule="evenodd"></path><path id="Path_79013" data-name="Path 79013" d="M122.654,50.387h28.962a1.609,1.609,0,0,0,0-3.218H122.654a1.609,1.609,0,0,0,0,3.218" transform="translate(156.218 60.875)" fill="#e1e1e1" fill-rule="evenodd"></path><path id="Path_79014" data-name="Path 79014" d="M122.695,47.329H146.45a1.609,1.609,0,1,0,0-3.218H122.695a1.609,1.609,0,0,0,0,3.218" transform="translate(156.271 56.928)" fill="#e1e1e1" fill-rule="evenodd"></path><path id="Path_79015" data-name="Path 79015" d="M122.695,44.272H153.86a1.609,1.609,0,1,0,0-3.218H122.695a1.609,1.609,0,0,0,0,3.218" transform="translate(156.271 52.983)" fill="#cb2027" fill-rule="evenodd"></path><path id="Path_79016" data-name="Path 79016" d="M139.223,50.387h18.929a1.609,1.609,0,0,0,0-3.218H139.223a1.609,1.609,0,0,0,0,3.218" transform="translate(177.601 60.875)" fill="#e1e1e1" fill-rule="evenodd"></path><path id="Path_79017" data-name="Path 79017" d="M136.1,47.329h56.268a1.609,1.609,0,0,0,0-3.218H136.1a1.609,1.609,0,0,0,0,3.218" transform="translate(173.575 56.928)" fill="#cb2027" fill-rule="evenodd"></path><path id="Path_79018" data-name="Path 79018" d="M164.366,47.329h15.095a1.609,1.609,0,1,0,0-3.218H164.366a1.609,1.609,0,0,0,0,3.218" transform="translate(210.05 56.928)" fill="#e1e1e1" fill-rule="evenodd"></path><path id="Path_79019" data-name="Path 79019" d="M174.407,47.329H189.5a1.609,1.609,0,1,0,0-3.218H174.407a1.609,1.609,0,0,0,0,3.218" transform="translate(223.009 56.928)" fill="#e1e1e1" fill-rule="evenodd"></path><path id="Path_79020" data-name="Path 79020" d="M132.715,21.376h56.268a1.609,1.609,0,0,0,0-3.218H132.715a1.609,1.609,0,0,0,0,3.218" transform="translate(169.202 23.434)" fill="#e1e1e1" fill-rule="evenodd"></path><path id="Path_79021" data-name="Path 79021" d="M160.978,21.376h15.095a1.609,1.609,0,1,0,0-3.218H160.978a1.609,1.609,0,0,0,0,3.218" transform="translate(205.678 23.434)" fill="#e1e1e1" fill-rule="evenodd"></path><path id="Path_79022" data-name="Path 79022" d="M171.019,21.376h15.095a1.609,1.609,0,1,0,0-3.218H171.019a1.609,1.609,0,0,0,0,3.218" transform="translate(218.636 23.434)" fill="#e1e1e1" fill-rule="evenodd"></path><path id="Path_79023" data-name="Path 79023" d="M132.715,18.484h24.608a1.609,1.609,0,0,0,0-3.218H132.715a1.609,1.609,0,0,0,0,3.218" transform="translate(169.202 19.702)" fill="#cb2027" fill-rule="evenodd"></path><path id="Path_79024" data-name="Path 79024" d="M147.218,18.484h38.614a1.609,1.609,0,1,0,0-3.218H147.218a1.609,1.609,0,0,0,0,3.218" transform="translate(187.919 19.702)" fill="#cb2027" fill-rule="evenodd"></path><path id="Path_79025" data-name="Path 79025" d="M168.384,18.484h32.535a1.609,1.609,0,0,0,0-3.218H168.384a1.609,1.609,0,0,0,0,3.218" transform="translate(215.236 19.702)" fill="#e1e1e1" fill-rule="evenodd"></path><path id="Path_79026" data-name="Path 79026" d="M132.715,41.221h56.268a1.609,1.609,0,0,0,0-3.218H132.715a1.609,1.609,0,0,0,0,3.218" transform="translate(169.202 49.045)" fill="#e1e1e1" fill-rule="evenodd"></path><path id="Path_79027" data-name="Path 79027" d="M160.978,41.221h15.095a1.609,1.609,0,1,0,0-3.218H160.978a1.609,1.609,0,0,0,0,3.218" transform="translate(205.678 49.045)" fill="#e1e1e1" fill-rule="evenodd"></path><path id="Path_79028" data-name="Path 79028" d="M171.019,41.221h15.095a1.609,1.609,0,1,0,0-3.218H171.019a1.609,1.609,0,0,0,0,3.218" transform="translate(218.636 49.045)" fill="#e1e1e1" fill-rule="evenodd"></path><path id="Path_79029" data-name="Path 79029" d="M132.715,37.977h24.608a1.609,1.609,0,0,0,0-3.218H132.715a1.609,1.609,0,0,0,0,3.218" transform="translate(169.202 44.859)" fill="#e1e1e1" fill-rule="evenodd"></path><path id="Path_79030" data-name="Path 79030" d="M147.218,37.977h38.614a1.609,1.609,0,1,0,0-3.218H147.218a1.609,1.609,0,0,0,0,3.218" transform="translate(187.919 44.859)" fill="#e1e1e1" fill-rule="evenodd"></path><path id="Path_79031" data-name="Path 79031" d="M168.384,37.977h32.535a1.609,1.609,0,0,0,0-3.218H168.384a1.609,1.609,0,0,0,0,3.218" transform="translate(215.236 44.859)" fill="#e1e1e1" fill-rule="evenodd"></path><rect id="Rectangle_30426" data-name="Rectangle 30426" width="47.825" height="148.131" transform="translate(179.803 20.734)" fill="#f5f5f5"></rect><path id="Path_79032" data-name="Path 79032" d="M139.232,44.272h16.776a1.609,1.609,0,0,0,0-3.218H139.232a1.609,1.609,0,0,0,0,3.218" transform="translate(177.613 52.983)" fill="#cb2027" fill-rule="evenodd"></path><path id="Path_79033" data-name="Path 79033" d="M149.117,44.272h16.776a1.609,1.609,0,0,0,0-3.218H149.117a1.609,1.609,0,0,0,0,3.218" transform="translate(190.37 52.983)" fill="#cb2027" fill-rule="evenodd"></path><path id="Path_79034" data-name="Path 79034" d="M118.935,34.494h24.86a1.609,1.609,0,1,0,0-3.218h-24.86a1.609,1.609,0,0,0,0,3.218" transform="translate(151.418 40.364)" fill="#e1e1e1" fill-rule="evenodd"></path><path id="Path_79035" data-name="Path 79035" d="M132.719,34.494H149.5a1.609,1.609,0,0,0,0-3.218H132.719a1.609,1.609,0,0,0,0,3.218" transform="translate(169.208 40.364)" fill="#e1e1e1" fill-rule="evenodd"></path><path id="Path_79036" data-name="Path 79036" d="M143.343,34.494h16.776a1.609,1.609,0,0,0,0-3.218H143.343a1.609,1.609,0,0,0,0,3.218" transform="translate(182.919 40.364)" fill="#e1e1e1" fill-rule="evenodd"></path><path id="Path_79037" data-name="Path 79037" d="M85.507,56.39H96.16a1.553,1.553,0,1,0,0-3.106H85.507a1.553,1.553,0,1,0,0,3.106" transform="translate(108.348 68.767)" fill="#e1e1e1" fill-rule="evenodd"></path><path id="Path_79038" data-name="Path 79038" d="M82.7,53.031H110.87a1.553,1.553,0,0,0,0-3.106H82.7a1.553,1.553,0,1,0,0,3.106" transform="translate(104.723 64.432)" fill="#e1e1e1" fill-rule="evenodd"></path><path id="Path_79039" data-name="Path 79039" d="M82.7,49.476h21.467a1.553,1.553,0,1,0,0-3.106H82.7a1.553,1.553,0,1,0,0,3.106" transform="translate(104.723 59.844)" fill="#e1e1e1" fill-rule="evenodd"></path><path id="Path_79040" data-name="Path 79040" d="M85.507,45.922h21.428a1.553,1.553,0,1,0,0-3.106H85.507a1.553,1.553,0,1,0,0,3.106" transform="translate(108.348 55.257)" fill="#e1e1e1" fill-rule="evenodd"></path><path id="Path_79041" data-name="Path 79041" d="M85.508,42.367h6.824a1.553,1.553,0,1,0,0-3.106H85.508a1.553,1.553,0,1,0,0,3.106" transform="translate(108.35 50.669)" fill="#e1e1e1" fill-rule="evenodd"></path><path id="Path_79042" data-name="Path 79042" d="M82.7,38.812H103.07a1.553,1.553,0,0,0,0-3.106H82.7a1.553,1.553,0,1,0,0,3.106" transform="translate(104.723 46.081)" fill="#e1e1e1" fill-rule="evenodd"></path><path id="Path_79043" data-name="Path 79043" d="M85.455,35.257h5.578a1.553,1.553,0,1,0,0-3.106H85.455a1.553,1.553,0,1,0,0,3.106" transform="translate(108.281 41.493)" fill="#e1e1e1" fill-rule="evenodd"></path><path id="Path_79044" data-name="Path 79044" d="M85.13,31.7h22.6a1.553,1.553,0,0,0,0-3.106H85.13a1.553,1.553,0,0,0,0,3.106" transform="translate(107.862 36.905)" fill="#e1e1e1" fill-rule="evenodd"></path><path id="Path_79045" data-name="Path 79045" d="M82.7,28.147h17.979a1.553,1.553,0,1,0,0-3.106H82.7a1.553,1.553,0,1,0,0,3.106" transform="translate(104.723 32.317)" fill="#e1e1e1" fill-rule="evenodd"></path><path id="Path_79046" data-name="Path 79046" d="M85.13,24.592h22.6a1.553,1.553,0,0,0,0-3.106H85.13a1.553,1.553,0,0,0,0,3.106" transform="translate(107.862 27.729)" fill="#e1e1e1" fill-rule="evenodd"></path><path id="Path_79047" data-name="Path 79047" d="M85.13,21.037H98.908a1.553,1.553,0,1,0,0-3.106H85.13a1.553,1.553,0,0,0,0,3.106" transform="translate(107.862 23.141)" fill="#e1e1e1" fill-rule="evenodd"></path><path id="Path_79048" data-name="Path 79048" d="M82.7,17.482H92.6a1.553,1.553,0,0,0,0-3.106H82.7a1.553,1.553,0,1,0,0,3.106" transform="translate(104.723 18.553)" fill="#e1e1e1" fill-rule="evenodd"></path><path id="Path_79049" data-name="Path 79049" d="M85.507,59.531H96.16a1.553,1.553,0,1,0,0-3.106H85.507a1.553,1.553,0,1,0,0,3.106" transform="translate(108.348 72.82)" fill="#e1e1e1" fill-rule="evenodd"></path><path id="Path_79050" data-name="Path 79050" d="M82.7,62.672h27.221a1.553,1.553,0,1,0,0-3.106H82.7a1.553,1.553,0,1,0,0,3.106" transform="translate(104.723 76.874)" fill="#e1e1e1" fill-rule="evenodd"></path><path id="Path_79051" data-name="Path 79051" d="M85.507,65.813H96.16a1.553,1.553,0,1,0,0-3.106H85.507a1.553,1.553,0,1,0,0,3.106" transform="translate(108.348 80.928)" fill="#e1e1e1" fill-rule="evenodd"></path><path id="Path_79052" data-name="Path 79052" d="M122.695,21.376h15.8a1.609,1.609,0,0,0,0-3.218h-15.8a1.609,1.609,0,0,0,0,3.218" transform="translate(156.271 23.434)" fill="#e1e1e1" fill-rule="evenodd"></path><path id="Path_79053" data-name="Path 79053" d="M115.683,18.484h31.388a1.609,1.609,0,1,0,0-3.218H115.683a1.609,1.609,0,0,0,0,3.218" transform="translate(147.221 19.702)" fill="#e1e1e1" fill-rule="evenodd"></path><path id="Path_79054" data-name="Path 79054" d="M115.683,14.9h41.336a1.609,1.609,0,1,0,0-3.218H115.683a1.609,1.609,0,0,0,0,3.218" transform="translate(147.221 15.082)" fill="#e1e1e1" fill-rule="evenodd"></path><path id="Path_79055" data-name="Path 79055" d="M108.228,14.9h1.512a1.609,1.609,0,1,0,0-3.218h-1.512a1.609,1.609,0,0,0,0,3.218" transform="translate(137.6 15.082)" fill="#161616" fill-rule="evenodd"></path><path id="Path_79056" data-name="Path 79056" d="M108.228,18.484h1.512a1.609,1.609,0,1,0,0-3.218h-1.512a1.609,1.609,0,0,0,0,3.218" transform="translate(137.6 19.702)" fill="#161616" fill-rule="evenodd"></path><path id="Path_79057" data-name="Path 79057" d="M108.1,30.655h1.312a1.609,1.609,0,0,0,0-3.218H108.1a1.609,1.609,0,0,0,0,3.218" transform="translate(137.439 35.409)" fill="#161616" fill-rule="evenodd"></path><path id="Path_79058" data-name="Path 79058" d="M108.144,27.6h1.216a1.609,1.609,0,1,0,0-3.218h-1.216a1.609,1.609,0,0,0,0,3.218" transform="translate(137.492 31.464)" fill="#161616" fill-rule="evenodd"></path><path id="Path_79059" data-name="Path 79059" d="M108.144,24.54h1.216a1.609,1.609,0,1,0,0-3.218h-1.216a1.609,1.609,0,0,0,0,3.218" transform="translate(137.492 27.517)" fill="#161616" fill-rule="evenodd"></path><path id="Path_79060" data-name="Path 79060" d="M108.144,21.376h1.219a1.609,1.609,0,0,0,0-3.218h-1.219a1.609,1.609,0,0,0,0,3.218" transform="translate(137.492 23.434)" fill="#161616" fill-rule="evenodd"></path><path id="Path_79061" data-name="Path 79061" d="M108.184,41.221h1.127a1.609,1.609,0,0,0,0-3.218h-1.127a1.609,1.609,0,0,0,0,3.218" transform="translate(137.543 49.045)" fill="#161616" fill-rule="evenodd"></path><path id="Path_79062" data-name="Path 79062" d="M108.184,37.977h1.127a1.609,1.609,0,0,0,0-3.218h-1.127a1.609,1.609,0,0,0,0,3.218" transform="translate(137.543 44.859)" fill="#161616" fill-rule="evenodd"></path><path id="Path_79063" data-name="Path 79063" d="M108.188,34.494h1.118a1.609,1.609,0,0,0,0-3.218h-1.118a1.609,1.609,0,0,0,0,3.218" transform="translate(137.549 40.364)" fill="#161616" fill-rule="evenodd"></path><path id="Path_79064" data-name="Path 79064" d="M108.4,53.445h.639a1.609,1.609,0,0,0,0-3.218H108.4a1.609,1.609,0,0,0,0,3.218" transform="translate(137.818 64.821)" fill="#161616" fill-rule="evenodd"></path><path id="Path_79065" data-name="Path 79065" d="M108.184,50.387h1.127a1.609,1.609,0,0,0,0-3.218h-1.127a1.609,1.609,0,0,0,0,3.218" transform="translate(137.543 60.875)" fill="#161616" fill-rule="evenodd"></path><path id="Path_79066" data-name="Path 79066" d="M108.227,47.329h1.028a1.609,1.609,0,0,0,0-3.218h-1.028a1.609,1.609,0,0,0,0,3.218" transform="translate(137.599 56.928)" fill="#161616" fill-rule="evenodd"></path><path id="Path_79067" data-name="Path 79067" d="M108.228,44.272h1.028a1.609,1.609,0,0,0,0-3.218h-1.028a1.609,1.609,0,1,0,0,3.218" transform="translate(137.598 52.983)" fill="#161616" fill-rule="evenodd"></path><path id="Path_79068" data-name="Path 79068" d="M108.47,66.724h.472a1.609,1.609,0,0,0,0-3.218h-.472a1.609,1.609,0,0,0,0,3.218" transform="translate(137.913 81.959)" fill="#161616" fill-rule="evenodd"></path><path id="Path_79069" data-name="Path 79069" d="M108.444,63.666h.531a1.609,1.609,0,0,0,0-3.218h-.531a1.609,1.609,0,0,0,0,3.218" transform="translate(137.879 78.012)" fill="#161616" fill-rule="evenodd"></path><path id="Path_79070" data-name="Path 79070" d="M108.4,60.609h.639a1.609,1.609,0,0,0,0-3.218H108.4a1.609,1.609,0,0,0,0,3.218" transform="translate(137.818 74.067)" fill="#161616" fill-rule="evenodd"></path><path id="Path_79071" data-name="Path 79071" d="M108.4,57.53h.639a1.609,1.609,0,0,0,0-3.218H108.4a1.609,1.609,0,0,0,0,3.218" transform="translate(137.818 70.093)" fill="#161616" fill-rule="evenodd"></path><rect id="Rectangle_30427" data-name="Rectangle 30427" width="269.969" height="9.313" transform="translate(167.986)" fill="#161616"></rect><rect id="Rectangle_30428" data-name="Rectangle 30428" width="2.833" height="2.833" transform="translate(418.846 2.632)" fill="#e1e1e1"></rect><rect id="Rectangle_30429" data-name="Rectangle 30429" width="2.833" height="2.833" transform="translate(423.849 2.632)" fill="#e1e1e1"></rect><rect id="Rectangle_30430" data-name="Rectangle 30430" width="2.833" height="2.833" transform="translate(428.851 2.632)" fill="#e1e1e1"></rect><path id="Path_79072" data-name="Path 79072" d="M250.025,296.144,231.472,30.862,201.511,50.27l-72.531,61.25-2.866,18.231Z" transform="translate(162.759 39.829)" fill="#c4c5c6" fill-rule="evenodd"></path><path id="Path_79073" data-name="Path 79073" d="M496.954,183.807l8.035-43.548L0,140.243l4.244,35.886Z" transform="translate(-0.001 180.993)" fill="#e1e1e1" fill-rule="evenodd"></path><path id="Path_79074" data-name="Path 79074" d="M504.99,152.792l-57.683-18.526L61.062,130.532,0,152.774Z" transform="translate(0 168.461)" fill="#c4c5c6" fill-rule="evenodd"></path><path id="Path_79075" data-name="Path 79075" d="M414.984,146.714l.5-25.826H25.044l3.695,22.093Z" transform="translate(32.321 156.013)" fill="#e1e1e1" fill-rule="evenodd"></path></g></g><g id="Group_61479" data-name="Group 61479" transform="translate(57.365 266.578)"><g id="Group_61478" data-name="Group 61478" clip-path="url(#clip-path-3)"><rect id="Rectangle_30432" data-name="Rectangle 30432" width="390.441" height="10.324" transform="translate(0)" fill="url(#linear-gradient)"></rect></g></g><g id="Group_61511" data-name="Group 61511"><g id="Group_61510" data-name="Group 61510" clip-path="url(#clip-path)"><path id="Path_79077" data-name="Path 79077" d="M42.862,125.812l-1.988-16.737,321.412,1.255L362,125.812Z" transform="translate(52.751 140.768)" fill="#e1e1e1" fill-rule="evenodd"></path><path id="Path_79078" data-name="Path 79078" d="M40.874,111.134l25.274-2.753,271.139-.9,25,4.911Z" transform="translate(52.751 138.708)" fill="#e1e1e1" fill-rule="evenodd"></path><path id="Path_79079" data-name="Path 79079" d="M324.773,115.181l-.039-13.672-274.163.57,1.335,14.048Z" transform="translate(65.266 131.004)" fill="#e1e1e1" fill-rule="evenodd"></path><path id="Path_79080" data-name="Path 79080" d="M301.5,107.429v-9.71L58.014,96.345l.339,11.084Z" transform="translate(74.871 124.339)" fill="#e1e1e1" fill-rule="evenodd"></path><path id="Path_79081" data-name="Path 79081" d="M301.5,98.219l-14.289-1.377L70.48,95.958l-12.465.884Z" transform="translate(74.871 123.84)" fill="#e1e1e1" fill-rule="evenodd"></path><path id="Path_79082" data-name="Path 79082" d="M280.383,102.163V91.835L63.309,92.955l.293,8.324Z" transform="translate(81.704 118.519)" fill="#f5f5f5" fill-rule="evenodd"></path><path id="Path_79083" data-name="Path 79083" d="M261.6,98.477V88.046l-192.944.616.383,11.157Z" transform="translate(88.603 113.629)" fill="#e1e1e1" fill-rule="evenodd"></path><path id="Path_79084" data-name="Path 79084" d="M248.373,86.012l.751,8.631H73.2l-.087-9.717Z" transform="translate(94.353 109.603)" fill="#f5f5f5" fill-rule="evenodd"></path><path id="Path_79085" data-name="Path 79085" d="M233.248,82.14l.231,9.21L76.967,92.585,76.674,82.14Z" transform="translate(98.953 106.008)" fill="#c4c5c6" fill-rule="evenodd"></path><path id="Path_79086" data-name="Path 79086" d="M221.55,80.327l.5,7.786-141.763.664V79.37Z" transform="translate(103.621 102.432)" fill="#e1e1e1" fill-rule="evenodd"></path><path id="Path_79087" data-name="Path 79087" d="M211.081,77.965l.373,6.246L83.227,82.244V77.2Z" transform="translate(107.409 99.626)" fill="#c4c5c6" fill-rule="evenodd"></path><path id="Path_79088" data-name="Path 79088" d="M63.308,93.745l12.545-1.212L268.5,91.223l11.886,1.4Z" transform="translate(81.704 117.729)" fill="#c4c5c6" fill-rule="evenodd"></path><path id="Path_79089" data-name="Path 79089" d="M200.143,81.642v-6.6H86.057v6.576Z" transform="translate(111.062 96.842)" fill="#f5f5f5" fill-rule="evenodd"></path><path id="Path_79090" data-name="Path 79090" d="M324.735,102.418,311.111,100.8l-245.723.868-14.818,1.315Z" transform="translate(65.265 130.096)" fill="#f5f5f5" fill-rule="evenodd"></path><path id="Path_79091" data-name="Path 79091" d="M149.047,109.343l9.57-.793h25.091l-11.047,1.587-.238,16.35-35.941,10.321.831,23.022L94.49,181.161v36.244H8.3l2.52-36.244,87.2-21.71,1.922-22.642,47.575-10.321Z" transform="translate(10.706 140.092)" fill="#f0f0f0" fill-rule="evenodd"></path><path id="Path_79092" data-name="Path 79092" d="M272.117,165.407l-11.89-30.552.763.151-38.9,40.451-.36.376-.238-.46-18.4-35.178.541.014-7.373,12.353-.156.259-.25-.167L145.176,118.81l-.163-.108.115-.16,36.493-50.819,0-.009.007-.007,35.252-32.169.009.025-9.32-1.635,9.325,1.608.03,0-.023.021L181.756,67.843l.011-.014-36.331,50.935-.05-.27,50.789,33.683-.405.092,7.334-12.376.284-.476.259.49,18.508,35.121-.6-.085,38.768-40.575.5-.522.263.673,11.989,30.515Z" transform="translate(187.15 43.787)" fill="#79598a"></path><path id="Path_79093" data-name="Path 79093" d="M229.99,107.5a18.727,18.727,0,1,1-18.728-18.728A18.728,18.728,0,0,1,229.99,107.5" transform="translate(248.482 114.562)" fill="#cb2027" fill-rule="evenodd"></path><path id="Path_79094" data-name="Path 79094" d="M214.166,84.647a11.94,11.94,0,1,1-11.938-11.938,11.938,11.938,0,0,1,11.938,11.938" transform="translate(245.578 93.836)" fill="#cb2027" fill-rule="evenodd"></path><path id="Path_79095" data-name="Path 79095" d="M192.769,100.749a9.132,9.132,0,1,1-9.133-9.132,9.132,9.132,0,0,1,9.133,9.132" transform="translate(225.209 118.238)" fill="#cb2027" fill-rule="evenodd"></path><path id="Path_79096" data-name="Path 79096" d="M182.755,84.9a7.844,7.844,0,1,1-7.845-7.845,7.845,7.845,0,0,1,7.845,7.845" transform="translate(215.611 99.439)" fill="#cb2027" fill-rule="evenodd"></path><path id="Path_79097" data-name="Path 79097" d="M176.88,89.274a6.14,6.14,0,1,1-6.141-6.141,6.142,6.142,0,0,1,6.141,6.141" transform="translate(212.427 107.289)" fill="#cb2027" fill-rule="evenodd"></path><path id="Path_79098" data-name="Path 79098" d="M153.111,73.794a5.1,5.1,0,1,1-5.106-5.106,5.106,5.106,0,0,1,5.106,5.106" transform="translate(184.425 88.646)" fill="#cb2027" fill-rule="evenodd"></path><path id="Path_79099" data-name="Path 79099" d="M167,50.856a3.82,3.82,0,1,1-3.821-3.818A3.818,3.818,0,0,1,167,50.856" transform="translate(205.665 60.706)" fill="#cb2027" fill-rule="evenodd"></path><path id="Path_79100" data-name="Path 79100" d="M204.425,94.42v10.564h-3.562V97.107h-1.812V94.42Z" transform="translate(256.889 121.855)" fill="#e1e1e1"></path><path id="Path_79101" data-name="Path 79101" d="M200.638,81.607v2h-6.143V82.024l2.772-2.563c.525-.492.6-.788.6-1.051,0-.371-.252-.6-.747-.6A1.256,1.256,0,0,0,196,78.52l-1.949-.976a3.521,3.521,0,0,1,3.319-1.773c1.816,0,3.1.941,3.1,2.4a3.02,3.02,0,0,1-1.312,2.442l-1.095,1Z" transform="translate(250.429 97.788)" fill="#e1e1e1"></path><path id="Path_79102" data-name="Path 79102" d="M182.607,98.439c0,1.074-.859,2.146-2.861,2.146a5.313,5.313,0,0,1-2.469-.563l.715-1.555a3.442,3.442,0,0,0,1.681.456c.474,0,.815-.16.815-.483,0-.268-.206-.431-.742-.431h-.834V96.714l.923-.939H177.6V94.183h4.666v1.3l-1.161,1.18a1.779,1.779,0,0,1,1.5,1.78" transform="translate(228.788 121.549)" fill="#e1e1e1"></path><path id="Path_79103" data-name="Path 79103" d="M173.8,83.288h-.616v.8h-1.521v-.8h-2.407v-1l1.97-2.854h1.606l-1.75,2.636h.628v-.71h1.475v.71h.616Z" transform="translate(218.436 102.52)" fill="#e1e1e1"></path><path id="Path_79104" data-name="Path 79104" d="M170.089,87.691c0,.74-.57,1.457-1.9,1.457a3.513,3.513,0,0,1-1.638-.373l.474-1.031a2.236,2.236,0,0,0,1.109.3c.316,0,.545-.112.545-.325,0-.179-.124-.3-.628-.3h-1.2l.208-2.52h2.758v1.056h-1.608l-.03.408h.213c1.228,0,1.7.589,1.7,1.324" transform="translate(214.95 109.573)" fill="#e1e1e1"></path><path id="Path_79105" data-name="Path 79105" d="M147.5,72.592a1.3,1.3,0,0,1-1.443,1.246,1.58,1.58,0,0,1-1.709-1.748,1.837,1.837,0,0,1,1.972-1.972,2.086,2.086,0,0,1,1.1.279l-.433.838a1.065,1.065,0,0,0-.646-.188.723.723,0,0,0-.772.6,1.19,1.19,0,0,1,.708-.2,1.151,1.151,0,0,1,1.219,1.138m-1.159.057a.366.366,0,0,0-.733,0,.367.367,0,0,0,.733,0" transform="translate(186.297 90.492)" fill="#e1e1e1"></path><path id="Path_79106" data-name="Path 79106" d="M72.848,102.553l-.465,1.642v.007l-.053.186s.183,3.967-1.493,5.9a2.858,2.858,0,0,1-1.965,1.026s-.149-.289-.385-.738c-.756-1.377-2.38-4.238-3.179-4.528a17.784,17.784,0,0,0-4.045-.332s-.667-1.168-.554-1.608.939-.834.939-.834l.939-3.124.449-1.475,9-2.22s-.053.6-.105,1.429c-.071.923-.124,2.126-.1,3.09a4.517,4.517,0,0,0,.2,1.58Z" transform="translate(78.332 124.479)" fill="#141314" fill-rule="evenodd"></path><path id="Path_79107" data-name="Path 79107" d="M72.382,103.4l-.053.183s.183,3.97-1.491,5.9l-2.352.289c-.756-1.379-2.38-4.24-3.179-4.528a17.687,17.687,0,0,0-4.045-.334s-.667-1.168-.552-1.606.939-.834.939-.834l.939-3.124,5.257-2.117,4.082-.149c-.071.921-.124,2.123-.1,3.09l-.009.025s-1.335,2.3-7.4,2.362l-1.333.527s7.557,1.509,9.3.307Z" transform="translate(78.333 125.284)" fill="#141314"></path><path id="Path_79108" data-name="Path 79108" d="M75.883,50.814a53.816,53.816,0,0,0-6.8,0,21.168,21.168,0,0,0-5.655,1.718s6.226-2.407,12.211-1.141a1.249,1.249,0,0,0,.243-.577" transform="translate(81.859 65.428)" fill="#ffc09d"></path><path id="Path_79109" data-name="Path 79109" d="M76.442,52.4a24.154,24.154,0,0,0-6.881-.685,12.586,12.586,0,0,0-5.406,1.331,40.733,40.733,0,0,1,6.86-.978c2.579,0,5.426.332,5.426.332" transform="translate(82.796 66.699)" fill="#ffc09d"></path><path id="Path_79110" data-name="Path 79110" d="M69.762,110.477l-3.273-.245-1.94-.142s.211-.428.527-.973c.6-.973,1.571-2.343,2.467-2.352.71,0,1.28.983,1.658,1.94l.009.009a14.444,14.444,0,0,1,.552,1.764" transform="translate(83.305 137.786)" fill="#141314" fill-rule="evenodd"></path><path id="Path_79111" data-name="Path 79111" d="M41.316,139.635l-4.073-.238-1.729-.1a6.927,6.927,0,0,1,.1-.728c.211-1.175.852-3.326,2.7-2.632a4.721,4.721,0,0,1,2.547,2.4,5.573,5.573,0,0,1,.456,1.3" transform="translate(45.833 175.266)" fill="#141314" fill-rule="evenodd"></path><path id="Path_79112" data-name="Path 79112" d="M61.273,132.9c-1.326,9.313-12.692,10.479-12.692,10.479a5.2,5.2,0,0,0-3.257-1.166l-.815.93-1.8,2.062c-4.441,2.556-12.419.449-12.419.449l-.4-2.51v-.378l2.4-4.1,16.071-3.2Z" transform="translate(38.569 171.519)" fill="#141314" fill-rule="evenodd"></path><g id="Group_61484" data-name="Group 61484" transform="translate(144.641 165.381)" opacity="0.91" style="mix-blend-mode: multiply;isolation: isolate"><g id="Group_61483" data-name="Group 61483"><g id="Group_61482" data-name="Group 61482" clip-path="url(#clip-path-5)"><g id="Group_61481" data-name="Group 61481" transform="translate(-0.001)"><g id="Group_61480" data-name="Group 61480" clip-path="url(#clip-path-6)"><rect id="Rectangle_30433" data-name="Rectangle 30433" width="19.179" height="19.403" fill="url(#linear-gradient-2)"></rect></g></g></g></g></g><path id="Path_79114" data-name="Path 79114" d="M80.151,70.322c-.518,3.722-2.423,10.445-4.476,19.17-2.7,11.437-5.213,31.853-5.365,33.117l-.007.062C66.38,100.017,78.729,73.3,80.151,70.322" transform="translate(89.743 90.755)" fill="#141314"></path><g id="Group_61489" data-name="Group 61489" transform="translate(87.895 301.41)" opacity="0.91" style="mix-blend-mode: multiply;isolation: isolate"><g id="Group_61488" data-name="Group 61488"><g id="Group_61487" data-name="Group 61487" clip-path="url(#clip-path-7)"><g id="Group_61486" data-name="Group 61486" transform="translate(0 0.001)"><g id="Group_61485" data-name="Group 61485" clip-path="url(#clip-path-8)"><rect id="Rectangle_30435" data-name="Rectangle 30435" width="0.009" height="0.009" fill="url(#linear-gradient-3)"></rect></g></g></g></g></g><g id="Group_61494" data-name="Group 61494" transform="translate(156.806 239.205)" opacity="0.7" style="mix-blend-mode: screen;isolation: isolate"><g id="Group_61493" data-name="Group 61493"><g id="Group_61492" data-name="Group 61492" clip-path="url(#clip-path-9)"><g id="Group_61491" data-name="Group 61491" transform="translate(-0.001 0.001)"><g id="Group_61490" data-name="Group 61490" clip-path="url(#clip-path-10)"><rect id="Rectangle_30437" data-name="Rectangle 30437" width="10.685" height="2.781" transform="translate(0)" fill="url(#linear-gradient-4)"></rect></g></g></g></g></g><g id="Group_61499" data-name="Group 61499" transform="translate(91.42 303.945)" opacity="0.7" style="mix-blend-mode: screen;isolation: isolate"><g id="Group_61498" data-name="Group 61498"><g id="Group_61497" data-name="Group 61497" clip-path="url(#clip-path-11)"><g id="Group_61496" data-name="Group 61496" transform="translate(-0.001 0)"><g id="Group_61495" data-name="Group 61495" clip-path="url(#clip-path-12)"><rect id="Rectangle_30439" data-name="Rectangle 30439" width="6.874" height="5.9" transform="translate(0)" fill="url(#linear-gradient-5)"></rect></g></g></g></g></g><g id="Group_61504" data-name="Group 61504" transform="translate(70.077 151.642)" opacity="0.91" style="mix-blend-mode: multiply;isolation: isolate"><g id="Group_61503" data-name="Group 61503"><g id="Group_61502" data-name="Group 61502" clip-path="url(#clip-path-13)"><g id="Group_61501" data-name="Group 61501" transform="translate(0 0)"><g id="Group_61500" data-name="Group 61500" clip-path="url(#clip-path-14)"><rect id="Rectangle_30441" data-name="Rectangle 30441" width="98.691" height="137.347" transform="translate(0)" fill="url(#linear-gradient-6)"></rect></g></g></g></g></g><path id="Path_79119" data-name="Path 79119" d="M41.36,140.123c-1.168,1.457-10.823-1.729-10.823-1.729l-.254-5.616,9.98-8.436-.167,4.318s1.125.046,1.246.378-.955,2.414-.955,2.414,2.133,7.215.973,8.672" transform="translate(39.082 160.47)" fill="#141314" fill-rule="evenodd"></path><path id="Path_79120" data-name="Path 79120" d="M40.962,140.123c-1.168,1.457-10.823-1.729-10.823-1.729l-.254-5.616,9.98-8.436-.167,4.318a18.8,18.8,0,0,1-6.714,6.936c.421-.195,7.1-3.363,7.96-6.558.133.334-.955,2.414-.955,2.414s2.133,7.215.973,8.672" transform="translate(38.569 160.47)" fill="#141314"></path><path id="Path_79121" data-name="Path 79121" d="M86.521,55.946s.447.667.22,1.019a15.807,15.807,0,0,1-3.434.85l-.025.009c-.053.009-.183.044-.369.08-.087.025-.176.044-.263.06l-.131.027c-1.361.316-2.95.719-4.618,1.264a30.071,30.071,0,0,0-8.6,4.817l.983.334a30,30,0,0,0,4.249-.948,16.749,16.749,0,0,0,2.554-1.535s3.292-.334,4.73,1.308l-.44,1.2a15.44,15.44,0,0,0-6.95,1.246,54.317,54.317,0,0,1-6.672,2.808.768.768,0,0,1-.316-.044,5.268,5.268,0,0,1-.58-.22c-.105-.053-.227-.105-.35-.167-1.035-.483-2.449-1.3-3.475-1.816-.158-.08-.3-.149-.431-.211-.044-.018-.08-.034-.115-.053-.105-.044-.192-.087-.282-.115l-.007-.009a.85.85,0,0,0-.22-.069.387.387,0,0,0-.158-.037,8.565,8.565,0,0,0-1.807.474c-.889.291-1.906.667-2.643.939-.614.229-1.026.4-1.026.4L58.1,59.808s.254-.087.66-.229c.121-.044.254-.087.394-.131.124-.034.245-.08.387-.133.955-.323,2.149-.754,2.824-1.026,1.248-.509,7.937-7.689,9.559-8.39a25.676,25.676,0,0,1,5.69-.967,1.574,1.574,0,0,1-.229,1.019,32.879,32.879,0,0,1-3.363,1.528h-.009a13.7,13.7,0,0,0-1.658.781,13.187,13.187,0,0,0-1.544,1.684,21.231,21.231,0,0,1,5.179-2.22c.174-.044.35-.08.527-.115,2.666-.474,8.452.465,8.452.465s.273,1.193-.186,1.6A9.13,9.13,0,0,1,87,54.3c.385.307.087,1.315-.483,1.649" transform="translate(72.717 63.15)" fill="#ffc09d" fill-rule="evenodd"></path><g id="Group_61509" data-name="Group 61509" transform="translate(130.088 121.65)" opacity="0.91" style="mix-blend-mode: multiply;isolation: isolate"><g id="Group_61508" data-name="Group 61508"><g id="Group_61507" data-name="Group 61507" clip-path="url(#clip-path-15)"><g id="Group_61506" data-name="Group 61506" transform="translate(0 0)"><g id="Group_61505" data-name="Group 61505" clip-path="url(#clip-path-16)"><rect id="Rectangle_30443" data-name="Rectangle 30443" width="9.557" height="7.322" transform="translate(-1.481 8.402) rotate(-80)" fill="url(#linear-gradient-7)"></rect></g></g></g></g></g><path id="Path_79123" data-name="Path 79123" d="M81.159,57.447c-1.361.316-2.95.719-4.618,1.264a30.049,30.049,0,0,0-8.6,4.819S65.931,66.6,66.08,67.9a5.1,5.1,0,0,1-.58-.22c-.105-.053-.229-.105-.353-.167-1.035-.483-2.449-1.3-3.475-1.816-.149-.078-.3-.149-.431-.211-.044-.018-.078-.034-.115-.053-.105-.044-.192-.087-.279-.115l-.009-.009c-.078-.025-.149-.053-.22-.069a.387.387,0,0,0-.158-.037,8.873,8.873,0,0,0-1.807.474L57.4,59.036c.124-.046.254-.089.394-.133.124-.044.254-.087.387-.131.957-.325,2.151-.756,2.827-1.028,1.246-.509,7.935-7.689,9.559-8.39l-.6.877,1.782.465.9.238A13.351,13.351,0,0,0,71,51.716,13.066,13.066,0,0,0,69.45,53.4a21.231,21.231,0,0,1,5.179-2.22c.009.483.087,1.509.527,1.686,0,0,.009,1.842.641,2.176,0,0,.025,2.545,1.64,2.74a14.084,14.084,0,0,0,3.722-.334" transform="translate(74.077 63.695)" fill="#ffc09d"></path></g></g><g id="Group_61513" data-name="Group 61513" transform="translate(129.177 121.556)"><g id="Group_61512" data-name="Group 61512" clip-path="url(#clip-path-17)"><rect id="Rectangle_30446" data-name="Rectangle 30446" width="6.194" height="11.182" transform="translate(-0.726 0.049) rotate(-3.848)" fill="url(#linear-gradient-8)"></rect></g></g><g id="Group_61518" data-name="Group 61518"><g id="Group_61517" data-name="Group 61517" clip-path="url(#clip-path)"><path id="Path_79125" data-name="Path 79125" d="M55.863,53.032l6.977.179s0,8.787-3.136,12.536l-6.152.415s1.881-9.6,2.311-13.13" transform="translate(69.112 68.441)" fill="#cb2027" fill-rule="evenodd"></path><path id="Path_79126" data-name="Path 79126" d="M92.906,104.584l-.009.009a5.874,5.874,0,0,1-.245.589c-3.942,8.583-16.7,8.109-16.7,8.109s-1.292-1.745-1.887-1.658c-.35.044-.948.8-1.388,1.413-.316.447-.552.825-.552.825-4.073,1.58-11.638,0-11.638,0l-.728-2.852,11.7-4.6,5.582-.474Z" transform="translate(77.118 134.973)" fill="#141314" fill-rule="evenodd"></path><path id="Path_79127" data-name="Path 79127" d="M131.851,75.945c-.518,3.722-2.423,10.445-4.476,19.17-2.7,11.437-5.213,31.853-5.365,33.117l-.007.062s-4.819,3.239-5.733,4.15a43.065,43.065,0,0,0-3.317,5.47v.007l-.009.018c-3.995,4.318-11.173,2.4-11.173,2.4l.282-1.1c2.772-6.205,3.763-36.26,4.544-39.586S114.6,85.178,114.6,85.178c-4.485.465-25.192,4.943-25.192,4.943-4.492,1.166-17.289,7-17.289,7-1.546,10.523-9.446,34.872-14.08,48.608v.009c-.6,1.8-1.15,3.413-1.624,4.792,0,0-.016.044-.044.14-1.063,3.108-1.72,4.968-1.72,4.968-4.125,11.263-8.848,41.8-9.277,44.643-.009.069-.027.14-.037.208a11.955,11.955,0,0,0-3.326,1.168,9.8,9.8,0,0,0-2.045,2.194c-.877,1.177-1.615,2.343-1.615,2.343-2.774,2.5-7.566,2.231-7.566,2.231l-.254-1.729c-2.827-21.453.834-49.057,1.5-50.392.614-1.219,4.063-4.581,6.679-9.277.229-.387.44-.79.641-1.193,2.659-5.328,9.435-48.32,9.435-48.32l-1.212-2.827L50,80.606,85.754,67.4a28.664,28.664,0,0,1,3.862-.886c.245-.046.49-.08.744-.115a.349.349,0,0,0,.062-.009c13.876-1.913,34.031,3.161,39.805,5.758a.076.076,0,0,1,.044.016c.9.415,1.441.756,1.546,1a6.184,6.184,0,0,1,.034,2.783" transform="translate(38.042 85.132)" fill="#141314" fill-rule="evenodd"></path><path id="Path_79128" data-name="Path 79128" d="M61.564,139.583c-1.106,7.206-11.973,9.742-11.973,9.742s-.5-.261-1.175-.561a6.211,6.211,0,0,0-2.975-.772A15.283,15.283,0,0,0,43.166,149c-.825.428-1.509.825-1.509.825a25.861,25.861,0,0,1-11.48,0,6.683,6.683,0,0,1-.5-2.659c.133-1.168,1.67-13.141,1.67-13.141s5.836-.1,7.662-1.6c.421-.341,2.16,2.74,2.439,2.272.93-1.562-.245-6.977-.245-6.977s5.083,6.258,8.418,8.848h.009v.007a5.98,5.98,0,0,0,1.684,1.01,11.584,11.584,0,0,0,6.32-.227,5.059,5.059,0,0,1,3.933,2.22" transform="translate(38.277 164.838)" fill="#fff" fill-rule="evenodd"></path><g id="Group_61516" data-name="Group 61516" transform="translate(76.757 151.528)" opacity="0.91" style="mix-blend-mode: multiply;isolation: isolate"><g id="Group_61515" data-name="Group 61515"><g id="Group_61514" data-name="Group 61514" clip-path="url(#clip-path-19)"><path id="Path_79129" data-name="Path 79129" d="M74.22,80c-2.318,4.336-2.405,5.775-2.405,5.775s7.293,3.548,12.394,4.1c-4.494,1.168-17.291,7-17.291,7-1.546,10.523-9.444,34.872-14.08,48.608v.009a131.582,131.582,0,0,0-19.328,1.29c.229-.385.44-.79.641-1.193,2.659-5.328,9.435-48.32,9.435-48.32l-1.209-2.827L44.8,80.364l35.751-13.21a29.02,29.02,0,0,1,3.862-.886c.245-.044.49-.078.747-.115l-.037.115-1.255.738s-7.328,8.663-9.646,13" transform="translate(-33.51 -66.153)" fill="#935b9d"></path></g></g></g><path id="Path_79130" data-name="Path 79130" d="M92.985,110.607a4.494,4.494,0,0,1-.254.6,11.377,11.377,0,0,1-5.064,4.783c-4.187,2.176-11.867,1.773-11.867,1.773s-.131-.087-.325-.211l-.009-.009a5.966,5.966,0,0,0-1.324-.719c-.167.053-1.993,1-1.993,1-.263.053-.536.1-.809.131a32.192,32.192,0,0,1-11.506-.912c-.886-5.213,2.721-15.8,2.721-15.8s4.448-1.219,6.23-.552,2.749,3.44,3.75,3.44c.788,0,1.088-4.212,1.088-4.212a38.68,38.68,0,0,0,5.037,5.933,8.938,8.938,0,0,0,2.765,1.826,31.468,31.468,0,0,0,8.567,1.106,3.354,3.354,0,0,1,2.994,1.826" transform="translate(77.039 128.95)" fill="#fff" fill-rule="evenodd"></path><path id="Path_79131" data-name="Path 79131" d="M58.36,25.058a28.046,28.046,0,0,0,1.173,3.051,4.056,4.056,0,0,1,.623,1.386A2.174,2.174,0,0,1,58.63,31.24c-1.219.332-.27-6.182-.27-6.182" transform="translate(74.864 32.339)" fill="#f4c5ae" fill-rule="evenodd"></path><path id="Path_79132" data-name="Path 79132" d="M75.984,33.474s-1.333,3.273-1.28,4.441.7,2.923.692,3.537c-.044,2.73-1.271,9.611-4.9,13.578-.192.22-.4.421-.614.623a20.421,20.421,0,0,1-7.153-2.5v1.493s-2.256-.018-5.294.183c-3.791.263-8.8.886-12.131,2.371A31.92,31.92,0,0,0,46.958,54a28.407,28.407,0,0,0,1.974-5.706,16.732,16.732,0,0,0,.289-1.764v-.009a12.941,12.941,0,0,0,.062-2.036,16.067,16.067,0,0,0-1.15-4.975A31.346,31.346,0,0,1,45.3,27.6s6.233-9.98,13.553-12.559,16.687,9.013,16.687,9.013a35.358,35.358,0,0,1,.447,9.419" transform="translate(58.459 18.932)" fill="#ffc09d" fill-rule="evenodd"></path><path id="Path_79133" data-name="Path 79133" d="M69.562,44.648l1.457.957L56.5,44.447l-10.479-.834A28.508,28.508,0,0,0,48,37.907a16.83,16.83,0,0,0,.289-1.764v-.009l15.2-4.5s-.192-5.021,1.221-6.9a5.306,5.306,0,0,1,3.626-2.018c-2.494.921-3.644,5.371-3.644,5.371l2.538-.387a7.4,7.4,0,0,1,2.554-3.159,10.625,10.625,0,0,1-1.283,7.25c.211-.078,3.328-1.246,3.908,1.063.6,2.387-3.239,11.533-3.239,11.533Z" transform="translate(59.394 29.314)" fill="#ffc09d"></path><path id="Path_79134" data-name="Path 79134" d="M61.028,23.754a25.164,25.164,0,0,0-2.382,4.492,1.877,1.877,0,0,0,2.272-.055l-1.274,4.435L56.967,33.8S58.7,22.32,60.476,18.767a27.285,27.285,0,0,1,.552,4.987" transform="translate(73.52 24.22)" fill="#f4c5ae"></path><path id="Path_79135" data-name="Path 79135" d="M55.8,26.67a8.047,8.047,0,0,0-.9,4.407s.4-3.076,1.773-4.407c0,0-.545,1.413,0,2.2,0,0,2.444-2.494,1.681-5.365A9.344,9.344,0,0,0,55.8,26.67" transform="translate(70.818 30.34)" fill="#f4c5ae"></path><path id="Path_79136" data-name="Path 79136" d="M61.132,40.055l.4-6.636s-4.609-.973-14.2,1.773a14.458,14.458,0,0,0,.35-3.809,15.968,15.968,0,0,0-1.15-4.977l3.653-1.587,13.436,4.318s.465,2.687,2.036,2.423c0,0-.227,6.118,2.625,11a20.421,20.421,0,0,1-7.153-2.5" transform="translate(60.055 32.029)" fill="#ffc09d"></path><path id="Path_79137" data-name="Path 79137" d="M78.141,30.818a25.475,25.475,0,0,0-.552-4.987s-1.335,4.987-2.389,9.034A44.4,44.4,0,0,0,73.929,42.4l-.607.334s.772-6.821-.5-7.82-6.214,1.668-5.548,9.091c0,0-8.093,4.435-16.536,4.283a6.926,6.926,0,0,0-.062-2.991c-.781-3.573-5.241-10.1-4.739-21.243l-2.231-1.571c.254.089,2.87.914,8.551-2.036,5.985-3.106,14.8-7.318,16.018-7.153s5.548,3.995,5.548,3.995,5.424,3.273,6.425,4.494-2.107,9.032-2.107,9.032" transform="translate(56.407 17.155)" fill="#2d2a2c" fill-rule="evenodd"></path></g></g><g id="Group_61520" data-name="Group 61520" transform="translate(121.686 45.624)"><g id="Group_61519" data-name="Group 61519" clip-path="url(#clip-path-20)"><rect id="Rectangle_30449" data-name="Rectangle 30449" width="10.118" height="12.856" transform="translate(-1.407 7.98) rotate(-80)" fill="url(#linear-gradient-9)"></rect></g></g><g id="Group_61522" data-name="Group 61522" transform="translate(127.491 43.587)"><g id="Group_61521" data-name="Group 61521" clip-path="url(#clip-path-21)"><rect id="Rectangle_30450" data-name="Rectangle 30450" width="5.399" height="7.006" transform="matrix(0.174, -0.985, 0.985, 0.174, -0.746, 4.232)" fill="url(#linear-gradient-10)"></rect></g></g><g id="Group_61524" data-name="Group 61524"><g id="Group_61523" data-name="Group 61523" clip-path="url(#clip-path)"><path id="Path_79140" data-name="Path 79140" d="M63.084,17.288a43.559,43.559,0,0,0-11.059-1.276s4.46-1.386,5.513-2.717c0,0,2.162.722,5.545,3.992" transform="translate(67.142 17.159)" fill="#2d2a2c"></path><path id="Path_79141" data-name="Path 79141" d="M79.014,18.867a3.889,3.889,0,0,1-.669,2.877,22.411,22.411,0,0,0-4.32-4.327,13.681,13.681,0,0,0-4.73-1.862,14.3,14.3,0,0,1,4.865,3.081,17.761,17.761,0,0,1-12.167,6.031s2.746-1.624,3.493-3.239a34.278,34.278,0,0,0-10.97,3.784s-2.872-1.956-3.372-3.081l.747-2.034-2.662,2a12.242,12.242,0,0,1-4.526-.955c-.5,11.137,3.958,17.667,4.739,21.24a6.951,6.951,0,0,1,.062,3c8.441.149,16.533-4.286,16.533-4.286C65.371,33.667,70.312,31,71.585,32s.5,7.818.5,7.818l.607-.334a44.713,44.713,0,0,1,1.271-7.538c1.056-4.047,2.391-9.029,2.391-9.029A25.516,25.516,0,0,1,76.9,27.9s3.111-7.811,2.11-9.029M65.268,27.125a15.141,15.141,0,0,1-4.425-.719c4.721-.4,6.214-1.94,6.214-1.94s-.238,2.492-1.789,2.659" transform="translate(57.642 20.075)" fill="#161616"></path><path id="Path_79142" data-name="Path 79142" d="M50.6,17.233a4.121,4.121,0,0,1,3.273-2.023c2.453-.291,7.453.843,7.453.843s-9.023.763-10.727,1.18" transform="translate(65.298 19.569)" fill="#2d2a2c"></path><path id="Path_79143" data-name="Path 79143" d="M50.324,17.575s8.551-2.018,9.41-4.276c0,0-1.78-.309-9.41,4.276" transform="translate(64.947 17.157)" fill="#2d2a2c"></path><path id="Path_79144" data-name="Path 79144" d="M55.722,20.58s-1.832,2.614-3.493,3.239c0,0,10.193-1.044,12.165-6.031a4.679,4.679,0,0,0-4.311-1.493c-2.7.5-4.361,4.286-4.361,4.286" transform="translate(67.405 20.926)" fill="#2d2a2c"></path><path id="Path_79145" data-name="Path 79145" d="M43.707,19.491a8.069,8.069,0,0,0,6.759,2.529l5.408-6.4s-8.241,4.913-12.167,3.876" transform="translate(56.407 20.152)" fill="#2d2a2c"></path><path id="Path_79146" data-name="Path 79146" d="M54.164,13.991s8.127,2.65,11.9,8.443l-1.438,6.152s2.856-4.987,2.3-8.988c0,0-3.017-5.174-12.765-5.607" transform="translate(69.902 18.056)" fill="#2d2a2c"></path><path id="Path_79147" data-name="Path 79147" d="M33.061,80.248a75.92,75.92,0,0,0,15.578-2.068c7.208-1.917,2.33-11.341,2.33-11.341l-4.989-.873Z" transform="translate(42.667 85.134)" fill="#cb2027" fill-rule="evenodd"></path><path id="Path_79148" data-name="Path 79148" d="M95.22,57.752A106.447,106.447,0,0,1,88,73.419C84.784,78.958,81.65,97.03,82.15,98.444c.4,1.116,2.142,2.65,2.932,3.695l.1.124a1.694,1.694,0,0,1,.3.589c.165.921-2.082,3.747-1.993,4.247a13.981,13.981,0,0,0,1.113,2.055c.405.676.843,1.395,1.2,1.974l.018.027c.431.685.738,1.175.738,1.175l-4.987.229c-11.753,13.631-37.7,13.244-37.7,13.244l.667-7.811c-3.66,3.878-11.822,7.811-11.822,7.811s13-26.639,12.841-43.72c-.009-.227-.009-.36-.009-.36a25.516,25.516,0,0,0-.238-3.152c-2.325-16.632-1.491-32.318-.992-32.817s.554-.334,4.547-1.993a24.115,24.115,0,0,0,2.346-1.177l.158-.078.007-.009a98.7,98.7,0,0,0,8.576-5.669V33.833c8.312-5.2,19.012-1.72,19.012-1.72a79.954,79.954,0,0,1,19.678,2.272c1.37,7.2-.728,15.968-3.422,23.366" transform="translate(42.223 39.971)" fill="#cb2027" fill-rule="evenodd"></path><path id="Path_79149" data-name="Path 79149" d="M38.044,115.653l-.211-.108c4.7-9.105,6.022-24.005,7.3-38.415.671-7.538,1.3-14.657,2.4-20.43,3.129-16.474,9.68-23.8,9.746-23.875l.174.16c-.066.073-6.572,7.357-9.687,23.758-1.095,5.761-1.727,12.875-2.4,20.407-1.283,14.433-2.611,29.358-7.33,38.5" transform="translate(48.826 42.364)" fill="#e1e1e1"></path></g></g><g id="Group_61526" data-name="Group 61526" transform="translate(103.754 69.649)"><g id="Group_61525" data-name="Group 61525" clip-path="url(#clip-path-23)"><rect id="Rectangle_30452" data-name="Rectangle 30452" width="17.434" height="3.649" transform="translate(0 -0.367)" fill="url(#linear-gradient-11)"></rect></g></g><g id="Group_61577" data-name="Group 61577"><g id="Group_61576" data-name="Group 61576" clip-path="url(#clip-path)"><path id="Path_79151" data-name="Path 79151" d="M94.415,89.86s.873,11.192-1.952,18.934l-4.093.268s-4.045,15.294-9.533,21.967c0,0-24.4-1.846-44.313-7.318l-6.455-5.243s6.07-27.53,11.888-41.1c0,0,28.79,9.93,54.458,12.5" transform="translate(36.225 99.845)" fill="#fff" fill-rule="evenodd"></path><g id="Group_61529" data-name="Group 61529" transform="translate(76.183 177.21)" opacity="0.7"><g id="Group_61528" data-name="Group 61528"><g id="Group_61527" data-name="Group 61527" clip-path="url(#clip-path-25)"><path id="Path_79152" data-name="Path 79152" d="M33.259,77.365S59.353,86.083,76.367,86.3c0,0,3.986,1.294,11.35,3.562,0,0-23.806-1.771-45.069-9.126Z" transform="translate(-33.26 -77.365)" fill="#c4c5c6" fill-rule="evenodd"></path></g></g></g><g id="Group_61532" data-name="Group 61532" transform="translate(112.592 176.053)" opacity="0.7"><g id="Group_61531" data-name="Group 61531"><g id="Group_61530" data-name="Group 61530" clip-path="url(#clip-path-26)"><path id="Path_79153" data-name="Path 79153" d="M49.155,78.067s2.742,2.169.967,9.311a4.705,4.705,0,0,0,3.617.282s.133-7.841-.728-10.8Z" transform="translate(-49.155 -76.86)" fill="#c4c5c6" fill-rule="evenodd"></path></g></g></g><path id="Path_79154" data-name="Path 79154" d="M34.524,123.71S44.3,98.821,47.571,81.628l1.919,1.3s1.031,11.059-.172,18.137l1.436,1.129S52.108,86.8,49.346,80.734l-9.389-3.369s-4.909,10.31-11.888,41.1Z" transform="translate(36.225 99.845)" fill="#fff" fill-rule="evenodd"></path><g id="Group_61535" data-name="Group 61535" transform="translate(91.987 170.092)" opacity="0.7"><g id="Group_61534" data-name="Group 61534"><g id="Group_61533" data-name="Group 61533" clip-path="url(#clip-path-27)"><path id="Path_79155" data-name="Path 79155" d="M40.159,85.867s.518.882,4.448,1.535c0,0,3.3-6.013,5.768-7.385l.041-5.758s-6.993,5.41-10.257,11.609" transform="translate(-40.159 -74.258)" fill="#c4c5c6" fill-rule="evenodd"></path></g></g></g><path id="Path_79156" data-name="Path 79156" d="M86.543,110.769l-46.583,3.44-5.433,7.1-6.457-5.243,5.2-20.879s-1.377,13.15-.5,13.494c2.327.914,8.28-9.165,10.461-15.088a125.874,125.874,0,0,0,4.338-14.366l1.922,1.3a77.442,77.442,0,0,1-.174,18.137l1.438,1.127A193.6,193.6,0,0,0,88.37,106.66Z" transform="translate(36.225 102.246)" fill="#141314" fill-rule="evenodd"></path><g id="Group_61538" data-name="Group 61538" transform="translate(105.393 203.229)" opacity="0.7"><g id="Group_61537" data-name="Group 61537"><g id="Group_61536" data-name="Group 61536" clip-path="url(#clip-path-28)"><path id="Path_79157" data-name="Path 79157" d="M47.219,88.724l4.792,1.081a13.144,13.144,0,0,1-1.45,6.471l-4.549-.838V94.155l.827-5.067Z" transform="translate(-46.012 -88.725)" fill="#c4c5c6" fill-rule="evenodd"></path></g></g></g><g id="Group_61541" data-name="Group 61541" transform="translate(105.393 203.229)" opacity="0.7"><g id="Group_61540" data-name="Group 61540"><g id="Group_61539" data-name="Group 61539" clip-path="url(#clip-path-29)"><path id="Path_79158" data-name="Path 79158" d="M47.219,88.724a9.414,9.414,0,0,1-1.207,6.714V94.155l.827-5.067Z" transform="translate(-46.012 -88.725)" fill="#c4c5c6" fill-rule="evenodd"></path></g></g></g><path id="Path_79159" data-name="Path 79159" d="M46.614,88.782s.14,2.73,1.18,3.34a3,3,0,0,0,2.856.3c.6-.4.589-2.568.589-2.568Z" transform="translate(60.159 114.579)" fill="#e1e1e1" fill-rule="evenodd"></path><g id="Group_61544" data-name="Group 61544" transform="translate(98.072 215.965)" opacity="0.7"><g id="Group_61543" data-name="Group 61543"><g id="Group_61542" data-name="Group 61542" clip-path="url(#clip-path-30)"><path id="Path_79160" data-name="Path 79160" d="M46.7,94.284l-3.88,5.525,4.989.845,3.021-4.838Z" transform="translate(-42.815 -94.284)" fill="#c4c5c6" fill-rule="evenodd"></path></g></g></g><g id="Group_61547" data-name="Group 61547" transform="translate(101.085 215.965)" opacity="0.7"><g id="Group_61546" data-name="Group 61546"><g id="Group_61545" data-name="Group 61545" clip-path="url(#clip-path-31)"><path id="Path_79161" data-name="Path 79161" d="M44.131,98.731a14.5,14.5,0,0,0,2.6-4.446l3.186.925a7.871,7.871,0,0,1-2.137,4.217Z" transform="translate(-44.131 -94.283)" fill="#c4c5c6" fill-rule="evenodd"></path></g></g></g><path id="Path_79162" data-name="Path 79162" d="M47.021,94.284H45.292l-1.388,4.2.52.247s2.3-2.362,2.6-4.446" transform="translate(56.661 121.68)" fill="#e1e1e1" fill-rule="evenodd"></path><g id="Group_61552" data-name="Group 61552" transform="translate(119.292 186.144)" opacity="0.7" style="mix-blend-mode: screen;isolation: isolate"><g id="Group_61551" data-name="Group 61551"><g id="Group_61550" data-name="Group 61550" clip-path="url(#clip-path-32)"><g id="Group_61549" data-name="Group 61549" transform="translate(0.001 -0.001)"><g id="Group_61548" data-name="Group 61548" clip-path="url(#clip-path-33)"><rect id="Rectangle_30460" data-name="Rectangle 30460" width="11.959" height="22.764" fill="url(#linear-gradient-12)"></rect></g></g></g></g></g><g id="Group_61557" data-name="Group 61557" transform="translate(114.888 208.907)" opacity="0.7" style="mix-blend-mode: screen;isolation: isolate"><g id="Group_61556" data-name="Group 61556"><g id="Group_61555" data-name="Group 61555" clip-path="url(#clip-path-34)"><g id="Group_61554" data-name="Group 61554" transform="translate(0 0)"><g id="Group_61553" data-name="Group 61553" clip-path="url(#clip-path-35)"><rect id="Rectangle_30462" data-name="Rectangle 30462" width="9.707" height="21.967" transform="translate(0 0)" fill="url(#linear-gradient-13)"></rect></g></g></g></g></g><g id="Group_61562" data-name="Group 61562" transform="translate(125.585 104.535)" opacity="0.91" style="mix-blend-mode: multiply;isolation: isolate"><g id="Group_61561" data-name="Group 61561"><g id="Group_61560" data-name="Group 61560" clip-path="url(#clip-path-36)"><g id="Group_61559" data-name="Group 61559" transform="translate(0 0)"><g id="Group_61558" data-name="Group 61558" clip-path="url(#clip-path-37)"><rect id="Rectangle_30464" data-name="Rectangle 30464" width="1.242" height="1.828" transform="translate(-0.165 0.935) rotate(-80)" fill="url(#linear-gradient-14)"></rect></g></g></g></g></g><g id="Group_61567" data-name="Group 61567" transform="translate(74.94 81.537)" opacity="0.91" style="mix-blend-mode: multiply;isolation: isolate"><g id="Group_61566" data-name="Group 61566"><g id="Group_61565" data-name="Group 61565" clip-path="url(#clip-path-38)"><g id="Group_61564" data-name="Group 61564" transform="translate(0 0)"><g id="Group_61563" data-name="Group 61563" clip-path="url(#clip-path-39)"><rect id="Rectangle_30466" data-name="Rectangle 30466" width="94.191" height="76.248" transform="translate(-14.471 82.071) rotate(-80)" fill="url(#linear-gradient-15)"></rect></g></g></g></g></g><g id="Group_61572" data-name="Group 61572" transform="translate(93.601 70.943)" opacity="0.91" style="mix-blend-mode: multiply;isolation: isolate"><g id="Group_61571" data-name="Group 61571"><g id="Group_61570" data-name="Group 61570" clip-path="url(#clip-path-40)"><g id="Group_61569" data-name="Group 61569" transform="translate(0.001 -0.001)"><g id="Group_61568" data-name="Group 61568" clip-path="url(#clip-path-41)"><rect id="Rectangle_30468" data-name="Rectangle 30468" width="18.447" height="29.574" transform="matrix(0.174, -0.985, 0.985, 0.174, -2.371, 11.107)" fill="url(#linear-gradient-16)"></rect></g></g></g></g></g><g id="Group_61575" data-name="Group 61575" transform="translate(69.37 249.548)" opacity="0.91" style="mix-blend-mode: multiply;isolation: isolate"><g id="Group_61574" data-name="Group 61574"><g id="Group_61573" data-name="Group 61573" clip-path="url(#clip-path-42)"><path id="Path_79168" data-name="Path 79168" d="M44.493,108.946s-6.434,30.148-14.208,43.7c0,0,12.245-35.6,14.208-43.7" transform="translate(-30.285 -108.946)" fill="#93789d"></path></g></g></g><path id="Path_79169" data-name="Path 79169" d="M59.362,66.394a64.859,64.859,0,0,0-6.443,8.15s25.57,1.01,48.645-1.5c0,0-15.64-8.8-42.2-6.654" transform="translate(68.296 85.249)" fill="#141314"></path><path id="Path_79170" data-name="Path 79170" d="M47.48,102.886a1.164,1.164,0,0,0-.044.14c-1.063,3.108-1.72,4.968-1.72,4.968-4.125,11.263-8.848,41.8-9.279,44.643-.007.069-.025.14-.034.211,0,0,1.457-34.62,6.022-44.054,0,0,2.105-4.7,5.055-5.907" transform="translate(46.981 132.781)" fill="#141314"></path><path id="Path_79171" data-name="Path 79171" d="M60.245,83.988,58.832,86.51l-.369.655-2.8-.261-.967-.431L49.5,86.324l-.79.648-3.424-.325-.955-1.033.939-.529.044-5.758-1.2-3a40.727,40.727,0,0,1,1.931-4.918l3.01-1.081,8.709,1.564s2.57,6.856,2.483,12.094" transform="translate(56.931 90.764)" fill="#ffc09d" fill-rule="evenodd"></path><path id="Path_79172" data-name="Path 79172" d="M59.416,85.464l-.953,1.7-2.8-.261-.967-.433L49.5,86.32l-.79.651-3.422-.325-.957-1.035.939-.527.044-5.758-1.2-3a41.53,41.53,0,0,1,1.931-4.916l3.01-1.079,8.709,1.562s-2.1,2.325-9.357,2.721l-1.221.394V85.285l2.08.369.387-.369h6.013l.889.614Z" transform="translate(56.931 90.766)" fill="#ffc09d"></path></g></g><g id="Group_61579" data-name="Group 61579" transform="translate(102.265 160.802)"><g id="Group_61578" data-name="Group 61578" clip-path="url(#clip-path-43)"><rect id="Rectangle_30472" data-name="Rectangle 30472" width="12.8" height="3.184" transform="translate(0)" fill="url(#linear-gradient-17)"></rect></g></g><g id="Group_61602" data-name="Group 61602"><g id="Group_61601" data-name="Group 61601" clip-path="url(#clip-path)"><path id="Path_79174" data-name="Path 79174" d="M82.6,52.03S72.036,62.608,65.884,76.571c-.369.843-.719,1.711-1.054,2.625-3.459,9.444-4.879,22.486-4.16,36.864v.053c.044.79.087,1.59.14,2.387,0,0-8.855,3.66-15.026,1.887,0,0-4.872-25.945-.325-39.031l.009-.018c.053-.062.254-.334.57-.79.078-.115.176-.245.279-.387,2.563-3.695,10.156-15.377,11.666-26.525,0,0,7.163-18.37,20.874-20.952v-.007a17.7,17.7,0,0,1,5.846-.105A39.2,39.2,0,0,1,82.6,52.03" transform="translate(56.164 41.787)" fill="#cb2027" fill-rule="evenodd"></path><g id="Group_61584" data-name="Group 61584" transform="translate(111.142 119.746)" opacity="0.8" style="mix-blend-mode: multiply;isolation: isolate"><g id="Group_61583" data-name="Group 61583"><g id="Group_61582" data-name="Group 61582" clip-path="url(#clip-path-45)"><g id="Group_61581" data-name="Group 61581" transform="translate(0.001 0)"><g id="Group_61580" data-name="Group 61580" clip-path="url(#clip-path-46)"><rect id="Rectangle_30473" data-name="Rectangle 30473" width="41.745" height="17.36" transform="matrix(0.174, -0.985, 0.985, 0.174, -7.368, 39.318)" fill="url(#linear-gradient-18)"></rect></g></g></g></g></g><g id="Group_61589" data-name="Group 61589" transform="translate(111.156 138.002)" opacity="0.8" style="mix-blend-mode: multiply;isolation: isolate"><g id="Group_61588" data-name="Group 61588"><g id="Group_61587" data-name="Group 61587" clip-path="url(#clip-path-47)"><g id="Group_61586" data-name="Group 61586" transform="translate(0.001 0)"><g id="Group_61585" data-name="Group 61585" clip-path="url(#clip-path-48)"><rect id="Rectangle_30475" data-name="Rectangle 30475" width="22.957" height="9.599" transform="matrix(0.174, -0.985, 0.985, 0.174, -3.811, 21.613)" fill="url(#linear-gradient-19)"></rect></g></g></g></g></g><path id="Path_79177" data-name="Path 79177" d="M79.393,32.772s-4.146-3.7-16.272,8.111S47.634,73.8,47.634,73.8s7.99-.825,18.162-9.242S78.758,47.367,78.758,47.367s2.3-10.94.634-14.6" transform="translate(61.475 41.587)" fill="#cb2027"></path><g id="Group_61592" data-name="Group 61592" transform="translate(101.623 114.386)" opacity="0.91" style="mix-blend-mode: multiply;isolation: isolate"><g id="Group_61591" data-name="Group 61591"><g id="Group_61590" data-name="Group 61590" clip-path="url(#clip-path-49)"><path id="Path_79178" data-name="Path 79178" d="M44.366,58.694s2.462.928,6.5-1.585a11.707,11.707,0,0,0,4.89-7.147s-6.283-.916-11.386,8.732" transform="translate(-44.366 -49.937)" fill="#935b9d"></path></g></g></g><g id="Group_61597" data-name="Group 61597" transform="translate(100.878 140.017)" opacity="0.8" style="mix-blend-mode: multiply;isolation: isolate"><g id="Group_61596" data-name="Group 61596"><g id="Group_61595" data-name="Group 61595" clip-path="url(#clip-path-50)"><g id="Group_61594" data-name="Group 61594" transform="translate(0 0.001)"><g id="Group_61593" data-name="Group 61593" clip-path="url(#clip-path-51)"><rect id="Rectangle_30478" data-name="Rectangle 30478" width="23.598" height="10.423" transform="matrix(0.174, -0.985, 0.985, 0.174, -5.148, 22.117)" fill="url(#linear-gradient-20)"></rect></g></g></g></g></g><path id="Path_79180" data-name="Path 79180" d="M52.907,31.484s13.416.715,17.241,4.047c0,0,1.177,10.786-2.433,17.965a168.093,168.093,0,0,1-9.568,15.881S65.077,58.655,69.733,54c0,0,4.457-6.3,2.852-20.239a65.992,65.992,0,0,0-19.678-2.272" transform="translate(68.28 40.6)" fill="#cb2027"></path><path id="Path_79181" data-name="Path 79181" d="M97.5,73.154c-.657-.2-22.4-6.986-41.439-6.759a.46.46,0,0,0,.062-.007C70,64.473,90.15,69.546,95.924,72.144a.064.064,0,0,1,.044.018c.518.316,1.028.651,1.528.992" transform="translate(72.345 85.133)" fill="#141314"></path><g id="Group_61600" data-name="Group 61600" transform="translate(103.535 119.746)" opacity="0.91" style="mix-blend-mode: multiply;isolation: isolate"><g id="Group_61599" data-name="Group 61599"><g id="Group_61598" data-name="Group 61598" clip-path="url(#clip-path-52)"><path id="Path_79182" data-name="Path 79182" d="M54.676,52.278,45.2,64.127s6.922,5.687,13.931,4.973l1.69-8.53Z" transform="translate(-45.202 -52.278)" fill="#935b9d" fill-rule="evenodd"></path></g></g></g></g></g><g id="Group_61604" data-name="Group 61604" transform="translate(108.117 106.14)"><g id="Group_61603" data-name="Group 61603" clip-path="url(#clip-path-53)"><rect id="Rectangle_30482" data-name="Rectangle 30482" width="26.323" height="27.203" transform="translate(0 0)" fill="#cb2027"></rect></g></g><g id="Group_61618" data-name="Group 61618"><g id="Group_61617" data-name="Group 61617" clip-path="url(#clip-path)"><path id="Path_79184" data-name="Path 79184" d="M66.954,47.461c-1.3,3.214-4.37,8.874-4.863,11.883,0,0-9.76,4.767-10.058,3.855s4.37-5.319,9.171-9.068a19.289,19.289,0,0,0,5.749-6.67" transform="translate(67.135 61.252)" fill="#cb2027"></path><g id="Group_61607" data-name="Group 61607" transform="translate(85.828 93.098)" opacity="0.91" style="mix-blend-mode: multiply;isolation: isolate"><g id="Group_61606" data-name="Group 61606"><g id="Group_61605" data-name="Group 61605" clip-path="url(#clip-path-55)"><path id="Path_79185" data-name="Path 79185" d="M37.642,40.644s.79,15.551,3.951,22.285-3.626,18.618-3.626,18.618a94.181,94.181,0,0,0,1.448-12.307c.1-5.062-2.646-19.2-1.773-28.6" transform="translate(-37.471 -40.644)" fill="#935b9d"></path></g></g></g><path id="Path_79186" data-name="Path 79186" d="M32.1,105.408s-1.615,35.082.747,38.17c0,0,2.256.254,5.651-7.389,0,0-4.732,15.8-7.644,21.339,0,0-3.908-20.966,1.246-52.12" transform="translate(37.982 136.036)" fill="#141314"></path><path id="Path_79187" data-name="Path 79187" d="M61.161,120.259A68.1,68.1,0,0,0,66.6,102.472c1.706-10.376-.9-21.8-.9-21.8s-1.535,26-4.547,39.586" transform="translate(78.932 104.114)" fill="#141314"></path><path id="Path_79188" data-name="Path 79188" d="M19.387,171.894,10.894,105H15.14l6.869,66.9Z" transform="translate(14.059 135.505)" fill="#141314" fill-rule="evenodd"></path><path id="Path_79189" data-name="Path 79189" d="M207.341,174.47l8.493-66.9h-4.247l-6.869,66.9Z" transform="translate(264.202 138.831)" fill="#141314" fill-rule="evenodd"></path><path id="Path_79190" data-name="Path 79190" d="M464.7,114.537,460.242,149.7s-33.754,1.4-84.183,2.446c-74.817,1.562-186.34,2.364-278.893-3.31-3.956-.236-7.875-.495-11.751-.751q-12.276-.849-23.975-1.86c-16.389-1.409-31.841-3.085-45.956-5.06l-4.279-33.692.082.011.257.021.208.021c.142.009.325.021.531.041l.3.021c3.23.286,12.08,1.028,25.9,2l1.539.112v.009c9.277.639,20.665,1.379,33.969,2.139,5.7.318,11.755.657,18.137.987,66.972,3.466,171,6.879,294.849,4.164,25.137-.545,51.1-1.347,77.726-2.458" transform="translate(14.462 138.701)" fill="#cb2027" fill-rule="evenodd"></path><g id="Group_61610" data-name="Group 61610" transform="translate(25.668 246.176)" opacity="0.4" style="mix-blend-mode: multiply;isolation: isolate"><g id="Group_61609" data-name="Group 61609"><g id="Group_61608" data-name="Group 61608" clip-path="url(#clip-path-56)"><path id="Path_79191" data-name="Path 79191" d="M61.44,146.224c-16.389-1.409-31.841-3.085-45.958-5.058l-4.276-33.692.082.009.257.021,28.479,2.19v.011Z" transform="translate(-11.206 -107.473)" fill="#ad8ea9" fill-rule="evenodd"></path></g></g></g><g id="Group_61613" data-name="Group 61613" transform="translate(88.456 250.545)" opacity="0.4" style="mix-blend-mode: multiply;isolation: isolate"><g id="Group_61612" data-name="Group 61612"><g id="Group_61611" data-name="Group 61611" clip-path="url(#clip-path-57)"><path id="Path_79192" data-name="Path 79192" d="M61.792,146.374q-5.937-.354-11.751-.751L38.618,109.381c5.694.318,11.751.657,18.137.987Z" transform="translate(-38.617 -109.382)" fill="#ad8ea9" fill-rule="evenodd"></path></g></g></g><g id="Group_61616" data-name="Group 61616" transform="translate(390.521 253.239)" opacity="0.4" style="mix-blend-mode: multiply;isolation: isolate"><g id="Group_61615" data-name="Group 61615"><g id="Group_61614" data-name="Group 61614" clip-path="url(#clip-path-58)"><path id="Path_79193" data-name="Path 79193" d="M259.136,110.557l-4.462,35.162s-33.754,1.4-84.183,2.446l10.919-35.151c25.137-.545,51.1-1.347,77.726-2.458" transform="translate(-170.491 -110.558)" fill="#ad8ea9" fill-rule="evenodd"></path></g></g></g></g></g></g></svg>