<svg xmlns="http://www.w3.org/2000/svg" width="397.89" height="310.266" viewBox="0 0 397.89 310.266"><g id="Group_106840" data-name="Group 106840" transform="translate(-1249.11 -430)"><g id="Group_104414" data-name="Group 104414" transform="translate(1260.293 689.799)"><path id="Path_135043" data-name="Path 135043" d="M628.731,2586.393H243.03a.466.466,0,0,0-.355.173.639.639,0,0,0-.147.4.573.573,0,0,0,.528.614H628.731a.6.6,0,0,0,0-1.184Z" transform="translate(-242.527 -2586.393)" fill="#27191c"></path></g><path id="Path_135044" data-name="Path 135044" d="M318.223,450.949V623.108a11.852,11.852,0,0,0,11.838,11.836H614.5a11.851,11.851,0,0,0,11.838-11.836V450.949A11.852,11.852,0,0,0,614.5,439.112H330.061A11.852,11.852,0,0,0,318.223,450.949Zm10.456,7.846a6.974,6.974,0,0,1,6.966-6.966H604.363a11.539,11.539,0,0,1,11.526,11.526V587.324a11.539,11.539,0,0,1-11.526,11.526H340.2a11.521,11.521,0,0,1-11.526-11.526Z" transform="translate(950.644 7.457)" fill="#e0e0e0"></path><g id="Group_104416" data-name="Group 104416" transform="translate(1340.093 675.928)"><path id="Path_135045" data-name="Path 135045" d="M947.014,2477.83h154.447l-8.3-13.9H955.314Z" transform="translate(-947.014 -2463.934)" fill="#707070"></path></g><g id="Group_104417" data-name="Group 104417" transform="translate(1359.126 642.74)"><path id="Path_135046" data-name="Path 135046" d="M1115.044,2203.8h108.393l6.97-28.656,1.019-4.191H1123.032l-1.019,4.191Z" transform="translate(-1115.044 -2170.954)" fill="#ececec"></path></g><g id="Group_104418" data-name="Group 104418" transform="translate(1366.095 642.74)"><path id="Path_135047" data-name="Path 135047" d="M1176.564,2175.145h108.394l1.02-4.191H1177.583Z" transform="translate(-1176.564 -2170.954)" fill="#707070"></path></g><g id="Group_104419" data-name="Group 104419" transform="translate(1414.075 615.646)"><ellipse id="Ellipse_5695" data-name="Ellipse 5695" cx="8.852" cy="8.852" rx="8.852" ry="8.852" fill="#ececec"></ellipse></g><g id="Group_104420" data-name="Group 104420" transform="translate(1279.664 459.627)"><path id="Path_135048" data-name="Path 135048" d="M413.533,561.008V689.537a11.175,11.175,0,0,0,11.186,11.186H688.877a11.2,11.2,0,0,0,11.186-11.186V565.568a11.2,11.2,0,0,0-11.186-11.186H420.159A6.634,6.634,0,0,0,413.533,561.008Z" transform="translate(-413.533 -554.382)" fill="#fff"></path></g><g id="Group_104427" data-name="Group 104427" transform="translate(1268.528 446.229)"><g id="Group_104422" data-name="Group 104422" transform="translate(90.165 196.302)"><path id="Path_135049" data-name="Path 135049" d="M1220.317,2202.5H1111.225l8.122-33.4.33.08-8.021,32.977H1220.05l8.04-33.057.33.08Z" transform="translate(-1111.225 -2169.098)" fill="#27191c"></path></g><g id="Group_104423" data-name="Group 104423" transform="translate(70.966 229.36)"><path id="Path_135050" data-name="Path 135050" d="M1097.375,2475.513H941.73l8.706-14.575h138.233Zm-155.046-.34h154.447l-8.3-13.9H950.629Z" transform="translate(-941.73 -2460.938)" fill="#27191c"></path></g><g id="Group_104424" data-name="Group 104424"><path id="Path_135051" data-name="Path 135051" d="M611.85,632.62H327.407a12.191,12.191,0,0,1-12.178-12.176V448.286a12.192,12.192,0,0,1,12.178-12.178H611.85a12.192,12.192,0,0,1,12.178,12.178V620.444A12.191,12.191,0,0,1,611.85,632.62ZM327.407,436.448a11.851,11.851,0,0,0-11.838,11.838V620.444a11.85,11.85,0,0,0,11.838,11.836H611.85a11.85,11.85,0,0,0,11.838-11.836V448.286a11.851,11.851,0,0,0-11.838-11.838Z" transform="translate(-315.229 -436.108)" fill="#27191c"></path></g><g id="Group_104425" data-name="Group 104425" transform="translate(10.795 13.058)"><path id="Path_135052" data-name="Path 135052" d="M686.217,698.4H422.059a11.521,11.521,0,0,1-11.526-11.526V558.349a6.974,6.974,0,0,1,6.966-6.966H686.217a11.539,11.539,0,0,1,11.526,11.526V686.878A11.539,11.539,0,0,1,686.217,698.4ZM417.5,551.723a6.634,6.634,0,0,0-6.626,6.626V686.878a11.177,11.177,0,0,0,11.186,11.186H686.217A11.2,11.2,0,0,0,697.4,686.878V562.909a11.2,11.2,0,0,0-11.186-11.186Z" transform="translate(-410.533 -551.383)" fill="#27191c"></path></g><g id="Group_104426" data-name="Group 104426" transform="translate(145.377 169.249)"><path id="Path_135053" data-name="Path 135053" d="M1607.665,1948.313a9.022,9.022,0,1,1,9.022-9.022A9.032,9.032,0,0,1,1607.665,1948.313Zm0-17.7a8.682,8.682,0,1,0,8.682,8.682A8.692,8.692,0,0,0,1607.665,1930.609Z" transform="translate(-1598.643 -1930.269)" fill="#27191c"></path></g></g><g id="Group_104430" data-name="Group 104430" transform="translate(1300.33 430.17)"><g id="Group_104429" data-name="Group 104429"><path id="Path_135054" data-name="Path 135054" d="M841.178,298.554V441.461a4.214,4.214,0,0,1-4.215,4.215H600.2a4.214,4.214,0,0,1-4.215-4.215V298.554a4.216,4.216,0,0,1,4.215-4.215H836.963A4.215,4.215,0,0,1,841.178,298.554Z" transform="translate(-595.981 -294.339)" fill="#fff"></path></g></g><g id="Group_104432" data-name="Group 104432" transform="translate(1300.5 430)"><g id="Group_104431" data-name="Group 104431"><path id="Path_135055" data-name="Path 135055" d="M841.178,298.554v10.311h-245.2V298.554a4.216,4.216,0,0,1,4.215-4.215H836.963A4.215,4.215,0,0,1,841.178,298.554Z" transform="translate(-595.981 -294.339)" fill="#cb2027"></path></g></g><g id="Group_104434" data-name="Group 104434" transform="translate(1537.361 435.197)"><g id="Group_104433" data-name="Group 104433" transform="translate(0 0)"><circle id="Ellipse_5696" data-name="Ellipse 5696" cx="1.581" cy="1.581" r="1.581" transform="translate(0 2.236) rotate(-45)" fill="#fff"></circle></g></g><g id="Group_104436" data-name="Group 104436" transform="translate(1532.197 435.621)"><g id="Group_104435" data-name="Group 104435" transform="translate(0 0)"><ellipse id="Ellipse_5697" data-name="Ellipse 5697" cx="1.581" cy="1.581" rx="1.581" ry="1.581" transform="matrix(0.16, -0.987, 0.987, 0.16, 0, 3.121)" fill="#fff"></ellipse></g></g><g id="Group_104438" data-name="Group 104438" transform="translate(1526.72 435.727)"><g id="Group_104437" data-name="Group 104437" transform="translate(0 0)"><ellipse id="Ellipse_5698" data-name="Ellipse 5698" cx="1.581" cy="1.581" rx="1.581" ry="1.581" transform="translate(0 3.151) rotate(-85.269)" fill="#fff"></ellipse></g></g><g id="Group_104445" data-name="Group 104445" transform="translate(1306.752 434.188)"><g id="Group_104440" data-name="Group 104440"><g id="Group_104439" data-name="Group 104439"><rect id="Rectangle_37438" data-name="Rectangle 37438" width="11.171" height="1.175" fill="#fff"></rect></g></g><g id="Group_104442" data-name="Group 104442" transform="translate(0 2.658)"><g id="Group_104441" data-name="Group 104441"><rect id="Rectangle_37439" data-name="Rectangle 37439" width="11.171" height="1.175" fill="#fff"></rect></g></g><g id="Group_104444" data-name="Group 104444" transform="translate(0 5.317)"><g id="Group_104443" data-name="Group 104443"><rect id="Rectangle_37440" data-name="Rectangle 37440" width="11.171" height="1.175" fill="#fff"></rect></g></g></g><g id="Group_104449" data-name="Group 104449" transform="translate(1300.16 430)"><g id="Group_104447" data-name="Group 104447"><path id="Path_135056" data-name="Path 135056" d="M835.632,444.516H598.865a4.39,4.39,0,0,1-4.385-4.385V297.224a4.39,4.39,0,0,1,4.385-4.385H835.632a4.39,4.39,0,0,1,4.385,4.385V440.131A4.39,4.39,0,0,1,835.632,444.516ZM598.865,293.179a4.05,4.05,0,0,0-4.045,4.046V440.131a4.05,4.05,0,0,0,4.045,4.045H835.632a4.05,4.05,0,0,0,4.046-4.045V297.224a4.05,4.05,0,0,0-4.046-4.046Z" transform="translate(-594.48 -292.839)" fill="#27191c"></path></g><g id="Group_104448" data-name="Group 104448" transform="translate(0 14.526)"><path id="Path_135057" data-name="Path 135057" d="M839.847,421.419H594.65a.17.17,0,1,1,0-.34h245.2a.17.17,0,1,1,0,.34Z" transform="translate(-594.48 -421.079)" fill="#27191c"></path></g></g><g id="Group_104454" data-name="Group 104454" transform="translate(1458.845 486.268)"><g id="Group_104451" data-name="Group 104451"><rect id="Rectangle_37441" data-name="Rectangle 37441" width="78.225" height="3.011" fill="#ececec"></rect></g><g id="Group_104452" data-name="Group 104452" transform="translate(0 6.223)"><rect id="Rectangle_37442" data-name="Rectangle 37442" width="78.225" height="3.011" fill="#ececec"></rect></g><g id="Group_104453" data-name="Group 104453" transform="translate(0 12.447)"><rect id="Rectangle_37443" data-name="Rectangle 37443" width="42.877" height="3.011" fill="#ececec"></rect></g></g><g id="Group_104458" data-name="Group 104458" transform="translate(1420.906 478.982)"><g id="Group_104457" data-name="Group 104457"><g id="Group_104456" data-name="Group 104456"><g id="Group_104455" data-name="Group 104455"><path id="Path_135058" data-name="Path 135058" d="M1660.446,733.639l14.363,8.142V725.273A16.5,16.5,0,0,0,1660.446,733.639Z" transform="translate(-1660.446 -725.273)" fill="#707070"></path></g></g></g></g><g id="Group_104462" data-name="Group 104462" transform="translate(1437.752 483.24)"><g id="Group_104461" data-name="Group 104461"><g id="Group_104460" data-name="Group 104460"><g id="Group_104459" data-name="Group 104459"><path id="Path_135059" data-name="Path 135059" d="M1809.166,762.855v16.508l12.864-10.346A16.476,16.476,0,0,0,1809.166,762.855Z" transform="translate(-1809.166 -762.855)" fill="#707070"></path></g></g></g></g><g id="Group_104463" data-name="Group 104463" transform="translate(1437.752 489.402)"><path id="Path_135060" data-name="Path 135060" d="M1822.029,817.254a16.5,16.5,0,0,1-12.864,26.853V827.6Z" transform="translate(-1809.166 -817.254)" fill="#cb2027"></path></g><g id="Group_104464" data-name="Group 104464" transform="translate(1421.244 491.605)"><path id="Path_135061" data-name="Path 135061" d="M1665.578,836.709l14.363,8.142v16.508a16.511,16.511,0,0,1-14.363-24.65Z" transform="translate(-1663.433 -836.709)" fill="#2a2628"></path></g><g id="Group_104466" data-name="Group 104466" transform="translate(1418.801 566.787)"><rect id="Rectangle_37444" data-name="Rectangle 37444" width="118.308" height="1.133" fill="#ececec"></rect></g><g id="Group_104467" data-name="Group 104467" transform="translate(1418.801 551.996)"><rect id="Rectangle_37445" data-name="Rectangle 37445" width="118.308" height="1.133" fill="#ececec"></rect></g><g id="Group_104468" data-name="Group 104468" transform="translate(1418.801 537.209)"><rect id="Rectangle_37446" data-name="Rectangle 37446" width="118.308" height="1.133" fill="#ececec"></rect></g><g id="Group_104469" data-name="Group 104469" transform="translate(1418.801 522.42)"><rect id="Rectangle_37447" data-name="Rectangle 37447" width="118.308" height="1.133" fill="#ececec"></rect></g><g id="Group_104470" data-name="Group 104470" transform="translate(1423.09 544.225)"><rect id="Rectangle_37448" data-name="Rectangle 37448" width="7.504" height="23.641" fill="#b1b1b1"></rect></g><g id="Group_104471" data-name="Group 104471" transform="translate(1439.169 532.264)"><rect id="Rectangle_37449" data-name="Rectangle 37449" width="7.504" height="35.6" fill="#cb2027"></rect></g><g id="Group_104472" data-name="Group 104472" transform="translate(1455.248 526.031)"><rect id="Rectangle_37450" data-name="Rectangle 37450" width="7.504" height="41.834" fill="#b1b1b1"></rect></g><g id="Group_104473" data-name="Group 104473" transform="translate(1471.328 531.936)"><rect id="Rectangle_37451" data-name="Rectangle 37451" width="7.504" height="35.928" fill="#cb2027"></rect></g><g id="Group_104474" data-name="Group 104474" transform="translate(1503.469 524.572)"><rect id="Rectangle_37452" data-name="Rectangle 37452" width="7.504" height="43.291" fill="#cb2027"></rect></g><g id="Group_104475" data-name="Group 104475" transform="translate(1519.541 517.586)"><rect id="Rectangle_37453" data-name="Rectangle 37453" width="7.504" height="50.28" fill="#b1b1b1"></rect></g><g id="Group_104476" data-name="Group 104476" transform="translate(1487.407 527.809)"><rect id="Rectangle_37454" data-name="Rectangle 37454" width="7.504" height="40.056" fill="#b1b1b1"></rect></g><g id="Group_104478" data-name="Group 104478" transform="translate(1509.733 507.207)"><rect id="Rectangle_37455" data-name="Rectangle 37455" width="5.57" height="5.57" fill="#2a2628"></rect></g><g id="Group_104479" data-name="Group 104479" transform="translate(1520.636 507.207)"><rect id="Rectangle_37456" data-name="Rectangle 37456" width="5.57" height="5.57" fill="#cb2027"></rect></g><g id="Group_104480" data-name="Group 104480" transform="translate(1531.539 507.207)"><rect id="Rectangle_37457" data-name="Rectangle 37457" width="5.57" height="5.57" fill="#cb2027"></rect></g><g id="Group_104482" data-name="Group 104482" transform="translate(1426.277 520.152)"><path id="Path_135062" data-name="Path 135062" d="M1708.534,1116.808l-.664-.918,16.3-11.8,16.38-5.3,15.879,5.7,16.3-4.674,15.908-4.7,16.29-6.4.414,1.054-16.336,6.416-.024.007-15.936,4.711-16.654,4.776-15.859-5.69-15.842,5.122Z" transform="translate(-1707.87 -1088.714)" fill="#2a2628"></path></g><g id="Group_104499" data-name="Group 104499" transform="translate(1314.262 482.086)"><g id="Group_104484" data-name="Group 104484" transform="translate(0 0)"><path id="Path_135063" data-name="Path 135063" d="M817.493,839.006H718.975V752.661h98.518Zm-97.386-1.133h96.253v-84.08H720.108Z" transform="translate(-718.975 -752.661)" fill="#ececec"></path></g><g id="Group_104485" data-name="Group 104485" transform="translate(0.567 73.039)"><rect id="Rectangle_37458" data-name="Rectangle 37458" width="97.385" height="1.133" fill="#ececec"></rect></g><g id="Group_104486" data-name="Group 104486" transform="translate(0.567 60.866)"><rect id="Rectangle_37459" data-name="Rectangle 37459" width="97.385" height="1.133" fill="#ececec"></rect></g><g id="Group_104487" data-name="Group 104487" transform="translate(0.567 48.693)"><rect id="Rectangle_37460" data-name="Rectangle 37460" width="97.385" height="1.133" fill="#ececec"></rect></g><g id="Group_104488" data-name="Group 104488" transform="translate(0.567 36.52)"><rect id="Rectangle_37461" data-name="Rectangle 37461" width="97.385" height="1.133" fill="#ececec"></rect></g><g id="Group_104489" data-name="Group 104489" transform="translate(0.567 24.347)"><rect id="Rectangle_37462" data-name="Rectangle 37462" width="97.385" height="1.133" fill="#ececec"></rect></g><g id="Group_104490" data-name="Group 104490" transform="translate(0.567 12.173)"><rect id="Rectangle_37463" data-name="Rectangle 37463" width="97.385" height="1.133" fill="#ececec"></rect></g><g id="Group_104491" data-name="Group 104491" transform="translate(0.566)"><rect id="Rectangle_37464" data-name="Rectangle 37464" width="97.386" height="1.133" fill="#ececec"></rect></g><g id="Group_104492" data-name="Group 104492" transform="translate(85.212 0.566)"><rect id="Rectangle_37465" data-name="Rectangle 37465" width="1.133" height="85.212" fill="#ececec"></rect></g><g id="Group_104493" data-name="Group 104493" transform="translate(73.039 0.566)"><rect id="Rectangle_37466" data-name="Rectangle 37466" width="1.133" height="85.212" fill="#ececec"></rect></g><g id="Group_104494" data-name="Group 104494" transform="translate(60.866 0.566)"><rect id="Rectangle_37467" data-name="Rectangle 37467" width="1.133" height="85.212" fill="#ececec"></rect></g><g id="Group_104495" data-name="Group 104495" transform="translate(48.693 0.566)"><rect id="Rectangle_37468" data-name="Rectangle 37468" width="1.133" height="85.212" fill="#ececec"></rect></g><g id="Group_104496" data-name="Group 104496" transform="translate(36.519 0.566)"><rect id="Rectangle_37469" data-name="Rectangle 37469" width="1.133" height="85.212" fill="#ececec"></rect></g><g id="Group_104497" data-name="Group 104497" transform="translate(24.347 0.566)"><rect id="Rectangle_37470" data-name="Rectangle 37470" width="1.133" height="85.212" fill="#ececec"></rect></g><g id="Group_104498" data-name="Group 104498" transform="translate(12.173 0.566)"><rect id="Rectangle_37471" data-name="Rectangle 37471" width="1.133" height="85.212" fill="#ececec"></rect></g></g><g id="Group_104503" data-name="Group 104503" transform="translate(1312.691 541.381)"><g id="Group_104500" data-name="Group 104500" transform="translate(1.738 1.735)"><rect id="Rectangle_37472" data-name="Rectangle 37472" width="1.133" height="17.123" transform="matrix(0.705, -0.709, 0.709, 0.705, 0, 0.803)" fill="#cb2027"></rect></g><g id="Group_104502" data-name="Group 104502" transform="translate(0 0)"><g id="Group_104501" data-name="Group 104501" transform="translate(0)"><ellipse id="Ellipse_5699" data-name="Ellipse 5699" cx="2.129" cy="2.129" rx="2.129" ry="2.129" transform="translate(0 4.259) rotate(-89.798)" fill="#cb2027"></ellipse></g></g></g><g id="Group_104507" data-name="Group 104507" transform="translate(1324.844 543.115)"><g id="Group_104504" data-name="Group 104504" transform="translate(1.73)"><path id="Path_135064" data-name="Path 135064" d="M828.158,1304.8l-.489-.486.4-.4-.314-.312,12.114-12.161.8.8Z" transform="translate(-827.669 -1291.442)" fill="#cb2027"></path></g><g id="Group_104506" data-name="Group 104506" transform="translate(0 10.344)"><g id="Group_104505" data-name="Group 104505"><path id="Path_135065" data-name="Path 135065" d="M816.026,1383.376a2.129,2.129,0,1,0,.009,3.011A2.129,2.129,0,0,0,816.026,1383.376Z" transform="translate(-812.395 -1382.757)" fill="#cb2027"></path></g></g></g><g id="Group_104511" data-name="Group 104511" transform="translate(1337.045 518.918)"><g id="Group_104508" data-name="Group 104508" transform="translate(1.623 0)"><rect id="Rectangle_37473" data-name="Rectangle 37473" width="27.218" height="1.133" transform="matrix(0.447, -0.894, 0.894, 0.447, 0, 24.344)" fill="#cb2027"></rect></g><g id="Group_104510" data-name="Group 104510" transform="translate(0 22.467)"><g id="Group_104509" data-name="Group 104509"><path id="Path_135066" data-name="Path 135066" d="M920.339,1277.346a2.129,2.129,0,1,0,2.857-.952A2.13,2.13,0,0,0,920.339,1277.346Z" transform="translate(-920.114 -1276.168)" fill="#cb2027"></path></g></g></g><g id="Group_104515" data-name="Group 104515" transform="translate(1349.219 517.041)"><g id="Group_104512" data-name="Group 104512" transform="translate(1.729 1.729)"><rect id="Rectangle_37474" data-name="Rectangle 37474" width="1.133" height="17.214" transform="matrix(0.707, -0.707, 0.707, 0.707, 0, 0.801)" fill="#cb2027"></rect></g><g id="Group_104514" data-name="Group 104514"><g id="Group_104513" data-name="Group 104513"><path id="Path_135067" data-name="Path 135067" d="M1031.221,1061.881a2.129,2.129,0,1,0,0,3.011A2.13,2.13,0,0,0,1031.221,1061.881Z" transform="translate(-1027.586 -1061.258)" fill="#cb2027"></path></g></g></g><g id="Group_104519" data-name="Group 104519" transform="translate(1361.391 529.213)"><g id="Group_104516" data-name="Group 104516" transform="translate(2.129 1.563)"><rect id="Rectangle_37475" data-name="Rectangle 37475" width="12.175" height="1.133" fill="#cb2027"></rect></g><g id="Group_104518" data-name="Group 104518"><g id="Group_104517" data-name="Group 104517"><path id="Path_135068" data-name="Path 135068" d="M1137.17,1168.72a2.129,2.129,0,1,0,2.129,2.129A2.13,2.13,0,0,0,1137.17,1168.72Z" transform="translate(-1135.041 -1168.72)" fill="#cb2027"></path></g></g></g><g id="Group_104523" data-name="Group 104523" transform="translate(1373.566 506.75)"><g id="Group_104520" data-name="Group 104520" transform="translate(1.624 0)"><rect id="Rectangle_37476" data-name="Rectangle 37476" width="27.218" height="1.133" transform="translate(0 24.34) rotate(-63.413)" fill="#cb2027"></rect></g><g id="Group_104522" data-name="Group 104522" transform="translate(0 22.463)"><g id="Group_104521" data-name="Group 104521"><path id="Path_135069" data-name="Path 135069" d="M1242.747,1169.893a2.129,2.129,0,1,0,2.857-.951A2.13,2.13,0,0,0,1242.747,1169.893Z" transform="translate(-1242.521 -1168.717)" fill="#cb2027"></path></g></g></g><g id="Group_104527" data-name="Group 104527" transform="translate(1385.749 494.424)"><g id="Group_104524" data-name="Group 104524" transform="translate(1.729 0)"><rect id="Rectangle_37477" data-name="Rectangle 37477" width="17.212" height="1.133" transform="translate(0 12.179) rotate(-45.039)" fill="#cb2027"></rect></g><g id="Group_104526" data-name="Group 104526" transform="translate(0 10.45)"><g id="Group_104525" data-name="Group 104525"><path id="Path_135070" data-name="Path 135070" d="M1350.7,954.475a2.129,2.129,0,1,0,3.011,0A2.13,2.13,0,0,0,1350.7,954.475Z" transform="translate(-1350.074 -953.85)" fill="#cb2027"></path></g></g></g><g id="Group_104533" data-name="Group 104533" transform="translate(1397.912 492.695)"><g id="Group_104528" data-name="Group 104528" transform="translate(2.129 1.563)"><rect id="Rectangle_37478" data-name="Rectangle 37478" width="12.173" height="1.133" fill="#cb2027"></rect></g><g id="Group_104530" data-name="Group 104530" transform="translate(12.173)"><g id="Group_104529" data-name="Group 104529"><path id="Path_135071" data-name="Path 135071" d="M1567.041,846.331a2.129,2.129,0,1,1-2.129,2.129A2.13,2.13,0,0,1,1567.041,846.331Z" transform="translate(-1564.912 -846.331)" fill="#cb2027"></path></g></g><g id="Group_104532" data-name="Group 104532" transform="translate(0 0)"><g id="Group_104531" data-name="Group 104531"><path id="Path_135072" data-name="Path 135072" d="M1459.577,846.332a2.129,2.129,0,1,0,2.129,2.129A2.129,2.129,0,0,0,1459.577,846.332Z" transform="translate(-1457.448 -846.332)" fill="#cb2027"></path></g></g></g><g id="Group_104538" data-name="Group 104538" transform="translate(1336.053 456.762)"><g id="Group_104535" data-name="Group 104535"><rect id="Rectangle_37479" data-name="Rectangle 37479" width="30.361" height="2.783" fill="#ececec"></rect></g><g id="Group_104536" data-name="Group 104536" transform="translate(0 5.751)"><rect id="Rectangle_37480" data-name="Rectangle 37480" width="30.361" height="2.783" fill="#ececec"></rect></g><g id="Group_104537" data-name="Group 104537" transform="translate(0 11.501)"><rect id="Rectangle_37481" data-name="Rectangle 37481" width="19.601" height="2.783" fill="#ececec"></rect></g></g><g id="Group_104541" data-name="Group 104541" transform="translate(1315.165 454.801)"><g id="Group_104540" data-name="Group 104540"><g id="Group_104539" data-name="Group 104539"><path id="Path_135073" data-name="Path 135073" d="M730.048,520.465a6.025,6.025,0,0,1,5.575-5.575v-3.1a9.112,9.112,0,0,0-8.676,8.676Z" transform="translate(-726.947 -511.789)" fill="#2d2a2c"></path></g></g></g><g id="Group_104544" data-name="Group 104544" transform="translate(1324.693 454.801)"><g id="Group_104543" data-name="Group 104543"><g id="Group_104542" data-name="Group 104542"><path id="Path_135074" data-name="Path 135074" d="M811.064,514.89a6.025,6.025,0,0,1,5.575,5.575h3.1a9.112,9.112,0,0,0-8.676-8.676Z" transform="translate(-811.064 -511.789)" fill="#cb2027"></path></g></g></g><g id="Group_104547" data-name="Group 104547" transform="translate(1315.165 464.33)"><g id="Group_104546" data-name="Group 104546"><g id="Group_104545" data-name="Group 104545"><path id="Path_135075" data-name="Path 135075" d="M735.623,601.481a6.025,6.025,0,0,1-5.575-5.575h-3.1a9.112,9.112,0,0,0,8.676,8.676Z" transform="translate(-726.947 -595.906)" fill="#cb2027"></path></g></g></g><g id="Group_104550" data-name="Group 104550" transform="translate(1324.693 464.33)"><g id="Group_104549" data-name="Group 104549"><g id="Group_104548" data-name="Group 104548"><path id="Path_135076" data-name="Path 135076" d="M816.639,595.906a6.025,6.025,0,0,1-5.575,5.575v3.1a9.112,9.112,0,0,0,8.676-8.676Z" transform="translate(-811.064 -595.906)" fill="#2d2a2c"></path></g></g></g><g id="Group_104554" data-name="Group 104554" transform="translate(1320.731 462.281)"><g id="Group_104553" data-name="Group 104553"><g id="Group_104552" data-name="Group 104552"><rect id="Rectangle_37482" data-name="Rectangle 37482" width="7.071" height="3.247" fill="#2a2628"></rect></g></g></g><g id="Group_104560" data-name="Group 104560" transform="translate(1392.938 456.762)"><g id="Group_104557" data-name="Group 104557"><rect id="Rectangle_37483" data-name="Rectangle 37483" width="30.361" height="2.783" fill="#ececec"></rect></g><g id="Group_104558" data-name="Group 104558" transform="translate(0 5.751)"><rect id="Rectangle_37484" data-name="Rectangle 37484" width="30.361" height="2.783" fill="#ececec"></rect></g><g id="Group_104559" data-name="Group 104559" transform="translate(0 11.501)"><rect id="Rectangle_37485" data-name="Rectangle 37485" width="19.601" height="2.783" fill="#ececec"></rect></g></g><g id="Group_104563" data-name="Group 104563" transform="translate(1372.05 454.801)"><g id="Group_104562" data-name="Group 104562"><g id="Group_104561" data-name="Group 104561"><path id="Path_135077" data-name="Path 135077" d="M1232.239,520.465a6.025,6.025,0,0,1,5.575-5.575v-3.1a9.112,9.112,0,0,0-8.676,8.676Z" transform="translate(-1229.138 -511.789)" fill="#2a2628"></path></g></g></g><g id="Group_104566" data-name="Group 104566" transform="translate(1381.578 454.801)"><g id="Group_104565" data-name="Group 104565"><g id="Group_104564" data-name="Group 104564"><path id="Path_135078" data-name="Path 135078" d="M1313.255,514.89a6.025,6.025,0,0,1,5.575,5.575h3.1a9.112,9.112,0,0,0-8.676-8.676Z" transform="translate(-1313.255 -511.789)" fill="#cb2027"></path></g></g></g><g id="Group_104569" data-name="Group 104569" transform="translate(1372.05 464.33)"><g id="Group_104568" data-name="Group 104568"><g id="Group_104567" data-name="Group 104567"><path id="Path_135079" data-name="Path 135079" d="M1237.814,601.481a6.025,6.025,0,0,1-5.575-5.575h-3.1a9.112,9.112,0,0,0,8.676,8.676Z" transform="translate(-1229.138 -595.906)" fill="#cb2027"></path></g></g></g><g id="Group_104572" data-name="Group 104572" transform="translate(1381.578 464.33)"><g id="Group_104571" data-name="Group 104571"><g id="Group_104570" data-name="Group 104570"><path id="Path_135080" data-name="Path 135080" d="M1318.83,595.906a6.025,6.025,0,0,1-5.575,5.575v3.1a9.112,9.112,0,0,0,8.676-8.676Z" transform="translate(-1313.255 -595.906)" fill="#2a2628"></path></g></g></g><g id="Group_104576" data-name="Group 104576" transform="translate(1377.617 462.281)"><g id="Group_104575" data-name="Group 104575"><g id="Group_104574" data-name="Group 104574"><rect id="Rectangle_37486" data-name="Rectangle 37486" width="7.071" height="3.247" fill="#2a2628"></rect></g></g></g><g id="Group_104604" data-name="Group 104604" transform="translate(1449.823 456.762)"><g id="Group_104601" data-name="Group 104601"><rect id="Rectangle_37491" data-name="Rectangle 37491" width="30.361" height="2.783" fill="#ececec"></rect></g><g id="Group_104602" data-name="Group 104602" transform="translate(0 5.751)"><rect id="Rectangle_37492" data-name="Rectangle 37492" width="30.361" height="2.783" fill="#ececec"></rect></g><g id="Group_104603" data-name="Group 104603" transform="translate(0 11.501)"><rect id="Rectangle_37493" data-name="Rectangle 37493" width="19.601" height="2.783" fill="#ececec"></rect></g></g><g id="Group_104607" data-name="Group 104607" transform="translate(1428.935 454.801)"><g id="Group_104606" data-name="Group 104606"><g id="Group_104605" data-name="Group 104605"><path id="Path_135085" data-name="Path 135085" d="M1734.43,520.465A6.025,6.025,0,0,1,1740,514.89v-3.1a9.112,9.112,0,0,0-8.676,8.676Z" transform="translate(-1731.329 -511.789)" fill="#2a2628"></path></g></g></g><g id="Group_104610" data-name="Group 104610" transform="translate(1438.463 454.801)"><g id="Group_104609" data-name="Group 104609"><g id="Group_104608" data-name="Group 104608"><path id="Path_135086" data-name="Path 135086" d="M1815.446,514.89a6.025,6.025,0,0,1,5.575,5.575h3.1a9.112,9.112,0,0,0-8.676-8.676Z" transform="translate(-1815.446 -511.789)" fill="#cb2027"></path></g></g></g><g id="Group_104613" data-name="Group 104613" transform="translate(1428.935 464.33)"><g id="Group_104612" data-name="Group 104612"><g id="Group_104611" data-name="Group 104611"><path id="Path_135087" data-name="Path 135087" d="M1740,601.481a6.025,6.025,0,0,1-5.575-5.575h-3.1a9.112,9.112,0,0,0,8.676,8.676Z" transform="translate(-1731.329 -595.906)" fill="#cb2027"></path></g></g></g><g id="Group_104616" data-name="Group 104616" transform="translate(1438.463 464.33)"><g id="Group_104615" data-name="Group 104615"><g id="Group_104614" data-name="Group 104614"><path id="Path_135088" data-name="Path 135088" d="M1821.021,595.906a6.025,6.025,0,0,1-5.575,5.575v3.1a9.112,9.112,0,0,0,8.676-8.676Z" transform="translate(-1815.446 -595.906)" fill="#2a2628"></path></g></g></g><g id="Group_104620" data-name="Group 104620" transform="translate(1434.501 462.281)"><g id="Group_104619" data-name="Group 104619"><g id="Group_104618" data-name="Group 104618"><rect id="Rectangle_37494" data-name="Rectangle 37494" width="7.071" height="3.247" fill="#121313"></rect></g></g></g><g id="Group_104627" data-name="Group 104627" transform="translate(1492.383 551.83)"><g id="Group_104626" data-name="Group 104626"><path id="Path_135089" data-name="Path 135089" d="M2382.829,1372.592v68.243a4.214,4.214,0,0,1-4.215,4.215h-82.939a4.214,4.214,0,0,1-4.215-4.215v-68.243a4.216,4.216,0,0,1,4.215-4.215h82.939A4.216,4.216,0,0,1,2382.829,1372.592Z" transform="translate(-2291.46 -1368.377)" fill="#fff"></path></g></g><g id="Group_104628" data-name="Group 104628" transform="translate(1492.383 570.451)"><path id="Path_135090" data-name="Path 135090" d="M2380.845,1532.764l1.987,4.421v3.461l-2.15-4.784-4.038,6.921-.749,1.286-9.208,15.787-1.138-3.737-.546-1.795-4.15-13.638-3.636,7.8-.681,1.463-9.465,20.317-2.172-3.787-.813-1.417-5.551-9.678-4.76,11.3-.712,1.693-1.2,2.847-3.964-7.111-.736-1.322-.51-.912-11.1,12.128-.971,1.061-2.168,2.368-5.35-5.912-.953-1.053-1.25-1.382-13.4,9.591v-1.747l13.6-9.734,2.146,2.372.953,1.054,4.257,4.7,1.277-1.395.972-1.061,12.267-13.4,1.209,2.168.736,1.322,2.805,5.031.523-1.243.713-1.693,5.417-12.861,6.573,11.461.813,1.417,1.215,2.117,8.633-18.534.681-1.463,4.876-10.467,4.874,16.01.546,1.793.548,1.8,7.795-13.365.749-1.284Z" transform="translate(-2291.46 -1532.764)" fill="#e0e0e0"></path></g><g id="Group_104631" data-name="Group 104631" transform="translate(1492.383 577.645)"><g id="Group_104630" data-name="Group 104630"><path id="Path_135091" data-name="Path 135091" d="M2380.962,1603.833l1.87-1.8V1604l-1.937,1.864-5-5.487-1-1.1-.617-.678-7.726,12.242-1,1.586-2.039,3.231-6.975-9.4-.962-1.3-.115-.155-9.733,16.572-.827,1.409-1.7,2.9-4-6.877-3.986,9.964-2.148-4.1-.854-1.628-2.5-4.761-.83.973-.982,1.152-11.417,13.391-1.9-2.436-.885-1.134-3.73-4.781-1.8,1.473-1.1.9-15.6,12.745v-1.832l14.649-11.966,1.1-.9,2.984-2.436,4.475,5.738.884,1.134.977,1.254,10.633-12.47.982-1.152,1.849-2.168,2.93,5.586.853,1.627,1.261,2.4,3.923-9.809,4.241,7.294.885-1.508.827-1.409,10.408-17.721.934,1.258.962,1.3,6.2,8.35,1.588-2.517,1-1.585,8.066-12.781,1.572,1.727,1,1.1Z" transform="translate(-2291.46 -1596.269)" fill="#b1b1b1"></path></g></g><g id="Group_104634" data-name="Group 104634" transform="translate(1492.383 551.83)"><g id="Group_104633" data-name="Group 104633"><path id="Path_135092" data-name="Path 135092" d="M2382.829,1372.592V1382.9H2291.46v-10.311a4.216,4.216,0,0,1,4.215-4.215h82.939A4.216,4.216,0,0,1,2382.829,1372.592Z" transform="translate(-2291.46 -1368.377)" fill="#cb2027"></path></g></g><g id="Group_104636" data-name="Group 104636" transform="translate(1576.241 557.512)"><g id="Group_104635" data-name="Group 104635"><path id="Path_135093" data-name="Path 135093" d="M3034.938,1420.123a1.581,1.581,0,1,1-1.581-1.581A1.581,1.581,0,0,1,3034.938,1420.123Z" transform="translate(-3031.777 -1418.542)" fill="#fff"></path></g></g><g id="Group_104638" data-name="Group 104638" transform="translate(1570.656 557.512)"><g id="Group_104637" data-name="Group 104637"><path id="Path_135094" data-name="Path 135094" d="M2985.629,1420.123a1.581,1.581,0,1,1-1.581-1.581A1.581,1.581,0,0,1,2985.629,1420.123Z" transform="translate(-2982.468 -1418.542)" fill="#fff"></path></g></g><g id="Group_104640" data-name="Group 104640" transform="translate(1565.07 557.512)"><g id="Group_104639" data-name="Group 104639"><path id="Path_135095" data-name="Path 135095" d="M2936.321,1420.123a1.581,1.581,0,1,1-1.581-1.581A1.581,1.581,0,0,1,2936.321,1420.123Z" transform="translate(-2933.16 -1418.542)" fill="#fff"></path></g></g><g id="Group_104647" data-name="Group 104647" transform="translate(1498.805 555.848)"><g id="Group_104642" data-name="Group 104642"><g id="Group_104641" data-name="Group 104641"><rect id="Rectangle_37495" data-name="Rectangle 37495" width="11.171" height="1.175" fill="#fff"></rect></g></g><g id="Group_104644" data-name="Group 104644" transform="translate(0 2.658)"><g id="Group_104643" data-name="Group 104643"><rect id="Rectangle_37496" data-name="Rectangle 37496" width="11.171" height="1.175" fill="#fff"></rect></g></g><g id="Group_104646" data-name="Group 104646" transform="translate(0 5.317)"><g id="Group_104645" data-name="Group 104645"><rect id="Rectangle_37497" data-name="Rectangle 37497" width="11.171" height="1.175" fill="#fff"></rect></g></g></g><g id="Group_104653" data-name="Group 104653" transform="translate(1492.212 551.66)"><g id="Group_104651" data-name="Group 104651"><path id="Path_135096" data-name="Path 135096" d="M2377.284,1443.891h-82.938a4.39,4.39,0,0,1-4.385-4.385v-68.243a4.39,4.39,0,0,1,4.385-4.385h82.938a4.39,4.39,0,0,1,4.385,4.385v68.243A4.39,4.39,0,0,1,2377.284,1443.891Zm-82.938-76.674a4.05,4.05,0,0,0-4.046,4.046v68.243a4.05,4.05,0,0,0,4.046,4.045h82.938a4.05,4.05,0,0,0,4.046-4.045v-68.243a4.05,4.05,0,0,0-4.046-4.046Z" transform="translate(-2289.96 -1366.877)" fill="#27191c"></path></g><g id="Group_104652" data-name="Group 104652" transform="translate(0 14.526)"><path id="Path_135097" data-name="Path 135097" d="M2381.5,1495.457H2290.13a.17.17,0,0,1,0-.34H2381.5a.17.17,0,0,1,0,.34Z" transform="translate(-2289.96 -1495.117)" fill="#27191c"></path></g></g><g id="Group_104656" data-name="Group 104656" transform="translate(1264.218 480.166)"><g id="Group_104655" data-name="Group 104655"><path id="Path_135098" data-name="Path 135098" d="M368.9,739.935V782.93a4.214,4.214,0,0,1-4.215,4.215H281.4a4.214,4.214,0,0,1-4.215-4.215V739.935a4.216,4.216,0,0,1,4.215-4.215h83.292A4.215,4.215,0,0,1,368.9,739.935Z" transform="translate(-277.182 -735.72)" fill="#fff"></path></g></g><g id="Group_104658" data-name="Group 104658" transform="translate(1264.218 480.166)"><g id="Group_104657" data-name="Group 104657"><path id="Path_135099" data-name="Path 135099" d="M368.9,739.935v10.311H277.182V739.935a4.216,4.216,0,0,1,4.215-4.215h83.292A4.215,4.215,0,0,1,368.9,739.935Z" transform="translate(-277.182 -735.72)" fill="#cb2027"></path></g></g><g id="Group_104660" data-name="Group 104660" transform="translate(1347.775 485.195)"><g id="Group_104659" data-name="Group 104659" transform="translate(0 0)"><circle id="Ellipse_5700" data-name="Ellipse 5700" cx="1.581" cy="1.581" r="1.581" transform="translate(0 2.236) rotate(-45)" fill="#fff"></circle></g></g><g id="Group_104662" data-name="Group 104662" transform="translate(1342.612 485.617)"><g id="Group_104661" data-name="Group 104661" transform="translate(0 0)"><ellipse id="Ellipse_5701" data-name="Ellipse 5701" cx="1.581" cy="1.581" rx="1.581" ry="1.581" transform="matrix(0.16, -0.987, 0.987, 0.16, 0, 3.121)" fill="#fff"></ellipse></g></g><g id="Group_104664" data-name="Group 104664" transform="translate(1337.026 485.617)"><g id="Group_104663" data-name="Group 104663" transform="translate(0 0)"><ellipse id="Ellipse_5702" data-name="Ellipse 5702" cx="1.581" cy="1.581" rx="1.581" ry="1.581" transform="matrix(0.16, -0.987, 0.987, 0.16, 0, 3.121)" fill="#fff"></ellipse></g></g><g id="Group_104671" data-name="Group 104671" transform="translate(1270.641 484.184)"><g id="Group_104666" data-name="Group 104666"><g id="Group_104665" data-name="Group 104665"><rect id="Rectangle_37498" data-name="Rectangle 37498" width="11.171" height="1.175" fill="#fff"></rect></g></g><g id="Group_104668" data-name="Group 104668" transform="translate(0 2.658)"><g id="Group_104667" data-name="Group 104667"><rect id="Rectangle_37499" data-name="Rectangle 37499" width="11.171" height="1.175" fill="#fff"></rect></g></g><g id="Group_104670" data-name="Group 104670" transform="translate(0 5.317)"><g id="Group_104669" data-name="Group 104669"><rect id="Rectangle_37500" data-name="Rectangle 37500" width="11.171" height="1.175" fill="#fff"></rect></g></g></g><g id="Group_104675" data-name="Group 104675" transform="translate(1264.048 479.996)"><g id="Group_104673" data-name="Group 104673"><path id="Path_135100" data-name="Path 135100" d="M363.359,785.985H280.067a4.39,4.39,0,0,1-4.385-4.385V738.605a4.39,4.39,0,0,1,4.385-4.385h83.292a4.39,4.39,0,0,1,4.385,4.385V781.6A4.39,4.39,0,0,1,363.359,785.985ZM280.067,734.56a4.05,4.05,0,0,0-4.045,4.045V781.6a4.05,4.05,0,0,0,4.045,4.045h83.292A4.05,4.05,0,0,0,367.4,781.6V738.605a4.05,4.05,0,0,0-4.045-4.045Z" transform="translate(-275.682 -734.22)" fill="#27191c"></path></g><g id="Group_104674" data-name="Group 104674" transform="translate(0 14.526)"><path id="Path_135101" data-name="Path 135101" d="M367.574,862.8H275.852a.17.17,0,0,1,0-.34h91.722a.17.17,0,0,1,0,.34Z" transform="translate(-275.682 -862.46)" fill="#27191c"></path></g></g><g id="Group_104677" data-name="Group 104677" transform="translate(1303.604 505.32)"><rect id="Rectangle_37501" data-name="Rectangle 37501" width="43.473" height="1.82" fill="#e0e0e0"></rect></g><g id="Group_104678" data-name="Group 104678" transform="translate(1303.604 512.236)"><rect id="Rectangle_37502" data-name="Rectangle 37502" width="30.687" height="1.82" fill="#e0e0e0"></rect></g><g id="Group_104679" data-name="Group 104679" transform="translate(1303.604 519.141)"><rect id="Rectangle_37503" data-name="Rectangle 37503" width="36.87" height="1.819" fill="#e0e0e0"></rect></g><path id="Path_135102" data-name="Path 135102" d="M367.494,919.323a12.053,12.053,0,1,0,12.053,12.053A12.053,12.053,0,0,0,367.494,919.323Zm0,20.682a8.629,8.629,0,1,1,8.629-8.629A8.629,8.629,0,0,1,367.494,940Z" transform="translate(917.642 -418.359)" fill="#cb2027"></path><g id="Group_104681" data-name="Group 104681" transform="translate(1281.5 500.965)"><path id="Path_135103" data-name="Path 135103" d="M433.387,919.325a12.061,12.061,0,0,0-3.635.558l1.033,3.265a8.638,8.638,0,0,1,9.376,2.883l2.689-2.121A12.03,12.03,0,0,0,433.387,919.325Z" transform="translate(-429.752 -919.325)" fill="#121313"></path></g><g id="Group_104743" data-name="Group 104743" transform="translate(1535.022 455.379)"><g id="Group_104742" data-name="Group 104742"><path id="Path_135120" data-name="Path 135120" d="M2732.336,521.1v68.1a4.214,4.214,0,0,1-4.215,4.215H2672.1a4.214,4.214,0,0,1-4.215-4.215V521.1a4.215,4.215,0,0,1,4.215-4.216h56.018A4.216,4.216,0,0,1,2732.336,521.1Z" transform="translate(-2667.887 -516.888)" fill="#fff"></path></g></g><g id="Group_104745" data-name="Group 104745" transform="translate(1535.022 455.379)"><g id="Group_104744" data-name="Group 104744"><path id="Path_135121" data-name="Path 135121" d="M2732.336,521.1v10.311h-64.449V521.1a4.215,4.215,0,0,1,4.215-4.216h56.018A4.216,4.216,0,0,1,2732.336,521.1Z" transform="translate(-2667.887 -516.888)" fill="#cb2027"></path></g></g><g id="Group_104747" data-name="Group 104747" transform="translate(1591.305 460.406)"><g id="Group_104746" data-name="Group 104746" transform="translate(0 0)"><circle id="Ellipse_5703" data-name="Ellipse 5703" cx="1.581" cy="1.581" r="1.581" transform="translate(0 2.236) rotate(-45)" fill="#fff"></circle></g></g><g id="Group_104749" data-name="Group 104749" transform="translate(1586.142 460.83)"><g id="Group_104748" data-name="Group 104748" transform="translate(0 0)"><ellipse id="Ellipse_5704" data-name="Ellipse 5704" cx="1.581" cy="1.581" rx="1.581" ry="1.581" transform="matrix(0.16, -0.987, 0.987, 0.16, 0, 3.121)" fill="#fff"></ellipse></g></g><g id="Group_104751" data-name="Group 104751" transform="translate(1580.557 460.83)"><g id="Group_104750" data-name="Group 104750" transform="translate(0 0)"><ellipse id="Ellipse_5705" data-name="Ellipse 5705" cx="1.581" cy="1.581" rx="1.581" ry="1.581" transform="matrix(0.16, -0.987, 0.987, 0.16, 0, 3.121)" fill="#fff"></ellipse></g></g><g id="Group_104758" data-name="Group 104758" transform="translate(1541.444 459.395)"><g id="Group_104753" data-name="Group 104753"><g id="Group_104752" data-name="Group 104752"><rect id="Rectangle_37512" data-name="Rectangle 37512" width="11.171" height="1.175" fill="#fff"></rect></g></g><g id="Group_104755" data-name="Group 104755" transform="translate(0 2.658)"><g id="Group_104754" data-name="Group 104754"><rect id="Rectangle_37513" data-name="Rectangle 37513" width="11.171" height="1.175" fill="#fff"></rect></g></g><g id="Group_104757" data-name="Group 104757" transform="translate(0 5.317)"><g id="Group_104756" data-name="Group 104756"><rect id="Rectangle_37514" data-name="Rectangle 37514" width="11.171" height="1.175" fill="#fff"></rect></g></g></g><g id="Group_104762" data-name="Group 104762" transform="translate(1534.852 455.209)"><g id="Group_104760" data-name="Group 104760"><path id="Path_135122" data-name="Path 135122" d="M2726.791,592.259h-56.019a4.39,4.39,0,0,1-4.385-4.385v-68.1a4.39,4.39,0,0,1,4.385-4.385h56.019a4.39,4.39,0,0,1,4.385,4.385v68.1A4.39,4.39,0,0,1,2726.791,592.259Zm-56.019-76.53a4.05,4.05,0,0,0-4.045,4.045v68.1a4.05,4.05,0,0,0,4.045,4.045h56.019a4.05,4.05,0,0,0,4.045-4.045v-68.1a4.05,4.05,0,0,0-4.045-4.045Z" transform="translate(-2666.387 -515.389)" fill="#27191c"></path></g><g id="Group_104761" data-name="Group 104761" transform="translate(0 14.526)"><path id="Path_135123" data-name="Path 135123" d="M2731.006,643.968h-64.449a.17.17,0,1,1,0-.34h64.449a.17.17,0,1,1,0,.34Z" transform="translate(-2666.387 -643.628)" fill="#27191c"></path></g></g><g id="Group_104764" data-name="Group 104764" transform="translate(1541.858 474.467)"><path id="Path_135124" data-name="Path 135124" d="M2753.63,685.4a25.388,25.388,0,1,0,25.388,25.388A25.388,25.388,0,0,0,2753.63,685.4Zm0,36.028a10.64,10.64,0,1,1,10.64-10.64A10.641,10.641,0,0,1,2753.63,721.425Z" transform="translate(-2728.242 -685.397)" fill="#ececec"></path></g><g id="Group_104765" data-name="Group 104765" transform="translate(1569.042 510.744)"><path id="Path_135125" data-name="Path 135125" d="M2972.2,1005.661a12.062,12.062,0,0,1-3.983,1.329l.972,11.3a23.248,23.248,0,0,0,8.647-2.814Z" transform="translate(-2968.221 -1005.661)" fill="#b1b1b1"></path></g><g id="Group_104766" data-name="Group 104766" transform="translate(1570.652 476.924)"><path id="Path_135126" data-name="Path 135126" d="M2984.9,707.081l-2.47,11.066a12.384,12.384,0,0,1,5.716,20.109l7.944,8.037a23.756,23.756,0,0,0-11.189-39.212Z" transform="translate(-2982.431 -707.081)" fill="#cb2027"></path></g><g id="Group_104767" data-name="Group 104767" transform="translate(1543.745 476.178)"><path id="Path_135127" data-name="Path 135127" d="M2768.393,711.818a12.082,12.082,0,0,1,2.3.22l2.468-11.058a23.661,23.661,0,1,0-4.772,46.867c.551,0,1.1-.019,1.639-.057l-.971-11.289c-.221.013-.444.018-.668.018a12.351,12.351,0,0,1,0-24.7Z" transform="translate(-2744.891 -700.491)" fill="#fafafa"></path></g><g id="Group_104768" data-name="Group 104768" transform="translate(1573.996 508.908)"><path id="Path_135128" data-name="Path 135128" d="M3013.531,989.461a12.081,12.081,0,0,1-1.58,1.252l5.64,9.819a23.652,23.652,0,0,0,3.881-3.038Z" transform="translate(-3011.951 -989.461)" fill="#121313"></path></g><g id="Group_104770" data-name="Group 104770" transform="translate(1541.689 474.297)"><path id="Path_135129" data-name="Path 135129" d="M2752.3,735.013a25.558,25.558,0,1,1,18.072-7.486A25.391,25.391,0,0,1,2752.3,735.013Zm0-50.776a25.218,25.218,0,1,0,25.218,25.218A25.247,25.247,0,0,0,2752.3,684.237Zm0,36.028a10.81,10.81,0,1,1,10.811-10.81A10.823,10.823,0,0,1,2752.3,720.265Zm0-21.281a10.471,10.471,0,1,0,10.471,10.47A10.482,10.482,0,0,0,2752.3,698.984Z" transform="translate(-2726.742 -683.897)" fill="#27191c"></path></g><g id="Group_104774" data-name="Group 104774" transform="translate(1536.416 634.648)"><rect id="Rectangle_37515" data-name="Rectangle 37515" width="24.303" height="2.965" transform="translate(24.303 2.965) rotate(180)" fill="#ccbdb7"></rect></g><g id="Group_104775" data-name="Group 104775" transform="translate(1613.72 595.848)"><path id="Path_135130" data-name="Path 135130" d="M818.987,3537.64s1.472,20.652-2.563,23.125c-2.528,1.548-12.608,6.771-12.308,7.75s5.691,8.714,5.691,8.714,19.36-12.749,19.985-16.767c.609-3.925-.953-30.24-3.614-31.452-1.993-.908-3.046-.158-5.558,1.709C817.1,3533.334,818.987,3537.64,818.987,3537.64Z" transform="translate(-804.11 -3528.625)" fill="#cb2027"></path></g><g id="Group_104778" data-name="Group 104778" transform="translate(1591.605 605.254)"><g id="Group_104777" data-name="Group 104777"><g id="Group_104776" data-name="Group 104776"><path id="Path_135131" data-name="Path 135131" d="M629.171,3609.25l-1.707-.631s2.128-5,3.057-4.875a22.982,22.982,0,0,1,2.406.493Z" transform="translate(-627.464 -3603.742)" fill="#ead8cf"></path></g></g></g><g id="Group_104781" data-name="Group 104781" transform="translate(1592.922 604.92)"><g id="Group_104780" data-name="Group 104780"><g id="Group_104779" data-name="Group 104779"><path id="Path_135132" data-name="Path 135132" d="M637.984,3607.787c.218-.161,3.627-6.7,3.627-6.7l7.284.989-3.937,7.747Z" transform="translate(-637.984 -3601.085)" fill="#da9b5b"></path></g></g></g><g id="Group_104784" data-name="Group 104784" transform="translate(1604.776 723.676)"><g id="Group_104783" data-name="Group 104783" transform="translate(0 0)"><g id="Group_104782" data-name="Group 104782"><path id="Path_135133" data-name="Path 135133" d="M732.67,4550.212s.6,4.179.678,4.807,6.7-.369,6.7-.369l.536-4.976S733.5,4549.623,732.67,4550.212Z" transform="translate(-732.67 -4549.674)" fill="#424773"></path></g></g></g><g id="Group_104787" data-name="Group 104787" transform="translate(1593.891 728.209)"><g id="Group_104786" data-name="Group 104786" transform="translate(0 0)"><g id="Group_104785" data-name="Group 104785"><path id="Path_135134" data-name="Path 135134" d="M657.219,4586.161a17.869,17.869,0,0,1-4.128,3.616c-2.028,1.1-5.217,1.531-6.418,2.668-.866.82-3.155,4.351,5.273,4.279s12.492.5,13.394-.854-1.306-9.991-1.306-9.991S662.04,4586.6,657.219,4586.161Z" transform="translate(-645.727 -4585.879)" fill="#19191f"></path></g></g></g><g id="Group_104790" data-name="Group 104790" transform="translate(1562.349 723.717)"><g id="Group_104789" data-name="Group 104789" transform="translate(0 0)"><g id="Group_104788" data-name="Group 104788"><path id="Path_135135" data-name="Path 135135" d="M393.779,4550.536s.6,4.178.677,4.806,6.7-.37,6.7-.37l.536-4.975S394.607,4549.947,393.779,4550.536Z" transform="translate(-393.779 -4549.997)" fill="#424773"></path></g></g></g><g id="Group_104793" data-name="Group 104793" transform="translate(1547.571 728.248)"><g id="Group_104792" data-name="Group 104792" transform="translate(0 0)"><g id="Group_104791" data-name="Group 104791"><path id="Path_135136" data-name="Path 135136" d="M291.122,4586.469a17.878,17.878,0,0,1-4.128,3.614c-2.029,1.1-9.5,2-10.7,3.136-.865.82-2.306,4.121,9.552,3.813,8.425-.218,12.492.5,13.4-.854s-1.307-9.993-1.307-9.993S296.057,4586.952,291.122,4586.469Z" transform="translate(-275.736 -4586.184)" fill="#19191f"></path></g></g></g><g id="Group_104796" data-name="Group 104796" transform="translate(1557.031 652.031)"><g id="Group_104795" data-name="Group 104795"><g id="Group_104794" data-name="Group 104794"><path id="Path_135137" data-name="Path 135137" d="M420.4,3977.386s-24.076,4.074-29.514,4.929-34.922,8.19-38.608,10.425c-2.935,1.78,1.539,44.518,2.584,60.825h11.613l.842-48.913c13.936.349,23.879-3.26,34.028-1.719s18.609,3.732,25.057-4.917C426.4,3998.015,426.643,3979.275,420.4,3977.386Z" transform="translate(-351.296 -3977.386)" fill="#19191f"></path></g></g></g><g id="Group_104799" data-name="Group 104799" transform="translate(1598.809 657.236)"><g id="Group_104798" data-name="Group 104798"><g id="Group_104797" data-name="Group 104797"><path id="Path_135138" data-name="Path 135138" d="M688.606,4089.993l11.318-.7,1.1-48.252a68.814,68.814,0,0,0,12.911-.819l9.137-21.239c-8.008,1.6-33.666,8.072-37.087,10.146C683.052,4030.911,687.561,4073.688,688.606,4089.993Z" transform="translate(-685.01 -4018.984)" fill="#19191f"></path></g></g></g><g id="Group_104802" data-name="Group 104802" transform="translate(1601.032 561.363)"><g id="Group_104801" data-name="Group 104801" transform="translate(0)"><g id="Group_104800" data-name="Group 104800"><path id="Path_135139" data-name="Path 135139" d="M716.787,3253.593s-8.826-2.439-12.192,4.412-1.841,19.84,2.607,21.062,10.844-.185,12.691-4.449,3.319-10.323,2.877-14.247S719.131,3254.531,716.787,3253.593Z" transform="translate(-702.767 -3253.171)" fill="#eea886"></path></g></g></g><g id="Group_104805" data-name="Group 104805" transform="translate(1607.277 579.889)"><g id="Group_104804" data-name="Group 104804"><g id="Group_104803" data-name="Group 104803"><path id="Path_135140" data-name="Path 135140" d="M753.15,3407.14s.1,5.211-.477,6.321,12.289.833,12.289.833-2.027-6.257-.877-11.588C765.223,3397.429,753.15,3407.14,753.15,3407.14Z" transform="translate(-752.654 -3401.135)" fill="#eea886"></path></g></g></g><g id="Group_104808" data-name="Group 104808" transform="translate(1600.757 560.492)"><g id="Group_104807" data-name="Group 104807" transform="translate(0)"><g id="Group_104806" data-name="Group 104806"><path id="Path_135141" data-name="Path 135141" d="M719.217,3265.2s-.687,1.4-4.017,1.172-7.722-4.243-9.135-4.6-1.5-1.163-1.5-1.163l-.747,1.33-1.449.22s.983-4.026-1.161-5.444.966-12.835,11.823-10.082c0,0,8.286,1.517,8.4,6.145S720.825,3262.744,719.217,3265.2Z" transform="translate(-700.574 -3246.2)" fill="#19191f"></path></g></g></g><g id="Group_104811" data-name="Group 104811" transform="translate(1606.619 588.654)"><g id="Group_104810" data-name="Group 104810"><g id="Group_104809" data-name="Group 104809"><path id="Path_135142" data-name="Path 135142" d="M747.4,3474.589s.036-2.123,1-2.326,10.112-1.461,11.294-1l.506,2.8S757.917,3475.468,747.4,3474.589Z" transform="translate(-747.395 -3471.164)" fill="#e2d2ca"></path></g></g></g><g id="Group_104814" data-name="Group 104814" transform="translate(1603.857 571.588)"><g id="Group_104813" data-name="Group 104813"><g id="Group_104812" data-name="Group 104812"><path id="Path_135143" data-name="Path 135143" d="M725.446,3337.2c.247-1.74,2.225-3.739,3.358-1.029s-.765,6.655-2.035,6.444S725.111,3339.556,725.446,3337.2Z" transform="translate(-725.331 -3334.84)" fill="#eea886"></path></g></g></g><g id="Group_104817" data-name="Group 104817" transform="translate(1617.626 563.027)"><g id="Group_104816" data-name="Group 104816"><g id="Group_104815" data-name="Group 104815"><path id="Path_135144" data-name="Path 135144" d="M835.316,3266.456s10.761-.505,1.878,16.292Z" transform="translate(-835.316 -3266.454)" fill="#19191f"></path></g></g></g><g id="Group_104819" data-name="Group 104819" transform="translate(1606.979 721.184)"><g id="Group_104818" data-name="Group 104818" transform="translate(0 0)"><path id="Path_135145" data-name="Path 135145" d="M784.894,4542.554l-.8,2.252-33.823-10.479,1.621-4.56Z" transform="translate(-750.27 -4529.767)" fill="#b1b1b1"></path></g></g><g id="Group_104821" data-name="Group 104821" transform="translate(1605.819 687.367)"><g id="Group_104820" data-name="Group 104820" transform="translate(0 0)"><rect id="Rectangle_37516" data-name="Rectangle 37516" width="3.844" height="36.773" transform="translate(3.844 36.773) rotate(180)" fill="#b1b1b1"></rect></g></g><g id="Group_104823" data-name="Group 104823" transform="translate(1596.404 685.412)"><g id="Group_104822" data-name="Group 104822" transform="translate(0 0)"><rect id="Rectangle_37517" data-name="Rectangle 37517" width="22.674" height="2.166" transform="translate(22.674 2.166) rotate(180)" fill="#5e5854"></rect></g></g><g id="Group_104825" data-name="Group 104825" transform="translate(1573.583 720.896)"><g id="Group_104824" data-name="Group 104824" transform="translate(0 0)"><path id="Path_135146" data-name="Path 135146" d="M483.509,4540.551l.8,2.253,33.823-10.48-1.487-4.847Z" transform="translate(-483.509 -4527.478)" fill="#b1b1b1"></path></g></g><g id="Group_104827" data-name="Group 104827" transform="translate(1597.413 720.896)"><g id="Group_104826" data-name="Group 104826" transform="translate(0 0)"><path id="Path_135147" data-name="Path 135147" d="M673.857,4542.562v2.619l10.794-12.857-1.487-4.847Z" transform="translate(-673.857 -4527.478)" fill="#b1b1b1"></path></g></g><g id="Group_104829" data-name="Group 104829" transform="translate(1570.422 733.943)"><g id="Group_104828" data-name="Group 104828"><path id="Path_135148" data-name="Path 135148" d="M458.263,4634.84a3.161,3.161,0,1,0,3.161-3.161A3.161,3.161,0,0,0,458.263,4634.84Z" transform="translate(-458.263 -4631.679)" fill="#bfb2ac"></path></g></g><g id="Group_104831" data-name="Group 104831" transform="translate(1597.145 733.943)"><g id="Group_104830" data-name="Group 104830" transform="translate(0)"><path id="Path_135149" data-name="Path 135149" d="M671.717,4634.84a3.161,3.161,0,1,0,3.161-3.161A3.161,3.161,0,0,0,671.717,4634.84Z" transform="translate(-671.717 -4631.679)" fill="#bfb2ac"></path></g></g><g id="Group_104833" data-name="Group 104833" transform="translate(1638.441 733.943)"><g id="Group_104832" data-name="Group 104832"><path id="Path_135150" data-name="Path 135150" d="M1001.581,4634.84a3.161,3.161,0,1,0,3.162-3.161A3.162,3.162,0,0,0,1001.581,4634.84Z" transform="translate(-1001.581 -4631.679)" fill="#bfb2ac"></path></g></g><g id="Group_104834" data-name="Group 104834" transform="translate(1580.734 677.205)"><path id="Rectangle_37518" data-name="Rectangle 37518" d="M3.617,0H50.1a3.617,3.617,0,0,1,3.617,3.617v.975A3.616,3.616,0,0,1,50.1,8.209H3.616A3.616,3.616,0,0,1,0,4.592V3.617A3.617,3.617,0,0,1,3.617,0Z" transform="translate(53.717 8.209) rotate(180)" fill="#e0e0e0"></path></g><g id="Group_104835" data-name="Group 104835" transform="translate(1532.117 630.217)"><path id="Path_135151" data-name="Path 135151" d="M152.291,3810.347v-1s1.4-6.205,11.323-6.205,9.719,7.2,9.719,7.2Z" transform="translate(-152.291 -3803.144)" fill="#19191f"></path></g><g id="Group_104837" data-name="Group 104837" transform="translate(1535.467 627.295)"><g id="Group_104836" data-name="Group 104836"><path id="Path_135152" data-name="Path 135152" d="M196.87,3783.652a9.787,9.787,0,0,1-2.945-.644c-.789-.476-5.513-3.653-6.623-3.145s-8.494,2.77-8.237,3.851.94.976,1.461.785,5.882-1.317,6.356-1.128c0,0-5.267,1.922-5.289,3.323s1.1,1.744,1.6,2.273,1.1,1.848,2.457,1.949,7.98-2.2,9.343-2.309,3.887.085,4.059-.137S196.87,3783.652,196.87,3783.652Z" transform="translate(-179.058 -3779.809)" fill="#eea886"></path></g></g><g id="Group_104840" data-name="Group 104840" transform="translate(1551.052 591.559)"><g id="Group_104839" data-name="Group 104839"><g id="Group_104838" data-name="Group 104838"><path id="Path_135153" data-name="Path 135153" d="M345,3497.82c6.872-1.208,14.1-2.941,14.1-2.941l12.8-.521s11.746,2.585,16.371,4.675c.439.2.441,10.479,1.644,13.174l-3.835,8.091s-2.215,16.027-2.675,23.155c-.211,3.271.6,31.622.6,31.622s-1.15.568-9.883,1.531-30.557-.348-30.7-1.378,4.226-38.414,4.42-40.349c.3-2.972-.858-16.7-.858-16.7-1.647,2.211-5.841,12.193-10.214,16.943-2.573,2.793-15.31,4.507-17.71,4.586-5.226.175-14.76,1.216-15.039.707-.222-.305-.83-8.462-.233-8.662.523-.174,18.227-1.193,22.761-3.6,1.66-.882,6.62-11.7,6.62-11.7S341.211,3499.524,345,3497.82Z" transform="translate(-303.538 -3494.358)" fill="#cb2027"></path></g></g></g><g id="Group_104841" data-name="Group 104841" transform="translate(1609.956 620.15)"><path id="Rectangle_37519" data-name="Rectangle 37519" d="M6.945,0H30.1a6.944,6.944,0,0,1,6.944,6.944V44.361A6.944,6.944,0,0,1,30.1,51.306H6.944A6.944,6.944,0,0,1,0,44.361V6.945A6.945,6.945,0,0,1,6.945,0Z" transform="translate(37.044 51.306) rotate(180)" fill="#ebebeb"></path></g><g id="Group_104842" data-name="Group 104842" transform="translate(1614.459 652.904)"><path id="Path_135154" data-name="Path 135154" d="M812.078,4014.838c5.46,0,9.89-1.835,13.167-5.452,7.406-8.176,6.074-22.548,6.014-23.156a2.061,2.061,0,0,0-4.1.406c.015.164,1.2,13.191-4.976,19.991-2.5,2.751-5.8,4.089-10.1,4.089a2.061,2.061,0,1,0,0,4.122Z" transform="translate(-810.017 -3984.373)" fill="#b1b1b1"></path></g><g id="Group_104846" data-name="Group 104846" transform="translate(1231.069 540.705)"><g id="Group_104845" data-name="Group 104845" transform="translate(0 44.384) rotate(-11)"><path id="Path_135155" data-name="Path 135155" d="M16.905,0c-2.98.258-8.153.676-12.23.856A11.776,11.776,0,0,1,0,.4C0,.49,0,.576.008.657a.843.843,0,0,0,.8.8,143.264,143.264,0,0,0,16.014.016.6.6,0,0,0,.489-.9A4.916,4.916,0,0,0,16.905,0Z" transform="translate(34.682 150.617)" fill="#161616"></path><path id="Path_135156" data-name="Path 135156" d="M4.676,6.873c4.078-.179,9.25-.6,12.23-.856C13.976,2.423,4.676,0,4.676,0H2.049A11.017,11.017,0,0,0,0,6.416,11.776,11.776,0,0,0,4.676,6.873Z" transform="translate(34.681 144.6)" fill="#161616"></path><path id="Path_135157" data-name="Path 135157" d="M0,0,.246,4.864a1.111,1.111,0,0,0,.949,1.045,4.322,4.322,0,0,0,1.973-.163,1.314,1.314,0,0,0,.883-1.01L4.9,0Z" transform="translate(36.288 140.311)" fill="#ffc09d"></path><g id="Group_104844" data-name="Group 104844" transform="translate(0 140.28)"><path id="Path_135158" data-name="Path 135158" d="M2.171,1.57A2.359,2.359,0,0,1,.048,0l0,.019A1.68,1.68,0,0,0,1.176,1.934a7.393,7.393,0,0,0,3.134.491,3.115,3.115,0,0,0,2.35-1.084l.007-.01C5.693,1.813,4.326,1.87,2.171,1.57Z" transform="translate(0 9.587)" fill="#161616"></path><path id="Path_135159" data-name="Path 135159" d="M8.216,0H6.05C2.75-.067.678,6.892,0,9.587a2.359,2.359,0,0,0,2.122,1.569c2.155.3,3.522.244,4.5-.238C8.4,8.573,9.285,5.138,9.709,3.133A2.734,2.734,0,0,0,8.216,0Z" transform="translate(0.048 0)" fill="#161616"></path></g><path id="Path_135160" data-name="Path 135160" d="M1.242,0,.039,4.784A1.3,1.3,0,0,0,.715,6.256a4.609,4.609,0,0,0,2.491.6,1.085,1.085,0,0,0,.885-.723L5.856,1.1Z" transform="translate(5.135 135.765)" fill="#ffc09d"></path><path id="Path_135161" data-name="Path 135161" d="M0,68.021c1.5,1.327,6.364,1.5,6.364,1.5C23.9,27.44,31.071,21.462,31.071,21.462c-2.532,15.884-.408,51.05-.408,51.05,2.893,1.277,6.624,0,6.624,0A271.063,271.063,0,0,1,46.24,5.949C34.389,5.683,28.087,1.628,26.029,0,16.151,15.926,0,68.021,0,68.021Z" transform="translate(4.942 69.127)" fill="#161616"></path><path id="Path_135162" data-name="Path 135162" d="M4.113.288C1.869,11.477,2.673,31.5,3.2,40.637,3.35,43.2,1.558,46.764.109,49.192a.762.762,0,0,0,.308,1.071,52.823,52.823,0,0,0,20.164,5.59,1.358,1.358,0,0,0,1.367-1.015C29.011,28.464,37.215,11.61,37.215,11.61,28.157-2.855,4.113.288,4.113.288Z" transform="translate(29.869 20.442)" fill="#cb2027"></path><path id="Path_135163" data-name="Path 135163" d="M.561,6.944a.562.562,0,0,1-.479-.853A17.613,17.613,0,0,1,7.034.056a.561.561,0,1,1,.488,1.011A16.8,16.8,0,0,0,1.041,6.675.562.562,0,0,1,.561,6.944Z" transform="translate(36.648 82.648)" fill="#161616"></path><path id="Path_135164" data-name="Path 135164" d="M0,.778A38.488,38.488,0,0,0,7.108,17.715l1.619-1.32A49.991,49.991,0,0,1,7.92.208,19.376,19.376,0,0,0,0,.778Z" transform="translate(19.911 52.064)" fill="#ffc09d"></path><path id="Path_135165" data-name="Path 135165" d="M16.864,13.805,14.358,0S-2.381,12.8.289,32.112a19.377,19.377,0,0,1,7.92-.57C8.974,25.343,11.26,18.614,16.864,13.805Z" transform="translate(19.623 20.731)" fill="#cb2027"></path><path id="Path_135166" data-name="Path 135166" d="M6.462,0,0,13.916c1.045,8.4,5.558,12.034,10.424,13.427a29.532,29.532,0,0,1,2.17-9.062C6.376,11.861,6.462,0,6.462,0Z" transform="translate(60.622 32.053)" fill="#cb2027"></path><path id="Path_135167" data-name="Path 135167" d="M2.17,0A29.528,29.528,0,0,0,0,9.062C12.983,14.1,16.418,4.33,16.418,4.33l-2.4-.423C8.6,4.478,4.815,2.731,2.17,0Z" transform="translate(71.047 50.334)" fill="#ffc09d"></path><path id="Path_135168" data-name="Path 135168" d="M12.171,3.092,9.052,14.56a2.231,2.231,0,0,1-2.984,1.484,45.292,45.292,0,0,1-4.5-2.054A3.006,3.006,0,0,1,.512,9.67L7,0Z" transform="translate(48.96 11.78)" fill="#ffc09d"></path><path id="Path_135169" data-name="Path 135169" d="M9.93,1.84c.028.2-2.6,13.086-2.6,13.086L0,13.268.678.682S9.454-1.456,9.93,1.84Z" transform="translate(58.026 4.319)" fill="#ffc09d"></path><path id="Path_135170" data-name="Path 135170" d="M6.783,7.806l-.876,6.6a.917.917,0,0,0,0,.253c.074.517.459,2.278,2.236,1.774,1.613-.457,3.091-.85,4.113-.537a.929.929,0,0,1,.639,1.075,40.158,40.158,0,0,1-1.687,6.006.927.927,0,0,1-1.126.548,29.957,29.957,0,0,1-6.459-2.643.93.93,0,0,1-.453-.837c.07-1.666.265-6.729.1-8.148-.154-1.332-1.789-2.13-2.5-2.416a.913.913,0,0,1-.509-.51A2.41,2.41,0,0,1,1.887,5.454a.931.931,0,0,0,.589-1.2A2.414,2.414,0,0,1,3.83.913a3.406,3.406,0,0,1,4.064.979.931.931,0,0,0,1.185.14.736.736,0,0,1,.837.028.916.916,0,0,0,1.3-.393A2.776,2.776,0,0,1,14.438.06c3.284.562,3.656,4.2,2.789,6.333s-4.392,1.32-6.16.245c-1.345-.817-3.089.039-3.848.5A.922.922,0,0,0,6.783,7.806Z" transform="translate(53.569 0)" fill="#161616"></path><path id="Path_135171" data-name="Path 135171" d="M3.089,5.136S4.439,1.356,3.052.43-.389-.015.064,2.724C.626,6.13,3.089,5.136,3.089,5.136Z" transform="translate(53.457 9.163)" fill="#ffc09d"></path><path id="Path_135172" data-name="Path 135172" d="M1.484.616,9.041,0l3.273,3.017s-.774,1.07-3.195.455a34.667,34.667,0,0,0-5.736-.766S.041,4.212,0,1.393Z" transform="translate(26.486 67.613)" fill="#ffc09d"></path><path id="Path_135173" data-name="Path 135173" d="M.782,5.72c.654.511,2.892-.555,4.262-1.292a1.576,1.576,0,0,0,.762-1.863C5.477,1.526,4.927.184,4.25.014,3.127-.266-1.911,3.616.782,5.72Z" transform="translate(85.721 50.731)" fill="#ffc09d"></path></g><path id="Path_135174" data-name="Path 135174" d="M83.963,0,4.029,29.093A6.12,6.12,0,0,0,.551,37.378l.242.533a5.689,5.689,0,0,0,7.568,2.808l77.614-35.9Z" transform="translate(24.216 90.911) rotate(-11)" fill="#fafafa"></path><path id="Path_135175" data-name="Path 135175" d="M43.907,0C19.658,0,0,19.3,0,43.115S19.658,86.23,43.907,86.23s43.907-19.3,43.907-43.115S68.156,0,43.907,0Zm0,79.9C23.22,79.9,6.45,63.429,6.45,43.115S23.22,6.333,43.907,6.333,81.365,22.8,81.365,43.115,64.594,79.9,43.907,79.9Z" transform="translate(88.035 16.756) rotate(-11)" fill="#fafafa"></path><path id="Path_135176" data-name="Path 135176" d="M.566,45.787a.3.3,0,0,1-.293-.258C.142,44.5.051,43.462,0,42.438a.3.3,0,0,1,.28-.309.276.276,0,0,1,.31.28c.049,1.009.14,2.034.268,3.046a.3.3,0,0,1-.255.33Zm.3-12.056a.3.3,0,0,1-.052,0,.294.294,0,0,1-.238-.342,39.684,39.684,0,0,1,2.369-8.107h0A41.034,41.034,0,0,1,41.135,0,41.6,41.6,0,0,1,63.249,6.32a.3.3,0,0,1-.314.5A41.01,41.01,0,0,0,41.135.59,40.445,40.445,0,0,0,3.492,25.5v0a39.039,39.039,0,0,0-2.333,7.985A.3.3,0,0,1,.867,33.731Z" transform="translate(91.266 18.847) rotate(-11)" fill="#c4c5c6"></path><path id="Path_135177" data-name="Path 135177" d="M4.009,12.643a.3.3,0,0,1-.1-.016C.79,11.547.063,9.7,0,8.345a4.756,4.756,0,0,1,3.1-4.582L12.7.02a.3.3,0,0,1,.214.55l-9.6,3.742A4.166,4.166,0,0,0,.594,8.319c.074,1.708,1.255,2.97,3.511,3.75a.3.3,0,0,1-.1.574Z" transform="translate(30.929 117.069) rotate(-11)" fill="#c4c5c6"></path><path id="Path_135178" data-name="Path 135178" d="M.295,1.075A.295.295,0,0,1,.188.505L1.432.02a.3.3,0,0,1,.214.55L.4,1.055A.293.293,0,0,1,.295,1.075Z" transform="translate(45.804 112.508) rotate(-11)" fill="#c4c5c6"></path></g></g></svg>