<svg xmlns="http://www.w3.org/2000/svg" xmlns:xlink="http://www.w3.org/1999/xlink" id="Group_60983" data-name="Group 60983" width="402.245" height="365.472" viewBox="0 0 402.245 365.472"><defs><clipPath id="clip-path"><rect id="Rectangle_30207" data-name="Rectangle 30207" width="402.245" height="365.471" fill="none"></rect></clipPath><clipPath id="clip-path-3"><rect id="Rectangle_30182" data-name="Rectangle 30182" width="43.984" height="43.982" fill="none"></rect></clipPath><clipPath id="clip-path-4"><rect id="Rectangle_30183" data-name="Rectangle 30183" width="19.296" height="19.298" fill="none"></rect></clipPath></defs><g id="Group_60982" data-name="Group 60982" clip-path="url(#clip-path)"><g id="Group_60981" data-name="Group 60981"><g id="Group_60980" data-name="Group 60980" clip-path="url(#clip-path)"><path id="Path_77221" data-name="Path 77221" d="M397.28,189.232H4.967a4.966,4.966,0,1,1,0-9.933H397.28a4.966,4.966,0,0,1,0,9.933" transform="translate(0 176.24)" fill="#f5f5f5"></path><path id="Path_77222" data-name="Path 77222" d="M100.567,72.956l-3.8-10.819-8.911.545c-1.241-1.731-3.764-2.917-5.318-4.311l1.473-8.729L73.67,44.69l-5.889,6.647a28.172,28.172,0,0,0-6.187-.014l-5.013-6.9L51.435,46.23,46.29,48.037l.4,8.519a28.436,28.436,0,0,0-4.765,4.021l-8.773-1.582L28.175,69.286,34.8,75.154c-.343,2.06-1.374,4.483-1.261,6.609l-7.053,5.051,3.8,10.819,8.667-.456a30.774,30.774,0,0,0,4.66,4.543l-1.265,8.659,10.45,4.924,5.945-6.651c2.062.343,4.569,1.491,6.694,1.378l5.53,8.291,5.148-1.806,5.146-1.806-.863-9.931c1.731-1.239,3.054-3.482,4.45-5.037l8.769,1.358L98.691,90.66,92.32,84.65c.343-2.062,1.071-4.406.958-6.532ZM69.024,96.329A17.34,17.34,0,1,1,79.335,74.335,17.346,17.346,0,0,1,69.024,96.329" transform="translate(26.032 43.666)" fill="#606060"></path><path id="Path_77223" data-name="Path 77223" d="M144.479,90.543l6.895-17.64-11.479-8.812c.311-3.5-1.442-7.652-1.886-11.075L149.323,43.7l-7.587-17.331L127.22,28.356a48,48,0,0,0-7.513-7.218L121.08,6.562,112.689,3.28,104.3,0l-8.88,11.644a47.876,47.876,0,0,0-10.408.174L75.675.525,58.328,8.118l1.965,14.515c-2.649,2.211-6.877,4.025-9.022,6.811l-14.6-1.38-6.9,17.64L41.44,54.592c-.311,3.5.654,7.349,1.1,10.769L31.707,74.876l7.825,17.438L54.162,90.4c2.213,2.647,4.317,6.3,7.1,8.451l-1.806,15.858,8.392,3.28,8.392,3.28,9.425-12.879c3.5.311,7.48-.827,10.9-1.273l9.469,11.269,17.581-7.541L122.1,96.48c2.649-2.213,5.816-4.452,7.962-7.236Zm-65.97.176a33.659,33.659,0,0,1,24.505-62.687A33.659,33.659,0,0,1,78.509,90.719" transform="translate(29.266)" fill="#c2c3c4"></path><path id="Path_77224" data-name="Path 77224" d="M110.328,64.091c.311-3.5-1.44-7.652-1.886-11.075L119.757,43.7,112.17,26.367,97.653,28.356a48,48,0,0,0-7.513-7.218L91.514,6.562l-8.392-3.28L74.732,0,65.85,11.644a49.754,49.754,0,0,0-6-.163V26.01a33.574,33.574,0,0,1,13.593,2.023A33.656,33.656,0,0,1,59.854,92.792v15.481c2.429-.286,4.906-.869,7.148-1.16l9.471,11.269,17.579-7.541L92.535,96.48c2.647-2.211,5.814-4.45,7.96-7.236l14.418,1.3,6.895-17.64Z" transform="translate(58.833)" fill="#c92027"></path><path id="Path_77225" data-name="Path 77225" d="M123.551,265.461,69.533,92.315H61.891L6.738,269.1H15.12L65.712,106.559l49.458,158.9Z" transform="translate(6.623 90.74)" fill="#c92027"></path><path id="Path_77226" data-name="Path 77226" d="M38.2,171.384H11.045l2.383-7.946H40.107Z" transform="translate(10.857 160.65)" fill="#c92027"></path><path id="Path_77227" data-name="Path 77227" d="M46.591,152.359H16.763l2.574-6.952H46.591Z" transform="translate(16.477 142.926)" fill="#c92027"></path><path id="Path_77228" data-name="Path 77228" d="M52.865,134.82H22.506l2.286-7.946H52.865Z" transform="translate(22.122 124.71)" fill="#c92027"></path><path id="Path_77229" data-name="Path 77229" d="M59.186,116.288H28.2l2.572-7.946H59.186Z" transform="translate(27.719 106.494)" fill="#c92027"></path><path id="Path_77230" data-name="Path 77230" d="M136.47,265.461,82.453,92.315H74.811L19.657,269.1h8.382L78.632,106.559l49.458,158.9Z" transform="translate(19.322 90.74)" fill="#c92027"></path><rect id="Rectangle_30169" data-name="Rectangle 30169" width="14.912" height="3.579" transform="translate(285.079 211.391)" fill="#c92027"></rect><rect id="Rectangle_30170" data-name="Rectangle 30170" width="24.23" height="3.579" transform="translate(285.079 222.357)" fill="#c92027"></rect><rect id="Rectangle_30171" data-name="Rectangle 30171" width="14.912" height="3.579" transform="translate(285.079 233.32)" fill="#c92027"></rect><rect id="Rectangle_30172" data-name="Rectangle 30172" width="33.621" height="3.579" transform="translate(326.564 211.391)" fill="#c92027"></rect><rect id="Rectangle_30173" data-name="Rectangle 30173" width="33.621" height="3.579" transform="translate(326.564 233.32)" fill="#c92027"></rect><rect id="Rectangle_30174" data-name="Rectangle 30174" width="27.993" height="3.579" transform="translate(332.192 222.357)" fill="#c92027"></rect><rect id="Rectangle_30175" data-name="Rectangle 30175" width="11.44" height="3.579" transform="translate(315.125 222.357)" fill="#c92027"></rect><rect id="Rectangle_30176" data-name="Rectangle 30176" width="14.912" height="3.579" transform="translate(305.577 211.391)" fill="#c92027"></rect><rect id="Rectangle_30177" data-name="Rectangle 30177" width="14.912" height="3.579" transform="translate(305.577 233.32)" fill="#c92027"></rect><path id="Path_77231" data-name="Path 77231" d="M51.858,302.455V57.377A19.829,19.829,0,0,1,71.687,37.548H208.746a19.83,19.83,0,0,1,19.829,19.829V302.455a19.83,19.83,0,0,1-19.829,19.829H71.687a19.829,19.829,0,0,1-19.829-19.829" transform="translate(50.973 36.907)" fill="#2a2628"></path><path id="Path_77232" data-name="Path 77232" d="M90.284,177.4a12.162,12.162,0,1,1,12.163,12.163A12.163,12.163,0,0,1,90.284,177.4" transform="translate(88.744 162.414)" fill="#fff"></path><path id="Path_77233" data-name="Path 77233" d="M93.5,174.232a5.78,5.78,0,1,1,5.78,5.78,5.78,5.78,0,0,1-5.78-5.78" transform="translate(91.907 165.578)"></path><path id="Path_77234" data-name="Path 77234" d="M94.677,44.34a3.451,3.451,0,1,1,3.45,3.45,3.45,3.45,0,0,1-3.45-3.45" transform="translate(93.062 40.192)" fill="#fff"></path><rect id="Rectangle_30178" data-name="Rectangle 30178" width="158.659" height="227.746" transform="translate(111.862 94.299)" fill="#fff"></rect><rect id="Rectangle_30179" data-name="Rectangle 30179" width="158.659" height="19.695" transform="translate(111.862 94.299)" fill="#606060"></rect><path id="Path_77235" data-name="Path 77235" d="M32.821,82.947l-9.076,1.908-8.83-1.908,7.307-24.313a1.612,1.612,0,0,1,3.083-.012Z" transform="translate(14.661 56.505)" fill="#ffc266"></path><path id="Path_77236" data-name="Path 77236" d="M25.395,66.727l-2.5-8.106a1.612,1.612,0,0,0-3.083.012l-2.433,8.094Z" transform="translate(17.078 56.504)" fill="#606060"></path><path id="Path_77237" data-name="Path 77237" d="M14.915,70.325H32.821V227.571l-8.953,6.4-8.953-6.4Z" transform="translate(14.661 69.126)" fill="#606060"></path><rect id="Rectangle_30180" data-name="Rectangle 30180" width="6.391" height="169.575" transform="translate(35.334 139.452)" fill="#fff"></rect><path id="Path_77238" data-name="Path 77238" d="M32.821,166.874V154.931H14.915v11.943a4.815,4.815,0,0,0,4.817,4.817H28a4.817,4.817,0,0,0,4.817-4.817" transform="translate(14.661 152.288)" fill="#c92027"></path><rect id="Rectangle_30181" data-name="Rectangle 30181" width="17.906" height="10.847" transform="translate(29.576 296.697)"></rect><path id="Path_77239" data-name="Path 77239" d="M225.99,45.513c0-26.036-26.466-45.935-53.857-34.612a35.729,35.729,0,0,0-20.771,23.508C146.6,51.9,153.49,68.293,166.324,76.961V89.124h43.133V76.961A37.742,37.742,0,0,0,225.99,45.513" transform="translate(147.292 7.522)" fill="#c2c3c4"></path><path id="Path_77240" data-name="Path 77240" d="M169.154,7.669V89.11H190.48V76.945A37.948,37.948,0,0,0,169.154,7.669" transform="translate(166.268 7.538)" fill="#c92027"></path><path id="Path_77241" data-name="Path 77241" d="M158.093,47.923V64.8h6.256c.73,6.33,7.309,13.9,15.324,13.9S194.268,71.133,195,64.8h6.526V47.923Z" transform="translate(155.396 47.105)" fill="#2a2628"></path><g id="Group_60976" data-name="Group 60976" transform="translate(313.221 30.805)" style="mix-blend-mode: soft-light;isolation: isolate"><g id="Group_60975" data-name="Group 60975"><g id="Group_60974" data-name="Group 60974" clip-path="url(#clip-path-3)"><path id="Path_77242" data-name="Path 77242" d="M157.958,37.526a21.992,21.992,0,1,1,21.991,21.991,21.99,21.99,0,0,1-21.991-21.991" transform="translate(-157.958 -15.535)" fill="#fff"></path></g></g></g><g id="Group_60979" data-name="Group 60979" transform="translate(325.565 43.147)" style="mix-blend-mode: soft-light;isolation: isolate"><g id="Group_60978" data-name="Group 60978"><g id="Group_60977" data-name="Group 60977" clip-path="url(#clip-path-4)"><path id="Path_77243" data-name="Path 77243" d="M164.183,31.408a9.649,9.649,0,1,1,9.649,9.649,9.65,9.65,0,0,1-9.649-9.649" transform="translate(-164.183 -21.759)" fill="#fff"></path></g></g></g><line id="Line_390" data-name="Line 390" y2="43.7" transform="translate(335.204 122.469)"></line><path id="Path_77244" data-name="Path 77244" d="M151.339,151.456H87.99a17.58,17.58,0,0,1-17.581-17.581V113.884A17.58,17.58,0,0,1,87.99,96.3h63.349a17.58,17.58,0,0,1,17.581,17.581v19.992a17.58,17.58,0,0,1-17.581,17.581" transform="translate(69.208 94.66)" fill="#606060"></path><rect id="Rectangle_30184" data-name="Rectangle 30184" width="23.783" height="22.36" transform="translate(139.617 254.982)" fill="#c92027"></rect><rect id="Rectangle_30185" data-name="Rectangle 30185" width="23.783" height="22.36" transform="translate(139.617 281.641)" fill="#c92027"></rect><rect id="Rectangle_30186" data-name="Rectangle 30186" width="39.926" height="1.204" transform="translate(166.495 256.188)" fill="#c92027"></rect><rect id="Rectangle_30187" data-name="Rectangle 30187" width="39.926" height="1.204" transform="translate(166.495 269.731)" fill="#c92027"></rect><rect id="Rectangle_30188" data-name="Rectangle 30188" width="24.487" height="1.204" transform="translate(166.495 260.703)" fill="#c92027"></rect><rect id="Rectangle_30189" data-name="Rectangle 30189" width="24.487" height="1.204" transform="translate(166.495 274.246)" fill="#c92027"></rect><rect id="Rectangle_30190" data-name="Rectangle 30190" width="32.072" height="1.204" transform="translate(166.495 265.216)" fill="#c92027"></rect><rect id="Rectangle_30191" data-name="Rectangle 30191" width="39.926" height="1.204" transform="translate(166.495 283.189)" fill="#c92027"></rect><rect id="Rectangle_30192" data-name="Rectangle 30192" width="39.926" height="1.204" transform="translate(166.495 296.735)" fill="#c92027"></rect><rect id="Rectangle_30193" data-name="Rectangle 30193" width="24.487" height="1.204" transform="translate(166.495 287.704)" fill="#c92027"></rect><rect id="Rectangle_30194" data-name="Rectangle 30194" width="24.487" height="1.204" transform="translate(166.495 301.248)" fill="#c92027"></rect><rect id="Rectangle_30195" data-name="Rectangle 30195" width="32.072" height="1.204" transform="translate(166.495 292.22)" fill="#c92027"></rect><path id="Path_77245" data-name="Path 77245" d="M130.595,137.317H111.425a4.364,4.364,0,0,1,0-8.729h19.169a4.364,4.364,0,0,1,0,8.729" transform="translate(105.234 126.394)" fill="#2a2628"></path><path id="Path_77246" data-name="Path 77246" d="M114.558,123.835H77.078a4.364,4.364,0,1,1,0-8.729h37.48a4.364,4.364,0,0,1,0,8.729" transform="translate(71.473 113.142)" fill="#f5f5f5"></path><path id="Path_77247" data-name="Path 77247" d="M114.558,92.951H77.078a4.364,4.364,0,1,1,0-8.729h37.48a4.364,4.364,0,0,1,0,8.729Z" transform="translate(71.473 82.785)" fill="none" stroke="#606060" stroke-width="1"></path><path id="Path_77248" data-name="Path 77248" d="M130.595,150.761H111.425a4.364,4.364,0,0,1,0-8.729h19.169a4.364,4.364,0,0,1,0,8.729" transform="translate(105.234 139.609)" fill="#2a2628"></path><rect id="Rectangle_30196" data-name="Rectangle 30196" width="81.249" height="1.204" transform="translate(144.996 134.59)" fill="#606060"></rect><rect id="Rectangle_30197" data-name="Rectangle 30197" width="64.555" height="1.204" transform="translate(144.996 139.567)" fill="#606060"></rect><rect id="Rectangle_30198" data-name="Rectangle 30198" width="71.037" height="1.204" transform="translate(144.996 144.544)" fill="#606060"></rect><rect id="Rectangle_30199" data-name="Rectangle 30199" width="64.555" height="1.204" transform="translate(144.996 149.589)" fill="#606060"></rect><rect id="Rectangle_30200" data-name="Rectangle 30200" width="71.037" height="1.204" transform="translate(144.996 154.564)" fill="#606060"></rect><rect id="Rectangle_30201" data-name="Rectangle 30201" width="46.655" height="1.204" transform="translate(144.996 199.62)" fill="#f5f5f5"></rect><rect id="Rectangle_30202" data-name="Rectangle 30202" width="29.962" height="1.204" transform="translate(144.994 204.598)" fill="#f5f5f5"></rect><rect id="Rectangle_30203" data-name="Rectangle 30203" width="36.444" height="1.204" transform="translate(144.996 209.575)" fill="#f5f5f5"></rect><rect id="Rectangle_30204" data-name="Rectangle 30204" width="29.962" height="1.204" transform="translate(144.994 214.619)" fill="#f5f5f5"></rect><rect id="Rectangle_30205" data-name="Rectangle 30205" width="36.444" height="1.204" transform="translate(144.996 219.597)" fill="#f5f5f5"></rect></g></g></g></svg>