<svg xmlns="http://www.w3.org/2000/svg" xmlns:xlink="http://www.w3.org/1999/xlink" width="593" height="383.633" viewBox="0 0 593 383.633"><defs><clipPath id="clip-path"><rect id="Rectangle_30085" data-name="Rectangle 30085" width="17.362" height="90.231" fill="none"></rect></clipPath><clipPath id="clip-path-2"><rect id="Rectangle_30087" data-name="Rectangle 30087" width="74.858" height="55.17" fill="none"></rect></clipPath><clipPath id="clip-path-3"><rect id="Rectangle_30088" data-name="Rectangle 30088" width="3.488" height="3.489" fill="none"></rect></clipPath><clipPath id="clip-path-4"><rect id="Rectangle_30089" data-name="Rectangle 30089" width="3.489" height="3.489" fill="none"></rect></clipPath><clipPath id="clip-path-6"><rect id="Rectangle_30091" data-name="Rectangle 30091" width="2.059" height="55.17" fill="none"></rect></clipPath><clipPath id="clip-path-7"><rect id="Rectangle_30095" data-name="Rectangle 30095" width="25.48" height="104.586" fill="none"></rect></clipPath><clipPath id="clip-path-8"><rect id="Rectangle_30097" data-name="Rectangle 30097" width="13.105" height="55.169" fill="none"></rect></clipPath><clipPath id="clip-path-9"><rect id="Rectangle_30098" data-name="Rectangle 30098" width="19.176" height="2.034" fill="none"></rect></clipPath><clipPath id="clip-path-10"><rect id="Rectangle_30099" data-name="Rectangle 30099" width="61.338" height="2.036" fill="none"></rect></clipPath><clipPath id="clip-path-11"><rect id="Rectangle_30100" data-name="Rectangle 30100" width="39.374" height="2.034" fill="none"></rect></clipPath><clipPath id="clip-path-12"><rect id="Rectangle_30101" data-name="Rectangle 30101" width="30.413" height="2.034" fill="none"></rect></clipPath><clipPath id="clip-path-13"><rect id="Rectangle_30102" data-name="Rectangle 30102" width="20.315" height="2.034" fill="none"></rect></clipPath><clipPath id="clip-path-14"><rect id="Rectangle_30103" data-name="Rectangle 30103" width="37.104" height="2.034" fill="none"></rect></clipPath><clipPath id="clip-path-15"><rect id="Rectangle_30104" data-name="Rectangle 30104" width="22.564" height="2.034" fill="none"></rect></clipPath><clipPath id="clip-path-16"><rect id="Rectangle_30105" data-name="Rectangle 30105" width="28.377" height="2.036" fill="none"></rect></clipPath><clipPath id="clip-path-17"><rect id="Rectangle_30106" data-name="Rectangle 30106" width="3.488" height="3.488" fill="none"></rect></clipPath><clipPath id="clip-path-18"><rect id="Rectangle_30107" data-name="Rectangle 30107" width="3.489" height="3.488" fill="none"></rect></clipPath><clipPath id="clip-path-20"><rect id="Rectangle_30109" data-name="Rectangle 30109" width="47.234" height="51.474" fill="none"></rect></clipPath><clipPath id="clip-path-21"><rect id="Rectangle_30110" data-name="Rectangle 30110" width="28.972" height="53.914" fill="none"></rect></clipPath><clipPath id="clip-path-22"><rect id="Rectangle_30111" data-name="Rectangle 30111" width="72.046" height="38.827" fill="none"></rect></clipPath><clipPath id="clip-path-23"><rect id="Rectangle_30112" data-name="Rectangle 30112" width="10.338" height="19.226" fill="none"></rect></clipPath><clipPath id="clip-path-24"><rect id="Rectangle_30114" data-name="Rectangle 30114" width="50.264" height="50.783" fill="none"></rect></clipPath><clipPath id="clip-path-25"><rect id="Rectangle_30116" data-name="Rectangle 30116" width="365.885" height="7.754" fill="none"></rect></clipPath><clipPath id="clip-path-26"><rect id="Rectangle_30117" data-name="Rectangle 30117" width="389.967" height="8.737" fill="none"></rect></clipPath><clipPath id="clip-path-27"><rect id="Rectangle_30118" data-name="Rectangle 30118" width="75.919" height="55.741" fill="none"></rect></clipPath><clipPath id="clip-path-28"><rect id="Rectangle_30119" data-name="Rectangle 30119" width="68.757" height="24.051" fill="none"></rect></clipPath><clipPath id="clip-path-29"><rect id="Rectangle_30120" data-name="Rectangle 30120" width="157.515" height="6.947" fill="none"></rect></clipPath><clipPath id="clip-path-30"><rect id="Rectangle_30121" data-name="Rectangle 30121" width="106.704" height="6.947" fill="none"></rect></clipPath></defs><g id="Group_61622" data-name="Group 61622" transform="translate(-1147 -4213)"><g id="Rectangle_30489" data-name="Rectangle 30489" transform="translate(1147 4215)" fill="#fbfbfb" stroke="#707070" stroke-width="0.5"><rect width="219" height="347" stroke="none"></rect><rect x="0.25" y="0.25" width="218.5" height="346.5" fill="none"></rect></g><g id="Rectangle_30490" data-name="Rectangle 30490" transform="translate(1526 4213)" fill="#fbfbfb" stroke="#707070" stroke-width="0.5"><rect width="214" height="347" stroke="none"></rect><rect x="0.25" y="0.25" width="213.5" height="346.5" fill="none"></rect></g><g id="Group_61621" data-name="Group 61621" transform="translate(-229.241 -213.108)"><rect id="Rectangle_30075" data-name="Rectangle 30075" width="508.759" height="0.255" transform="translate(1398.241 4763.785)" fill="#1c1c1c"></rect><rect id="Rectangle_30076" data-name="Rectangle 30076" width="33.702" height="0.255" transform="translate(1822.321 4780.163)" fill="#1c1c1c"></rect><rect id="Rectangle_30077" data-name="Rectangle 30077" width="8.845" height="0.255" transform="translate(1726.418 4782.924)" fill="#1c1c1c"></rect><rect id="Rectangle_30078" data-name="Rectangle 30078" width="19.528" height="0.255" transform="translate(1801.774 4770.714)" fill="#1c1c1c"></rect><rect id="Rectangle_30079" data-name="Rectangle 30079" width="43.951" height="0.253" transform="translate(1451.619 4772.424)" fill="#1c1c1c"></rect><rect id="Rectangle_30080" data-name="Rectangle 30080" width="6.444" height="0.253" transform="translate(1504.629 4772.424)" fill="#1c1c1c"></rect><rect id="Rectangle_30081" data-name="Rectangle 30081" width="95.317" height="0.253" transform="translate(1532.015 4776.72)" fill="#1c1c1c"></rect><path id="Path_76912" data-name="Path 76912" d="M123.086,216.9,109,228.688l20.076,29.175,16.04-8.949a94.6,94.6,0,0,0,29.7,19.317l-1.624,18.244,34.823,6.434,5-17.618a94.537,94.537,0,0,0,34.636-7.432l11.787,14.091,29.174-20.076-8.947-16.04a94.58,94.58,0,0,0,19.314-29.7l18.244,1.624,6.435-34.823-17.62-5A94.588,94.588,0,0,0,298.6,143.3l14.088-11.783L292.62,102.338l-16.041,8.946a94.62,94.62,0,0,0-29.7-19.314l1.624-18.244-34.823-6.434-5,17.62a94.652,94.652,0,0,0-34.636,7.428L162.259,78.253,133.084,98.329l8.946,16.041a94.593,94.593,0,0,0-19.316,29.7l-18.244-1.624-6.434,34.823,17.621,5a94.581,94.581,0,0,0,7.429,34.636M163.7,171.391a47.942,47.942,0,1,1,38.433,55.854A47.94,47.94,0,0,1,163.7,171.391" transform="translate(1434.412 4455.431)" fill="#f0f0f0"></path><path id="Path_76913" data-name="Path 76913" d="M283.264,200.255l11.008,2.034,1.581-5.569a29.913,29.913,0,0,0,10.949-2.349l3.725,4.455,9.223-6.348-2.828-5.069a29.909,29.909,0,0,0,6.107-9.387l5.765.513,2.034-11.008-5.569-1.581A29.878,29.878,0,0,0,322.909,155l4.455-3.725-6.346-9.224-5.071,2.828a29.914,29.914,0,0,0-9.387-6.106l.513-5.766-11.008-2.036-1.581,5.57a29.946,29.946,0,0,0-10.949,2.349l-3.725-4.453-9.223,6.346,2.828,5.071a29.9,29.9,0,0,0-6.105,9.386l-5.767-.513-2.033,11.009,5.569,1.581a29.923,29.923,0,0,0,2.348,10.949l-4.453,3.725,6.346,9.223,5.069-2.83a29.9,29.9,0,0,0,9.388,6.106Zm-3-36.378a15.155,15.155,0,1,1,12.148,17.655,15.154,15.154,0,0,1-12.148-17.655" transform="translate(1493.987 4478.925)" fill="#f0f0f0"></path><path id="Path_76914" data-name="Path 76914" d="M67.091,200.559l8.386,1.55,1.2-4.242a22.81,22.81,0,0,0,8.341-1.789l2.838,3.392,7.024-4.834-2.153-3.863a22.793,22.793,0,0,0,4.652-7.15l4.392.391,1.55-8.385-4.242-1.206a22.747,22.747,0,0,0-1.789-8.34l3.392-2.838-4.834-7.025-3.863,2.155a22.769,22.769,0,0,0-7.15-4.652l.392-4.392-8.386-1.551-1.2,4.244a22.831,22.831,0,0,0-8.341,1.788L64.46,150.42l-7.025,4.835,2.155,3.863a22.749,22.749,0,0,0-4.65,7.15l-4.393-.392L49,174.263l4.242,1.2a22.782,22.782,0,0,0,1.789,8.341l-3.392,2.838,4.834,7.025,3.862-2.156a22.775,22.775,0,0,0,7.151,4.652Zm-2.283-27.712A11.544,11.544,0,1,1,74.061,186.3a11.543,11.543,0,0,1-9.254-13.449" transform="translate(1416.318 4485.127)" fill="#f0f0f0"></path><path id="Path_76915" data-name="Path 76915" d="M175.28,60.61l6.345,1.172.91-3.209a17.284,17.284,0,0,0,6.311-1.354l2.147,2.567,5.316-3.658-1.63-2.923a17.2,17.2,0,0,0,3.52-5.41l3.324.3,1.172-6.344-3.21-.912a17.194,17.194,0,0,0-1.354-6.309l2.568-2.148-3.658-5.316-2.923,1.63a17.248,17.248,0,0,0-5.41-3.52l.3-3.322-6.345-1.173-.91,3.21a17.234,17.234,0,0,0-6.311,1.354l-2.147-2.567-5.316,3.658,1.63,2.923a17.233,17.233,0,0,0-3.52,5.41l-3.324-.3-1.172,6.345,3.21.912a17.226,17.226,0,0,0,1.354,6.309l-2.567,2.148,3.656,5.316,2.923-1.632a17.23,17.23,0,0,0,5.411,3.52Zm-1.728-20.967a8.734,8.734,0,1,1,7,10.175,8.734,8.734,0,0,1-7-10.175" transform="translate(1457.859 4438.232)" fill="#f0f0f0"></path><path id="Path_76916" data-name="Path 76916" d="M251.082,94.315l4.231.782.608-2.141a11.5,11.5,0,0,0,4.208-.9l1.432,1.713,3.544-2.439-1.087-1.949a11.492,11.492,0,0,0,2.348-3.607l2.216.2.782-4.231-2.141-.608a11.46,11.46,0,0,0-.9-4.208l1.713-1.432-2.439-3.546-1.948,1.087a11.511,11.511,0,0,0-3.609-2.346l.2-2.216L256,67.682l-.608,2.141a11.517,11.517,0,0,0-4.208.9l-1.432-1.713-3.546,2.439L247.3,73.4a11.473,11.473,0,0,0-2.348,3.609l-2.216-.2-.782,4.23,2.141.608a11.5,11.5,0,0,0,.9,4.21l-1.711,1.432,2.438,3.544,1.949-1.087a11.51,11.51,0,0,0,3.609,2.346Zm-1.153-13.984a5.825,5.825,0,1,1,4.669,6.786,5.825,5.825,0,0,1-4.669-6.786" transform="translate(1487.509 4455.575)" fill="#f0f0f0"></path><path id="Path_76917" data-name="Path 76917" d="M108.564,57.067l4.231.782.608-2.141a11.5,11.5,0,0,0,4.208-.9l1.432,1.713,3.544-2.439L121.5,52.128a11.492,11.492,0,0,0,2.348-3.607l2.216.2.782-4.231-2.141-.608a11.461,11.461,0,0,0-.9-4.208l1.713-1.432-2.439-3.546-1.948,1.087a11.51,11.51,0,0,0-3.609-2.346l.2-2.216-4.231-.783-.608,2.141a11.517,11.517,0,0,0-4.208.9l-1.432-1.713-3.546,2.439,1.088,1.949a11.474,11.474,0,0,0-2.348,3.609l-2.216-.2-.782,4.23,2.141.608a11.5,11.5,0,0,0,.9,4.21l-1.711,1.432L103.2,53.59l1.949-1.087a11.51,11.51,0,0,0,3.609,2.346Zm-1.153-13.984a5.825,5.825,0,1,1,4.669,6.786,5.825,5.825,0,0,1-4.669-6.786" transform="translate(1434.927 4441.832)" fill="#f0f0f0"></path><path id="Path_76918" data-name="Path 76918" d="M244.522,221.237a20,20,0,0,0,1.576,7.343l-2.988,2.5,4.257,6.186,3.4-1.9a20.068,20.068,0,0,0,6.3,4.1l-.345,3.869L264.1,244.7l1.061-3.736a20.056,20.056,0,0,0,7.343-1.576l2.5,2.987,6.186-4.256-1.9-3.4a20.075,20.075,0,0,0,4.1-6.3l3.867.345,1.365-7.384-3.736-1.061a20.064,20.064,0,0,0-1.576-7.344l2.987-2.5-4.256-6.186-3.4,1.9a20.043,20.043,0,0,0-6.3-4.1l.345-3.869-7.384-1.364-1.061,3.736a20.064,20.064,0,0,0-7.344,1.576l-2.5-2.987-6.186,4.256,1.9,3.4a20.05,20.05,0,0,0-4.1,6.3l-3.869-.345-1.363,7.384Zm10.186-2.307a10.165,10.165,0,1,1,8.149,11.843,10.166,10.166,0,0,1-8.149-11.843" transform="translate(1487.079 4503.234)" fill="#f0f0f0"></path><path id="Path_76919" data-name="Path 76919" d="M85.46,226.805c1.63.5,2.375,1.525,2.375,3.971v5.673a2.333,2.333,0,0,0,2.587,2.624h.639V243.4H89.006c-4.431,0-6.7-2.27-6.7-6.348v-6.416a1.453,1.453,0,0,0-1.561-1.666h-1.17v-4.326h1.17a1.453,1.453,0,0,0,1.561-1.666v-6.418c0-4.077,2.27-6.346,6.7-6.346h2.056v4.325h-.639a2.332,2.332,0,0,0-2.587,2.624v5.673c0,2.446-.745,3.474-2.375,3.971" transform="translate(1427.6 4508.161)" fill="#e0e0e0"></path><path id="Path_76920" data-name="Path 76920" d="M107.57,224.643v4.324H106.4a1.453,1.453,0,0,0-1.561,1.667v6.416c0,4.078-2.27,6.346-6.7,6.346H96.082v-4.324h.639a2.333,2.333,0,0,0,2.587-2.624v-5.673c0-2.446.743-3.474,2.375-3.97-1.632-.5-2.375-1.525-2.375-3.971v-5.673a2.332,2.332,0,0,0-2.587-2.624h-.639v-4.325h2.056c4.431,0,6.7,2.268,6.7,6.345v6.418a1.453,1.453,0,0,0,1.561,1.667Z" transform="translate(1433.69 4508.161)" fill="#e0e0e0"></path><path id="Path_76921" data-name="Path 76921" d="M436.278,271.643c0,6.363-88.327,11.522-197.286,11.522s-197.285-5.16-197.285-11.522,88.327-11.522,197.285-11.522,197.286,5.16,197.286,11.522" transform="translate(1413.629 4526.575)" fill="#f5f5f5"></path><rect id="Rectangle_30082" data-name="Rectangle 30082" width="124.656" height="90.231" transform="translate(1549.395 4484.561)"></rect><rect id="Rectangle_30083" data-name="Rectangle 30083" width="124.656" height="90.231" transform="translate(1549.395 4484.561)" fill="#fff"></rect><g id="Group_60786" data-name="Group 60786" transform="translate(1549.395 4484.561)" opacity="0.1"><g id="Group_60785" data-name="Group 60785"><g id="Group_60784" data-name="Group 60784" clip-path="url(#clip-path)"><rect id="Rectangle_30084" data-name="Rectangle 30084" width="17.362" height="90.231"></rect></g></g></g><rect id="Rectangle_30086" data-name="Rectangle 30086" width="124.656" height="8.435" transform="translate(1549.395 4484.561)" fill="#1c1c1c"></rect><g id="Group_60789" data-name="Group 60789" transform="translate(1575.691 4503.688)" opacity="0.2"><g id="Group_60788" data-name="Group 60788"><g id="Group_60787" data-name="Group 60787" clip-path="url(#clip-path-2)"><path id="Path_76922" data-name="Path 76922" d="M153.35,55.423H130.642a1.018,1.018,0,0,1,0-2.036H153.35a1.018,1.018,0,0,1,0,2.036" transform="translate(-129.625 -53.387)"></path><path id="Path_76923" data-name="Path 76923" d="M195.719,55.423H151.641a1.018,1.018,0,0,1,0-2.036h44.077a1.018,1.018,0,0,1,0,2.036" transform="translate(-121.877 -53.387)"></path><path id="Path_76924" data-name="Path 76924" d="M192.177,60.275h-59.3a1.018,1.018,0,1,1,0-2.036h59.3a1.018,1.018,0,0,1,0,2.036" transform="translate(-128.802 -51.597)"></path><path id="Path_76925" data-name="Path 76925" d="M168.848,65.126H130.642a1.018,1.018,0,0,1,0-2.036h38.206a1.018,1.018,0,0,1,0,2.036" transform="translate(-129.625 -49.807)"></path><path id="Path_76926" data-name="Path 76926" d="M191.216,65.126H163.844a1.018,1.018,0,0,1,0-2.036h27.372a1.018,1.018,0,0,1,0,2.036" transform="translate(-117.375 -49.807)"></path><path id="Path_76927" data-name="Path 76927" d="M151.74,69.978h-21.1a1.018,1.018,0,0,1,0-2.036h21.1a1.018,1.018,0,0,1,0,2.036" transform="translate(-129.625 -48.017)"></path><path id="Path_76928" data-name="Path 76928" d="M184.262,69.978H151.053a1.018,1.018,0,0,1,0-2.036h33.209a1.018,1.018,0,0,1,0,2.036" transform="translate(-122.094 -48.017)"></path><path id="Path_76929" data-name="Path 76929" d="M161.251,74.83H132.873a1.018,1.018,0,0,1,0-2.036h28.378a1.018,1.018,0,0,1,0,2.036" transform="translate(-128.802 -46.227)"></path><path id="Path_76930" data-name="Path 76930" d="M164.8,79.682H132.874a1.018,1.018,0,0,1,0-2.036H164.8a1.018,1.018,0,0,1,0,2.036" transform="translate(-128.801 -44.437)"></path><path id="Path_76931" data-name="Path 76931" d="M192.627,79.682H160.021a1.018,1.018,0,0,1,0-2.036h32.606a1.018,1.018,0,0,1,0,2.036" transform="translate(-118.786 -44.437)"></path><path id="Path_76932" data-name="Path 76932" d="M148.923,84.533h-18.28a1.018,1.018,0,1,1,0-2.036h18.28a1.018,1.018,0,0,1,0,2.036" transform="translate(-129.625 -42.647)"></path><path id="Path_76933" data-name="Path 76933" d="M196.858,84.533h-48.3a1.018,1.018,0,0,1,0-2.036h48.3a1.018,1.018,0,0,1,0,2.036" transform="translate(-123.017 -42.647)"></path><path id="Path_76934" data-name="Path 76934" d="M164.6,89.385H132.873a1.018,1.018,0,0,1,0-2.036H164.6a1.018,1.018,0,0,1,0,2.036" transform="translate(-128.802 -40.857)"></path><path id="Path_76935" data-name="Path 76935" d="M179.816,89.385h-20.53a1.018,1.018,0,0,1,0-2.036h20.53a1.018,1.018,0,0,1,0,2.036" transform="translate(-119.057 -40.857)"></path><path id="Path_76936" data-name="Path 76936" d="M169.4,94.237H132.874a1.018,1.018,0,0,1,0-2.036H169.4a1.018,1.018,0,0,1,0,2.036" transform="translate(-128.801 -39.067)"></path></g></g></g><g id="Group_60792" data-name="Group 60792" transform="translate(1666.941 4487.092)" opacity="0.4"><g id="Group_60791" data-name="Group 60791"><g id="Group_60790" data-name="Group 60790" clip-path="url(#clip-path-3)"><path id="Path_76937" data-name="Path 76937" d="M196.282,43.009a1.744,1.744,0,1,0,1.744-1.744,1.743,1.743,0,0,0-1.744,1.744" transform="translate(-196.282 -41.264)" fill="#f5f5f5"></path></g></g></g><g id="Group_60795" data-name="Group 60795" transform="translate(1660.832 4487.092)" opacity="0.4"><g id="Group_60794" data-name="Group 60794"><g id="Group_60793" data-name="Group 60793" clip-path="url(#clip-path-4)"><path id="Path_76938" data-name="Path 76938" d="M191.819,43.009a1.744,1.744,0,1,0,1.744-1.744,1.743,1.743,0,0,0-1.744,1.744" transform="translate(-191.819 -41.264)" fill="#f5f5f5"></path></g></g></g><g id="Group_60798" data-name="Group 60798" transform="translate(1654.723 4487.092)" opacity="0.4"><g id="Group_60797" data-name="Group 60797"><g id="Group_60796" data-name="Group 60796" clip-path="url(#clip-path-3)"><path id="Path_76939" data-name="Path 76939" d="M187.357,43.009a1.744,1.744,0,1,0,1.744-1.744,1.744,1.744,0,0,0-1.744,1.744" transform="translate(-187.357 -41.264)" fill="#f5f5f5"></path></g></g></g><g id="Group_60801" data-name="Group 60801" transform="translate(1557.317 4503.688)" opacity="0.2"><g id="Group_60800" data-name="Group 60800"><g id="Group_60799" data-name="Group 60799" clip-path="url(#clip-path-6)"><path id="Path_76940" data-name="Path 76940" d="M117.268,55.423h-.047a1.018,1.018,0,0,1,0-2.036,1.038,1.038,0,0,1,1.04,1.019,1,1,0,0,1-.994,1.017" transform="translate(-116.203 -53.387)"></path><path id="Path_76941" data-name="Path 76941" d="M117.268,60.275h-.047a1.018,1.018,0,0,1,0-2.036,1.038,1.038,0,0,1,1.04,1.019,1,1,0,0,1-.994,1.017" transform="translate(-116.203 -51.597)"></path><path id="Path_76942" data-name="Path 76942" d="M117.268,65.126h-.047a1.018,1.018,0,0,1,0-2.036,1.038,1.038,0,0,1,1.04,1.019,1,1,0,0,1-.994,1.017" transform="translate(-116.203 -49.807)"></path><path id="Path_76943" data-name="Path 76943" d="M117.268,69.978h-.047a1.018,1.018,0,0,1,0-2.036,1.038,1.038,0,0,1,1.04,1.018,1,1,0,0,1-.994,1.017" transform="translate(-116.203 -48.017)"></path><path id="Path_76944" data-name="Path 76944" d="M117.268,74.83h-.047a1.018,1.018,0,0,1,0-2.036,1.038,1.038,0,0,1,1.04,1.019,1,1,0,0,1-.994,1.017" transform="translate(-116.203 -46.227)"></path><path id="Path_76945" data-name="Path 76945" d="M117.268,79.682h-.047a1.018,1.018,0,0,1,0-2.036,1.038,1.038,0,0,1,1.04,1.018,1,1,0,0,1-.994,1.017" transform="translate(-116.203 -44.437)"></path><path id="Path_76946" data-name="Path 76946" d="M117.268,84.533h-.047a1.018,1.018,0,0,1,0-2.036,1.038,1.038,0,0,1,1.04,1.018,1,1,0,0,1-.994,1.017" transform="translate(-116.203 -42.647)"></path><path id="Path_76947" data-name="Path 76947" d="M117.268,89.385h-.047a1.018,1.018,0,0,1,0-2.036,1.038,1.038,0,0,1,1.04,1.019,1,1,0,0,1-.994,1.017" transform="translate(-116.203 -40.857)"></path><path id="Path_76948" data-name="Path 76948" d="M117.268,94.237h-.047a1.018,1.018,0,0,1,0-2.036,1.038,1.038,0,0,1,1.04,1.019,1,1,0,0,1-.994,1.017" transform="translate(-116.203 -39.067)"></path></g></g></g><rect id="Rectangle_30092" data-name="Rectangle 30092" width="163.347" height="104.586" transform="translate(1623.613 4558.191)" fill="#263238"></rect><rect id="Rectangle_30093" data-name="Rectangle 30093" width="163.347" height="104.586" transform="translate(1623.613 4558.191)" fill="#fff"></rect><g id="Group_60804" data-name="Group 60804" transform="translate(1623.613 4558.191)" opacity="0.1"><g id="Group_60803" data-name="Group 60803"><g id="Group_60802" data-name="Group 60802" clip-path="url(#clip-path-7)"><rect id="Rectangle_30094" data-name="Rectangle 30094" width="25.48" height="104.586" transform="translate(0 0)"></rect></g></g></g><rect id="Rectangle_30096" data-name="Rectangle 30096" width="163.347" height="8.435" transform="translate(1623.613 4558.191)" fill="#1c1c1c"></rect><path id="Path_76949" data-name="Path 76949" d="M174.1,106.388l-2.709.993,2.709.984v1.017l-3.873-1.473v-1.057l3.873-1.473Z" transform="translate(1461.048 4469.483)" fill="#fff"></path><path id="Path_76950" data-name="Path 76950" d="M175.914,103.917h1.131l-2.684,7.665H173.23Z" transform="translate(1462.154 4468.943)" fill="#fff"></path><path id="Path_76951" data-name="Path 76951" d="M180,106.852v1.058l-3.873,1.472v-1.017l2.709-.983-2.709-.994v-1.009Z" transform="translate(1463.223 4469.483)" fill="#fff"></path><g id="Group_60807" data-name="Group 60807" transform="translate(1630.563 4585.464)" opacity="0.2"><g id="Group_60806" data-name="Group 60806"><g id="Group_60805" data-name="Group 60805" clip-path="url(#clip-path-8)"><path id="Path_76952" data-name="Path 76952" d="M181.8,115.159H170.726a1.018,1.018,0,1,1,0-2.036H181.8a1.018,1.018,0,0,1,0,2.036" transform="translate(-169.708 -113.124)"></path><path id="Path_76953" data-name="Path 76953" d="M181.8,120.011H170.726a1.018,1.018,0,1,1,0-2.036H181.8a1.018,1.018,0,0,1,0,2.036" transform="translate(-169.708 -111.334)"></path><path id="Path_76954" data-name="Path 76954" d="M181.8,124.862H170.726a1.018,1.018,0,1,1,0-2.036H181.8a1.018,1.018,0,0,1,0,2.036" transform="translate(-169.708 -109.544)"></path><path id="Path_76955" data-name="Path 76955" d="M181.8,129.714H170.726a1.018,1.018,0,1,1,0-2.036H181.8a1.018,1.018,0,0,1,0,2.036" transform="translate(-169.708 -107.754)"></path><path id="Path_76956" data-name="Path 76956" d="M181.8,134.566H170.726a1.018,1.018,0,1,1,0-2.036H181.8a1.018,1.018,0,0,1,0,2.036" transform="translate(-169.708 -105.964)"></path><path id="Path_76957" data-name="Path 76957" d="M181.8,139.418H170.726a1.018,1.018,0,1,1,0-2.036H181.8a1.018,1.018,0,0,1,0,2.036" transform="translate(-169.708 -104.174)"></path><path id="Path_76958" data-name="Path 76958" d="M181.8,144.269H170.726a1.018,1.018,0,1,1,0-2.036H181.8a1.018,1.018,0,0,1,0,2.036" transform="translate(-169.708 -102.384)"></path><path id="Path_76959" data-name="Path 76959" d="M181.8,149.121H170.726a1.018,1.018,0,1,1,0-2.036H181.8a1.018,1.018,0,0,1,0,2.036" transform="translate(-169.708 -100.594)"></path><path id="Path_76960" data-name="Path 76960" d="M181.8,153.973H170.726a1.018,1.018,0,1,1,0-2.036H181.8a1.018,1.018,0,0,1,0,2.036" transform="translate(-169.708 -98.804)"></path></g></g></g><path id="Path_76961" data-name="Path 76961" d="M208.31,115.159H185.6a1.018,1.018,0,0,1,0-2.036H208.31a1.018,1.018,0,0,1,0,2.036" transform="translate(1466.343 4472.34)" fill="#1c1c1c"></path><path id="Path_76962" data-name="Path 76962" d="M265.772,115.159H206.6a1.018,1.018,0,0,1,0-2.036h59.173a1.018,1.018,0,0,1,0,2.036" transform="translate(1474.09 4472.34)" fill="#1c1c1c"></path><g id="Group_60810" data-name="Group 60810" transform="translate(1748.707 4585.464)" opacity="0.2"><g id="Group_60809" data-name="Group 60809"><g id="Group_60808" data-name="Group 60808" clip-path="url(#clip-path-9)"><path id="Path_76963" data-name="Path 76963" d="M274.17,115.159H257.029a1.018,1.018,0,0,1,0-2.036H274.17a1.018,1.018,0,0,1,0,2.036" transform="translate(-256.011 -113.124)" fill="#1c1c1c"></path></g></g></g><g id="Group_60813" data-name="Group 60813" transform="translate(1653.981 4592.105)" opacity="0.2"><g id="Group_60812" data-name="Group 60812"><g id="Group_60811" data-name="Group 60811" clip-path="url(#clip-path-10)"><path id="Path_76964" data-name="Path 76964" d="M247.135,120.011h-59.3a1.018,1.018,0,1,1,0-2.036h59.3a1.018,1.018,0,0,1,0,2.036" transform="translate(-186.815 -117.975)" fill="#1c1c1c"></path></g></g></g><path id="Path_76965" data-name="Path 76965" d="M290.4,120.011H235.122a1.018,1.018,0,0,1,0-2.036H290.4a1.018,1.018,0,0,1,0,2.036" transform="translate(1484.614 4474.13)" fill="#1c1c1c"></path><path id="Path_76966" data-name="Path 76966" d="M222.984,124.862h-35.15a1.018,1.018,0,1,1,0-2.036h35.15a1.018,1.018,0,0,1,0,2.036" transform="translate(1467.166 4475.92)" fill="#1c1c1c"></path><path id="Path_76967" data-name="Path 76967" d="M253.42,124.862H218.8a1.018,1.018,0,0,1,0-2.036H253.42a1.018,1.018,0,0,1,0,2.036" transform="translate(1478.593 4475.92)" fill="#1c1c1c"></path><path id="Path_76968" data-name="Path 76968" d="M285.57,124.862H248.209a1.018,1.018,0,1,1,0-2.036H285.57a1.018,1.018,0,0,1,0,2.036" transform="translate(1489.442 4475.92)" fill="#1c1c1c"></path><path id="Path_76969" data-name="Path 76969" d="M221.574,129.714h-21.1a1.018,1.018,0,0,1,0-2.036h21.1a1.018,1.018,0,0,1,0,2.036" transform="translate(1471.831 4477.71)" fill="#1c1c1c"></path><path id="Path_76970" data-name="Path 76970" d="M243.915,129.714H220.888a1.018,1.018,0,1,1,0-2.036h23.027a1.018,1.018,0,0,1,0,2.036" transform="translate(1479.362 4477.71)" fill="#1c1c1c"></path><g id="Group_60816" data-name="Group 60816" transform="translate(1727.491 4605.39)" opacity="0.2"><g id="Group_60815" data-name="Group 60815"><g id="Group_60814" data-name="Group 60814" clip-path="url(#clip-path-11)"><path id="Path_76971" data-name="Path 76971" d="M278.87,129.714H241.53a1.018,1.018,0,0,1,0-2.036H278.87a1.018,1.018,0,0,1,0,2.036" transform="translate(-240.513 -127.679)" fill="#1c1c1c"></path></g></g></g><g id="Group_60819" data-name="Group 60819" transform="translate(1653.981 4612.032)" opacity="0.2"><g id="Group_60818" data-name="Group 60818"><g id="Group_60817" data-name="Group 60817" clip-path="url(#clip-path-12)"><path id="Path_76972" data-name="Path 76972" d="M216.21,134.566H187.832a1.018,1.018,0,0,1,0-2.036H216.21a1.018,1.018,0,0,1,0,2.036" transform="translate(-186.815 -132.531)" fill="#1c1c1c"></path></g></g></g><path id="Path_76973" data-name="Path 76973" d="M219.763,139.418H187.832a1.018,1.018,0,0,1,0-2.036h31.931a1.018,1.018,0,0,1,0,2.036" transform="translate(1467.167 4481.291)" fill="#1c1c1c"></path><path id="Path_76974" data-name="Path 76974" d="M263.083,139.418h-48.1a1.018,1.018,0,0,1,0-2.036h48.1a1.018,1.018,0,0,1,0,2.036" transform="translate(1477.182 4481.291)" fill="#1c1c1c"></path><path id="Path_76975" data-name="Path 76975" d="M283.292,139.418H254.382a1.018,1.018,0,0,1,0-2.036h28.909a1.018,1.018,0,0,1,0,2.036" transform="translate(1491.72 4481.291)" fill="#1c1c1c"></path><g id="Group_60822" data-name="Group 60822" transform="translate(1664.162 4625.314)" opacity="0.2"><g id="Group_60821" data-name="Group 60821"><g id="Group_60820" data-name="Group 60820" clip-path="url(#clip-path-13)"><path id="Path_76976" data-name="Path 76976" d="M213.55,144.269h-18.28a1.018,1.018,0,1,1,0-2.036h18.28a1.018,1.018,0,0,1,0,2.036" transform="translate(-194.252 -142.234)" fill="#1c1c1c"></path></g></g></g><g id="Group_60825" data-name="Group 60825" transform="translate(1688.681 4625.314)" opacity="0.2"><g id="Group_60824" data-name="Group 60824"><g id="Group_60823" data-name="Group 60823" clip-path="url(#clip-path-14)"><path id="Path_76977" data-name="Path 76977" d="M248.248,144.269H213.18a1.018,1.018,0,0,1,0-2.036h35.068a1.018,1.018,0,0,1,0,2.036" transform="translate(-212.163 -142.234)" fill="#1c1c1c"></path></g></g></g><path id="Path_76978" data-name="Path 76978" d="M278.034,144.269H243.8a1.018,1.018,0,0,1,0-2.036h34.237a1.018,1.018,0,0,1,0,2.036" transform="translate(1487.814 4483.08)" fill="#1c1c1c"></path><path id="Path_76979" data-name="Path 76979" d="M224.255,149.121H202.707a1.018,1.018,0,1,1,0-2.036h21.547a1.018,1.018,0,0,1,0,2.036" transform="translate(1472.654 4484.87)" fill="#1c1c1c"></path><g id="Group_60828" data-name="Group 60828" transform="translate(1700.32 4631.957)" opacity="0.2"><g id="Group_60827" data-name="Group 60827"><g id="Group_60826" data-name="Group 60826" clip-path="url(#clip-path-15)"><path id="Path_76980" data-name="Path 76980" d="M242.212,149.121h-20.53a1.018,1.018,0,0,1,0-2.036h20.53a1.018,1.018,0,0,1,0,2.036" transform="translate(-220.665 -147.086)" fill="#1c1c1c"></path></g></g></g><path id="Path_76981" data-name="Path 76981" d="M278.924,149.121H241.383a1.018,1.018,0,0,1,0-2.036h37.541a1.018,1.018,0,0,1,0,2.036" transform="translate(1486.924 4484.87)" fill="#1c1c1c"></path><g id="Group_60831" data-name="Group 60831" transform="translate(1674.344 4638.598)" opacity="0.2"><g id="Group_60830" data-name="Group 60830"><g id="Group_60829" data-name="Group 60829" clip-path="url(#clip-path-16)"><path id="Path_76982" data-name="Path 76982" d="M229.05,153.973H202.707a1.018,1.018,0,0,1,0-2.036H229.05a1.018,1.018,0,0,1,0,2.036" transform="translate(-201.69 -151.937)" fill="#1c1c1c"></path></g></g></g><g id="Group_60834" data-name="Group 60834" transform="translate(1779.848 4560.724)" opacity="0.4"><g id="Group_60833" data-name="Group 60833"><g id="Group_60832" data-name="Group 60832" clip-path="url(#clip-path-17)"><path id="Path_76983" data-name="Path 76983" d="M278.759,96.8a1.744,1.744,0,1,0,1.744-1.744,1.743,1.743,0,0,0-1.744,1.744" transform="translate(-278.759 -95.051)" fill="#fff"></path></g></g></g><g id="Group_60837" data-name="Group 60837" transform="translate(1773.738 4560.724)" opacity="0.4"><g id="Group_60836" data-name="Group 60836"><g id="Group_60835" data-name="Group 60835" clip-path="url(#clip-path-18)"><path id="Path_76984" data-name="Path 76984" d="M274.3,96.8a1.744,1.744,0,1,0,1.744-1.744A1.743,1.743,0,0,0,274.3,96.8" transform="translate(-274.296 -95.051)" fill="#fff"></path></g></g></g><g id="Group_60840" data-name="Group 60840" transform="translate(1767.63 4560.724)" opacity="0.4"><g id="Group_60839" data-name="Group 60839"><g id="Group_60838" data-name="Group 60838" clip-path="url(#clip-path-17)"><path id="Path_76985" data-name="Path 76985" d="M269.834,96.8a1.744,1.744,0,1,0,1.744-1.744,1.743,1.743,0,0,0-1.744,1.744" transform="translate(-269.834 -95.051)" fill="#fff"></path></g></g></g><path id="Path_76986" data-name="Path 76986" d="M94.491,97.714H65.26a9,9,0,0,0-9,9v25.441a9,9,0,0,0,9,9H85.984l6.108,8.032v-8.032h2.4a9,9,0,0,0,9-9V106.715a9,9,0,0,0-9-9" transform="translate(1418.998 4466.655)" fill="#1c1c1c"></path><g id="Group_60843" data-name="Group 60843" transform="translate(1475.256 4564.369)" opacity="0.7"><g id="Group_60842" data-name="Group 60842"><g id="Group_60841" data-name="Group 60841" clip-path="url(#clip-path-20)"><path id="Path_76987" data-name="Path 76987" d="M94.491,97.714H65.26a9,9,0,0,0-9,9v25.441a9,9,0,0,0,9,9H85.984l6.108,8.032v-8.032h2.4a9,9,0,0,0,9-9V106.715a9,9,0,0,0-9-9" transform="translate(-56.258 -97.714)" fill="#1c1c1c"></path></g></g></g><path id="Path_76988" data-name="Path 76988" d="M91.928,117.411A14.508,14.508,0,1,1,77.42,102.9a14.508,14.508,0,0,1,14.508,14.508" transform="translate(1421.453 4468.569)" fill="#f5f5f5"></path><path id="Path_76989" data-name="Path 76989" d="M74.291,121.728a1.337,1.337,0,0,1-1.017-.471l-5.692-6.706a1.333,1.333,0,1,1,2.033-1.725l4.676,5.509,7.721-9.1a1.333,1.333,0,1,1,2.033,1.725l-8.737,10.294a1.337,1.337,0,0,1-1.017.471" transform="translate(1423.059 4470.733)" fill="#1c1c1c"></path><path id="Path_76990" data-name="Path 76990" d="M152.763,229.613,174.6,228.54l-2.125,19s-15.161,2.9-21.924-7.893Z" transform="translate(1453.789 4514.923)" fill="#ffc09d"></path><path id="Path_76991" data-name="Path 76991" d="M182.781,235.163l-4.973,13.783-11.236-1.406,2.125-19Z" transform="translate(1459.697 4514.923)" fill="#ecbfb9"></path><path id="Path_76992" data-name="Path 76992" d="M148.053,268.244a89.251,89.251,0,0,0,22.462-16.683l-1.487-14.151c-20.646,3.01-32.551,7.418-32.551,7.418s7.646-27.428.649-37.42l-19.219,3.485s-20.421,42.448-6.687,57.351Z" transform="translate(1437.523 4507.126)" fill="#407bff"></path><path id="Path_76993" data-name="Path 76993" d="M148.023,268.247a89.366,89.366,0,0,0,22.482-16.675l-1.488-14.165c-19.981,2.931-31.8,7.14-32.518,7.4.256-1,7.489-27.586.628-37.4l-19.213,3.489a148.778,148.778,0,0,0-9.373,26.517c-2.746,11.588-3.557,24.065,2.7,30.84Z" transform="translate(1437.526 4507.124)" fill="#ad252b"></path><g id="Group_60846" data-name="Group 60846" transform="translate(1544.003 4721.456)" opacity="0.2"><g id="Group_60845" data-name="Group 60845"><g id="Group_60844" data-name="Group 60844" clip-path="url(#clip-path-21)"><path id="Path_76994" data-name="Path 76994" d="M132.223,266.378c6.783-43.008.765-53.913.765-53.913l-24.447,23.074c-2.746,11.588-3.555,24.065,2.7,30.84Z" transform="translate(-106.477 -212.464)"></path></g></g></g><path id="Path_76995" data-name="Path 76995" d="M143.34,274.765c4.575-21.739,9.714-55.768,9.15-60.836-.82-7.361-40.89-38.927-75.66-15.948-7.1,4.693-10.759,55.289-12,76.784Z" transform="translate(1422.161 4500.605)" fill="#407bff"></path><path id="Path_76996" data-name="Path 76996" d="M143.336,274.764c4.576-21.74,9.715-55.77,9.154-60.846-.815-7.35-40.89-38.914-75.665-15.932-2.582,1.721-4.7,9.49-6.442,19.747-2.326,13.955-3.932,32.493-4.884,46.473-.268,3.959-.487,7.537-.661,10.557Z" transform="translate(1422.163 4500.607)" fill="#ad252b"></path><path id="Path_76997" data-name="Path 76997" d="M121.3,127.761c-12.059-4.873-40.488,12.62-42.981,43.808s13.321,22.544,13.321,22.544,2.813,11.9,14.33,8.225c0,0,9.514,10.778,18.371,6.393,0,0,11.015,11.477,16.928,5.418,0,0,6.435,7.344,12.305,1.781s22.642-62.273-3.68-75.385-28.6-12.783-28.6-12.783" transform="translate(1427.039 4477.442)" fill="#1c1c1c"></path><path id="Path_76998" data-name="Path 76998" d="M110.509,226.791l-1.158-.1c1.335-15.015-1.969-21.664-2-21.729l1.034-.534c.142.278,3.5,6.962,2.126,22.367" transform="translate(1437.848 4506.025)" fill="#ad252b"></path><path id="Path_76999" data-name="Path 76999" d="M114.527,227.192c-7.98-18.822,1-23.2,1.381-23.378l.486,1.058-.244-.53.246.528c-.085.038-8.3,4.166-.8,21.868Z" transform="translate(1439.28 4505.8)" fill="#ad252b"></path><path id="Path_77000" data-name="Path 77000" d="M121.64,217.247S106.226,205.055,82.3,198.159l-7.669,3.6s-12.882-15.95,8.589-21.164,50.673,9.127,58.012,21.471-12.739,16.256-12.739,16.256-1.873-2.476-6.849-1.073" transform="translate(1424.361 4496.827)" fill="#ad252b"></path><g id="Group_60849" data-name="Group 60849" transform="translate(1495.157 4676.32)" opacity="0.6" style="mix-blend-mode: normal;isolation: isolate"><g id="Group_60848" data-name="Group 60848"><g id="Group_60847" data-name="Group 60847" clip-path="url(#clip-path-22)"><path id="Path_77001" data-name="Path 77001" d="M121.64,217.247S106.226,205.055,82.3,198.159l-7.669,3.6s-12.882-15.95,8.589-21.164,50.673,9.127,58.012,21.471-12.739,16.256-12.739,16.256-1.873-2.476-6.849-1.073" transform="translate(-70.795 -179.493)" fill="#ad252b"></path></g></g></g><path id="Path_77002" data-name="Path 77002" d="M115.281,221a1.016,1.016,0,1,1-1.016-1.016A1.015,1.015,0,0,1,115.281,221" transform="translate(1440.024 4511.766)" fill="#ad252b"></path><path id="Path_77003" data-name="Path 77003" d="M110.454,221a1.016,1.016,0,1,1-1.016-1.016A1.015,1.015,0,0,1,110.454,221" transform="translate(1438.243 4511.766)" fill="#ad252b"></path><path id="Path_77004" data-name="Path 77004" d="M105.5,165.019c-.938,10.926-4.283,30.352-13.168,34.63,0,0,9.936,2.022,25.421,21.688,8.822-6.193,5.485-10.41,5.485-10.41-10.321-6.767-7.646-15.113-3.47-22.345Z" transform="translate(1432.309 4491.487)" fill="#ffc09d"></path><g id="Group_60852" data-name="Group 60852" transform="translate(1541.737 4666.119)" opacity="0.2"><g id="Group_60851" data-name="Group 60851"><g id="Group_60850" data-name="Group 60850" clip-path="url(#clip-path-23)"><path id="Path_77005" data-name="Path 77005" d="M106.712,172.041l8.448,13.939a32.762,32.762,0,0,0-2.546,5.288c-4.059-2.175-8.529-9.075-7.689-13.8a15.794,15.794,0,0,1,1.788-5.431" transform="translate(-104.822 -172.041)" fill="#ecbfb9"></path></g></g></g><path id="Path_77006" data-name="Path 77006" d="M101.74,153.358c-2.842,17.158-4.4,24.343,1.951,35.387,9.554,16.614,30.727,17.4,38.51,1.685,7.006-14.14,10.477-39.824-4.134-51.164-14.4-11.172-33.484-3.066-36.326,14.092" transform="translate(1434.865 4480.089)" fill="#ffc09d"></path><path id="Path_77007" data-name="Path 77007" d="M139.279,132.267c11.115,6.173,21.706,25.446,5.884,20.629-2.385,4.627-10.906.39-15.857-5.169-.834,3.852-9.959,7.721-16.671,1.75,3.243,4.683-2.274,16.5-8.03,14.46s-18.653-4.713-7.217-22.926,30.011-15.339,41.891-8.743" transform="translate(1432.483 4477.534)" fill="#1c1c1c"></path><path id="Path_77008" data-name="Path 77008" d="M124.367,160s1.024,6.813,2.951,10.507c-2.174,1.25-5.073-.426-5.073-.426Z" transform="translate(1443.343 4489.637)" fill="#eec1bb"></path><path id="Path_77009" data-name="Path 77009" d="M117.382,171.546a13.616,13.616,0,0,0,2.248.857.391.391,0,0,0,.49-.308.457.457,0,0,0-.313-.533,12.127,12.127,0,0,1-7.895-6.93.408.408,0,1,0-.769.266,12.759,12.759,0,0,0,6.24,6.648" transform="translate(1439.237 4491.233)" fill="#263238"></path><path id="Path_77010" data-name="Path 77010" d="M94.845,159.623a13.939,13.939,0,0,0,6.49,8.461c4.145,2.271,7.171-1.618,6.817-6.457-.318-4.356-2.857-10.787-7.4-11.042-4.478-.252-7.142,4.518-5.906,9.038" transform="translate(1433.122 4486.158)" fill="#ffc09d"></path><path id="Path_77011" data-name="Path 77011" d="M115,149.212a.775.775,0,0,0,.646-.036,6.245,6.245,0,0,1,5.925-.1.779.779,0,0,0,1.11-.307.926.926,0,0,0-.342-1.192,7.8,7.8,0,0,0-7.491.037.868.868,0,0,0-.32,1.165.891.891,0,0,0,.472.431" transform="translate(1440.457 4484.706)" fill="#263238"></path><path id="Path_77012" data-name="Path 77012" d="M136.214,155.281a.784.784,0,0,0,.611.064.841.841,0,0,0,.512-1.077,8.933,8.933,0,0,0-5.3-5.886.777.777,0,0,0-1,.579.924.924,0,0,0,.593,1.086,7.133,7.133,0,0,1,4.148,4.705.912.912,0,0,0,.433.53" transform="translate(1446.579 4485.334)" fill="#263238"></path><path id="Path_77013" data-name="Path 77013" d="M119.778,157.566c-.5,1.355-1.636,2.185-2.539,1.852s-1.232-1.7-.732-3.055,1.635-2.185,2.538-1.854,1.232,1.7.734,3.057" transform="translate(1441.14 4487.583)" fill="#263238"></path><path id="Path_77014" data-name="Path 77014" d="M118,154.456l3.373-.073s-2.381,1.941-3.373.073" transform="translate(1441.779 4487.563)" fill="#263238"></path><path id="Path_77015" data-name="Path 77015" d="M132.262,161.521c-.5,1.355-1.635,2.185-2.539,1.852s-1.232-1.7-.732-3.056,1.635-2.185,2.538-1.852,1.232,1.7.734,3.055" transform="translate(1445.746 4489.042)" fill="#263238"></path><path id="Path_77016" data-name="Path 77016" d="M130.488,158.412l3.373-.073s-2.379,1.941-3.373.073" transform="translate(1446.385 4489.022)" fill="#263238"></path><path id="Path_77017" data-name="Path 77017" d="M119.725,168.709a7.394,7.394,0,0,1-3.028-.645,7.729,7.729,0,0,1-4.22-4.927,10.317,10.317,0,0,1,5.39-12.059,7.582,7.582,0,0,1,10.708,4.787,10.319,10.319,0,0,1-5.391,12.058,8.22,8.22,0,0,1-3.458.786m1.6-17.253a7.066,7.066,0,0,0-2.969.678,9.158,9.158,0,0,0-4.767,10.663,6.42,6.42,0,0,0,9.106,4.071A8.852,8.852,0,0,0,127,162.394l.53.238-.53-.238a8.853,8.853,0,0,0,.461-6.189A6.6,6.6,0,0,0,123.878,152a6.241,6.241,0,0,0-2.554-.542" transform="translate(1439.588 4486.053)" fill="#263238"></path><path id="Path_77018" data-name="Path 77018" d="M132.093,172.5a7.343,7.343,0,0,1-3.014-.639,7.732,7.732,0,0,1-4.22-4.927,10.315,10.315,0,0,1,5.39-12.059,7.582,7.582,0,0,1,10.707,4.786,10.01,10.01,0,0,1-.512,7,9.452,9.452,0,0,1-8.349,5.834m1.613-17.247a7.061,7.061,0,0,0-2.969.678,9.157,9.157,0,0,0-4.767,10.663,6.593,6.593,0,0,0,3.584,4.207c3.568,1.6,7.977-.474,9.826-4.609a8.846,8.846,0,0,0,.463-6.189,6.6,6.6,0,0,0-3.584-4.207,6.229,6.229,0,0,0-2.553-.542" transform="translate(1444.157 4487.452)" fill="#263238"></path><path id="Path_77019" data-name="Path 77019" d="M125.3,160.2a.516.516,0,0,0-.3-.326,2.059,2.059,0,0,0-1.311.194l-.513-1.044a3.174,3.174,0,0,1,2.242-.235,1.679,1.679,0,0,1,.964.982Z" transform="translate(1443.686 4489.141)" fill="#263238"></path><rect id="Rectangle_30113" data-name="Rectangle 30113" width="1.163" height="14.343" transform="translate(1538.979 4639.305) rotate(-72.767)" fill="#263238"></rect><g id="Group_60855" data-name="Group 60855" transform="translate(1487.663 4714.083)" opacity="0.2"><g id="Group_60854" data-name="Group 60854"><g id="Group_60853" data-name="Group 60853" clip-path="url(#clip-path-24)"><path id="Path_77020" data-name="Path 77020" d="M115.585,238.526s-26.773,20.515-50.264,19.283c.953-13.98,2.559-32.518,4.884-46.473,2.4-2.652,3.977-4.257,3.977-4.257l14.282,10.653L85,222.08s21.562-1.092,29.075,0Z" transform="translate(-65.321 -207.078)"></path></g></g></g><path id="Path_77021" data-name="Path 77021" d="M104.236,219.216l21.428-4.363.772,19.1s-14.549,5.154-22.866-4.487Z" transform="translate(1436.454 4509.873)" fill="#ffc09d"></path><path id="Path_77022" data-name="Path 77022" d="M134.634,219.271,131.8,233.648l-11.32.307-.772-19.1Z" transform="translate(1442.408 4509.874)" fill="#ffc09d"></path><path id="Path_77023" data-name="Path 77023" d="M105.825,218.04l1.047,14.739-5.328,2.392L99.265,218.04Z" transform="translate(1434.865 4511.049)" fill="#407bff"></path><path id="Path_77024" data-name="Path 77024" d="M105.825,218.04l1.047,14.739-5.328,2.392L99.265,218.04Z" transform="translate(1434.865 4511.049)" fill="#ad252b"></path><path id="Path_77025" data-name="Path 77025" d="M89.871,193.128a24.762,24.762,0,0,0-14.7,8.507c-6.464,7.591-29.238,30.135-24.177,48.539s53.753,4.711,68.629-5.811l-2.279-17.131-33.735,2.478,10.4-6.839c7.131-19.855-4.141-29.742-4.141-29.742" transform="translate(1416.787 4501.858)" fill="#407bff"></path><path id="Path_77026" data-name="Path 77026" d="M89.871,193.128a24.762,24.762,0,0,0-14.7,8.507c-6.464,7.591-29.238,30.135-24.177,48.539s53.753,4.711,68.629-5.811l-2.279-17.131-33.735,2.478,10.4-6.839c7.131-19.855-4.141-29.742-4.141-29.742" transform="translate(1416.787 4501.858)" fill="#ad252b"></path><path id="Path_77027" data-name="Path 77027" d="M150.556,229.841l6.138-1.034v16.449l-4.858.8Z" transform="translate(1453.789 4515.021)" fill="#407bff"></path><path id="Path_77028" data-name="Path 77028" d="M150.556,229.841l6.138-1.034v16.449l-4.858.8Z" transform="translate(1453.789 4515.021)" fill="#ecbfb9"></path><path id="Path_77029" data-name="Path 77029" d="M145.4,242.837a18.912,18.912,0,0,1,.133-2.7l.179-1.357-1.313.775-.783.463a7.785,7.785,0,0,1-.793.3,2.37,2.37,0,0,1-1.426.03,2.684,2.684,0,0,1-1.142-.828,4.861,4.861,0,0,1-.8-1.385l-1.149-3.209-.81,3.392c-.081.337-.134.679-.2,1.02s-.2.628-.287.947a3.069,3.069,0,0,1-.95,1.288,2.02,2.02,0,0,1-1.535.137,6.131,6.131,0,0,1-1.817-.8l-1.769-1.1.719,1.8a16.506,16.506,0,0,1,.73,2.364,7.557,7.557,0,0,1,.164,1.222,1.971,1.971,0,0,1-.266,1.2,1.969,1.969,0,0,0,.691-1.142,5.687,5.687,0,0,0,.182-1.344,10.2,10.2,0,0,0-.037-1.065,7.355,7.355,0,0,0,.914.444,3.6,3.6,0,0,0,2.9-.063,4.348,4.348,0,0,0,1.9-2.16c.015-.045.031-.089.047-.134a4.055,4.055,0,0,0,2.044,1.22,3.969,3.969,0,0,0,2.485-.255,6.171,6.171,0,0,0,.861-.47c.005.038.01.075.015.114a10.251,10.251,0,0,0,.3,1.425,6.724,6.724,0,0,0,.508,1.372,3.15,3.15,0,0,0,.883,1.146,3.539,3.539,0,0,1-.444-1.294,9.681,9.681,0,0,1-.123-1.35" transform="translate(1446.55 4517.281)" fill="#1c1c1c"></path><path id="Path_77030" data-name="Path 77030" d="M173.669,225.893a5.821,5.821,0,0,1-2.346-.249,8.477,8.477,0,0,1-2.216-1.066,6.5,6.5,0,0,1-1.635-1.756,9.363,9.363,0,0,1-1.088-2.186l-.667-2.014-1.143,1.8a9.9,9.9,0,0,1-1.748,2.027,3.239,3.239,0,0,1-2.047.931l-.246-.014c-.094-.014-.205-.042-.308-.06-.209-.036-.417-.1-.627-.16a7.379,7.379,0,0,1-1.227-.527,10.409,10.409,0,0,1-2.194-1.624l-1.77-1.7.363,2.329a18.539,18.539,0,0,1,.242,3.761,5.267,5.267,0,0,1-.356,1.732,1.139,1.139,0,0,1-1.24.713l-.463-.036.142.376c.292.764.6,1.524.92,2.281-.1-.678-.212-1.354-.329-2.027l.188.029a3.036,3.036,0,0,0,.606-.107,3.763,3.763,0,0,0,.539-.322c.133-.144.27-.293.4-.448a5.415,5.415,0,0,0,.76-2.036,12.6,12.6,0,0,0,.227-2.06v-.031a11.118,11.118,0,0,0,1.05.746,9.208,9.208,0,0,0,1.507.75,5.55,5.55,0,0,0,1.763.4,5.157,5.157,0,0,0,3.4-1.35,9.147,9.147,0,0,0,1.106-1.1,10.144,10.144,0,0,0,.657,1.039,8.342,8.342,0,0,0,2.23,2.126,8.7,8.7,0,0,0,2.823,1.1,7.844,7.844,0,0,0,1.938.141c-.077.209-.168.413-.238.626a12.749,12.749,0,0,0-.422,1.795,7.263,7.263,0,0,0-.078,1.84,3.63,3.63,0,0,0,.537,1.729,3.807,3.807,0,0,1-.127-1.725,8.232,8.232,0,0,1,.392-1.673,16.512,16.512,0,0,1,1.477-3.1l.641-1.088Z" transform="translate(1454.673 4511.263)" fill="#1c1c1c"></path><path id="Path_77031" data-name="Path 77031" d="M58.9,272.038H412.621a6.079,6.079,0,0,0,6.079-6.079v-9.429H52.816v9.429a6.079,6.079,0,0,0,6.079,6.079" transform="translate(1417.728 4525.25)" fill="#f5f5f5"></path><g id="Group_60858" data-name="Group 60858" transform="translate(1470.543 4781.778)" opacity="0.2" style="mix-blend-mode: normal;isolation: isolate"><g id="Group_60857" data-name="Group 60857"><g id="Group_60856" data-name="Group 60856" clip-path="url(#clip-path-25)"><rect id="Rectangle_30115" data-name="Rectangle 30115" width="365.884" height="7.754" transform="translate(0 0)"></rect></g></g></g><g id="Group_60861" data-name="Group 60861" transform="translate(1458.502 4775.063)" opacity="0.7"><g id="Group_60860" data-name="Group 60860"><g id="Group_60859" data-name="Group 60859" clip-path="url(#clip-path-26)"><path id="Path_77032" data-name="Path 77032" d="M48.388,260.361h381.23a4.369,4.369,0,0,0,0-8.738H48.388a4.369,4.369,0,0,0,0,8.738" transform="translate(-44.02 -251.623)" fill="#c2c3c4"></path></g></g></g><path id="Path_77033" data-name="Path 77033" d="M327.814,213.287l-11.132,50.485a3.783,3.783,0,0,1-3.614,2.869h-60.8a2.451,2.451,0,0,1-2.283-3.172l11.116-50.1a3.476,3.476,0,0,1,3.614-2.47h60.8c1.633,0,2.66.739,2.3,2.387" transform="translate(1490.445 4508.415)" fill="#fff"></path><g id="Group_60864" data-name="Group 60864" transform="translate(1742.411 4719.314)" opacity="0.4" style="mix-blend-mode: normal;isolation: isolate"><g id="Group_60863" data-name="Group 60863"><g id="Group_60862" data-name="Group 60862" clip-path="url(#clip-path-27)"><path id="Path_77034" data-name="Path 77034" d="M327.26,213.287l-11.132,50.485a3.783,3.783,0,0,1-3.614,2.869H253.782a2.46,2.46,0,0,1-2.3-3.172l11.131-50.1a3.464,3.464,0,0,1,3.615-2.47H324.96c1.633,0,2.66.739,2.3,2.387" transform="translate(-251.412 -210.9)" fill="#fff"></path></g></g></g><path id="Path_77035" data-name="Path 77035" d="M326.576,214.177l-5.839,26.54-5.233,23.7-34.7.348-30.1.3,11.234-50.8a3.457,3.457,0,0,1,3.606-2.465H324.3c1.628,0,2.652.745,2.279,2.372" transform="translate(1490.738 4508.749)" fill="#606060"></path><g id="Group_60867" data-name="Group 60867" transform="translate(1745.037 4749.764)" opacity="0.2" style="mix-blend-mode: normal;isolation: isolate"><g id="Group_60866" data-name="Group 60866"><g id="Group_60865" data-name="Group 60865" clip-path="url(#clip-path-28)"><path id="Path_77036" data-name="Path 77036" d="M322.086,233.143l-5.233,23.7-34.7.349H253.331l4.715-21.67A3.023,3.023,0,0,1,261,233.143Z" transform="translate(-253.33 -233.143)"></path></g></g></g><path id="Path_77037" data-name="Path 77037" d="M323.435,236.221a3.462,3.462,0,0,0-3.614-2.47H261.089c-1.633,0-2.66.739-2.3,2.387l4.453,20.2H253.33a.936.936,0,1,0,0,1.873H325.67a2.127,2.127,0,0,0,2.075-2.587Z" transform="translate(1491.361 4516.846)" fill="#407bff"></path><path id="Path_77038" data-name="Path 77038" d="M323.435,236.221a3.462,3.462,0,0,0-3.614-2.47H261.089c-1.633,0-2.66.739-2.3,2.387l4.453,20.2H253.33a.936.936,0,1,0,0,1.873H325.67a2.127,2.127,0,0,0,2.075-2.587Z" transform="translate(1491.361 4516.846)" fill="#1c1c1c"></path><path id="Path_77039" data-name="Path 77039" d="M252.822,244.508h-3.413l-.422,1.84h3.318Z" transform="translate(1490.105 4520.814)"></path><path id="Path_77040" data-name="Path 77040" d="M238.854,254.392h-9.818a.581.581,0,1,1,0-1.162h9.818a10.732,10.732,0,0,0,8.4-4.022,11.894,11.894,0,0,1,9.307-4.455h1.728a.581.581,0,1,1,0,1.162h-1.728a10.737,10.737,0,0,0-8.4,4.022,11.893,11.893,0,0,1-9.306,4.455" transform="translate(1482.529 4520.905)"></path><path id="Path_77041" data-name="Path 77041" d="M116.532,246.544v4.249c0,1.914,2.305,2.7,4.22,2.7H269.9c1.891,0,4.145-.783,4.145-2.7v-4.249Z" transform="translate(1441.236 4521.565)" fill="#263238"></path><g id="Group_60870" data-name="Group 60870" transform="translate(1557.768 4768.109)" opacity="0.4" style="mix-blend-mode: normal;isolation: isolate"><g id="Group_60869" data-name="Group 60869"><g id="Group_60868" data-name="Group 60868" clip-path="url(#clip-path-29)"><path id="Path_77042" data-name="Path 77042" d="M116.532,246.544v4.249c0,1.914,2.305,2.7,4.22,2.7H269.9c1.891,0,4.145-.783,4.145-2.7v-4.249Z" transform="translate(-116.532 -246.544)" fill="#fff"></path></g></g></g><g id="Group_60873" data-name="Group 60873" transform="translate(1608.579 4768.109)" opacity="0.2" style="mix-blend-mode: normal;isolation: isolate"><g id="Group_60872" data-name="Group 60872"><g id="Group_60871" data-name="Group 60871" clip-path="url(#clip-path-30)"><path id="Path_77043" data-name="Path 77043" d="M153.649,246.544v4.249c0,1.914,2.272,2.7,4.186,2.7h98.373c1.891,0,4.145-.783,4.145-2.7v-4.249Z" transform="translate(-153.649 -246.544)"></path></g></g></g><path id="Path_77044" data-name="Path 77044" d="M283.319,188.615l-17.755,80.535a6.037,6.037,0,0,1-5.766,4.578H162.809c-2.583,0-4.244-2.408-3.644-5.06L176.9,188.747c.6-2.628,3.16-3.94,5.765-3.94h96.99c2.605,0,4.242,1.18,3.666,3.808" transform="translate(1456.92 4498.788)" fill="#263238"></path><path id="Path_77045" data-name="Path 77045" d="M282.435,188.615l-17.755,80.535a6.037,6.037,0,0,1-5.766,4.578H165.223c-2.606,0-4.244-2.408-3.667-5.06l17.757-79.922c.576-2.628,3.16-3.94,5.765-3.94h93.692c2.605,0,4.242,1.18,3.666,3.808" transform="translate(1457.804 4498.788)" fill="#f5f5f5"></path><path id="Path_77046" data-name="Path 77046" d="M220.36,220.847v.023c0,6.9-7.392,12.5-12.812,12.5s-8.631-5.6-7.087-12.5c1.546-6.757,6.938-12.269,12.241-12.475-1.544,6.894,1.765,12.475,7.161,12.475a2.8,2.8,0,0,0,.5-.023" transform="translate(1472.058 4507.49)" fill="#1c1c1c"></path></g></g></svg>