<svg xmlns="http://www.w3.org/2000/svg" xmlns:xlink="http://www.w3.org/1999/xlink" width="93" height="93.018" viewBox="0 0 93 93.018"><defs><clipPath id="clip-path"><rect id="Rectangle_30072" data-name="Rectangle 30072" width="93" height="93.018" transform="translate(0 0)" fill="none"></rect></clipPath></defs><g id="Group_60778" data-name="Group 60778" transform="translate(0 0)"><g id="Group_60777" data-name="Group 60777" clip-path="url(#clip-path)"><path id="Path_76900" data-name="Path 76900" d="M85.426,60.759a8.983,8.983,0,0,0-4.432-15.621V19.381a4.37,4.37,0,0,0-8.12-2.252L70.5,21.088,66.844,15H62.939a16.066,16.066,0,0,0-16-15h-.872a16.065,16.065,0,0,0-16,15H26.156L22.5,21.088l-2.379-3.959a4.37,4.37,0,0,0-8.12,2.252V45.138A8.983,8.983,0,0,0,7.574,60.759,11.668,11.668,0,0,0,0,71.657V93H25.5V87.006H31.5A4.5,4.5,0,0,0,31.5,78l-7.629.018-.6-7.32a11.708,11.708,0,0,0-5.358-8.846A8.992,8.992,0,0,0,15,45.138V19.381A1.379,1.379,0,0,1,16.384,18a1.4,1.4,0,0,1,1.181.672l4.94,8.246L27.846,18h2.27A15.7,15.7,0,0,0,31.7,23.25l3.669,7.32a4.377,4.377,0,0,0-2.143,5.25L30.843,38.2l2.016,3.542q-.246.517-.436,1.035l-3.942,1.072v8.283L32.423,53.2q.19.518.436,1.035L30.843,57.8l5.867,5.867,3.542-2.016q.518.245,1.035.436l1.072,3.941h8.282l1.072-3.941q.517-.19,1.035-.436l3.542,2.016L62.157,57.8l-2.016-3.542q.246-.518.436-1.035l3.942-1.072V43.866l-3.942-1.071q-.19-.519-.436-1.036l2.016-3.542-2.379-2.379A4.513,4.513,0,0,0,60,34.512a4.464,4.464,0,0,0-2.361-3.924l3.669-7.32a16.574,16.574,0,0,0,1.58-5.249h2.271l5.34,8.918,4.94-8.246A1.378,1.378,0,0,1,78,19.4V45.156A8.992,8.992,0,0,0,75.09,61.867a11.658,11.658,0,0,0-5.358,8.846l-.6,7.3H61.5a4.5,4.5,0,1,0,0,9.009H67.5v5.994H93V71.657a11.649,11.649,0,0,0-7.574-10.9M20.271,70.931l.6,7.338a2.971,2.971,0,0,0,2.978,2.725h7.629a1.507,1.507,0,1,1,0,3.015H21.96a4.488,4.488,0,0,1-4.486-4.087l-1-11.044-3,.273,1,11.043a7.446,7.446,0,0,0,7.465,6.812h.527v3H2.961V71.657a8.671,8.671,0,0,1,17.31-.726M19.508,54a5.994,5.994,0,1,1-5.994-5.994A6,6,0,0,1,19.508,54M57.962,38.254l.454.454-1.69,2.96.382.727a10.489,10.489,0,0,1,.854,2.052l.236.782,3.287.908v3.7l-3.287.89-.236.781a13.254,13.254,0,0,1-.854,2.053l-.382.726,1.69,2.961-2.634,2.616L52.821,58.18l-.726.381a10.5,10.5,0,0,1-2.053.854l-.781.236-.89,3.288H44.647l-.908-3.288-.781-.236a13.335,13.335,0,0,1-2.053-.854l-.726-.381-2.961,1.689-2.634-2.616,1.69-2.961-.382-.726a10.406,10.406,0,0,1-.853-2.053l-.237-.781-3.287-.89v-3.7l3.287-.908.237-.782a13.18,13.18,0,0,1,.853-2.052l.382-.727-1.69-2.96.454-.454a4.3,4.3,0,0,0,1.054.49,10.385,10.385,0,0,0,2.289,5.4,8.991,8.991,0,1,0,16.238,0,10.377,10.377,0,0,0,2.289-5.4,4.01,4.01,0,0,0,1.054-.49M46.5,44.992A7.534,7.534,0,0,1,39.144,39H53.838A7.5,7.5,0,0,1,46.5,44.992m5.994,3a5.994,5.994,0,1,1-11.988,0,6.214,6.214,0,0,1,.254-1.725,10.413,10.413,0,0,0,11.48,0,5.581,5.581,0,0,1,.254,1.725M37.509,36a1.507,1.507,0,1,1,0-3.015h18a1.507,1.507,0,1,1,0,3.015ZM58.615,21.906l-4.05,8.1H47.989v-7.72a5.994,5.994,0,1,0-2.978,0v7.72H38.435l-4.05-8.1A13.063,13.063,0,0,1,46.064,3h.872A13.063,13.063,0,0,1,58.615,21.906M46.5,19.49a3,3,0,1,1,3-3,3,3,0,0,1-3,3M73.492,54A5.994,5.994,0,1,1,79.486,60,6,6,0,0,1,73.492,54M90,90H70.5v-3h.527a7.446,7.446,0,0,0,7.465-6.812l1-11.043-3-.273-1,11.044A4.488,4.488,0,0,1,71,84.009H61.485a1.507,1.507,0,0,1,0-3.015h7.629a3,3,0,0,0,3-2.743l.6-7.32a8.652,8.652,0,0,1,17.274.708V90Z" fill="#5e5e5e"></path></g></g></svg>