<svg xmlns="http://www.w3.org/2000/svg" xmlns:xlink="http://www.w3.org/1999/xlink" id="Group_60758" data-name="Group 60758" width="89.255" height="93.5" viewBox="0 0 89.255 93.5"><defs><clipPath id="clip-path"><rect id="Rectangle_30045" data-name="Rectangle 30045" width="89.255" height="93.5" fill="none"></rect></clipPath></defs><g id="Group_60757" data-name="Group 60757" clip-path="url(#clip-path)"><path id="Path_76776" data-name="Path 76776" d="M46.294,40.369h0a.978.978,0,0,0-.416-.093,1,1,0,0,0-.339.06.983.983,0,0,0-.559.511l-8.5,18.225a.987.987,0,0,0-.033.758.976.976,0,0,0,.51.558,1.009,1.009,0,0,0,1.316-.478l8.5-18.224a.989.989,0,0,0-.477-1.316" fill="#5e5e5e"></path><path id="Path_76777" data-name="Path 76777" d="M46.294,40.369h0a.978.978,0,0,0-.416-.093,1,1,0,0,0-.339.06.983.983,0,0,0-.559.511l-8.5,18.225a.987.987,0,0,0-.033.758.976.976,0,0,0,.51.558,1.009,1.009,0,0,0,1.316-.478l8.5-18.224a.989.989,0,0,0-.477-1.316Z" fill="none" stroke="#5e5e5e" stroke-width="1"></path><path id="Path_76778" data-name="Path 76778" d="M33.566,45.051a.99.99,0,1,0-1.3-1.5l-7.008,6.073a.991.991,0,0,0,0,1.5l7.01,6.076a.99.99,0,0,0,1.394-.1.994.994,0,0,0-.1-1.4l-6.146-5.327Z" fill="#5e5e5e"></path><path id="Path_76779" data-name="Path 76779" d="M33.566,45.051a.99.99,0,1,0-1.3-1.5l-7.008,6.073a.991.991,0,0,0,0,1.5l7.01,6.076a.99.99,0,0,0,1.394-.1.994.994,0,0,0-.1-1.4l-6.146-5.327Z" fill="none" stroke="#5e5e5e" stroke-width="1"></path><path id="Path_76780" data-name="Path 76780" d="M57.991,51.126a.993.993,0,0,0,0-1.5l-7.01-6.074a.991.991,0,1,0-1.3,1.5l6.149,5.324L49.684,55.7a.993.993,0,0,0-.1,1.4h0a1.021,1.021,0,0,0,1.4.1Z" fill="#5e5e5e"></path><path id="Path_76781" data-name="Path 76781" d="M57.991,51.126a.993.993,0,0,0,0-1.5l-7.01-6.074a.991.991,0,1,0-1.3,1.5l6.149,5.324L49.684,55.7a.993.993,0,0,0-.1,1.4h0a1.021,1.021,0,0,0,1.4.1Z" fill="none" stroke="#5e5e5e" stroke-width="1"></path><path id="Path_76782" data-name="Path 76782" d="M30.142,3.845H65.436a5.756,5.756,0,0,1,5.749,5.749V42.3l-2.261-2.261a1.327,1.327,0,0,0-1.876,1.876l4.5,4.5a1.325,1.325,0,0,0,.939.388H72.5a1.33,1.33,0,0,0,1.078-.54l4.351-4.351a1.327,1.327,0,0,0-1.876-1.876l-2.215,2.215V9.594a8.411,8.411,0,0,0-8.4-8.4H30.142a1.327,1.327,0,0,0,0,2.653Zm-1.235,34.3a5.166,5.166,0,0,0,2.561-5.609,15.984,15.984,0,0,0-8.682-10.876,9.08,9.08,0,0,0,2.258-6V6.148a5.9,5.9,0,0,0-5.9-5.9H12.693a5.905,5.905,0,0,0-5.9,5.9v9.515a9.086,9.086,0,0,0,2.257,6A15.989,15.989,0,0,0,.371,32.54,5.165,5.165,0,0,0,2.93,38.149a26.9,26.9,0,0,0,25.977,0Zm-19.459-32A3.248,3.248,0,0,1,12.693,2.9h6.453a3.249,3.249,0,0,1,3.245,3.245V9.486a9.559,9.559,0,0,0-8.077-.958l-4.866,1.6Zm0,6.777,5.7-1.877a6.934,6.934,0,0,1,6.081.838l1.165.785v2.992a6.472,6.472,0,1,1-12.943,0ZM2.96,33.122a13.324,13.324,0,0,1,4.605-7.4,13.159,13.159,0,0,1,3.8-2.154,9.089,9.089,0,0,0,9.111,0,13.319,13.319,0,0,1,8.4,9.556,2.5,2.5,0,0,1-1.257,2.705,24.246,24.246,0,0,1-23.408,0A2.5,2.5,0,0,1,2.96,33.122ZM50.661,89.1H20.319a5.754,5.754,0,0,1-5.748-5.748V51.6l2.238,2.238a1.327,1.327,0,0,0,1.876-1.876l-4.5-4.5a1.338,1.338,0,0,0-1.878,0l-4.5,4.5a1.326,1.326,0,1,0,1.875,1.876L11.917,51.6V83.353a8.412,8.412,0,0,0,8.4,8.4H50.661a1.327,1.327,0,0,0,0-2.654Zm35.663.8A5.164,5.164,0,0,0,88.885,84.3,15.985,15.985,0,0,0,80.2,73.42a9.085,9.085,0,0,0,2.258-6V57.906a5.905,5.905,0,0,0-5.9-5.9H70.11a5.9,5.9,0,0,0-5.9,5.9v9.515a9.083,9.083,0,0,0,2.256,6,15.989,15.989,0,0,0-8.68,10.88,5.166,5.166,0,0,0,2.56,5.609,26.894,26.894,0,0,0,25.976,0Zm-19.459-32a3.249,3.249,0,0,1,3.245-3.245h6.453a3.249,3.249,0,0,1,3.246,3.245v3.338a9.56,9.56,0,0,0-8.077-.958l-4.867,1.6Zm0,6.777,5.7-1.877a6.932,6.932,0,0,1,6.081.839l1.166.784v2.992a6.472,6.472,0,0,1-12.944,0Zm-6.488,20.2a13.333,13.333,0,0,1,4.605-7.4,13.2,13.2,0,0,1,3.8-2.154,9.094,9.094,0,0,0,9.112,0,13.316,13.316,0,0,1,8.4,9.556,2.5,2.5,0,0,1-1.256,2.7,24.246,24.246,0,0,1-23.408,0A2.5,2.5,0,0,1,60.377,84.88Z" fill="#5e5e5e"></path><path id="Path_76783" data-name="Path 76783" d="M30.142,3.845H65.436a5.756,5.756,0,0,1,5.749,5.749V42.3l-2.261-2.261a1.327,1.327,0,0,0-1.876,1.876l4.5,4.5a1.325,1.325,0,0,0,.939.388H72.5a1.33,1.33,0,0,0,1.078-.54l4.351-4.351a1.327,1.327,0,0,0-1.876-1.876l-2.215,2.215V9.594a8.411,8.411,0,0,0-8.4-8.4H30.142a1.327,1.327,0,0,0,0,2.653Zm-1.235,34.3a5.166,5.166,0,0,0,2.561-5.609,15.984,15.984,0,0,0-8.682-10.876,9.08,9.08,0,0,0,2.258-6V6.148a5.9,5.9,0,0,0-5.9-5.9H12.693a5.905,5.905,0,0,0-5.9,5.9v9.515a9.086,9.086,0,0,0,2.257,6A15.989,15.989,0,0,0,.371,32.54,5.165,5.165,0,0,0,2.93,38.149a26.9,26.9,0,0,0,25.977,0Zm-19.459-32A3.248,3.248,0,0,1,12.693,2.9h6.453a3.249,3.249,0,0,1,3.245,3.245V9.486a9.559,9.559,0,0,0-8.077-.958l-4.866,1.6Zm0,6.777,5.7-1.877a6.934,6.934,0,0,1,6.081.838l1.165.785v2.992a6.472,6.472,0,1,1-12.943,0ZM2.96,33.122a13.324,13.324,0,0,1,4.605-7.4,13.159,13.159,0,0,1,3.8-2.154,9.089,9.089,0,0,0,9.111,0,13.319,13.319,0,0,1,8.4,9.556,2.5,2.5,0,0,1-1.257,2.705,24.246,24.246,0,0,1-23.408,0A2.5,2.5,0,0,1,2.96,33.122ZM50.661,89.1H20.319a5.754,5.754,0,0,1-5.748-5.748V51.6l2.238,2.238a1.327,1.327,0,0,0,1.876-1.876l-4.5-4.5a1.338,1.338,0,0,0-1.878,0l-4.5,4.5a1.326,1.326,0,1,0,1.875,1.876L11.917,51.6V83.353a8.412,8.412,0,0,0,8.4,8.4H50.661a1.327,1.327,0,0,0,0-2.654Zm35.663.8A5.164,5.164,0,0,0,88.885,84.3,15.985,15.985,0,0,0,80.2,73.42a9.085,9.085,0,0,0,2.258-6V57.906a5.905,5.905,0,0,0-5.9-5.9H70.11a5.9,5.9,0,0,0-5.9,5.9v9.515a9.083,9.083,0,0,0,2.256,6,15.989,15.989,0,0,0-8.68,10.88,5.166,5.166,0,0,0,2.56,5.609,26.894,26.894,0,0,0,25.976,0Zm-19.459-32a3.249,3.249,0,0,1,3.245-3.245h6.453a3.249,3.249,0,0,1,3.246,3.245v3.338a9.56,9.56,0,0,0-8.077-.958l-4.867,1.6Zm0,6.777,5.7-1.877a6.932,6.932,0,0,1,6.081.839l1.166.784v2.992a6.472,6.472,0,0,1-12.944,0Zm-6.488,20.2a13.333,13.333,0,0,1,4.605-7.4,13.2,13.2,0,0,1,3.8-2.154,9.094,9.094,0,0,0,9.112,0,13.316,13.316,0,0,1,8.4,9.556,2.5,2.5,0,0,1-1.256,2.7,24.246,24.246,0,0,1-23.408,0A2.5,2.5,0,0,1,60.377,84.88Z" fill="none" stroke="#5e5e5e" stroke-width="0.5"></path></g></svg>