<svg xmlns="http://www.w3.org/2000/svg" width="66.582" height="80" viewBox="0 0 66.582 80"><g id="Group_104850" data-name="Group 104850" transform="translate(-6.709)"><path id="Path_135179" data-name="Path 135179" d="M40,10.063a16.52,16.52,0,1,0,16.52,16.52A16.538,16.538,0,0,0,40,10.063Zm0,30.189A13.669,13.669,0,1,1,53.668,26.583,13.685,13.685,0,0,1,40,40.252Z" fill="#5e5e5e"></path><path id="Path_135180" data-name="Path 135180" d="M10.063,78.574A1.428,1.428,0,0,0,11.489,80H68.511a1.428,1.428,0,0,0,1.426-1.426V65.157A14.86,14.86,0,0,0,55.094,50.314H24.906A14.86,14.86,0,0,0,10.063,65.157Zm2.851-13.417A12.005,12.005,0,0,1,24.906,53.165H55.094A12.005,12.005,0,0,1,67.086,65.157V77.149H12.914Z" fill="#5e5e5e"></path><path id="Path_135181" data-name="Path 135181" d="M6.709,14.843a1.426,1.426,0,1,0,2.851,0V8.134a5.289,5.289,0,0,1,5.283-5.283h6.709a1.426,1.426,0,0,0,0-2.851H14.843A8.143,8.143,0,0,0,6.709,8.134Z" fill="#5e5e5e"></path><path id="Path_135182" data-name="Path 135182" d="M8.134,30.189a1.427,1.427,0,0,0-1.425,1.426v6.708a8.143,8.143,0,0,0,8.134,8.134h6.709a1.426,1.426,0,0,0,0-2.851H14.843A5.29,5.29,0,0,1,9.56,38.323V31.615A1.427,1.427,0,0,0,8.134,30.189Z" fill="#5e5e5e"></path><path id="Path_135183" data-name="Path 135183" d="M71.866,16.269a1.427,1.427,0,0,0,1.425-1.426V8.134A8.143,8.143,0,0,0,65.157,0H58.448a1.426,1.426,0,0,0,0,2.851h6.709A5.289,5.289,0,0,1,70.44,8.134v6.709A1.428,1.428,0,0,0,71.866,16.269Z" fill="#5e5e5e"></path><path id="Path_135184" data-name="Path 135184" d="M73.291,31.615a1.425,1.425,0,1,0-2.851,0v6.708a5.29,5.29,0,0,1-5.283,5.283H58.448a1.426,1.426,0,0,0,0,2.851h6.709a8.143,8.143,0,0,0,8.134-8.134Z" fill="#5e5e5e"></path></g></svg>