<svg xmlns="http://www.w3.org/2000/svg" id="Group_104852" data-name="Group 104852" width="80" height="80" viewBox="0 0 80 80"><path id="Path_135195" data-name="Path 135195" d="M31.562,49.62a1.181,1.181,0,0,0,0-2.362H11.308a1.181,1.181,0,1,0,0,2.362Z" fill="#5e5e5e"></path><path id="Path_135196" data-name="Path 135196" d="M28.185,57.384H11.308a1.182,1.182,0,0,0,0,2.363H28.185a1.182,1.182,0,1,0,0-2.363Z" fill="#5e5e5e"></path><path id="Path_135197" data-name="Path 135197" d="M28.185,10.127a6.244,6.244,0,1,0,6.245,6.245A6.251,6.251,0,0,0,28.185,10.127Zm0,10.126a3.882,3.882,0,1,1,3.883-3.881A3.885,3.885,0,0,1,28.185,20.253Z" fill="#5e5e5e"></path><path id="Path_135198" data-name="Path 135198" d="M33.249,27H23.122a7.941,7.941,0,0,0-7.932,7.932v3.375a1.181,1.181,0,1,0,2.362,0V34.937a5.577,5.577,0,0,1,5.57-5.57H33.249a5.576,5.576,0,0,1,5.569,5.57v3.375a1.182,1.182,0,0,0,2.364,0V34.937A7.941,7.941,0,0,0,33.249,27Z" fill="#5e5e5e"></path><path id="Path_135199" data-name="Path 135199" d="M48.438,0H7.932A7.941,7.941,0,0,0,0,7.932V61.941a7.941,7.941,0,0,0,7.932,7.932h23.63a1.181,1.181,0,0,0,0-2.362H7.932a5.576,5.576,0,0,1-5.569-5.57V7.932A5.576,5.576,0,0,1,7.932,2.363H48.438a5.576,5.576,0,0,1,5.57,5.569V28.388a1.182,1.182,0,0,0,2.364,0V7.932A7.942,7.942,0,0,0,48.438,0Z" fill="#5e5e5e"></path><path id="Path_135200" data-name="Path 135200" d="M58.565,37.131A21.434,21.434,0,1,0,80,58.565,21.458,21.458,0,0,0,58.565,37.131Zm0,40.506A19.072,19.072,0,1,1,77.637,58.565,19.093,19.093,0,0,1,58.565,77.637Z" fill="#5e5e5e"></path><path id="Path_135201" data-name="Path 135201" d="M54.353,66.153a1.2,1.2,0,0,0,.837.345h.054a1.172,1.172,0,0,0,.833-.4L67.893,52.6a1.185,1.185,0,0,0-.111-1.669,1.157,1.157,0,0,0-.859-.292,1.17,1.17,0,0,0-.809.4L55.131,63.59l-5.859-5.859A1.182,1.182,0,0,0,47.6,59.4Z" fill="#5e5e5e"></path></svg>