<svg xmlns="http://www.w3.org/2000/svg" xmlns:xlink="http://www.w3.org/1999/xlink" id="Group_60776" data-name="Group 60776" width="87.669" height="93.75" viewBox="0 0 87.669 93.75"><defs><clipPath id="clip-path"><rect id="Rectangle_30071" data-name="Rectangle 30071" width="87.669" height="93.75" fill="none"></rect></clipPath></defs><g id="Group_60775" data-name="Group 60775" clip-path="url(#clip-path)"><path id="Path_76888" data-name="Path 76888" d="M87.293,26.624a6.571,6.571,0,0,0-6.562-6.563H72.843V15.626c0-.021-.01-.038-.011-.059a.989.989,0,0,0-.051-.253c-.011-.029-.018-.059-.031-.087a.938.938,0,0,0-.184-.273L58.267.656s-.01-.007-.014-.012A.949.949,0,0,0,58,.472a.848.848,0,0,0-.1-.036.944.944,0,0,0-.235-.048c-.023,0-.043-.013-.067-.013H18.978a4.158,4.158,0,0,0-4.153,4.153V20.061H6.937A6.57,6.57,0,0,0,.375,26.624v41.5a6.57,6.57,0,0,0,6.562,6.561H36.568a19.687,19.687,0,0,1-4.8,10.583H22.753A2.439,2.439,0,0,0,20.317,87.7v3.234a2.439,2.439,0,0,0,2.437,2.437H64.915a2.439,2.439,0,0,0,2.436-2.437V87.7a2.439,2.439,0,0,0-2.436-2.438H55.9a19.687,19.687,0,0,1-4.8-10.583H80.731a6.571,6.571,0,0,0,6.563-6.561ZM58.543,3.615,69.6,14.677H58.543ZM18.978,2.273H56.646V15.626a.946.946,0,0,0,.948.946H70.946V66.114a2.258,2.258,0,0,1-2.256,2.255H18.978a2.257,2.257,0,0,1-2.255-2.255V4.528a2.258,2.258,0,0,1,2.256-2.255M65.454,87.7v3.234a.546.546,0,0,1-.539.539H22.753a.546.546,0,0,1-.539-.539V87.7a.547.547,0,0,1,.54-.54h42.16a.547.547,0,0,1,.54.54M53.448,85.266H34.22a21.477,21.477,0,0,0,4.259-10.583h10.71a21.477,21.477,0,0,0,4.259,10.583M85.4,68.122a4.669,4.669,0,0,1-4.665,4.663H6.937a4.668,4.668,0,0,1-4.664-4.663v-41.5a4.67,4.67,0,0,1,4.664-4.665h7.888V66.114a4.158,4.158,0,0,0,4.153,4.153H68.69a4.158,4.158,0,0,0,4.153-4.153V21.959h7.888A4.671,4.671,0,0,1,85.4,26.624Z" fill="#5e5e5e" fill-rule="evenodd"></path><path id="Path_76889" data-name="Path 76889" d="M87.293,26.624a6.571,6.571,0,0,0-6.562-6.563H72.843V15.626c0-.021-.01-.038-.011-.059a.989.989,0,0,0-.051-.253c-.011-.029-.018-.059-.031-.087a.938.938,0,0,0-.184-.273L58.267.656s-.01-.007-.014-.012A.949.949,0,0,0,58,.472a.848.848,0,0,0-.1-.036.944.944,0,0,0-.235-.048c-.023,0-.043-.013-.067-.013H18.978a4.158,4.158,0,0,0-4.153,4.153V20.061H6.937A6.57,6.57,0,0,0,.375,26.624v41.5a6.57,6.57,0,0,0,6.562,6.561H36.568a19.687,19.687,0,0,1-4.8,10.583H22.753A2.439,2.439,0,0,0,20.317,87.7v3.234a2.439,2.439,0,0,0,2.437,2.437H64.915a2.439,2.439,0,0,0,2.436-2.437V87.7a2.439,2.439,0,0,0-2.436-2.438H55.9a19.687,19.687,0,0,1-4.8-10.583H80.731a6.571,6.571,0,0,0,6.563-6.561ZM58.543,3.615,69.6,14.677H58.543ZM18.978,2.273H56.646V15.626a.946.946,0,0,0,.948.946H70.946V66.114a2.258,2.258,0,0,1-2.256,2.255H18.978a2.257,2.257,0,0,1-2.255-2.255V4.528A2.258,2.258,0,0,1,18.978,2.273ZM65.454,87.7v3.234a.546.546,0,0,1-.539.539H22.753a.546.546,0,0,1-.539-.539V87.7a.547.547,0,0,1,.54-.54h42.16A.547.547,0,0,1,65.454,87.7ZM53.448,85.266H34.22a21.477,21.477,0,0,0,4.259-10.583h10.71A21.477,21.477,0,0,0,53.448,85.266ZM85.4,68.122a4.669,4.669,0,0,1-4.665,4.663H6.937a4.668,4.668,0,0,1-4.664-4.663v-41.5a4.67,4.67,0,0,1,4.664-4.665h7.888V66.114a4.158,4.158,0,0,0,4.153,4.153H68.69a4.158,4.158,0,0,0,4.153-4.153V21.959h7.888A4.671,4.671,0,0,1,85.4,26.624Z" fill="none" stroke="#5e5e5e" stroke-width="0.75"></path><path id="Path_76890" data-name="Path 76890" d="M33.053,35.148H54.616a.949.949,0,0,0,.949-.949V29.5a7.967,7.967,0,0,0-7.957-7.957H40.061A7.966,7.966,0,0,0,32.1,29.5v4.7a.949.949,0,0,0,.949.949M40.061,23.44h7.547A6.066,6.066,0,0,1,53.667,29.5V33.25H52.1V30.835a.948.948,0,1,0-1.9,0V33.25H37.467V30.835a.949.949,0,1,0-1.9,0V33.25H34V29.5a6.067,6.067,0,0,1,6.06-6.059" fill="#5e5e5e" fill-rule="evenodd"></path><path id="Path_76891" data-name="Path 76891" d="M33.053,35.148H54.616a.949.949,0,0,0,.949-.949V29.5a7.967,7.967,0,0,0-7.957-7.957H40.061A7.966,7.966,0,0,0,32.1,29.5v4.7A.949.949,0,0,0,33.053,35.148ZM40.061,23.44h7.547A6.066,6.066,0,0,1,53.667,29.5V33.25H52.1V30.835a.948.948,0,1,0-1.9,0V33.25H37.467V30.835a.949.949,0,1,0-1.9,0V33.25H34V29.5A6.067,6.067,0,0,1,40.061,23.44Z" fill="none" stroke="#5e5e5e" stroke-width="0.75"></path><path id="Path_76892" data-name="Path 76892" d="M43.834,21.4a6.041,6.041,0,1,0-6.041-6.041A6.048,6.048,0,0,0,43.834,21.4m0-10.185a4.144,4.144,0,1,1-4.144,4.144,4.149,4.149,0,0,1,4.144-4.144" fill="#5e5e5e" fill-rule="evenodd"></path><path id="Path_76893" data-name="Path 76893" d="M43.834,21.4a6.041,6.041,0,1,0-6.041-6.041A6.048,6.048,0,0,0,43.834,21.4Zm0-10.185a4.144,4.144,0,1,1-4.144,4.144A4.149,4.149,0,0,1,43.834,11.215Z" fill="none" stroke="#5e5e5e" stroke-width="0.75"></path><path id="Path_76894" data-name="Path 76894" d="M22.484,48.635h42.7a.949.949,0,1,0,0-1.9h-42.7a.949.949,0,1,0,0,1.9" fill="#5e5e5e" fill-rule="evenodd"></path><path id="Path_76895" data-name="Path 76895" d="M22.484,48.635h42.7a.949.949,0,1,0,0-1.9h-42.7a.949.949,0,1,0,0,1.9Z" fill="none" stroke="#5e5e5e" stroke-width="0.75"></path><path id="Path_76896" data-name="Path 76896" d="M22.484,54.981h42.7a.949.949,0,1,0,0-1.9h-42.7a.949.949,0,1,0,0,1.9" fill="#5e5e5e" fill-rule="evenodd"></path><path id="Path_76897" data-name="Path 76897" d="M22.484,54.981h42.7a.949.949,0,1,0,0-1.9h-42.7a.949.949,0,1,0,0,1.9Z" fill="none" stroke="#5e5e5e" stroke-width="0.75"></path><path id="Path_76898" data-name="Path 76898" d="M22.484,61.324h42.7a.949.949,0,1,0,0-1.9h-42.7a.949.949,0,0,0,0,1.9" fill="#5e5e5e" fill-rule="evenodd"></path><path id="Path_76899" data-name="Path 76899" d="M22.484,61.324h42.7a.949.949,0,1,0,0-1.9h-42.7a.949.949,0,0,0,0,1.9Z" fill="none" stroke="#5e5e5e" stroke-width="0.75"></path></g></svg>