<svg xmlns="http://www.w3.org/2000/svg" xmlns:xlink="http://www.w3.org/1999/xlink" id="Group_67043" data-name="Group 67043" width="93.5" height="93.48" viewBox="0 0 93.5 93.48"><defs><clipPath id="clip-path"><rect id="Rectangle_32495" data-name="Rectangle 32495" width="93.5" height="93.48" transform="translate(0 0)" fill="none"></rect></clipPath></defs><g id="Group_67042" data-name="Group 67042" clip-path="url(#clip-path)"><path id="Path_82134" data-name="Path 82134" d="M79.3,46.739a13.947,13.947,0,0,0,0-27.894H76.111A13.91,13.91,0,0,0,54.137,9.083a23.217,23.217,0,0,0-40.988,9.824,13.936,13.936,0,0,0,1.069,27.832H40.562v6.2H32.814a7.747,7.747,0,0,0-7.748,7.748V80.831a4.664,4.664,0,0,1-4.649,4.649H12.452a6.2,6.2,0,1,0,0,3.1h7.965a7.748,7.748,0,0,0,7.748-7.748V60.686a4.663,4.663,0,0,1,4.649-4.649h7.748v9.3c0,2.061,1.875,3.564,4.649,4.587V90.129H40.562v3.1h6.2a1.55,1.55,0,0,0,1.55-1.549V70.789a37.423,37.423,0,0,0,6.2.713V87.03a1.55,1.55,0,0,0,1.55,1.549H70.222a6.2,6.2,0,1,0,0-3.1H57.608V71.5c6.989-.248,13.947-2.2,13.947-6.167v-3.1H76.2a1.55,1.55,0,0,1,1.55,1.55v12.4a1.55,1.55,0,0,0,1.549,1.55h7.749v-3.1h-6.2V63.785A4.664,4.664,0,0,0,76.2,59.136H71.555v-12.4ZM6.47,90.129a3.1,3.1,0,1,1,3.1-3.1,3.1,3.1,0,0,1-3.1,3.1M76.2,83.93a3.1,3.1,0,1,1-3.1,3.1,3.1,3.1,0,0,1,3.1-3.1m-7.748-18.6c0,.79-4.262,3.1-12.4,3.1s-12.4-2.309-12.4-3.1V59.942a29.222,29.222,0,0,0,12.4,2.293,29.225,29.225,0,0,0,12.4-2.293Zm0-9.3c0,.79-4.262,3.1-12.4,3.1s-12.4-2.309-12.4-3.1V50.644a29.238,29.238,0,0,0,12.4,2.294,29.241,29.241,0,0,0,12.4-2.294Zm0-9.3c0,.79-4.262,3.1-12.4,3.1s-12.4-2.309-12.4-3.1V41.346a29.238,29.238,0,0,0,12.4,2.294,29.241,29.241,0,0,0,12.4-2.294Zm-12.4-6.2c-8.136,0-12.4-2.309-12.4-3.1s4.261-3.1,12.4-3.1,12.4,2.309,12.4,3.1-4.262,3.1-12.4,3.1m1.549-9.266V28.143a4.663,4.663,0,0,0-4.649-4.649H44.994a6.2,6.2,0,1,0,0,3.1h7.965a1.549,1.549,0,0,1,1.55,1.549v3.131c-6.989.247-13.947,2.2-13.947,6.167v6.2H14.218a10.847,10.847,0,0,1,0-21.695H14.4A10.912,10.912,0,0,1,25.066,32.792h3.1A14.021,14.021,0,0,0,16.28,19.016a20.145,20.145,0,0,1,39.314.17l3.022-.681a23.1,23.1,0,0,0-2.743-6.865A10.848,10.848,0,0,1,70.734,27.183l2.417,1.937a14.09,14.09,0,0,0,2.96-7.175H79.3a10.847,10.847,0,1,1,0,21.695H71.555v-3.1H76.2a1.549,1.549,0,0,0,1.55-1.549v-6.2H79.3v-3.1H76.2a1.55,1.55,0,0,0-1.55,1.55v6.2h-3.1C71.555,33.474,64.6,31.521,57.608,31.274Zm-15.5-6.23a3.1,3.1,0,1,1-3.1-3.1,3.1,3.1,0,0,1,3.1,3.1" fill="#5e5e5e"></path><path id="Path_82135" data-name="Path 82135" d="M79.3,46.739a13.947,13.947,0,0,0,0-27.894H76.111A13.91,13.91,0,0,0,54.137,9.083a23.217,23.217,0,0,0-40.988,9.824,13.936,13.936,0,0,0,1.069,27.832H40.562v6.2H32.814a7.747,7.747,0,0,0-7.748,7.748V80.831a4.664,4.664,0,0,1-4.649,4.649H12.452a6.2,6.2,0,1,0,0,3.1h7.965a7.748,7.748,0,0,0,7.748-7.748V60.686a4.663,4.663,0,0,1,4.649-4.649h7.748v9.3c0,2.061,1.875,3.564,4.649,4.587V90.129H40.562v3.1h6.2a1.55,1.55,0,0,0,1.55-1.549V70.789a37.423,37.423,0,0,0,6.2.713V87.03a1.55,1.55,0,0,0,1.55,1.549H70.222a6.2,6.2,0,1,0,0-3.1H57.608V71.5c6.989-.248,13.947-2.2,13.947-6.167v-3.1H76.2a1.55,1.55,0,0,1,1.55,1.55v12.4a1.55,1.55,0,0,0,1.549,1.55h7.749v-3.1h-6.2V63.785A4.664,4.664,0,0,0,76.2,59.136H71.555v-12.4ZM6.47,90.129a3.1,3.1,0,1,1,3.1-3.1A3.1,3.1,0,0,1,6.47,90.129ZM76.2,83.93a3.1,3.1,0,1,1-3.1,3.1A3.1,3.1,0,0,1,76.2,83.93Zm-7.748-18.6c0,.79-4.262,3.1-12.4,3.1s-12.4-2.309-12.4-3.1V59.942a29.222,29.222,0,0,0,12.4,2.293,29.225,29.225,0,0,0,12.4-2.293Zm0-9.3c0,.79-4.262,3.1-12.4,3.1s-12.4-2.309-12.4-3.1V50.644a29.238,29.238,0,0,0,12.4,2.294,29.241,29.241,0,0,0,12.4-2.294Zm0-9.3c0,.79-4.262,3.1-12.4,3.1s-12.4-2.309-12.4-3.1V41.346a29.238,29.238,0,0,0,12.4,2.294,29.241,29.241,0,0,0,12.4-2.294Zm-12.4-6.2c-8.136,0-12.4-2.309-12.4-3.1s4.261-3.1,12.4-3.1,12.4,2.309,12.4,3.1S64.194,40.54,56.059,40.54Zm1.549-9.266V28.143a4.663,4.663,0,0,0-4.649-4.649H44.994a6.2,6.2,0,1,0,0,3.1h7.965a1.549,1.549,0,0,1,1.55,1.549v3.131c-6.989.247-13.947,2.2-13.947,6.167v6.2H14.218a10.847,10.847,0,0,1,0-21.695H14.4A10.912,10.912,0,0,1,25.066,32.792h3.1A14.021,14.021,0,0,0,16.28,19.016a20.145,20.145,0,0,1,39.314.17l3.022-.681a23.1,23.1,0,0,0-2.743-6.865A10.848,10.848,0,0,1,70.734,27.183l2.417,1.937a14.09,14.09,0,0,0,2.96-7.175H79.3a10.847,10.847,0,1,1,0,21.695H71.555v-3.1H76.2a1.549,1.549,0,0,0,1.55-1.549v-6.2H79.3v-3.1H76.2a1.55,1.55,0,0,0-1.55,1.55v6.2h-3.1C71.555,33.474,64.6,31.521,57.608,31.274Zm-15.5-6.23a3.1,3.1,0,1,1-3.1-3.1A3.1,3.1,0,0,1,42.112,25.044Z" fill="none" stroke="#fff" stroke-width="0.5"></path><rect id="Rectangle_32489" data-name="Rectangle 32489" width="3.099" height="3.099" transform="translate(90.151 74.633)" fill="#5e5e5e"></rect><rect id="Rectangle_32490" data-name="Rectangle 32490" width="3.099" height="3.099" transform="translate(90.151 74.633)" fill="none" stroke="#fff" stroke-width="0.5"></rect><rect id="Rectangle_32491" data-name="Rectangle 32491" width="3.099" height="3.099" transform="translate(34.364 90.129)" fill="#5e5e5e"></rect><rect id="Rectangle_32492" data-name="Rectangle 32492" width="3.099" height="3.099" transform="translate(34.364 90.129)" fill="none" stroke="#fff" stroke-width="0.5"></rect><path id="Path_82136" data-name="Path 82136" d="M9.569,32.793a4.649,4.649,0,0,1,4.65-4.649v-3.1a7.748,7.748,0,1,0,0,15.5h12.4v-3.1h-12.4a4.649,4.649,0,0,1-4.65-4.649" fill="#5e5e5e"></path><path id="Path_82137" data-name="Path 82137" d="M9.569,32.793a4.649,4.649,0,0,1,4.65-4.649v-3.1a7.748,7.748,0,1,0,0,15.5h12.4v-3.1h-12.4A4.649,4.649,0,0,1,9.569,32.793Z" fill="none" stroke="#fff" stroke-width="0.5"></path><rect id="Rectangle_32493" data-name="Rectangle 32493" width="3.099" height="3.099" transform="translate(82.403 29.693)" fill="#5e5e5e"></rect><rect id="Rectangle_32494" data-name="Rectangle 32494" width="3.099" height="3.099" transform="translate(82.403 29.693)" fill="none" stroke="#fff" stroke-width="0.5"></rect></g></svg>