<svg xmlns="http://www.w3.org/2000/svg" xmlns:xlink="http://www.w3.org/1999/xlink" id="Group_60768" data-name="Group 60768" width="93.25" height="93.25" viewBox="0 0 93.25 93.25"><defs><clipPath id="clip-path"><rect id="Rectangle_30067" data-name="Rectangle 30067" width="93.25" height="93.25" fill="none"></rect></clipPath></defs><g id="Group_60767" data-name="Group 60767" clip-path="url(#clip-path)"><path id="Path_76828" data-name="Path 76828" d="M88.13.125H19.552a1.362,1.362,0,0,0,0,2.724H88.13A2.274,2.274,0,0,1,90.4,5.12v8.369H2.85V5.12A2.273,2.273,0,0,1,5.12,2.849h7.174a1.362,1.362,0,0,0,0-2.724H5.12A5,5,0,0,0,.125,5.12V88.129a5,5,0,0,0,4.995,5H88.13a5,5,0,0,0,5-5V5.12a5,5,0,0,0-5-4.995m0,90.275H5.12a2.272,2.272,0,0,1-2.27-2.271V16.214H90.4V88.129A2.273,2.273,0,0,1,88.13,90.4" fill="#5e5e5e"></path><path id="Path_76829" data-name="Path 76829" d="M88.13.125H19.552a1.362,1.362,0,0,0,0,2.724H88.13A2.274,2.274,0,0,1,90.4,5.12v8.369H2.85V5.12A2.273,2.273,0,0,1,5.12,2.849h7.174a1.362,1.362,0,0,0,0-2.724H5.12A5,5,0,0,0,.125,5.12V88.129a5,5,0,0,0,4.995,5H88.13a5,5,0,0,0,5-5V5.12A5,5,0,0,0,88.13.125Zm0,90.275H5.12a2.272,2.272,0,0,1-2.27-2.271V16.214H90.4V88.129A2.273,2.273,0,0,1,88.13,90.4Z" fill="none" stroke="#5e5e5e" stroke-width="0.25"></path><path id="Path_76830" data-name="Path 76830" d="M8.974,9.532a1.363,1.363,0,0,0,0-2.725,1.363,1.363,0,0,0,0,2.725" fill="#5e5e5e"></path><path id="Path_76831" data-name="Path 76831" d="M8.974,9.532a1.363,1.363,0,0,0,0-2.725A1.363,1.363,0,0,0,8.974,9.532Z" fill="none" stroke="#5e5e5e" stroke-width="0.25"></path><path id="Path_76832" data-name="Path 76832" d="M16.178,9.532a1.363,1.363,0,0,0,0-2.725,1.363,1.363,0,0,0,0,2.725" fill="#5e5e5e"></path><path id="Path_76833" data-name="Path 76833" d="M16.178,9.532a1.363,1.363,0,0,0,0-2.725A1.363,1.363,0,0,0,16.178,9.532Z" fill="none" stroke="#5e5e5e" stroke-width="0.25"></path><path id="Path_76834" data-name="Path 76834" d="M23.382,6.807a1.363,1.363,0,0,0,0,2.725,1.363,1.363,0,0,0,0-2.725" fill="#5e5e5e"></path><path id="Path_76835" data-name="Path 76835" d="M23.382,6.807a1.363,1.363,0,0,0,0,2.725A1.363,1.363,0,0,0,23.382,6.807Z" fill="none" stroke="#5e5e5e" stroke-width="0.25"></path><path id="Path_76836" data-name="Path 76836" d="M46.6,53.657h0a1.363,1.363,0,0,0,0-2.725,6.7,6.7,0,1,1,5.285-2.569,1.362,1.362,0,0,0,2.143,1.683,9.447,9.447,0,0,0-7.41-15.234C34.156,35.284,34.138,53.151,46.6,53.657Z" fill="#5e5e5e"></path><path id="Path_76837" data-name="Path 76837" d="M46.6,53.657h0a1.363,1.363,0,0,0,0-2.725,6.7,6.7,0,1,1,5.285-2.569,1.362,1.362,0,0,0,2.143,1.683,9.447,9.447,0,0,0-7.41-15.234C34.156,35.284,34.138,53.151,46.6,53.657Z" fill="none" stroke="#5e5e5e" stroke-width="0.25"></path><path id="Path_76838" data-name="Path 76838" d="M25.624,49.153l3.6,1.038A18.442,18.442,0,0,0,30,52.1L28.15,55.459a1.361,1.361,0,0,0,.229,1.622l5.252,5.252a1.362,1.362,0,0,0,1.622.23l3.28-1.812a18.269,18.269,0,0,0,1.9.8L41.5,65.236a1.363,1.363,0,0,0,1.309.985h7.428a1.363,1.363,0,0,0,1.309-.985l1.038-3.6a18.442,18.442,0,0,0,1.914-.779l3.354,1.853a1.362,1.362,0,0,0,1.622-.23l5.252-5.252a1.362,1.362,0,0,0,.229-1.622l-1.811-3.28a18.394,18.394,0,0,0,.8-1.9l3.681-1.061a1.362,1.362,0,0,0,.984-1.309V40.625a1.362,1.362,0,0,0-.984-1.309l-3.6-1.038a18.442,18.442,0,0,0-.779-1.914L65.1,33.011a1.363,1.363,0,0,0-.229-1.623L59.62,26.136A1.362,1.362,0,0,0,58,25.907l-3.28,1.811a18.565,18.565,0,0,0-1.9-.8l-1.062-3.68a1.361,1.361,0,0,0-1.309-.985H43.016a1.361,1.361,0,0,0-1.309.985l-1.038,3.6a18.435,18.435,0,0,0-1.914.778L35.4,25.759a1.362,1.362,0,0,0-1.622.229L28.527,31.24a1.362,1.362,0,0,0-.229,1.622l1.811,3.28a18.488,18.488,0,0,0-.8,1.9l-3.681,1.061a1.362,1.362,0,0,0-.984,1.309v7.428A1.361,1.361,0,0,0,25.624,49.153Zm1.74-7.712,3.383-.975a1.365,1.365,0,0,0,.923-.9,15.554,15.554,0,0,1,1.18-2.792,1.364,1.364,0,0,0,0-1.309l-1.668-3.019,3.8-3.8,3.082,1.7a1.361,1.361,0,0,0,1.292.014,15.619,15.619,0,0,1,2.809-1.141,1.367,1.367,0,0,0,.922-.929l.955-3.313h5.378l.975,3.383a1.363,1.363,0,0,0,.9.923A15.567,15.567,0,0,1,54.09,30.46a1.362,1.362,0,0,0,1.308,0l3.019-1.668,3.8,3.8-1.7,3.082a1.364,1.364,0,0,0-.013,1.292,15.619,15.619,0,0,1,1.141,2.809,1.364,1.364,0,0,0,.928.922l3.313.955v5.378L62.5,48a1.361,1.361,0,0,0-.923.9A15.673,15.673,0,0,1,60.4,51.7a1.364,1.364,0,0,0,0,1.309l1.668,3.02-3.8,3.8-3.083-1.7a1.362,1.362,0,0,0-1.291-.013,15.619,15.619,0,0,1-2.809,1.141,1.363,1.363,0,0,0-.922.929L49.209,63.5H43.832l-.976-3.383a1.359,1.359,0,0,0-.9-.923,15.6,15.6,0,0,1-2.792-1.181,1.362,1.362,0,0,0-1.309.005l-3.019,1.668-3.8-3.8,1.7-3.083a1.364,1.364,0,0,0,.013-1.292A15.64,15.64,0,0,1,31.6,48.7a1.362,1.362,0,0,0-.928-.922l-3.313-.955Z" fill="#5e5e5e"></path><path id="Path_76839" data-name="Path 76839" d="M25.624,49.153l3.6,1.038A18.442,18.442,0,0,0,30,52.1L28.15,55.459a1.361,1.361,0,0,0,.229,1.622l5.252,5.252a1.362,1.362,0,0,0,1.622.23l3.28-1.812a18.269,18.269,0,0,0,1.9.8L41.5,65.236a1.363,1.363,0,0,0,1.309.985h7.428a1.363,1.363,0,0,0,1.309-.985l1.038-3.6a18.442,18.442,0,0,0,1.914-.779l3.354,1.853a1.362,1.362,0,0,0,1.622-.23l5.252-5.252a1.362,1.362,0,0,0,.229-1.622l-1.811-3.28a18.394,18.394,0,0,0,.8-1.9l3.681-1.061a1.362,1.362,0,0,0,.984-1.309V40.625a1.362,1.362,0,0,0-.984-1.309l-3.6-1.038a18.442,18.442,0,0,0-.779-1.914L65.1,33.011a1.363,1.363,0,0,0-.229-1.623L59.62,26.136A1.362,1.362,0,0,0,58,25.907l-3.28,1.811a18.565,18.565,0,0,0-1.9-.8l-1.062-3.68a1.361,1.361,0,0,0-1.309-.985H43.016a1.361,1.361,0,0,0-1.309.985l-1.038,3.6a18.435,18.435,0,0,0-1.914.778L35.4,25.759a1.362,1.362,0,0,0-1.622.229L28.527,31.24a1.362,1.362,0,0,0-.229,1.622l1.811,3.28a18.488,18.488,0,0,0-.8,1.9l-3.681,1.061a1.362,1.362,0,0,0-.984,1.309v7.428A1.361,1.361,0,0,0,25.624,49.153Zm1.74-7.712,3.383-.975a1.365,1.365,0,0,0,.923-.9,15.554,15.554,0,0,1,1.18-2.792,1.364,1.364,0,0,0,0-1.309l-1.668-3.019,3.8-3.8,3.082,1.7a1.361,1.361,0,0,0,1.292.014,15.619,15.619,0,0,1,2.809-1.141,1.367,1.367,0,0,0,.922-.929l.955-3.313h5.378l.975,3.383a1.363,1.363,0,0,0,.9.923A15.567,15.567,0,0,1,54.09,30.46a1.362,1.362,0,0,0,1.308,0l3.019-1.668,3.8,3.8-1.7,3.082a1.364,1.364,0,0,0-.013,1.292,15.619,15.619,0,0,1,1.141,2.809,1.364,1.364,0,0,0,.928.922l3.313.955v5.378L62.5,48a1.361,1.361,0,0,0-.923.9A15.673,15.673,0,0,1,60.4,51.7a1.364,1.364,0,0,0,0,1.309l1.668,3.02-3.8,3.8-3.083-1.7a1.362,1.362,0,0,0-1.291-.013,15.619,15.619,0,0,1-2.809,1.141,1.363,1.363,0,0,0-.922.929L49.209,63.5H43.832l-.976-3.383a1.359,1.359,0,0,0-.9-.923,15.6,15.6,0,0,1-2.792-1.181,1.362,1.362,0,0,0-1.309.005l-3.019,1.668-3.8-3.8,1.7-3.083a1.364,1.364,0,0,0,.013-1.292A15.64,15.64,0,0,1,31.6,48.7a1.362,1.362,0,0,0-.928-.922l-3.313-.955Z" fill="none" stroke="#5e5e5e" stroke-width="0.25"></path><path id="Path_76840" data-name="Path 76840" d="M78.715,71.436H14.535c-7.9.292-7.932,11.646,0,11.952h64.18c7.9-.292,7.931-11.647,0-11.952M61.974,80.663l5.2-6.5h7.262l-5.2,6.5Zm-10.75,0,5.2-6.5h7.262l-5.2,6.5Zm-10.751,0,5.2-6.5h7.261l-5.2,6.5Zm-10.75,0,5.2-6.5h7.262l-5.2,6.5Zm-10.75,0,5.2-6.5h7.261l-5.2,6.5Zm-7.689-3.251a3.254,3.254,0,0,1,3.251-3.251h6.15l-5.2,6.5h-.949A3.255,3.255,0,0,1,11.284,77.412Zm67.431,3.251H72.724l5.2-6.5h.789a3.251,3.251,0,0,1,0,6.5Z" fill="#5e5e5e"></path><path id="Path_76841" data-name="Path 76841" d="M78.715,71.436H14.535c-7.9.292-7.932,11.646,0,11.952h64.18C86.614,83.1,86.646,71.741,78.715,71.436ZM61.974,80.663l5.2-6.5h7.262l-5.2,6.5Zm-10.75,0,5.2-6.5h7.262l-5.2,6.5Zm-10.751,0,5.2-6.5h7.261l-5.2,6.5Zm-10.75,0,5.2-6.5h7.262l-5.2,6.5Zm-10.75,0,5.2-6.5h7.261l-5.2,6.5Zm-7.689-3.251a3.254,3.254,0,0,1,3.251-3.251h6.15l-5.2,6.5h-.949A3.255,3.255,0,0,1,11.284,77.412Zm67.431,3.251H72.724l5.2-6.5h.789a3.251,3.251,0,0,1,0,6.5Z" fill="none" stroke="#5e5e5e" stroke-width="0.25"></path></g></svg>