<svg xmlns="http://www.w3.org/2000/svg" xmlns:xlink="http://www.w3.org/1999/xlink" id="Group_60782" data-name="Group 60782" width="81.048" height="93" viewBox="0 0 81.048 93"><defs><clipPath id="clip-path"><rect id="Rectangle_30074" data-name="Rectangle 30074" width="81.048" height="93" fill="none"></rect></clipPath></defs><g id="Group_60781" data-name="Group 60781" clip-path="url(#clip-path)"><path id="Path_76903" data-name="Path 76903" d="M77.718,55.515h-3.21V19.225a1.592,1.592,0,0,0-.475-1.184L56.145.457A1.587,1.587,0,0,0,54.971,0H8.137a1.6,1.6,0,0,0-1.6,1.6V55.515H3.33A3.333,3.333,0,0,0,0,58.845V80.011a3.333,3.333,0,0,0,3.33,3.33H6.541V91.4a1.6,1.6,0,0,0,1.6,1.6H72.912a1.6,1.6,0,0,0,1.6-1.6V83.341h3.21a3.337,3.337,0,0,0,3.33-3.33V58.845a3.333,3.333,0,0,0-3.33-3.33M56.62,5.4,69.01,17.582H56.62ZM9.733,3.193h43.7V19.181a1.6,1.6,0,0,0,1.6,1.6H71.315V55.515H9.733ZM71.315,89.807H9.732V83.341H71.315Zm6.538-9.793a.136.136,0,0,1-.135.135H3.33a.136.136,0,0,1-.135-.135V58.847a.135.135,0,0,1,.135-.134H77.718a.135.135,0,0,1,.135.134Z" fill="#5e5e5e"></path><path id="Path_76904" data-name="Path 76904" d="M60.633,37.045,54.362,30.47a1.6,1.6,0,0,0-2.311,2.206l5.218,5.472L52.051,43.62a1.6,1.6,0,1,0,2.311,2.2l6.271-6.575a1.6,1.6,0,0,0,0-2.2" fill="#5e5e5e"></path><path id="Path_76905" data-name="Path 76905" d="M28.944,30.42a1.6,1.6,0,0,0-2.258.053l-6.272,6.574a1.6,1.6,0,0,0,0,2.2l6.272,6.575a1.6,1.6,0,0,0,1.155.493,1.616,1.616,0,0,0,1.1-.438A1.6,1.6,0,0,0,29,43.622L23.778,38.15,29,32.678a1.6,1.6,0,0,0-.053-2.258" fill="#5e5e5e"></path><path id="Path_76906" data-name="Path 76906" d="M43.814,28.639a1.6,1.6,0,0,0-2.031.987l-5.536,16a1.6,1.6,0,0,0,.987,2.031,1.644,1.644,0,0,0,.523.087,1.6,1.6,0,0,0,1.509-1.073l5.535-16a1.6,1.6,0,0,0-.987-2.031" fill="#5e5e5e"></path><path id="Path_76907" data-name="Path 76907" d="M47.658,62.28a1.6,1.6,0,0,0-2.111.8L41.706,71.63l-3.841-8.548a1.6,1.6,0,1,0-2.913,1.309l5.3,11.787a1.6,1.6,0,0,0,2.912,0l5.3-11.787a1.6,1.6,0,0,0-.8-2.111" fill="#5e5e5e"></path><path id="Path_76908" data-name="Path 76908" d="M31.839,62.2a1.6,1.6,0,0,0-1.794.718L26.412,68.97l-3.633-6.054a1.6,1.6,0,0,0-2.965.82V75.524a1.6,1.6,0,0,0,3.192,0V69.5l2.037,3.393a1.6,1.6,0,0,0,2.738,0L29.818,69.5v6.023a1.6,1.6,0,1,0,3.192,0V63.736A1.6,1.6,0,0,0,31.839,62.2" fill="#5e5e5e"></path><path id="Path_76909" data-name="Path 76909" d="M56.594,61.744H52.3c-.017,0-.034,0-.052,0a1.6,1.6,0,0,0-1.6,1.6V75.125a1.6,1.6,0,1,0,3.192,0V71.02h2.752a4.638,4.638,0,1,0,0-9.276m0,6.084H53.842V64.936h2.752a1.446,1.446,0,0,1,0,2.892" fill="#5e5e5e"></path></g></svg>