<svg xmlns="http://www.w3.org/2000/svg" id="Group_104851" data-name="Group 104851" width="80" height="80" viewBox="0 0 80 80"><path id="Path_135185" data-name="Path 135185" d="M74.885,0H5.115A5.121,5.121,0,0,0,0,5.115v69.77A5.121,5.121,0,0,0,5.115,80h69.77A5.121,5.121,0,0,0,80,74.885V5.115A5.121,5.121,0,0,0,74.885,0Zm2.934,74.885a2.937,2.937,0,0,1-2.934,2.934H5.115a2.937,2.937,0,0,1-2.934-2.934V12.914H77.819Zm0-64.151H2.181V5.115A2.937,2.937,0,0,1,5.115,2.181h69.77a2.937,2.937,0,0,1,2.934,2.934Z" fill="#5e5e5e"></path><path id="Path_135186" data-name="Path 135186" d="M23.356,33.362a3.832,3.832,0,0,0-1.889,3.313V54.062a3.871,3.871,0,0,0,1.879,3.306L38.1,66.06a3.721,3.721,0,0,0,3.795,0l14.758-8.7a3.868,3.868,0,0,0,1.876-3.3V36.676a3.829,3.829,0,0,0-1.878-3.3l-14.77-8.723a3.816,3.816,0,0,0-3.78.01ZM38.91,64.006,24.454,55.49a1.665,1.665,0,0,1-.806-1.429V37.413L38.1,45.924a3.892,3.892,0,0,0,.64.278l.173.057Zm17.442-9.944a1.667,1.667,0,0,1-.8,1.427l0,0L41.09,64.006V46.257l.176-.056a3.651,3.651,0,0,0,.637-.271l14.449-8.517ZM40,26.332h.007a1.57,1.57,0,0,1,.775.2L55.642,35.3,40.784,44.056a1.5,1.5,0,0,1-1.573,0L24.356,35.3,39.2,26.546A1.612,1.612,0,0,1,40,26.332Z" fill="#5e5e5e"></path><path id="Path_135187" data-name="Path 135187" d="M22.306,19.874a2.434,2.434,0,0,0-2.432-2.432H10.483a3.778,3.778,0,0,0-3.774,3.774v9.392A2.435,2.435,0,0,0,9.14,33.04h2.684a2.435,2.435,0,0,0,2.432-2.432V24.989h5.618a2.434,2.434,0,0,0,2.432-2.431Zm-2.18,2.936H13.165a1.09,1.09,0,0,0-1.09,1.089V30.86H8.889V21.216a1.6,1.6,0,0,1,1.594-1.593h9.643Z" fill="#5e5e5e"></path><path id="Path_135188" data-name="Path 135188" d="M22.306,68.176a2.434,2.434,0,0,0-2.432-2.432H14.256V60.126a2.434,2.434,0,0,0-2.432-2.432H9.14a2.434,2.434,0,0,0-2.431,2.432v9.391a3.778,3.778,0,0,0,3.774,3.774h9.391a2.434,2.434,0,0,0,2.432-2.431Zm-2.18,2.935H10.483a1.6,1.6,0,0,1-1.594-1.594V59.874h3.186v6.961a1.091,1.091,0,0,0,1.09,1.09h6.961Z" fill="#5e5e5e"></path><path id="Path_135189" data-name="Path 135189" d="M68.176,33.04H70.86a2.435,2.435,0,0,0,2.431-2.432V21.216a3.778,3.778,0,0,0-3.774-3.774H60.126a2.434,2.434,0,0,0-2.432,2.432v2.684a2.434,2.434,0,0,0,2.432,2.431h5.618v5.619A2.435,2.435,0,0,0,68.176,33.04Zm-8.3-10.23V19.623h9.643a1.6,1.6,0,0,1,1.594,1.593V30.86H67.925V23.9a1.09,1.09,0,0,0-1.09-1.089Z" fill="#5e5e5e"></path><path id="Path_135190" data-name="Path 135190" d="M57.694,70.86a2.434,2.434,0,0,0,2.432,2.431h9.391a3.778,3.778,0,0,0,3.774-3.774V60.126a2.434,2.434,0,0,0-2.431-2.432H68.176a2.434,2.434,0,0,0-2.432,2.432v5.618H60.126a2.434,2.434,0,0,0-2.432,2.432Zm2.18-2.935h6.961a1.091,1.091,0,0,0,1.09-1.09V59.874h3.186v9.643a1.6,1.6,0,0,1-1.594,1.594H59.874Z" fill="#5e5e5e"></path><path id="Path_135191" data-name="Path 135191" d="M7.8,5.367H6.457a1.09,1.09,0,0,0,0,2.18H7.8a1.09,1.09,0,1,0,0-2.18Z" fill="#5e5e5e"></path><path id="Path_135192" data-name="Path 135192" d="M14.508,5.367H13.165a1.09,1.09,0,1,0,0,2.18h1.343a1.09,1.09,0,0,0,0-2.18Z" fill="#5e5e5e"></path><path id="Path_135193" data-name="Path 135193" d="M19.874,7.547h1.342a1.09,1.09,0,1,0,0-2.18H19.874a1.09,1.09,0,1,0,0,2.18Z" fill="#5e5e5e"></path><path id="Path_135194" data-name="Path 135194" d="M73.543,5.367H65.492a1.09,1.09,0,0,0,0,2.18h8.051a1.09,1.09,0,1,0,0-2.18Z" fill="#5e5e5e"></path></svg>