<svg xmlns="http://www.w3.org/2000/svg" xmlns:xlink="http://www.w3.org/1999/xlink" id="Group_60780" data-name="Group 60780" width="94.773" height="93.25" viewBox="0 0 94.773 93.25"><defs><clipPath id="clip-path"><rect id="Rectangle_30073" data-name="Rectangle 30073" width="94.773" height="93.25" fill="none"></rect></clipPath></defs><g id="Group_60779" data-name="Group 60779" clip-path="url(#clip-path)"><path id="Path_76901" data-name="Path 76901" d="M47.449,60.256a13.515,13.515,0,1,1,0-27.025c1.077,0,2.391.265,2.3,1.645-.083,1.317-1.277,1.4-2.3,1.4A10.467,10.467,0,1,0,58.185,46.744,10.141,10.141,0,0,0,57,41.962a1.524,1.524,0,1,1,2.7-1.423,13.334,13.334,0,0,1,1.536,6.2A13.665,13.665,0,0,1,47.449,60.256Zm7.27-21.64a1.517,1.517,0,0,1-.89-.289,11.078,11.078,0,0,0-1.273-.79,1.524,1.524,0,0,1,1.425-2.695,14.013,14.013,0,0,1,1.632,1.013A1.537,1.537,0,0,1,54.719,38.616ZM88.911,22.692l-.054-6.619a1.525,1.525,0,0,0-1.525-1.511h-.013A1.525,1.525,0,0,0,85.807,16.1l.016,2.008C76.67,7.208,62.009.125,47.946.125A46.652,46.652,0,0,0,11.022,17.992a1.524,1.524,0,0,0,2.4,1.883,43.616,43.616,0,0,1,34.526-16.7c13.671,0,27.948,7.14,36.447,18.007H80.209a1.525,1.525,0,0,0,0,3.05h7.177A1.675,1.675,0,0,0,88.911,22.692Zm2.64,6.984a1.525,1.525,0,0,0-2.841,1.107A42.325,42.325,0,0,1,91.6,46.215c0,16.717-11.646,32.77-28.239,39.682L64.5,84.159a1.525,1.525,0,0,0-2.553-1.667l-3.636,5.563a1.545,1.545,0,0,0,.66,2.229l6.126,2.7a1.525,1.525,0,0,0,1.23-2.79l-2.606-1.149A51.415,51.415,0,0,0,84.428,73.9a43.547,43.547,0,0,0,10.22-27.681,45.367,45.367,0,0,0-3.1-16.539Zm-41.8,59.543q-.9.036-1.809.036c-24.07,0-43.652-19.307-43.652-43.04,0-4.2,1.765-9.45,3.446-13.883l1.345,2.975a1.525,1.525,0,0,0,2.779-1.254L9.022,27.764a1.548,1.548,0,0,0-2.072-.736l-5.983,3A1.524,1.524,0,1,0,2.332,32.75l2.455-1.23C3.049,36.132,1.246,41.6,1.246,46.214c0,25.413,20.95,46.089,46.7,46.089q.971,0,1.929-.039a1.524,1.524,0,1,0-.121-3.045C49.156,89.243,50.6,89.187,49.755,89.219Zm.071-12.111c-1.5,0-5.932.017-6.623-.277a3.6,3.6,0,0,1-2.158-3.12V70.674a24.767,24.767,0,0,1-6.526-2.757l-2.135,2.13a3.628,3.628,0,0,1-4.91-.129c-.628-.6-3.074-3.1-3.639-3.756a3.632,3.632,0,0,1,.138-4.89l2.148-2.143a24.012,24.012,0,0,1-2.694-6.615H20.421a3.594,3.594,0,0,1-3.526-3.4c-.048-.868-.025-4.371,0-5.243a3.587,3.587,0,0,1,3.4-3.523h3.048A24.61,24.61,0,0,1,26.1,33.845l-2.131-2.126a3.614,3.614,0,0,1,.129-4.908c.6-.627,3.106-3.068,3.764-3.631a3.647,3.647,0,0,1,4.892.139l2.152,2.146a24.116,24.116,0,0,1,6.634-2.69v-3.12a3.6,3.6,0,0,1,3.4-3.523c.87-.048,4.381-.027,5.255,0a3.51,3.51,0,0,1,3.4,3.523v3.037a24.733,24.733,0,0,1,6.526,2.757l2.135-2.13a3.625,3.625,0,0,1,4.91.129c.629.6,3.074,3.1,3.639,3.755a3.632,3.632,0,0,1-.14,4.891l-2.147,2.142a24,24,0,0,1,2.694,6.615h3.006a3.631,3.631,0,0,1,3.64,3.208c.091.9.038,4.536.012,5.433a3.585,3.585,0,0,1-3.4,3.522H71.429a24.678,24.678,0,0,1-2.761,6.507l2.13,2.125a3.614,3.614,0,0,1-.129,4.909c-.6.626-3.1,3.067-3.764,3.63a3.644,3.644,0,0,1-4.892-.138L59.862,67.9a24.126,24.126,0,0,1-6.635,2.691v2.995A3.576,3.576,0,0,1,49.826,77.108ZM44.093,73.59c.033.155.142.469.477.469h5.136c.156-.033.472-.141.472-.474V69.341a1.524,1.524,0,0,1,1.275-1.5,20.871,20.871,0,0,0,7.8-3.147,1.527,1.527,0,0,1,1.907.2l3,3a.578.578,0,0,0,.718.009l3.653-3.523a.556.556,0,0,0,0-.68l-2.892-2.886a1.524,1.524,0,0,1-.18-1.941,21.768,21.768,0,0,0,3.268-7.69,1.525,1.525,0,0,1,1.493-1.213h4.134c.156-.032.472-.14.472-.472V44.364a.545.545,0,0,0-.6-.465H69.971a1.525,1.525,0,0,1-1.5-1.274,20.751,20.751,0,0,0-3.152-7.783,1.524,1.524,0,0,1,.2-1.911l3-3a.57.57,0,0,0,.009-.707L65,25.582a.571.571,0,0,0-.691,0l-2.893,2.887a1.522,1.522,0,0,1-1.936.179,21.913,21.913,0,0,0-7.71-3.262A1.523,1.523,0,0,1,50.552,23.9V19.652a.44.44,0,0,0-.352-.473H45.064c-.156.033-.472.141-.472.473v4.37a1.524,1.524,0,0,1-1.275,1.5,20.875,20.875,0,0,0-7.8,3.146,1.522,1.522,0,0,1-1.906-.2l-3-3a.581.581,0,0,0-.718-.01l-3.653,3.524a.556.556,0,0,0,0,.68l2.892,2.886A1.525,1.525,0,0,1,29.31,34.5a21.8,21.8,0,0,0-3.269,7.689A1.524,1.524,0,0,1,24.549,43.4H20.416c-.156.033-.472.141-.472.474V49c.033.154.142.468.477.468h4.254a1.524,1.524,0,0,1,1.5,1.274,20.785,20.785,0,0,0,3.152,7.784,1.525,1.525,0,0,1-.2,1.912l-3,3a.574.574,0,0,0-.009.709l3.531,3.644a.566.566,0,0,0,.691,0l2.893-2.886a1.523,1.523,0,0,1,1.937-.18,21.874,21.874,0,0,0,7.709,3.263A1.524,1.524,0,0,1,44.1,69.468V73.59Z" fill="#5e5e5e"></path><path id="Path_76902" data-name="Path 76902" d="M47.449,60.256a13.515,13.515,0,1,1,0-27.025c1.077,0,2.391.265,2.3,1.645-.083,1.317-1.277,1.4-2.3,1.4A10.467,10.467,0,1,0,58.185,46.744,10.141,10.141,0,0,0,57,41.962a1.524,1.524,0,1,1,2.7-1.423,13.334,13.334,0,0,1,1.536,6.2A13.665,13.665,0,0,1,47.449,60.256Zm7.27-21.64a1.517,1.517,0,0,1-.89-.289,11.078,11.078,0,0,0-1.273-.79,1.524,1.524,0,0,1,1.425-2.695,14.013,14.013,0,0,1,1.632,1.013A1.537,1.537,0,0,1,54.719,38.616ZM88.911,22.692l-.054-6.619a1.525,1.525,0,0,0-1.525-1.511h-.013A1.525,1.525,0,0,0,85.807,16.1l.016,2.008C76.67,7.208,62.009.125,47.946.125A46.652,46.652,0,0,0,11.022,17.992a1.524,1.524,0,0,0,2.4,1.883,43.616,43.616,0,0,1,34.526-16.7c13.671,0,27.948,7.14,36.447,18.007H80.209a1.525,1.525,0,0,0,0,3.05h7.177A1.675,1.675,0,0,0,88.911,22.692Zm2.64,6.984a1.525,1.525,0,0,0-2.841,1.107A42.325,42.325,0,0,1,91.6,46.215c0,16.717-11.646,32.77-28.239,39.682L64.5,84.159a1.525,1.525,0,0,0-2.553-1.667l-3.636,5.563a1.545,1.545,0,0,0,.66,2.229l6.126,2.7a1.525,1.525,0,0,0,1.23-2.79l-2.606-1.149A51.415,51.415,0,0,0,84.428,73.9a43.547,43.547,0,0,0,10.22-27.681,45.367,45.367,0,0,0-3.1-16.539Zm-41.8,59.543q-.9.036-1.809.036c-24.07,0-43.652-19.307-43.652-43.04,0-4.2,1.765-9.45,3.446-13.883l1.345,2.975a1.525,1.525,0,0,0,2.779-1.254L9.022,27.764a1.548,1.548,0,0,0-2.072-.736l-5.983,3A1.524,1.524,0,1,0,2.332,32.75l2.455-1.23C3.049,36.132,1.246,41.6,1.246,46.214c0,25.413,20.95,46.089,46.7,46.089q.971,0,1.929-.039a1.524,1.524,0,1,0-.121-3.045C49.156,89.243,50.6,89.187,49.755,89.219Zm.071-12.111c-1.5,0-5.932.017-6.623-.277a3.6,3.6,0,0,1-2.158-3.12V70.674a24.767,24.767,0,0,1-6.526-2.757l-2.135,2.13a3.628,3.628,0,0,1-4.91-.129c-.628-.6-3.074-3.1-3.639-3.756a3.632,3.632,0,0,1,.138-4.89l2.148-2.143a24.012,24.012,0,0,1-2.694-6.615H20.421a3.594,3.594,0,0,1-3.526-3.4c-.048-.868-.025-4.371,0-5.243a3.587,3.587,0,0,1,3.4-3.523h3.048A24.61,24.61,0,0,1,26.1,33.845l-2.131-2.126a3.614,3.614,0,0,1,.129-4.908c.6-.627,3.106-3.068,3.764-3.631a3.647,3.647,0,0,1,4.892.139l2.152,2.146a24.116,24.116,0,0,1,6.634-2.69v-3.12a3.6,3.6,0,0,1,3.4-3.523c.87-.048,4.381-.027,5.255,0a3.51,3.51,0,0,1,3.4,3.523v3.037a24.733,24.733,0,0,1,6.526,2.757l2.135-2.13a3.625,3.625,0,0,1,4.91.129c.629.6,3.074,3.1,3.639,3.755a3.632,3.632,0,0,1-.14,4.891l-2.147,2.142a24,24,0,0,1,2.694,6.615h3.006a3.631,3.631,0,0,1,3.64,3.208c.091.9.038,4.536.012,5.433a3.585,3.585,0,0,1-3.4,3.522H71.429a24.678,24.678,0,0,1-2.761,6.507l2.13,2.125a3.614,3.614,0,0,1-.129,4.909c-.6.626-3.1,3.067-3.764,3.63a3.644,3.644,0,0,1-4.892-.138L59.862,67.9a24.126,24.126,0,0,1-6.635,2.691v2.995A3.576,3.576,0,0,1,49.826,77.108ZM44.093,73.59c.033.155.142.469.477.469h5.136c.156-.033.472-.141.472-.474V69.341a1.524,1.524,0,0,1,1.275-1.5,20.871,20.871,0,0,0,7.8-3.147,1.527,1.527,0,0,1,1.907.2l3,3a.578.578,0,0,0,.718.009l3.653-3.523a.556.556,0,0,0,0-.68l-2.892-2.886a1.524,1.524,0,0,1-.18-1.941,21.768,21.768,0,0,0,3.268-7.69,1.525,1.525,0,0,1,1.493-1.213h4.134c.156-.032.472-.14.472-.472V44.364a.545.545,0,0,0-.6-.465H69.971a1.525,1.525,0,0,1-1.5-1.274,20.751,20.751,0,0,0-3.152-7.783,1.524,1.524,0,0,1,.2-1.911l3-3a.57.57,0,0,0,.009-.707L65,25.582a.571.571,0,0,0-.691,0l-2.893,2.887a1.522,1.522,0,0,1-1.936.179,21.913,21.913,0,0,0-7.71-3.262A1.523,1.523,0,0,1,50.552,23.9V19.652a.44.44,0,0,0-.352-.473H45.064c-.156.033-.472.141-.472.473v4.37a1.524,1.524,0,0,1-1.275,1.5,20.875,20.875,0,0,0-7.8,3.146,1.522,1.522,0,0,1-1.906-.2l-3-3a.581.581,0,0,0-.718-.01l-3.653,3.524a.556.556,0,0,0,0,.68l2.892,2.886A1.525,1.525,0,0,1,29.31,34.5a21.8,21.8,0,0,0-3.269,7.689A1.524,1.524,0,0,1,24.549,43.4H20.416c-.156.033-.472.141-.472.474V49c.033.154.142.468.477.468h4.254a1.524,1.524,0,0,1,1.5,1.274,20.785,20.785,0,0,0,3.152,7.784,1.525,1.525,0,0,1-.2,1.912l-3,3a.574.574,0,0,0-.009.709l3.531,3.644a.566.566,0,0,0,.691,0l2.893-2.886a1.523,1.523,0,0,1,1.937-.18,21.874,21.874,0,0,0,7.709,3.263A1.524,1.524,0,0,1,44.1,69.468V73.59Z" fill="none" stroke="#5e5e5e" stroke-width="0.25"></path></g></svg>