<svg xmlns="http://www.w3.org/2000/svg" id="Layer_1" data-name="Layer 1" width="200" height="200" viewBox="0 0 200 200"><defs><style>      .cls-1 {        fill: #223f72;      }    </style></defs><g id="Layer_2" data-name="Layer 2"><g id="Layer_6" data-name="Layer 6"><path class="cls-1" d="M104.96,195.34h-9.92c-.31-.16-.65-.28-.99-.34-2.72-.1-5.43-.35-8.12-.76-5.31-.76-10.54-1.99-15.64-3.68-13.84-4.53-26.44-12.19-36.84-22.38-2.38-2.36-4.58-4.89-6.8-7.44-4.32-5.06-8.04-10.61-11.09-16.53-2.9-5.48-5.23-11.25-6.96-17.2-2.04-6.79-3.26-13.8-3.62-20.88-.06-.41-.18-.8-.34-1.18v-9.92c.16-.31,.28-.65,.34-.99,.1-2.72,.35-5.43,.76-8.12,.77-5.31,2.01-10.55,3.71-15.64,4.54-13.83,12.19-26.43,22.38-36.83,2.36-2.38,4.9-4.58,7.44-6.8,5.07-4.32,10.61-8.04,16.53-11.09,5.48-2.9,11.25-5.23,17.2-6.96,6.79-2.04,13.81-3.26,20.89-3.62,.39-.07,.78-.18,1.14-.34h9.92c.31,.16,.65,.28,.99,.34,2.72,.1,5.43,.35,8.12,.76,5.33,.77,10.57,2.01,15.68,3.71,13.83,4.54,26.43,12.19,36.83,22.38,2.38,2.36,4.58,4.9,6.8,7.44,4.32,5.06,8.04,10.61,11.09,16.53,2.9,5.48,5.23,11.25,6.96,17.2,2.03,6.79,3.23,13.81,3.58,20.89,.06,.41,.18,.8,.34,1.18v9.92c-.16,.31-.27,.65-.34,.99-.16,3.46-.56,6.91-1.19,10.31-2.03,12.12-6.44,23.72-12.97,34.14-3.56,5.77-7.76,11.13-12.52,15.96-2.4,2.43-4.98,4.7-7.57,6.93-5.06,4.32-10.61,8.04-16.53,11.09-5.48,2.9-11.25,5.23-17.2,6.96-6.78,2.04-13.78,3.25-20.85,3.62-.42,.06-.83,.18-1.22,.34ZM12.28,93.45c-.12,54.9,39.13,94.17,87.09,94.27,24.41,.07,45.48-8.52,62.72-25.76,16.87-16.87,25.48-37.5,25.63-61.41,.14-24.41-8.52-45.48-25.77-62.71-16.95-16.89-37.63-25.48-61.61-25.56-24.29-.1-45.2,8.56-62.37,25.66-17.17,17.1-25.45,37.99-25.68,55.51Z"></path><path class="cls-1" d="M99.63,87.93l7.58-1.53v8.14c1.49-.23,2.83-.5,4.18-.63,2.78-.26,5.34,1.59,6.38,4.48,.92,2.66,.87,5.56-.14,8.19-1.25,3.38-3.87,5.13-7.31,5.55-2.65,.29-5.34,.11-7.93-.51-.11,0-.21-.14-.45-.31v-18.94c.02-.51,0-1.02-.05-1.53-.13-1.15-.56-2.09-1.85-2.33-.12-.03-.23-.09-.33-.16,0,0-.02-.11-.08-.43Zm7.45,7.92c-.09,.63-.14,1.26-.16,1.9,.06,2.29,.17,4.58,.23,6.86,.04,1.66,0,3.3,.05,4.96,0,.48,.09,.97,.14,1.41,2.61,.59,3.46-.42,4.46-2.07,.15-.28,.28-.57,.39-.87,.84-2.4,1.09-4.97,.72-7.49-.13-1.2-.56-2.35-1.26-3.34-.57-.94-1.61-1.49-2.71-1.46-.56-.02-1.12,.04-1.87,.09Z"></path><path class="cls-1" d="M69.57,87.03v6.76l-.85,.41-.76-1.73c-1.06-2.54-3.05-4.17-5.82-3.98-1.19,.08-2.39,0-3.64,0-.43,3.4-.55,6.83-.37,10.25,.5,0,.92,.05,1.34,.09,2.23,.21,3.87-.47,4.41-2.88,.05-.24,.37-.42,.62-.68,.48,1.33,.56,6.24,.15,8.5-.29-.22-.54-.48-.76-.76-1.38-2.84-2.34-3.34-5.62-2.78-.47,1.37-.2,2.83-.18,4.26,0,.94,.15,1.88,.25,2.82,.05,.5,.14,1,.23,1.53,.13,1.11,1.02,1.98,2.14,2.1,.47,.08,.93,.21,1.82,.43-.63,.29-.86,.5-1.1,.5h-12c-.16,0-.32-.13-.7-.29,.25-.19,.52-.35,.81-.48,1.95-.5,2.55-1.14,2.77-3.05,.42-4.7,.54-9.43,.34-14.14,0-.82-.21-1.63-.26-2.45-.16-2.4-.56-2.93-2.81-3.63-.21-.07-.4-.18-1.11-.48,.27-.13,.55-.23,.84-.3h20.27Z"></path><path class="cls-1" d="M85.09,102.96c.15,2.76-.98,5.43-3.05,7.25-.93,.87-2.08,1.46-3.33,1.72-2.8,.55-5.51,.53-8-1.21-.99-.68-1.78-1.62-2.29-2.72-1.68-3.68-1.7-7.35,.63-10.8,.59-.89,1.37-1.64,2.29-2.2,3-1.94,6.85-2,9.92-.17,2.52,1.43,3.52,3.81,3.86,6.6,.02,.51,.02,1.01-.02,1.52Zm-8.57,8.48c1.3-.24,2.31-1.25,2.57-2.54,.99-3.62,.99-7.43,0-11.05-.3-1.31-1.13-2.44-2.29-3.12-2.07,0-2.82,.43-3.4,2.29-.3,.96-.48,1.95-.55,2.96-.09,1.71-.09,3.43,0,5.14,.1,1.13,.3,2.25,.6,3.34,.27,1.55,1.51,2.76,3.07,2.98Z"></path><path class="cls-1" d="M135.93,108.67c-1.28,2.3-3.74,3.68-6.37,3.58-1.65,.14-3.3-.17-4.8-.88-2.76-1.44-4.52-4.27-4.58-7.38-.19-2.29,.34-4.58,1.53-6.54,2.34-3.9,8.5-5.1,11.82-2.44,2.17,1.74,2.81,4.06,2.73,6.86-.58,0-1.06,.1-1.53,.1h-7.8c-.55,0-1.17-.19-1.62,.62,.12,1,.32,1.99,.61,2.96,.37,.94,.89,1.81,1.53,2.59,.71,.82,1.68,1.36,2.75,1.53,.97,.29,2,.29,2.97,0,.87-.35,1.82-.66,2.76-.98Zm-4.8-7.91c-.09-1.17-.13-2.1-.24-3.05-.06-.44-.17-.86-.34-1.27-.15-.41-.37-.8-.65-1.14-.46-.71-1.4-.91-2.11-.45-.13,.09-.25,.19-.35,.32-1.4,1.46-2.05,3.48-1.75,5.48,0,.05,.08,.08,.07,.07l5.38,.03Z"></path><path class="cls-1" d="M137.89,111.11v-5.1c.36,.19,.63,.25,.76,.42,.22,.31,.41,.64,.54,.99,.7,1.96,2.46,3.35,4.53,3.57,1.68,.02,3.07-1.33,3.09-3.01,0-.01,0-.03,0-.04-.08-1.33-.96-2.1-2.13-2.61-.81-.36-1.63-.68-2.45-1.02-.34-.15-.69-.32-1.03-.48-1.95-.93-3.05-2.42-3.01-4.64,.01-2.16,1.38-4.09,3.42-4.81,1.62-.76,3.44-.97,5.19-.6,1.09,.27,2.23,.35,3.42,.53,.23,1.68,.76,3.22,.16,4.89-.89-.37-.9-1.1-1.16-1.62-.43-.93-1.08-1.73-1.91-2.33-1.2-.97-2.96-.79-3.94,.42-.2,.24-.35,.52-.46,.81-.39,.9-.16,1.94,.56,2.6,.55,.53,1.17,.96,1.86,1.29,1.12,.57,2.34,.96,3.46,1.53,2.51,1.25,3.53,4.3,2.28,6.8-.11,.23-.25,.45-.39,.66-1.1,1.67-2.95,2.7-4.95,2.75-2.66,.39-5.38,.05-7.86-.99Z"></path><path class="cls-1" d="M85.23,111.27c2.17-.37,2.67-1.62,2.62-3.36-.08-2.98,0-5.97,0-8.95,0-1.67-.39-3.05-2.36-3.47,2.43-1.02,4.97-1.21,7.63-1.86v3.78c3.05-3.87,4.72-4.58,7.34-3.16-.56,1.45-1.14,2.91-1.74,4.45-1.82-.76-3.66-1.38-5.58,.23,.11,3.77-.41,7.63,.45,11.49l2.78,.94c-1.27,.84-2.53,.34-3.69,.43-1.2,.09-2.41,.09-3.62,0-1.2-.09-2.46,.41-3.84-.52Z"></path><path class="cls-1" d="M55.63,61.73c-.06-1.57,1.17-2.9,2.74-2.96,1.57-.06,2.9,1.17,2.96,2.74s-1.17,2.9-2.74,2.96c-.03,0-.06,0-.1,0-1.5,.08-2.78-1.08-2.86-2.58,0-.05,0-.11,0-.16Zm4.94,0c.01-1.15-.91-2.1-2.07-2.11-1.15-.01-2.1,.91-2.11,2.07-.01,1.15,.91,2.1,2.07,2.11,.01,0,.02,0,.03,0,1.12,.03,2.05-.84,2.08-1.96,0-.04,0-.07,0-.11Z"></path><path class="cls-1" d="M64.36,59.72v1.87h2.69v.66h-2.69v2.17h-.76v-5.34h3.81v.66l-3.05-.02Z"></path><path class="cls-1" d="M70.31,59.72v1.87h2.69v.66h-2.69v2.17h-.76v-5.34h3.81v.66l-3.05-.02Z"></path><path class="cls-1" d="M75.49,59.06h.76v5.34h-.76v-5.34Z"></path><path class="cls-1" d="M78.51,61.73c-.02-1.5,1.18-2.72,2.67-2.74,.06,0,.11,0,.17,0,.77-.03,1.51,.27,2.04,.83l-.5,.48c-.39-.42-.95-.65-1.53-.63-1.14-.07-2.12,.8-2.19,1.94s.8,2.12,1.94,2.19c.08,0,.17,0,.25,0,.58,.02,1.13-.22,1.53-.64l.5,.48c-.53,.56-1.27,.87-2.04,.84-1.49,.07-2.76-1.08-2.83-2.57,0-.06,0-.11,0-.17Z"></path><path class="cls-1" d="M85.56,59.06h.76v5.34h-.76v-5.34Z"></path><path class="cls-1" d="M92.44,63.08h-2.85l-.59,1.34h-.76l2.43-5.34h.76l2.44,5.34h-.81l-.61-1.34Zm-.27-.61l-1.16-2.63-1.16,2.63h2.32Z"></path><path class="cls-1" d="M95.71,59.06h.76v4.7h2.91v.66h-3.67v-5.36Z"></path><path class="cls-1" d="M109.46,64.42v-3.91l-1.94,3.26h-.35l-1.95-3.23v3.88h-.76v-5.34h.63l2.24,3.77,2.2-3.77h.63v5.34h-.71Z"></path><path class="cls-1" d="M116.78,63.75v.66h-3.89v-5.34h3.81v.66h-3.05v1.65h2.69v.66h-2.69v1.73l3.13-.02Z"></path><path class="cls-1" d="M124.08,64.42v-3.91l-1.96,3.26h-.35l-1.94-3.23v3.88h-.76v-5.34h.63l2.24,3.77,2.2-3.77h.63v5.34h-.69Z"></path><path class="cls-1" d="M132.13,62.97c0,.92-.7,1.45-2.06,1.45h-2.56v-5.34h2.41c1.24,0,1.93,.52,1.93,1.39,.02,.51-.27,.97-.72,1.19,.6,.14,1.02,.69,1.01,1.31Zm-3.85-3.3v1.72h1.57c.76,0,1.23-.29,1.23-.85s-.44-.86-1.23-.86h-1.57Zm3.05,3.23c0-.62-.46-.89-1.31-.89h-1.76v1.78h1.76c.88,0,1.33-.27,1.33-.89h-.02Z"></path><path class="cls-1" d="M138.29,63.75v.66h-3.9v-5.34h3.81v.66h-3.05v1.65h2.69v.66h-2.68v1.73l3.13-.02Z"></path><path class="cls-1" d="M144.24,64.42l-1.16-1.65h-1.66v1.63h-.76v-5.34h2.06c1.4,0,2.23,.7,2.23,1.87,.04,.77-.45,1.47-1.19,1.69l1.24,1.79h-.76Zm0-3.49c0-.76-.52-1.21-1.53-1.21h-1.3v2.42h1.3c.95,0,1.46-.45,1.46-1.21h.06Z"></path><path class="cls-1" d="M93.45,46.82v1.23h-5.76v-.97l3.1-2.94c.76-.72,.88-1.18,.88-1.62,0-.71-.49-1.13-1.44-1.13-.71-.04-1.39,.27-1.83,.82l-1.01-.76c.73-.88,1.83-1.36,2.97-1.3,1.69,0,2.78,.86,2.78,2.24,0,.76-.21,1.45-1.3,2.46l-2.08,1.98,3.68-.02Z"></path><path class="cls-1" d="M94.25,44.14c0-2.56,1.4-4.01,3.26-4.01s3.26,1.45,3.26,4.01-1.4,3.99-3.26,3.99-3.26-1.42-3.26-3.99Zm5.06,0c0-1.88-.76-2.75-1.8-2.75s-1.8,.87-1.8,2.75,.76,2.75,1.8,2.75,1.8-.86,1.8-2.75Z"></path><path class="cls-1" d="M107.35,46.82v1.23h-5.75v-.97l3.1-2.94c.76-.72,.89-1.18,.89-1.62,0-.71-.49-1.13-1.45-1.13-.71-.04-1.4,.26-1.85,.82l-1.02-.76c.73-.88,1.83-1.36,2.97-1.3,1.69,0,2.79,.86,2.79,2.24,0,.76-.21,1.45-1.3,2.46l-2.08,1.98,3.7-.02Z"></path><path class="cls-1" d="M113.84,46.82v1.23h-5.75v-.97l3.1-2.94c.76-.72,.89-1.18,.89-1.62,0-.71-.49-1.13-1.45-1.13-.71-.04-1.39,.27-1.83,.82l-1.01-.76c.73-.88,1.83-1.36,2.97-1.3,1.69,0,2.78,.86,2.78,2.24,0,.76-.21,1.45-1.29,2.46l-2.08,1.98,3.68-.02Z"></path><path class="cls-1" d="M70.12,126.51h-2.4v-.78h5.67c0,.06,0,.12,0,.18v.4c0,.07,0,.13,0,.2h-2.37v8.19h-.86l-.03-8.19Z"></path><path class="cls-1" d="M75.39,131.65c-.06,.68,.15,1.35,.59,1.87,.48,.43,1.11,.65,1.75,.6,.3,0,.59-.03,.88-.08,.26-.05,.51-.12,.76-.21,.05,.11,.08,.22,.1,.34,.03,.12,.05,.24,.05,.36-.27,.12-.56,.2-.85,.25-.35,.06-.7,.09-1.06,.08-.48,.01-.97-.07-1.42-.24-.37-.14-.71-.38-.97-.68-.26-.3-.45-.66-.56-1.04-.12-.43-.18-.88-.18-1.33,0-.44,.05-.88,.17-1.31,.1-.39,.27-.75,.51-1.07,.23-.31,.53-.56,.88-.72,.4-.19,.84-.28,1.28-.27,.38,0,.76,.07,1.11,.21,.31,.14,.59,.34,.82,.59,.23,.27,.39,.57,.5,.91,.12,.37,.17,.76,.17,1.15v.59h-4.54Zm3.74-.69c0-.26-.03-.51-.1-.76-.06-.24-.16-.46-.31-.66-.14-.19-.33-.35-.54-.46-.25-.12-.53-.18-.82-.18-.51-.03-1.01,.17-1.36,.54-.36,.43-.56,.97-.59,1.53l3.71-.02Z"></path><path class="cls-1" d="M85.84,133.9c.05,.11,.09,.22,.12,.34,.04,.14,.06,.26,.08,.35-.23,.08-.47,.14-.72,.18-.29,.05-.59,.08-.88,.08-.87,.06-1.73-.25-2.36-.85-.58-.69-.87-1.57-.81-2.47,0-.45,.06-.89,.2-1.32,.13-.38,.32-.74,.58-1.05,.27-.3,.6-.54,.97-.7,.42-.18,.88-.27,1.34-.26,.3,0,.6,.02,.9,.07,.23,.03,.46,.09,.69,.16,0,.13-.02,.25-.05,.37-.02,.11-.05,.23-.09,.34-.21-.07-.42-.12-.63-.15-.27-.04-.54-.06-.82-.06-.34,0-.67,.06-.98,.2-.28,.12-.52,.31-.7,.54-.19,.24-.34,.52-.42,.82-.09,.34-.14,.69-.14,1.04-.06,.72,.17,1.43,.65,1.98,.47,.44,1.1,.67,1.74,.63,.24,0,.48-.02,.71-.07,.21-.03,.42-.09,.62-.16Z"></path><path class="cls-1" d="M87.49,125.54h.82v3.94c.09-.16,.2-.32,.33-.46,.14-.16,.29-.3,.46-.42,.18-.13,.38-.23,.59-.3,.25-.08,.5-.12,.76-.11,.61-.05,1.21,.19,1.62,.66,.37,.54,.56,1.18,.52,1.84v4.02h-.82v-3.77c.05-.53-.07-1.07-.35-1.53-.24-.31-.61-.49-1.01-.47-.28,0-.56,.05-.82,.16-.25,.11-.47,.28-.66,.48-.19,.22-.34,.48-.43,.76-.11,.36-.17,.73-.16,1.11v3.2h-.82l-.04-9.12Z"></path><path class="cls-1" d="M94.5,128.34h.75v1.14c.1-.16,.21-.31,.33-.45,.14-.16,.29-.3,.47-.42,.19-.13,.4-.23,.62-.31,.25-.08,.5-.12,.76-.12,.61-.05,1.2,.19,1.59,.66,.37,.54,.54,1.19,.5,1.84v4.02h-.82v-3.77c.04-.53-.07-1.06-.34-1.53-.23-.32-.6-.49-.99-.47-.28,0-.56,.06-.82,.18-.26,.11-.49,.29-.67,.5-.2,.24-.35,.52-.44,.82-.11,.36-.17,.74-.16,1.11v3.14h-.82l.05-6.35Z"></path><path class="cls-1" d="M103.99,134.85c-.43,0-.86-.08-1.25-.25-.35-.17-.65-.41-.89-.71-.25-.31-.42-.67-.53-1.06-.12-.42-.18-.86-.18-1.3,0-.44,.06-.88,.18-1.31,.1-.38,.28-.74,.53-1.06,.24-.3,.55-.54,.89-.7,.39-.18,.82-.27,1.25-.26,.43,0,.85,.08,1.24,.26,.35,.16,.65,.4,.89,.7,.24,.32,.42,.68,.53,1.06,.12,.43,.19,.87,.18,1.31,0,.44-.06,.88-.18,1.3-.11,.38-.29,.75-.53,1.06-.24,.3-.54,.55-.89,.71-.39,.18-.81,.26-1.24,.25Zm0-.72c.6,.05,1.18-.22,1.53-.7,.66-1.19,.66-2.63,0-3.81-.68-.82-1.9-.94-2.72-.26-.09,.08-.18,.16-.26,.26-.66,1.19-.66,2.63,0,3.81,.33,.46,.88,.73,1.45,.7Z"></path><path class="cls-1" d="M108.54,125.54h.82v7.7c0,.17,.02,.34,.08,.5,.04,.1,.1,.19,.19,.26,.07,.06,.15,.09,.24,.1h.54c.08,0,.16,0,.24,0,.05,.1,.08,.21,.09,.32v.33c-.13,.04-.26,.07-.4,.08h-.4c-.18,0-.35-.02-.53-.05-.17-.04-.33-.11-.47-.21-.14-.11-.26-.25-.33-.42-.09-.22-.14-.47-.13-.71l.04-7.89Z"></path><path class="cls-1" d="M113.87,134.85c-.43,0-.85-.08-1.24-.25-.35-.16-.65-.41-.89-.71-.25-.31-.43-.67-.53-1.06-.12-.42-.18-.86-.18-1.3,0-.44,.06-.88,.18-1.31,.11-.38,.29-.75,.53-1.06,.24-.3,.54-.54,.89-.7,.79-.35,1.69-.35,2.49,0,.34,.16,.65,.4,.88,.7,.24,.32,.42,.68,.53,1.06,.12,.43,.19,.87,.18,1.31,0,.44-.06,.88-.18,1.3-.11,.38-.29,.75-.53,1.06-.24,.3-.54,.54-.88,.71-.39,.17-.82,.26-1.24,.25Zm0-.72c.58,.04,1.15-.23,1.49-.7,.66-1.19,.66-2.63,0-3.81-.68-.82-1.9-.94-2.72-.26-.09,.08-.18,.16-.26,.26-.66,1.19-.66,2.63,0,3.81,.34,.47,.9,.74,1.49,.7Z"></path><path class="cls-1" d="M121.58,134.06c.56-.04,1.11,.13,1.56,.46,.32,.29,.49,.71,.47,1.14,0,.31-.08,.62-.25,.88-.18,.28-.42,.5-.7,.67-.33,.2-.68,.35-1.06,.43-.78,.19-1.59,.21-2.37,.07-.28-.05-.56-.14-.81-.28-.22-.12-.4-.29-.53-.5-.13-.23-.19-.5-.18-.76,0-.32,.1-.64,.27-.91,.17-.28,.42-.5,.71-.65-.16-.1-.29-.23-.4-.38-.11-.17-.17-.36-.17-.56,0-.29,.07-.58,.24-.82,.17-.23,.38-.42,.62-.58-.3-.19-.54-.45-.7-.76-.18-.34-.27-.72-.26-1.1,0-.29,.05-.59,.15-.86,.1-.27,.26-.51,.47-.71,.22-.21,.48-.37,.76-.47,.34-.12,.69-.18,1.05-.18,.31,0,.62,.04,.92,.14,.25,.08,.48,.19,.69,.34l.31-.11c.13-.05,.27-.08,.41-.11l.46-.08c.15-.01,.31-.01,.47,0,.03,.13,.05,.27,.05,.41,0,.14-.01,.29-.05,.43h-1.18c.11,.18,.2,.38,.27,.58,.15,.53,.11,1.09-.1,1.6-.12,.26-.29,.5-.51,.69-.22,.19-.48,.34-.76,.43-.31,.1-.63,.15-.95,.14-.32,0-.63-.04-.93-.14-.19,.11-.36,.26-.5,.43-.09,.14-.14,.3-.14,.47,0,.08,.01,.16,.04,.24,.03,.08,.09,.16,.16,.21,.1,.07,.21,.13,.33,.15,.18,.04,.36,.06,.55,.05h1.6Zm-1.77,.76c-.35-.02-.68,.1-.94,.34-.24,.24-.37,.56-.36,.9,0,.18,.04,.35,.14,.5,.1,.14,.23,.24,.38,.31,.18,.07,.37,.13,.56,.15,.23,.03,.46,.05,.69,.05,.63,.04,1.25-.1,1.81-.4,.37-.17,.62-.53,.65-.94,.03-.27-.1-.52-.32-.67-.33-.16-.69-.23-1.06-.21l-1.55-.03Zm-.92-4.4c-.01,.4,.12,.79,.38,1.09,.31,.32,.75,.48,1.19,.44,.44,.03,.88-.13,1.2-.44,.26-.3,.4-.69,.39-1.09,.01-.4-.13-.79-.39-1.09-.32-.32-.75-.48-1.2-.44-.44-.03-.88,.13-1.19,.44-.25,.3-.39,.68-.38,1.08v.02Z"></path><path class="cls-1" d="M126.7,134.73h-.71l-2.29-6.36h.93l2.11,6.19,2.07-6.19h.85l-2.76,8.25c-.1,.38-.33,.71-.64,.95-.29,.19-.63,.28-.97,.27-.18,0-.36-.02-.53-.05l-.44-.1c0-.25,.06-.49,.19-.7l.3,.08c.15,.03,.3,.05,.45,.05,.21,0,.41-.05,.58-.18,.18-.18,.31-.4,.38-.65l.49-1.57Z"></path><path class="cls-1" d="M74.31,148.64c.07,.12,.12,.24,.18,.37,.05,.11,.09,.23,.11,.36-.32,.16-.66,.27-1.01,.33-.41,.08-.82,.12-1.24,.12-.57,0-1.13-.09-1.66-.3-.49-.19-.94-.49-1.3-.88-.37-.41-.65-.89-.83-1.42-.21-.63-.31-1.28-.3-1.95-.01-.68,.08-1.35,.29-2,.17-.56,.45-1.08,.82-1.53,.35-.4,.79-.72,1.28-.92,.54-.22,1.11-.33,1.69-.32,.44,0,.87,.03,1.3,.11,.35,.08,.6,.14,.76,.19-.01,.13-.03,.25-.07,.37-.04,.12-.08,.24-.13,.36l-.33-.1-.38-.08c-.14,0-.31-.05-.5-.07s-.4,0-.66,0c-.45,0-.9,.09-1.32,.27-.39,.18-.73,.44-1,.76-.29,.37-.5,.8-.63,1.25-.16,.54-.23,1.11-.22,1.67-.01,.57,.07,1.13,.24,1.67,.14,.44,.38,.84,.69,1.17,.29,.31,.64,.55,1.04,.69,.41,.16,.84,.23,1.27,.23,.36,0,.72-.03,1.07-.11,.28-.05,.55-.14,.8-.26Z"></path><path class="cls-1" d="M78.38,149.82c-.43,.02-.86-.06-1.26-.24-.35-.16-.65-.4-.89-.7-.25-.31-.42-.67-.53-1.06-.23-.86-.23-1.76,0-2.62,.1-.39,.28-.75,.53-1.06,.24-.3,.54-.54,.89-.7,.79-.35,1.69-.35,2.49,0,.34,.16,.65,.4,.88,.7,.25,.31,.43,.67,.53,1.06,.24,.86,.24,1.76,0,2.62-.1,.39-.29,.75-.53,1.06-.24,.3-.54,.54-.88,.7-.39,.17-.81,.25-1.23,.24Zm0-.72c.59,.05,1.17-.21,1.53-.69,.65-1.19,.65-2.63,0-3.81-.7-.82-1.93-.93-2.75-.23-.08,.07-.16,.15-.23,.23-.66,1.19-.66,2.63,0,3.81,.34,.46,.89,.72,1.46,.69Z"></path><path class="cls-1" d="M82.88,143.31h.82v3.58c0,.37,.04,.75,.14,1.11,.08,.25,.22,.48,.4,.67,.19,.16,.41,.28,.66,.34,.29,.06,.58,.1,.88,.09,.26,0,.51-.01,.76-.05,.19-.02,.38-.06,.57-.11v-5.62h.82v6.19c-.34,.09-.68,.17-1.03,.22-.39,.06-.78,.09-1.17,.09-.37,0-.74-.04-1.1-.11-.33-.07-.64-.21-.9-.43-.27-.24-.48-.54-.6-.88-.17-.47-.25-.97-.23-1.46l-.03-3.62Z"></path><path class="cls-1" d="M89.98,143.31h.75v1.14c.09-.16,.2-.32,.33-.46,.14-.16,.29-.3,.47-.41,.19-.13,.4-.24,.62-.31,.25-.08,.5-.13,.76-.12,.61-.05,1.2,.19,1.59,.66,.36,.54,.53,1.19,.5,1.84v4.01h-.82v-3.76c.04-.53-.07-1.06-.33-1.53-.23-.31-.6-.48-.99-.46-.28,0-.57,.06-.82,.18-.26,.11-.49,.29-.66,.5-.2,.24-.35,.52-.44,.82-.12,.36-.18,.73-.17,1.11v3.14h-.82l.05-6.35Z"></path><path class="cls-1" d="M101.2,148.87c.05,.11,.09,.22,.11,.34,0,.14,.07,.26,.08,.35-.23,.08-.47,.14-.71,.18-.29,.05-.59,.08-.88,.08-.88,.06-1.74-.25-2.37-.85-.58-.69-.87-1.57-.81-2.47,0-.45,.06-.89,.2-1.32,.12-.39,.32-.75,.59-1.05,.26-.3,.59-.54,.96-.7,.42-.18,.88-.27,1.34-.26,.3,0,.61,.02,.91,.07,.23,.03,.46,.09,.68,.16,0,.13-.02,.25-.05,.37-.02,.11-.05,.23-.09,.34-.21-.07-.42-.12-.63-.15-.27-.04-.54-.06-.82-.06-.34,0-.67,.06-.98,.19-.27,.13-.51,.31-.7,.54-.19,.25-.33,.53-.41,.82-.09,.34-.14,.7-.14,1.05-.06,.72,.17,1.43,.64,1.98,.47,.44,1.1,.66,1.74,.63,.24,0,.48-.02,.72-.06,.21-.04,.42-.09,.62-.16Z"></path><path class="cls-1" d="M103.23,144h-.76s0-.1,0-.14v-.39c0-.05,0-.11,0-.16h1.62v6.35h-.82l-.03-5.66Zm-.41-2.29c0-.09,0-.18,0-.27v-.52c0-.08,0-.17,0-.25h1.05v1.04h-1.05Z"></path><path class="cls-1" d="M106.1,140.5h.82v7.69c0,.17,.02,.35,.08,.51,.04,.1,.11,.19,.19,.26,.07,.05,.16,.09,.24,.1,.08,0,.17,0,.25,0,.1,0,.19,0,.29,0,.08,0,.16-.02,.24-.05,.05,.1,.08,.21,.09,.33,0,.11,0,.22,.04,.32-.13,.05-.26,.08-.4,.09h-.4c-.18,0-.35-.02-.53-.05-.17-.04-.33-.11-.47-.21-.14-.11-.26-.26-.33-.43-.09-.22-.14-.46-.13-.7v-7.86Z"></path><rect class="cls-1" x="53.16" y="122.88" width=".76" height="29.75"></rect><rect class="cls-1" x="55.45" y="43.77" width="27.46" height=".76"></rect><rect class="cls-1" x="117.99" y="43.77" width="27.46" height=".76"></rect></g></g></svg>