<svg xmlns="http://www.w3.org/2000/svg" id="Layer_1" data-name="Layer 1" width="200" height="200" viewBox="0 0 200 200"><defs><style>      .cls-1 {        fill: #252f3e;      }      .cls-2 {        fill: #f90;      }    </style></defs><path class="cls-1" d="M66.95,87.61c0,1.86,.2,3.38,.55,4.48,.4,1.11,.91,2.32,1.61,3.63,.25,.4,.35,.81,.35,1.16,0,.5-.3,1.01-.96,1.51l-3.17,2.12c-.45,.3-.91,.45-1.31,.45-.5,0-1.01-.25-1.51-.71-.71-.76-1.31-1.56-1.81-2.37-.5-.86-1.01-1.81-1.56-2.97-3.93,4.63-8.87,6.95-14.81,6.95-4.23,0-7.61-1.21-10.08-3.63-2.47-2.42-3.73-5.64-3.73-9.67,0-4.28,1.51-7.76,4.58-10.38s7.15-3.93,12.34-3.93c1.71,0,3.48,.15,5.34,.4s3.78,.65,5.79,1.11v-3.68c0-3.83-.81-6.5-2.37-8.06-1.61-1.56-4.33-2.32-8.21-2.32-1.76,0-3.58,.2-5.44,.65s-3.68,1.01-5.44,1.71c-.81,.35-1.41,.55-1.76,.65-.35,.1-.6,.15-.81,.15-.71,0-1.06-.5-1.06-1.56v-2.47c0-.81,.1-1.41,.35-1.76s.71-.71,1.41-1.06c1.76-.91,3.88-1.66,6.35-2.27,2.47-.65,5.09-.96,7.86-.96,6,0,10.38,1.36,13.2,4.08,2.77,2.72,4.18,6.85,4.18,12.39v16.32h.1Zm-20.45,7.66c1.66,0,3.38-.3,5.19-.91,1.81-.6,3.43-1.71,4.79-3.22,.81-.96,1.41-2.02,1.71-3.22s.5-2.67,.5-4.38v-2.12c-1.46-.35-3.02-.65-4.63-.86s-3.17-.3-4.74-.3c-3.38,0-5.84,.65-7.51,2.02-1.66,1.36-2.47,3.27-2.47,5.79,0,2.37,.6,4.13,1.86,5.34,1.21,1.26,2.97,1.86,5.29,1.86h0Zm40.46,5.44c-.91,0-1.51-.15-1.91-.5-.4-.3-.76-1.01-1.06-1.96l-11.84-38.94c-.3-1.01-.45-1.66-.45-2.02,0-.81,.4-1.26,1.21-1.26h4.94c.96,0,1.61,.15,1.96,.5,.4,.3,.71,1.01,1.01,1.96l8.46,33.35,7.86-33.35c.25-1.01,.55-1.66,.96-1.96,.4-.3,1.11-.5,2.02-.5h4.03c.96,0,1.61,.15,2.02,.5,.4,.3,.76,1.01,.96,1.96l7.96,33.75,8.72-33.75c.3-1.01,.65-1.66,1.01-1.96,.4-.3,1.06-.5,1.96-.5h4.69c.81,0,1.26,.4,1.26,1.26,0,.25-.05,.5-.1,.81-.05,.3-.15,.71-.35,1.26l-12.14,38.94c-.3,1.01-.65,1.66-1.06,1.96s-1.06,.5-1.91,.5h-4.33c-.96,0-1.61-.15-2.02-.5s-.76-1.01-.96-2.02l-7.81-32.5-7.76,32.44c-.25,1.01-.55,1.66-.96,2.02-.4,.35-1.11,.5-2.02,.5h-4.33Zm64.74,1.36c-2.62,0-5.24-.3-7.76-.91-2.52-.6-4.48-1.26-5.79-2.02-.81-.45-1.36-.96-1.56-1.41-.2-.45-.3-.96-.3-1.41v-2.57c0-1.06,.4-1.56,1.16-1.56,.3,0,.6,.05,.91,.15,.3,.1,.76,.3,1.26,.5,1.71,.76,3.58,1.36,5.54,1.76,2.02,.4,3.98,.6,6,.6,3.17,0,5.64-.55,7.36-1.66,1.71-1.11,2.62-2.72,2.62-4.79,0-1.41-.45-2.57-1.36-3.53-.91-.96-2.62-1.81-5.09-2.62l-7.31-2.27c-3.68-1.16-6.4-2.87-8.06-5.14-1.66-2.22-2.52-4.69-2.52-7.31,0-2.12,.45-3.98,1.36-5.59s2.12-3.02,3.63-4.13c1.51-1.16,3.22-2.02,5.24-2.62s4.13-.86,6.35-.86c1.11,0,2.27,.05,3.38,.2,1.16,.15,2.22,.35,3.27,.55,1.01,.25,1.96,.5,2.87,.81,.91,.3,1.61,.6,2.12,.91,.71,.4,1.21,.81,1.51,1.26,.3,.4,.45,.96,.45,1.66v2.37c0,1.06-.4,1.61-1.16,1.61-.4,0-1.06-.2-1.91-.6-2.87-1.31-6.1-1.96-9.67-1.96-2.87,0-5.14,.45-6.7,1.41s-2.37,2.42-2.37,4.48c0,1.41,.5,2.62,1.51,3.58s2.87,1.91,5.54,2.77l7.15,2.27c3.63,1.16,6.25,2.77,7.81,4.84s2.32,4.43,2.32,7.05c0,2.17-.45,4.13-1.31,5.84-.91,1.71-2.12,3.22-3.68,4.43-1.56,1.26-3.43,2.17-5.59,2.82-2.27,.71-4.63,1.06-7.2,1.06h0Z"></path><path class="cls-2" d="M161.21,126.55c-16.57,12.24-40.66,18.74-61.36,18.74-29.02,0-55.17-10.73-74.91-28.57-1.56-1.41-.15-3.33,1.71-2.22,21.36,12.39,47.71,19.9,74.97,19.9,18.39,0,38.59-3.83,57.18-11.69,2.77-1.26,5.14,1.81,2.42,3.83h0Z"></path><path class="cls-2" d="M168.11,118.69c-2.12-2.72-14.01-1.31-19.4-.65-1.61,.2-1.86-1.21-.4-2.27,9.47-6.65,25.04-4.74,26.85-2.52,1.81,2.27-.5,17.83-9.37,25.29-1.36,1.16-2.67,.55-2.07-.96,2.02-4.99,6.5-16.22,4.38-18.89Z"></path></svg>