<svg xmlns="http://www.w3.org/2000/svg" id="Layer_1" data-name="Layer 1" width="200" height="200" viewBox="0 0 200 200"><defs><style>      .cls-1 {        fill: #60646a;      }      .cls-2 {        fill: #32a853;      }      .cls-3 {        fill: #e84436;      }      .cls-4 {        fill: #fbbc0c;      }      .cls-5 {        fill: #517cbe;      }    </style></defs><g><path class="cls-3" d="M112.55,63.01h2.7l7.71-7.71,.38-3.27c-14.34-12.66-36.24-11.3-48.9,3.05-3.52,3.98-6.07,8.72-7.46,13.85,.86-.35,1.81-.41,2.7-.16l15.42-2.54s.78-1.3,1.19-1.22c6.86-7.53,18.4-8.41,26.31-2h-.05Z"></path><path class="cls-5" d="M133.94,68.93c-1.77-6.52-5.41-12.39-10.47-16.88l-10.82,10.82c4.57,3.73,7.17,9.36,7.06,15.25v1.92c5.32,0,9.63,4.31,9.63,9.63s-4.31,9.63-9.63,9.63h-19.26l-1.92,1.95v11.55l1.92,1.92h19.26c13.83,.11,25.13-11.02,25.24-24.85,.07-8.38-4.07-16.24-11.01-20.94Z"></path><path class="cls-2" d="M81.18,114.61h19.26v-15.42h-19.26c-1.37,0-2.73-.3-3.98-.87l-2.7,.84-7.76,7.71-.68,2.7c4.35,3.29,9.66,5.05,15.12,5.03h0Z"></path><path class="cls-4" d="M81.18,64.61c-13.83,.08-24.98,11.36-24.89,25.19,.05,7.72,3.65,14.99,9.78,19.7l11.17-11.17c-4.85-2.19-7-7.89-4.81-12.74,2.19-4.85,7.89-7,12.74-4.81,2.14,.96,3.85,2.67,4.81,4.81l11.17-11.17c-4.75-6.21-12.14-9.84-19.96-9.82Z"></path></g><path class="cls-1" d="M17.55,149.03c-3.53,.04-6.92-1.35-9.4-3.86-2.56-2.41-3.99-5.78-3.95-9.29-.04-3.51,1.39-6.88,3.95-9.29,2.47-2.54,5.86-3.96,9.4-3.93,3.37-.04,6.62,1.26,9.02,3.63l-2.54,2.58c-1.74-1.68-4.07-2.6-6.48-2.56-2.53-.03-4.96,1-6.69,2.85-1.8,1.79-2.79,4.23-2.75,6.77-.02,2.51,.97,4.92,2.75,6.68,3.67,3.66,9.58,3.72,13.33,.16,1.12-1.22,1.8-2.78,1.95-4.43h-8.55v-3.65h12.09c.12,.73,.17,1.48,.14,2.22,.15,3.11-.98,6.15-3.12,8.4-2.39,2.48-5.72,3.84-9.16,3.72h0Zm28.12-2.42c-3.37,3.23-8.69,3.23-12.06,0-1.63-1.58-2.53-3.78-2.46-6.05-.06-2.27,.83-4.47,2.46-6.05,3.38-3.23,8.69-3.23,12.06,0,1.63,1.58,2.53,3.78,2.46,6.05,.06,2.28-.84,4.47-2.48,6.05h.01Zm-9.4-2.38c1.74,1.86,4.66,1.96,6.52,.21,.07-.07,.15-.14,.21-.21,.95-.98,1.46-2.31,1.42-3.68,.04-1.37-.47-2.7-1.42-3.69-1.79-1.87-4.76-1.93-6.63-.14-.05,.05-.09,.09-.14,.14-.95,.99-1.47,2.32-1.42,3.69-.04,1.37,.48,2.69,1.44,3.68h.01Zm27.95,2.38c-3.37,3.23-8.69,3.23-12.06,0-1.63-1.58-2.53-3.78-2.46-6.05-.06-2.27,.83-4.47,2.46-6.05,3.37-3.23,8.69-3.23,12.06,0,1.63,1.58,2.53,3.78,2.46,6.05,.06,2.27-.83,4.47-2.46,6.05Zm-9.4-2.38c1.74,1.86,4.66,1.96,6.52,.21,.07-.07,.15-.14,.21-.21,.95-.98,1.46-2.31,1.42-3.68,.04-1.37-.47-2.7-1.42-3.69-1.79-1.87-4.76-1.93-6.63-.14-.05,.05-.09,.09-.14,.14-.95,.99-1.47,2.32-1.42,3.69-.04,1.37,.48,2.69,1.44,3.68h.01Zm21.59,12.41c-1.71,.05-3.38-.48-4.74-1.51-1.21-.91-2.16-2.12-2.76-3.5l3.25-1.35c.35,.83,.91,1.56,1.61,2.12,.75,.61,1.7,.92,2.66,.9,1.24,.08,2.45-.39,3.32-1.28,.86-1.04,1.28-2.36,1.18-3.7v-1.23h-.13c-1.1,1.31-2.75,2.02-4.46,1.92-2.16,0-4.23-.89-5.7-2.48-1.59-1.57-2.47-3.73-2.44-5.97-.04-2.25,.84-4.42,2.44-6.01,1.47-1.59,3.53-2.5,5.7-2.49,.91,0,1.8,.2,2.62,.58,.71,.31,1.34,.77,1.85,1.35h.13v-1.35h3.53v15.17c.19,2.43-.63,4.82-2.26,6.62-1.56,1.49-3.65,2.28-5.8,2.21h0Zm.26-10.94c1.23,.03,2.41-.49,3.22-1.42,.88-1.01,1.34-2.31,1.3-3.65,.05-1.36-.41-2.69-1.3-3.72-.81-.93-1.99-1.45-3.22-1.42-1.26-.03-2.48,.49-3.33,1.42-.94,.99-1.45,2.32-1.42,3.69-.03,1.36,.48,2.67,1.42,3.65,.85,.94,2.07,1.47,3.33,1.45Zm14.09-22.08v24.9h-3.72v-24.9h3.72Zm10.2,25.41c-2.25,.06-4.42-.82-6-2.44-1.6-1.6-2.47-3.78-2.41-6.04-.09-2.26,.75-4.46,2.32-6.1,1.48-1.56,3.55-2.42,5.7-2.38,.98-.01,1.95,.18,2.85,.56,.81,.33,1.55,.81,2.18,1.42,.54,.52,1.02,1.1,1.42,1.72,.33,.53,.61,1.09,.84,1.67l.38,.97-11.4,4.69c.71,1.62,2.34,2.64,4.1,2.56,1.71,0,3.29-.89,4.17-2.35l2.85,1.92c-.73,1.04-1.66,1.92-2.73,2.59-1.28,.81-2.77,1.23-4.29,1.2h0Zm-4.76-8.73l7.58-3.15c-.23-.56-.65-1.01-1.18-1.3-.59-.34-1.27-.51-1.95-.5-1.16,.03-2.26,.52-3.06,1.35-.97,.93-1.48,2.25-1.38,3.59h0Zm31.52,8.73c-6.48,.11-11.83-5.05-11.94-11.53,0-.16,0-.32,0-.47-.15-6.48,4.98-11.86,11.46-12.01,.16,0,.32,0,.47,0,3.24-.1,6.35,1.28,8.45,3.76l-2.05,1.99c-1.54-1.94-3.91-3.02-6.38-2.92-2.37-.05-4.66,.86-6.34,2.54-1.75,1.76-2.68,4.16-2.58,6.64-.1,2.48,.83,4.88,2.58,6.64,1.68,1.67,3.97,2.59,6.34,2.54,2.76,.03,5.38-1.2,7.12-3.33l2.05,2.05c-1.07,1.28-2.42,2.31-3.95,3.01-1.64,.76-3.43,1.14-5.24,1.11Zm14.7-.51h-2.95v-23h2.95v23Zm4.81-13.85c3.22-3.19,8.41-3.19,11.62,0,1.53,1.61,2.35,3.76,2.28,5.98,.07,2.22-.75,4.37-2.28,5.98-3.22,3.19-8.41,3.19-11.62,0-1.53-1.61-2.35-3.76-2.28-5.98-.07-2.22,.75-4.37,2.28-5.98h0Zm2.19,10.11c1.89,1.99,5.03,2.08,7.03,.19,.07-.06,.13-.13,.19-.19,1.04-1.12,1.59-2.61,1.52-4.13,.07-1.53-.48-3.01-1.52-4.13-1.89-1.99-5.03-2.08-7.03-.19-.07,.06-.13,.13-.19,.19-1.04,1.12-1.59,2.61-1.52,4.13-.06,1.52,.5,3.01,1.54,4.12h-.01Zm28.05,3.75h-2.85v-2.18h-.09c-.51,.83-1.22,1.51-2.08,1.97-.89,.51-1.89,.78-2.92,.78-1.69,.12-3.33-.55-4.47-1.79-1.08-1.36-1.62-3.08-1.52-4.81v-9.69h2.95v9.14c0,2.93,1.3,4.4,3.89,4.4,1.17,.04,2.28-.49,2.99-1.42,.76-.97,1.17-2.17,1.15-3.4v-8.72h2.95v15.73Zm10.01,.51c-2.02,0-3.95-.87-5.27-2.41-1.48-1.63-2.27-3.77-2.21-5.97-.06-2.2,.73-4.34,2.21-5.97,1.32-1.53,3.25-2.41,5.27-2.41,1.12-.02,2.23,.25,3.22,.77,.87,.44,1.61,1.1,2.14,1.92h.13l-.13-2.18v-7.28h2.95v23h-2.85v-2.18h-.13c-.53,.82-1.27,1.48-2.14,1.92-.98,.52-2.08,.78-3.19,.77Zm.48-2.69c1.35,.02,2.64-.54,3.55-1.54,1-1.14,1.51-2.63,1.42-4.15,.09-1.52-.42-3-1.42-4.15-1.79-1.97-4.83-2.11-6.8-.32-.11,.1-.22,.21-.32,.32-1,1.13-1.52,2.62-1.42,4.13-.09,1.51,.42,3,1.42,4.13,.91,1.02,2.21,1.59,3.58,1.57Z"></path></svg>