<svg xmlns="http://www.w3.org/2000/svg" id="Layer_1" data-name="Layer 1" width="200" height="200" viewBox="0 0 200 200"><defs><style>      .cls-1 {        fill: #00adef;      }      .cls-2 {        fill: #fabc09;      }      .cls-3 {        fill: #6f6d6e;      }      .cls-4 {        fill: #80cd29;      }      .cls-5 {        fill: #f1521b;      }    </style></defs><rect class="cls-5" x="1.83" y="71.78" width="26.53" height="26.53"></rect><rect class="cls-4" x="31.44" y="71.78" width="26.53" height="26.53"></rect><rect class="cls-1" x="1.83" y="101.7" width="26.53" height="26.53"></rect><rect class="cls-2" x="31.44" y="101.7" width="26.53" height="26.53"></rect><path class="cls-3" d="M72.23,75.14l6.33,16.81,6.31-16.81h4.93v21.93h-3.8v-7.23l.38-9.67-6.48,16.9h-2.73l-6.46-16.88,.38,9.65v7.23h-3.8v-21.93h4.94Zm25.66,21.93h-3.66v-16.3h3.66v16.3Zm-3.89-20.53c0-.56,.18-1.03,.53-1.4,.36-.37,.87-.56,1.54-.56s1.17,.19,1.54,.56c.36,.37,.54,.84,.54,1.4s-.18,1.01-.54,1.39c-.36,.36-.87,.54-1.54,.54s-1.17-.18-1.54-.54c-.35-.37-.53-.83-.53-1.39Zm14.62,17.91c.91,0,1.67-.27,2.27-.8s.92-1.19,.96-1.97h3.45c-.04,1.01-.36,1.96-.95,2.85-.59,.87-1.4,1.57-2.41,2.08-1.01,.51-2.11,.77-3.28,.77-2.28,0-4.09-.74-5.42-2.21-1.34-1.48-2-3.51-2-6.11v-.38c0-2.48,.66-4.46,1.99-5.95,1.33-1.5,3.13-2.24,5.42-2.24,1.94,0,3.51,.57,4.73,1.7,1.23,1.12,1.87,2.61,1.93,4.44h-3.45c-.04-.93-.36-1.7-.96-2.3-.59-.6-1.35-.9-2.27-.9-1.19,0-2.1,.43-2.74,1.3-.64,.85-.97,2.15-.98,3.9v.59c0,1.77,.32,3.09,.95,3.96,.64,.86,1.57,1.3,2.77,1.3Zm18.02-10.33c-.48-.08-.98-.12-1.49-.12-1.68,0-2.81,.64-3.39,1.93v11.15h-3.66v-16.3h3.49l.09,1.82c.88-1.42,2.11-2.12,3.67-2.12,.52,0,.95,.07,1.3,.21l-.02,3.43Zm1.13,4.65c0-1.6,.32-3.03,.95-4.31,.63-1.29,1.52-2.27,2.67-2.95,1.14-.69,2.46-1.04,3.95-1.04,2.2,0,3.98,.71,5.35,2.12,1.38,1.42,2.12,3.29,2.23,5.63l.02,.86c0,1.61-.31,3.04-.93,4.31-.61,1.27-1.5,2.24-2.65,2.94-1.14,.69-2.47,1.04-3.98,1.04-2.3,0-4.14-.76-5.53-2.29-1.38-1.54-2.06-3.58-2.06-6.13v-.18Zm3.66,.32c0,1.68,.35,2.99,1.04,3.95,.69,.94,1.66,1.42,2.89,1.42s2.19-.48,2.88-1.45c.69-.96,1.04-2.37,1.04-4.23,0-1.65-.36-2.95-1.07-3.92-.7-.96-1.66-1.45-2.88-1.45s-2.14,.48-2.85,1.43c-.7,.94-1.05,2.36-1.05,4.25Zm23.76,3.55c0-.65-.27-1.15-.81-1.49-.53-.34-1.42-.64-2.67-.9-1.24-.26-2.28-.59-3.12-.99-1.83-.88-2.74-2.16-2.74-3.84,0-1.41,.59-2.58,1.78-3.52,1.18-.94,2.69-1.42,4.52-1.42,1.95,0,3.52,.48,4.71,1.45,1.2,.96,1.81,2.21,1.81,3.75h-3.66c0-.7-.26-1.29-.78-1.75-.52-.47-1.21-.71-2.08-.71-.8,0-1.46,.19-1.97,.56-.5,.37-.75,.87-.75,1.49,0,.56,.24,1,.71,1.31,.47,.31,1.43,.63,2.86,.95,1.44,.31,2.56,.69,3.37,1.13,.82,.43,1.43,.95,1.82,1.57,.4,.61,.6,1.36,.6,2.23,0,1.47-.61,2.66-1.82,3.57-1.21,.9-2.81,1.36-4.77,1.36-1.34,0-2.53-.24-3.57-.72-1.04-.48-1.86-1.14-2.44-1.99-.58-.84-.87-1.75-.87-2.73h3.55c.05,.86,.38,1.53,.98,2,.6,.46,1.4,.69,2.39,.69s1.7-.18,2.2-.54c.5-.37,.75-.85,.75-1.45Zm6.16-3.87c0-1.6,.32-3.03,.95-4.31,.63-1.29,1.52-2.27,2.67-2.95,1.14-.69,2.46-1.04,3.95-1.04,2.2,0,3.98,.71,5.35,2.12,1.38,1.42,2.12,3.29,2.23,5.63v.86c.01,1.61-.3,3.04-.92,4.31-.61,1.27-1.5,2.24-2.65,2.94-1.14,.69-2.47,1.04-3.98,1.04-2.3,0-4.14-.76-5.53-2.29-1.38-1.54-2.06-3.58-2.06-6.13v-.18Zm3.66,.32c0,1.68,.35,2.99,1.04,3.95,.69,.94,1.66,1.42,2.89,1.42s2.19-.48,2.88-1.45c.69-.96,1.04-2.37,1.04-4.23,0-1.65-.36-2.95-1.07-3.92-.7-.96-1.66-1.45-2.88-1.45s-2.14,.48-2.85,1.43c-.7,.94-1.05,2.36-1.05,4.25Zm15.92,7.98v-13.59h-2.49v-2.71h2.49v-1.49c0-1.81,.5-3.2,1.51-4.19,1-.98,2.41-1.48,4.22-1.48,.64,0,1.33,.09,2.05,.27l-.09,2.86c-.4-.08-.87-.12-1.4-.12-1.75,0-2.62,.9-2.62,2.7v1.45h3.31v2.71h-3.31v13.59h-3.66Zm14.27-20.26v3.96h2.88v2.71h-2.88v9.1c0,.62,.12,1.07,.36,1.36,.25,.27,.69,.41,1.33,.41,.42,0,.85-.05,1.28-.15v2.83c-.83,.23-1.64,.35-2.41,.35-2.81,0-4.22-1.55-4.22-4.65v-9.23h-2.68v-2.71h2.68v-3.96h3.66Z"></path><path class="cls-3" d="M71.1,119.77v8.15h-3.81v-21.93h8.39c2.45,0,4.39,.64,5.83,1.91,1.45,1.28,2.17,2.96,2.17,5.06s-.71,3.82-2.12,5.02c-1.41,1.19-3.38,1.79-5.92,1.79h-4.53Zm0-3.06h4.58c1.36,0,2.39-.32,3.1-.95,.71-.64,1.07-1.57,1.07-2.77s-.36-2.13-1.08-2.83c-.72-.71-1.72-1.08-2.98-1.1h-4.68v7.65Zm25.16,11.21c-.16-.31-.3-.82-.42-1.52-1.16,1.21-2.59,1.82-4.28,1.82s-2.97-.47-4.01-1.4c-1.03-.93-1.55-2.09-1.55-3.46,0-1.74,.64-3.07,1.93-3.99,1.3-.93,3.14-1.4,5.54-1.4h2.24v-1.07c0-.84-.24-1.52-.71-2.02-.47-.51-1.19-.77-2.15-.77-.83,0-1.52,.21-2.05,.63-.53,.41-.8,.94-.8,1.58h-3.66c0-.89,.3-1.73,.89-2.5,.59-.78,1.4-1.4,2.41-1.84,1.02-.44,2.16-.66,3.42-.66,1.91,0,3.43,.48,4.56,1.45,1.13,.95,1.72,2.3,1.75,4.04v7.35c0,1.47,.21,2.64,.62,3.51v.26h-3.74Zm-4.02-2.64c.72,0,1.4-.18,2.03-.53,.64-.35,1.12-.82,1.45-1.42v-3.07h-1.97c-1.36,0-2.37,.24-3.06,.71-.68,.47-1.02,1.14-1.02,2,0,.7,.23,1.27,.69,1.69,.47,.41,1.1,.62,1.88,.62Zm19.55-10.32c-.48-.08-.98-.12-1.49-.12-1.68,0-2.81,.64-3.39,1.93v11.15h-3.66v-16.3h3.49l.09,1.82c.88-1.42,2.11-2.12,3.67-2.12,.52,0,.95,.07,1.3,.21v3.43Zm7.68-7.3v3.96h2.88v2.71h-2.88v9.1c0,.62,.12,1.07,.36,1.36,.25,.27,.69,.41,1.33,.41,.42,0,.85-.05,1.28-.15v2.83c-.83,.23-1.64,.35-2.41,.35-2.81,0-4.22-1.55-4.22-4.65v-9.23h-2.68v-2.71h2.68v-3.96h3.66Zm9.12,3.96l.11,1.88c1.2-1.46,2.79-2.18,4.74-2.18,3.39,0,5.12,1.94,5.18,5.83v10.77h-3.66v-10.56c0-1.03-.23-1.8-.68-2.29-.44-.5-1.17-.75-2.18-.75-1.48,0-2.58,.67-3.3,2v11.6h-3.66v-16.3h3.45Zm20.99,16.6c-2.32,0-4.2-.73-5.65-2.18-1.44-1.47-2.15-3.41-2.15-5.84v-.45c0-1.63,.31-3.08,.93-4.35,.63-1.29,1.52-2.28,2.65-3,1.13-.71,2.4-1.07,3.8-1.07,2.22,0,3.93,.71,5.14,2.12,1.21,1.42,1.82,3.42,1.82,6.01v1.48h-10.65c.11,1.35,.56,2.41,1.34,3.19,.79,.78,1.79,1.17,2.98,1.17,1.68,0,3.04-.68,4.1-2.03l1.97,1.88c-.65,.97-1.53,1.73-2.62,2.27-1.08,.53-2.3,.8-3.66,.8Zm-.44-13.96c-1,0-1.82,.35-2.44,1.05-.61,.7-1,1.68-1.17,2.94h6.97v-.27c-.08-1.22-.41-2.15-.98-2.77-.57-.63-1.37-.95-2.38-.95Zm18.4,.71c-.48-.08-.98-.12-1.49-.12-1.68,0-2.81,.64-3.39,1.93v11.15h-3.66v-16.3h3.49l.09,1.82c.88-1.42,2.11-2.12,3.67-2.12,.52,0,.95,.07,1.3,.21v3.43Z"></path></svg>