<svg xmlns="http://www.w3.org/2000/svg" id="Group_104926" data-name="Group 104926" width="80" height="80" viewBox="0 0 80 80"><path id="Path_135333" data-name="Path 135333" d="M40,2.065a22.9,22.9,0,1,0,22.9,22.9A22.929,22.929,0,0,0,40,2.065Zm7.113,3.521A20.628,20.628,0,0,1,58.469,15.75l.936,1.868H50.394l-.271-.929a29.328,29.328,0,0,0-4.5-9.131L43.1,4.109Zm1.934,19.382a27.291,27.291,0,0,1-.294,3.99l-.162,1.1H31.409l-.162-1.1a27.222,27.222,0,0,1,0-7.98l.162-1.1H48.591l.162,1.1A27.271,27.271,0,0,1,49.047,24.968ZM40,4.649l.9.889A27.378,27.378,0,0,1,47.5,15.9l.607,1.72H31.9L32.5,15.9A27.378,27.378,0,0,1,39.1,5.538ZM21.531,15.75A20.628,20.628,0,0,1,32.887,5.586L36.9,4.109,34.374,7.558a29.328,29.328,0,0,0-4.5,9.131l-.271.929H20.595ZM19.756,29.022a20.7,20.7,0,0,1,0-8.109l.208-1.037H29.1l-.18,1.449a29.475,29.475,0,0,0,0,7.286l.18,1.448H19.964ZM32.887,44.35A20.634,20.634,0,0,1,21.531,34.185l-.936-1.867h9.011l.271.929a29.323,29.323,0,0,0,4.5,9.13l2.524,3.45ZM40,45.286l-.9-.889A27.378,27.378,0,0,1,32.5,34.037L31.9,32.318H48.1L47.5,34.037A27.378,27.378,0,0,1,40.9,44.4Zm18.469-11.1A20.634,20.634,0,0,1,47.113,44.35L43.1,45.827l2.524-3.45a29.323,29.323,0,0,0,4.5-9.13l.271-.929H59.4Zm1.567-4.126H50.9l.18-1.448a29.474,29.474,0,0,0,0-7.286l-.18-1.449h9.137l.208,1.037a20.7,20.7,0,0,1,0,8.109Z" fill="#5e5e5e"></path><path id="Path_135334" data-name="Path 135334" d="M44.7,58.387,80,40.517V0H77.742V39.129L40,58.235,2.258,39.129V0H0V40.517l35.3,17.87H9.677v9.678H5.968A5.974,5.974,0,0,0,0,74.032V80H80V74.032a5.974,5.974,0,0,0-5.968-5.967H70.323V58.387ZM11.935,60.645h56.13v7.42H11.935Zm62.1,9.678a3.714,3.714,0,0,1,3.71,3.709v3.71H2.258v-3.71a3.714,3.714,0,0,1,3.71-3.709Z" fill="#5e5e5e"></path></svg>