<svg xmlns="http://www.w3.org/2000/svg" width="79.999" height="80" viewBox="0 0 79.999 80"><path id="Path_136067" data-name="Path 136067" d="M6.164,80h0a6.163,6.163,0,0,0,4.346-1.74L32.2,56.566l.882.543A30.825,30.825,0,0,0,70.981,9.02,30.788,30.788,0,0,0,20.375,20l-.6,1.607-4.764-3.541.334-.88a7.93,7.93,0,1,0-7.412,5.119,7.819,7.819,0,0,0,4.95-1.744l.788-.631,5.5,4.086-.151.771a30.831,30.831,0,0,0,3.957,22.2l.514.835-.242.243L1.823,69.5A6.123,6.123,0,0,0,6.164,80ZM7.933,19.993a5.649,5.649,0,1,1,5.676-5.647A5.668,5.668,0,0,1,7.933,19.993Zm12.924,7.683.245-2.22,12.935,9.613-.334.879a7.935,7.935,0,1,0,14.29-1.117l-.475-.823L61.926,19.594l-1.392,9.868a1.153,1.153,0,0,0,.963,1.313,1.074,1.074,0,0,0,.8-.2,1.178,1.178,0,0,0,.47-.781l1.4-9.917A3.677,3.677,0,0,0,60.036,15.7l-9.914,1.4a1.166,1.166,0,0,0-.5,2.087,1.1,1.1,0,0,0,.809.2L60.28,18.01l-.264.266-14.1,14.1-.87-.5a8.061,8.061,0,0,0-8.876.7l-.788.631L35.1,33,21.737,23.069l.267-.84a28.576,28.576,0,1,1-1.147,5.447ZM35.438,38.793a5.676,5.676,0,1,1,5.675,5.651A5.668,5.668,0,0,1,35.438,38.793ZM10.56,63.99,24.829,49.72l.914,1.075c.523.619,1.095,1.239,1.7,1.843.582.585,1.2,1.157,1.844,1.7l1.03.88-.095.1L15.964,69.573l-5.492-5.494ZM3.4,71.148,8.854,65.7l.089.089,5.4,5.4-.089.089L8.933,76.606a3.921,3.921,0,0,1-5.532,0,3.863,3.863,0,0,1,0-5.458Z" fill="#5e5e5e"></path></svg>