<svg xmlns="http://www.w3.org/2000/svg" width="80" height="71.944" viewBox="0 0 80 71.944"><g id="Group_105213" data-name="Group 105213" transform="translate(0 -4.028)"><path id="Path_135640" data-name="Path 135640" d="M80,8.452a4.429,4.429,0,0,0-4.425-4.424H4.426A4.43,4.43,0,0,0,0,8.452v63.1a4.43,4.43,0,0,0,4.426,4.424H75.575A4.429,4.429,0,0,0,80,71.548Zm-2.137,63.1a2.29,2.29,0,0,1-2.288,2.287H4.426a2.29,2.29,0,0,1-2.287-2.287V24.96H77.863Zm0-48.726H2.139V8.452A2.29,2.29,0,0,1,4.426,6.165H75.575a2.29,2.29,0,0,1,2.288,2.287Z" fill="#5e5e5e"></path><path id="Path_135641" data-name="Path 135641" d="M71.944,65.78H70.6V44.027a2.414,2.414,0,0,0-2.411-2.411H61.479a2.413,2.413,0,0,0-2.411,2.411v8.329H51.809V49.4A2.414,2.414,0,0,0,49.4,46.986H42.685A2.414,2.414,0,0,0,40.274,49.4V65.78H38.933a1.069,1.069,0,1,0,0,2.137H71.944a1.069,1.069,0,1,0,0-2.137Zm-22.274,0H42.412V49.124H49.67Zm9.4,0H51.809V54.493h7.259Zm9.4,0h-7.26V43.753h7.26Z" fill="#5e5e5e"></path><path id="Path_135642" data-name="Path 135642" d="M54.145,42.212a1.1,1.1,0,0,0,1.377-.114L67.6,30.015a1.066,1.066,0,0,0,0-1.509,1.133,1.133,0,0,0-1.511,0L54.652,39.945l-8.66-6.185a1.066,1.066,0,0,0-1.317.058l-4.7,4.027a1.074,1.074,0,0,0-.116,1.508,1.06,1.06,0,0,0,.731.37,1.031,1.031,0,0,0,.777-.253l4.064-3.482Z" fill="#5e5e5e"></path><path id="Path_135643" data-name="Path 135643" d="M26.038,35.842a7.779,7.779,0,1,0,2.278,5.5A7.73,7.73,0,0,0,26.038,35.842Zm-5.5,11.144a5.643,5.643,0,1,1,5.644-5.644A5.65,5.65,0,0,1,20.535,46.986Z" fill="#5e5e5e"></path><path id="Path_135644" data-name="Path 135644" d="M33.888,61.207a14.435,14.435,0,0,0-3.1-4.6h0A14.488,14.488,0,0,0,6.042,66.849a1.069,1.069,0,0,0,2.137,0,12.355,12.355,0,1,1,24.711,0,1.069,1.069,0,0,0,2.138,0A14.4,14.4,0,0,0,33.888,61.207Z" fill="#5e5e5e"></path><path id="Path_135645" data-name="Path 135645" d="M11.137,9.4a5.1,5.1,0,1,0,5.1,5.1A5.1,5.1,0,0,0,11.137,9.4Zm0,8.055a2.959,2.959,0,1,1,2.96-2.958A2.961,2.961,0,0,1,11.137,17.452Z" fill="#5e5e5e"></path><path id="Path_135646" data-name="Path 135646" d="M24.9,9.4a5.1,5.1,0,1,0,5.1,5.1A5.1,5.1,0,0,0,24.9,9.4Zm0,8.055a2.958,2.958,0,1,1,2.959-2.958A2.962,2.962,0,0,1,24.9,17.452Z" fill="#5e5e5e"></path><path id="Path_135647" data-name="Path 135647" d="M38.658,9.4a5.1,5.1,0,1,0,5.1,5.1A5.1,5.1,0,0,0,38.658,9.4Zm0,8.055a2.958,2.958,0,1,1,2.958-2.958A2.962,2.962,0,0,1,38.658,17.452Z" fill="#5e5e5e"></path></g></svg>