<svg xmlns="http://www.w3.org/2000/svg" id="Group_104922" data-name="Group 104922" width="80" height="80" viewBox="0 0 80 80"><path id="Path_135306" data-name="Path 135306" d="M64.843,50.816l1.61-4.959A1.8,1.8,0,0,0,65.3,43.6l-1.986-.649.034-.306a23.4,23.4,0,0,0,0-5.291l-.034-.306L65.3,36.4a1.8,1.8,0,0,0,1.154-2.26l-1.611-4.95a1.8,1.8,0,0,0-2.259-1.152l-1.995.649-.153-.269a23.677,23.677,0,0,0-3.108-4.281l-.209-.227,1.234-1.7a1.8,1.8,0,0,0-.4-2.5l-4.214-3.061a1.8,1.8,0,0,0-2.5.388l-1.221,1.691-.282-.129a23.416,23.416,0,0,0-5.031-1.637l-.3-.061V14.812a1.8,1.8,0,0,0-1.8-1.793H37.4A1.8,1.8,0,0,0,35.6,14.812V16.9l-.3.062A23.4,23.4,0,0,0,30.269,18.6l-.281.129-1.235-1.7a1.8,1.8,0,0,0-2.505-.4L22.033,19.7a1.8,1.8,0,0,0-.394,2.5L22.872,23.9l-.209.228a23.679,23.679,0,0,0-3.109,4.28l-.153.268-1.995-.648a1.8,1.8,0,0,0-2.259,1.152l-1.611,4.959A1.8,1.8,0,0,0,14.688,36.4l1.993.649-.035.306a23.4,23.4,0,0,0,0,5.291l.035.306-1.987.648a1.8,1.8,0,0,0-1.153,2.26l1.61,4.95a1.8,1.8,0,0,0,2.259,1.152l2-.649.153.269a23.564,23.564,0,0,0,3.109,4.281l.209.227-1.236,1.7a1.8,1.8,0,0,0,.4,2.514l-.223.305h0l.224-.305,4.214,3.062a1.8,1.8,0,0,0,2.5-.392l1.222-1.693.282.129a23.416,23.416,0,0,0,5.031,1.637l.3.061v2.092a1.8,1.8,0,0,0,1.8,1.788H42.6A1.8,1.8,0,0,0,44.4,65.188V63.1l.3-.062A23.421,23.421,0,0,0,49.731,61.4l.282-.129,1.223,1.7a1.806,1.806,0,0,0,2.505.394l4.215-3.064a1.8,1.8,0,0,0,.394-2.5L57.118,56.1l.209-.228a23.6,23.6,0,0,0,3.108-4.279l.152-.269,2,.648A1.8,1.8,0,0,0,64.843,50.816Zm-1.73-.633-1.989-.646a1.8,1.8,0,0,0-2.128.85,21.77,21.77,0,0,1-3.243,4.464,1.8,1.8,0,0,0-.151,2.286l1.228,1.692-4.128,3-1.229-1.693a1.793,1.793,0,0,0-2.223-.558,21.523,21.523,0,0,1-5.232,1.7,1.794,1.794,0,0,0-1.471,1.759v2.093h-5.1V63.043a1.792,1.792,0,0,0-1.469-1.757,21.567,21.567,0,0,1-5.232-1.7,1.8,1.8,0,0,0-2.227.558L27.3,61.831l-4.129-3,1.232-1.7a1.8,1.8,0,0,0-.155-2.283,21.827,21.827,0,0,1-3.235-4.46,1.8,1.8,0,0,0-2.123-.849l-1.989.647L15.318,45.34l1.988-.644a1.806,1.806,0,0,0,1.222-1.938,21.6,21.6,0,0,1,0-5.507,1.8,1.8,0,0,0-1.221-1.937l-1.989-.646L16.9,29.817l1.987.646a1.8,1.8,0,0,0,2.129-.851,21.839,21.839,0,0,1,3.235-4.463,1.8,1.8,0,0,0,.151-2.286l-1.229-1.692,4.129-3,1.229,1.693a1.8,1.8,0,0,0,2.223.558,21.523,21.523,0,0,1,5.232-1.7,1.794,1.794,0,0,0,1.471-1.759V14.868h5.1v2.089a1.794,1.794,0,0,0,1.47,1.757,21.6,21.6,0,0,1,5.232,1.7,1.794,1.794,0,0,0,2.226-.558l1.227-1.692,4.129,3-1.231,1.7a1.8,1.8,0,0,0,.155,2.282A21.846,21.846,0,0,1,59,29.6a1.8,1.8,0,0,0,2.126.852l1.99-.647,1.577,4.853L62.7,35.3a1.8,1.8,0,0,0-1.223,1.938,21.6,21.6,0,0,1,0,5.507A1.8,1.8,0,0,0,62.7,44.686l1.988.646Z" fill="#5e5e5e"></path><path id="Path_135307" data-name="Path 135307" d="M40,23.442A16.558,16.558,0,1,0,56.552,40,16.575,16.575,0,0,0,40,23.442ZM40,54.71A14.71,14.71,0,1,1,54.705,40,14.724,14.724,0,0,1,40,54.71Z" fill="#5e5e5e"></path><path id="Path_135308" data-name="Path 135308" d="M35.889,47.321l11.723-6.513a.928.928,0,0,0,.358-1.258.945.945,0,0,0-.359-.359L35.889,32.679a.91.91,0,0,0-.447-.117.929.929,0,0,0-.255.036.929.929,0,0,0-.67.888V46.514a.93.93,0,0,0,.456.8h0A.925.925,0,0,0,35.889,47.321Zm.476-12.264L45.26,40l-8.895,4.943Z" fill="#5e5e5e"></path><path id="Path_135309" data-name="Path 135309" d="M40,1.839A38.3,38.3,0,0,1,57.465,6.074l.866-1.634a40.011,40.011,0,0,0-53.887,53.9l1.634-.866A38.166,38.166,0,0,1,40,1.839Z" fill="#5e5e5e"></path><path id="Path_135310" data-name="Path 135310" d="M75.556,21.663l-1.634.866a38.154,38.154,0,0,1-51.387,51.4l-.866,1.634a40.011,40.011,0,0,0,53.887-53.9Z" fill="#5e5e5e"></path><path id="Path_135311" data-name="Path 135311" d="M71.909,7.808H64.094a.925.925,0,0,0-.923.924v7.817a.924.924,0,0,0,.923.924h7.815a.924.924,0,0,0,.924-.924V8.732A.925.925,0,0,0,71.909,7.808Zm-.923,7.817H65.019V9.656h5.967Z" fill="#5e5e5e"></path><path id="Path_135312" data-name="Path 135312" d="M15.9,62.527H8.09a.925.925,0,0,0-.924.924v7.817a.927.927,0,0,0,.924.925H15.9a.926.926,0,0,0,.924-.925V63.451A.924.924,0,0,0,15.9,62.527Zm-.924,7.817H9.014V64.375h5.967Z" fill="#5e5e5e"></path></svg>