<svg xmlns="http://www.w3.org/2000/svg" width="80" height="61.579" viewBox="0 0 80 61.579"><g id="Group_105831" data-name="Group 105831" transform="translate(0 -9.211)"><path id="Path_136034" data-name="Path 136034" d="M23.215,28.573a12.284,12.284,0,0,1,4.633-.908,1,1,0,1,0,0-1.991,14.322,14.322,0,0,0,0,28.642,1,1,0,1,0,0-1.992,12.327,12.327,0,0,1-4.633-23.751Z" fill="#5e5e5e"></path><path id="Path_136035" data-name="Path 136035" d="M.81,45.279l3.584,1.213a25.057,25.057,0,0,0,2.668,6.117L5.5,56.094a.994.994,0,0,0,.213,1.12l5.606,5.469a1,1,0,0,0,1.136.181l3.432-1.695a22.489,22.489,0,0,0,6.211,2.45l1.33,3.575a1,1,0,0,0,.934.649h.016l3.485-.06a1,1,0,1,0-.034-1.992l-2.781.048-1.273-3.424a1,1,0,0,0-.733-.628,20.517,20.517,0,0,1-6.592-2.6,1,1,0,0,0-.96-.043l-3.285,1.622-4.6-4.49L9.1,52.941A.993.993,0,0,0,9.027,52a23.026,23.026,0,0,1-2.849-6.533,1,1,0,0,0-.644-.691L2.112,43.618,2,37.2l3.424-1.274a.993.993,0,0,0,.628-.732,20.555,20.555,0,0,1,2.6-6.594,1,1,0,0,0,.043-.961L7.076,24.352l4.493-4.6L14.9,21.242a.993.993,0,0,0,.941-.068,23.07,23.07,0,0,1,6.533-2.85.992.992,0,0,0,.691-.643l1.159-3.422,3.639-.061a1,1,0,1,0-.033-1.991l-4.341.074a1,1,0,0,0-.927.676L21.35,16.542a25,25,0,0,0-6.117,2.668l-3.485-1.562a.994.994,0,0,0-1.119.213l-5.469,5.6A1,1,0,0,0,4.979,24.6l1.7,3.432a22.5,22.5,0,0,0-2.452,6.212L.649,35.576A1,1,0,0,0,0,36.527l.133,7.826A1,1,0,0,0,.81,45.279Z" fill="#5e5e5e"></path><path id="Path_136036" data-name="Path 136036" d="M29.85,39V40.99H69.579a5.257,5.257,0,1,0,0-1.991Zm42.58-1.311a3.262,3.262,0,1,1,0,4.613A3.262,3.262,0,0,1,72.43,37.688Z" fill="#5e5e5e"></path><path id="Path_136037" data-name="Path 136037" d="M61.122,20.6a5.256,5.256,0,0,0-5.159,4.257h-8.39a5.339,5.339,0,0,0-5.332,5.332,3.345,3.345,0,0,1-3.34,3.341H29.85v1.991H38.9a5.338,5.338,0,0,0,5.332-5.332,3.344,3.344,0,0,1,3.34-3.341h8.39A5.253,5.253,0,1,0,61.122,20.6Zm2.306,7.559a3.26,3.26,0,1,1,0-4.614A3.261,3.261,0,0,1,63.428,28.161Z" fill="#5e5e5e"></path><path id="Path_136038" data-name="Path 136038" d="M61.122,59.388a5.252,5.252,0,1,0-5.159-6.249h-8.39a3.344,3.344,0,0,1-3.34-3.34A5.339,5.339,0,0,0,38.9,44.466H29.85v1.992H38.9a3.344,3.344,0,0,1,3.34,3.341,5.339,5.339,0,0,0,5.332,5.332h8.39A5.256,5.256,0,0,0,61.122,59.388Zm-2.307-7.559a3.252,3.252,0,1,1-.959,2.306A3.26,3.26,0,0,1,58.815,51.829Z" fill="#5e5e5e"></path><path id="Path_136039" data-name="Path 136039" d="M48.306,61.819a5.216,5.216,0,0,0-1.514,3.208H45.664a4.482,4.482,0,0,1-4.187-2.915L38.657,54.5A6.484,6.484,0,0,0,32.6,50.284H29.85v1.991H32.6a4.483,4.483,0,0,1,4.187,2.914L39.61,62.8a6.482,6.482,0,0,0,6.054,4.214h1.317a5.255,5.255,0,1,0,1.326-5.2Zm6.977,3.714a3.259,3.259,0,1,1-.956-2.307A3.259,3.259,0,0,1,55.283,65.533Z" fill="#5e5e5e"></path><path id="Path_136040" data-name="Path 136040" d="M38.657,25.492l2.82-7.615a4.482,4.482,0,0,1,4.187-2.914h1.128a5.241,5.241,0,1,0,.189-1.992H45.664a6.481,6.481,0,0,0-6.054,4.214L36.788,24.8A4.482,4.482,0,0,1,32.6,27.714H29.85v1.992H32.6A6.484,6.484,0,0,0,38.657,25.492ZM49.715,12.15a3.262,3.262,0,1,1-.955,2.306,3.261,3.261,0,0,1,.955-2.306Z" fill="#5e5e5e"></path></g></svg>