<svg xmlns="http://www.w3.org/2000/svg" id="Group_104925" data-name="Group 104925" width="80" height="80" viewBox="0 0 80 80"><path id="Path_135325" data-name="Path 135325" d="M21.606,0H1.064A1.065,1.065,0,0,0,0,1.064V21.606a1.064,1.064,0,1,0,2.127,0V2.127H21.606a1.064,1.064,0,1,0,0-2.127Z" fill="#5e5e5e"></path><path id="Path_135326" data-name="Path 135326" d="M78.936,57.33a1.065,1.065,0,0,0-1.063,1.064V77.873H58.394a1.063,1.063,0,1,0,0,2.127H78.936A1.065,1.065,0,0,0,80,78.936V58.394A1.065,1.065,0,0,0,78.936,57.33Z" fill="#5e5e5e"></path><path id="Path_135327" data-name="Path 135327" d="M78.936,22.67A1.065,1.065,0,0,0,80,21.606V1.064A1.065,1.065,0,0,0,78.936,0H58.394a1.064,1.064,0,1,0,0,2.127H77.873V21.606A1.065,1.065,0,0,0,78.936,22.67Z" fill="#5e5e5e"></path><path id="Path_135328" data-name="Path 135328" d="M1.064,57.33A1.065,1.065,0,0,0,0,58.394V78.936A1.065,1.065,0,0,0,1.064,80H21.606a1.063,1.063,0,1,0,0-2.127H2.127V58.394A1.065,1.065,0,0,0,1.064,57.33Z" fill="#5e5e5e"></path><path id="Path_135329" data-name="Path 135329" d="M40,14.421A25.579,25.579,0,1,0,65.579,40,25.608,25.608,0,0,0,40,14.421Zm0,49.031A23.452,23.452,0,1,1,63.452,40,23.478,23.478,0,0,1,40,63.452Z" fill="#5e5e5e"></path><path id="Path_135330" data-name="Path 135330" d="M44.664,53.259a13.98,13.98,0,0,0,8.564-8.519,1.066,1.066,0,0,0-.627-1.357l-.017-.006a1.064,1.064,0,0,0-1.357.631l0,.013c-.007.018-.012.035-.018.051l-.01.027a11.915,11.915,0,0,1-22.432-.138,1.065,1.065,0,0,0-1.338-.706,1.064,1.064,0,0,0-.7,1.335A14.077,14.077,0,0,0,44.664,53.259Z" fill="#5e5e5e"></path><path id="Path_135331" data-name="Path 135331" d="M32.79,28.842a1.065,1.065,0,0,0-1.064,1.063v8.653a1.064,1.064,0,0,0,2.128,0V29.905A1.065,1.065,0,0,0,32.79,28.842Z" fill="#5e5e5e"></path><path id="Path_135332" data-name="Path 135332" d="M47.21,28.842a1.065,1.065,0,0,0-1.064,1.063v8.653a1.064,1.064,0,0,0,2.128,0V29.905A1.065,1.065,0,0,0,47.21,28.842Z" fill="#5e5e5e"></path></svg>