<svg xmlns="http://www.w3.org/2000/svg" width="80.001" height="80" viewBox="0 0 80.001 80"><g id="Group_104927" data-name="Group 104927" transform="translate(0 0)"><path id="Path_135335" data-name="Path 135335" d="M77.352,64.583,65.179,52.439a1.129,1.129,0,0,0-1.649,0l-.7.695L57.788,48.1l.222-.345a30.7,30.7,0,0,0-.166-33.515A31.52,31.52,0,0,0,4.1,15.907a30.472,30.472,0,0,0,0,30.522,31.088,31.088,0,0,0,43.425,11.46l.34-.208,5.206,5.194-.7.695a1.122,1.122,0,0,0,0,1.645L64.544,77.358A9.045,9.045,0,0,0,77.352,64.583ZM31.319,60.172c-.286,0-.571-.005-.858-.013A29.318,29.318,0,0,1,5.924,45.42a28.313,28.313,0,0,1,0-28.167,29.129,29.129,0,0,1,49.724-1.544,27.836,27.836,0,0,1,0,31.257A29.148,29.148,0,0,1,31.319,60.172Zm18.569-3.76.468-.351a33.2,33.2,0,0,0,5.493-5.316l.356-.425,4.815,4.8-6.309,6.1ZM70.8,77.632h-.128A6.292,6.292,0,0,1,66.18,75.7L54.845,64.393l9.34-9.317L75.534,66.4a6.586,6.586,0,0,1,0,9.317A6.717,6.717,0,0,1,70.8,77.632Z" fill="#5e5e5e"></path><path id="Path_135336" data-name="Path 135336" d="M31.048,16.663c-8.722,0-17.12,4.832-24.285,13.973a1.647,1.647,0,0,0,.033,1.44c7.324,9.116,15.769,13.933,24.42,13.933,8.723,0,17.121-4.831,24.285-13.972a1.041,1.041,0,0,0,.041-1.355C48.336,21.5,39.881,16.663,31.048,16.663Zm22.13,14.674-.267.322c-6.5,7.844-14,11.99-21.695,11.99S16.018,39.5,9.522,31.659l-.266-.322.266-.323c6.495-7.843,14-11.989,21.694-11.989s15.2,4.146,21.695,11.989Z" fill="#5e5e5e"></path><path id="Path_135337" data-name="Path 135337" d="M31.216,24.085a7.252,7.252,0,1,0,7.27,7.252A7.358,7.358,0,0,0,31.216,24.085Zm0,12.143a4.892,4.892,0,1,1,4.9-4.891A4.962,4.962,0,0,1,31.216,36.228Z" fill="#5e5e5e"></path></g></svg>