<svg xmlns="http://www.w3.org/2000/svg" id="Group_104924" data-name="Group 104924" width="80" height="80" viewBox="0 0 80 80"><path id="Path_135319" data-name="Path 135319" d="M79.976,39.573a3.651,3.651,0,0,0-3.627-3.231h-.006a3.665,3.665,0,0,0-3.435,2.439l-.088.252H62.331l.084-.448a5.15,5.15,0,0,0-.251-2.8A3.731,3.731,0,0,0,60.676,34l-.219-.139.05-.256c.83-4.191,1.561-12.052-2.859-17.6-3.263-4.093-8.749-6.287-16.306-6.52l-.367-.012V7.2l.252-.09a3.659,3.659,0,1,0-2.438,0l.252.089V9.47l-.367.012C31.116,9.715,25.63,11.909,22.367,16c-4.421,5.544-3.689,13.409-2.859,17.6l.05.256L19.339,34a3.723,3.723,0,0,0-1.488,1.793,5.124,5.124,0,0,0-.249,2.8l.085.449H7.2l-.089-.252a3.658,3.658,0,1,0,0,2.439L7.2,40.97H18.391l.1.212c.256.522.465.984.637,1.4a7.486,7.486,0,0,1,.6,2.849,3.84,3.84,0,0,0,3.292,4.14l.31.043.016.313a17.456,17.456,0,0,0,1.5,6.29,11.551,11.551,0,0,0,3.561,3.6,28.825,28.825,0,0,0,3.433,2.1,1.947,1.947,0,0,1,.6.485,11.128,11.128,0,0,0,6.31,4.011l.3.067v6.323l-.252.089a3.658,3.658,0,1,0,2.438,0l-.252-.09V66.482l.3-.067a11.112,11.112,0,0,0,6.3-4,1.9,1.9,0,0,1,.574-.478,29.144,29.144,0,0,0,3.442-2.111A11.581,11.581,0,0,0,55.2,56.151a17.431,17.431,0,0,0,1.466-6.231l.016-.314.311-.043a3.828,3.828,0,0,0,3.291-4.072,7.537,7.537,0,0,1,.6-2.919c.171-.408.381-.871.639-1.394l.1-.211H72.819l.089.251a3.652,3.652,0,0,0,7.068-1.645Zm-76.3,2.151A1.724,1.724,0,1,1,5.4,40,1.727,1.727,0,0,1,3.675,41.724ZM41.366,11.412c6.917.23,11.886,2.179,14.771,5.793h0c3.682,4.619,3.4,11.119,2.524,15.759l-.389,2.045-.356-2.051c-.505-2.9-2.1-9.922-5.989-12.379a2.338,2.338,0,0,0-3.2.614c-.557.8-2.391,2.7-7.351,3l-.4.023V11.4ZM38.284,3.674A1.724,1.724,0,1,1,40.008,5.4,1.726,1.726,0,0,1,38.284,3.674ZM23.879,17.206h0c2.885-3.614,7.854-5.563,14.771-5.793l.391-.012V24.214l-.4-.024c-4.789-.288-6.675-2.021-7.373-3.027a2.337,2.337,0,0,0-3.165-.589c-3.9,2.466-5.494,9.482-6,12.385l-.354,2.046-.391-2.04C20.473,28.33,20.19,21.834,23.879,17.206Zm17.853,59.12A1.724,1.724,0,1,1,40.008,74.6,1.726,1.726,0,0,1,41.732,76.326ZM60.4,38.769l-.083.264H49.427a.967.967,0,0,0,0,1.934h10.05l-.381.871a9.442,9.442,0,0,0-.745,3.659,2.234,2.234,0,0,1-.5,1.569,3.044,3.044,0,0,1-2.128.671.964.964,0,0,0-.937.968,17.252,17.252,0,0,1-1.3,6.557,10.022,10.022,0,0,1-3.036,3,26.756,26.756,0,0,1-3.192,1.956,3.86,3.86,0,0,0-1.175.967,9.473,9.473,0,0,1-4.612,3.2l-.493.157V49.418a.967.967,0,0,0-1.934,0V64.541l-.493-.156a9.489,9.489,0,0,1-4.624-3.208,3.882,3.882,0,0,0-1.2-.975,27.175,27.175,0,0,1-3.184-1.955A10.034,10.034,0,0,1,26.57,55.34,17.549,17.549,0,0,1,25.225,48.7a.969.969,0,0,0-.967-.969,2.976,2.976,0,0,1-2.035-.609,2.308,2.308,0,0,1-.563-1.7,9.4,9.4,0,0,0-.746-3.589l-.37-.871H30.588a.967.967,0,1,0,0-1.934H19.7l-.083-.263a3.611,3.611,0,0,1,.02-2.238,1.8,1.8,0,0,1,1.012-1.056,2.078,2.078,0,0,1,.774-.149h.009a2.528,2.528,0,0,1,1,.217.967.967,0,0,0,1.354-.773c.01-.1,1.146-9.908,5.4-12.574L29.5,22l.206.3c.9,1.3,3.273,3.535,8.983,3.837l.359.019v4.427a.967.967,0,0,0,1.934,0V26.149l.359-.019c5.339-.281,7.869-2.236,9.05-3.826l.209-.282.3.188c3.484,2.2,5.036,9.81,5.34,12.555a.967.967,0,0,0,1.354.772,2.332,2.332,0,0,1,1.769-.063,1.814,1.814,0,0,1,1.022,1.056A3.579,3.579,0,0,1,60.4,38.769Zm15.941,2.955A1.724,1.724,0,1,1,78.065,40,1.727,1.727,0,0,1,76.341,41.724Z" fill="#5e5e5e"></path><path id="Path_135320" data-name="Path 135320" d="M40.008,35a5,5,0,1,0,5,5A5.01,5.01,0,0,0,40.008,35Zm0,8.072A3.069,3.069,0,1,1,43.078,40,3.073,3.073,0,0,1,40.008,43.069Z" fill="#5e5e5e"></path><path id="Path_135321" data-name="Path 135321" d="M27.9,2.707H11.749a9.066,9.066,0,0,0-9.041,9.04V27.891a.967.967,0,0,0,1.934,0V11.747a7.125,7.125,0,0,1,7.107-7.106H27.9a.967.967,0,1,0,0-1.934Z" fill="#5e5e5e"></path><path id="Path_135322" data-name="Path 135322" d="M76.341,28.858a.968.968,0,0,0,.967-.967V11.747a9.066,9.066,0,0,0-9.042-9.04H52.119a.967.967,0,0,0,0,1.934H68.266a7.126,7.126,0,0,1,7.108,7.105V27.891A.968.968,0,0,0,76.341,28.858Z" fill="#5e5e5e"></path><path id="Path_135323" data-name="Path 135323" d="M3.675,51.141a.968.968,0,0,0-.967.967V68.253a9.068,9.068,0,0,0,9.042,9.04H27.9a.967.967,0,1,0,0-1.934H11.749a7.126,7.126,0,0,1-7.107-7.106V52.108A.968.968,0,0,0,3.675,51.141Z" fill="#5e5e5e"></path><path id="Path_135324" data-name="Path 135324" d="M76.341,51.141a.968.968,0,0,0-.967.967V68.253a7.127,7.127,0,0,1-7.107,7.106H52.119a.967.967,0,1,0,0,1.934H68.265a9.068,9.068,0,0,0,9.043-9.04V52.108A.968.968,0,0,0,76.341,51.141Z" fill="#5e5e5e"></path></svg>