<svg xmlns="http://www.w3.org/2000/svg" width="62.668" height="80" viewBox="0 0 62.668 80"><g id="Group_104923" data-name="Group 104923" transform="translate(-8.666)"><path id="Path_135313" data-name="Path 135313" d="M71.334,13.282a.925.925,0,0,0-.273-.658L58.71.273A.939.939,0,0,0,58.053,0H9.594a.929.929,0,0,0-.928.929V79.071A.929.929,0,0,0,9.594,80H70.406a.929.929,0,0,0,.928-.929ZM58.976,3.167l.215.214L68.214,12.4H58.976Zm10.5,74.974H10.523V1.859H57.117V13.335a.93.93,0,0,0,.93.928h11.43Z" fill="#5e5e5e"></path><path id="Path_135314" data-name="Path 135314" d="M28.089,11.842,19.316,34.827a.929.929,0,1,0,1.737.662L23.8,28.278H34.1l.031.08,2.719,7.131a.932.932,0,0,0,1.742-.663L29.827,11.843a.929.929,0,0,0-.866-.6.94.94,0,0,0-.872.6Zm.982,3.246,4.322,11.33H24.514l.065-.17,4.375-11.466Z" fill="#5e5e5e"></path><path id="Path_135315" data-name="Path 135315" d="M43.518,17.476h3.936a.93.93,0,1,0,0-1.86H43.518V11.695a.93.93,0,1,0-1.859,0v3.921H37.723a.93.93,0,1,0,0,1.86h3.936V21.4a.93.93,0,0,0,1.859,0Z" fill="#5e5e5e"></path><path id="Path_135316" data-name="Path 135316" d="M59.816,44.884H20.184a.93.93,0,0,0,0,1.86H59.816a.93.93,0,0,0,0-1.86Z" fill="#5e5e5e"></path><path id="Path_135317" data-name="Path 135317" d="M59.816,56.13H20.184a.929.929,0,0,0,0,1.859H59.816a.929.929,0,0,0,0-1.859Z" fill="#5e5e5e"></path><path id="Path_135318" data-name="Path 135318" d="M59.816,67.377H20.184a.93.93,0,0,0,0,1.859H59.816a.93.93,0,0,0,0-1.859Z" fill="#5e5e5e"></path></g></svg>