<svg xmlns="http://www.w3.org/2000/svg" id="Group_105211" data-name="Group 105211" width="80" height="80" viewBox="0 0 80 80"><path id="Path_135636" data-name="Path 135636" d="M40,25.974A14.026,14.026,0,1,0,54.026,40,14.042,14.042,0,0,0,40,25.974Zm0,25.974A11.948,11.948,0,1,1,51.948,40,11.962,11.962,0,0,1,40,51.948Z" fill="#5e5e5e"></path><path id="Path_135637" data-name="Path 135637" d="M69.486,42.469l.118-1.43h9.357a1.039,1.039,0,0,0,0-2.078H69.6l-.118-1.43A29.481,29.481,0,0,0,42.469,10.514l-1.43-.118V1.039a1.039,1.039,0,0,0-2.078,0V10.4l-1.43.118A29.482,29.482,0,0,0,10.514,37.531l-.118,1.43H1.039a1.039,1.039,0,0,0,0,2.078H10.4l.118,1.43A29.481,29.481,0,0,0,37.531,69.486l1.43.118v9.357a1.039,1.039,0,0,0,2.078,0V69.6l1.43-.118A29.481,29.481,0,0,0,69.486,42.469ZM40,67.532A27.532,27.532,0,1,1,67.532,40,27.562,27.562,0,0,1,40,67.532Z" fill="#5e5e5e"></path></svg>