<svg xmlns="http://www.w3.org/2000/svg" id="Group_104921" data-name="Group 104921" width="80" height="80" viewBox="0 0 80 80"><path id="Path_135304" data-name="Path 135304" d="M40,0A40,40,0,1,0,80,40,40.045,40.045,0,0,0,40,0Zm0,77.993A37.993,37.993,0,1,1,77.993,40,38.037,38.037,0,0,1,40,77.993Z" fill="#5e5e5e"></path><path id="Path_135305" data-name="Path 135305" d="M32.927,62.221H47.073a.993.993,0,0,0,1-1V48.076H61.217a.993.993,0,0,0,1-1V32.928a1.132,1.132,0,0,0-1-1H48.076V18.783a.993.993,0,0,0-1-1H32.927a.993.993,0,0,0-1,1V31.924H18.783a.993.993,0,0,0-1,1V47.072a.993.993,0,0,0,1,1H31.924V61.217A.993.993,0,0,0,32.927,62.221ZM19.787,46.069V33.931h13.14a.993.993,0,0,0,1.005-1V19.787H46.167V32.928a.993.993,0,0,0,1,1H60.312V46.069H47.073a.993.993,0,0,0-1.005,1V60.213H33.932V47.072a.993.993,0,0,0-1.005-1Z" fill="#5e5e5e"></path></svg>