<svg xmlns="http://www.w3.org/2000/svg" width="45.764" height="80" viewBox="0 0 45.764 80"><g id="Group_104928" data-name="Group 104928" transform="translate(-24.118)"><path id="Path_135338" data-name="Path 135338" d="M64.671,0H29.329a5.218,5.218,0,0,0-5.211,5.212V74.788A5.218,5.218,0,0,0,29.329,80H64.671a5.218,5.218,0,0,0,5.211-5.212V5.212A5.218,5.218,0,0,0,64.671,0Zm-38.7,5.212a3.361,3.361,0,0,1,3.356-3.357H64.671a3.361,3.361,0,0,1,3.356,3.357v6.445H25.973ZM68.027,74.788a3.361,3.361,0,0,1-3.356,3.357H29.329a3.361,3.361,0,0,1-3.356-3.357V68.343H68.027Zm0-8.3H25.973V13.512H68.027V66.488Z" fill="#5e5e5e"></path><path id="Path_135339" data-name="Path 135339" d="M44.467,73.593h5.066a.928.928,0,0,0,0-1.856H44.467a.928.928,0,0,0,0,1.856Z" fill="#5e5e5e"></path><path id="Path_135340" data-name="Path 135340" d="M41.485,5.877H40.5a.928.928,0,0,0,0,1.855h.989a.928.928,0,1,0,0-1.855Z" fill="#5e5e5e"></path><path id="Path_135341" data-name="Path 135341" d="M53.5,5.877H47.55a.928.928,0,0,0,0,1.855H53.5a.928.928,0,0,0,0-1.855Z" fill="#5e5e5e"></path><path id="Path_135342" data-name="Path 135342" d="M46.578,45.112A12.326,12.326,0,1,0,34.252,32.786,12.34,12.34,0,0,0,46.578,45.112Zm0-22.8a10.472,10.472,0,1,1-10.47,10.472A10.483,10.483,0,0,1,46.578,22.314Z" fill="#5e5e5e"></path><path id="Path_135343" data-name="Path 135343" d="M44.553,35.984a.953.953,0,0,0,1.312,0L50.948,30.9a.927.927,0,1,0-1.311-1.312l-4.428,4.428L43.52,32.328a.927.927,0,1,0-1.312,1.311Z" fill="#5e5e5e"></path><path id="Path_135344" data-name="Path 135344" d="M59.619,50.828H33.537a4.139,4.139,0,0,0,0,8.279H59.619a4.139,4.139,0,0,0,0-8.279ZM33.537,57.251a2.284,2.284,0,0,1,0-4.567H45.792L42.98,57.251Zm26.082,0H45.159l2.813-4.567H59.619a2.284,2.284,0,1,1,0,4.567Z" fill="#5e5e5e"></path></g></svg>