<svg xmlns="http://www.w3.org/2000/svg" width="80" height="73.358" viewBox="0 0 80 73.358"><g id="Group_105214" data-name="Group 105214" transform="translate(0 -3.321)"><path id="Path_135648" data-name="Path 135648" d="M56.966,54.336A54.725,54.725,0,0,0,63.827,37.6l.067-.295H64.2A15.747,15.747,0,1,0,49.639,15.579l-.153.375-.363-.178A47.939,47.939,0,0,1,33.392,3.722a.969.969,0,0,0-.766-.4.917.917,0,0,0-.714.339,45.883,45.883,0,0,1-8.432,7.673A51.577,51.577,0,0,1,.874,20.588a.929.929,0,0,0-.785.864A56.369,56.369,0,0,0,4.1,46.019,58.206,58.206,0,0,0,14.971,63.068,62.406,62.406,0,0,0,32.237,76.594a.924.924,0,0,0,.778,0A58.848,58.848,0,0,0,46.8,66.7,61.34,61.34,0,0,0,56.966,54.336Zm7.271-46.7a13.91,13.91,0,1,1-13.915,13.91A13.928,13.928,0,0,1,64.237,7.635ZM53.091,32.688a15.977,15.977,0,0,0,2.8,2.23l.213.133-.04.248A42.36,42.36,0,0,1,43.289,59.222a48.017,48.017,0,0,1-10.483,7.789l-.179.1-.177-.1a49.246,49.246,0,0,1-12.493-9.964,42.045,42.045,0,0,1-11.332-30.5l.01-.307.3-.054a42.112,42.112,0,0,0,9.609-2.919,43.278,43.278,0,0,0,7.848-4.484,40.546,40.546,0,0,0,5.94-5.189l.282-.3.276.307a36.613,36.613,0,0,0,3.923,3.71A41.2,41.2,0,0,0,48.472,24l.2.077.037.213A15.626,15.626,0,0,0,53.091,32.688ZM32.8,74.63l-.177.092-.175-.092a50.615,50.615,0,0,1-4.988-3.075,65.58,65.58,0,0,1-11.124-9.73A53.677,53.677,0,0,1,1.886,22.6L1.9,22.3l.3-.051a53.3,53.3,0,0,0,12.432-3.739,54.8,54.8,0,0,0,9.927-5.673,50.468,50.468,0,0,0,7.775-6.847l.284-.31.279.314a45.053,45.053,0,0,0,4.07,3.984A52.64,52.64,0,0,0,48.66,17.607l.272.13-.066.3a15.937,15.937,0,0,0-.39,3.432l0,.562-.519-.214A37.676,37.676,0,0,1,33.393,11.341a.925.925,0,0,0-1.481-.064,35.8,35.8,0,0,1-6.6,6,40.428,40.428,0,0,1-17.7,7.247.929.929,0,0,0-.785.864,44.558,44.558,0,0,0,3.17,19.418,46.039,46.039,0,0,0,8.592,13.475,50.272,50.272,0,0,0,13.65,10.691.957.957,0,0,0,.786,0c.2-.094,20.591-9.913,24.716-32.561l.083-.459.432.177a15.71,15.71,0,0,0,3.382.956l.4.066-.092.394a54.908,54.908,0,0,1-16.407,27.8A61.054,61.054,0,0,1,32.8,74.63Z" fill="#5e5e5e"></path><path id="Path_135649" data-name="Path 135649" d="M72.378,17.246a.925.925,0,0,0,.1-1.3.912.912,0,0,0-.631-.319.923.923,0,0,0-.671.22h0L60.219,25.262,57.38,22.175a.924.924,0,0,0-.641-.3H56.7a.912.912,0,0,0-.624.245.924.924,0,0,0-.055,1.305l3.444,3.745a.943.943,0,0,0,1.282.074Z" fill="#5e5e5e"></path><path id="Path_135650" data-name="Path 135650" d="M33.328,33.152A6.773,6.773,0,1,0,40.1,39.925,6.78,6.78,0,0,0,33.328,33.152Zm0,11.7a4.926,4.926,0,1,1,4.925-4.925A4.931,4.931,0,0,1,33.328,44.851Z" fill="#5e5e5e"></path><path id="Path_135651" data-name="Path 135651" d="M48.562,42.152V38.19a.922.922,0,0,0-.822-.917l-2.7-.3-.068-.247A11.861,11.861,0,0,0,44,34.276l-.117-.22,1.756-2.195a.921.921,0,0,0-.069-1.23l-2.8-2.8a.921.921,0,0,0-1.23-.069L39.39,29.479l-.222-.123a11.961,11.961,0,0,0-2.381-1l-.239-.072-.321-2.864a.922.922,0,0,0-.917-.822H31.347a.922.922,0,0,0-.918.822l-.32,2.864-.24.072a11.909,11.909,0,0,0-2.263.937l-.221.119-2.368-1.892a.922.922,0,0,0-1.229.068l-2.8,2.8a.923.923,0,0,0-.068,1.229l1.893,2.368-.119.221a12.141,12.141,0,0,0-.9,2.135l-.074.237-3.145.351a.921.921,0,0,0-.822.917v3.963a.922.922,0,0,0,.822.918l3.091.345.071.243a11.953,11.953,0,0,0,.833,2.095l.112.218-2.008,2.511a.924.924,0,0,0,.069,1.23l2.8,2.8a.919.919,0,0,0,1.23.069l2.4-1.92.223.126a12.053,12.053,0,0,0,2.106.936l.23.075.349,3.124A.922.922,0,0,0,31,55.4h3.963a.923.923,0,0,0,.918-.823l.327-2.926.249-.067a11.88,11.88,0,0,0,2.277-.868l.217-.109L41.3,52.484a.922.922,0,0,0,1.23-.069l2.8-2.8a.921.921,0,0,0,.069-1.229L43.651,46.2l.131-.225a12.043,12.043,0,0,0,1.044-2.351l.075-.233,2.84-.317A.923.923,0,0,0,48.562,42.152Zm-1.849-.827-2.645.3a.926.926,0,0,0-.8.7,10.107,10.107,0,0,1-1.52,3.4.917.917,0,0,0,.038,1.1l1.649,2.064-1.632,1.632-2.184-1.745a.927.927,0,0,0-1.052-.07,10.151,10.151,0,0,1-3.37,1.273.928.928,0,0,0-.75.806l-.309,2.769h-2.31L31.5,50.633a.928.928,0,0,0-.692-.793,10.1,10.1,0,0,1-3.18-1.42.922.922,0,0,0-1.092.046l-2.272,1.815L22.635,48.65l1.884-2.359a.924.924,0,0,0,.067-1.056,10.183,10.183,0,0,1-1.266-3.2.919.919,0,0,0-.8-.728L19.6,40.985v-2.31l2.96-.331a.925.925,0,0,0,.8-.711,10.124,10.124,0,0,1,1.353-3.219.925.925,0,0,0-.057-1.076L22.877,31.11l1.631-1.633,2.228,1.78a.928.928,0,0,0,1.077.057,10.127,10.127,0,0,1,3.339-1.382.921.921,0,0,0,.721-.8l.3-2.686h2.311l.3,2.685a.922.922,0,0,0,.722.8,10.154,10.154,0,0,1,3.441,1.448.927.927,0,0,0,1.086-.05l2.016-1.61,1.631,1.632L42.041,33.4a.922.922,0,0,0-.059,1.07,10.159,10.159,0,0,1,1.389,3.515.918.918,0,0,0,.805.745l2.537.283Z" fill="#5e5e5e"></path></g></svg>