<svg xmlns="http://www.w3.org/2000/svg" width="65.427" height="80" viewBox="0 0 65.427 80"><g id="Group_105212" data-name="Group 105212" transform="translate(-7.887 -0.197)"><path id="Path_135638" data-name="Path 135638" d="M11.57,14.712H7.887V36.294a45.588,45.588,0,0,0,32.342,43.79l.371.113.373-.113a45.587,45.587,0,0,0,32.341-43.79V14.712H69.63A13.264,13.264,0,0,1,56.38,1.462V.2H24.821V1.462A13.265,13.265,0,0,1,11.57,14.712Zm15.618-11,.144-.99H53.87l.143.99A15.853,15.853,0,0,0,69.63,17.241h1.155V36.294A43.177,43.177,0,0,1,40.959,77.436l-.359.116-.359-.116A43.179,43.179,0,0,1,10.416,36.294V17.241H11.57A15.852,15.852,0,0,0,27.188,3.716Z" fill="#5e5e5e"></path><path id="Path_135639" data-name="Path 135639" d="M53.8,27.6l-.815-.758a18.187,18.187,0,1,0,2.932,3.5l-.5-.783,4.621-4.621-1.788-1.788ZM56.27,40.168a15.683,15.683,0,1,1-5.147-11.6l.9.816-.092.094L40.6,40.8l-.09-.088-5.456-5.459-1.788,1.788L40.6,44.376,53.633,31.341l.738,1.358A15.662,15.662,0,0,1,56.27,40.168Z" fill="#5e5e5e"></path></g></svg>